G04 #@! TF.GenerationSoftware,KiCad,Pcbnew,7.0.1*
G04 #@! TF.CreationDate,2023-03-12T20:55:32-04:00*
G04 #@! TF.ProjectId,petkb,7065746b-622e-46b6-9963-61645f706362,B-V1-R2*
G04 #@! TF.SameCoordinates,Original*
G04 #@! TF.FileFunction,Soldermask,Top*
G04 #@! TF.FilePolarity,Negative*
%FSLAX46Y46*%
G04 Gerber Fmt 4.6, Leading zero omitted, Abs format (unit mm)*
G04 Created by KiCad (PCBNEW 7.0.1) date 2023-03-12 20:55:32*
%MOMM*%
%LPD*%
G01*
G04 APERTURE LIST*
%ADD10C,3.050000*%
%ADD11C,4.000000*%
%ADD12C,1.700000*%
%ADD13C,2.200000*%
%ADD14O,1.700000X1.700000*%
%ADD15R,1.700000X1.700000*%
%ADD16O,1.600000X1.600000*%
%ADD17C,1.600000*%
G04 #@! TA.AperFunction,Profile*
%ADD18C,0.050000*%
G04 #@! TD*
G04 APERTURE END LIST*
D10*
X210337500Y-122286000D03*
X110337500Y-122286000D03*
D11*
X110337500Y-137526000D03*
X210337500Y-137526000D03*
D12*
X165417500Y-129286000D03*
X155257500Y-129286000D03*
D11*
X160337500Y-129286000D03*
D13*
X156527500Y-126746000D03*
X162877500Y-124206000D03*
D14*
X196189600Y-126746000D03*
X193649600Y-126746000D03*
X196189600Y-124206000D03*
D15*
X193649600Y-124206000D03*
D14*
X252425200Y-129438400D03*
X249885200Y-129438400D03*
X252425200Y-126898400D03*
D15*
X249885200Y-126898400D03*
D14*
X331571600Y-44450000D03*
D15*
X331571600Y-46990000D03*
D14*
X41402000Y-128930400D03*
X38862000Y-128930400D03*
X41402000Y-126390400D03*
X38862000Y-126390400D03*
X41402000Y-123850400D03*
D15*
X38862000Y-123850400D03*
D14*
X131165600Y-126746000D03*
X128625600Y-126746000D03*
X131165600Y-124206000D03*
D15*
X128625600Y-124206000D03*
D14*
X69748400Y-126796800D03*
X67208400Y-126796800D03*
X69748400Y-124256800D03*
D15*
X67208400Y-124256800D03*
D16*
X339496400Y-50901600D03*
D17*
X329336400Y-50901600D03*
D12*
X356616000Y-53086000D03*
X346456000Y-53086000D03*
D11*
X351536000Y-53086000D03*
D13*
X347726000Y-50546000D03*
X354076000Y-48006000D03*
D12*
X320294000Y-110236000D03*
X310134000Y-110236000D03*
D11*
X315214000Y-110236000D03*
D13*
X311404000Y-107696000D03*
X317754000Y-105156000D03*
D10*
X317589000Y-84186000D03*
X293789000Y-84186000D03*
D11*
X293789000Y-99426000D03*
X317589000Y-99426000D03*
D12*
X310769000Y-91186000D03*
X300609000Y-91186000D03*
D11*
X305689000Y-91186000D03*
D13*
X301879000Y-88646000D03*
X308229000Y-86106000D03*
X392176000Y-86106000D03*
X385826000Y-88646000D03*
D11*
X389636000Y-91186000D03*
D12*
X384556000Y-91186000D03*
X394716000Y-91186000D03*
X324612000Y-53086000D03*
X314452000Y-53086000D03*
D11*
X319532000Y-53086000D03*
D13*
X315722000Y-50546000D03*
X322072000Y-48006000D03*
X245872000Y-48006000D03*
X239522000Y-50546000D03*
D11*
X243332000Y-53086000D03*
D12*
X238252000Y-53086000D03*
X248412000Y-53086000D03*
D14*
X336994500Y-59118500D03*
X336994500Y-61658500D03*
X336994500Y-64198500D03*
X336994500Y-66738500D03*
X336994500Y-69278500D03*
X336994500Y-71818500D03*
X336994500Y-74358500D03*
X336994500Y-76898500D03*
X336994500Y-79438500D03*
X336994500Y-81978500D03*
X336994500Y-84518500D03*
X336994500Y-87058500D03*
X336994500Y-89598500D03*
X336994500Y-92138500D03*
X336994500Y-94678500D03*
X336994500Y-97218500D03*
X336994500Y-99758500D03*
X336994500Y-102298500D03*
X336994500Y-104838500D03*
D15*
X336994500Y-107378500D03*
D12*
X91630500Y-129286000D03*
X81470500Y-129286000D03*
D11*
X86550500Y-129286000D03*
D13*
X82740500Y-126746000D03*
X89090500Y-124206000D03*
D14*
X185623200Y-44602400D03*
X188163200Y-44602400D03*
X190703200Y-44602400D03*
X193243200Y-44602400D03*
X195783200Y-44602400D03*
X198323200Y-44602400D03*
X200863200Y-44602400D03*
X203403200Y-44602400D03*
X205943200Y-44602400D03*
X208483200Y-44602400D03*
X211023200Y-44602400D03*
X213563200Y-44602400D03*
X216103200Y-44602400D03*
X218643200Y-44602400D03*
X221183200Y-44602400D03*
X223723200Y-44602400D03*
X226263200Y-44602400D03*
X228803200Y-44602400D03*
X231343200Y-44602400D03*
D15*
X233883200Y-44602400D03*
D12*
X219964000Y-72136000D03*
X209804000Y-72136000D03*
D11*
X214884000Y-72136000D03*
D13*
X211074000Y-69596000D03*
X217424000Y-67056000D03*
D12*
X239014000Y-72136000D03*
X228854000Y-72136000D03*
D11*
X233934000Y-72136000D03*
D13*
X230124000Y-69596000D03*
X236474000Y-67056000D03*
D12*
X177546000Y-110236000D03*
X167386000Y-110236000D03*
D11*
X172466000Y-110236000D03*
D13*
X168656000Y-107696000D03*
X175006000Y-105156000D03*
D12*
X244094000Y-91186000D03*
X233934000Y-91186000D03*
D11*
X239014000Y-91186000D03*
D13*
X235204000Y-88646000D03*
X241554000Y-86106000D03*
X222504000Y-86106000D03*
X216154000Y-88646000D03*
D11*
X219964000Y-91186000D03*
D12*
X214884000Y-91186000D03*
X225044000Y-91186000D03*
X237109000Y-129286000D03*
X226949000Y-129286000D03*
D11*
X232029000Y-129286000D03*
D13*
X228219000Y-126746000D03*
X234569000Y-124206000D03*
D12*
X72644000Y-91186000D03*
X62484000Y-91186000D03*
D11*
X67564000Y-91186000D03*
D13*
X63754000Y-88646000D03*
X70104000Y-86106000D03*
D12*
X394716000Y-110236000D03*
X384556000Y-110236000D03*
D11*
X389636000Y-110236000D03*
D13*
X385826000Y-107696000D03*
X392176000Y-105156000D03*
D12*
X53594000Y-91186000D03*
X43434000Y-91186000D03*
D11*
X48514000Y-91186000D03*
D13*
X44704000Y-88646000D03*
X51054000Y-86106000D03*
D12*
X124714000Y-72136000D03*
X114554000Y-72136000D03*
D11*
X119634000Y-72136000D03*
D13*
X115824000Y-69596000D03*
X122174000Y-67056000D03*
X198374000Y-67056000D03*
X192024000Y-69596000D03*
D11*
X195834000Y-72136000D03*
D12*
X190754000Y-72136000D03*
X200914000Y-72136000D03*
D13*
X103124000Y-67056000D03*
X96774000Y-69596000D03*
D11*
X100584000Y-72136000D03*
D12*
X95504000Y-72136000D03*
X105664000Y-72136000D03*
D13*
X312674000Y-67056000D03*
X306324000Y-69596000D03*
D11*
X310134000Y-72136000D03*
D12*
X305054000Y-72136000D03*
X315214000Y-72136000D03*
X277114000Y-72136000D03*
X266954000Y-72136000D03*
D11*
X272034000Y-72136000D03*
D13*
X268224000Y-69596000D03*
X274574000Y-67056000D03*
D12*
X67564000Y-72136000D03*
X57404000Y-72136000D03*
D11*
X62484000Y-72136000D03*
D13*
X58674000Y-69596000D03*
X65024000Y-67056000D03*
X84074000Y-67056000D03*
X77724000Y-69596000D03*
D11*
X81534000Y-72136000D03*
D12*
X76454000Y-72136000D03*
X86614000Y-72136000D03*
D13*
X160274000Y-67056000D03*
X153924000Y-69596000D03*
D11*
X157734000Y-72136000D03*
D12*
X152654000Y-72136000D03*
X162814000Y-72136000D03*
X258064000Y-72136000D03*
X247904000Y-72136000D03*
D11*
X252984000Y-72136000D03*
D13*
X249174000Y-69596000D03*
X255524000Y-67056000D03*
X179324000Y-67056000D03*
X172974000Y-69596000D03*
D11*
X176784000Y-72136000D03*
D12*
X171704000Y-72136000D03*
X181864000Y-72136000D03*
X143764000Y-72136000D03*
X133604000Y-72136000D03*
D11*
X138684000Y-72136000D03*
D13*
X134874000Y-69596000D03*
X141224000Y-67056000D03*
D12*
X296164000Y-72136000D03*
X286004000Y-72136000D03*
D11*
X291084000Y-72136000D03*
D13*
X287274000Y-69596000D03*
X293624000Y-67056000D03*
D12*
X43688000Y-72136000D03*
X33528000Y-72136000D03*
D11*
X38608000Y-72136000D03*
D13*
X34798000Y-69596000D03*
X41148000Y-67056000D03*
D12*
X58420000Y-110236000D03*
X48260000Y-110236000D03*
D11*
X53340000Y-110236000D03*
D13*
X49530000Y-107696000D03*
X55880000Y-105156000D03*
D12*
X277495000Y-110236000D03*
X267335000Y-110236000D03*
D11*
X272415000Y-110236000D03*
D13*
X268605000Y-107696000D03*
X274955000Y-105156000D03*
D10*
X372961000Y-103236000D03*
X349161000Y-103236000D03*
D11*
X349161000Y-118476000D03*
X372961000Y-118476000D03*
D12*
X366141000Y-110236000D03*
X355981000Y-110236000D03*
D11*
X361061000Y-110236000D03*
D13*
X357251000Y-107696000D03*
X363601000Y-105156000D03*
X207772000Y-48006000D03*
X201422000Y-50546000D03*
D11*
X205232000Y-53086000D03*
D12*
X200152000Y-53086000D03*
X210312000Y-53086000D03*
X153162000Y-53086000D03*
X143002000Y-53086000D03*
D11*
X148082000Y-53086000D03*
D13*
X144272000Y-50546000D03*
X150622000Y-48006000D03*
X93472000Y-48006000D03*
X87122000Y-50546000D03*
D11*
X90932000Y-53086000D03*
D12*
X85852000Y-53086000D03*
X96012000Y-53086000D03*
X38862000Y-53086000D03*
X28702000Y-53086000D03*
D11*
X33782000Y-53086000D03*
D13*
X29972000Y-50546000D03*
X36322000Y-48006000D03*
X354076000Y-86106000D03*
X347726000Y-88646000D03*
D11*
X351536000Y-91186000D03*
D12*
X346456000Y-91186000D03*
X356616000Y-91186000D03*
X253746000Y-110236000D03*
X243586000Y-110236000D03*
D11*
X248666000Y-110236000D03*
D13*
X244856000Y-107696000D03*
X251206000Y-105156000D03*
X194056000Y-105156000D03*
X187706000Y-107696000D03*
D11*
X191516000Y-110236000D03*
D12*
X186436000Y-110236000D03*
X196596000Y-110236000D03*
D13*
X98806000Y-105156000D03*
X92456000Y-107696000D03*
D11*
X96266000Y-110236000D03*
D12*
X91186000Y-110236000D03*
X101346000Y-110236000D03*
X34544000Y-110236000D03*
X24384000Y-110236000D03*
D11*
X29464000Y-110236000D03*
D13*
X25654000Y-107696000D03*
X32004000Y-105156000D03*
X373126000Y-86106000D03*
X366776000Y-88646000D03*
D11*
X370586000Y-91186000D03*
D12*
X365506000Y-91186000D03*
X375666000Y-91186000D03*
X301244000Y-110236000D03*
X291084000Y-110236000D03*
D11*
X296164000Y-110236000D03*
D13*
X292354000Y-107696000D03*
X298704000Y-105156000D03*
X213106000Y-105156000D03*
X206756000Y-107696000D03*
D11*
X210566000Y-110236000D03*
D12*
X205486000Y-110236000D03*
X215646000Y-110236000D03*
D13*
X136906000Y-105156000D03*
X130556000Y-107696000D03*
D11*
X134366000Y-110236000D03*
D12*
X129286000Y-110236000D03*
X139446000Y-110236000D03*
X82296000Y-110236000D03*
X72136000Y-110236000D03*
D11*
X77216000Y-110236000D03*
D13*
X73406000Y-107696000D03*
X79756000Y-105156000D03*
X232156000Y-105156000D03*
X225806000Y-107696000D03*
D11*
X229616000Y-110236000D03*
D12*
X224536000Y-110236000D03*
X234696000Y-110236000D03*
X158496000Y-110236000D03*
X148336000Y-110236000D03*
D11*
X153416000Y-110236000D03*
D13*
X149606000Y-107696000D03*
X155956000Y-105156000D03*
X117856000Y-105156000D03*
X111506000Y-107696000D03*
D11*
X115316000Y-110236000D03*
D12*
X110236000Y-110236000D03*
X120396000Y-110236000D03*
D13*
X354076000Y-67056000D03*
X347726000Y-69596000D03*
D11*
X351536000Y-72136000D03*
D12*
X346456000Y-72136000D03*
X356616000Y-72136000D03*
D13*
X392176000Y-67056000D03*
X385826000Y-69596000D03*
D11*
X389636000Y-72136000D03*
D12*
X384556000Y-72136000D03*
X394716000Y-72136000D03*
X263144000Y-91186000D03*
X252984000Y-91186000D03*
D11*
X258064000Y-91186000D03*
D13*
X254254000Y-88646000D03*
X260604000Y-86106000D03*
X184404000Y-86106000D03*
X178054000Y-88646000D03*
D11*
X181864000Y-91186000D03*
D12*
X176784000Y-91186000D03*
X186944000Y-91186000D03*
X148844000Y-91186000D03*
X138684000Y-91186000D03*
D11*
X143764000Y-91186000D03*
D13*
X139954000Y-88646000D03*
X146304000Y-86106000D03*
X108204000Y-86106000D03*
X101854000Y-88646000D03*
D11*
X105664000Y-91186000D03*
D12*
X100584000Y-91186000D03*
X110744000Y-91186000D03*
D13*
X373126000Y-67056000D03*
X366776000Y-69596000D03*
D11*
X370586000Y-72136000D03*
D12*
X365506000Y-72136000D03*
X375666000Y-72136000D03*
D13*
X203454000Y-86106000D03*
X197104000Y-88646000D03*
D11*
X200914000Y-91186000D03*
D12*
X195834000Y-91186000D03*
X205994000Y-91186000D03*
X282194000Y-91186000D03*
X272034000Y-91186000D03*
D11*
X277114000Y-91186000D03*
D13*
X273304000Y-88646000D03*
X279654000Y-86106000D03*
X165354000Y-86106000D03*
X159004000Y-88646000D03*
D11*
X162814000Y-91186000D03*
D12*
X157734000Y-91186000D03*
X167894000Y-91186000D03*
X129794000Y-91186000D03*
X119634000Y-91186000D03*
D11*
X124714000Y-91186000D03*
D13*
X120904000Y-88646000D03*
X127254000Y-86106000D03*
X89154000Y-86106000D03*
X82804000Y-88646000D03*
D11*
X86614000Y-91186000D03*
D12*
X81534000Y-91186000D03*
X91694000Y-91186000D03*
X34544000Y-91186000D03*
X24384000Y-91186000D03*
D11*
X29464000Y-91186000D03*
D13*
X25654000Y-88646000D03*
X32004000Y-86106000D03*
X392176000Y-48006000D03*
X385826000Y-50546000D03*
D11*
X389636000Y-53086000D03*
D12*
X384556000Y-53086000D03*
X394716000Y-53086000D03*
D13*
X283972000Y-48006000D03*
X277622000Y-50546000D03*
D11*
X281432000Y-53086000D03*
D12*
X276352000Y-53086000D03*
X286512000Y-53086000D03*
D13*
X226822000Y-48006000D03*
X220472000Y-50546000D03*
D11*
X224282000Y-53086000D03*
D12*
X219202000Y-53086000D03*
X229362000Y-53086000D03*
X172212000Y-53086000D03*
X162052000Y-53086000D03*
D11*
X167132000Y-53086000D03*
D13*
X163322000Y-50546000D03*
X169672000Y-48006000D03*
X112522000Y-48006000D03*
X106172000Y-50546000D03*
D11*
X109982000Y-53086000D03*
D12*
X104902000Y-53086000D03*
X115062000Y-53086000D03*
X57912000Y-53086000D03*
X47752000Y-53086000D03*
D11*
X52832000Y-53086000D03*
D13*
X49022000Y-50546000D03*
X55372000Y-48006000D03*
X303022000Y-48006000D03*
X296672000Y-50546000D03*
D11*
X300482000Y-53086000D03*
D12*
X295402000Y-53086000D03*
X305562000Y-53086000D03*
X375666000Y-53086000D03*
X365506000Y-53086000D03*
D11*
X370586000Y-53086000D03*
D13*
X366776000Y-50546000D03*
X373126000Y-48006000D03*
X264922000Y-48006000D03*
X258572000Y-50546000D03*
D11*
X262382000Y-53086000D03*
D12*
X257302000Y-53086000D03*
X267462000Y-53086000D03*
X191262000Y-53086000D03*
X181102000Y-53086000D03*
D11*
X186182000Y-53086000D03*
D13*
X182372000Y-50546000D03*
X188722000Y-48006000D03*
X131572000Y-48006000D03*
X125222000Y-50546000D03*
D11*
X129032000Y-53086000D03*
D12*
X123952000Y-53086000D03*
X134112000Y-53086000D03*
X76962000Y-53086000D03*
X66802000Y-53086000D03*
D11*
X71882000Y-53086000D03*
D13*
X68072000Y-50546000D03*
X74422000Y-48006000D03*
D18*
X398676494Y-139801600D02*
G75*
G03*
X398676494Y-139801600I-2030094J0D01*
G01*
X254861694Y-46276894D02*
G75*
G03*
X254861694Y-46276894I-2030094J0D01*
G01*
X178712494Y-46073694D02*
G75*
G03*
X178712494Y-46073694I-2030094J0D01*
G01*
X26617294Y-46126400D02*
G75*
G03*
X26617294Y-46126400I-2030094J0D01*
G01*
X98501200Y-139801600D02*
G75*
G03*
X98501200Y-139801600I-2030094J0D01*
G01*
X149197694Y-139801600D02*
G75*
G03*
X149197694Y-139801600I-2030094J0D01*
G01*
X276705694Y-139852400D02*
G75*
G03*
X276705694Y-139852400I-2030094J0D01*
G01*
X338935694Y-139750800D02*
G75*
G03*
X338935694Y-139750800I-2030094J0D01*
G01*
X243584094Y-139801600D02*
G75*
G03*
X243584094Y-139801600I-2030094J0D01*
G01*
X371092094Y-139801600D02*
G75*
G03*
X371092094Y-139801600I-2030094J0D01*
G01*
X308100094Y-139801600D02*
G75*
G03*
X308100094Y-139801600I-2030094J0D01*
G01*
X180439694Y-139852400D02*
G75*
G03*
X180439694Y-139852400I-2030094J0D01*
G01*
X53084094Y-139801600D02*
G75*
G03*
X53084094Y-139801600I-2030094J0D01*
G01*
X26972894Y-139700000D02*
G75*
G03*
X26972894Y-139700000I-2030094J0D01*
G01*
X23213694Y-72136000D02*
G75*
G03*
X23213694Y-72136000I-2030094J0D01*
G01*
X23264494Y-53187600D02*
G75*
G03*
X23264494Y-53187600I-2030094J0D01*
G01*
X102563294Y-46126400D02*
G75*
G03*
X102563294Y-46126400I-2030094J0D01*
G01*
X338884894Y-46126400D02*
G75*
G03*
X338884894Y-46126400I-2030094J0D01*
G01*
X401978494Y-129844800D02*
G75*
G03*
X401978494Y-129844800I-2030094J0D01*
G01*
X402130894Y-110236000D02*
G75*
G03*
X402130894Y-110236000I-2030094J0D01*
G01*
X402130894Y-91236800D02*
G75*
G03*
X402130894Y-91236800I-2030094J0D01*
G01*
X402130894Y-72136000D02*
G75*
G03*
X402130894Y-72136000I-2030094J0D01*
G01*
X402132800Y-53136800D02*
G75*
G03*
X402132800Y-53136800I-2030094J0D01*
G01*
X22860000Y-42773600D02*
X397256000Y-42773600D01*
X17018000Y-136956800D02*
X17018000Y-48615600D01*
X397256000Y-142798800D02*
X22860000Y-142798800D01*
X403098000Y-136956800D02*
X403098000Y-123545600D01*
X403098000Y-48615600D02*
X403098000Y-123545600D01*
X22860000Y-42773600D02*
G75*
G03*
X17018000Y-48615600I0J-5842000D01*
G01*
X17018000Y-136956800D02*
G75*
G03*
X22860000Y-142798800I5842000J0D01*
G01*
X397256000Y-142798800D02*
G75*
G03*
X403098000Y-136956800I0J5842000D01*
G01*
X403098000Y-48615600D02*
G75*
G03*
X397256000Y-42773600I-5842000J0D01*
G01*
M02*
