G04 #@! TF.GenerationSoftware,KiCad,Pcbnew,7.0.1*
G04 #@! TF.CreationDate,2023-03-12T20:55:32-04:00*
G04 #@! TF.ProjectId,petkb,7065746b-622e-46b6-9963-61645f706362,B-V1-R2*
G04 #@! TF.SameCoordinates,Original*
G04 #@! TF.FileFunction,Copper,L1,Top*
G04 #@! TF.FilePolarity,Positive*
%FSLAX46Y46*%
G04 Gerber Fmt 4.6, Leading zero omitted, Abs format (unit mm)*
G04 Created by KiCad (PCBNEW 7.0.1) date 2023-03-12 20:55:32*
%MOMM*%
%LPD*%
G01*
G04 APERTURE LIST*
G04 #@! TA.AperFunction,ComponentPad*
%ADD10C,2.200000*%
G04 #@! TD*
G04 #@! TA.AperFunction,ComponentPad*
%ADD11O,1.700000X1.700000*%
G04 #@! TD*
G04 #@! TA.AperFunction,ComponentPad*
%ADD12R,1.700000X1.700000*%
G04 #@! TD*
G04 #@! TA.AperFunction,ComponentPad*
%ADD13O,1.600000X1.600000*%
G04 #@! TD*
G04 #@! TA.AperFunction,ComponentPad*
%ADD14C,1.600000*%
G04 #@! TD*
G04 #@! TA.AperFunction,ViaPad*
%ADD15C,0.800000*%
G04 #@! TD*
G04 #@! TA.AperFunction,Conductor*
%ADD16C,0.400000*%
G04 #@! TD*
G04 #@! TA.AperFunction,Conductor*
%ADD17C,0.250000*%
G04 #@! TD*
G04 #@! TA.AperFunction,Conductor*
%ADD18C,0.750000*%
G04 #@! TD*
G04 #@! TA.AperFunction,Profile*
%ADD19C,0.050000*%
G04 #@! TD*
G04 APERTURE END LIST*
D10*
X156527500Y-126746000D03*
X162877500Y-124206000D03*
D11*
X196189600Y-126746000D03*
X193649600Y-126746000D03*
X196189600Y-124206000D03*
D12*
X193649600Y-124206000D03*
D11*
X252425200Y-129438400D03*
X249885200Y-129438400D03*
X252425200Y-126898400D03*
D12*
X249885200Y-126898400D03*
D11*
X331571600Y-44450000D03*
D12*
X331571600Y-46990000D03*
D11*
X41402000Y-128930400D03*
X38862000Y-128930400D03*
X41402000Y-126390400D03*
X38862000Y-126390400D03*
X41402000Y-123850400D03*
D12*
X38862000Y-123850400D03*
D11*
X131165600Y-126746000D03*
X128625600Y-126746000D03*
X131165600Y-124206000D03*
D12*
X128625600Y-124206000D03*
D11*
X69748400Y-126796800D03*
X67208400Y-126796800D03*
X69748400Y-124256800D03*
D12*
X67208400Y-124256800D03*
D13*
X339496400Y-50901600D03*
D14*
X329336400Y-50901600D03*
D10*
X347726000Y-50546000D03*
X354076000Y-48006000D03*
X311404000Y-107696000D03*
X317754000Y-105156000D03*
X301879000Y-88646000D03*
X308229000Y-86106000D03*
X392176000Y-86106000D03*
X385826000Y-88646000D03*
X315722000Y-50546000D03*
X322072000Y-48006000D03*
X245872000Y-48006000D03*
X239522000Y-50546000D03*
D11*
X336994500Y-59118500D03*
X336994500Y-61658500D03*
X336994500Y-64198500D03*
X336994500Y-66738500D03*
X336994500Y-69278500D03*
X336994500Y-71818500D03*
X336994500Y-74358500D03*
X336994500Y-76898500D03*
X336994500Y-79438500D03*
X336994500Y-81978500D03*
X336994500Y-84518500D03*
X336994500Y-87058500D03*
X336994500Y-89598500D03*
X336994500Y-92138500D03*
X336994500Y-94678500D03*
X336994500Y-97218500D03*
X336994500Y-99758500D03*
X336994500Y-102298500D03*
X336994500Y-104838500D03*
D12*
X336994500Y-107378500D03*
D10*
X82740500Y-126746000D03*
X89090500Y-124206000D03*
D11*
X185623200Y-44602400D03*
X188163200Y-44602400D03*
X190703200Y-44602400D03*
X193243200Y-44602400D03*
X195783200Y-44602400D03*
X198323200Y-44602400D03*
X200863200Y-44602400D03*
X203403200Y-44602400D03*
X205943200Y-44602400D03*
X208483200Y-44602400D03*
X211023200Y-44602400D03*
X213563200Y-44602400D03*
X216103200Y-44602400D03*
X218643200Y-44602400D03*
X221183200Y-44602400D03*
X223723200Y-44602400D03*
X226263200Y-44602400D03*
X228803200Y-44602400D03*
X231343200Y-44602400D03*
D12*
X233883200Y-44602400D03*
D10*
X211074000Y-69596000D03*
X217424000Y-67056000D03*
X230124000Y-69596000D03*
X236474000Y-67056000D03*
X168656000Y-107696000D03*
X175006000Y-105156000D03*
X235204000Y-88646000D03*
X241554000Y-86106000D03*
X222504000Y-86106000D03*
X216154000Y-88646000D03*
X228219000Y-126746000D03*
X234569000Y-124206000D03*
X63754000Y-88646000D03*
X70104000Y-86106000D03*
X385826000Y-107696000D03*
X392176000Y-105156000D03*
X44704000Y-88646000D03*
X51054000Y-86106000D03*
X115824000Y-69596000D03*
X122174000Y-67056000D03*
X198374000Y-67056000D03*
X192024000Y-69596000D03*
X103124000Y-67056000D03*
X96774000Y-69596000D03*
X312674000Y-67056000D03*
X306324000Y-69596000D03*
X268224000Y-69596000D03*
X274574000Y-67056000D03*
X58674000Y-69596000D03*
X65024000Y-67056000D03*
X84074000Y-67056000D03*
X77724000Y-69596000D03*
X160274000Y-67056000D03*
X153924000Y-69596000D03*
X249174000Y-69596000D03*
X255524000Y-67056000D03*
X179324000Y-67056000D03*
X172974000Y-69596000D03*
X134874000Y-69596000D03*
X141224000Y-67056000D03*
X287274000Y-69596000D03*
X293624000Y-67056000D03*
X34798000Y-69596000D03*
X41148000Y-67056000D03*
X49530000Y-107696000D03*
X55880000Y-105156000D03*
X268605000Y-107696000D03*
X274955000Y-105156000D03*
X357251000Y-107696000D03*
X363601000Y-105156000D03*
X207772000Y-48006000D03*
X201422000Y-50546000D03*
X144272000Y-50546000D03*
X150622000Y-48006000D03*
X93472000Y-48006000D03*
X87122000Y-50546000D03*
X29972000Y-50546000D03*
X36322000Y-48006000D03*
X354076000Y-86106000D03*
X347726000Y-88646000D03*
X244856000Y-107696000D03*
X251206000Y-105156000D03*
X194056000Y-105156000D03*
X187706000Y-107696000D03*
X98806000Y-105156000D03*
X92456000Y-107696000D03*
X25654000Y-107696000D03*
X32004000Y-105156000D03*
X373126000Y-86106000D03*
X366776000Y-88646000D03*
X292354000Y-107696000D03*
X298704000Y-105156000D03*
X213106000Y-105156000D03*
X206756000Y-107696000D03*
X136906000Y-105156000D03*
X130556000Y-107696000D03*
X73406000Y-107696000D03*
X79756000Y-105156000D03*
X232156000Y-105156000D03*
X225806000Y-107696000D03*
X149606000Y-107696000D03*
X155956000Y-105156000D03*
X117856000Y-105156000D03*
X111506000Y-107696000D03*
X354076000Y-67056000D03*
X347726000Y-69596000D03*
X392176000Y-67056000D03*
X385826000Y-69596000D03*
X254254000Y-88646000D03*
X260604000Y-86106000D03*
X184404000Y-86106000D03*
X178054000Y-88646000D03*
X139954000Y-88646000D03*
X146304000Y-86106000D03*
X108204000Y-86106000D03*
X101854000Y-88646000D03*
X373126000Y-67056000D03*
X366776000Y-69596000D03*
X203454000Y-86106000D03*
X197104000Y-88646000D03*
X273304000Y-88646000D03*
X279654000Y-86106000D03*
X165354000Y-86106000D03*
X159004000Y-88646000D03*
X120904000Y-88646000D03*
X127254000Y-86106000D03*
X89154000Y-86106000D03*
X82804000Y-88646000D03*
X25654000Y-88646000D03*
X32004000Y-86106000D03*
X392176000Y-48006000D03*
X385826000Y-50546000D03*
X283972000Y-48006000D03*
X277622000Y-50546000D03*
X226822000Y-48006000D03*
X220472000Y-50546000D03*
X163322000Y-50546000D03*
X169672000Y-48006000D03*
X112522000Y-48006000D03*
X106172000Y-50546000D03*
X49022000Y-50546000D03*
X55372000Y-48006000D03*
X303022000Y-48006000D03*
X296672000Y-50546000D03*
X366776000Y-50546000D03*
X373126000Y-48006000D03*
X264922000Y-48006000D03*
X258572000Y-50546000D03*
X182372000Y-50546000D03*
X188722000Y-48006000D03*
X131572000Y-48006000D03*
X125222000Y-50546000D03*
X68072000Y-50546000D03*
X74422000Y-48006000D03*
D15*
X354076000Y-76200000D03*
X203301600Y-77419200D03*
X312978800Y-77419200D03*
X240284000Y-58674000D03*
X324256400Y-58674000D03*
X316426850Y-58667650D03*
X325272400Y-103886000D03*
X236474000Y-47294800D03*
X37846000Y-86487000D03*
X299656500Y-81153000D03*
X333946500Y-80073500D03*
X198424800Y-62839600D03*
X236474000Y-63144400D03*
X308165500Y-65341500D03*
X245300500Y-64516000D03*
X245922800Y-57505600D03*
X308152800Y-57505600D03*
X237388400Y-119888000D03*
X195783200Y-61976000D03*
X296037000Y-61976000D03*
X323799200Y-61722000D03*
X324002400Y-69291200D03*
X343712800Y-58013600D03*
X265379200Y-62890400D03*
X181229000Y-64389000D03*
X330250800Y-64211200D03*
X329234800Y-94183200D03*
X327977500Y-92837000D03*
X131876800Y-59944000D03*
X179019200Y-59944000D03*
X328777600Y-61620400D03*
X326453500Y-91122500D03*
X171424600Y-97155000D03*
X326440800Y-59029600D03*
X244983000Y-102997000D03*
X92583000Y-118364000D03*
X188214000Y-118313200D03*
X247777000Y-104140000D03*
X328422000Y-100990400D03*
X327907650Y-112426750D03*
X227533200Y-66903600D03*
X233413300Y-66916300D03*
X242443000Y-104902000D03*
X329488800Y-97840800D03*
X329488800Y-114401600D03*
X256717800Y-113665000D03*
X208407000Y-76200000D03*
X346392500Y-84518500D03*
X322008500Y-89852500D03*
X316738000Y-76327000D03*
X217119200Y-52578000D03*
X212496400Y-52527200D03*
X225171000Y-69596000D03*
X332232000Y-78994000D03*
X213741000Y-88011000D03*
X359410000Y-77660500D03*
X359410000Y-59817000D03*
X210058000Y-50546000D03*
X281228800Y-81178400D03*
X343860781Y-79497581D03*
X278282400Y-54914800D03*
X362458000Y-71628000D03*
X126034800Y-61112400D03*
X260146800Y-61061600D03*
X260223000Y-56007000D03*
X182778400Y-61112400D03*
X208076800Y-61112400D03*
X364648750Y-61626750D03*
X240741200Y-63296800D03*
X322275200Y-70459600D03*
X326339200Y-107391200D03*
X327710800Y-70866000D03*
X36677600Y-94996000D03*
X51054000Y-94996000D03*
D16*
X374650000Y-86106000D02*
X373126000Y-86106000D01*
X373126000Y-67056000D02*
X392176000Y-67056000D01*
X392176000Y-67056000D02*
X392176000Y-54864000D01*
X392176000Y-54864000D02*
X392811000Y-54229000D01*
X392811000Y-48641000D02*
X392176000Y-48006000D01*
X392811000Y-54229000D02*
X392811000Y-48641000D01*
X354076000Y-67056000D02*
X373126000Y-67056000D01*
X392176000Y-86106000D02*
X391414000Y-86106000D01*
X375412000Y-85344000D02*
X374650000Y-86106000D01*
X390652000Y-85344000D02*
X375412000Y-85344000D01*
X391414000Y-86106000D02*
X390652000Y-85344000D01*
X336994500Y-76898500D02*
X353377500Y-76898500D01*
X353377500Y-76898500D02*
X354076000Y-76200000D01*
X203301600Y-77419200D02*
X312978800Y-77419200D01*
X313537600Y-67056000D02*
X312674000Y-67056000D01*
X323380100Y-76898500D02*
X313537600Y-67056000D01*
X336994500Y-76898500D02*
X323380100Y-76898500D01*
X76962000Y-58674000D02*
X85090000Y-50546000D01*
X85090000Y-50546000D02*
X87122000Y-50546000D01*
X49530000Y-58674000D02*
X76962000Y-58674000D01*
X41910000Y-51054000D02*
X49530000Y-58674000D01*
X30988000Y-50546000D02*
X31750000Y-49784000D01*
X29972000Y-50546000D02*
X30988000Y-50546000D01*
X36322000Y-51054000D02*
X41910000Y-51054000D01*
X31750000Y-49784000D02*
X35052000Y-49784000D01*
X35052000Y-49784000D02*
X36322000Y-51054000D01*
X76962000Y-58674000D02*
X142748000Y-58674000D01*
X142748000Y-58674000D02*
X144907000Y-56515000D01*
X144907000Y-51181000D02*
X144272000Y-50546000D01*
X144907000Y-56515000D02*
X144907000Y-51181000D01*
X202057000Y-51181000D02*
X201422000Y-50546000D01*
X202057000Y-54229000D02*
X202057000Y-51181000D01*
X142748000Y-58674000D02*
X197612000Y-58674000D01*
X197612000Y-58674000D02*
X202057000Y-54229000D01*
X243890800Y-58674000D02*
X243897150Y-58667650D01*
X240284000Y-58674000D02*
X243890800Y-58674000D01*
X197612000Y-58674000D02*
X240284000Y-58674000D01*
X243897150Y-58667650D02*
X316426850Y-58667650D01*
X324250050Y-58667650D02*
X316426850Y-58667650D01*
X324256400Y-58674000D02*
X324250050Y-58667650D01*
X336994500Y-102298500D02*
X333921100Y-102298500D01*
X332333600Y-103886000D02*
X325272400Y-103886000D01*
X333921100Y-102298500D02*
X332333600Y-103886000D01*
X228803200Y-46634400D02*
X230174800Y-48006000D01*
X228803200Y-44602400D02*
X228803200Y-46634400D01*
X235762800Y-48006000D02*
X236474000Y-47294800D01*
X230174800Y-48006000D02*
X235762800Y-48006000D01*
X236474000Y-67056000D02*
X245237000Y-67056000D01*
X274955000Y-105156000D02*
X298704000Y-105156000D01*
X53594000Y-83185000D02*
X238633000Y-83185000D01*
X41148000Y-83185000D02*
X37846000Y-86487000D01*
X53594000Y-83185000D02*
X41148000Y-83185000D01*
X238633000Y-83185000D02*
X241554000Y-86106000D01*
X241554000Y-86106000D02*
X242570000Y-86106000D01*
X259969000Y-85471000D02*
X260604000Y-86106000D01*
X243205000Y-85471000D02*
X259969000Y-85471000D01*
X242570000Y-86106000D02*
X243205000Y-85471000D01*
X255524000Y-67056000D02*
X254508000Y-67056000D01*
X245872000Y-66421000D02*
X245237000Y-67056000D01*
X253873000Y-66421000D02*
X245872000Y-66421000D01*
X254508000Y-67056000D02*
X253873000Y-66421000D01*
X251206000Y-105156000D02*
X252476000Y-105156000D01*
X274066000Y-104267000D02*
X274955000Y-105156000D01*
X253365000Y-104267000D02*
X274066000Y-104267000D01*
X252476000Y-105156000D02*
X253365000Y-104267000D01*
X198424800Y-62839600D02*
X198729600Y-63144400D01*
X198729600Y-63144400D02*
X236474000Y-63144400D01*
X299656500Y-81153000D02*
X299694600Y-81153000D01*
X300774100Y-80073500D02*
X332016100Y-80073500D01*
X299694600Y-81153000D02*
X300774100Y-80073500D01*
X332016100Y-80073500D02*
X333946500Y-80073500D01*
X336994500Y-74358500D02*
X324294500Y-74358500D01*
X198374000Y-67056000D02*
X217424000Y-67056000D01*
X217424000Y-67056000D02*
X224663000Y-67056000D01*
X283972000Y-48006000D02*
X303022000Y-48006000D01*
X203454000Y-86106000D02*
X204470000Y-86106000D01*
X221615000Y-85217000D02*
X222504000Y-86106000D01*
X205359000Y-85217000D02*
X221615000Y-85217000D01*
X204470000Y-86106000D02*
X205359000Y-85217000D01*
X226028250Y-65690750D02*
X234410250Y-65690750D01*
X224663000Y-67056000D02*
X226028250Y-65690750D01*
X234410250Y-65690750D02*
X235585000Y-64516000D01*
X235585000Y-64516000D02*
X245300500Y-64516000D01*
X330962000Y-71818500D02*
X336994500Y-71818500D01*
X320586100Y-71818500D02*
X330962000Y-71818500D01*
X314323599Y-65555999D02*
X320586100Y-71818500D01*
X308316499Y-65555999D02*
X314323599Y-65555999D01*
X308165500Y-65405000D02*
X308316499Y-65555999D01*
X308165500Y-65341500D02*
X308165500Y-65405000D01*
X245922800Y-57505600D02*
X308152800Y-57505600D01*
X69494400Y-119888000D02*
X231521000Y-119888000D01*
X67208400Y-122174000D02*
X69494400Y-119888000D01*
X67208400Y-124256800D02*
X67208400Y-122174000D01*
X231521000Y-119888000D02*
X237388400Y-119888000D01*
X252425200Y-126898400D02*
X252425200Y-124968000D01*
X247345200Y-119888000D02*
X237388400Y-119888000D01*
X252425200Y-124968000D02*
X247345200Y-119888000D01*
X320167000Y-61722000D02*
X296291000Y-61722000D01*
X274574000Y-67056000D02*
X276860000Y-67056000D01*
D17*
X279654000Y-86106000D02*
X279654000Y-85598000D01*
D16*
X392176000Y-105156000D02*
X390271000Y-105156000D01*
X366141000Y-105156000D02*
X363601000Y-105156000D01*
X366395000Y-105410000D02*
X366141000Y-105156000D01*
X374904000Y-105410000D02*
X374777000Y-105410000D01*
X374777000Y-105410000D02*
X366395000Y-105410000D01*
X389890000Y-104775000D02*
X382016000Y-104775000D01*
X390271000Y-105156000D02*
X389890000Y-104775000D01*
X360934000Y-105156000D02*
X363601000Y-105156000D01*
X360680000Y-105410000D02*
X360934000Y-105156000D01*
X276860000Y-67056000D02*
X277876000Y-67056000D01*
X292354000Y-67056000D02*
X293624000Y-67056000D01*
X291592000Y-66294000D02*
X292354000Y-67056000D01*
X278638000Y-66294000D02*
X291592000Y-66294000D01*
X277876000Y-67056000D02*
X278638000Y-66294000D01*
X374777000Y-105410000D02*
X381381000Y-105410000D01*
X381381000Y-105410000D02*
X382016000Y-104775000D01*
X318853999Y-106255999D02*
X320314499Y-106255999D01*
X317754000Y-105156000D02*
X318853999Y-106255999D01*
X320314499Y-106255999D02*
X325183500Y-111125000D01*
X348869000Y-111125000D02*
X354584000Y-105410000D01*
X325183500Y-111125000D02*
X348869000Y-111125000D01*
X354584000Y-105410000D02*
X360680000Y-105410000D01*
X336994500Y-69278500D02*
X332359000Y-69278500D01*
X296037000Y-61976000D02*
X296291000Y-61722000D01*
X195783200Y-61976000D02*
X296037000Y-61976000D01*
X320167000Y-61722000D02*
X323799200Y-61722000D01*
X324015100Y-69278500D02*
X336994500Y-69278500D01*
X324002400Y-69291200D02*
X324015100Y-69278500D01*
X354076000Y-48006000D02*
X373126000Y-48006000D01*
X342709500Y-69278500D02*
X343712800Y-68275200D01*
X336994500Y-69278500D02*
X342709500Y-69278500D01*
X343712800Y-68275200D02*
X343712800Y-58013600D01*
X160274000Y-67056000D02*
X179324000Y-67056000D01*
X207772000Y-48006000D02*
X226822000Y-48006000D01*
X194056000Y-105156000D02*
X213106000Y-105156000D01*
X213106000Y-105156000D02*
X232156000Y-105156000D01*
X165354000Y-86106000D02*
X165862000Y-86106000D01*
X183896000Y-85598000D02*
X184404000Y-86106000D01*
X166370000Y-85598000D02*
X183896000Y-85598000D01*
X165862000Y-86106000D02*
X166370000Y-85598000D01*
X262826500Y-48006000D02*
X264922000Y-48006000D01*
X228854000Y-48006000D02*
X229933500Y-49085500D01*
X226822000Y-48006000D02*
X228854000Y-48006000D01*
X229933500Y-49085500D02*
X236156500Y-49085500D01*
X206502000Y-48006000D02*
X207772000Y-48006000D01*
X205994000Y-47498000D02*
X206502000Y-48006000D01*
X193598800Y-47498000D02*
X205994000Y-47498000D01*
X193243200Y-47142400D02*
X193598800Y-47498000D01*
X193243200Y-44602400D02*
X193243200Y-47142400D01*
X237312200Y-47929800D02*
X242189000Y-47929800D01*
X236156500Y-49085500D02*
X237312200Y-47929800D01*
X323456300Y-66738500D02*
X336994500Y-66738500D01*
X319608200Y-62890400D02*
X323456300Y-66738500D01*
X265379200Y-62890400D02*
X319608200Y-62890400D01*
X243890800Y-46228000D02*
X247599200Y-46228000D01*
X242189000Y-47929800D02*
X243890800Y-46228000D01*
X247599200Y-46228000D02*
X250494800Y-49123600D01*
X250494800Y-49123600D02*
X255168400Y-49123600D01*
X257651250Y-46640750D02*
X261461250Y-46640750D01*
X255168400Y-49123600D02*
X257651250Y-46640750D01*
X261461250Y-46640750D02*
X262826500Y-48006000D01*
X122174000Y-67056000D02*
X141224000Y-67056000D01*
X150622000Y-48006000D02*
X169672000Y-48006000D01*
X155956000Y-105156000D02*
X175006000Y-105156000D01*
X148209000Y-67056000D02*
X141224000Y-67056000D01*
X181229000Y-64389000D02*
X150876000Y-64389000D01*
X150876000Y-64389000D02*
X148209000Y-67056000D01*
X127254000Y-86106000D02*
X128905000Y-86106000D01*
X145542000Y-85344000D02*
X146304000Y-86106000D01*
X129667000Y-85344000D02*
X145542000Y-85344000D01*
X128905000Y-86106000D02*
X129667000Y-85344000D01*
X188722000Y-48006000D02*
X189890400Y-48006000D01*
X189890400Y-48006000D02*
X190703200Y-47193200D01*
X190703200Y-47193200D02*
X190703200Y-44602400D01*
X330263500Y-64198500D02*
X330250800Y-64211200D01*
X336994500Y-64198500D02*
X330263500Y-64198500D01*
X180086000Y-49428400D02*
X181508400Y-48006000D01*
X174294800Y-49428400D02*
X180086000Y-49428400D01*
X181508400Y-48006000D02*
X188722000Y-48006000D01*
X172872400Y-48006000D02*
X174294800Y-49428400D01*
X169672000Y-48006000D02*
X172872400Y-48006000D01*
X290893500Y-96520000D02*
X326898000Y-96520000D01*
X326898000Y-96520000D02*
X329234800Y-94183200D01*
X242887500Y-101219000D02*
X286194500Y-101219000D01*
X241808000Y-102298500D02*
X242887500Y-101219000D01*
X186626500Y-102298500D02*
X241808000Y-102298500D01*
X183769000Y-105156000D02*
X186626500Y-102298500D01*
X286194500Y-101219000D02*
X290893500Y-96520000D01*
X175006000Y-105156000D02*
X183769000Y-105156000D01*
X131165600Y-124206000D02*
X162877500Y-124206000D01*
X162877500Y-124206000D02*
X193649600Y-124206000D01*
X84074000Y-67056000D02*
X103124000Y-67056000D01*
X89154000Y-86106000D02*
X108204000Y-86106000D01*
X98806000Y-105156000D02*
X108204000Y-105156000D01*
X117856000Y-105156000D02*
X136906000Y-105156000D01*
X112522000Y-48006000D02*
X131572000Y-48006000D01*
D17*
X103124000Y-67056000D02*
X104013000Y-67056000D01*
D16*
X117856000Y-105156000D02*
X116459000Y-105156000D01*
X108839000Y-104521000D02*
X108204000Y-105156000D01*
X115824000Y-104521000D02*
X108839000Y-104521000D01*
X116459000Y-105156000D02*
X115824000Y-104521000D01*
X131876800Y-59944000D02*
X179019200Y-59944000D01*
X328815700Y-61658500D02*
X328777600Y-61620400D01*
X336994500Y-61658500D02*
X328815700Y-61658500D01*
X93472000Y-48006000D02*
X94996000Y-48006000D01*
X94996000Y-48006000D02*
X95961200Y-48971200D01*
X103632000Y-48971200D02*
X104597200Y-48006000D01*
X95961200Y-48971200D02*
X103632000Y-48971200D01*
X104597200Y-48006000D02*
X112522000Y-48006000D01*
X325691500Y-95123000D02*
X327977500Y-92837000D01*
X289560000Y-95123000D02*
X325691500Y-95123000D01*
X288099500Y-96583500D02*
X289560000Y-95123000D01*
X288099500Y-96647000D02*
X288099500Y-96583500D01*
X284988000Y-99758500D02*
X288099500Y-96647000D01*
X241490500Y-100457000D02*
X242189000Y-99758500D01*
X185864500Y-100457000D02*
X241490500Y-100457000D01*
X183515000Y-102806500D02*
X185864500Y-100457000D01*
X145415000Y-102806500D02*
X183515000Y-102806500D01*
X143065500Y-105156000D02*
X145415000Y-102806500D01*
X242189000Y-99758500D02*
X284988000Y-99758500D01*
X136906000Y-105156000D02*
X143065500Y-105156000D01*
D17*
X41148000Y-67056000D02*
X33401000Y-67056000D01*
D16*
X29972000Y-84074000D02*
X32004000Y-86106000D01*
X32004000Y-86106000D02*
X24003000Y-86106000D01*
X24003000Y-86106000D02*
X21590000Y-88519000D01*
X21590000Y-88519000D02*
X21590000Y-98298000D01*
X28448000Y-105156000D02*
X32004000Y-105156000D01*
X21590000Y-98298000D02*
X28448000Y-105156000D01*
X29972000Y-70739000D02*
X29972000Y-65532000D01*
X29972000Y-70739000D02*
X29972000Y-84074000D01*
D17*
X29972000Y-70485000D02*
X29972000Y-70739000D01*
D16*
X29972000Y-65532000D02*
X25844500Y-61404500D01*
X55880000Y-105156000D02*
X79756000Y-105156000D01*
X41148000Y-67056000D02*
X31496000Y-67056000D01*
X31496000Y-67056000D02*
X29972000Y-65532000D01*
X25844500Y-61404500D02*
X25844500Y-50863500D01*
X34798000Y-46482000D02*
X36322000Y-48006000D01*
X30226000Y-46482000D02*
X34798000Y-46482000D01*
X25844500Y-50863500D02*
X30226000Y-46482000D01*
X36322000Y-48006000D02*
X74422000Y-48006000D01*
X79756000Y-105156000D02*
X85344000Y-105156000D01*
X85344000Y-105156000D02*
X93345000Y-97155000D01*
X93345000Y-97155000D02*
X171424600Y-97155000D01*
X326529700Y-59118500D02*
X326440800Y-59029600D01*
X336994500Y-59118500D02*
X326529700Y-59118500D01*
X323596000Y-93980000D02*
X326453500Y-91122500D01*
X287020000Y-93980000D02*
X323596000Y-93980000D01*
X283845000Y-97155000D02*
X287020000Y-93980000D01*
X171424600Y-97155000D02*
X283845000Y-97155000D01*
X311404000Y-107696000D02*
X311404000Y-106807000D01*
X245364000Y-108204000D02*
X244856000Y-107696000D01*
X189992000Y-112903000D02*
X243586000Y-112903000D01*
X243586000Y-112903000D02*
X245364000Y-111125000D01*
X245364000Y-111125000D02*
X245364000Y-108204000D01*
X245491000Y-102489000D02*
X244983000Y-102997000D01*
X189992000Y-112903000D02*
X188341000Y-111252000D01*
X187706000Y-108077000D02*
X187706000Y-107696000D01*
X188341000Y-108712000D02*
X187706000Y-108077000D01*
X188341000Y-111252000D02*
X188341000Y-108712000D01*
X333438500Y-99758500D02*
X336994500Y-99758500D01*
X315722000Y-102489000D02*
X330708000Y-102489000D01*
X330708000Y-102489000D02*
X333438500Y-99758500D01*
X348424500Y-89344500D02*
X347726000Y-88646000D01*
X311404000Y-102616000D02*
X311531000Y-102489000D01*
X311404000Y-107696000D02*
X311404000Y-102616000D01*
X315722000Y-102489000D02*
X311531000Y-102489000D01*
X311531000Y-102489000D02*
X245491000Y-102489000D01*
X341503000Y-99758500D02*
X348424500Y-92837000D01*
X336994500Y-99758500D02*
X341503000Y-99758500D01*
X348424500Y-92837000D02*
X348424500Y-89344500D01*
X25654000Y-107696000D02*
X27635200Y-107696000D01*
X27635200Y-107696000D02*
X28092400Y-107238800D01*
X28092400Y-107238800D02*
X37388800Y-107238800D01*
X37388800Y-107238800D02*
X44856400Y-114706400D01*
X152132240Y-126759760D02*
X156756000Y-126761000D01*
X131179360Y-126759760D02*
X131165600Y-126746000D01*
X152132240Y-126759760D02*
X131179360Y-126759760D01*
X67208400Y-126796800D02*
X65125600Y-126796800D01*
X65125600Y-126796800D02*
X64719200Y-126390400D01*
X64719200Y-126390400D02*
X64719200Y-118414800D01*
X64719200Y-118414800D02*
X61010800Y-114706400D01*
X44856400Y-114706400D02*
X61010800Y-114706400D01*
X64770000Y-118364000D02*
X64719200Y-118414800D01*
X92583000Y-118364000D02*
X64770000Y-118364000D01*
X188163200Y-118364000D02*
X188214000Y-118313200D01*
X92583000Y-118364000D02*
X188163200Y-118364000D01*
X193497200Y-126593600D02*
X193649600Y-126746000D01*
X163322000Y-126593600D02*
X193497200Y-126593600D01*
X163017200Y-126288800D02*
X163322000Y-126593600D01*
X158953200Y-126288800D02*
X163017200Y-126288800D01*
X158496000Y-126746000D02*
X158953200Y-126288800D01*
X156527500Y-126746000D02*
X158496000Y-126746000D01*
X367284000Y-89154000D02*
X366776000Y-88646000D01*
X130556000Y-107696000D02*
X117094000Y-107696000D01*
X108204000Y-107315000D02*
X109728000Y-105791000D01*
X98425000Y-107315000D02*
X108204000Y-107315000D01*
X96393000Y-105283000D02*
X98425000Y-107315000D01*
X96393000Y-105156000D02*
X96393000Y-105283000D01*
X86487000Y-107696000D02*
X89027000Y-105156000D01*
X89027000Y-105156000D02*
X96393000Y-105156000D01*
X85598000Y-107696000D02*
X86487000Y-107696000D01*
X85598000Y-107696000D02*
X73406000Y-107696000D01*
X109728000Y-105791000D02*
X115189000Y-105791000D01*
X115189000Y-105791000D02*
X117094000Y-107696000D01*
X293116000Y-112141000D02*
X294195500Y-113220500D01*
X294195500Y-113220500D02*
X322389500Y-113220500D01*
X293116000Y-112141000D02*
X293116000Y-108458000D01*
X293116000Y-108458000D02*
X292354000Y-107696000D01*
X153162000Y-105410000D02*
X155448000Y-107696000D01*
X155448000Y-107696000D02*
X168656000Y-107696000D01*
X132207000Y-107696000D02*
X132842000Y-107061000D01*
X130556000Y-107696000D02*
X132207000Y-107696000D01*
X132842000Y-107061000D02*
X143637000Y-107061000D01*
X143637000Y-107061000D02*
X145288000Y-105410000D01*
X145288000Y-105410000D02*
X153162000Y-105410000D01*
X168656000Y-107696000D02*
X170688000Y-107696000D01*
X170688000Y-107696000D02*
X171577000Y-106807000D01*
X171577000Y-106807000D02*
X184785000Y-106807000D01*
X184785000Y-106807000D02*
X186055000Y-105537000D01*
X186055000Y-105537000D02*
X191135000Y-105537000D01*
X193294000Y-107696000D02*
X206756000Y-107696000D01*
X191135000Y-105537000D02*
X193294000Y-107696000D01*
X274574000Y-107696000D02*
X292354000Y-107696000D01*
X247777000Y-104140000D02*
X250698000Y-107061000D01*
X250698000Y-107061000D02*
X254000000Y-107061000D01*
X266827000Y-105918000D02*
X272796000Y-105918000D01*
X272796000Y-105918000D02*
X274574000Y-107696000D01*
X211709000Y-107061000D02*
X212090000Y-107442000D01*
X230124000Y-105918000D02*
X231140000Y-106934000D01*
X222885000Y-107442000D02*
X224409000Y-105918000D01*
X224409000Y-105918000D02*
X230124000Y-105918000D01*
X231140000Y-106934000D02*
X233680000Y-106934000D01*
X206756000Y-107696000D02*
X208788000Y-107696000D01*
X209423000Y-107061000D02*
X211709000Y-107061000D01*
X212090000Y-107442000D02*
X222885000Y-107442000D01*
X208788000Y-107696000D02*
X209423000Y-107061000D01*
X247777000Y-104140000D02*
X244348000Y-104140000D01*
X234061000Y-106553000D02*
X233680000Y-106934000D01*
X239649000Y-106553000D02*
X234061000Y-106553000D01*
X242443000Y-103759000D02*
X239649000Y-106553000D01*
X243967000Y-103759000D02*
X242443000Y-103759000D01*
X244348000Y-104140000D02*
X243967000Y-103759000D01*
X254000000Y-107061000D02*
X255524000Y-107061000D01*
X256667000Y-105918000D02*
X266827000Y-105918000D01*
X255524000Y-107061000D02*
X256667000Y-105918000D01*
X323183250Y-112426750D02*
X322389500Y-113220500D01*
X354457000Y-107696000D02*
X357251000Y-107696000D01*
X349726250Y-112426750D02*
X354457000Y-107696000D01*
X336994500Y-97218500D02*
X333502000Y-97218500D01*
X333502000Y-97218500D02*
X329819000Y-100901500D01*
X328510900Y-100901500D02*
X328422000Y-100990400D01*
X329819000Y-100901500D02*
X328510900Y-100901500D01*
X327907650Y-112426750D02*
X349726250Y-112426750D01*
X323183250Y-112426750D02*
X327907650Y-112426750D01*
X233400600Y-66903600D02*
X233413300Y-66916300D01*
X227533200Y-66903600D02*
X233400600Y-66903600D01*
X63881000Y-107696000D02*
X69659500Y-113474500D01*
X49530000Y-107696000D02*
X63881000Y-107696000D01*
X386461000Y-89281000D02*
X385826000Y-88646000D01*
X386461000Y-90424000D02*
X386461000Y-89281000D01*
X111506000Y-107696000D02*
X109728000Y-107696000D01*
X90551000Y-106172000D02*
X83439000Y-113284000D01*
X96139000Y-106172000D02*
X90551000Y-106172000D01*
X98425000Y-108458000D02*
X96139000Y-106172000D01*
X108966000Y-108458000D02*
X98425000Y-108458000D01*
X109728000Y-107696000D02*
X108966000Y-108458000D01*
D17*
X111506000Y-107696000D02*
X111506000Y-107823000D01*
D16*
X113665000Y-113665000D02*
X149860000Y-113665000D01*
X112141000Y-112141000D02*
X113665000Y-113665000D01*
X112141000Y-111887000D02*
X112141000Y-112141000D01*
X112141000Y-108458000D02*
X112141000Y-111887000D01*
X111506000Y-107823000D02*
X112141000Y-108458000D01*
X150368000Y-113157000D02*
X150368000Y-108966000D01*
X150368000Y-108966000D02*
X150368000Y-108458000D01*
X150368000Y-108458000D02*
X149606000Y-107696000D01*
D17*
X226314000Y-108204000D02*
X225806000Y-107696000D01*
D16*
X149860000Y-113665000D02*
X150368000Y-113665000D01*
X150368000Y-113665000D02*
X224917000Y-113665000D01*
X267081000Y-113665000D02*
X269113000Y-113665000D01*
D17*
X228092000Y-107696000D02*
X228219000Y-107569000D01*
D16*
X225806000Y-107696000D02*
X228092000Y-107696000D01*
X239776000Y-107569000D02*
X242443000Y-104902000D01*
X228219000Y-107569000D02*
X230378000Y-107569000D01*
X242443000Y-104902000D02*
X243332000Y-104902000D01*
X250571000Y-108331000D02*
X256921000Y-108331000D01*
X249936000Y-107696000D02*
X250571000Y-108331000D01*
X243332000Y-104902000D02*
X244094000Y-105664000D01*
X244094000Y-105664000D02*
X247904000Y-105664000D01*
X247904000Y-105664000D02*
X249936000Y-107696000D01*
X268605000Y-107696000D02*
X268605000Y-108204000D01*
X269113000Y-108712000D02*
X269113000Y-113665000D01*
X268605000Y-108204000D02*
X269113000Y-108712000D01*
X268605000Y-107696000D02*
X257556000Y-107696000D01*
X257556000Y-107696000D02*
X256921000Y-108331000D01*
X230378000Y-107569000D02*
X230759000Y-107569000D01*
X239268000Y-108077000D02*
X239776000Y-107569000D01*
X231267000Y-108077000D02*
X239268000Y-108077000D01*
X230759000Y-107569000D02*
X231267000Y-108077000D01*
X386461000Y-90424000D02*
X386461000Y-92456000D01*
X69659500Y-113474500D02*
X83248500Y-113474500D01*
X83248500Y-113474500D02*
X83439000Y-113284000D01*
X150368000Y-108966000D02*
X150368000Y-113665000D01*
X336994500Y-94678500D02*
X332676500Y-94678500D01*
X375793000Y-107696000D02*
X385826000Y-107696000D01*
X291973000Y-113665000D02*
X293179500Y-114871500D01*
X269113000Y-113665000D02*
X291973000Y-113665000D01*
X293179500Y-114871500D02*
X326834500Y-114871500D01*
X326834500Y-114871500D02*
X327279000Y-114427000D01*
X327279000Y-114427000D02*
X369062000Y-114427000D01*
X369062000Y-114427000D02*
X375793000Y-107696000D01*
X331355700Y-95973900D02*
X329488800Y-97840800D01*
X331381100Y-95973900D02*
X331355700Y-95973900D01*
X332676500Y-94678500D02*
X331381100Y-95973900D01*
X256717800Y-113665000D02*
X267081000Y-113665000D01*
X224917000Y-113665000D02*
X256717800Y-113665000D01*
X316738000Y-76327000D02*
X289433000Y-76327000D01*
X289433000Y-76327000D02*
X288036000Y-74930000D01*
X288036000Y-74930000D02*
X288036000Y-71374000D01*
X287274000Y-70612000D02*
X287274000Y-69596000D01*
X288036000Y-71374000D02*
X287274000Y-70612000D01*
X58674000Y-69596000D02*
X58674000Y-70104000D01*
X58674000Y-70104000D02*
X59182000Y-70612000D01*
X59182000Y-70612000D02*
X59182000Y-74168000D01*
X59182000Y-74168000D02*
X61214000Y-76200000D01*
X61214000Y-76200000D02*
X86614000Y-76200000D01*
X93218000Y-69596000D02*
X96774000Y-69596000D01*
X86614000Y-76200000D02*
X93218000Y-69596000D01*
X96774000Y-69596000D02*
X107061000Y-69596000D01*
X107061000Y-69596000D02*
X113665000Y-76200000D01*
X113665000Y-76200000D02*
X134366000Y-76200000D01*
X134366000Y-76200000D02*
X135509000Y-75057000D01*
X135509000Y-70231000D02*
X134874000Y-69596000D01*
X135509000Y-75057000D02*
X135509000Y-70231000D01*
X173736000Y-70358000D02*
X172974000Y-69596000D01*
X134366000Y-76200000D02*
X171323000Y-76200000D01*
X173736000Y-73787000D02*
X173736000Y-70358000D01*
X171323000Y-76200000D02*
X173736000Y-73787000D01*
X171323000Y-76200000D02*
X209677000Y-76200000D01*
X249936000Y-74676000D02*
X249936000Y-70358000D01*
X249936000Y-70358000D02*
X249174000Y-69596000D01*
X209677000Y-76200000D02*
X248412000Y-76200000D01*
X248412000Y-76200000D02*
X249936000Y-74676000D01*
D17*
X289306000Y-76200000D02*
X289433000Y-76327000D01*
D16*
X248412000Y-76200000D02*
X289306000Y-76200000D01*
X336994500Y-92138500D02*
X338836000Y-92138500D01*
X338836000Y-92138500D02*
X345440000Y-85534500D01*
X345440000Y-85534500D02*
X345440000Y-85471000D01*
X345440000Y-85471000D02*
X346392500Y-84518500D01*
X335792419Y-92138500D02*
X333506419Y-89852500D01*
X336994500Y-92138500D02*
X335792419Y-92138500D01*
X333506419Y-89852500D02*
X322008500Y-89852500D01*
X212547200Y-52578000D02*
X212496400Y-52527200D01*
X217119200Y-52578000D02*
X212547200Y-52578000D01*
X306324000Y-69596000D02*
X292735000Y-69596000D01*
X290957000Y-67818000D02*
X284988000Y-67818000D01*
X292735000Y-69596000D02*
X290957000Y-67818000D01*
D17*
X275463000Y-69596000D02*
X268224000Y-69596000D01*
D16*
X34798000Y-69596000D02*
X54991000Y-69596000D01*
X54991000Y-69596000D02*
X57150000Y-67437000D01*
X57150000Y-67437000D02*
X62230000Y-67437000D01*
X64389000Y-69596000D02*
X77724000Y-69596000D01*
X62230000Y-67437000D02*
X64389000Y-69596000D01*
X140589000Y-69596000D02*
X153924000Y-69596000D01*
X138811000Y-67818000D02*
X140589000Y-69596000D01*
X133985000Y-67818000D02*
X138811000Y-67818000D01*
X115824000Y-69596000D02*
X132207000Y-69596000D01*
X132207000Y-69596000D02*
X133985000Y-67818000D01*
X77724000Y-69596000D02*
X77724000Y-67691000D01*
X77724000Y-67691000D02*
X82423000Y-62992000D01*
X109220000Y-62992000D02*
X115824000Y-69596000D01*
X82423000Y-62992000D02*
X109220000Y-62992000D01*
X153924000Y-69596000D02*
X155702000Y-69596000D01*
X155702000Y-69596000D02*
X156083000Y-69215000D01*
X156083000Y-69215000D02*
X170307000Y-69215000D01*
X170307000Y-69215000D02*
X171831000Y-67691000D01*
X171831000Y-67691000D02*
X177038000Y-67691000D01*
X178943000Y-69596000D02*
X192024000Y-69596000D01*
X177038000Y-67691000D02*
X178943000Y-69596000D01*
X192024000Y-69596000D02*
X194183000Y-69596000D01*
X194183000Y-69596000D02*
X194691000Y-69088000D01*
X194691000Y-69088000D02*
X208661000Y-69088000D01*
X208661000Y-69088000D02*
X210058000Y-67691000D01*
X210058000Y-67691000D02*
X215138000Y-67691000D01*
X215138000Y-67691000D02*
X217043000Y-69596000D01*
X234823000Y-68961000D02*
X246761000Y-68961000D01*
X246761000Y-68961000D02*
X248031000Y-67691000D01*
X248031000Y-67691000D02*
X253238000Y-67691000D01*
X255143000Y-69596000D02*
X268224000Y-69596000D01*
X253238000Y-67691000D02*
X255143000Y-69596000D01*
D17*
X227711000Y-69596000D02*
X230124000Y-69596000D01*
D16*
X230759000Y-68961000D02*
X230124000Y-69596000D01*
D17*
X234823000Y-68961000D02*
X230759000Y-68961000D01*
D16*
X217043000Y-69596000D02*
X220853000Y-69596000D01*
X220853000Y-69596000D02*
X230124000Y-69596000D01*
X275463000Y-69596000D02*
X283210000Y-69596000D01*
X283210000Y-69596000D02*
X284988000Y-67818000D01*
X306324000Y-71151634D02*
X306959000Y-71786634D01*
X306324000Y-69596000D02*
X306324000Y-71151634D01*
X306959000Y-71786634D02*
X306959000Y-73596500D01*
X306959000Y-73596500D02*
X308419500Y-75057000D01*
X321360800Y-78994000D02*
X317423800Y-75057000D01*
X332232000Y-78994000D02*
X321360800Y-78994000D01*
X308419500Y-75057000D02*
X317423800Y-75057000D01*
X63754000Y-88646000D02*
X63754000Y-89281000D01*
X63754000Y-89281000D02*
X64389000Y-89916000D01*
X64389000Y-89916000D02*
X64389000Y-94107000D01*
X64389000Y-94107000D02*
X65659000Y-95377000D01*
X65659000Y-95377000D02*
X100965000Y-95377000D01*
X102362000Y-89154000D02*
X101854000Y-88646000D01*
D17*
X102362000Y-93980000D02*
X102362000Y-90170000D01*
D16*
X102362000Y-90170000D02*
X102362000Y-89154000D01*
X100965000Y-95377000D02*
X102362000Y-95377000D01*
X102362000Y-95377000D02*
X138684000Y-95377000D01*
X138684000Y-95377000D02*
X140589000Y-93472000D01*
X140589000Y-89281000D02*
X139954000Y-88646000D01*
X140589000Y-93472000D02*
X140589000Y-89281000D01*
X178689000Y-89281000D02*
X178054000Y-88646000D01*
X178689000Y-93345000D02*
X178689000Y-89281000D01*
X138684000Y-95377000D02*
X176657000Y-95377000D01*
X176657000Y-95377000D02*
X178689000Y-93345000D01*
X176657000Y-95377000D02*
X213995000Y-95377000D01*
X216408000Y-88900000D02*
X216154000Y-88646000D01*
X216408000Y-92964000D02*
X216408000Y-88900000D01*
X213995000Y-95377000D02*
X216408000Y-95377000D01*
X216408000Y-95377000D02*
X251968000Y-95377000D01*
X251968000Y-95377000D02*
X255016000Y-95377000D01*
X255016000Y-95377000D02*
X255016000Y-92329000D01*
X254254000Y-88646000D02*
X254381000Y-88646000D01*
X255016000Y-89281000D02*
X255016000Y-92329000D01*
X254381000Y-88646000D02*
X255016000Y-89281000D01*
X216408000Y-92964000D02*
X216408000Y-95377000D01*
X102362000Y-90170000D02*
X102362000Y-95377000D01*
X335792419Y-87058500D02*
X335728919Y-87122000D01*
X336994500Y-87058500D02*
X335792419Y-87058500D01*
X281749500Y-95377000D02*
X281749500Y-94932500D01*
X255016000Y-95377000D02*
X281749500Y-95377000D01*
X281749500Y-94932500D02*
X286385000Y-90297000D01*
X286385000Y-90297000D02*
X297815000Y-90297000D01*
X299466000Y-88646000D02*
X301879000Y-88646000D01*
X297815000Y-90297000D02*
X299466000Y-88646000D01*
X386334000Y-70104000D02*
X385826000Y-69596000D01*
X336994500Y-87058500D02*
X340550500Y-87058500D01*
X340550500Y-87058500D02*
X340614000Y-87122000D01*
X344678000Y-83058000D02*
X379222000Y-83058000D01*
X340614000Y-87122000D02*
X344678000Y-83058000D01*
X379222000Y-83058000D02*
X386334000Y-75946000D01*
X386334000Y-75946000D02*
X386334000Y-70104000D01*
X301879000Y-88646000D02*
X303733200Y-88646000D01*
X303733200Y-88646000D02*
X304139600Y-88239600D01*
X320497200Y-88239600D02*
X321614800Y-87122000D01*
X304139600Y-88239600D02*
X320497200Y-88239600D01*
X335728919Y-87122000D02*
X321614800Y-87122000D01*
X25654000Y-88646000D02*
X34290000Y-88646000D01*
X39878000Y-88646000D02*
X41910000Y-86614000D01*
X65532000Y-85471000D02*
X66929000Y-84074000D01*
X59563000Y-88519000D02*
X62611000Y-85471000D01*
X34290000Y-88646000D02*
X39878000Y-88646000D01*
X66929000Y-84074000D02*
X116332000Y-84074000D01*
X41910000Y-86614000D02*
X47879000Y-86614000D01*
X116332000Y-84074000D02*
X120904000Y-88646000D01*
X47879000Y-86614000D02*
X49784000Y-88519000D01*
X49784000Y-88519000D02*
X59563000Y-88519000D01*
X62611000Y-85471000D02*
X65151000Y-85471000D01*
X65151000Y-85471000D02*
X65532000Y-85471000D01*
X65532000Y-85471000D02*
X68707000Y-88646000D01*
X68707000Y-88646000D02*
X82804000Y-88646000D01*
X367284000Y-70104000D02*
X366776000Y-69596000D01*
X273304000Y-88646000D02*
X295402000Y-88646000D01*
X367157000Y-73533000D02*
X367284000Y-70104000D01*
X120904000Y-88646000D02*
X122555000Y-88646000D01*
X122555000Y-88646000D02*
X123063000Y-88138000D01*
X123063000Y-88138000D02*
X137033000Y-88138000D01*
X137033000Y-88138000D02*
X138430000Y-86741000D01*
X138430000Y-86741000D02*
X143764000Y-86741000D01*
X145669000Y-88646000D02*
X159004000Y-88646000D01*
X143764000Y-86741000D02*
X145669000Y-88646000D01*
X183896000Y-88646000D02*
X197104000Y-88646000D01*
X181991000Y-86741000D02*
X183896000Y-88646000D01*
X176276000Y-86741000D02*
X181991000Y-86741000D01*
X159004000Y-88646000D02*
X174371000Y-88646000D01*
X174371000Y-88646000D02*
X176276000Y-86741000D01*
D17*
X235204000Y-88646000D02*
X236855000Y-88646000D01*
X236855000Y-88646000D02*
X237490000Y-88011000D01*
D16*
X237490000Y-88011000D02*
X251587000Y-88011000D01*
X251587000Y-88011000D02*
X252857000Y-86741000D01*
X252857000Y-86741000D02*
X257937000Y-86741000D01*
X259842000Y-88646000D02*
X273304000Y-88646000D01*
X257937000Y-86741000D02*
X259842000Y-88646000D01*
D17*
X234950000Y-88900000D02*
X235204000Y-88646000D01*
D16*
X219837000Y-86741000D02*
X221996000Y-88900000D01*
X199009000Y-88646000D02*
X199644000Y-88011000D01*
X213741000Y-88011000D02*
X215011000Y-86741000D01*
X197104000Y-88646000D02*
X199009000Y-88646000D01*
X221996000Y-88900000D02*
X234950000Y-88900000D01*
X199644000Y-88011000D02*
X213741000Y-88011000D01*
X215011000Y-86741000D02*
X219837000Y-86741000D01*
X322834000Y-84518500D02*
X336994500Y-84518500D01*
X336994500Y-84518500D02*
X339471000Y-84518500D01*
X339471000Y-84518500D02*
X342773000Y-81216500D01*
X359473500Y-81216500D02*
X362299250Y-78390750D01*
X342773000Y-81216500D02*
X359473500Y-81216500D01*
X362204000Y-78486000D02*
X362299250Y-78390750D01*
X362299250Y-78390750D02*
X367157000Y-73533000D01*
X299948600Y-84099400D02*
X313004200Y-84099400D01*
X295402000Y-88646000D02*
X299948600Y-84099400D01*
X313004200Y-84099400D02*
X315925200Y-87020400D01*
X315925200Y-87020400D02*
X319125600Y-87020400D01*
X321627500Y-84518500D02*
X322834000Y-84518500D01*
X319125600Y-87020400D02*
X321627500Y-84518500D01*
X385826000Y-50546000D02*
X383032000Y-50546000D01*
X383032000Y-50546000D02*
X373761000Y-59817000D01*
X85471000Y-48260000D02*
X89154000Y-48260000D01*
X76708000Y-57023000D02*
X85471000Y-48260000D01*
X49022000Y-51562000D02*
X49530000Y-52070000D01*
X49022000Y-50546000D02*
X49022000Y-51562000D01*
X49530000Y-52070000D02*
X49530000Y-55499000D01*
X91440000Y-50546000D02*
X106172000Y-50546000D01*
X51054000Y-57023000D02*
X76708000Y-57023000D01*
X89154000Y-48260000D02*
X91440000Y-50546000D01*
X49530000Y-55499000D02*
X51054000Y-57023000D01*
X141986000Y-48387000D02*
X146431000Y-48387000D01*
X148590000Y-50546000D02*
X163322000Y-50546000D01*
X140589000Y-51816000D02*
X140589000Y-49784000D01*
X146431000Y-48387000D02*
X148590000Y-50546000D01*
X106172000Y-51689000D02*
X107061000Y-52578000D01*
X135001000Y-57404000D02*
X140589000Y-51816000D01*
X106172000Y-50546000D02*
X106172000Y-51689000D01*
X107061000Y-52578000D02*
X107061000Y-55626000D01*
X140589000Y-49784000D02*
X141986000Y-48387000D01*
X107061000Y-55626000D02*
X108839000Y-57404000D01*
X108839000Y-57404000D02*
X135001000Y-57404000D01*
X338196581Y-81978500D02*
X340677500Y-79497581D01*
X336994500Y-81978500D02*
X338196581Y-81978500D01*
X357636419Y-79497581D02*
X359410000Y-77724000D01*
X359410000Y-77724000D02*
X359410000Y-77660500D01*
X210058000Y-50546000D02*
X220472000Y-50546000D01*
X336994500Y-81978500D02*
X320332100Y-81978500D01*
X320332100Y-81978500D02*
X319735200Y-81381600D01*
X319735200Y-81381600D02*
X301548800Y-81381600D01*
X301548800Y-81381600D02*
X300177200Y-82753200D01*
X300177200Y-82753200D02*
X296875200Y-82753200D01*
X295300400Y-81178400D02*
X281228800Y-81178400D01*
X296875200Y-82753200D02*
X295300400Y-81178400D01*
X343860781Y-79497581D02*
X357636419Y-79497581D01*
X340677500Y-79497581D02*
X343860781Y-79497581D01*
X359410000Y-59817000D02*
X373761000Y-59817000D01*
X206248000Y-50546000D02*
X210058000Y-50546000D01*
X204343000Y-48641000D02*
X206248000Y-50546000D01*
X192278000Y-55880000D02*
X199517000Y-48641000D01*
X177749200Y-55880000D02*
X192278000Y-55880000D01*
X199517000Y-48641000D02*
X204343000Y-48641000D01*
X172415200Y-50546000D02*
X177749200Y-55880000D01*
X163322000Y-50546000D02*
X172415200Y-50546000D01*
X262318500Y-49657000D02*
X267792200Y-49657000D01*
X267792200Y-49657000D02*
X273050000Y-54914800D01*
X260889750Y-48228250D02*
X262318500Y-49657000D01*
X257892550Y-48228250D02*
X260889750Y-48228250D01*
X242112800Y-50190400D02*
X255930400Y-50190400D01*
X255930400Y-50190400D02*
X257892550Y-48228250D01*
X240715800Y-48793400D02*
X242112800Y-50190400D01*
X237972600Y-48793400D02*
X240715800Y-48793400D01*
X273050000Y-54914800D02*
X278282400Y-54914800D01*
X236220000Y-50546000D02*
X237972600Y-48793400D01*
X220472000Y-50546000D02*
X236220000Y-50546000D01*
X68072000Y-50546000D02*
X75946000Y-50546000D01*
X75946000Y-50546000D02*
X80010000Y-50546000D01*
X80010000Y-50546000D02*
X84010500Y-46545500D01*
X112014000Y-50546000D02*
X125222000Y-50546000D01*
X110236000Y-48768000D02*
X112014000Y-50546000D01*
X88836500Y-46545500D02*
X92075000Y-49784000D01*
X92075000Y-49784000D02*
X104013000Y-49784000D01*
X104013000Y-49784000D02*
X105029000Y-48768000D01*
X84010500Y-46545500D02*
X88836500Y-46545500D01*
X105029000Y-48768000D02*
X110236000Y-48768000D01*
X336994500Y-79438500D02*
X337756500Y-79438500D01*
X337756500Y-79438500D02*
X339153500Y-78041500D01*
X339153500Y-78041500D02*
X356044500Y-78041500D01*
X356044500Y-78041500D02*
X362458000Y-71628000D01*
X258572000Y-50546000D02*
X258572000Y-51625500D01*
X258572000Y-51625500D02*
X259207000Y-52260500D01*
X259207000Y-52260500D02*
X259207000Y-54991000D01*
X259207000Y-54991000D02*
X260223000Y-56007000D01*
X260223000Y-56007000D02*
X295846500Y-56007000D01*
X295846500Y-56007000D02*
X297370500Y-54483000D01*
X297370500Y-51244500D02*
X296672000Y-50546000D01*
X297370500Y-54483000D02*
X297370500Y-51244500D01*
X260096000Y-61112400D02*
X260146800Y-61061600D01*
X126034800Y-61112400D02*
X182778400Y-61112400D01*
X208076800Y-61112400D02*
X260096000Y-61112400D01*
X182778400Y-61112400D02*
X208076800Y-61112400D01*
X295846500Y-56007000D02*
X346583000Y-56007000D01*
X346583000Y-56007000D02*
X352196400Y-61620400D01*
X364642400Y-61620400D02*
X364648750Y-61626750D01*
X352196400Y-61620400D02*
X364642400Y-61620400D01*
X51054000Y-86106000D02*
X51054000Y-85725000D01*
D18*
X240741200Y-63296800D02*
X263499600Y-63296800D01*
X263499600Y-63296800D02*
X264210800Y-64008000D01*
X264210800Y-64008000D02*
X313131200Y-64008000D01*
X315823600Y-64008000D02*
X322275200Y-70459600D01*
X313131200Y-64008000D02*
X315823600Y-64008000D01*
X336981800Y-107391200D02*
X336994500Y-107378500D01*
X326339200Y-107391200D02*
X336981800Y-107391200D01*
X322681600Y-70866000D02*
X322275200Y-70459600D01*
X327710800Y-70866000D02*
X322681600Y-70866000D01*
D16*
X36677600Y-94996000D02*
X51054000Y-94996000D01*
X228219000Y-126746000D02*
X229870000Y-126746000D01*
X229870000Y-126746000D02*
X230276400Y-126339600D01*
X230276400Y-126339600D02*
X239268000Y-126339600D01*
X242366800Y-129438400D02*
X249885200Y-129438400D01*
X239268000Y-126339600D02*
X242366800Y-129438400D01*
X228219000Y-126746000D02*
X196189600Y-126746000D01*
X234569000Y-124206000D02*
X240233200Y-124206000D01*
X242925600Y-126898400D02*
X249885200Y-126898400D01*
X240233200Y-124206000D02*
X242925600Y-126898400D01*
X196189600Y-124206000D02*
X206349600Y-124206000D01*
X206349600Y-124206000D02*
X207060800Y-124917200D01*
X207060800Y-124917200D02*
X217322400Y-124917200D01*
X218033600Y-124206000D02*
X234569000Y-124206000D01*
X217322400Y-124917200D02*
X218033600Y-124206000D01*
X82689700Y-126796800D02*
X82740500Y-126746000D01*
X69748400Y-126796800D02*
X82689700Y-126796800D01*
X82740500Y-126746000D02*
X84378800Y-126746000D01*
X84378800Y-126746000D02*
X84886800Y-126238000D01*
X84886800Y-126238000D02*
X88950800Y-126238000D01*
X89458800Y-126746000D02*
X128625600Y-126746000D01*
X88950800Y-126238000D02*
X89458800Y-126746000D01*
X114503200Y-124206000D02*
X128625600Y-124206000D01*
X113639600Y-125069600D02*
X114503200Y-124206000D01*
X107746800Y-125069600D02*
X113639600Y-125069600D01*
X106883200Y-124206000D02*
X107746800Y-125069600D01*
X89090500Y-124206000D02*
X106883200Y-124206000D01*
X69799200Y-124206000D02*
X69748400Y-124256800D01*
X89090500Y-124206000D02*
X69799200Y-124206000D01*
D19*
X398676494Y-139801600D02*
G75*
G03*
X398676494Y-139801600I-2030094J0D01*
G01*
X254861694Y-46276894D02*
G75*
G03*
X254861694Y-46276894I-2030094J0D01*
G01*
X178712494Y-46073694D02*
G75*
G03*
X178712494Y-46073694I-2030094J0D01*
G01*
X26617294Y-46126400D02*
G75*
G03*
X26617294Y-46126400I-2030094J0D01*
G01*
X98501200Y-139801600D02*
G75*
G03*
X98501200Y-139801600I-2030094J0D01*
G01*
X149197694Y-139801600D02*
G75*
G03*
X149197694Y-139801600I-2030094J0D01*
G01*
X276705694Y-139852400D02*
G75*
G03*
X276705694Y-139852400I-2030094J0D01*
G01*
X338935694Y-139750800D02*
G75*
G03*
X338935694Y-139750800I-2030094J0D01*
G01*
X243584094Y-139801600D02*
G75*
G03*
X243584094Y-139801600I-2030094J0D01*
G01*
X371092094Y-139801600D02*
G75*
G03*
X371092094Y-139801600I-2030094J0D01*
G01*
X308100094Y-139801600D02*
G75*
G03*
X308100094Y-139801600I-2030094J0D01*
G01*
X180439694Y-139852400D02*
G75*
G03*
X180439694Y-139852400I-2030094J0D01*
G01*
X53084094Y-139801600D02*
G75*
G03*
X53084094Y-139801600I-2030094J0D01*
G01*
X26972894Y-139700000D02*
G75*
G03*
X26972894Y-139700000I-2030094J0D01*
G01*
X23213694Y-72136000D02*
G75*
G03*
X23213694Y-72136000I-2030094J0D01*
G01*
X23264494Y-53187600D02*
G75*
G03*
X23264494Y-53187600I-2030094J0D01*
G01*
X102563294Y-46126400D02*
G75*
G03*
X102563294Y-46126400I-2030094J0D01*
G01*
X338884894Y-46126400D02*
G75*
G03*
X338884894Y-46126400I-2030094J0D01*
G01*
X401978494Y-129844800D02*
G75*
G03*
X401978494Y-129844800I-2030094J0D01*
G01*
X402130894Y-110236000D02*
G75*
G03*
X402130894Y-110236000I-2030094J0D01*
G01*
X402130894Y-91236800D02*
G75*
G03*
X402130894Y-91236800I-2030094J0D01*
G01*
X402130894Y-72136000D02*
G75*
G03*
X402130894Y-72136000I-2030094J0D01*
G01*
X402132800Y-53136800D02*
G75*
G03*
X402132800Y-53136800I-2030094J0D01*
G01*
X22860000Y-42773600D02*
X397256000Y-42773600D01*
X17018000Y-136956800D02*
X17018000Y-48615600D01*
X397256000Y-142798800D02*
X22860000Y-142798800D01*
X403098000Y-136956800D02*
X403098000Y-123545600D01*
X403098000Y-48615600D02*
X403098000Y-123545600D01*
X22860000Y-42773600D02*
G75*
G03*
X17018000Y-48615600I0J-5842000D01*
G01*
X17018000Y-136956800D02*
G75*
G03*
X22860000Y-142798800I5842000J0D01*
G01*
X397256000Y-142798800D02*
G75*
G03*
X403098000Y-136956800I0J5842000D01*
G01*
X403098000Y-48615600D02*
G75*
G03*
X397256000Y-42773600I-5842000J0D01*
G01*
M02*
