G04 #@! TF.GenerationSoftware,KiCad,Pcbnew,(5.1.5)-3*
G04 #@! TF.CreationDate,2020-08-08T22:19:47-04:00*
G04 #@! TF.ProjectId,petkb,7065746b-622e-46b6-9963-61645f706362,rev?*
G04 #@! TF.SameCoordinates,Original*
G04 #@! TF.FileFunction,Copper,L2,Bot*
G04 #@! TF.FilePolarity,Positive*
%FSLAX46Y46*%
G04 Gerber Fmt 4.6, Leading zero omitted, Abs format (unit mm)*
G04 Created by KiCad (PCBNEW (5.1.5)-3) date 2020-08-08 22:19:47*
%MOMM*%
%LPD*%
G04 APERTURE LIST*
%ADD10C,0.050000*%
%ADD11C,2.200000*%
%ADD12O,1.700000X1.700000*%
%ADD13R,1.700000X1.700000*%
%ADD14C,0.800000*%
%ADD15C,0.400000*%
%ADD16C,0.250000*%
%ADD17C,0.750000*%
G04 APERTURE END LIST*
D10*
X256667000Y-27813000D02*
X236474000Y-27813000D01*
X266827000Y-27813000D02*
X300990000Y-27813000D01*
X256667000Y-33909000D02*
X256667000Y-27813000D01*
X266827000Y-27813000D02*
X266827000Y-33909000D01*
X266827000Y-33909000D02*
G75*
G02X256667000Y-33909000I-5080000J0D01*
G01*
X163703000Y-27813000D02*
X183515000Y-27813000D01*
X119126000Y-27813000D02*
X153543000Y-27813000D01*
X151344000Y-33782000D02*
G75*
G03X151344000Y-33782000I-2500000J0D01*
G01*
X163703000Y-33909000D02*
G75*
G02X153543000Y-33909000I-5080000J0D01*
G01*
X253833000Y-148717000D02*
G75*
G03X253833000Y-148717000I-2500000J0D01*
G01*
X43775000Y-148590000D02*
G75*
G03X43775000Y-148590000I-2500000J0D01*
G01*
X274534000Y-33909000D02*
G75*
G03X274534000Y-33909000I-2500000J0D01*
G01*
X361783000Y-33782000D02*
G75*
G03X361783000Y-33782000I-2500000J0D01*
G01*
X381341000Y-33909000D02*
G75*
G03X381341000Y-33909000I-2500000J0D01*
G01*
X298791000Y-33782000D02*
G75*
G03X298791000Y-33782000I-2500000J0D01*
G01*
X318349000Y-33909000D02*
G75*
G03X318349000Y-33909000I-2500000J0D01*
G01*
X106767000Y-33782000D02*
G75*
G03X106767000Y-33782000I-2500000J0D01*
G01*
X126325000Y-33909000D02*
G75*
G03X126325000Y-33909000I-2500000J0D01*
G01*
X63333000Y-148717000D02*
G75*
G03X63333000Y-148717000I-2500000J0D01*
G01*
X171156000Y-148590000D02*
G75*
G03X171156000Y-148590000I-2500000J0D01*
G01*
X190714000Y-148717000D02*
G75*
G03X190714000Y-148717000I-2500000J0D01*
G01*
X298791000Y-148590000D02*
G75*
G03X298791000Y-148590000I-2500000J0D01*
G01*
X318349000Y-148717000D02*
G75*
G03X318349000Y-148717000I-2500000J0D01*
G01*
X43775000Y-33782000D02*
G75*
G03X43775000Y-33782000I-2500000J0D01*
G01*
X63333000Y-33909000D02*
G75*
G03X63333000Y-33909000I-2500000J0D01*
G01*
X106767000Y-148590000D02*
G75*
G03X106767000Y-148590000I-2500000J0D01*
G01*
X126325000Y-148717000D02*
G75*
G03X126325000Y-148717000I-2500000J0D01*
G01*
X234275000Y-148590000D02*
G75*
G03X234275000Y-148590000I-2500000J0D01*
G01*
X361783000Y-148590000D02*
G75*
G03X361783000Y-148590000I-2500000J0D01*
G01*
X381341000Y-148717000D02*
G75*
G03X381341000Y-148717000I-2500000J0D01*
G01*
X397256000Y-27813000D02*
X374142000Y-27813000D01*
X403098000Y-148971000D02*
X403098000Y-33655000D01*
X397256000Y-154813000D02*
X374142000Y-154813000D01*
X22860000Y-154813000D02*
X45974000Y-154813000D01*
X17018000Y-33655000D02*
X17018000Y-148971000D01*
X22860000Y-27813000D02*
X45974000Y-27813000D01*
X17018000Y-33655000D02*
G75*
G02X22860000Y-27813000I5842000J0D01*
G01*
X22860000Y-154813000D02*
G75*
G02X17018000Y-148971000I0J5842000D01*
G01*
X403098000Y-148971000D02*
G75*
G02X397256000Y-154813000I-5842000J0D01*
G01*
X397256000Y-27813000D02*
G75*
G02X403098000Y-33655000I0J-5842000D01*
G01*
X311150000Y-154813000D02*
X363982000Y-154813000D01*
X246634000Y-154813000D02*
X300990000Y-154813000D01*
X183515000Y-154813000D02*
X236474000Y-154813000D01*
X119126000Y-154813000D02*
X173355000Y-154813000D01*
X56134000Y-154813000D02*
X108966000Y-154813000D01*
X374142000Y-148717000D02*
X374142000Y-154813000D01*
X363982000Y-148717000D02*
X363982000Y-154813000D01*
X311150000Y-148717000D02*
X311150000Y-154813000D01*
X300990000Y-148717000D02*
X300990000Y-154813000D01*
X246634000Y-148717000D02*
X246634000Y-154813000D01*
X236474000Y-148717000D02*
X236474000Y-154813000D01*
X183515000Y-148717000D02*
X183515000Y-154813000D01*
X173355000Y-148717000D02*
X173355000Y-154813000D01*
X119126000Y-148717000D02*
X119126000Y-154813000D01*
X108966000Y-148717000D02*
X108966000Y-154813000D01*
X56134000Y-148717000D02*
X56134000Y-154813000D01*
X45974000Y-148717000D02*
X45974000Y-154813000D01*
X45974000Y-148717000D02*
G75*
G02X56134000Y-148717000I5080000J0D01*
G01*
X108966000Y-148717000D02*
G75*
G02X119126000Y-148717000I5080000J0D01*
G01*
X173355000Y-148717000D02*
G75*
G02X183515000Y-148717000I5080000J0D01*
G01*
X236474000Y-148717000D02*
G75*
G02X246634000Y-148717000I5080000J0D01*
G01*
X300990000Y-148717000D02*
G75*
G02X311150000Y-148717000I5080000J0D01*
G01*
X363982000Y-148717000D02*
G75*
G02X374142000Y-148717000I5080000J0D01*
G01*
X311150000Y-27813000D02*
X363982000Y-27813000D01*
X183515000Y-27813000D02*
X236474000Y-27813000D01*
X56134000Y-27813000D02*
X108966000Y-27813000D01*
X108966000Y-33909000D02*
X108966000Y-27813000D01*
X119126000Y-33909000D02*
X119126000Y-27813000D01*
X153543000Y-33909000D02*
X153543000Y-27813000D01*
X163703000Y-33909000D02*
X163703000Y-27813000D01*
X300990000Y-33909000D02*
X300990000Y-27813000D01*
X311150000Y-33909000D02*
X311150000Y-27813000D01*
X45974000Y-33909000D02*
X45974000Y-27813000D01*
X56134000Y-33909000D02*
X56134000Y-27813000D01*
X56134000Y-33909000D02*
G75*
G02X45974000Y-33909000I-5080000J0D01*
G01*
X119126000Y-33909000D02*
G75*
G02X108966000Y-33909000I-5080000J0D01*
G01*
X311150000Y-33909000D02*
G75*
G02X300990000Y-33909000I-5080000J0D01*
G01*
X374142000Y-33909000D02*
G75*
G02X363982000Y-33909000I-5080000J0D01*
G01*
X363982000Y-33909000D02*
X363982000Y-27813000D01*
X374142000Y-33909000D02*
X374142000Y-27813000D01*
D11*
X392176000Y-86106000D03*
X385826000Y-88646000D03*
X315722000Y-50546000D03*
X322072000Y-48006000D03*
X245872000Y-48006000D03*
X239522000Y-50546000D03*
D12*
X336994500Y-59118500D03*
X336994500Y-61658500D03*
X336994500Y-64198500D03*
X336994500Y-66738500D03*
X336994500Y-69278500D03*
X336994500Y-71818500D03*
X336994500Y-74358500D03*
X336994500Y-76898500D03*
X336994500Y-79438500D03*
X336994500Y-81978500D03*
X336994500Y-84518500D03*
X336994500Y-87058500D03*
X336994500Y-89598500D03*
X336994500Y-92138500D03*
X336994500Y-94678500D03*
X336994500Y-97218500D03*
X336994500Y-99758500D03*
X336994500Y-102298500D03*
X336994500Y-104838500D03*
D13*
X336994500Y-107378500D03*
D11*
X156527500Y-126746000D03*
X162877500Y-124206000D03*
X82740500Y-126746000D03*
X89090500Y-124206000D03*
D12*
X33909000Y-124206000D03*
X33909000Y-126746000D03*
D13*
X33909000Y-129286000D03*
D12*
X39751000Y-129286000D03*
X39751000Y-126746000D03*
D13*
X39751000Y-124206000D03*
D12*
X185674000Y-32385000D03*
X188214000Y-32385000D03*
X190754000Y-32385000D03*
X193294000Y-32385000D03*
X195834000Y-32385000D03*
X198374000Y-32385000D03*
X200914000Y-32385000D03*
X203454000Y-32385000D03*
X205994000Y-32385000D03*
X208534000Y-32385000D03*
X211074000Y-32385000D03*
X213614000Y-32385000D03*
X216154000Y-32385000D03*
X218694000Y-32385000D03*
X221234000Y-32385000D03*
X223774000Y-32385000D03*
X226314000Y-32385000D03*
X228854000Y-32385000D03*
X231394000Y-32385000D03*
D13*
X233934000Y-32385000D03*
D11*
X211074000Y-69596000D03*
X217424000Y-67056000D03*
X230124000Y-69596000D03*
X236474000Y-67056000D03*
X347726000Y-50546000D03*
X354076000Y-48006000D03*
X168656000Y-107696000D03*
X175006000Y-105156000D03*
X235204000Y-88646000D03*
X241554000Y-86106000D03*
X222504000Y-86106000D03*
X216154000Y-88646000D03*
X228219000Y-126746000D03*
X234569000Y-124206000D03*
X63754000Y-88646000D03*
X70104000Y-86106000D03*
X385826000Y-107696000D03*
X392176000Y-105156000D03*
X44704000Y-88646000D03*
X51054000Y-86106000D03*
X115824000Y-69596000D03*
X122174000Y-67056000D03*
X198374000Y-67056000D03*
X192024000Y-69596000D03*
X103124000Y-67056000D03*
X96774000Y-69596000D03*
X312674000Y-67056000D03*
X306324000Y-69596000D03*
X268224000Y-69596000D03*
X274574000Y-67056000D03*
X58674000Y-69596000D03*
X65024000Y-67056000D03*
X84074000Y-67056000D03*
X77724000Y-69596000D03*
X160274000Y-67056000D03*
X153924000Y-69596000D03*
X249174000Y-69596000D03*
X255524000Y-67056000D03*
X179324000Y-67056000D03*
X172974000Y-69596000D03*
X134874000Y-69596000D03*
X141224000Y-67056000D03*
X287274000Y-69596000D03*
X293624000Y-67056000D03*
X34798000Y-69596000D03*
X41148000Y-67056000D03*
X301879000Y-88646000D03*
X308229000Y-86106000D03*
X49530000Y-107696000D03*
X55880000Y-105156000D03*
X268605000Y-107696000D03*
X274955000Y-105156000D03*
X357251000Y-107696000D03*
X363601000Y-105156000D03*
X207772000Y-48006000D03*
X201422000Y-50546000D03*
X144272000Y-50546000D03*
X150622000Y-48006000D03*
X93472000Y-48006000D03*
X87122000Y-50546000D03*
X29972000Y-50546000D03*
X36322000Y-48006000D03*
X354076000Y-86106000D03*
X347726000Y-88646000D03*
X244856000Y-107696000D03*
X251206000Y-105156000D03*
X311404000Y-107696000D03*
X317754000Y-105156000D03*
X194056000Y-105156000D03*
X187706000Y-107696000D03*
X98806000Y-105156000D03*
X92456000Y-107696000D03*
X25654000Y-107696000D03*
X32004000Y-105156000D03*
X373126000Y-86106000D03*
X366776000Y-88646000D03*
X292354000Y-107696000D03*
X298704000Y-105156000D03*
X213106000Y-105156000D03*
X206756000Y-107696000D03*
X136906000Y-105156000D03*
X130556000Y-107696000D03*
X73406000Y-107696000D03*
X79756000Y-105156000D03*
X232156000Y-105156000D03*
X225806000Y-107696000D03*
X149606000Y-107696000D03*
X155956000Y-105156000D03*
X117856000Y-105156000D03*
X111506000Y-107696000D03*
X354076000Y-67056000D03*
X347726000Y-69596000D03*
X392176000Y-67056000D03*
X385826000Y-69596000D03*
X254254000Y-88646000D03*
X260604000Y-86106000D03*
X184404000Y-86106000D03*
X178054000Y-88646000D03*
X139954000Y-88646000D03*
X146304000Y-86106000D03*
X108204000Y-86106000D03*
X101854000Y-88646000D03*
X373126000Y-67056000D03*
X366776000Y-69596000D03*
X203454000Y-86106000D03*
X197104000Y-88646000D03*
X273304000Y-88646000D03*
X279654000Y-86106000D03*
X165354000Y-86106000D03*
X159004000Y-88646000D03*
X120904000Y-88646000D03*
X127254000Y-86106000D03*
X89154000Y-86106000D03*
X82804000Y-88646000D03*
X25654000Y-88646000D03*
X32004000Y-86106000D03*
X392176000Y-48006000D03*
X385826000Y-50546000D03*
X283972000Y-48006000D03*
X277622000Y-50546000D03*
X226822000Y-48006000D03*
X220472000Y-50546000D03*
X163322000Y-50546000D03*
X169672000Y-48006000D03*
X112522000Y-48006000D03*
X106172000Y-50546000D03*
X49022000Y-50546000D03*
X55372000Y-48006000D03*
X303022000Y-48006000D03*
X296672000Y-50546000D03*
X366776000Y-50546000D03*
X373126000Y-48006000D03*
X264922000Y-48006000D03*
X258572000Y-50546000D03*
X182372000Y-50546000D03*
X188722000Y-48006000D03*
X131572000Y-48006000D03*
X125222000Y-50546000D03*
X68072000Y-50546000D03*
X74422000Y-48006000D03*
D14*
X354076000Y-76200000D03*
X304546000Y-43434000D03*
X204343000Y-39878000D03*
X228790500Y-39497000D03*
X316420500Y-59944000D03*
X37846000Y-86487000D03*
X200660000Y-45339000D03*
X200914000Y-40767000D03*
X299656500Y-81153000D03*
X333946500Y-80073500D03*
X235902500Y-48069500D03*
X236347000Y-115062000D03*
X197993000Y-36957000D03*
X308165500Y-65341500D03*
X245300500Y-64516000D03*
X320167000Y-61722000D03*
X269017750Y-46005750D03*
X193294000Y-44958000D03*
X325120000Y-43116500D03*
X327850500Y-49276000D03*
X181229000Y-64389000D03*
X182499000Y-46355000D03*
X329311000Y-95758000D03*
X327977500Y-92837000D03*
X326453500Y-91122500D03*
X244983000Y-102997000D03*
X223774000Y-38354000D03*
X228600000Y-44577000D03*
X247777000Y-104140000D03*
X231902000Y-46863000D03*
X323913500Y-100901500D03*
X323183250Y-112426750D03*
X242443000Y-104902000D03*
X327469500Y-99885500D03*
X327469500Y-114363500D03*
X218694000Y-38354000D03*
X209804000Y-38354000D03*
X208407000Y-76200000D03*
X346392500Y-84518500D03*
X322008500Y-89852500D03*
X316738000Y-76327000D03*
X225171000Y-69596000D03*
X332232000Y-78994000D03*
X213741000Y-88011000D03*
X208534000Y-40386000D03*
X220726000Y-40386000D03*
X277495000Y-46863000D03*
X359410000Y-77660500D03*
X359410000Y-59817000D03*
X344678000Y-44196000D03*
X206248000Y-42291000D03*
X362458000Y-71628000D03*
X245935500Y-42291000D03*
X333883000Y-41529000D03*
D15*
X354076000Y-86106000D02*
X354076000Y-76200000D01*
X354076000Y-76200000D02*
X354584000Y-75692000D01*
X354584000Y-67564000D02*
X354076000Y-67056000D01*
X354584000Y-75692000D02*
X354584000Y-67564000D01*
X312674000Y-67056000D02*
X312674000Y-60198000D01*
X312674000Y-60198000D02*
X309499000Y-57023000D01*
X309499000Y-57023000D02*
X309499000Y-48387000D01*
X304546000Y-43434000D02*
X309499000Y-48387000D01*
X373126000Y-86106000D02*
X373126000Y-75311000D01*
X373126000Y-75311000D02*
X373888000Y-74549000D01*
X373888000Y-67818000D02*
X373126000Y-67056000D01*
X373888000Y-74549000D02*
X373888000Y-67818000D01*
X201422000Y-50546000D02*
X201549000Y-50546000D01*
X204343000Y-47752000D02*
X204343000Y-39878000D01*
X201549000Y-50546000D02*
X204343000Y-47752000D01*
X315722000Y-50546000D02*
X315722000Y-51181000D01*
X315722000Y-51181000D02*
X316420500Y-51879500D01*
X228790500Y-39497000D02*
X228790500Y-40005000D01*
X228790500Y-40005000D02*
X235458000Y-46672500D01*
X235458000Y-46672500D02*
X236918500Y-46672500D01*
X239522000Y-49276000D02*
X239522000Y-50546000D01*
X236918500Y-46672500D02*
X239522000Y-49276000D01*
X316420500Y-51879500D02*
X316420500Y-59944000D01*
X332295500Y-102298500D02*
X336994500Y-102298500D01*
X325247000Y-95250000D02*
X332295500Y-102298500D01*
X325247000Y-78168500D02*
X325247000Y-95250000D01*
X316420500Y-69342000D02*
X325247000Y-78168500D01*
X316420500Y-59944000D02*
X316420500Y-69342000D01*
X247650000Y-101600000D02*
X251206000Y-105156000D01*
X247650000Y-91440000D02*
X247650000Y-101600000D01*
X33909000Y-124206000D02*
X34036000Y-124206000D01*
X37846000Y-120396000D02*
X34036000Y-124206000D01*
X37846000Y-86487000D02*
X37846000Y-120396000D01*
X241554000Y-86106000D02*
X241554000Y-70866000D01*
X237744000Y-67056000D02*
X236474000Y-67056000D01*
X241554000Y-70866000D02*
X237744000Y-67056000D01*
X200660000Y-45339000D02*
X200660000Y-41021000D01*
D16*
X200660000Y-41021000D02*
X200914000Y-40767000D01*
D15*
X236474000Y-48641000D02*
X236474000Y-67056000D01*
X241554000Y-86106000D02*
X242316000Y-86106000D01*
X242316000Y-86106000D02*
X247650000Y-91440000D01*
X298704000Y-105156000D02*
X298704000Y-82105500D01*
X298704000Y-82105500D02*
X299656500Y-81153000D01*
X335026000Y-74358500D02*
X336994500Y-74358500D01*
X333946500Y-80073500D02*
X333946500Y-75438000D01*
X333946500Y-75438000D02*
X335026000Y-74358500D01*
X235902500Y-48069500D02*
X236474000Y-48641000D01*
X236347000Y-115062000D02*
X237363000Y-114046000D01*
X237363000Y-114046000D02*
X237363000Y-113538000D01*
X234569000Y-124206000D02*
X234569000Y-123952000D01*
X234569000Y-123952000D02*
X236220000Y-119380000D01*
X237363000Y-113538000D02*
X237363000Y-102743000D01*
X228346000Y-88773000D02*
X225679000Y-86106000D01*
X225679000Y-86106000D02*
X222504000Y-86106000D01*
X228346000Y-93726000D02*
X228346000Y-88773000D01*
X237363000Y-102743000D02*
X228346000Y-93726000D01*
X198374000Y-56134000D02*
X198374000Y-67056000D01*
X197993000Y-36957000D02*
X197866000Y-55626000D01*
X197866000Y-55626000D02*
X198374000Y-56134000D01*
X198374000Y-67056000D02*
X198374000Y-70231000D01*
X198374000Y-70231000D02*
X199009000Y-70866000D01*
X199009000Y-81661000D02*
X203454000Y-86106000D01*
X199009000Y-70866000D02*
X199009000Y-81661000D01*
X236347000Y-115062000D02*
X236347000Y-119253000D01*
X236347000Y-119253000D02*
X236220000Y-119380000D01*
X304577634Y-48006000D02*
X308165500Y-51593866D01*
X303022000Y-48006000D02*
X304577634Y-48006000D01*
X308165500Y-51593866D02*
X308165500Y-65341500D01*
X245872000Y-62865000D02*
X245872000Y-55753000D01*
X245872000Y-55753000D02*
X246507000Y-55118000D01*
X246507000Y-48641000D02*
X245872000Y-48006000D01*
X246507000Y-55118000D02*
X246507000Y-48641000D01*
X245872000Y-62865000D02*
X245872000Y-63817500D01*
X245872000Y-63817500D02*
X245300500Y-64389000D01*
X245300500Y-64389000D02*
X245300500Y-64516000D01*
X308229000Y-86106000D02*
X310642000Y-86106000D01*
X310642000Y-86106000D02*
X313817000Y-89281000D01*
X313817000Y-101219000D02*
X317754000Y-105156000D01*
X313817000Y-89281000D02*
X313817000Y-101219000D01*
X293624000Y-67056000D02*
X294767000Y-67056000D01*
X294767000Y-67056000D02*
X302133000Y-74422000D01*
X302133000Y-80010000D02*
X308229000Y-86106000D01*
X302133000Y-74422000D02*
X302133000Y-80010000D01*
X274574000Y-67056000D02*
X276352000Y-67056000D01*
X279654000Y-70358000D02*
X279654000Y-86106000D01*
X276352000Y-67056000D02*
X279654000Y-70358000D01*
X322072000Y-48006000D02*
X322072000Y-50355500D01*
X322072000Y-50355500D02*
X322643500Y-50927000D01*
X322643500Y-50927000D02*
X322643500Y-59309000D01*
X322643500Y-59309000D02*
X320230500Y-61722000D01*
X320230500Y-61722000D02*
X320167000Y-61722000D01*
X272034000Y-64516000D02*
X274574000Y-67056000D01*
X272034000Y-49022000D02*
X272034000Y-64516000D01*
X269017750Y-46005750D02*
X272034000Y-49022000D01*
X184404000Y-86106000D02*
X184404000Y-70104000D01*
X181356000Y-67056000D02*
X179324000Y-67056000D01*
X194056000Y-105156000D02*
X193675000Y-105156000D01*
X193675000Y-105156000D02*
X189865000Y-101346000D01*
X189865000Y-101346000D02*
X189865000Y-89916000D01*
X186055000Y-86106000D02*
X184404000Y-86106000D01*
X189865000Y-89916000D02*
X186055000Y-86106000D01*
X179324000Y-67056000D02*
X182626000Y-67056000D01*
X184404000Y-70104000D02*
X184404000Y-68834000D01*
X193294000Y-58039000D02*
X184277000Y-67056000D01*
X193294000Y-44958000D02*
X193294000Y-58039000D01*
X184277000Y-67056000D02*
X182626000Y-67056000D01*
X184404000Y-68834000D02*
X184404000Y-67183000D01*
X184404000Y-67183000D02*
X184277000Y-67056000D01*
X327850500Y-45847000D02*
X327691750Y-45688250D01*
X327850500Y-49276000D02*
X327850500Y-45847000D01*
X325120000Y-43116500D02*
X327691750Y-45688250D01*
X156337000Y-105537000D02*
X155956000Y-105156000D01*
X156337000Y-120396000D02*
X156337000Y-105537000D01*
X155956000Y-105156000D02*
X155956000Y-100330000D01*
X155956000Y-100330000D02*
X152908000Y-97282000D01*
X152908000Y-97282000D02*
X152908000Y-90424000D01*
X148590000Y-86106000D02*
X146304000Y-86106000D01*
X152908000Y-90424000D02*
X148590000Y-86106000D01*
X141224000Y-67056000D02*
X143510000Y-67056000D01*
X146304000Y-69850000D02*
X146304000Y-86106000D01*
X146304000Y-69850000D02*
X146304000Y-66548000D01*
X146304000Y-66548000D02*
X146304000Y-61341000D01*
X151257000Y-56388000D02*
X151257000Y-48641000D01*
X151257000Y-48641000D02*
X150622000Y-48006000D01*
X146304000Y-61341000D02*
X151257000Y-56388000D01*
X188722000Y-48006000D02*
X188722000Y-50800000D01*
X188722000Y-50800000D02*
X189230000Y-51308000D01*
X189230000Y-51308000D02*
X189230000Y-56515000D01*
X189230000Y-56515000D02*
X189103000Y-56515000D01*
X189103000Y-56515000D02*
X181229000Y-64389000D01*
X141224000Y-67056000D02*
X145796000Y-67056000D01*
X145796000Y-67056000D02*
X146304000Y-66548000D01*
X171196000Y-46482000D02*
X169672000Y-48006000D01*
X182372000Y-46482000D02*
X171196000Y-46482000D01*
X182499000Y-46355000D02*
X182372000Y-46482000D01*
X156337000Y-120396000D02*
X156337000Y-120967500D01*
X159590500Y-124221000D02*
X163106000Y-124221000D01*
X156337000Y-120967500D02*
X159590500Y-124221000D01*
X329311000Y-95758000D02*
X330263500Y-94805500D01*
X330263500Y-70929500D02*
X336994500Y-64198500D01*
X330263500Y-94805500D02*
X330263500Y-70929500D01*
X108204000Y-86106000D02*
X108204000Y-70358000D01*
D16*
X104902000Y-67056000D02*
X103124000Y-67056000D01*
D15*
X112522000Y-48006000D02*
X112522000Y-66040000D01*
X108204000Y-86106000D02*
X108204000Y-87249000D01*
X108204000Y-87249000D02*
X108966000Y-88011000D01*
X108966000Y-94996000D02*
X98806000Y-105156000D01*
X108966000Y-88011000D02*
X108966000Y-94996000D01*
X111506000Y-67056000D02*
X112522000Y-66040000D01*
X108204000Y-67183000D02*
X108077000Y-67056000D01*
X108204000Y-70358000D02*
X108204000Y-67183000D01*
X103124000Y-67056000D02*
X108077000Y-67056000D01*
X108077000Y-67056000D02*
X111506000Y-67056000D01*
X327977500Y-92837000D02*
X328739500Y-92075000D01*
X328739500Y-69913500D02*
X336994500Y-61658500D01*
X328739500Y-92075000D02*
X328739500Y-69913500D01*
X70104000Y-86106000D02*
X70104000Y-70358000D01*
X66802000Y-67056000D02*
X65024000Y-67056000D01*
X70104000Y-70358000D02*
X66802000Y-67056000D01*
X74422000Y-48006000D02*
X74422000Y-59563000D01*
X70104000Y-86106000D02*
X70104000Y-88392000D01*
X70104000Y-88392000D02*
X70866000Y-89154000D01*
X70866000Y-96266000D02*
X79756000Y-105156000D01*
X70866000Y-89154000D02*
X70866000Y-96266000D01*
X65024000Y-67056000D02*
X66929000Y-67056000D01*
X66929000Y-67056000D02*
X74422000Y-59563000D01*
X32004000Y-105156000D02*
X32004000Y-107823000D01*
X32004000Y-107823000D02*
X32512000Y-108331000D01*
X32512000Y-108331000D02*
X32512000Y-112903000D01*
X32512000Y-112903000D02*
X28067000Y-117348000D01*
X28067000Y-117348000D02*
X28067000Y-128270000D01*
X29083000Y-129286000D02*
X33909000Y-129286000D01*
X28067000Y-128270000D02*
X29083000Y-129286000D01*
X326453500Y-69659500D02*
X336994500Y-59118500D01*
X326453500Y-91122500D02*
X326453500Y-69659500D01*
X188214000Y-114300000D02*
X188214000Y-108204000D01*
X188214000Y-108204000D02*
X187706000Y-107696000D01*
D16*
X244856000Y-107696000D02*
X244729000Y-107696000D01*
D15*
X244856000Y-103124000D02*
X244856000Y-107696000D01*
D16*
X244983000Y-102997000D02*
X244856000Y-103124000D01*
D15*
X226314000Y-40894000D02*
X226314000Y-32385000D01*
X231013000Y-55372000D02*
X231013000Y-54991000D01*
X227203000Y-73152000D02*
X227203000Y-62865000D01*
X244983000Y-102997000D02*
X242062000Y-102997000D01*
X229870000Y-75819000D02*
X227203000Y-73152000D01*
X244856000Y-107696000D02*
X244856000Y-108331000D01*
X244856000Y-108331000D02*
X245364000Y-108839000D01*
X245364000Y-108839000D02*
X245364000Y-128016000D01*
X245364000Y-128016000D02*
X240284000Y-133096000D01*
X240284000Y-133096000D02*
X218694000Y-133096000D01*
X188214000Y-114300000D02*
X188214000Y-125603000D01*
X188214000Y-125603000D02*
X188214000Y-125984000D01*
X231267000Y-92202000D02*
X242062000Y-102997000D01*
X227203000Y-73152000D02*
X231013000Y-76962000D01*
X231013000Y-91948000D02*
X231267000Y-92202000D01*
X231013000Y-76962000D02*
X231013000Y-91948000D01*
X231013000Y-54991000D02*
X231013000Y-59055000D01*
X231013000Y-59055000D02*
X227203000Y-62865000D01*
X188214000Y-126746000D02*
X212344000Y-126746000D01*
X212344000Y-126746000D02*
X218694000Y-133096000D01*
X188214000Y-125603000D02*
X188214000Y-126746000D01*
X156756000Y-126761000D02*
X175768000Y-126746000D01*
X187452000Y-126746000D02*
X188214000Y-126746000D01*
X175768000Y-126746000D02*
X187452000Y-126746000D01*
X229870000Y-50355500D02*
X231013000Y-51498500D01*
X229870000Y-44450000D02*
X229870000Y-50355500D01*
X231013000Y-54991000D02*
X231013000Y-51498500D01*
X229870000Y-44450000D02*
X226314000Y-40894000D01*
X223774000Y-38354000D02*
X223774000Y-39751000D01*
D16*
X228727000Y-44704000D02*
X228600000Y-44577000D01*
D15*
X231902000Y-65405000D02*
X237109000Y-70612000D01*
X237109000Y-70612000D02*
X237109000Y-84582000D01*
X237109000Y-84582000D02*
X241935000Y-89408000D01*
X241935000Y-89408000D02*
X241935000Y-98298000D01*
X241935000Y-98298000D02*
X247777000Y-104140000D01*
X223774000Y-32385000D02*
X223774000Y-38354000D01*
X231902000Y-46863000D02*
X231902000Y-65405000D01*
X225806000Y-41783000D02*
X225806000Y-43751500D01*
X223774000Y-39751000D02*
X225806000Y-41783000D01*
X226631500Y-44577000D02*
X228600000Y-44577000D01*
X225806000Y-43751500D02*
X226631500Y-44577000D01*
X323913500Y-100901500D02*
X323913500Y-111633000D01*
X323913500Y-111633000D02*
X323183250Y-112363250D01*
X323183250Y-112363250D02*
X323183250Y-112426750D01*
X357251000Y-107696000D02*
X357251000Y-105854500D01*
X357251000Y-105854500D02*
X367601500Y-95504000D01*
X367601500Y-89471500D02*
X366776000Y-88646000D01*
X367601500Y-95504000D02*
X367601500Y-89471500D01*
X228219000Y-126746000D02*
X225298000Y-122555000D01*
X225298000Y-122555000D02*
X226441000Y-121412000D01*
X226441000Y-108331000D02*
X225806000Y-107696000D01*
X226441000Y-121412000D02*
X226441000Y-108331000D01*
X241173000Y-104902000D02*
X242443000Y-104902000D01*
X224536000Y-49149000D02*
X227330000Y-51943000D01*
X224536000Y-41910000D02*
X224536000Y-49149000D01*
X221234000Y-32385000D02*
X221234000Y-38608000D01*
X229108000Y-83947000D02*
X229108000Y-92075000D01*
X227330000Y-51943000D02*
X227330000Y-57404000D01*
X221234000Y-38608000D02*
X224536000Y-41910000D01*
X226314000Y-68580000D02*
X226314000Y-81153000D01*
X226314000Y-81153000D02*
X229108000Y-83947000D01*
X49530000Y-107696000D02*
X49530000Y-126619000D01*
X46863000Y-129286000D02*
X39751000Y-129286000D01*
X49530000Y-126619000D02*
X46863000Y-129286000D01*
X229108000Y-92075000D02*
X229108000Y-92837000D01*
X229108000Y-92837000D02*
X241173000Y-104902000D01*
X226314000Y-68580000D02*
X226314000Y-58420000D01*
X226314000Y-58420000D02*
X227330000Y-57404000D01*
X327469500Y-99885500D02*
X327469500Y-114363500D01*
X385826000Y-88646000D02*
X385826000Y-89471500D01*
X385826000Y-89471500D02*
X386524500Y-90170000D01*
X386524500Y-106997500D02*
X385826000Y-107696000D01*
X386524500Y-90170000D02*
X386524500Y-106997500D01*
X209804000Y-38354000D02*
X209804000Y-49403000D01*
X209804000Y-49403000D02*
X208407000Y-50800000D01*
X209042000Y-69596000D02*
X208534000Y-70104000D01*
X211074000Y-69596000D02*
X209042000Y-69596000D01*
X208407000Y-50800000D02*
X208534000Y-70104000D01*
X208534000Y-70104000D02*
X208407000Y-76200000D01*
X218694000Y-32385000D02*
X218694000Y-38354000D01*
X347706001Y-83204999D02*
X347706001Y-75140499D01*
X346392500Y-84518500D02*
X347706001Y-83204999D01*
X347706001Y-75140499D02*
X348551500Y-74295000D01*
X348551500Y-71977134D02*
X348551500Y-72136000D01*
X347726000Y-71151634D02*
X348551500Y-71977134D01*
X347726000Y-69596000D02*
X347726000Y-71151634D01*
X348551500Y-74295000D02*
X348551500Y-72136000D01*
X322008500Y-81597500D02*
X316738000Y-76327000D01*
X322008500Y-89852500D02*
X322008500Y-81597500D01*
X225171000Y-63119000D02*
X225171000Y-69596000D01*
X216154000Y-32385000D02*
X216154000Y-54102000D01*
X216154000Y-54102000D02*
X225171000Y-63119000D01*
X332232000Y-82867500D02*
X332232000Y-86804500D01*
X335026000Y-89598500D02*
X336994500Y-89598500D01*
X332232000Y-86804500D02*
X335026000Y-89598500D01*
X332232000Y-78994000D02*
X332232000Y-82867500D01*
X213614000Y-46609000D02*
X213614000Y-32385000D01*
X223139000Y-63246000D02*
X214630000Y-54737000D01*
X216154000Y-84455000D02*
X223139000Y-77470000D01*
X223139000Y-77470000D02*
X223139000Y-63246000D01*
X216154000Y-88646000D02*
X216154000Y-84455000D01*
X213614000Y-46609000D02*
X213614000Y-47244000D01*
X214630000Y-48260000D02*
X214630000Y-54737000D01*
X213614000Y-47244000D02*
X214630000Y-48260000D01*
X213741000Y-84709000D02*
X213741000Y-88011000D01*
X212471000Y-48514000D02*
X212471000Y-65405000D01*
X217932000Y-80518000D02*
X213741000Y-84709000D01*
X212471000Y-65405000D02*
X217932000Y-70866000D01*
X211074000Y-32385000D02*
X211074000Y-47117000D01*
X211074000Y-47117000D02*
X212471000Y-48514000D01*
X217932000Y-70866000D02*
X217932000Y-80518000D01*
X220726000Y-50292000D02*
X220472000Y-50546000D01*
X220726000Y-40386000D02*
X220726000Y-50292000D01*
X277495000Y-46863000D02*
X277495000Y-50419000D01*
X277495000Y-50419000D02*
X277622000Y-50546000D01*
X208534000Y-40386000D02*
X208534000Y-32385000D01*
X347726000Y-50546000D02*
X347726000Y-47244000D01*
X359410000Y-77660500D02*
X359410000Y-59817000D01*
X347726000Y-47244000D02*
X344678000Y-44196000D01*
X44704000Y-79756000D02*
X53213000Y-71247000D01*
X53213000Y-71247000D02*
X53213000Y-67310000D01*
X53213000Y-67310000D02*
X63119000Y-57404000D01*
X63119000Y-57404000D02*
X63119000Y-52578000D01*
D16*
X65151000Y-50546000D02*
X68072000Y-50546000D01*
X63119000Y-52578000D02*
X65151000Y-50546000D01*
D15*
X196977000Y-35560000D02*
X203835000Y-35560000D01*
D16*
X205994000Y-42037000D02*
X206248000Y-42291000D01*
D15*
X205994000Y-33401000D02*
X205994000Y-42037000D01*
X205994000Y-33401000D02*
X205994000Y-32385000D01*
X182372000Y-50546000D02*
X182372000Y-50165000D01*
X182372000Y-50165000D02*
X196977000Y-35560000D01*
X205994000Y-32385000D02*
X205994000Y-34290000D01*
X204724000Y-35560000D02*
X196977000Y-35560000D01*
X205994000Y-34290000D02*
X204724000Y-35560000D01*
X39751000Y-124206000D02*
X40640000Y-124206000D01*
X40640000Y-124206000D02*
X43434000Y-121412000D01*
X43434000Y-121412000D02*
X43434000Y-96139000D01*
X43434000Y-96139000D02*
X41529000Y-94234000D01*
X41529000Y-82931000D02*
X44704000Y-79756000D01*
X41529000Y-94234000D02*
X41529000Y-82931000D01*
X362458000Y-71628000D02*
X362458000Y-63817500D01*
X362458000Y-63817500D02*
X367411000Y-58864500D01*
X367411000Y-51181000D02*
X366776000Y-50546000D01*
X367411000Y-58864500D02*
X367411000Y-51181000D01*
X258572000Y-50546000D02*
X254190500Y-50546000D01*
X254190500Y-50546000D02*
X245935500Y-42291000D01*
X51054000Y-86106000D02*
X51054000Y-95758000D01*
X35433000Y-126746000D02*
X33909000Y-126746000D01*
X36576000Y-127889000D02*
X35433000Y-126746000D01*
X36576000Y-130683000D02*
X36576000Y-127889000D01*
X38100000Y-132207000D02*
X36576000Y-130683000D01*
X51562000Y-132207000D02*
X38100000Y-132207000D01*
X60325000Y-123444000D02*
X51562000Y-132207000D01*
X60325000Y-105029000D02*
X60325000Y-123444000D01*
X51054000Y-95758000D02*
X60325000Y-105029000D01*
X39751000Y-126746000D02*
X41783000Y-126746000D01*
X41783000Y-126746000D02*
X45085000Y-123444000D01*
X45085000Y-89027000D02*
X44704000Y-88646000D01*
X45085000Y-123444000D02*
X45085000Y-89027000D01*
D17*
X231394000Y-38798500D02*
X231394000Y-32385000D01*
X232918000Y-40322500D02*
X231394000Y-38798500D01*
X248158000Y-40322500D02*
X232918000Y-40322500D01*
X336994500Y-104838500D02*
X338391500Y-104838500D01*
X339598000Y-103632000D02*
X339598000Y-52641500D01*
X339598000Y-52641500D02*
X328739500Y-41783000D01*
X328739500Y-41783000D02*
X249618500Y-41783000D01*
X338391500Y-104838500D02*
X339598000Y-103632000D01*
X249618500Y-41783000D02*
X248158000Y-40322500D01*
X333883000Y-41529000D02*
X333883000Y-41592500D01*
X333883000Y-41592500D02*
X342074500Y-49784000D01*
X342074500Y-49784000D02*
X342074500Y-105283000D01*
X339979000Y-107378500D02*
X336994500Y-107378500D01*
X342074500Y-105283000D02*
X339979000Y-107378500D01*
M02*
