G04 #@! TF.GenerationSoftware,KiCad,Pcbnew,(5.1.5)-3*
G04 #@! TF.CreationDate,2020-08-08T22:19:49-04:00*
G04 #@! TF.ProjectId,petkb,7065746b-622e-46b6-9963-61645f706362,rev?*
G04 #@! TF.SameCoordinates,Original*
G04 #@! TF.FileFunction,Profile,NP*
%FSLAX46Y46*%
G04 Gerber Fmt 4.6, Leading zero omitted, Abs format (unit mm)*
G04 Created by KiCad (PCBNEW (5.1.5)-3) date 2020-08-08 22:19:49*
%MOMM*%
%LPD*%
G04 APERTURE LIST*
%ADD10C,0.050000*%
G04 APERTURE END LIST*
D10*
X256667000Y-27813000D02*
X236474000Y-27813000D01*
X266827000Y-27813000D02*
X300990000Y-27813000D01*
X256667000Y-33909000D02*
X256667000Y-27813000D01*
X266827000Y-27813000D02*
X266827000Y-33909000D01*
X266827000Y-33909000D02*
G75*
G02X256667000Y-33909000I-5080000J0D01*
G01*
X163703000Y-27813000D02*
X183515000Y-27813000D01*
X119126000Y-27813000D02*
X153543000Y-27813000D01*
X151344000Y-33782000D02*
G75*
G03X151344000Y-33782000I-2500000J0D01*
G01*
X163703000Y-33909000D02*
G75*
G02X153543000Y-33909000I-5080000J0D01*
G01*
X253833000Y-148717000D02*
G75*
G03X253833000Y-148717000I-2500000J0D01*
G01*
X43775000Y-148590000D02*
G75*
G03X43775000Y-148590000I-2500000J0D01*
G01*
X274534000Y-33909000D02*
G75*
G03X274534000Y-33909000I-2500000J0D01*
G01*
X361783000Y-33782000D02*
G75*
G03X361783000Y-33782000I-2500000J0D01*
G01*
X381341000Y-33909000D02*
G75*
G03X381341000Y-33909000I-2500000J0D01*
G01*
X298791000Y-33782000D02*
G75*
G03X298791000Y-33782000I-2500000J0D01*
G01*
X318349000Y-33909000D02*
G75*
G03X318349000Y-33909000I-2500000J0D01*
G01*
X106767000Y-33782000D02*
G75*
G03X106767000Y-33782000I-2500000J0D01*
G01*
X126325000Y-33909000D02*
G75*
G03X126325000Y-33909000I-2500000J0D01*
G01*
X63333000Y-148717000D02*
G75*
G03X63333000Y-148717000I-2500000J0D01*
G01*
X171156000Y-148590000D02*
G75*
G03X171156000Y-148590000I-2500000J0D01*
G01*
X190714000Y-148717000D02*
G75*
G03X190714000Y-148717000I-2500000J0D01*
G01*
X298791000Y-148590000D02*
G75*
G03X298791000Y-148590000I-2500000J0D01*
G01*
X318349000Y-148717000D02*
G75*
G03X318349000Y-148717000I-2500000J0D01*
G01*
X43775000Y-33782000D02*
G75*
G03X43775000Y-33782000I-2500000J0D01*
G01*
X63333000Y-33909000D02*
G75*
G03X63333000Y-33909000I-2500000J0D01*
G01*
X106767000Y-148590000D02*
G75*
G03X106767000Y-148590000I-2500000J0D01*
G01*
X126325000Y-148717000D02*
G75*
G03X126325000Y-148717000I-2500000J0D01*
G01*
X234275000Y-148590000D02*
G75*
G03X234275000Y-148590000I-2500000J0D01*
G01*
X361783000Y-148590000D02*
G75*
G03X361783000Y-148590000I-2500000J0D01*
G01*
X381341000Y-148717000D02*
G75*
G03X381341000Y-148717000I-2500000J0D01*
G01*
X397256000Y-27813000D02*
X374142000Y-27813000D01*
X403098000Y-148971000D02*
X403098000Y-33655000D01*
X397256000Y-154813000D02*
X374142000Y-154813000D01*
X22860000Y-154813000D02*
X45974000Y-154813000D01*
X17018000Y-33655000D02*
X17018000Y-148971000D01*
X22860000Y-27813000D02*
X45974000Y-27813000D01*
X17018000Y-33655000D02*
G75*
G02X22860000Y-27813000I5842000J0D01*
G01*
X22860000Y-154813000D02*
G75*
G02X17018000Y-148971000I0J5842000D01*
G01*
X403098000Y-148971000D02*
G75*
G02X397256000Y-154813000I-5842000J0D01*
G01*
X397256000Y-27813000D02*
G75*
G02X403098000Y-33655000I0J-5842000D01*
G01*
X311150000Y-154813000D02*
X363982000Y-154813000D01*
X246634000Y-154813000D02*
X300990000Y-154813000D01*
X183515000Y-154813000D02*
X236474000Y-154813000D01*
X119126000Y-154813000D02*
X173355000Y-154813000D01*
X56134000Y-154813000D02*
X108966000Y-154813000D01*
X374142000Y-148717000D02*
X374142000Y-154813000D01*
X363982000Y-148717000D02*
X363982000Y-154813000D01*
X311150000Y-148717000D02*
X311150000Y-154813000D01*
X300990000Y-148717000D02*
X300990000Y-154813000D01*
X246634000Y-148717000D02*
X246634000Y-154813000D01*
X236474000Y-148717000D02*
X236474000Y-154813000D01*
X183515000Y-148717000D02*
X183515000Y-154813000D01*
X173355000Y-148717000D02*
X173355000Y-154813000D01*
X119126000Y-148717000D02*
X119126000Y-154813000D01*
X108966000Y-148717000D02*
X108966000Y-154813000D01*
X56134000Y-148717000D02*
X56134000Y-154813000D01*
X45974000Y-148717000D02*
X45974000Y-154813000D01*
X45974000Y-148717000D02*
G75*
G02X56134000Y-148717000I5080000J0D01*
G01*
X108966000Y-148717000D02*
G75*
G02X119126000Y-148717000I5080000J0D01*
G01*
X173355000Y-148717000D02*
G75*
G02X183515000Y-148717000I5080000J0D01*
G01*
X236474000Y-148717000D02*
G75*
G02X246634000Y-148717000I5080000J0D01*
G01*
X300990000Y-148717000D02*
G75*
G02X311150000Y-148717000I5080000J0D01*
G01*
X363982000Y-148717000D02*
G75*
G02X374142000Y-148717000I5080000J0D01*
G01*
X311150000Y-27813000D02*
X363982000Y-27813000D01*
X183515000Y-27813000D02*
X236474000Y-27813000D01*
X56134000Y-27813000D02*
X108966000Y-27813000D01*
X108966000Y-33909000D02*
X108966000Y-27813000D01*
X119126000Y-33909000D02*
X119126000Y-27813000D01*
X153543000Y-33909000D02*
X153543000Y-27813000D01*
X163703000Y-33909000D02*
X163703000Y-27813000D01*
X300990000Y-33909000D02*
X300990000Y-27813000D01*
X311150000Y-33909000D02*
X311150000Y-27813000D01*
X45974000Y-33909000D02*
X45974000Y-27813000D01*
X56134000Y-33909000D02*
X56134000Y-27813000D01*
X56134000Y-33909000D02*
G75*
G02X45974000Y-33909000I-5080000J0D01*
G01*
X119126000Y-33909000D02*
G75*
G02X108966000Y-33909000I-5080000J0D01*
G01*
X311150000Y-33909000D02*
G75*
G02X300990000Y-33909000I-5080000J0D01*
G01*
X374142000Y-33909000D02*
G75*
G02X363982000Y-33909000I-5080000J0D01*
G01*
X363982000Y-33909000D02*
X363982000Y-27813000D01*
X374142000Y-33909000D02*
X374142000Y-27813000D01*
M02*
