G04 #@! TF.GenerationSoftware,KiCad,Pcbnew,(5.1.9)-1*
G04 #@! TF.CreationDate,2021-03-31T21:28:56-04:00*
G04 #@! TF.ProjectId,petkn,7065746b-6e2e-46b6-9963-61645f706362,rev?*
G04 #@! TF.SameCoordinates,Original*
G04 #@! TF.FileFunction,Profile,NP*
%FSLAX46Y46*%
G04 Gerber Fmt 4.6, Leading zero omitted, Abs format (unit mm)*
G04 Created by KiCad (PCBNEW (5.1.9)-1) date 2021-03-31 21:28:56*
%MOMM*%
%LPD*%
G01*
G04 APERTURE LIST*
G04 #@! TA.AperFunction,Profile*
%ADD10C,0.050000*%
G04 #@! TD*
G04 APERTURE END LIST*
D10*
X101351853Y-52705000D02*
G75*
G03*
X101351853Y-52705000I-2101353J0D01*
G01*
X253688353Y-52641500D02*
G75*
G03*
X253688353Y-52641500I-2101353J0D01*
G01*
X177482853Y-52666500D02*
G75*
G03*
X177482853Y-52666500I-2101353J0D01*
G01*
X300500000Y-143002000D02*
G75*
G03*
X300500000Y-143002000I-2500000J0D01*
G01*
X300500000Y-54000000D02*
G75*
G03*
X300500000Y-54000000I-2500000J0D01*
G01*
X300500000Y-97726500D02*
G75*
G03*
X300500000Y-97726500I-2500000J0D01*
G01*
X17272000Y-54419500D02*
X17272000Y-142367000D01*
X403352000Y-54419500D02*
X403352000Y-142367000D01*
X23114000Y-48577500D02*
X397510000Y-48577500D01*
X24217000Y-98000000D02*
G75*
G03*
X24217000Y-98000000I-2500000J0D01*
G01*
X24217000Y-53000000D02*
G75*
G03*
X24217000Y-53000000I-2500000J0D01*
G01*
X400772000Y-98000000D02*
G75*
G03*
X400772000Y-98000000I-2500000J0D01*
G01*
X23114000Y-148209000D02*
X397510000Y-148209000D01*
X397510000Y-48577500D02*
G75*
G02*
X403352000Y-54419500I0J-5842000D01*
G01*
X53871500Y-143000000D02*
G75*
G03*
X53871500Y-143000000I-2500000J0D01*
G01*
X24217000Y-143000000D02*
G75*
G03*
X24217000Y-143000000I-2500000J0D01*
G01*
X181189000Y-143000000D02*
G75*
G03*
X181189000Y-143000000I-2500000J0D01*
G01*
X253515500Y-143000000D02*
G75*
G03*
X253515500Y-143000000I-2500000J0D01*
G01*
X308824000Y-143000000D02*
G75*
G03*
X308824000Y-143000000I-2500000J0D01*
G01*
X400835500Y-143000000D02*
G75*
G03*
X400835500Y-143000000I-2500000J0D01*
G01*
X17272000Y-54419500D02*
G75*
G02*
X23114000Y-48577500I5842000J0D01*
G01*
X403352000Y-142367000D02*
G75*
G02*
X397510000Y-148209000I-5842000J0D01*
G01*
X308824000Y-54000000D02*
G75*
G03*
X308824000Y-54000000I-2500000J0D01*
G01*
X23114000Y-148209000D02*
G75*
G02*
X17272000Y-142367000I0J5842000D01*
G01*
X400772000Y-54000000D02*
G75*
G03*
X400772000Y-54000000I-2500000J0D01*
G01*
M02*
