G04 #@! TF.GenerationSoftware,KiCad,Pcbnew,(5.1.9)-1*
G04 #@! TF.CreationDate,2021-05-20T15:13:42-04:00*
G04 #@! TF.ProjectId,cbm2mx,63626d32-6d78-42e6-9b69-6361645f7063,rev?*
G04 #@! TF.SameCoordinates,Original*
G04 #@! TF.FileFunction,Soldermask,Top*
G04 #@! TF.FilePolarity,Negative*
%FSLAX46Y46*%
G04 Gerber Fmt 4.6, Leading zero omitted, Abs format (unit mm)*
G04 Created by KiCad (PCBNEW (5.1.9)-1) date 2021-05-20 15:13:42*
%MOMM*%
%LPD*%
G01*
G04 APERTURE LIST*
G04 #@! TA.AperFunction,Profile*
%ADD10C,0.050000*%
G04 #@! TD*
%ADD11C,3.050000*%
%ADD12C,4.000000*%
%ADD13C,1.700000*%
%ADD14C,2.200000*%
%ADD15O,1.700000X1.700000*%
%ADD16R,1.700000X1.700000*%
G04 APERTURE END LIST*
D10*
X370444400Y-164439600D02*
G75*
G03*
X370444400Y-164439600I-2500000J0D01*
G01*
X325702300Y-276783800D02*
G75*
G03*
X325702300Y-276783800I-2500000J0D01*
G01*
X484452300Y-164439600D02*
G75*
G03*
X484452300Y-164439600I-2500000J0D01*
G01*
X256436500Y-164439600D02*
G75*
G03*
X256436500Y-164439600I-2500000J0D01*
G01*
X142428600Y-164439600D02*
G75*
G03*
X142428600Y-164439600I-2500000J0D01*
G01*
X325689600Y-164439600D02*
G75*
G03*
X325689600Y-164439600I-2500000J0D01*
G01*
X501472200Y-275971000D02*
X501472200Y-129768600D01*
X120929400Y-275971000D02*
X120929400Y-130136900D01*
X126834900Y-281813000D02*
X126771400Y-281813000D01*
X495630200Y-281813000D02*
X126834900Y-281813000D01*
X126771400Y-123926600D02*
X495630200Y-123926600D01*
X256423800Y-128955800D02*
G75*
G03*
X256423800Y-128955800I-2500000J0D01*
G01*
X484439600Y-128955800D02*
G75*
G03*
X484439600Y-128955800I-2500000J0D01*
G01*
X370431700Y-128955800D02*
G75*
G03*
X370431700Y-128955800I-2500000J0D01*
G01*
X416481900Y-241503200D02*
G75*
G03*
X416481900Y-241503200I-2500000J0D01*
G01*
X120929400Y-130136900D02*
X120929400Y-129768600D01*
X370431700Y-276783800D02*
G75*
G03*
X370431700Y-276783800I-2500000J0D01*
G01*
X416418400Y-276783800D02*
G75*
G03*
X416418400Y-276783800I-2500000J0D01*
G01*
X142403200Y-128955800D02*
G75*
G03*
X142403200Y-128955800I-2500000J0D01*
G01*
X495630200Y-123926600D02*
G75*
G02*
X501472200Y-129768600I0J-5842000D01*
G01*
X325702300Y-128955800D02*
G75*
G03*
X325702300Y-128955800I-2500000J0D01*
G01*
X142428600Y-276783800D02*
G75*
G03*
X142428600Y-276783800I-2500000J0D01*
G01*
X416418400Y-164439600D02*
G75*
G03*
X416418400Y-164439600I-2500000J0D01*
G01*
X256423800Y-276783800D02*
G75*
G03*
X256423800Y-276783800I-2500000J0D01*
G01*
X484452300Y-276783800D02*
G75*
G03*
X484452300Y-276783800I-2500000J0D01*
G01*
X120929400Y-129768600D02*
G75*
G02*
X126771400Y-123926600I5842000J0D01*
G01*
X501472200Y-275971000D02*
G75*
G02*
X495630200Y-281813000I-5842000J0D01*
G01*
X416418400Y-128955800D02*
G75*
G03*
X416418400Y-128955800I-2500000J0D01*
G01*
X126771400Y-281813000D02*
G75*
G02*
X120929400Y-275971000I0J5842000D01*
G01*
D11*
X387601700Y-196634000D03*
X387601700Y-220434000D03*
D12*
X402841700Y-220434000D03*
X402841700Y-196634000D03*
D13*
X399681700Y-208534000D03*
X389521700Y-208534000D03*
D12*
X394601700Y-208534000D03*
D14*
X390791700Y-205994000D03*
X397141700Y-203454000D03*
D13*
X404253700Y-179920900D03*
X394093700Y-179920900D03*
D12*
X399173700Y-179920900D03*
D14*
X395363700Y-177380900D03*
X401713700Y-174840900D03*
X435254400Y-232016300D03*
X428904400Y-234556300D03*
D12*
X432714400Y-237096300D03*
D13*
X427634400Y-237096300D03*
X437794400Y-237096300D03*
X175780700Y-148958300D03*
X165620700Y-148958300D03*
D12*
X170700700Y-148958300D03*
D14*
X166890700Y-146418300D03*
X173240700Y-143878300D03*
D13*
X251853700Y-179882800D03*
X241693700Y-179882800D03*
D12*
X246773700Y-179882800D03*
D14*
X242963700Y-177342800D03*
X249313700Y-174802800D03*
D13*
X361594400Y-218046300D03*
X351434400Y-218046300D03*
D12*
X356514400Y-218046300D03*
D14*
X352704400Y-215506300D03*
X359054400Y-212966300D03*
D13*
X194805300Y-148958300D03*
X184645300Y-148958300D03*
D12*
X189725300Y-148958300D03*
D14*
X185915300Y-146418300D03*
X192265300Y-143878300D03*
D11*
X318338300Y-249222500D03*
X218338300Y-249222500D03*
D12*
X218338300Y-264462500D03*
X318338300Y-264462500D03*
D13*
X273418300Y-256222500D03*
X263258300Y-256222500D03*
D12*
X268338300Y-256222500D03*
D14*
X264528300Y-253682500D03*
X270878300Y-251142500D03*
D15*
X303314100Y-258953000D03*
X300774100Y-258953000D03*
X303314100Y-256413000D03*
X300774100Y-256413000D03*
X303314100Y-253873000D03*
D16*
X300774100Y-253873000D03*
D15*
X237553500Y-258508500D03*
X235013500Y-258508500D03*
X237553500Y-255968500D03*
X235013500Y-255968500D03*
X237553500Y-253428500D03*
D16*
X235013500Y-253428500D03*
D11*
X158839000Y-230121700D03*
X135039000Y-230121700D03*
D12*
X135039000Y-245361700D03*
X158839000Y-245361700D03*
D13*
X152019000Y-237121700D03*
X141859000Y-237121700D03*
D12*
X146939000Y-237121700D03*
D14*
X143129000Y-234581700D03*
X149479000Y-232041700D03*
D13*
X427634400Y-256095500D03*
X437794400Y-256095500D03*
D12*
X432714400Y-256095500D03*
D14*
X436524400Y-258635500D03*
X430174400Y-261175500D03*
D13*
X435394100Y-256082800D03*
X425234100Y-256082800D03*
D12*
X430314100Y-256082800D03*
D14*
X426504100Y-253542800D03*
X432854100Y-251002800D03*
D15*
X359117900Y-260705600D03*
X359117900Y-258165600D03*
D16*
X359117900Y-255625600D03*
D13*
X418706300Y-256120900D03*
X408546300Y-256120900D03*
D12*
X413626300Y-256120900D03*
D14*
X409816300Y-253580900D03*
X416166300Y-251040900D03*
D13*
X380631700Y-256095500D03*
X370471700Y-256095500D03*
D12*
X375551700Y-256095500D03*
D14*
X371741700Y-253555500D03*
X378091700Y-251015500D03*
D13*
X399694400Y-256095500D03*
X389534400Y-256095500D03*
D12*
X394614400Y-256095500D03*
D14*
X390804400Y-253555500D03*
X397154400Y-251015500D03*
D13*
X378167900Y-199021700D03*
X368007900Y-199021700D03*
D12*
X373087900Y-199021700D03*
D14*
X369277900Y-196481700D03*
X375627900Y-193941700D03*
D11*
X482902500Y-234695900D03*
X482902500Y-258495900D03*
D12*
X498142500Y-258495900D03*
X498142500Y-234695900D03*
D13*
X494982500Y-246595900D03*
X484822500Y-246595900D03*
D12*
X489902500Y-246595900D03*
D14*
X486092500Y-244055900D03*
X492442500Y-241515900D03*
D13*
X344805000Y-256159000D03*
X334645000Y-256159000D03*
D12*
X339725000Y-256159000D03*
D14*
X335915000Y-253619000D03*
X342265000Y-251079000D03*
D13*
X199555100Y-256184400D03*
X189395100Y-256184400D03*
D12*
X194475100Y-256184400D03*
D14*
X190665100Y-253644400D03*
X197015100Y-251104400D03*
D13*
X375881900Y-237109000D03*
X365721900Y-237109000D03*
D12*
X370801900Y-237109000D03*
D14*
X366991900Y-234569000D03*
X373341900Y-232029000D03*
D13*
X147320000Y-218020900D03*
X137160000Y-218020900D03*
D12*
X142240000Y-218020900D03*
D14*
X138430000Y-215480900D03*
X144780000Y-212940900D03*
D15*
X227444300Y-136156700D03*
X224904300Y-136156700D03*
X222364300Y-136156700D03*
X219824300Y-136156700D03*
X217284300Y-136156700D03*
X214744300Y-136156700D03*
X212204300Y-136156700D03*
X209664300Y-136156700D03*
X207124300Y-136156700D03*
X204584300Y-136156700D03*
X202044300Y-136156700D03*
X199504300Y-136156700D03*
X196964300Y-136156700D03*
X194424300Y-136156700D03*
X191884300Y-136156700D03*
X189344300Y-136156700D03*
X186804300Y-136156700D03*
X184264300Y-136156700D03*
X181724300Y-136156700D03*
X179184300Y-136156700D03*
X176644300Y-136156700D03*
X174104300Y-136156700D03*
D16*
X171564300Y-136156700D03*
D15*
X414845500Y-235013500D03*
X414845500Y-232473500D03*
X414845500Y-229933500D03*
X414845500Y-227393500D03*
X414845500Y-224853500D03*
X414845500Y-222313500D03*
X414845500Y-219773500D03*
X414845500Y-217233500D03*
X414845500Y-214693500D03*
X414845500Y-212153500D03*
X414845500Y-209613500D03*
X414845500Y-207073500D03*
X414845500Y-204533500D03*
X414845500Y-201993500D03*
X414845500Y-199453500D03*
X414845500Y-196913500D03*
X414845500Y-194373500D03*
X414845500Y-191833500D03*
X414845500Y-189293500D03*
X414845500Y-186753500D03*
X414845500Y-184213500D03*
X414845500Y-181673500D03*
D16*
X414845500Y-179133500D03*
D13*
X170967400Y-256146300D03*
X160807400Y-256146300D03*
D12*
X165887400Y-256146300D03*
D14*
X162077400Y-253606300D03*
X168427400Y-251066300D03*
D13*
X142354300Y-199021700D03*
X132194300Y-199021700D03*
D12*
X137274300Y-199021700D03*
D14*
X133464300Y-196481700D03*
X139814300Y-193941700D03*
D13*
X218719400Y-237096300D03*
X208559400Y-237096300D03*
D12*
X213639400Y-237096300D03*
D14*
X209829400Y-234556300D03*
X216179400Y-232016300D03*
D13*
X199656700Y-237109000D03*
X189496700Y-237109000D03*
D12*
X194576700Y-237109000D03*
D14*
X190766700Y-234569000D03*
X197116700Y-232029000D03*
D13*
X366166400Y-179908200D03*
X356006400Y-179908200D03*
D12*
X361086400Y-179908200D03*
D14*
X357276400Y-177368200D03*
X363626400Y-174828200D03*
D13*
X494969800Y-148958300D03*
X484809800Y-148958300D03*
D12*
X489889800Y-148958300D03*
D14*
X486079800Y-146418300D03*
X492429800Y-143878300D03*
D13*
X347141800Y-148958300D03*
X336981800Y-148958300D03*
D12*
X342061800Y-148958300D03*
D14*
X338251800Y-146418300D03*
X344436300Y-143878300D03*
D13*
X270941800Y-148958300D03*
X260781800Y-148958300D03*
D12*
X265861800Y-148958300D03*
D14*
X262051800Y-146418300D03*
X268401800Y-143878300D03*
D13*
X232892600Y-148958300D03*
X222732600Y-148958300D03*
D12*
X227812600Y-148958300D03*
D14*
X224002600Y-146418300D03*
X230352600Y-143878300D03*
D13*
X475919800Y-256146300D03*
X465759800Y-256146300D03*
D12*
X470839800Y-256146300D03*
D14*
X467029800Y-253606300D03*
X473379800Y-251066300D03*
D13*
X456857100Y-256159000D03*
X446697100Y-256159000D03*
D12*
X451777100Y-256159000D03*
D14*
X447967100Y-253619000D03*
X454317100Y-251079000D03*
D13*
X380644400Y-218084400D03*
X370484400Y-218084400D03*
D12*
X375564400Y-218084400D03*
D14*
X371754400Y-215544400D03*
X378104400Y-213004400D03*
D13*
X352094800Y-237134400D03*
X341934800Y-237134400D03*
D12*
X347014800Y-237134400D03*
D14*
X343204800Y-234594400D03*
X349554800Y-232054400D03*
D13*
X333032100Y-237109000D03*
X322872100Y-237109000D03*
D12*
X327952100Y-237109000D03*
D14*
X324142100Y-234569000D03*
X330492100Y-232029000D03*
D13*
X275894800Y-237121700D03*
X265734800Y-237121700D03*
D12*
X270814800Y-237121700D03*
D14*
X267004800Y-234581700D03*
X273354800Y-232041700D03*
D13*
X256832100Y-237121700D03*
X246672100Y-237121700D03*
D12*
X251752100Y-237121700D03*
D14*
X247942100Y-234581700D03*
X254292100Y-232041700D03*
D13*
X237769400Y-237109000D03*
X227609400Y-237109000D03*
D12*
X232689400Y-237109000D03*
D14*
X228879400Y-234569000D03*
X235229400Y-232029000D03*
D13*
X190182500Y-218071700D03*
X180022500Y-218071700D03*
D12*
X185102500Y-218071700D03*
D14*
X181292500Y-215531700D03*
X187642500Y-212991700D03*
D13*
X385216400Y-179908200D03*
X375056400Y-179908200D03*
D12*
X380136400Y-179908200D03*
D14*
X376326400Y-177368200D03*
X382676400Y-174828200D03*
D13*
X185242200Y-199021700D03*
X175082200Y-199021700D03*
D12*
X180162200Y-199021700D03*
D14*
X176352200Y-196481700D03*
X182702200Y-193941700D03*
D13*
X175653700Y-179857400D03*
X165493700Y-179857400D03*
D12*
X170573700Y-179857400D03*
D14*
X166763700Y-177317400D03*
X173113700Y-174777400D03*
D13*
X437807100Y-148958300D03*
X427647100Y-148958300D03*
D12*
X432727100Y-148958300D03*
D14*
X428917100Y-146418300D03*
X435267100Y-143878300D03*
D15*
X141947900Y-260235700D03*
X139407900Y-260235700D03*
X141947900Y-257695700D03*
X139407900Y-257695700D03*
X141947900Y-255155700D03*
D16*
X139407900Y-255155700D03*
D14*
X473379800Y-143878300D03*
X467029800Y-146418300D03*
D12*
X470839800Y-148958300D03*
D13*
X465759800Y-148958300D03*
X475919800Y-148958300D03*
D14*
X244779800Y-212991700D03*
X238429800Y-215531700D03*
D12*
X242239800Y-218071700D03*
D13*
X237159800Y-218071700D03*
X247319800Y-218071700D03*
X399681700Y-237096300D03*
X389521700Y-237096300D03*
D12*
X394601700Y-237096300D03*
D14*
X390791700Y-234556300D03*
X397141700Y-232016300D03*
X239750600Y-193941700D03*
X233400600Y-196481700D03*
D12*
X237210600Y-199021700D03*
D13*
X232130600Y-199021700D03*
X242290600Y-199021700D03*
X313982100Y-237121700D03*
X303822100Y-237121700D03*
D12*
X308902100Y-237121700D03*
D14*
X305092100Y-234581700D03*
X311442100Y-232041700D03*
D13*
X228269800Y-218084400D03*
X218109800Y-218084400D03*
D12*
X223189800Y-218084400D03*
D14*
X219379800Y-215544400D03*
X225729800Y-213004400D03*
D13*
X156705300Y-148958300D03*
X146545300Y-148958300D03*
D12*
X151625300Y-148958300D03*
D14*
X147815300Y-146418300D03*
X154165300Y-143878300D03*
X292404800Y-232041700D03*
X286054800Y-234581700D03*
D12*
X289864800Y-237121700D03*
D13*
X284784800Y-237121700D03*
X294944800Y-237121700D03*
X266319000Y-218071700D03*
X256159000Y-218071700D03*
D12*
X261239000Y-218071700D03*
D14*
X257429000Y-215531700D03*
X263779000Y-212991700D03*
X135013300Y-143878300D03*
X128752600Y-146418300D03*
D12*
X132562600Y-148958300D03*
D13*
X127482600Y-148958300D03*
X137642600Y-148958300D03*
D14*
X211315300Y-143878300D03*
X204965300Y-146418300D03*
D12*
X208775300Y-148958300D03*
D13*
X203695300Y-148958300D03*
X213855300Y-148958300D03*
D14*
X249389900Y-143878300D03*
X243039900Y-146418300D03*
D12*
X246849900Y-148958300D03*
D13*
X241769900Y-148958300D03*
X251929900Y-148958300D03*
D14*
X287464500Y-143878300D03*
X281114500Y-146418300D03*
D12*
X284924500Y-148958300D03*
D13*
X279844500Y-148958300D03*
X290004500Y-148958300D03*
X309079900Y-148958300D03*
X298919900Y-148958300D03*
D12*
X303999900Y-148958300D03*
D14*
X300189900Y-146418300D03*
X306539900Y-143878300D03*
D13*
X366128300Y-148945600D03*
X355968300Y-148945600D03*
D12*
X361048300Y-148945600D03*
D14*
X357238300Y-146405600D03*
X363588300Y-143865600D03*
D13*
X456869800Y-148958300D03*
X446709800Y-148958300D03*
D12*
X451789800Y-148958300D03*
D14*
X447979800Y-146418300D03*
X454329800Y-143878300D03*
X135013700Y-174764700D03*
X128663700Y-177304700D03*
D12*
X132473700Y-179844700D03*
D13*
X127393700Y-179844700D03*
X137553700Y-179844700D03*
X156603700Y-179844700D03*
X146443700Y-179844700D03*
D12*
X151523700Y-179844700D03*
D14*
X147713700Y-177304700D03*
X154063700Y-174764700D03*
D13*
X194691000Y-179870100D03*
X184531000Y-179870100D03*
D12*
X189611000Y-179870100D03*
D14*
X185801000Y-177330100D03*
X192151000Y-174790100D03*
X211201000Y-174802800D03*
X204851000Y-177342800D03*
D12*
X208661000Y-179882800D03*
D13*
X203581000Y-179882800D03*
X213741000Y-179882800D03*
X232791000Y-179895500D03*
X222631000Y-179895500D03*
D12*
X227711000Y-179895500D03*
D14*
X223901000Y-177355500D03*
X230251000Y-174815500D03*
X268376400Y-174828200D03*
X262026400Y-177368200D03*
D12*
X265836400Y-179908200D03*
D13*
X260756400Y-179908200D03*
X270916400Y-179908200D03*
X289979100Y-179920900D03*
X279819100Y-179920900D03*
D12*
X284899100Y-179920900D03*
D14*
X281089100Y-177380900D03*
X287439100Y-174840900D03*
X306489100Y-174840900D03*
X300139100Y-177380900D03*
D12*
X303949100Y-179920900D03*
D13*
X298869100Y-179920900D03*
X309029100Y-179920900D03*
X328066400Y-179920900D03*
X317906400Y-179920900D03*
D12*
X322986400Y-179920900D03*
D14*
X319176400Y-177380900D03*
X325526400Y-174840900D03*
D13*
X385165600Y-148932900D03*
X375005600Y-148932900D03*
D12*
X380085600Y-148932900D03*
D14*
X376275600Y-146392900D03*
X382625600Y-143852900D03*
X435229000Y-174879000D03*
X428879000Y-177419000D03*
D12*
X432689000Y-179959000D03*
D13*
X427609000Y-179959000D03*
X437769000Y-179959000D03*
X456793600Y-179959000D03*
X446633600Y-179959000D03*
D12*
X451713600Y-179959000D03*
D14*
X447903600Y-177419000D03*
X454253600Y-174879000D03*
X473379800Y-174879000D03*
X467029800Y-177419000D03*
D12*
X470839800Y-179959000D03*
D13*
X465759800Y-179959000D03*
X475919800Y-179959000D03*
X494982500Y-179933600D03*
X484822500Y-179933600D03*
D12*
X489902500Y-179933600D03*
D14*
X486092500Y-177393600D03*
X492442500Y-174853600D03*
D13*
X166217600Y-199021700D03*
X156057600Y-199021700D03*
D12*
X161137600Y-199021700D03*
D14*
X157327600Y-196481700D03*
X163677600Y-193941700D03*
D13*
X204304900Y-199021700D03*
X194144900Y-199021700D03*
D12*
X199224900Y-199021700D03*
D14*
X195414900Y-196481700D03*
X201764900Y-193941700D03*
X220789500Y-193941700D03*
X214439500Y-196481700D03*
D12*
X218249500Y-199021700D03*
D13*
X213169500Y-199021700D03*
X223329500Y-199021700D03*
D14*
X277914100Y-193941700D03*
X271564100Y-196481700D03*
D12*
X275374100Y-199021700D03*
D13*
X270294100Y-199021700D03*
X280454100Y-199021700D03*
X299643800Y-199021700D03*
X289483800Y-199021700D03*
D12*
X294563800Y-199021700D03*
D14*
X290753800Y-196481700D03*
X297103800Y-193941700D03*
X316064900Y-193941700D03*
X309714900Y-196481700D03*
D12*
X313524900Y-199021700D03*
D13*
X308444900Y-199021700D03*
X318604900Y-199021700D03*
X347116400Y-179908200D03*
X336956400Y-179908200D03*
D12*
X342036400Y-179908200D03*
D14*
X338226400Y-177368200D03*
X344576400Y-174828200D03*
D13*
X404202900Y-148958300D03*
X394042900Y-148958300D03*
D12*
X399122900Y-148958300D03*
D14*
X395312900Y-146418300D03*
X401662900Y-143878300D03*
X435229000Y-193941700D03*
X428879000Y-196481700D03*
D12*
X432689000Y-199021700D03*
D13*
X427609000Y-199021700D03*
X437769000Y-199021700D03*
X456844400Y-199009000D03*
X446684400Y-199009000D03*
D12*
X451764400Y-199009000D03*
D14*
X447954400Y-196469000D03*
X454304400Y-193929000D03*
X473417900Y-193967100D03*
X467067900Y-196507100D03*
D12*
X470877900Y-199047100D03*
D13*
X465797900Y-199047100D03*
X475957900Y-199047100D03*
X494995200Y-199047100D03*
X484835200Y-199047100D03*
D12*
X489915200Y-199047100D03*
D14*
X486105200Y-196507100D03*
X492455200Y-193967100D03*
D13*
X171145200Y-218046300D03*
X160985200Y-218046300D03*
D12*
X166065200Y-218046300D03*
D14*
X162255200Y-215506300D03*
X168605200Y-212966300D03*
D13*
X209219800Y-218071700D03*
X199059800Y-218071700D03*
D12*
X204139800Y-218071700D03*
D14*
X200329800Y-215531700D03*
X206679800Y-212991700D03*
D13*
X261378700Y-199021700D03*
X251218700Y-199021700D03*
D12*
X256298700Y-199021700D03*
D14*
X252488700Y-196481700D03*
X258838700Y-193941700D03*
X282829000Y-212979000D03*
X276479000Y-215519000D03*
D12*
X280289000Y-218059000D03*
D13*
X275209000Y-218059000D03*
X285369000Y-218059000D03*
X304419000Y-218097100D03*
X294259000Y-218097100D03*
D12*
X299339000Y-218097100D03*
D14*
X295529000Y-215557100D03*
X301879000Y-213017100D03*
X320941700Y-213004400D03*
X314591700Y-215544400D03*
D12*
X318401700Y-218084400D03*
D13*
X313321700Y-218084400D03*
X323481700Y-218084400D03*
X337680300Y-199021700D03*
X327520300Y-199021700D03*
D12*
X332600300Y-199021700D03*
D14*
X328790300Y-196481700D03*
X335140300Y-193941700D03*
X435267100Y-212953600D03*
X428917100Y-215493600D03*
D12*
X432727100Y-218033600D03*
D13*
X427647100Y-218033600D03*
X437807100Y-218033600D03*
X456857100Y-218033600D03*
X446697100Y-218033600D03*
D12*
X451777100Y-218033600D03*
D14*
X447967100Y-215493600D03*
X454317100Y-212953600D03*
X473405200Y-212991700D03*
X467055200Y-215531700D03*
D12*
X470865200Y-218071700D03*
D13*
X465785200Y-218071700D03*
X475945200Y-218071700D03*
X494995200Y-218071700D03*
X484835200Y-218071700D03*
D12*
X489915200Y-218071700D03*
D14*
X486105200Y-215531700D03*
X492455200Y-212991700D03*
D13*
X180606700Y-237109000D03*
X170446700Y-237109000D03*
D12*
X175526700Y-237109000D03*
D14*
X171716700Y-234569000D03*
X178066700Y-232029000D03*
X340004400Y-212991700D03*
X333654400Y-215531700D03*
D12*
X337464400Y-218071700D03*
D13*
X332384400Y-218071700D03*
X342544400Y-218071700D03*
X356743000Y-199021700D03*
X346583000Y-199021700D03*
D12*
X351663000Y-199021700D03*
D14*
X347853000Y-196481700D03*
X354203000Y-193941700D03*
D13*
X456857100Y-237070900D03*
X446697100Y-237070900D03*
D12*
X451777100Y-237070900D03*
D14*
X447967100Y-234530900D03*
X454317100Y-231990900D03*
X473354400Y-232003600D03*
X467004400Y-234543600D03*
D12*
X470814400Y-237083600D03*
D13*
X465734400Y-237083600D03*
X475894400Y-237083600D03*
M02*
