G04 #@! TF.GenerationSoftware,KiCad,Pcbnew,7.0.6*
G04 #@! TF.CreationDate,2023-09-01T19:36:20-04:00*
G04 #@! TF.ProjectId,C128SX-mx,43313238-5358-42d6-9d78-2e6b69636164,1.0*
G04 #@! TF.SameCoordinates,Original*
G04 #@! TF.FileFunction,Soldermask,Bot*
G04 #@! TF.FilePolarity,Negative*
%FSLAX46Y46*%
G04 Gerber Fmt 4.6, Leading zero omitted, Abs format (unit mm)*
G04 Created by KiCad (PCBNEW 7.0.6) date 2023-09-01 19:36:20*
%MOMM*%
%LPD*%
G01*
G04 APERTURE LIST*
G04 Aperture macros list*
%AMRoundRect*
0 Rectangle with rounded corners*
0 $1 Rounding radius*
0 $2 $3 $4 $5 $6 $7 $8 $9 X,Y pos of 4 corners*
0 Add a 4 corners polygon primitive as box body*
4,1,4,$2,$3,$4,$5,$6,$7,$8,$9,$2,$3,0*
0 Add four circle primitives for the rounded corners*
1,1,$1+$1,$2,$3*
1,1,$1+$1,$4,$5*
1,1,$1+$1,$6,$7*
1,1,$1+$1,$8,$9*
0 Add four rect primitives between the rounded corners*
20,1,$1+$1,$2,$3,$4,$5,0*
20,1,$1+$1,$4,$5,$6,$7,0*
20,1,$1+$1,$6,$7,$8,$9,0*
20,1,$1+$1,$8,$9,$2,$3,0*%
%AMFreePoly0*
4,1,19,0.550000,-0.750000,0.000000,-0.750000,0.000000,-0.744911,-0.071157,-0.744911,-0.207708,-0.704816,-0.327430,-0.627875,-0.420627,-0.520320,-0.479746,-0.390866,-0.500000,-0.250000,-0.500000,0.250000,-0.479746,0.390866,-0.420627,0.520320,-0.327430,0.627875,-0.207708,0.704816,-0.071157,0.744911,0.000000,0.744911,0.000000,0.750000,0.550000,0.750000,0.550000,-0.750000,0.550000,-0.750000,
$1*%
%AMFreePoly1*
4,1,19,0.000000,0.744911,0.071157,0.744911,0.207708,0.704816,0.327430,0.627875,0.420627,0.520320,0.479746,0.390866,0.500000,0.250000,0.500000,-0.250000,0.479746,-0.390866,0.420627,-0.520320,0.327430,-0.627875,0.207708,-0.704816,0.071157,-0.744911,0.000000,-0.744911,0.000000,-0.750000,-0.550000,-0.750000,-0.550000,0.750000,0.000000,0.750000,0.000000,0.744911,0.000000,0.744911,
$1*%
G04 Aperture macros list end*
%ADD10C,1.700000*%
%ADD11C,5.100000*%
%ADD12C,2.200000*%
%ADD13O,1.900000X2.450000*%
%ADD14O,2.450000X1.900000*%
%ADD15R,1.800000X1.800000*%
%ADD16C,1.800000*%
%ADD17C,3.050000*%
%ADD18C,4.000000*%
%ADD19C,5.250000*%
%ADD20C,2.500000*%
%ADD21C,1.400000*%
%ADD22O,1.400000X1.400000*%
%ADD23R,1.700000X1.700000*%
%ADD24O,1.700000X1.700000*%
%ADD25RoundRect,0.150000X-0.150000X0.825000X-0.150000X-0.825000X0.150000X-0.825000X0.150000X0.825000X0*%
%ADD26R,1.600000X1.600000*%
%ADD27O,1.600000X1.600000*%
%ADD28C,1.600000*%
%ADD29FreePoly0,0.000000*%
%ADD30R,1.000000X1.500000*%
%ADD31FreePoly1,0.000000*%
%ADD32RoundRect,0.150000X0.825000X0.150000X-0.825000X0.150000X-0.825000X-0.150000X0.825000X-0.150000X0*%
G04 #@! TA.AperFunction,Profile*
%ADD33C,0.050000*%
G04 #@! TD*
G04 APERTURE END LIST*
D10*
X29530000Y-98230000D03*
D11*
X34610000Y-98230000D03*
D10*
X39690000Y-98230000D03*
D12*
X37150000Y-93150000D03*
D13*
X39010000Y-93530000D03*
D12*
X30800000Y-95690000D03*
D14*
X32010000Y-92480000D03*
D10*
X29530000Y-117280000D03*
D11*
X34610000Y-117280000D03*
D10*
X39690000Y-117280000D03*
D12*
X37150000Y-112200000D03*
D13*
X39010000Y-112580000D03*
D12*
X30800000Y-114740000D03*
D14*
X32010000Y-111530000D03*
D10*
X34292500Y-79180000D03*
D11*
X39372500Y-79180000D03*
D10*
X44452500Y-79180000D03*
D12*
X41912500Y-74100000D03*
D13*
X43772500Y-74480000D03*
D12*
X35562500Y-76640000D03*
D14*
X36772500Y-73430000D03*
D15*
X47823000Y-137600000D03*
D16*
X45283000Y-137600000D03*
D10*
X53342500Y-117280000D03*
D11*
X58422500Y-117280000D03*
D10*
X63502500Y-117280000D03*
D12*
X60962500Y-112200000D03*
D13*
X62822500Y-112580000D03*
D12*
X54612500Y-114740000D03*
D14*
X55822500Y-111530000D03*
D10*
X277141900Y-60130000D03*
D11*
X282221900Y-60130000D03*
D10*
X287301900Y-60130000D03*
D12*
X284761900Y-55050000D03*
D13*
X286621900Y-55430000D03*
D12*
X278411900Y-57590000D03*
D14*
X279621900Y-54380000D03*
D17*
X298935000Y-91230000D03*
D18*
X298935000Y-106470000D03*
D10*
X305755000Y-98230000D03*
D11*
X310835000Y-98230000D03*
D10*
X315915000Y-98230000D03*
D17*
X322735000Y-91230000D03*
D18*
X322735000Y-106470000D03*
D12*
X313375000Y-93150000D03*
D13*
X315235000Y-93530000D03*
D12*
X307025000Y-95690000D03*
D14*
X308235000Y-92480000D03*
D10*
X181930000Y-60130000D03*
D11*
X187010000Y-60130000D03*
D10*
X192090000Y-60130000D03*
D12*
X189550000Y-55050000D03*
D13*
X191410000Y-55430000D03*
D12*
X183200000Y-57590000D03*
D14*
X184410000Y-54380000D03*
D10*
X162880000Y-60130000D03*
D11*
X167960000Y-60130000D03*
D10*
X173040000Y-60130000D03*
D12*
X170500000Y-55050000D03*
D13*
X172360000Y-55430000D03*
D12*
X164150000Y-57590000D03*
D14*
X165360000Y-54380000D03*
D10*
X200980000Y-60130000D03*
D11*
X206060000Y-60130000D03*
D10*
X211140000Y-60130000D03*
D12*
X208600000Y-55050000D03*
D13*
X210460000Y-55430000D03*
D12*
X202250000Y-57590000D03*
D14*
X203460000Y-54380000D03*
D10*
X124792700Y-60130000D03*
D11*
X129872700Y-60130000D03*
D10*
X134952700Y-60130000D03*
D12*
X132412700Y-55050000D03*
D13*
X134272700Y-55430000D03*
D12*
X126062700Y-57590000D03*
D14*
X127272700Y-54380000D03*
D10*
X86680000Y-60130000D03*
D11*
X91760000Y-60130000D03*
D10*
X96840000Y-60130000D03*
D12*
X94300000Y-55050000D03*
D13*
X96160000Y-55430000D03*
D12*
X87950000Y-57590000D03*
D14*
X89160000Y-54380000D03*
D10*
X58105000Y-79180000D03*
D11*
X63185000Y-79180000D03*
D10*
X68265000Y-79180000D03*
D12*
X65725000Y-74100000D03*
D13*
X67585000Y-74480000D03*
D12*
X59375000Y-76640000D03*
D14*
X60585000Y-73430000D03*
D10*
X105730000Y-60130000D03*
D11*
X110810000Y-60130000D03*
D10*
X115890000Y-60130000D03*
D12*
X113350000Y-55050000D03*
D13*
X115210000Y-55430000D03*
D12*
X107000000Y-57590000D03*
D14*
X108210000Y-54380000D03*
D10*
X220030000Y-60130000D03*
D11*
X225110000Y-60130000D03*
D10*
X230190000Y-60130000D03*
D12*
X227650000Y-55050000D03*
D13*
X229510000Y-55430000D03*
D12*
X221300000Y-57590000D03*
D14*
X222510000Y-54380000D03*
D10*
X48605400Y-60130000D03*
D11*
X53685400Y-60130000D03*
D10*
X58765400Y-60130000D03*
D12*
X56225400Y-55050000D03*
D13*
X58085400Y-55430000D03*
D12*
X49875400Y-57590000D03*
D14*
X51085400Y-54380000D03*
D10*
X296230000Y-117280000D03*
D11*
X301310000Y-117280000D03*
D10*
X306390000Y-117280000D03*
D12*
X303850000Y-112200000D03*
D13*
X305710000Y-112580000D03*
D12*
X297500000Y-114740000D03*
D14*
X298710000Y-111530000D03*
D10*
X67655400Y-60130000D03*
D11*
X72735400Y-60130000D03*
D10*
X77815400Y-60130000D03*
D12*
X75275400Y-55050000D03*
D13*
X77135400Y-55430000D03*
D12*
X68925400Y-57590000D03*
D14*
X70135400Y-54380000D03*
D10*
X191455000Y-117280000D03*
D11*
X196535000Y-117280000D03*
D10*
X201615000Y-117280000D03*
D12*
X199075000Y-112200000D03*
D13*
X200935000Y-112580000D03*
D12*
X192725000Y-114740000D03*
D14*
X193935000Y-111530000D03*
D10*
X77155000Y-79180000D03*
D11*
X82235000Y-79180000D03*
D10*
X87315000Y-79180000D03*
D12*
X84775000Y-74100000D03*
D13*
X86635000Y-74480000D03*
D12*
X78425000Y-76640000D03*
D14*
X79635000Y-73430000D03*
D10*
X124780000Y-98230000D03*
D11*
X129860000Y-98230000D03*
D10*
X134940000Y-98230000D03*
D12*
X132400000Y-93150000D03*
D13*
X134260000Y-93530000D03*
D12*
X126050000Y-95690000D03*
D14*
X127260000Y-92480000D03*
D10*
X134305000Y-79180000D03*
D11*
X139385000Y-79180000D03*
D10*
X144465000Y-79180000D03*
D12*
X141925000Y-74100000D03*
D13*
X143785000Y-74480000D03*
D12*
X135575000Y-76640000D03*
D14*
X136785000Y-73430000D03*
D10*
X143830000Y-98230000D03*
D11*
X148910000Y-98230000D03*
D10*
X153990000Y-98230000D03*
D12*
X151450000Y-93150000D03*
D13*
X153310000Y-93530000D03*
D12*
X145100000Y-95690000D03*
D14*
X146310000Y-92480000D03*
D10*
X277141900Y-98230000D03*
D11*
X282221900Y-98230000D03*
D10*
X287301900Y-98230000D03*
D12*
X284761900Y-93150000D03*
D13*
X286621900Y-93530000D03*
D12*
X278411900Y-95690000D03*
D14*
X279621900Y-92480000D03*
D10*
X296230000Y-60130000D03*
D11*
X301310000Y-60130000D03*
D10*
X306390000Y-60130000D03*
D12*
X303850000Y-55050000D03*
D13*
X305710000Y-55430000D03*
D12*
X297500000Y-57590000D03*
D14*
X298710000Y-54380000D03*
D10*
X210505000Y-117280000D03*
D11*
X215585000Y-117280000D03*
D10*
X220665000Y-117280000D03*
D12*
X218125000Y-112200000D03*
D13*
X219985000Y-112580000D03*
D12*
X211775000Y-114740000D03*
D14*
X212985000Y-111530000D03*
D10*
X162867300Y-98230000D03*
D11*
X167947300Y-98230000D03*
D10*
X173027300Y-98230000D03*
D12*
X170487300Y-93150000D03*
D13*
X172347300Y-93530000D03*
D12*
X164137300Y-95690000D03*
D14*
X165347300Y-92480000D03*
D10*
X239080000Y-98230000D03*
D11*
X244160000Y-98230000D03*
D10*
X249240000Y-98230000D03*
D12*
X246700000Y-93150000D03*
D13*
X248560000Y-93530000D03*
D12*
X240350000Y-95690000D03*
D14*
X241560000Y-92480000D03*
D10*
X248782800Y-79180000D03*
D11*
X253862800Y-79180000D03*
D10*
X258942800Y-79180000D03*
D12*
X256402800Y-74100000D03*
D13*
X258262800Y-74480000D03*
D12*
X250052800Y-76640000D03*
D14*
X251262800Y-73430000D03*
D10*
X77155000Y-117280000D03*
D11*
X82235000Y-117280000D03*
D10*
X87315000Y-117280000D03*
D12*
X84775000Y-112200000D03*
D13*
X86635000Y-112580000D03*
D12*
X78425000Y-114740000D03*
D14*
X79635000Y-111530000D03*
D10*
X58105000Y-41080000D03*
D11*
X63185000Y-41080000D03*
D10*
X68265000Y-41080000D03*
D12*
X65725000Y-36000000D03*
D13*
X67585000Y-36380000D03*
D12*
X59375000Y-38540000D03*
D14*
X60585000Y-35330000D03*
D10*
X172405000Y-41080000D03*
D11*
X177485000Y-41080000D03*
D10*
X182565000Y-41080000D03*
D12*
X180025000Y-36000000D03*
D13*
X181885000Y-36380000D03*
D12*
X173675000Y-38540000D03*
D14*
X174885000Y-35330000D03*
D10*
X134305000Y-41080000D03*
D11*
X139385000Y-41080000D03*
D10*
X144465000Y-41080000D03*
D12*
X141925000Y-36000000D03*
D13*
X143785000Y-36380000D03*
D12*
X135575000Y-38540000D03*
D14*
X136785000Y-35330000D03*
D10*
X96205000Y-41080000D03*
D11*
X101285000Y-41080000D03*
D10*
X106365000Y-41080000D03*
D12*
X103825000Y-36000000D03*
D13*
X105685000Y-36380000D03*
D12*
X97475000Y-38540000D03*
D14*
X98685000Y-35330000D03*
D10*
X258130000Y-98230000D03*
D11*
X263210000Y-98230000D03*
D10*
X268290000Y-98230000D03*
D12*
X265750000Y-93150000D03*
D13*
X267610000Y-93530000D03*
D12*
X259400000Y-95690000D03*
D14*
X260610000Y-92480000D03*
D10*
X315280000Y-60130000D03*
D11*
X320360000Y-60130000D03*
D10*
X325440000Y-60130000D03*
D12*
X322900000Y-55050000D03*
D13*
X324760000Y-55430000D03*
D12*
X316550000Y-57590000D03*
D14*
X317760000Y-54380000D03*
D10*
X143830000Y-60130000D03*
D11*
X148910000Y-60130000D03*
D10*
X153990000Y-60130000D03*
D12*
X151450000Y-55050000D03*
D13*
X153310000Y-55430000D03*
D12*
X145100000Y-57590000D03*
D14*
X146310000Y-54380000D03*
D10*
X191683600Y-79180000D03*
D11*
X196763600Y-79180000D03*
D10*
X201843600Y-79180000D03*
D12*
X199303600Y-74100000D03*
D13*
X201163600Y-74480000D03*
D12*
X192953600Y-76640000D03*
D14*
X194163600Y-73430000D03*
D10*
X105730000Y-98230000D03*
D11*
X110810000Y-98230000D03*
D10*
X115890000Y-98230000D03*
D12*
X113350000Y-93150000D03*
D13*
X115210000Y-93530000D03*
D12*
X107000000Y-95690000D03*
D14*
X108210000Y-92480000D03*
D10*
X229720100Y-79180000D03*
D11*
X234800100Y-79180000D03*
D10*
X239880100Y-79180000D03*
D12*
X237340100Y-74100000D03*
D13*
X239200100Y-74480000D03*
D12*
X230990100Y-76640000D03*
D14*
X232200100Y-73430000D03*
D10*
X220030000Y-98230000D03*
D11*
X225110000Y-98230000D03*
D10*
X230190000Y-98230000D03*
D12*
X227650000Y-93150000D03*
D13*
X229510000Y-93530000D03*
D12*
X221300000Y-95690000D03*
D14*
X222510000Y-92480000D03*
D10*
X153418500Y-79180000D03*
D11*
X158498500Y-79180000D03*
D10*
X163578500Y-79180000D03*
D12*
X161038500Y-74100000D03*
D13*
X162898500Y-74480000D03*
D12*
X154688500Y-76640000D03*
D14*
X155898500Y-73430000D03*
D10*
X210644700Y-79180000D03*
D11*
X215724700Y-79180000D03*
D10*
X220804700Y-79180000D03*
D12*
X218264700Y-74100000D03*
D13*
X220124700Y-74480000D03*
D12*
X211914700Y-76640000D03*
D14*
X213124700Y-73430000D03*
D10*
X258117300Y-60130000D03*
D11*
X263197300Y-60130000D03*
D10*
X268277300Y-60130000D03*
D12*
X265737300Y-55050000D03*
D13*
X267597300Y-55430000D03*
D12*
X259387300Y-57590000D03*
D14*
X260597300Y-54380000D03*
D10*
X172493900Y-79180000D03*
D11*
X177573900Y-79180000D03*
D10*
X182653900Y-79180000D03*
D12*
X180113900Y-74100000D03*
D13*
X181973900Y-74480000D03*
D12*
X173763900Y-76640000D03*
D14*
X174973900Y-73430000D03*
D10*
X67630000Y-98230000D03*
D11*
X72710000Y-98230000D03*
D10*
X77790000Y-98230000D03*
D12*
X75250000Y-93150000D03*
D13*
X77110000Y-93530000D03*
D12*
X68900000Y-95690000D03*
D14*
X70110000Y-92480000D03*
D10*
X115255000Y-79180000D03*
D11*
X120335000Y-79180000D03*
D10*
X125415000Y-79180000D03*
D12*
X122875000Y-74100000D03*
D13*
X124735000Y-74480000D03*
D12*
X116525000Y-76640000D03*
D14*
X117735000Y-73430000D03*
D10*
X96205000Y-79180000D03*
D11*
X101285000Y-79180000D03*
D10*
X106365000Y-79180000D03*
D12*
X103825000Y-74100000D03*
D13*
X105685000Y-74480000D03*
D12*
X97475000Y-76640000D03*
D14*
X98685000Y-73430000D03*
D10*
X200967300Y-98230000D03*
D11*
X206047300Y-98230000D03*
D10*
X211127300Y-98230000D03*
D12*
X208587300Y-93150000D03*
D13*
X210447300Y-93530000D03*
D12*
X202237300Y-95690000D03*
D14*
X203447300Y-92480000D03*
D10*
X181917300Y-98230000D03*
D11*
X186997300Y-98230000D03*
D10*
X192077300Y-98230000D03*
D12*
X189537300Y-93150000D03*
D13*
X191397300Y-93530000D03*
D12*
X183187300Y-95690000D03*
D14*
X184397300Y-92480000D03*
D10*
X239080000Y-60130000D03*
D11*
X244160000Y-60130000D03*
D10*
X249240000Y-60130000D03*
D12*
X246700000Y-55050000D03*
D13*
X248560000Y-55430000D03*
D12*
X240350000Y-57590000D03*
D14*
X241560000Y-54380000D03*
D10*
X115255000Y-117280000D03*
D11*
X120335000Y-117280000D03*
D10*
X125415000Y-117280000D03*
D12*
X122875000Y-112200000D03*
D13*
X124735000Y-112580000D03*
D12*
X116525000Y-114740000D03*
D14*
X117735000Y-111530000D03*
D10*
X96205000Y-117280000D03*
D11*
X101285000Y-117280000D03*
D10*
X106365000Y-117280000D03*
D12*
X103825000Y-112200000D03*
D13*
X105685000Y-112580000D03*
D12*
X97475000Y-114740000D03*
D14*
X98685000Y-111530000D03*
D10*
X229555000Y-117280000D03*
D11*
X234635000Y-117280000D03*
D10*
X239715000Y-117280000D03*
D12*
X237175000Y-112200000D03*
D13*
X239035000Y-112580000D03*
D12*
X230825000Y-114740000D03*
D14*
X232035000Y-111530000D03*
D10*
X172405000Y-117280000D03*
D11*
X177485000Y-117280000D03*
D10*
X182565000Y-117280000D03*
D12*
X180025000Y-112200000D03*
D13*
X181885000Y-112580000D03*
D12*
X173675000Y-114740000D03*
D14*
X174885000Y-111530000D03*
D10*
X86680000Y-98230000D03*
D11*
X91760000Y-98230000D03*
D10*
X96840000Y-98230000D03*
D12*
X94300000Y-93150000D03*
D13*
X96160000Y-93530000D03*
D12*
X87950000Y-95690000D03*
D14*
X89160000Y-92480000D03*
D10*
X248605000Y-117280000D03*
D11*
X253685000Y-117280000D03*
D10*
X258765000Y-117280000D03*
D12*
X256225000Y-112200000D03*
D13*
X258085000Y-112580000D03*
D12*
X249875000Y-114740000D03*
D14*
X251085000Y-111530000D03*
D10*
X134305000Y-117280000D03*
D11*
X139385000Y-117280000D03*
D10*
X144465000Y-117280000D03*
D12*
X141925000Y-112200000D03*
D13*
X143785000Y-112580000D03*
D12*
X135575000Y-114740000D03*
D14*
X136785000Y-111530000D03*
D10*
X153355000Y-117280000D03*
D11*
X158435000Y-117280000D03*
D10*
X163515000Y-117280000D03*
D12*
X160975000Y-112200000D03*
D13*
X162835000Y-112580000D03*
D12*
X154625000Y-114740000D03*
D14*
X155835000Y-111530000D03*
D10*
X267743900Y-79180000D03*
D11*
X272823900Y-79180000D03*
D10*
X277903900Y-79180000D03*
D12*
X275363900Y-74100000D03*
D13*
X277223900Y-74480000D03*
D12*
X269013900Y-76640000D03*
D14*
X270223900Y-73430000D03*
D10*
X296242700Y-136330000D03*
D11*
X301322700Y-136330000D03*
D10*
X306402700Y-136330000D03*
D12*
X303862700Y-131250000D03*
D13*
X305722700Y-131630000D03*
D12*
X297512700Y-133790000D03*
D14*
X298722700Y-130580000D03*
D10*
X315241900Y-136330000D03*
D11*
X320321900Y-136330000D03*
D10*
X325401900Y-136330000D03*
D12*
X322861900Y-131250000D03*
D13*
X324721900Y-131630000D03*
D12*
X316511900Y-133790000D03*
D14*
X317721900Y-130580000D03*
D10*
X272417500Y-117280000D03*
D11*
X277497500Y-117280000D03*
D10*
X282577500Y-117280000D03*
D12*
X280037500Y-112200000D03*
D13*
X281897500Y-112580000D03*
D12*
X273687500Y-114740000D03*
D14*
X274897500Y-111530000D03*
D10*
X277180000Y-136330000D03*
D11*
X282260000Y-136330000D03*
D10*
X287340000Y-136330000D03*
D12*
X284800000Y-131250000D03*
D13*
X286660000Y-131630000D03*
D12*
X278450000Y-133790000D03*
D14*
X279660000Y-130580000D03*
D15*
X56775000Y-137625000D03*
D16*
X59315000Y-137625000D03*
D17*
X128485000Y-129330000D03*
D18*
X128485000Y-144570000D03*
D10*
X172405000Y-136330000D03*
D19*
X177485000Y-136330000D03*
D10*
X182565000Y-136330000D03*
D17*
X226485000Y-129330000D03*
D18*
X226485000Y-144570000D03*
D12*
X180025000Y-131250000D03*
D20*
X181885000Y-131630000D03*
D12*
X173675000Y-133790000D03*
D20*
X174885000Y-130580000D03*
D10*
X348617500Y-60223300D03*
D11*
X353697500Y-60223300D03*
D10*
X358777500Y-60223300D03*
D12*
X356237500Y-55143300D03*
D13*
X358097500Y-55523300D03*
D12*
X349887500Y-57683300D03*
D14*
X351097500Y-54473300D03*
D10*
X181930000Y-31555000D03*
D11*
X187010000Y-31555000D03*
D10*
X192090000Y-31555000D03*
D12*
X189550000Y-26475000D03*
D13*
X191410000Y-26855000D03*
D12*
X183200000Y-29015000D03*
D14*
X184410000Y-25805000D03*
D10*
X48580000Y-98230000D03*
D11*
X53660000Y-98230000D03*
D10*
X58740000Y-98230000D03*
D12*
X56200000Y-93150000D03*
D13*
X58060000Y-93530000D03*
D12*
X49850000Y-95690000D03*
D14*
X51060000Y-92480000D03*
D10*
X358777500Y-98200000D03*
D11*
X353697500Y-98200000D03*
D10*
X348617500Y-98200000D03*
D12*
X351157500Y-103280000D03*
D13*
X349297500Y-102900000D03*
D12*
X357507500Y-100740000D03*
D14*
X356297500Y-103950000D03*
D10*
X268290000Y-31555000D03*
D11*
X263210000Y-31555000D03*
D10*
X258130000Y-31555000D03*
D12*
X260670000Y-36635000D03*
D13*
X258810000Y-36255000D03*
D12*
X267020000Y-34095000D03*
D14*
X265810000Y-37305000D03*
D10*
X29530000Y-60130000D03*
D11*
X34610000Y-60130000D03*
D10*
X39690000Y-60130000D03*
D12*
X37150000Y-55050000D03*
D13*
X39010000Y-55430000D03*
D12*
X30800000Y-57590000D03*
D14*
X32010000Y-54380000D03*
D10*
X367667500Y-60170000D03*
D11*
X372747500Y-60170000D03*
D10*
X377827500Y-60170000D03*
D12*
X375287500Y-55090000D03*
D13*
X377147500Y-55470000D03*
D12*
X368937500Y-57630000D03*
D14*
X370147500Y-54420000D03*
D10*
X86680000Y-31555000D03*
D11*
X91760000Y-31555000D03*
D10*
X96840000Y-31555000D03*
D12*
X94300000Y-26475000D03*
D13*
X96160000Y-26855000D03*
D12*
X87950000Y-29015000D03*
D14*
X89160000Y-25805000D03*
D15*
X54975000Y-106100000D03*
D16*
X52435000Y-106100000D03*
D10*
X306390000Y-31555000D03*
D11*
X301310000Y-31555000D03*
D10*
X296230000Y-31555000D03*
D12*
X298770000Y-36635000D03*
D13*
X296910000Y-36255000D03*
D12*
X305120000Y-34095000D03*
D14*
X303910000Y-37305000D03*
D15*
X185775000Y-40500000D03*
D16*
X188315000Y-40500000D03*
D10*
X348617500Y-98200000D03*
D11*
X353697500Y-98200000D03*
D10*
X358777500Y-98200000D03*
D12*
X356237500Y-93120000D03*
D13*
X358097500Y-93500000D03*
D12*
X349887500Y-95660000D03*
D14*
X351097500Y-92450000D03*
D10*
X358750500Y-79273300D03*
D11*
X353670500Y-79273300D03*
D10*
X348590500Y-79273300D03*
D12*
X351130500Y-84353300D03*
D13*
X349270500Y-83973300D03*
D12*
X357480500Y-81813300D03*
D14*
X356270500Y-85023300D03*
D10*
X287340000Y-31555000D03*
D11*
X282260000Y-31555000D03*
D10*
X277180000Y-31555000D03*
D12*
X279720000Y-36635000D03*
D13*
X277860000Y-36255000D03*
D12*
X286070000Y-34095000D03*
D14*
X284860000Y-37305000D03*
D10*
X367667500Y-98200000D03*
D11*
X372747500Y-98200000D03*
D10*
X377827500Y-98200000D03*
D12*
X375287500Y-93120000D03*
D13*
X377147500Y-93500000D03*
D12*
X368937500Y-95660000D03*
D14*
X370147500Y-92450000D03*
D10*
X143830000Y-31555000D03*
D11*
X148910000Y-31555000D03*
D10*
X153990000Y-31555000D03*
D12*
X151450000Y-26475000D03*
D13*
X153310000Y-26855000D03*
D12*
X145100000Y-29015000D03*
D14*
X146310000Y-25805000D03*
D10*
X386717500Y-60130000D03*
D11*
X391797500Y-60130000D03*
D10*
X396877500Y-60130000D03*
D12*
X394337500Y-55050000D03*
D13*
X396197500Y-55430000D03*
D12*
X387987500Y-57590000D03*
D14*
X389197500Y-54380000D03*
D10*
X405767500Y-31555000D03*
D11*
X410847500Y-31555000D03*
D10*
X415927500Y-31555000D03*
D12*
X413387500Y-26475000D03*
D13*
X415247500Y-26855000D03*
D12*
X407037500Y-29015000D03*
D14*
X408247500Y-25805000D03*
D10*
X100967500Y-136330000D03*
D11*
X106047500Y-136330000D03*
D10*
X111127500Y-136330000D03*
D12*
X108587500Y-131250000D03*
D13*
X110447500Y-131630000D03*
D12*
X102237500Y-133790000D03*
D14*
X103447500Y-130580000D03*
D10*
X315280000Y-31555000D03*
D11*
X320360000Y-31555000D03*
D10*
X325440000Y-31555000D03*
D12*
X322900000Y-26475000D03*
D13*
X324760000Y-26855000D03*
D12*
X316550000Y-29015000D03*
D14*
X317760000Y-25805000D03*
D10*
X315280000Y-117280000D03*
D11*
X320360000Y-117280000D03*
D10*
X325440000Y-117280000D03*
D12*
X322900000Y-112200000D03*
D13*
X324760000Y-112580000D03*
D12*
X316550000Y-114740000D03*
D14*
X317760000Y-111530000D03*
D10*
X386717500Y-117270000D03*
D11*
X391797500Y-117270000D03*
D10*
X396877500Y-117270000D03*
D12*
X394337500Y-112190000D03*
D13*
X396197500Y-112570000D03*
D12*
X387987500Y-114730000D03*
D14*
X389197500Y-111520000D03*
D10*
X286793900Y-79180000D03*
D11*
X291873900Y-79180000D03*
D10*
X296953900Y-79180000D03*
D12*
X294413900Y-74100000D03*
D13*
X296273900Y-74480000D03*
D12*
X288063900Y-76640000D03*
D14*
X289273900Y-73430000D03*
D10*
X162880000Y-31555000D03*
D11*
X167960000Y-31555000D03*
D10*
X173040000Y-31555000D03*
D12*
X170500000Y-26475000D03*
D13*
X172360000Y-26855000D03*
D12*
X164150000Y-29015000D03*
D14*
X165360000Y-25805000D03*
D10*
X296230000Y-31555000D03*
D11*
X301310000Y-31555000D03*
D10*
X306390000Y-31555000D03*
D12*
X303850000Y-26475000D03*
D13*
X305710000Y-26855000D03*
D12*
X297500000Y-29015000D03*
D14*
X298710000Y-25805000D03*
D10*
X310581000Y-79180000D03*
D11*
X315661000Y-79180000D03*
D10*
X320741000Y-79180000D03*
D12*
X318201000Y-74100000D03*
D13*
X320061000Y-74480000D03*
D12*
X311851000Y-76640000D03*
D14*
X313061000Y-73430000D03*
D10*
X277180000Y-31555000D03*
D11*
X282260000Y-31555000D03*
D10*
X287340000Y-31555000D03*
D12*
X284800000Y-26475000D03*
D13*
X286660000Y-26855000D03*
D12*
X278450000Y-29015000D03*
D14*
X279660000Y-25805000D03*
D10*
X386717500Y-79180000D03*
D11*
X391797500Y-79180000D03*
D10*
X396877500Y-79180000D03*
D12*
X394337500Y-74100000D03*
D13*
X396197500Y-74480000D03*
D12*
X387987500Y-76640000D03*
D14*
X389197500Y-73430000D03*
D10*
X258130000Y-31555000D03*
D11*
X263210000Y-31555000D03*
D10*
X268290000Y-31555000D03*
D12*
X265750000Y-26475000D03*
D13*
X267610000Y-26855000D03*
D12*
X259400000Y-29015000D03*
D14*
X260610000Y-25805000D03*
D10*
X348617500Y-31555000D03*
D11*
X353697500Y-31555000D03*
D10*
X358777500Y-31555000D03*
D12*
X356237500Y-26475000D03*
D13*
X358097500Y-26855000D03*
D12*
X349887500Y-29015000D03*
D14*
X351097500Y-25805000D03*
D10*
X48580000Y-31555000D03*
D11*
X53660000Y-31555000D03*
D10*
X58740000Y-31555000D03*
D12*
X56200000Y-26475000D03*
D13*
X58060000Y-26855000D03*
D12*
X49850000Y-29015000D03*
D14*
X51060000Y-25805000D03*
D10*
X348590500Y-79273300D03*
D11*
X353670500Y-79273300D03*
D10*
X358750500Y-79273300D03*
D12*
X356210500Y-74193300D03*
D13*
X358070500Y-74573300D03*
D12*
X349860500Y-76733300D03*
D14*
X351070500Y-73523300D03*
D10*
X367667500Y-31555000D03*
D11*
X372747500Y-31555000D03*
D10*
X377827500Y-31555000D03*
D12*
X375287500Y-26475000D03*
D13*
X377147500Y-26855000D03*
D12*
X368937500Y-29015000D03*
D14*
X370147500Y-25805000D03*
D10*
X325440000Y-31555000D03*
D11*
X320360000Y-31555000D03*
D10*
X315280000Y-31555000D03*
D12*
X317820000Y-36635000D03*
D13*
X315960000Y-36255000D03*
D12*
X324170000Y-34095000D03*
D14*
X322960000Y-37305000D03*
D10*
X358779900Y-117244200D03*
D11*
X353699900Y-117244200D03*
D10*
X348619900Y-117244200D03*
D12*
X351159900Y-122324200D03*
D13*
X349299900Y-121944200D03*
D12*
X357509900Y-119784200D03*
D14*
X356299900Y-122994200D03*
D10*
X367667500Y-79273300D03*
D11*
X372747500Y-79273300D03*
D10*
X377827500Y-79273300D03*
D12*
X375287500Y-74193300D03*
D13*
X377147500Y-74573300D03*
D12*
X368937500Y-76733300D03*
D14*
X370147500Y-73523300D03*
D10*
X29530000Y-31555000D03*
D11*
X34610000Y-31555000D03*
D10*
X39690000Y-31555000D03*
D12*
X37150000Y-26475000D03*
D13*
X39010000Y-26855000D03*
D12*
X30800000Y-29015000D03*
D14*
X32010000Y-25805000D03*
D10*
X386717500Y-98210000D03*
D11*
X391797500Y-98210000D03*
D10*
X396877500Y-98210000D03*
D12*
X394337500Y-93130000D03*
D13*
X396197500Y-93510000D03*
D12*
X387987500Y-95670000D03*
D14*
X389197500Y-92460000D03*
D10*
X67630000Y-31555000D03*
D11*
X72710000Y-31555000D03*
D10*
X77790000Y-31555000D03*
D12*
X75250000Y-26475000D03*
D13*
X77110000Y-26855000D03*
D12*
X68900000Y-29015000D03*
D14*
X70110000Y-25805000D03*
D10*
X358142500Y-117244900D03*
D11*
X363222500Y-117244900D03*
D10*
X368302500Y-117244900D03*
D12*
X365762500Y-112164900D03*
D13*
X367622500Y-112544900D03*
D12*
X359412500Y-114704900D03*
D14*
X360622500Y-111494900D03*
D10*
X200980000Y-31555000D03*
D11*
X206060000Y-31555000D03*
D10*
X211140000Y-31555000D03*
D12*
X208600000Y-26475000D03*
D13*
X210460000Y-26855000D03*
D12*
X202250000Y-29015000D03*
D14*
X203460000Y-25805000D03*
D10*
X358777500Y-60223300D03*
D11*
X353697500Y-60223300D03*
D10*
X348617500Y-60223300D03*
D12*
X351157500Y-65303300D03*
D13*
X349297500Y-64923300D03*
D12*
X357507500Y-62763300D03*
D14*
X356297500Y-65973300D03*
D10*
X243842500Y-136330000D03*
D11*
X248922500Y-136330000D03*
D10*
X254002500Y-136330000D03*
D12*
X251462500Y-131250000D03*
D13*
X253322500Y-131630000D03*
D12*
X245112500Y-133790000D03*
D14*
X246322500Y-130580000D03*
D17*
X403847500Y-95948300D03*
X403847500Y-119748300D03*
D10*
X405767500Y-107848300D03*
D11*
X410847500Y-107848300D03*
D10*
X415927500Y-107848300D03*
D18*
X419087500Y-95948300D03*
X419087500Y-119748300D03*
D12*
X413387500Y-102768300D03*
D13*
X415247500Y-103148300D03*
D12*
X407037500Y-105308300D03*
D14*
X408247500Y-102098300D03*
D10*
X405767500Y-60130000D03*
D11*
X410847500Y-60130000D03*
D10*
X415927500Y-60130000D03*
D12*
X413387500Y-55050000D03*
D13*
X415247500Y-55430000D03*
D12*
X407037500Y-57590000D03*
D14*
X408247500Y-54380000D03*
D15*
X90810000Y-40450000D03*
D16*
X93350000Y-40450000D03*
D10*
X405767500Y-79273300D03*
D11*
X410847500Y-79273300D03*
D10*
X415927500Y-79273300D03*
D12*
X413387500Y-74193300D03*
D13*
X415247500Y-74573300D03*
D12*
X407037500Y-76733300D03*
D14*
X408247500Y-73523300D03*
D10*
X386717500Y-31555000D03*
D11*
X391797500Y-31555000D03*
D10*
X396877500Y-31555000D03*
D12*
X394337500Y-26475000D03*
D13*
X396197500Y-26855000D03*
D12*
X387987500Y-29015000D03*
D14*
X389197500Y-25805000D03*
D21*
X70650000Y-135450000D03*
D22*
X63030000Y-135450000D03*
D23*
X333550000Y-49925000D03*
D24*
X333550000Y-47385000D03*
D23*
X105974900Y-29419200D03*
D24*
X108514900Y-29419200D03*
X111054900Y-29419200D03*
X113594900Y-29419200D03*
X116134900Y-29419200D03*
X118674900Y-29419200D03*
X121214900Y-29419200D03*
X123754900Y-29419200D03*
X126294900Y-29419200D03*
X128834900Y-29419200D03*
X131374900Y-29419200D03*
X133914900Y-29419200D03*
X136454900Y-29419200D03*
D23*
X105959901Y-45194200D03*
D24*
X108499901Y-45194200D03*
X111039901Y-45194200D03*
X113579901Y-45194200D03*
X116119901Y-45194200D03*
X118659901Y-45194200D03*
X121199901Y-45194200D03*
X123739901Y-45194200D03*
X126279901Y-45194200D03*
X128819901Y-45194200D03*
X131359901Y-45194200D03*
X133899901Y-45194200D03*
X136439901Y-45194200D03*
D25*
X40150000Y-46700000D03*
X41420000Y-46700000D03*
X42690000Y-46700000D03*
X43960000Y-46700000D03*
X45230000Y-46700000D03*
X46500000Y-46700000D03*
X47770000Y-46700000D03*
X47770000Y-51650000D03*
X46500000Y-51650000D03*
X45230000Y-51650000D03*
X43960000Y-51650000D03*
X42690000Y-51650000D03*
X41420000Y-51650000D03*
X40150000Y-51650000D03*
D26*
X24810000Y-43300000D03*
D27*
X27350000Y-43300000D03*
X29890000Y-43300000D03*
X32430000Y-43300000D03*
X34970000Y-43300000D03*
D23*
X333575000Y-122200000D03*
D24*
X333575000Y-124740000D03*
D23*
X339375000Y-56325000D03*
D24*
X339375000Y-58865000D03*
X339375000Y-61405000D03*
X339375000Y-63945000D03*
X339375000Y-66485000D03*
X339375000Y-69025000D03*
X339375000Y-71565000D03*
X339375000Y-74105000D03*
X339375000Y-76645000D03*
X339375000Y-79185000D03*
X339375000Y-81725000D03*
X339375000Y-84265000D03*
X339375000Y-86805000D03*
X339375000Y-89345000D03*
X339375000Y-91885000D03*
X339375000Y-94425000D03*
X339375000Y-96965000D03*
X339375000Y-99505000D03*
X339375000Y-102045000D03*
X339375000Y-104585000D03*
X339375000Y-107125000D03*
X339375000Y-109665000D03*
X339375000Y-112205000D03*
X339375000Y-114745000D03*
X339375000Y-117285000D03*
D28*
X22145000Y-46475000D03*
X22145000Y-51475000D03*
D29*
X267850000Y-141875000D03*
D30*
X269150000Y-141875000D03*
D31*
X270450000Y-141875000D03*
D23*
X343649900Y-33394200D03*
D24*
X343649900Y-30854200D03*
X343649900Y-28314200D03*
X343649900Y-25774200D03*
X343649900Y-23234200D03*
D28*
X219699900Y-29094200D03*
X219699900Y-34094200D03*
D26*
X40185000Y-43325000D03*
D27*
X42725000Y-43325000D03*
X45265000Y-43325000D03*
X47805000Y-43325000D03*
X50345000Y-43325000D03*
D23*
X333550000Y-56300000D03*
D24*
X333550000Y-58840000D03*
X333550000Y-61380000D03*
X333550000Y-63920000D03*
X333550000Y-66460000D03*
X333550000Y-69000000D03*
X333550000Y-71540000D03*
X333550000Y-74080000D03*
X333550000Y-76620000D03*
X333550000Y-79160000D03*
X333550000Y-81700000D03*
X333550000Y-84240000D03*
X333550000Y-86780000D03*
X333550000Y-89320000D03*
X333550000Y-91860000D03*
X333550000Y-94400000D03*
X333550000Y-96940000D03*
X333550000Y-99480000D03*
X333550000Y-102020000D03*
X333550000Y-104560000D03*
X333550000Y-107100000D03*
X333550000Y-109640000D03*
X333550000Y-112180000D03*
X333550000Y-114720000D03*
X333550000Y-117260000D03*
D21*
X70675000Y-137600000D03*
D22*
X63055000Y-137600000D03*
D25*
X24725000Y-46500000D03*
X25995000Y-46500000D03*
X27265000Y-46500000D03*
X28535000Y-46500000D03*
X29805000Y-46500000D03*
X31075000Y-46500000D03*
X32345000Y-46500000D03*
X32345000Y-51450000D03*
X31075000Y-51450000D03*
X29805000Y-51450000D03*
X28535000Y-51450000D03*
X27265000Y-51450000D03*
X25995000Y-51450000D03*
X24725000Y-51450000D03*
D28*
X105549900Y-26469200D03*
X100549900Y-26469200D03*
X37745000Y-46625000D03*
X37745000Y-51625000D03*
X244249900Y-29094200D03*
X244249900Y-34094200D03*
X257774469Y-141650698D03*
X262774469Y-141650698D03*
D32*
X264524569Y-130081498D03*
X264524569Y-131351498D03*
X264524569Y-132621498D03*
X264524569Y-133891498D03*
X264524569Y-135161498D03*
X264524569Y-136431498D03*
X264524569Y-137701498D03*
X259574569Y-137701498D03*
X259574569Y-136431498D03*
X259574569Y-135161498D03*
X259574569Y-133891498D03*
X259574569Y-132621498D03*
X259574569Y-131351498D03*
X259574569Y-130081498D03*
D18*
X278158000Y-44740000D03*
X325258000Y-44740000D03*
D26*
X318328000Y-46160000D03*
D28*
X315558000Y-46160000D03*
X312788000Y-46160000D03*
X310018000Y-46160000D03*
X307248000Y-46160000D03*
X304478000Y-46160000D03*
X301708000Y-46160000D03*
X298938000Y-46160000D03*
X296168000Y-46160000D03*
X293398000Y-46160000D03*
X290628000Y-46160000D03*
X287858000Y-46160000D03*
X285088000Y-46160000D03*
X316943000Y-43320000D03*
X314173000Y-43320000D03*
X311403000Y-43320000D03*
X308633000Y-43320000D03*
X305863000Y-43320000D03*
X303093000Y-43320000D03*
X300323000Y-43320000D03*
X297553000Y-43320000D03*
X294783000Y-43320000D03*
X292013000Y-43320000D03*
X289243000Y-43320000D03*
X286473000Y-43320000D03*
D23*
X25375000Y-62575000D03*
D24*
X25375000Y-65115000D03*
X25375000Y-67655000D03*
D33*
X337450312Y-14950000D02*
G75*
G03*
X337450312Y-14950000I-1000312J0D01*
G01*
X337475312Y-17950000D02*
G75*
G03*
X337475312Y-17950000I-1000312J0D01*
G01*
X64675000Y-145850000D02*
G75*
G03*
X64675000Y-145850000I-1300000J0D01*
G01*
X23575000Y-145875000D02*
G75*
G03*
X23575000Y-145875000I-1300000J0D01*
G01*
X412150000Y-141175000D02*
G75*
G03*
X412150000Y-141175000I-1300000J0D01*
G01*
X159775000Y-14975000D02*
G75*
G03*
X159775000Y-14975000I-1300000J0D01*
G01*
X35875000Y-141275000D02*
G75*
G03*
X35875000Y-141275000I-1300000J0D01*
G01*
X54950000Y-15000000D02*
G75*
G03*
X54950000Y-15000000I-1300000J0D01*
G01*
X268900000Y-15150000D02*
G75*
G03*
X268900000Y-15150000I-1300000J0D01*
G01*
X393125000Y-15025000D02*
G75*
G03*
X393125000Y-15025000I-1300000J0D01*
G01*
X237326921Y-38924999D02*
X231201921Y-38924999D01*
X337500312Y-98225000D02*
G75*
G03*
X337500312Y-98225000I-1000312J0D01*
G01*
X262228841Y-38925000D02*
G75*
G03*
X262228841Y-40925000I-41J-1000000D01*
G01*
X373800000Y-65200000D02*
X373800000Y-71325000D01*
X168450000Y-38775000D02*
X147450000Y-38775000D01*
X375800000Y-90075000D02*
X375800000Y-83950000D01*
X337500000Y-55025000D02*
X337500000Y-42425001D01*
X231201921Y-38925000D02*
G75*
G03*
X231201921Y-40925000I-21J-1000000D01*
G01*
X401687500Y-38825000D02*
X395562500Y-38825000D01*
X355825000Y-38774999D02*
G75*
G03*
X355825000Y-40775001I0J-1000001D01*
G01*
X55150000Y-38949999D02*
X49025000Y-38949999D01*
X395562500Y-38824999D02*
G75*
G03*
X395562500Y-40825001I0J-1000001D01*
G01*
X60550000Y-142275001D02*
X66675000Y-142275001D01*
X313940376Y-40925000D02*
X320065376Y-40925000D01*
X272571148Y-38925000D02*
G75*
G03*
X272571148Y-40925000I-48J-1000000D01*
G01*
X413625000Y-40875001D02*
X419750000Y-40875001D01*
X226800000Y-15000000D02*
G75*
G03*
X226800000Y-15000000I-1300000J0D01*
G01*
X50575000Y-142250001D02*
X56700000Y-142250001D01*
X216642307Y-40925001D02*
G75*
G03*
X216642307Y-38924999I-7J1000001D01*
G01*
X361950000Y-38775000D02*
X355825000Y-38775000D01*
X404593750Y-40850001D02*
X410718750Y-40850001D01*
X380325000Y-145825000D02*
G75*
G03*
X380325000Y-145825000I-1300000J0D01*
G01*
X196800000Y-38900000D02*
X190675000Y-38900000D01*
X333025000Y-133625000D02*
G75*
G03*
X333025000Y-133625000I-1300000J0D01*
G01*
X330407683Y-40925001D02*
G75*
G03*
X330407683Y-38924999I17J1000001D01*
G01*
X115850212Y-39769200D02*
G75*
G03*
X115850212Y-39769200I-1000312J0D01*
G01*
X375800000Y-44700000D02*
G75*
G03*
X373800000Y-44700000I-1000000J0D01*
G01*
X337500312Y-65225000D02*
G75*
G03*
X337500312Y-65225000I-1000312J0D01*
G01*
X71250000Y-40744201D02*
X87650000Y-40744200D01*
X342350000Y-14950000D02*
G75*
G03*
X342350000Y-14950000I-1300000J0D01*
G01*
X335500000Y-36875000D02*
G75*
G03*
X337500000Y-36875000I1000000J0D01*
G01*
X335500000Y-124625000D02*
G75*
G03*
X337500000Y-124625000I1000000J0D01*
G01*
X190675000Y-40900001D02*
X196800000Y-40900001D01*
X120925212Y-39769200D02*
G75*
G03*
X120925212Y-39769200I-1000312J0D01*
G01*
X375800000Y-122700000D02*
G75*
G03*
X373800000Y-122700000I-1000000J0D01*
G01*
X210517307Y-38925000D02*
G75*
G03*
X210517307Y-40925000I-7J-1000000D01*
G01*
X375800000Y-65200000D02*
G75*
G03*
X373800000Y-65200000I-1000000J0D01*
G01*
X337500000Y-118500000D02*
G75*
G03*
X335500000Y-118500000I-1000000J0D01*
G01*
X330407683Y-38924999D02*
X324282683Y-38924999D01*
X190675000Y-38899999D02*
G75*
G03*
X190675000Y-40900001I0J-1000001D01*
G01*
X335500000Y-20975000D02*
X335500000Y-27100000D01*
X373800000Y-131625000D02*
X373800000Y-137750000D01*
X268353841Y-40925001D02*
G75*
G03*
X268353841Y-38924999I-41J1000001D01*
G01*
X45650000Y-40950001D02*
G75*
G03*
X45650000Y-38949999I0J1000001D01*
G01*
X337500312Y-77925000D02*
G75*
G03*
X337500312Y-77925000I-1000312J0D01*
G01*
X371575000Y-40775000D02*
G75*
G03*
X371575000Y-38775000I0J1000000D01*
G01*
X66675000Y-140275000D02*
X60550000Y-140275000D01*
X206300000Y-38924999D02*
X200175000Y-38924999D01*
X337500312Y-90600000D02*
G75*
G03*
X337500312Y-90600000I-1000312J0D01*
G01*
X320065376Y-38924999D02*
X313940376Y-38924999D01*
X226984614Y-40925001D02*
G75*
G03*
X226984614Y-38924999I-14J1000001D01*
G01*
X128550212Y-39769200D02*
G75*
G03*
X128550212Y-39769200I-1000312J0D01*
G01*
X200175000Y-38925000D02*
G75*
G03*
X200175000Y-40925000I0J-1000000D01*
G01*
X373827000Y-140394000D02*
X373827000Y-150046000D01*
X293255762Y-38925000D02*
G75*
G03*
X293255762Y-40925000I38J-1000000D01*
G01*
X410718750Y-40850000D02*
G75*
G03*
X410718750Y-38850000I-50J1000000D01*
G01*
X36050000Y-38925000D02*
X29925000Y-38925000D01*
X39525000Y-40950000D02*
X45650000Y-40950000D01*
X373800000Y-90075000D02*
G75*
G03*
X375800000Y-90075000I1000000J0D01*
G01*
X335499999Y-127225002D02*
X335500000Y-138225002D01*
X335499999Y-42425001D02*
X335500000Y-55025001D01*
X375800000Y-131625000D02*
G75*
G03*
X373800000Y-131625000I-1000000J0D01*
G01*
X335500000Y-30750000D02*
X335500000Y-36875000D01*
X375800000Y-128825000D02*
X375800000Y-122700000D01*
X196800000Y-40900000D02*
G75*
G03*
X196800000Y-38900000I0J1000000D01*
G01*
X395562500Y-40825001D02*
X401687500Y-40825001D01*
X346400000Y-38799999D02*
G75*
G03*
X346400000Y-40800001I0J-1000001D01*
G01*
X401687500Y-40825000D02*
G75*
G03*
X401687500Y-38825000I0J1000000D01*
G01*
X216642307Y-38924999D02*
X210517307Y-38924999D01*
X333375000Y-31400000D02*
G75*
G03*
X333375000Y-31400000I-1300000J0D01*
G01*
X337500312Y-100775000D02*
G75*
G03*
X337500312Y-100775000I-1000312J0D01*
G01*
X83525000Y-133425000D02*
G75*
G03*
X83525000Y-133425000I-1300000J0D01*
G01*
X337500312Y-75375000D02*
G75*
G03*
X337500312Y-75375000I-1000312J0D01*
G01*
X352525000Y-38800000D02*
X346400000Y-38800000D01*
X373800000Y-128825000D02*
G75*
G03*
X375800000Y-128825000I1000000J0D01*
G01*
X49025000Y-40950000D02*
X55150000Y-40950000D01*
X87650000Y-40744200D02*
G75*
G03*
X87650000Y-38744200I0J1000000D01*
G01*
X113350212Y-39769200D02*
G75*
G03*
X113350212Y-39769200I-1000312J0D01*
G01*
X365450000Y-40775001D02*
X371575000Y-40775001D01*
X220859614Y-40925000D02*
X226984614Y-40925000D01*
X419200000Y-133375000D02*
G75*
G03*
X419200000Y-133375000I-1300000J0D01*
G01*
X373800000Y-36025000D02*
X373800000Y-42150000D01*
X377500000Y-38824999D02*
G75*
G03*
X377500000Y-40825001I0J-1000001D01*
G01*
X419750000Y-38875000D02*
X413625000Y-38875000D01*
X123500212Y-39769200D02*
G75*
G03*
X123500212Y-39769200I-1000312J0D01*
G01*
X375800000Y-119087500D02*
X375800000Y-112962500D01*
X282913455Y-40925000D02*
X289038455Y-40925000D01*
X55150000Y-40950001D02*
G75*
G03*
X55150000Y-38949999I0J1000001D01*
G01*
X373827000Y-140394000D02*
X310962000Y-140394000D01*
X373800000Y-119087500D02*
G75*
G03*
X375800000Y-119087500I1000000J0D01*
G01*
X22625000Y-140224999D02*
G75*
G03*
X22625000Y-142225001I0J-1000001D01*
G01*
X375800000Y-36025000D02*
G75*
G03*
X373800000Y-36025000I-1000000J0D01*
G01*
X373800000Y-71325000D02*
G75*
G03*
X375800000Y-71325000I1000000J0D01*
G01*
X72725000Y-150050000D02*
X72725000Y-140275000D01*
X373800000Y-83950000D02*
X373800000Y-90075000D01*
X422500000Y-12450000D02*
X18100000Y-12450000D01*
X247669228Y-40925001D02*
G75*
G03*
X247669228Y-38924999I-28J1000001D01*
G01*
X404593750Y-38849999D02*
G75*
G03*
X404593750Y-40850001I-50J-1000001D01*
G01*
X251886534Y-40925000D02*
X258011534Y-40925000D01*
X50575000Y-140249999D02*
G75*
G03*
X50575000Y-142250001I0J-1000001D01*
G01*
X337500312Y-95675000D02*
G75*
G03*
X337500312Y-95675000I-1000312J0D01*
G01*
X36050000Y-40925000D02*
G75*
G03*
X36050000Y-38925000I0J1000000D01*
G01*
X337500000Y-30750000D02*
G75*
G03*
X335500000Y-30750000I-1000000J0D01*
G01*
X419750000Y-40875000D02*
G75*
G03*
X419750000Y-38875000I0J1000000D01*
G01*
X335500000Y-55025001D02*
G75*
G03*
X337500000Y-55025000I1000000J1D01*
G01*
X45650000Y-38949999D02*
X39525000Y-38949999D01*
X334625000Y-40925000D02*
X340750000Y-40925000D01*
X335500000Y-118500000D02*
X335500000Y-124625000D01*
X303598069Y-38925000D02*
G75*
G03*
X303598069Y-40925000I31J-1000000D01*
G01*
X83925124Y-15000000D02*
G75*
G03*
X83925124Y-15000000I-1300000J0D01*
G01*
X373800000Y-42150000D02*
G75*
G03*
X375800000Y-42150000I1000000J0D01*
G01*
X226984614Y-38924999D02*
X220859614Y-38924999D01*
X278696148Y-40925001D02*
G75*
G03*
X278696148Y-38924999I-48J1000001D01*
G01*
X47400000Y-142225000D02*
G75*
G03*
X47400000Y-140225000I0J1000000D01*
G01*
X375800000Y-83950000D02*
G75*
G03*
X373800000Y-83950000I-1000000J0D01*
G01*
X241544228Y-38925000D02*
G75*
G03*
X241544228Y-40925000I-28J-1000000D01*
G01*
X39525000Y-38950000D02*
G75*
G03*
X39525000Y-40950000I0J-1000000D01*
G01*
X274175000Y-133425000D02*
G75*
G03*
X274175000Y-133425000I-1300000J0D01*
G01*
X337500312Y-80450000D02*
G75*
G03*
X337500312Y-80450000I-1000312J0D01*
G01*
X320065376Y-40925001D02*
G75*
G03*
X320065376Y-38924999I24J1000001D01*
G01*
X200175000Y-40925000D02*
X206300000Y-40925000D01*
X377500000Y-40825001D02*
X383625000Y-40825001D01*
X352525000Y-40800000D02*
G75*
G03*
X352525000Y-38800000I0J1000000D01*
G01*
X241544228Y-40925000D02*
X247669228Y-40925000D01*
X381100000Y-44900000D02*
G75*
G03*
X381100000Y-44900000I-1300000J0D01*
G01*
X375800000Y-103412500D02*
G75*
G03*
X373800000Y-103412500I-1000000J0D01*
G01*
X147450000Y-38775000D02*
G75*
G03*
X147450000Y-40775000I0J-1000000D01*
G01*
X23750208Y-98200000D02*
G75*
G03*
X23750208Y-98200000I-1500208J0D01*
G01*
X373800000Y-44700000D02*
X373800000Y-50825000D01*
X337500312Y-62675000D02*
G75*
G03*
X337500312Y-62675000I-1000312J0D01*
G01*
X251886534Y-38925000D02*
G75*
G03*
X251886534Y-40925000I-34J-1000000D01*
G01*
X250350000Y-15000000D02*
G75*
G03*
X250350000Y-15000000I-1300000J0D01*
G01*
X206300000Y-40925001D02*
G75*
G03*
X206300000Y-38924999I0J1000001D01*
G01*
X337500312Y-105850000D02*
G75*
G03*
X337500312Y-105850000I-1000312J0D01*
G01*
X168450000Y-40775000D02*
G75*
G03*
X168450000Y-38775000I0J1000000D01*
G01*
X22625000Y-142225001D02*
X28750000Y-142225001D01*
X35925000Y-133400000D02*
G75*
G03*
X35925000Y-133400000I-1300000J0D01*
G01*
X337500000Y-138225003D02*
X337500000Y-127225002D01*
X375800000Y-50825000D02*
X375800000Y-44700000D01*
X110775212Y-39769200D02*
G75*
G03*
X110775212Y-39769200I-1000312J0D01*
G01*
X26025000Y-38925000D02*
X19900000Y-38925000D01*
X373800000Y-103412500D02*
X373800000Y-109537500D01*
X383625000Y-40825000D02*
G75*
G03*
X383625000Y-38825000I0J1000000D01*
G01*
X247669228Y-38924999D02*
X241544228Y-38924999D01*
X375800000Y-137750000D02*
X375800000Y-131625000D01*
X337499999Y-127225002D02*
G75*
G03*
X335499999Y-127225002I-1000000J1D01*
G01*
X346400000Y-40800001D02*
X352525000Y-40800001D01*
X337500001Y-42425001D02*
G75*
G03*
X335499999Y-42425001I-1000001J0D01*
G01*
X337500312Y-72850000D02*
G75*
G03*
X337500312Y-72850000I-1000312J0D01*
G01*
X29925000Y-38924999D02*
G75*
G03*
X29925000Y-40925001I0J-1000001D01*
G01*
X334625000Y-38925000D02*
G75*
G03*
X334625000Y-40925000I0J-1000000D01*
G01*
X324282683Y-40925000D02*
X330407683Y-40925000D01*
X419150000Y-14975000D02*
G75*
G03*
X419150000Y-14975000I-1300000J0D01*
G01*
X24024876Y-31450000D02*
G75*
G03*
X24024876Y-31450000I-1300000J0D01*
G01*
X19900000Y-38924999D02*
G75*
G03*
X19900000Y-40925001I0J-1000001D01*
G01*
X373800000Y-122700000D02*
X373800000Y-128825000D01*
X268353841Y-38924999D02*
X262228841Y-38924999D01*
X289038455Y-38924999D02*
X282913455Y-38924999D01*
X373800000Y-50825000D02*
G75*
G03*
X375800000Y-50825000I1000000J0D01*
G01*
X337500312Y-60125000D02*
G75*
G03*
X337500312Y-60125000I-1000312J0D01*
G01*
X371575000Y-38775000D02*
X365450000Y-38775000D01*
X23550000Y-133500000D02*
G75*
G03*
X23550000Y-133500000I-1300000J0D01*
G01*
X355249876Y-15000000D02*
G75*
G03*
X355249876Y-15000000I-1300000J0D01*
G01*
X71050312Y-141300000D02*
G75*
G03*
X71050312Y-141300000I-1000312J0D01*
G01*
X107600000Y-14975000D02*
G75*
G03*
X107600000Y-14975000I-1300000J0D01*
G01*
X337500312Y-103325000D02*
G75*
G03*
X337500312Y-103325000I-1000312J0D01*
G01*
X126025212Y-39769200D02*
G75*
G03*
X126025212Y-39769200I-1000312J0D01*
G01*
X337500312Y-88075000D02*
G75*
G03*
X337500312Y-88075000I-1000312J0D01*
G01*
X421000312Y-141300000D02*
G75*
G03*
X421000312Y-141300000I-1000312J0D01*
G01*
X337500000Y-124625000D02*
X337500000Y-118500000D01*
X335500000Y-27100000D02*
G75*
G03*
X337500000Y-27100000I1000000J0D01*
G01*
X337500312Y-82975000D02*
G75*
G03*
X337500312Y-82975000I-1000312J0D01*
G01*
X131125212Y-39769200D02*
G75*
G03*
X131125212Y-39769200I-1000312J0D01*
G01*
X18100000Y-16950000D02*
X18100000Y-12450000D01*
X231201921Y-40925000D02*
X237326921Y-40925000D01*
X309723069Y-40925001D02*
G75*
G03*
X309723069Y-38924999I31J1000001D01*
G01*
X392656250Y-40825000D02*
G75*
G03*
X392656250Y-38825000I-50J1000000D01*
G01*
X220859614Y-38925000D02*
G75*
G03*
X220859614Y-40925000I-14J-1000000D01*
G01*
X355825000Y-40775001D02*
X361950000Y-40775001D01*
X337500312Y-110925000D02*
G75*
G03*
X337500312Y-110925000I-1000312J0D01*
G01*
X375800000Y-109537500D02*
X375800000Y-103412500D01*
X237326921Y-40925001D02*
G75*
G03*
X237326921Y-38924999I-21J1000001D01*
G01*
X373800000Y-112962500D02*
X373800000Y-119087500D01*
X386531250Y-38824999D02*
G75*
G03*
X386531250Y-40825001I-50J-1000001D01*
G01*
X337500312Y-67750000D02*
G75*
G03*
X337500312Y-67750000I-1000312J0D01*
G01*
X49025000Y-38950000D02*
G75*
G03*
X49025000Y-40950000I0J-1000000D01*
G01*
X337500312Y-116000000D02*
G75*
G03*
X337500312Y-116000000I-1000312J0D01*
G01*
X370375000Y-133425000D02*
G75*
G03*
X370375000Y-133425000I-1300000J0D01*
G01*
X18075000Y-150050000D02*
X18100000Y-16950000D01*
X71250000Y-38744200D02*
X87650000Y-38744200D01*
X422500000Y-150050000D02*
X373827000Y-150046000D01*
X375800000Y-71325000D02*
X375800000Y-65200000D01*
X375800000Y-42150000D02*
X375800000Y-36025000D01*
X337500000Y-36875000D02*
X337500000Y-30750000D01*
X258011534Y-38924999D02*
X251886534Y-38924999D01*
X41275000Y-140224999D02*
G75*
G03*
X41275000Y-142225001I0J-1000001D01*
G01*
X337500312Y-70300000D02*
G75*
G03*
X337500312Y-70300000I-1000312J0D01*
G01*
X355475000Y-44225000D02*
G75*
G03*
X355475000Y-44225000I-1300000J0D01*
G01*
X293255762Y-40925000D02*
X299380762Y-40925000D01*
X422500000Y-16950000D02*
X422500000Y-12450000D01*
X375800000Y-112962500D02*
G75*
G03*
X373800000Y-112962500I-1000000J0D01*
G01*
X60550000Y-140274999D02*
G75*
G03*
X60550000Y-142275001I0J-1000001D01*
G01*
X236350000Y-31425000D02*
G75*
G03*
X236350000Y-31425000I-1300000J0D01*
G01*
X278696148Y-38924999D02*
X272571148Y-38924999D01*
X66675000Y-142275000D02*
G75*
G03*
X66675000Y-140275000I0J1000000D01*
G01*
X26025000Y-40925000D02*
G75*
G03*
X26025000Y-38925000I0J1000000D01*
G01*
X335500000Y-138225002D02*
G75*
G03*
X337500000Y-138225003I1000000J2D01*
G01*
X337500000Y-27100000D02*
X337500000Y-20975000D01*
X19900000Y-40925001D02*
X26025000Y-40925001D01*
X258011534Y-40925001D02*
G75*
G03*
X258011534Y-38924999I-34J1000001D01*
G01*
X28900000Y-18625000D02*
G75*
G03*
X28900000Y-18625000I-1300000J0D01*
G01*
X337500000Y-20975000D02*
G75*
G03*
X335500000Y-20975000I-1000000J0D01*
G01*
X419125000Y-44900000D02*
G75*
G03*
X419125000Y-44900000I-1300000J0D01*
G01*
X299380762Y-38924999D02*
X293255762Y-38924999D01*
X410718750Y-38850000D02*
X404593750Y-38850000D01*
X303598069Y-40925000D02*
X309723069Y-40925000D01*
X373800000Y-109537500D02*
G75*
G03*
X375800000Y-109537500I1000000J0D01*
G01*
X313940376Y-38925000D02*
G75*
G03*
X313940376Y-40925000I24J-1000000D01*
G01*
X282913455Y-38925000D02*
G75*
G03*
X282913455Y-40925000I45J-1000000D01*
G01*
X56700000Y-140250000D02*
X50575000Y-140250000D01*
X337500312Y-113475000D02*
G75*
G03*
X337500312Y-113475000I-1000312J0D01*
G01*
X361950000Y-40775000D02*
G75*
G03*
X361950000Y-38775000I0J1000000D01*
G01*
X337500312Y-57575000D02*
G75*
G03*
X337500312Y-57575000I-1000312J0D01*
G01*
X365450000Y-38774999D02*
G75*
G03*
X365450000Y-40775001I0J-1000001D01*
G01*
X355225000Y-133425000D02*
G75*
G03*
X355225000Y-133425000I-1300000J0D01*
G01*
X272571148Y-40925000D02*
X278696148Y-40925000D01*
X20925000Y-141225000D02*
G75*
G03*
X20925000Y-141225000I-1000312J0D01*
G01*
X413625000Y-38874999D02*
G75*
G03*
X413625000Y-40875001I0J-1000001D01*
G01*
X310962000Y-150046000D02*
X89728000Y-150046000D01*
X310962000Y-140394000D02*
X310962000Y-150046000D01*
X309723069Y-38924999D02*
X303598069Y-38924999D01*
X324282683Y-38925000D02*
G75*
G03*
X324282683Y-40925000I17J-1000000D01*
G01*
X89728000Y-140267000D02*
X72725000Y-140275000D01*
X207425000Y-44275000D02*
G75*
G03*
X207425000Y-44275000I-1300000J0D01*
G01*
X28750000Y-142225000D02*
G75*
G03*
X28750000Y-140225000I0J1000000D01*
G01*
X337500312Y-85525000D02*
G75*
G03*
X337500312Y-85525000I-1000312J0D01*
G01*
X289038455Y-40925001D02*
G75*
G03*
X289038455Y-38924999I45J1000001D01*
G01*
X386531250Y-40825001D02*
X392656250Y-40825001D01*
X89728000Y-150046000D02*
X89728000Y-140267000D01*
X210517307Y-40925000D02*
X216642307Y-40925000D01*
X337500312Y-93150000D02*
G75*
G03*
X337500312Y-93150000I-1000312J0D01*
G01*
X118375212Y-39769200D02*
G75*
G03*
X118375212Y-39769200I-1000312J0D01*
G01*
X56700000Y-142250000D02*
G75*
G03*
X56700000Y-140250000I0J1000000D01*
G01*
X299380762Y-40925001D02*
G75*
G03*
X299380762Y-38924999I38J1000001D01*
G01*
X340750000Y-38924999D02*
X334625000Y-38924999D01*
X41275000Y-142225001D02*
X47400000Y-142225001D01*
X29925000Y-40925001D02*
X36050000Y-40925001D01*
X147450000Y-40775000D02*
X168450000Y-40775000D01*
X340750000Y-40925001D02*
G75*
G03*
X340750000Y-38924999I0J1000001D01*
G01*
X373800000Y-137750000D02*
G75*
G03*
X375800000Y-137750000I1000000J0D01*
G01*
X383625000Y-38825000D02*
X377500000Y-38825000D01*
X337500312Y-108375000D02*
G75*
G03*
X337500312Y-108375000I-1000312J0D01*
G01*
X72725000Y-150050000D02*
X18075000Y-150050000D01*
X419225000Y-145825000D02*
G75*
G03*
X419225000Y-145825000I-1300000J0D01*
G01*
X422500000Y-16950000D02*
X422500000Y-150050000D01*
X262228841Y-40925000D02*
X268353841Y-40925000D01*
X47400000Y-140225000D02*
X41275000Y-140225000D01*
X71250000Y-38744199D02*
G75*
G03*
X71250000Y-40744201I0J-1000001D01*
G01*
X28750000Y-140225000D02*
X22625000Y-140225000D01*
X392656250Y-38825000D02*
X386531250Y-38825000D01*
M02*
