M48
; DRILL file {KiCad 7.0.6} date Fri Sep  1 19:36:15 2023
; FORMAT={-:-/ absolute / inch / decimal}
; #@! TF.CreationDate,2023-09-01T19:36:15-04:00
; #@! TF.GenerationSoftware,Kicad,Pcbnew,7.0.6
; #@! TF.FileFunction,NonPlated,1,2,NPTH
FMAT,2
INCH
; #@! TA.AperFunction,NonPlated,NPTH,ComponentDrill
T1C0.0669
; #@! TA.AperFunction,NonPlated,NPTH,ComponentDrill
T2C0.1201
; #@! TA.AperFunction,NonPlated,NPTH,ComponentDrill
T3C0.1575
; #@! TA.AperFunction,NonPlated,NPTH,ComponentDrill
T4C0.2008
; #@! TA.AperFunction,NonPlated,NPTH,ComponentDrill
T5C0.2067
%
G90
G05
T1
X1.1626Y-1.2423
X1.1626Y-2.3673
X1.1626Y-3.8673
X1.1626Y-4.6173
X1.3501Y-3.1173
X1.5626Y-1.2423
X1.5626Y-2.3673
X1.5626Y-3.8673
X1.5626Y-4.6173
X1.7501Y-3.1173
X1.9126Y-1.2423
X1.9126Y-3.8673
X1.9136Y-2.3673
X2.1001Y-4.6173
X2.2876Y-1.6173
X2.2876Y-3.1173
X2.3126Y-1.2423
X2.3126Y-3.8673
X2.3136Y-2.3673
X2.5001Y-4.6173
X2.6626Y-1.2423
X2.6626Y-3.8673
X2.6636Y-2.3673
X2.6876Y-1.6173
X2.6876Y-3.1173
X3.0376Y-3.1173
X3.0376Y-4.6173
X3.0626Y-1.2423
X3.0626Y-3.8673
X3.0636Y-2.3673
X3.4126Y-1.2423
X3.4126Y-2.3673
X3.4126Y-3.8673
X3.4376Y-3.1173
X3.4376Y-4.6173
X3.7876Y-1.6173
X3.7876Y-3.1173
X3.7876Y-4.6173
X3.8126Y-1.2423
X3.8126Y-2.3673
X3.8126Y-3.8673
X3.9751Y-5.3673
X4.1626Y-2.3673
X4.1626Y-3.8673
X4.1876Y-1.6173
X4.1876Y-3.1173
X4.1876Y-4.6173
X4.3751Y-5.3673
X4.5376Y-3.1173
X4.5376Y-4.6173
X4.5626Y-2.3673
X4.5626Y-3.8673
X4.9126Y-3.8673
X4.9131Y-2.3673
X4.9376Y-3.1173
X4.9376Y-4.6173
X5.2876Y-1.6173
X5.2876Y-3.1173
X5.2876Y-4.6173
X5.3126Y-3.8673
X5.3131Y-2.3673
X5.6626Y-1.2423
X5.6626Y-2.3673
X5.6626Y-3.8673
X5.6876Y-1.6173
X5.6876Y-3.1173
X5.6876Y-4.6173
X6.0376Y-4.6173
X6.0401Y-3.1173
X6.0626Y-1.2423
X6.0626Y-2.3673
X6.0626Y-3.8673
X6.4121Y-3.8673
X6.4126Y-1.2423
X6.4126Y-2.3673
X6.4376Y-4.6173
X6.4401Y-3.1173
X6.7876Y-1.6173
X6.7876Y-4.6173
X6.7876Y-5.3673
X6.7911Y-3.1173
X6.8121Y-3.8673
X6.8126Y-1.2423
X6.8126Y-2.3673
X7.1621Y-3.8673
X7.1626Y-1.2423
X7.1626Y-2.3673
X7.1876Y-1.6173
X7.1876Y-4.6173
X7.1876Y-5.3673
X7.1911Y-3.1173
X7.5376Y-4.6173
X7.5466Y-3.1173
X7.5621Y-3.8673
X7.5626Y-1.2423
X7.5626Y-2.3673
X7.9121Y-3.8673
X7.9126Y-1.2423
X7.9126Y-2.3673
X7.9376Y-4.6173
X7.9466Y-3.1173
X8.2876Y-4.6173
X8.2931Y-3.1173
X8.3121Y-3.8673
X8.3126Y-1.2423
X8.3126Y-2.3673
X8.6626Y-2.3673
X8.6626Y-3.8673
X8.6876Y-4.6173
X8.6931Y-3.1173
X9.0376Y-4.6173
X9.0441Y-3.1173
X9.0626Y-2.3673
X9.0626Y-3.8673
X9.4126Y-2.3673
X9.4126Y-3.8673
X9.4376Y-4.6173
X9.4441Y-3.1173
X9.6001Y-5.3673
X9.7876Y-4.6173
X9.7946Y-3.1173
X9.8126Y-2.3673
X9.8126Y-3.8673
X10.0001Y-5.3673
X10.1621Y-2.3673
X10.1626Y-1.2423
X10.1626Y-1.2423
X10.1626Y-3.8673
X10.1876Y-4.6173
X10.1946Y-3.1173
X10.5411Y-3.1173
X10.5621Y-2.3673
X10.5626Y-1.2423
X10.5626Y-1.2423
X10.5626Y-3.8673
X10.7251Y-4.6173
X10.9111Y-2.3673
X10.9111Y-3.8673
X10.9126Y-1.2423
X10.9126Y-1.2423
X10.9126Y-5.3673
X10.9411Y-3.1173
X11.1251Y-4.6173
X11.2911Y-3.1173
X11.3111Y-2.3673
X11.3111Y-3.8673
X11.3126Y-1.2423
X11.3126Y-1.2423
X11.3126Y-5.3673
X11.6626Y-1.2423
X11.6626Y-1.2423
X11.6626Y-2.3673
X11.6626Y-4.6173
X11.6631Y-5.3673
X11.6911Y-3.1173
X12.0376Y-3.8673
X12.0626Y-1.2423
X12.0626Y-1.2423
X12.0626Y-2.3673
X12.0626Y-4.6173
X12.0631Y-5.3673
X12.2276Y-3.1173
X12.4111Y-5.3673
X12.4126Y-1.2423
X12.4126Y-1.2423
X12.4126Y-2.3673
X12.4126Y-4.6173
X12.4376Y-3.8673
X12.6276Y-3.1173
X12.8111Y-5.3673
X12.8126Y-1.2423
X12.8126Y-1.2423
X12.8126Y-2.3673
X12.8126Y-4.6173
X13.724Y-3.121
X13.724Y-3.121
X13.7251Y-1.2423
X13.7251Y-2.371
X13.7251Y-2.371
X13.7251Y-3.8661
X13.7251Y-3.8661
X13.7252Y-4.6159
X14.1001Y-4.6159
X14.124Y-3.121
X14.124Y-3.121
X14.1251Y-1.2423
X14.1251Y-2.371
X14.1251Y-2.371
X14.1251Y-3.8661
X14.1251Y-3.8661
X14.1252Y-4.6159
X14.4751Y-1.2423
X14.4751Y-2.3689
X14.4751Y-3.121
X14.4751Y-3.8661
X14.5001Y-4.6159
X14.8751Y-1.2423
X14.8751Y-2.3689
X14.8751Y-3.121
X14.8751Y-3.8661
X15.2251Y-1.2423
X15.2251Y-2.3673
X15.2251Y-3.1173
X15.2251Y-3.8665
X15.2251Y-4.6169
X15.6251Y-1.2423
X15.6251Y-2.3673
X15.6251Y-3.1173
X15.6251Y-3.8665
X15.6251Y-4.6169
X15.9751Y-1.2423
X15.9751Y-2.3673
X15.9751Y-3.121
X15.9751Y-4.246
X16.3751Y-1.2423
X16.3751Y-2.3673
X16.3751Y-3.121
X16.3751Y-4.246
T2
X5.0585Y-5.0917
X8.9167Y-5.0917
X11.7691Y-3.5917
X12.7061Y-3.5917
X15.8995Y-3.7775
X15.8995Y-4.7145
T3
X5.0585Y-5.6917
X8.9167Y-5.6917
X11.7691Y-4.1917
X12.7061Y-4.1917
X16.4995Y-3.7775
X16.4995Y-4.7145
T4
X1.3626Y-1.2423
X1.3626Y-2.3673
X1.3626Y-3.8673
X1.3626Y-4.6173
X1.5501Y-3.1173
X2.1126Y-1.2423
X2.1126Y-3.8673
X2.1136Y-2.3673
X2.3001Y-4.6173
X2.4876Y-1.6173
X2.4876Y-3.1173
X2.8626Y-1.2423
X2.8626Y-3.8673
X2.8636Y-2.3673
X3.2376Y-3.1173
X3.2376Y-4.6173
X3.6126Y-1.2423
X3.6126Y-2.3673
X3.6126Y-3.8673
X3.9876Y-1.6173
X3.9876Y-3.1173
X3.9876Y-4.6173
X4.1751Y-5.3673
X4.3626Y-2.3673
X4.3626Y-3.8673
X4.7376Y-3.1173
X4.7376Y-4.6173
X5.1126Y-3.8673
X5.1131Y-2.3673
X5.4876Y-1.6173
X5.4876Y-3.1173
X5.4876Y-4.6173
X5.8626Y-1.2423
X5.8626Y-2.3673
X5.8626Y-3.8673
X6.2376Y-4.6173
X6.2401Y-3.1173
X6.6121Y-3.8673
X6.6126Y-1.2423
X6.6126Y-2.3673
X6.9876Y-1.6173
X6.9876Y-4.6173
X6.9911Y-3.1173
X7.3621Y-3.8673
X7.3626Y-1.2423
X7.3626Y-2.3673
X7.7376Y-4.6173
X7.7466Y-3.1173
X8.1121Y-3.8673
X8.1126Y-1.2423
X8.1126Y-2.3673
X8.4876Y-4.6173
X8.4931Y-3.1173
X8.8626Y-2.3673
X8.8626Y-3.8673
X9.2376Y-4.6173
X9.2441Y-3.1173
X9.6126Y-2.3673
X9.6126Y-3.8673
X9.8001Y-5.3673
X9.9876Y-4.6173
X9.9946Y-3.1173
X10.3621Y-2.3673
X10.3626Y-1.2423
X10.3626Y-1.2423
X10.3626Y-3.8673
X10.7411Y-3.1173
X10.9251Y-4.6173
X11.1111Y-2.3673
X11.1111Y-3.8673
X11.1126Y-1.2423
X11.1126Y-1.2423
X11.1126Y-5.3673
X11.4911Y-3.1173
X11.8626Y-1.2423
X11.8626Y-1.2423
X11.8626Y-2.3673
X11.8626Y-4.6173
X11.8631Y-5.3673
X12.2376Y-3.8673
X12.4276Y-3.1173
X12.6111Y-5.3673
X12.6126Y-1.2423
X12.6126Y-1.2423
X12.6126Y-2.3673
X12.6126Y-4.6173
X13.924Y-3.121
X13.924Y-3.121
X13.9251Y-1.2423
X13.9251Y-2.371
X13.9251Y-2.371
X13.9251Y-3.8661
X13.9251Y-3.8661
X13.9252Y-4.6159
X14.3001Y-4.6159
X14.6751Y-1.2423
X14.6751Y-2.3689
X14.6751Y-3.121
X14.6751Y-3.8661
X15.4251Y-1.2423
X15.4251Y-2.3673
X15.4251Y-3.1173
X15.4251Y-3.8665
X15.4251Y-4.6169
X16.1751Y-1.2423
X16.1751Y-2.3673
X16.1751Y-3.121
X16.1751Y-4.246
T5
X6.9876Y-5.3673
T0
M30
