G04 #@! TF.GenerationSoftware,KiCad,Pcbnew,7.0.6*
G04 #@! TF.CreationDate,2023-09-01T19:36:20-04:00*
G04 #@! TF.ProjectId,C128SX-mx,43313238-5358-42d6-9d78-2e6b69636164,1.0*
G04 #@! TF.SameCoordinates,Original*
G04 #@! TF.FileFunction,Copper,L2,Bot*
G04 #@! TF.FilePolarity,Positive*
%FSLAX46Y46*%
G04 Gerber Fmt 4.6, Leading zero omitted, Abs format (unit mm)*
G04 Created by KiCad (PCBNEW 7.0.6) date 2023-09-01 19:36:20*
%MOMM*%
%LPD*%
G01*
G04 APERTURE LIST*
G04 Aperture macros list*
%AMRoundRect*
0 Rectangle with rounded corners*
0 $1 Rounding radius*
0 $2 $3 $4 $5 $6 $7 $8 $9 X,Y pos of 4 corners*
0 Add a 4 corners polygon primitive as box body*
4,1,4,$2,$3,$4,$5,$6,$7,$8,$9,$2,$3,0*
0 Add four circle primitives for the rounded corners*
1,1,$1+$1,$2,$3*
1,1,$1+$1,$4,$5*
1,1,$1+$1,$6,$7*
1,1,$1+$1,$8,$9*
0 Add four rect primitives between the rounded corners*
20,1,$1+$1,$2,$3,$4,$5,0*
20,1,$1+$1,$4,$5,$6,$7,0*
20,1,$1+$1,$6,$7,$8,$9,0*
20,1,$1+$1,$8,$9,$2,$3,0*%
%AMFreePoly0*
4,1,19,0.550000,-0.750000,0.000000,-0.750000,0.000000,-0.744911,-0.071157,-0.744911,-0.207708,-0.704816,-0.327430,-0.627875,-0.420627,-0.520320,-0.479746,-0.390866,-0.500000,-0.250000,-0.500000,0.250000,-0.479746,0.390866,-0.420627,0.520320,-0.327430,0.627875,-0.207708,0.704816,-0.071157,0.744911,0.000000,0.744911,0.000000,0.750000,0.550000,0.750000,0.550000,-0.750000,0.550000,-0.750000,
$1*%
%AMFreePoly1*
4,1,19,0.000000,0.744911,0.071157,0.744911,0.207708,0.704816,0.327430,0.627875,0.420627,0.520320,0.479746,0.390866,0.500000,0.250000,0.500000,-0.250000,0.479746,-0.390866,0.420627,-0.520320,0.327430,-0.627875,0.207708,-0.704816,0.071157,-0.744911,0.000000,-0.744911,0.000000,-0.750000,-0.550000,-0.750000,-0.550000,0.750000,0.000000,0.750000,0.000000,0.744911,0.000000,0.744911,
$1*%
G04 Aperture macros list end*
G04 #@! TA.AperFunction,ComponentPad*
%ADD10C,2.200000*%
G04 #@! TD*
G04 #@! TA.AperFunction,ComponentPad*
%ADD11O,1.900000X2.450000*%
G04 #@! TD*
G04 #@! TA.AperFunction,ComponentPad*
%ADD12O,2.450000X1.900000*%
G04 #@! TD*
G04 #@! TA.AperFunction,ComponentPad*
%ADD13R,1.800000X1.800000*%
G04 #@! TD*
G04 #@! TA.AperFunction,ComponentPad*
%ADD14C,1.800000*%
G04 #@! TD*
G04 #@! TA.AperFunction,ComponentPad*
%ADD15C,2.500000*%
G04 #@! TD*
G04 #@! TA.AperFunction,ComponentPad*
%ADD16C,1.400000*%
G04 #@! TD*
G04 #@! TA.AperFunction,ComponentPad*
%ADD17O,1.400000X1.400000*%
G04 #@! TD*
G04 #@! TA.AperFunction,ComponentPad*
%ADD18R,1.700000X1.700000*%
G04 #@! TD*
G04 #@! TA.AperFunction,ComponentPad*
%ADD19O,1.700000X1.700000*%
G04 #@! TD*
G04 #@! TA.AperFunction,SMDPad,CuDef*
%ADD20RoundRect,0.150000X-0.150000X0.825000X-0.150000X-0.825000X0.150000X-0.825000X0.150000X0.825000X0*%
G04 #@! TD*
G04 #@! TA.AperFunction,ComponentPad*
%ADD21R,1.600000X1.600000*%
G04 #@! TD*
G04 #@! TA.AperFunction,ComponentPad*
%ADD22O,1.600000X1.600000*%
G04 #@! TD*
G04 #@! TA.AperFunction,ComponentPad*
%ADD23C,1.600000*%
G04 #@! TD*
G04 #@! TA.AperFunction,SMDPad,CuDef*
%ADD24FreePoly0,0.000000*%
G04 #@! TD*
G04 #@! TA.AperFunction,SMDPad,CuDef*
%ADD25R,1.000000X1.500000*%
G04 #@! TD*
G04 #@! TA.AperFunction,SMDPad,CuDef*
%ADD26FreePoly1,0.000000*%
G04 #@! TD*
G04 #@! TA.AperFunction,SMDPad,CuDef*
%ADD27RoundRect,0.150000X0.825000X0.150000X-0.825000X0.150000X-0.825000X-0.150000X0.825000X-0.150000X0*%
G04 #@! TD*
G04 #@! TA.AperFunction,ComponentPad*
%ADD28C,4.000000*%
G04 #@! TD*
G04 #@! TA.AperFunction,ViaPad*
%ADD29C,0.800000*%
G04 #@! TD*
G04 #@! TA.AperFunction,Conductor*
%ADD30C,0.250000*%
G04 #@! TD*
G04 #@! TA.AperFunction,Conductor*
%ADD31C,0.300000*%
G04 #@! TD*
G04 #@! TA.AperFunction,Conductor*
%ADD32C,0.600000*%
G04 #@! TD*
G04 #@! TA.AperFunction,Profile*
%ADD33C,0.050000*%
G04 #@! TD*
G04 APERTURE END LIST*
D10*
X37150000Y-93150000D03*
D11*
X39010000Y-93530000D03*
D10*
X30800000Y-95690000D03*
D12*
X32010000Y-92480000D03*
D10*
X37150000Y-112200000D03*
D11*
X39010000Y-112580000D03*
D10*
X30800000Y-114740000D03*
D12*
X32010000Y-111530000D03*
D10*
X41912500Y-74100000D03*
D11*
X43772500Y-74480000D03*
D10*
X35562500Y-76640000D03*
D12*
X36772500Y-73430000D03*
D13*
X47823000Y-137600000D03*
D14*
X45283000Y-137600000D03*
D10*
X60962500Y-112200000D03*
D11*
X62822500Y-112580000D03*
D10*
X54612500Y-114740000D03*
D12*
X55822500Y-111530000D03*
D10*
X284761900Y-55050000D03*
D11*
X286621900Y-55430000D03*
D10*
X278411900Y-57590000D03*
D12*
X279621900Y-54380000D03*
D10*
X313375000Y-93150000D03*
D11*
X315235000Y-93530000D03*
D10*
X307025000Y-95690000D03*
D12*
X308235000Y-92480000D03*
D10*
X189550000Y-55050000D03*
D11*
X191410000Y-55430000D03*
D10*
X183200000Y-57590000D03*
D12*
X184410000Y-54380000D03*
D10*
X170500000Y-55050000D03*
D11*
X172360000Y-55430000D03*
D10*
X164150000Y-57590000D03*
D12*
X165360000Y-54380000D03*
D10*
X208600000Y-55050000D03*
D11*
X210460000Y-55430000D03*
D10*
X202250000Y-57590000D03*
D12*
X203460000Y-54380000D03*
D10*
X132412700Y-55050000D03*
D11*
X134272700Y-55430000D03*
D10*
X126062700Y-57590000D03*
D12*
X127272700Y-54380000D03*
D10*
X94300000Y-55050000D03*
D11*
X96160000Y-55430000D03*
D10*
X87950000Y-57590000D03*
D12*
X89160000Y-54380000D03*
D10*
X65725000Y-74100000D03*
D11*
X67585000Y-74480000D03*
D10*
X59375000Y-76640000D03*
D12*
X60585000Y-73430000D03*
D10*
X113350000Y-55050000D03*
D11*
X115210000Y-55430000D03*
D10*
X107000000Y-57590000D03*
D12*
X108210000Y-54380000D03*
D10*
X227650000Y-55050000D03*
D11*
X229510000Y-55430000D03*
D10*
X221300000Y-57590000D03*
D12*
X222510000Y-54380000D03*
D10*
X56225400Y-55050000D03*
D11*
X58085400Y-55430000D03*
D10*
X49875400Y-57590000D03*
D12*
X51085400Y-54380000D03*
D10*
X303850000Y-112200000D03*
D11*
X305710000Y-112580000D03*
D10*
X297500000Y-114740000D03*
D12*
X298710000Y-111530000D03*
D10*
X75275400Y-55050000D03*
D11*
X77135400Y-55430000D03*
D10*
X68925400Y-57590000D03*
D12*
X70135400Y-54380000D03*
D10*
X199075000Y-112200000D03*
D11*
X200935000Y-112580000D03*
D10*
X192725000Y-114740000D03*
D12*
X193935000Y-111530000D03*
D10*
X84775000Y-74100000D03*
D11*
X86635000Y-74480000D03*
D10*
X78425000Y-76640000D03*
D12*
X79635000Y-73430000D03*
D10*
X132400000Y-93150000D03*
D11*
X134260000Y-93530000D03*
D10*
X126050000Y-95690000D03*
D12*
X127260000Y-92480000D03*
D10*
X141925000Y-74100000D03*
D11*
X143785000Y-74480000D03*
D10*
X135575000Y-76640000D03*
D12*
X136785000Y-73430000D03*
D10*
X151450000Y-93150000D03*
D11*
X153310000Y-93530000D03*
D10*
X145100000Y-95690000D03*
D12*
X146310000Y-92480000D03*
D10*
X284761900Y-93150000D03*
D11*
X286621900Y-93530000D03*
D10*
X278411900Y-95690000D03*
D12*
X279621900Y-92480000D03*
D10*
X303850000Y-55050000D03*
D11*
X305710000Y-55430000D03*
D10*
X297500000Y-57590000D03*
D12*
X298710000Y-54380000D03*
D10*
X218125000Y-112200000D03*
D11*
X219985000Y-112580000D03*
D10*
X211775000Y-114740000D03*
D12*
X212985000Y-111530000D03*
D10*
X170487300Y-93150000D03*
D11*
X172347300Y-93530000D03*
D10*
X164137300Y-95690000D03*
D12*
X165347300Y-92480000D03*
D10*
X246700000Y-93150000D03*
D11*
X248560000Y-93530000D03*
D10*
X240350000Y-95690000D03*
D12*
X241560000Y-92480000D03*
D10*
X256402800Y-74100000D03*
D11*
X258262800Y-74480000D03*
D10*
X250052800Y-76640000D03*
D12*
X251262800Y-73430000D03*
D10*
X84775000Y-112200000D03*
D11*
X86635000Y-112580000D03*
D10*
X78425000Y-114740000D03*
D12*
X79635000Y-111530000D03*
D10*
X65725000Y-36000000D03*
D11*
X67585000Y-36380000D03*
D10*
X59375000Y-38540000D03*
D12*
X60585000Y-35330000D03*
D10*
X180025000Y-36000000D03*
D11*
X181885000Y-36380000D03*
D10*
X173675000Y-38540000D03*
D12*
X174885000Y-35330000D03*
D10*
X141925000Y-36000000D03*
D11*
X143785000Y-36380000D03*
D10*
X135575000Y-38540000D03*
D12*
X136785000Y-35330000D03*
D10*
X103825000Y-36000000D03*
D11*
X105685000Y-36380000D03*
D10*
X97475000Y-38540000D03*
D12*
X98685000Y-35330000D03*
D10*
X265750000Y-93150000D03*
D11*
X267610000Y-93530000D03*
D10*
X259400000Y-95690000D03*
D12*
X260610000Y-92480000D03*
D10*
X322900000Y-55050000D03*
D11*
X324760000Y-55430000D03*
D10*
X316550000Y-57590000D03*
D12*
X317760000Y-54380000D03*
D10*
X151450000Y-55050000D03*
D11*
X153310000Y-55430000D03*
D10*
X145100000Y-57590000D03*
D12*
X146310000Y-54380000D03*
D10*
X199303600Y-74100000D03*
D11*
X201163600Y-74480000D03*
D10*
X192953600Y-76640000D03*
D12*
X194163600Y-73430000D03*
D10*
X113350000Y-93150000D03*
D11*
X115210000Y-93530000D03*
D10*
X107000000Y-95690000D03*
D12*
X108210000Y-92480000D03*
D10*
X237340100Y-74100000D03*
D11*
X239200100Y-74480000D03*
D10*
X230990100Y-76640000D03*
D12*
X232200100Y-73430000D03*
D10*
X227650000Y-93150000D03*
D11*
X229510000Y-93530000D03*
D10*
X221300000Y-95690000D03*
D12*
X222510000Y-92480000D03*
D10*
X161038500Y-74100000D03*
D11*
X162898500Y-74480000D03*
D10*
X154688500Y-76640000D03*
D12*
X155898500Y-73430000D03*
D10*
X218264700Y-74100000D03*
D11*
X220124700Y-74480000D03*
D10*
X211914700Y-76640000D03*
D12*
X213124700Y-73430000D03*
D10*
X265737300Y-55050000D03*
D11*
X267597300Y-55430000D03*
D10*
X259387300Y-57590000D03*
D12*
X260597300Y-54380000D03*
D10*
X180113900Y-74100000D03*
D11*
X181973900Y-74480000D03*
D10*
X173763900Y-76640000D03*
D12*
X174973900Y-73430000D03*
D10*
X75250000Y-93150000D03*
D11*
X77110000Y-93530000D03*
D10*
X68900000Y-95690000D03*
D12*
X70110000Y-92480000D03*
D10*
X122875000Y-74100000D03*
D11*
X124735000Y-74480000D03*
D10*
X116525000Y-76640000D03*
D12*
X117735000Y-73430000D03*
D10*
X103825000Y-74100000D03*
D11*
X105685000Y-74480000D03*
D10*
X97475000Y-76640000D03*
D12*
X98685000Y-73430000D03*
D10*
X208587300Y-93150000D03*
D11*
X210447300Y-93530000D03*
D10*
X202237300Y-95690000D03*
D12*
X203447300Y-92480000D03*
D10*
X189537300Y-93150000D03*
D11*
X191397300Y-93530000D03*
D10*
X183187300Y-95690000D03*
D12*
X184397300Y-92480000D03*
D10*
X246700000Y-55050000D03*
D11*
X248560000Y-55430000D03*
D10*
X240350000Y-57590000D03*
D12*
X241560000Y-54380000D03*
D10*
X122875000Y-112200000D03*
D11*
X124735000Y-112580000D03*
D10*
X116525000Y-114740000D03*
D12*
X117735000Y-111530000D03*
D10*
X103825000Y-112200000D03*
D11*
X105685000Y-112580000D03*
D10*
X97475000Y-114740000D03*
D12*
X98685000Y-111530000D03*
D10*
X237175000Y-112200000D03*
D11*
X239035000Y-112580000D03*
D10*
X230825000Y-114740000D03*
D12*
X232035000Y-111530000D03*
D10*
X180025000Y-112200000D03*
D11*
X181885000Y-112580000D03*
D10*
X173675000Y-114740000D03*
D12*
X174885000Y-111530000D03*
D10*
X94300000Y-93150000D03*
D11*
X96160000Y-93530000D03*
D10*
X87950000Y-95690000D03*
D12*
X89160000Y-92480000D03*
D10*
X256225000Y-112200000D03*
D11*
X258085000Y-112580000D03*
D10*
X249875000Y-114740000D03*
D12*
X251085000Y-111530000D03*
D10*
X141925000Y-112200000D03*
D11*
X143785000Y-112580000D03*
D10*
X135575000Y-114740000D03*
D12*
X136785000Y-111530000D03*
D10*
X160975000Y-112200000D03*
D11*
X162835000Y-112580000D03*
D10*
X154625000Y-114740000D03*
D12*
X155835000Y-111530000D03*
D10*
X275363900Y-74100000D03*
D11*
X277223900Y-74480000D03*
D10*
X269013900Y-76640000D03*
D12*
X270223900Y-73430000D03*
D10*
X303862700Y-131250000D03*
D11*
X305722700Y-131630000D03*
D10*
X297512700Y-133790000D03*
D12*
X298722700Y-130580000D03*
D10*
X322861900Y-131250000D03*
D11*
X324721900Y-131630000D03*
D10*
X316511900Y-133790000D03*
D12*
X317721900Y-130580000D03*
D10*
X280037500Y-112200000D03*
D11*
X281897500Y-112580000D03*
D10*
X273687500Y-114740000D03*
D12*
X274897500Y-111530000D03*
D10*
X284800000Y-131250000D03*
D11*
X286660000Y-131630000D03*
D10*
X278450000Y-133790000D03*
D12*
X279660000Y-130580000D03*
D13*
X56775000Y-137625000D03*
D14*
X59315000Y-137625000D03*
D10*
X180025000Y-131250000D03*
D15*
X181885000Y-131630000D03*
D10*
X173675000Y-133790000D03*
D15*
X174885000Y-130580000D03*
D10*
X356237500Y-55143300D03*
D11*
X358097500Y-55523300D03*
D10*
X349887500Y-57683300D03*
D12*
X351097500Y-54473300D03*
D10*
X189550000Y-26475000D03*
D11*
X191410000Y-26855000D03*
D10*
X183200000Y-29015000D03*
D12*
X184410000Y-25805000D03*
D10*
X56200000Y-93150000D03*
D11*
X58060000Y-93530000D03*
D10*
X49850000Y-95690000D03*
D12*
X51060000Y-92480000D03*
D10*
X351157500Y-103280000D03*
D11*
X349297500Y-102900000D03*
D10*
X357507500Y-100740000D03*
D12*
X356297500Y-103950000D03*
D10*
X260670000Y-36635000D03*
D11*
X258810000Y-36255000D03*
D10*
X267020000Y-34095000D03*
D12*
X265810000Y-37305000D03*
D10*
X37150000Y-55050000D03*
D11*
X39010000Y-55430000D03*
D10*
X30800000Y-57590000D03*
D12*
X32010000Y-54380000D03*
D10*
X375287500Y-55090000D03*
D11*
X377147500Y-55470000D03*
D10*
X368937500Y-57630000D03*
D12*
X370147500Y-54420000D03*
D10*
X94300000Y-26475000D03*
D11*
X96160000Y-26855000D03*
D10*
X87950000Y-29015000D03*
D12*
X89160000Y-25805000D03*
D13*
X54975000Y-106100000D03*
D14*
X52435000Y-106100000D03*
D10*
X298770000Y-36635000D03*
D11*
X296910000Y-36255000D03*
D10*
X305120000Y-34095000D03*
D12*
X303910000Y-37305000D03*
D13*
X185775000Y-40500000D03*
D14*
X188315000Y-40500000D03*
D10*
X356237500Y-93120000D03*
D11*
X358097500Y-93500000D03*
D10*
X349887500Y-95660000D03*
D12*
X351097500Y-92450000D03*
D10*
X351130500Y-84353300D03*
D11*
X349270500Y-83973300D03*
D10*
X357480500Y-81813300D03*
D12*
X356270500Y-85023300D03*
D10*
X279720000Y-36635000D03*
D11*
X277860000Y-36255000D03*
D10*
X286070000Y-34095000D03*
D12*
X284860000Y-37305000D03*
D10*
X375287500Y-93120000D03*
D11*
X377147500Y-93500000D03*
D10*
X368937500Y-95660000D03*
D12*
X370147500Y-92450000D03*
D10*
X151450000Y-26475000D03*
D11*
X153310000Y-26855000D03*
D10*
X145100000Y-29015000D03*
D12*
X146310000Y-25805000D03*
D10*
X394337500Y-55050000D03*
D11*
X396197500Y-55430000D03*
D10*
X387987500Y-57590000D03*
D12*
X389197500Y-54380000D03*
D10*
X413387500Y-26475000D03*
D11*
X415247500Y-26855000D03*
D10*
X407037500Y-29015000D03*
D12*
X408247500Y-25805000D03*
D10*
X108587500Y-131250000D03*
D11*
X110447500Y-131630000D03*
D10*
X102237500Y-133790000D03*
D12*
X103447500Y-130580000D03*
D10*
X322900000Y-26475000D03*
D11*
X324760000Y-26855000D03*
D10*
X316550000Y-29015000D03*
D12*
X317760000Y-25805000D03*
D10*
X322900000Y-112200000D03*
D11*
X324760000Y-112580000D03*
D10*
X316550000Y-114740000D03*
D12*
X317760000Y-111530000D03*
D10*
X394337500Y-112190000D03*
D11*
X396197500Y-112570000D03*
D10*
X387987500Y-114730000D03*
D12*
X389197500Y-111520000D03*
D10*
X294413900Y-74100000D03*
D11*
X296273900Y-74480000D03*
D10*
X288063900Y-76640000D03*
D12*
X289273900Y-73430000D03*
D10*
X170500000Y-26475000D03*
D11*
X172360000Y-26855000D03*
D10*
X164150000Y-29015000D03*
D12*
X165360000Y-25805000D03*
D10*
X303850000Y-26475000D03*
D11*
X305710000Y-26855000D03*
D10*
X297500000Y-29015000D03*
D12*
X298710000Y-25805000D03*
D10*
X318201000Y-74100000D03*
D11*
X320061000Y-74480000D03*
D10*
X311851000Y-76640000D03*
D12*
X313061000Y-73430000D03*
D10*
X284800000Y-26475000D03*
D11*
X286660000Y-26855000D03*
D10*
X278450000Y-29015000D03*
D12*
X279660000Y-25805000D03*
D10*
X394337500Y-74100000D03*
D11*
X396197500Y-74480000D03*
D10*
X387987500Y-76640000D03*
D12*
X389197500Y-73430000D03*
D10*
X265750000Y-26475000D03*
D11*
X267610000Y-26855000D03*
D10*
X259400000Y-29015000D03*
D12*
X260610000Y-25805000D03*
D10*
X356237500Y-26475000D03*
D11*
X358097500Y-26855000D03*
D10*
X349887500Y-29015000D03*
D12*
X351097500Y-25805000D03*
D10*
X56200000Y-26475000D03*
D11*
X58060000Y-26855000D03*
D10*
X49850000Y-29015000D03*
D12*
X51060000Y-25805000D03*
D10*
X356210500Y-74193300D03*
D11*
X358070500Y-74573300D03*
D10*
X349860500Y-76733300D03*
D12*
X351070500Y-73523300D03*
D10*
X375287500Y-26475000D03*
D11*
X377147500Y-26855000D03*
D10*
X368937500Y-29015000D03*
D12*
X370147500Y-25805000D03*
D10*
X317820000Y-36635000D03*
D11*
X315960000Y-36255000D03*
D10*
X324170000Y-34095000D03*
D12*
X322960000Y-37305000D03*
D10*
X351159900Y-122324200D03*
D11*
X349299900Y-121944200D03*
D10*
X357509900Y-119784200D03*
D12*
X356299900Y-122994200D03*
D10*
X375287500Y-74193300D03*
D11*
X377147500Y-74573300D03*
D10*
X368937500Y-76733300D03*
D12*
X370147500Y-73523300D03*
D10*
X37150000Y-26475000D03*
D11*
X39010000Y-26855000D03*
D10*
X30800000Y-29015000D03*
D12*
X32010000Y-25805000D03*
D10*
X394337500Y-93130000D03*
D11*
X396197500Y-93510000D03*
D10*
X387987500Y-95670000D03*
D12*
X389197500Y-92460000D03*
D10*
X75250000Y-26475000D03*
D11*
X77110000Y-26855000D03*
D10*
X68900000Y-29015000D03*
D12*
X70110000Y-25805000D03*
D10*
X365762500Y-112164900D03*
D11*
X367622500Y-112544900D03*
D10*
X359412500Y-114704900D03*
D12*
X360622500Y-111494900D03*
D10*
X208600000Y-26475000D03*
D11*
X210460000Y-26855000D03*
D10*
X202250000Y-29015000D03*
D12*
X203460000Y-25805000D03*
D10*
X351157500Y-65303300D03*
D11*
X349297500Y-64923300D03*
D10*
X357507500Y-62763300D03*
D12*
X356297500Y-65973300D03*
D10*
X251462500Y-131250000D03*
D11*
X253322500Y-131630000D03*
D10*
X245112500Y-133790000D03*
D12*
X246322500Y-130580000D03*
D10*
X413387500Y-102768300D03*
D11*
X415247500Y-103148300D03*
D10*
X407037500Y-105308300D03*
D12*
X408247500Y-102098300D03*
D10*
X413387500Y-55050000D03*
D11*
X415247500Y-55430000D03*
D10*
X407037500Y-57590000D03*
D12*
X408247500Y-54380000D03*
D13*
X90810000Y-40450000D03*
D14*
X93350000Y-40450000D03*
D10*
X413387500Y-74193300D03*
D11*
X415247500Y-74573300D03*
D10*
X407037500Y-76733300D03*
D12*
X408247500Y-73523300D03*
D10*
X394337500Y-26475000D03*
D11*
X396197500Y-26855000D03*
D10*
X387987500Y-29015000D03*
D12*
X389197500Y-25805000D03*
D16*
X70650000Y-135450000D03*
D17*
X63030000Y-135450000D03*
D18*
X333550000Y-49925000D03*
D19*
X333550000Y-47385000D03*
D18*
X105974900Y-29419200D03*
D19*
X108514900Y-29419200D03*
X111054900Y-29419200D03*
X113594900Y-29419200D03*
X116134900Y-29419200D03*
X118674900Y-29419200D03*
X121214900Y-29419200D03*
X123754900Y-29419200D03*
X126294900Y-29419200D03*
X128834900Y-29419200D03*
X131374900Y-29419200D03*
X133914900Y-29419200D03*
X136454900Y-29419200D03*
D18*
X105959901Y-45194200D03*
D19*
X108499901Y-45194200D03*
X111039901Y-45194200D03*
X113579901Y-45194200D03*
X116119901Y-45194200D03*
X118659901Y-45194200D03*
X121199901Y-45194200D03*
X123739901Y-45194200D03*
X126279901Y-45194200D03*
X128819901Y-45194200D03*
X131359901Y-45194200D03*
X133899901Y-45194200D03*
X136439901Y-45194200D03*
D20*
X40150000Y-46700000D03*
X41420000Y-46700000D03*
X42690000Y-46700000D03*
X43960000Y-46700000D03*
X45230000Y-46700000D03*
X46500000Y-46700000D03*
X47770000Y-46700000D03*
X47770000Y-51650000D03*
X46500000Y-51650000D03*
X45230000Y-51650000D03*
X43960000Y-51650000D03*
X42690000Y-51650000D03*
X41420000Y-51650000D03*
X40150000Y-51650000D03*
D21*
X24810000Y-43300000D03*
D22*
X27350000Y-43300000D03*
X29890000Y-43300000D03*
X32430000Y-43300000D03*
X34970000Y-43300000D03*
D18*
X333575000Y-122200000D03*
D19*
X333575000Y-124740000D03*
D18*
X339375000Y-56325000D03*
D19*
X339375000Y-58865000D03*
X339375000Y-61405000D03*
X339375000Y-63945000D03*
X339375000Y-66485000D03*
X339375000Y-69025000D03*
X339375000Y-71565000D03*
X339375000Y-74105000D03*
X339375000Y-76645000D03*
X339375000Y-79185000D03*
X339375000Y-81725000D03*
X339375000Y-84265000D03*
X339375000Y-86805000D03*
X339375000Y-89345000D03*
X339375000Y-91885000D03*
X339375000Y-94425000D03*
X339375000Y-96965000D03*
X339375000Y-99505000D03*
X339375000Y-102045000D03*
X339375000Y-104585000D03*
X339375000Y-107125000D03*
X339375000Y-109665000D03*
X339375000Y-112205000D03*
X339375000Y-114745000D03*
X339375000Y-117285000D03*
D23*
X22145000Y-46475000D03*
X22145000Y-51475000D03*
D24*
X267850000Y-141875000D03*
D25*
X269150000Y-141875000D03*
D26*
X270450000Y-141875000D03*
D18*
X343649900Y-33394200D03*
D19*
X343649900Y-30854200D03*
X343649900Y-28314200D03*
X343649900Y-25774200D03*
X343649900Y-23234200D03*
D23*
X219699900Y-29094200D03*
X219699900Y-34094200D03*
D21*
X40185000Y-43325000D03*
D22*
X42725000Y-43325000D03*
X45265000Y-43325000D03*
X47805000Y-43325000D03*
X50345000Y-43325000D03*
D18*
X333550000Y-56300000D03*
D19*
X333550000Y-58840000D03*
X333550000Y-61380000D03*
X333550000Y-63920000D03*
X333550000Y-66460000D03*
X333550000Y-69000000D03*
X333550000Y-71540000D03*
X333550000Y-74080000D03*
X333550000Y-76620000D03*
X333550000Y-79160000D03*
X333550000Y-81700000D03*
X333550000Y-84240000D03*
X333550000Y-86780000D03*
X333550000Y-89320000D03*
X333550000Y-91860000D03*
X333550000Y-94400000D03*
X333550000Y-96940000D03*
X333550000Y-99480000D03*
X333550000Y-102020000D03*
X333550000Y-104560000D03*
X333550000Y-107100000D03*
X333550000Y-109640000D03*
X333550000Y-112180000D03*
X333550000Y-114720000D03*
X333550000Y-117260000D03*
D16*
X70675000Y-137600000D03*
D17*
X63055000Y-137600000D03*
D20*
X24725000Y-46500000D03*
X25995000Y-46500000D03*
X27265000Y-46500000D03*
X28535000Y-46500000D03*
X29805000Y-46500000D03*
X31075000Y-46500000D03*
X32345000Y-46500000D03*
X32345000Y-51450000D03*
X31075000Y-51450000D03*
X29805000Y-51450000D03*
X28535000Y-51450000D03*
X27265000Y-51450000D03*
X25995000Y-51450000D03*
X24725000Y-51450000D03*
D23*
X105549900Y-26469200D03*
X100549900Y-26469200D03*
X37745000Y-46625000D03*
X37745000Y-51625000D03*
X244249900Y-29094200D03*
X244249900Y-34094200D03*
X257774469Y-141650698D03*
X262774469Y-141650698D03*
D27*
X264524569Y-130081498D03*
X264524569Y-131351498D03*
X264524569Y-132621498D03*
X264524569Y-133891498D03*
X264524569Y-135161498D03*
X264524569Y-136431498D03*
X264524569Y-137701498D03*
X259574569Y-137701498D03*
X259574569Y-136431498D03*
X259574569Y-135161498D03*
X259574569Y-133891498D03*
X259574569Y-132621498D03*
X259574569Y-131351498D03*
X259574569Y-130081498D03*
D28*
X278158000Y-44740000D03*
X325258000Y-44740000D03*
D21*
X318328000Y-46160000D03*
D23*
X315558000Y-46160000D03*
X312788000Y-46160000D03*
X310018000Y-46160000D03*
X307248000Y-46160000D03*
X304478000Y-46160000D03*
X301708000Y-46160000D03*
X298938000Y-46160000D03*
X296168000Y-46160000D03*
X293398000Y-46160000D03*
X290628000Y-46160000D03*
X287858000Y-46160000D03*
X285088000Y-46160000D03*
X316943000Y-43320000D03*
X314173000Y-43320000D03*
X311403000Y-43320000D03*
X308633000Y-43320000D03*
X305863000Y-43320000D03*
X303093000Y-43320000D03*
X300323000Y-43320000D03*
X297553000Y-43320000D03*
X294783000Y-43320000D03*
X292013000Y-43320000D03*
X289243000Y-43320000D03*
X286473000Y-43320000D03*
D18*
X25375000Y-62575000D03*
D19*
X25375000Y-65115000D03*
X25375000Y-67655000D03*
D29*
X83449900Y-95690000D03*
X37174900Y-86069200D03*
X320925000Y-103443700D03*
X346199900Y-76669200D03*
X346725200Y-98094200D03*
X88274900Y-66369200D03*
X385174900Y-102300000D03*
X65649900Y-102644200D03*
X323600000Y-101075000D03*
X97449900Y-67131700D03*
X65524900Y-86069200D03*
X89160000Y-90844200D03*
X294947792Y-105293700D03*
X37724900Y-71644200D03*
X368900000Y-100700500D03*
X237349900Y-70843700D03*
X84749900Y-70644200D03*
X123487450Y-71031750D03*
X275299900Y-70843700D03*
X306674900Y-71518700D03*
X160949900Y-70843700D03*
X199299900Y-70843700D03*
X290574900Y-70843700D03*
X390625000Y-104275000D03*
X129524900Y-88519200D03*
X363750000Y-76750000D03*
X111637400Y-88631700D03*
X345799900Y-108069200D03*
X361000000Y-108094200D03*
X308874900Y-88994200D03*
X119924400Y-57619200D03*
X139849900Y-88269200D03*
X362899500Y-90969200D03*
X167555600Y-88249900D03*
X363650000Y-57475000D03*
X153999900Y-88244200D03*
X311199900Y-88244200D03*
X145100000Y-88194200D03*
X192974900Y-66494200D03*
X202224900Y-87494200D03*
X359925000Y-90203600D03*
X211914700Y-66469200D03*
X183187300Y-87494200D03*
X312224900Y-87494200D03*
X366750000Y-100550000D03*
X322999900Y-86744200D03*
X224274900Y-86744200D03*
X245899900Y-86744200D03*
X151449900Y-89606000D03*
X327499900Y-112194200D03*
X327107000Y-72487100D03*
X291599900Y-70669200D03*
X41912500Y-70894700D03*
X113349900Y-89606000D03*
X75250000Y-70469200D03*
X189574900Y-89606500D03*
X75250000Y-89619200D03*
X103825000Y-108719700D03*
X81124900Y-87319200D03*
X141925000Y-106044200D03*
X256249900Y-106044200D03*
X141949900Y-87319200D03*
X81124900Y-108719700D03*
X208600000Y-23069200D03*
X122174900Y-69594200D03*
X180025000Y-106044200D03*
X259625000Y-127000000D03*
X291899900Y-69594200D03*
X134199900Y-23044200D03*
X308299900Y-112894200D03*
X37150000Y-87319300D03*
X112349900Y-69669200D03*
X295724900Y-108894700D03*
X258074500Y-137125000D03*
X218174900Y-106044200D03*
X284800000Y-20819700D03*
X246499900Y-106869200D03*
X349773200Y-71763200D03*
X128459900Y-18869200D03*
X70524900Y-19419200D03*
X111774900Y-106869200D03*
X122874900Y-106869200D03*
X292624900Y-68794200D03*
X359600000Y-52300000D03*
X89324900Y-68794200D03*
X345100000Y-65075000D03*
X188574900Y-106869200D03*
X118724900Y-68794200D03*
X199099900Y-106869200D03*
X270624900Y-110144200D03*
X255949900Y-20819700D03*
X270625000Y-106869700D03*
X281866300Y-68794200D03*
X160949900Y-106869200D03*
X345275000Y-51550000D03*
X237174900Y-106869200D03*
X246699900Y-90356000D03*
X294374900Y-67919700D03*
X42199900Y-93644200D03*
X346174900Y-82994200D03*
X170500000Y-90356000D03*
X275199900Y-24594200D03*
X132399900Y-90356000D03*
X118049900Y-67944200D03*
X281967900Y-90356000D03*
X208599900Y-90356000D03*
X283324900Y-67944200D03*
X91999900Y-67919200D03*
X94300000Y-88068700D03*
X293149900Y-23094200D03*
X360074500Y-105619700D03*
X141925000Y-21717550D03*
X104037400Y-71856700D03*
X302349900Y-72319200D03*
X346695000Y-69020000D03*
X141925000Y-31069200D03*
X362974900Y-70975000D03*
X306112400Y-68519700D03*
X363900500Y-70225000D03*
X310274900Y-22344700D03*
X394349900Y-71263200D03*
X57724900Y-22844200D03*
X310224900Y-65944200D03*
X180025000Y-21319200D03*
X170500000Y-21319200D03*
X367075000Y-93975000D03*
X309949900Y-55444200D03*
X356237500Y-70225500D03*
X123754900Y-22219200D03*
X362562300Y-54825000D03*
X363850000Y-85575000D03*
X119549900Y-53469200D03*
X347500000Y-66500000D03*
X265750000Y-22344200D03*
X365675000Y-75275000D03*
X399025000Y-72300000D03*
X284761900Y-52494200D03*
X208599900Y-51694700D03*
X133049900Y-52219700D03*
X143399900Y-20094200D03*
X356224900Y-87572100D03*
X170500000Y-51694700D03*
X94299900Y-52274500D03*
X325840050Y-81919200D03*
X151424900Y-20144200D03*
X365700000Y-88475000D03*
X246699900Y-51694700D03*
X364525000Y-56175000D03*
X138274900Y-24619200D03*
X245124900Y-103794200D03*
X345649900Y-98169200D03*
X245112500Y-126769200D03*
X105548900Y-106744200D03*
X52049900Y-72393700D03*
X346649900Y-106719200D03*
X293905900Y-103444200D03*
X364725000Y-107119200D03*
X67737400Y-106581700D03*
X279874900Y-51743700D03*
X281449900Y-83694200D03*
X281449900Y-76969200D03*
X272599900Y-95594200D03*
X316943000Y-51743700D03*
X272574900Y-83694200D03*
X301274900Y-51743700D03*
X262524900Y-83694200D03*
X121214900Y-21468050D03*
X325169100Y-82794200D03*
X358975000Y-88476400D03*
X270674900Y-54300500D03*
X104049900Y-21468050D03*
X297512700Y-127519200D03*
X103424900Y-27019200D03*
X175599900Y-20544200D03*
X131424900Y-52668700D03*
X289274900Y-21569200D03*
X261975000Y-135150000D03*
X65574900Y-21544200D03*
X353600000Y-88476400D03*
X284749900Y-82444200D03*
X270674900Y-66794200D03*
X285308950Y-67170200D03*
X304349900Y-82794200D03*
X118624900Y-52493200D03*
X269799900Y-21569200D03*
X308799900Y-21569200D03*
X74275000Y-133400000D03*
X276575000Y-124369200D03*
X42149900Y-65144200D03*
X33325000Y-46500000D03*
X83300000Y-124375000D03*
X28850000Y-44900000D03*
X328249400Y-124694200D03*
X105949900Y-48819200D03*
X274750000Y-136975000D03*
X328399900Y-82455800D03*
X63550000Y-49669200D03*
X59240350Y-65234650D03*
X54299900Y-42794200D03*
X56874900Y-49418700D03*
X325000000Y-48744200D03*
X82850000Y-123250000D03*
X330674900Y-123344400D03*
X331800000Y-58425000D03*
X64775000Y-50219200D03*
X24700000Y-53225000D03*
X310024900Y-48744200D03*
X257424900Y-123319200D03*
X271325000Y-121394200D03*
X261325500Y-132150000D03*
X42690000Y-53319200D03*
X52774900Y-50869200D03*
X53025000Y-44850500D03*
X55225000Y-48350000D03*
X55325000Y-46349500D03*
X46900000Y-48450000D03*
X59700000Y-46700000D03*
X312399400Y-66644200D03*
X107114946Y-20718550D03*
X101399900Y-103819200D03*
X145074900Y-19319200D03*
X53875000Y-20869200D03*
X118699900Y-20718550D03*
X159649900Y-23794200D03*
X114674900Y-50669200D03*
X219724900Y-23844700D03*
X116149900Y-23794200D03*
X330984700Y-57415300D03*
X330984700Y-109005770D03*
X202224900Y-23819200D03*
X330449400Y-112200000D03*
X278450000Y-23844700D03*
X256899900Y-23844200D03*
X295174900Y-23844700D03*
X113599900Y-22967550D03*
X330449400Y-56225000D03*
X244249900Y-23844200D03*
X70249900Y-22967550D03*
X113599900Y-51819700D03*
X111049900Y-51118700D03*
X322800000Y-50225000D03*
X38700000Y-50150000D03*
X329299400Y-114724900D03*
X325700000Y-51550000D03*
X38925000Y-53275000D03*
X330250000Y-117275000D03*
X45324900Y-66319200D03*
X62074900Y-48919200D03*
X51725000Y-49244200D03*
X49150500Y-47450000D03*
X108374900Y-47919700D03*
X183199900Y-19969200D03*
X112934374Y-19969050D03*
X34999900Y-48075500D03*
X27249900Y-49394200D03*
D30*
X345045100Y-71565000D02*
X345525000Y-71085100D01*
X339375000Y-71565000D02*
X345045100Y-71565000D01*
X345375700Y-99505000D02*
X339375000Y-99505000D01*
X345380700Y-99500000D02*
X345375700Y-99505000D01*
D31*
X349860500Y-76733300D02*
X349860500Y-74733300D01*
X97475000Y-67156800D02*
X97449900Y-67131700D01*
X87950000Y-57590000D02*
X87950000Y-55590000D01*
X90185200Y-68279500D02*
X88274900Y-66369200D01*
X301649900Y-84250300D02*
X301649900Y-73594200D01*
X87950000Y-95690000D02*
X87950000Y-93690000D01*
X387987500Y-95670000D02*
X385874100Y-95670000D01*
X85529100Y-57590000D02*
X87950000Y-57590000D01*
X54612500Y-114740000D02*
X54612500Y-112740000D01*
X23950000Y-54544300D02*
X27725000Y-58319300D01*
X293524900Y-65469200D02*
X293524900Y-56944200D01*
X79635000Y-69134100D02*
X80749900Y-68019200D01*
X349860500Y-74733300D02*
X351070500Y-73523300D01*
X90185200Y-77369200D02*
X90185200Y-73044200D01*
X65720700Y-95690000D02*
X65649900Y-95619200D01*
X387987500Y-93670000D02*
X389197500Y-92460000D01*
X65649900Y-86194200D02*
X65524900Y-86069200D01*
X24369100Y-48725000D02*
X23950000Y-49144100D01*
X27725000Y-63525000D02*
X30474900Y-66274900D01*
X65649900Y-97394200D02*
X65649900Y-95619200D01*
X294947792Y-105293700D02*
X294947792Y-90952408D01*
X97475000Y-76640000D02*
X97475000Y-71344100D01*
X346199900Y-76669200D02*
X345449900Y-77419200D01*
X107000000Y-55590000D02*
X108210000Y-54380000D01*
X89160000Y-90844200D02*
X89160000Y-88859200D01*
X385174900Y-96369200D02*
X385174900Y-102300000D01*
X97475000Y-71344100D02*
X97475000Y-67156800D01*
X345424900Y-89654100D02*
X346725200Y-90954400D01*
X346725200Y-98094200D02*
X346725200Y-90954400D01*
X345424900Y-81294200D02*
X345424900Y-89654100D01*
X87950000Y-55590000D02*
X89160000Y-54380000D01*
X84299900Y-58819200D02*
X85529100Y-57590000D01*
X87950000Y-93690000D02*
X89160000Y-92480000D01*
X103724900Y-65094200D02*
X101687400Y-67131700D01*
X88274900Y-66369200D02*
X86199900Y-66369200D01*
X89160000Y-88859200D02*
X89374950Y-88644250D01*
X30474900Y-66274900D02*
X30474900Y-79369200D01*
X23950000Y-49144100D02*
X23950000Y-54544300D01*
X25995000Y-46500000D02*
X25995000Y-47780000D01*
X78425000Y-74640000D02*
X79635000Y-73430000D01*
X79639100Y-111530000D02*
X83449900Y-107719200D01*
X90185200Y-77369200D02*
X90185200Y-87834000D01*
X65649900Y-95619200D02*
X65649900Y-86194200D01*
X104579100Y-57590000D02*
X103724900Y-58444200D01*
X25050000Y-48725000D02*
X24369100Y-48725000D01*
X345449900Y-81269200D02*
X345424900Y-81294200D01*
X90185200Y-87834000D02*
X89374950Y-88644250D01*
X387987500Y-95670000D02*
X387987500Y-93670000D01*
X303093000Y-47376100D02*
X303093000Y-43320000D01*
X30474900Y-79369200D02*
X37174900Y-86069200D01*
X301649900Y-73594200D02*
X293524900Y-65469200D01*
X79635000Y-73430000D02*
X79635000Y-69134100D01*
X385874100Y-95670000D02*
X385174900Y-96369200D01*
X83449900Y-107719200D02*
X83449900Y-95690000D01*
X107000000Y-57590000D02*
X104579100Y-57590000D01*
X321231300Y-103443700D02*
X320925000Y-103443700D01*
X78425000Y-76640000D02*
X78425000Y-74640000D01*
X65649900Y-97394200D02*
X65649900Y-102644200D01*
X68900000Y-95690000D02*
X68900000Y-93690000D01*
X103724900Y-58444200D02*
X103724900Y-65094200D01*
X84299900Y-64469200D02*
X84299900Y-58819200D01*
X80749900Y-68019200D02*
X84299900Y-64469200D01*
X68900000Y-95690000D02*
X65720700Y-95690000D01*
X89160000Y-92480000D02*
X89160000Y-90844200D01*
X54612500Y-112740000D02*
X55822500Y-111530000D01*
X107000000Y-57590000D02*
X107000000Y-55590000D01*
X97449900Y-67131700D02*
X101687400Y-67131700D01*
X294947792Y-90952408D02*
X301649900Y-84250300D01*
X293524900Y-56944200D02*
X303093000Y-47376100D01*
X27725000Y-58319300D02*
X27725000Y-63525000D01*
X25995000Y-47780000D02*
X25050000Y-48725000D01*
X86199900Y-66369200D02*
X84299900Y-64469200D01*
X90185200Y-73044200D02*
X90185200Y-68279500D01*
X78425000Y-114740000D02*
X78425000Y-112740000D01*
X323600000Y-101075000D02*
X321231300Y-103443700D01*
X68900000Y-93690000D02*
X70110000Y-92480000D01*
X345449900Y-77419200D02*
X345449900Y-81269200D01*
X78425000Y-112740000D02*
X79635000Y-111530000D01*
X84775000Y-70669300D02*
X84749900Y-70644200D01*
X37150000Y-57742400D02*
X37810400Y-58402800D01*
X290628000Y-47341100D02*
X290628000Y-46160000D01*
X384300000Y-104275000D02*
X390625000Y-104275000D01*
X306474400Y-71719200D02*
X306674900Y-71518700D01*
X290574900Y-70843700D02*
X289868000Y-70136800D01*
X381475000Y-101450000D02*
X384300000Y-104275000D01*
X37150000Y-55050000D02*
X37150000Y-57742400D01*
X368900000Y-100700500D02*
X368900000Y-100725000D01*
X313375000Y-93150000D02*
X313375000Y-91744200D01*
X368900000Y-100725000D02*
X369625000Y-101450000D01*
X122875000Y-74100000D02*
X122875000Y-71644200D01*
X289868000Y-70136800D02*
X289868000Y-69419200D01*
X313375000Y-91744200D02*
X306474400Y-84843600D01*
X84775000Y-74100000D02*
X84775000Y-70669300D01*
X37724900Y-58488300D02*
X37810400Y-58402800D01*
X289868000Y-68144200D02*
X289868000Y-69419200D01*
X237340100Y-70853500D02*
X237349900Y-70843700D01*
X237340100Y-74100000D02*
X237340100Y-70853500D01*
X275363900Y-74100000D02*
X275363900Y-70907700D01*
X199303600Y-74100000D02*
X199303600Y-70847400D01*
X369625000Y-101450000D02*
X381475000Y-101450000D01*
X122875000Y-71644200D02*
X123487450Y-71031750D01*
X161038500Y-70932300D02*
X160949900Y-70843700D01*
X37724900Y-71644200D02*
X37724900Y-58488300D01*
X199303600Y-70847400D02*
X199299900Y-70843700D01*
X306474400Y-84843600D02*
X306474400Y-71719200D01*
X161038500Y-74100000D02*
X161038500Y-70932300D01*
X289868000Y-48101100D02*
X290628000Y-47341100D01*
X275363900Y-70907700D02*
X275299900Y-70843700D01*
X289868000Y-68144200D02*
X289868000Y-48101100D01*
X370666700Y-76733300D02*
X368937500Y-76733300D01*
X345699900Y-99819200D02*
X345380700Y-99500000D01*
X118799900Y-99919200D02*
X118799900Y-105044200D01*
X135575000Y-76640000D02*
X132857200Y-76640000D01*
X309137400Y-67721038D02*
X305724900Y-71133539D01*
X119324900Y-70369200D02*
X119774900Y-69919200D01*
X118799900Y-99994200D02*
X118799900Y-105044200D01*
X107000000Y-95690000D02*
X107000000Y-93269100D01*
X305863000Y-43320000D02*
X305863000Y-48707300D01*
X126050000Y-95690000D02*
X126050000Y-93690000D01*
X111637400Y-88631700D02*
X112799900Y-87469200D01*
X363750000Y-76750000D02*
X363750000Y-80500000D01*
X361587500Y-90987500D02*
X361375000Y-91200000D01*
X117735000Y-111530000D02*
X117735000Y-108259200D01*
X119774900Y-57768700D02*
X119924400Y-57619200D01*
X387987500Y-76640000D02*
X375365000Y-76640000D01*
X136785000Y-73430000D02*
X136785000Y-62934100D01*
X117735000Y-71959100D02*
X119324900Y-70369200D01*
X127260000Y-90784100D02*
X129524900Y-88519200D01*
X117735000Y-73430000D02*
X117735000Y-71959100D01*
X374625000Y-75900000D02*
X371500000Y-75900000D01*
X116525000Y-76640000D02*
X114529100Y-76640000D01*
X116525000Y-76640000D02*
X116525000Y-74640000D01*
X305863000Y-48707300D02*
X309137400Y-51981700D01*
X375365000Y-76640000D02*
X374625000Y-75900000D01*
X368937500Y-74733300D02*
X370147500Y-73523300D01*
X309137400Y-51981700D02*
X309137400Y-67721038D01*
X145100000Y-57590000D02*
X145100000Y-55590000D01*
X126062700Y-55590000D02*
X127272700Y-54380000D01*
X123104100Y-95690000D02*
X118799900Y-99994200D01*
X129824900Y-88219200D02*
X129824900Y-84594200D01*
X363750000Y-80500000D02*
X362150000Y-82100000D01*
X97475000Y-112740000D02*
X98685000Y-111530000D01*
X112799900Y-78244200D02*
X113424900Y-77619200D01*
X145100000Y-55590000D02*
X146310000Y-54380000D01*
X114404100Y-76640000D02*
X116525000Y-76640000D01*
X107000000Y-93269100D02*
X111637400Y-88631700D01*
X361375000Y-91200000D02*
X361375000Y-107719200D01*
X345699900Y-107969200D02*
X345799900Y-108069200D01*
X362150000Y-90425000D02*
X361587500Y-90987500D01*
X305724900Y-71133539D02*
X305724900Y-85844200D01*
X371500000Y-75900000D02*
X370666700Y-76733300D01*
X126050000Y-95690000D02*
X123104100Y-95690000D01*
X136785000Y-62934100D02*
X142129100Y-57590000D01*
X368937500Y-76733300D02*
X368937500Y-74733300D01*
X387987500Y-76640000D02*
X387987500Y-74640000D01*
X113424900Y-77619200D02*
X114404100Y-76640000D01*
X135575000Y-76640000D02*
X135575000Y-74640000D01*
X116525000Y-74640000D02*
X117735000Y-73430000D01*
X142129100Y-57590000D02*
X145100000Y-57590000D01*
X117735000Y-108259200D02*
X118799900Y-107194300D01*
X345699900Y-107219200D02*
X345699900Y-107969200D01*
X97475000Y-114740000D02*
X97475000Y-112740000D01*
X345699900Y-105119200D02*
X345699900Y-107219200D01*
X118799900Y-105044200D02*
X118799900Y-107194300D01*
X362150000Y-82100000D02*
X362150000Y-90425000D01*
X135575000Y-74640000D02*
X136785000Y-73430000D01*
X126050000Y-93690000D02*
X127260000Y-92480000D01*
X116525000Y-114740000D02*
X116525000Y-112740000D01*
X126062700Y-57590000D02*
X126062700Y-55590000D01*
X361375000Y-107719200D02*
X361000000Y-108094200D01*
X132857200Y-76640000D02*
X129824900Y-79672300D01*
X119774900Y-69919200D02*
X119774900Y-57768700D01*
X305724900Y-85844200D02*
X308874900Y-88994200D01*
X129524900Y-88519200D02*
X129824900Y-88219200D01*
X112799900Y-87469200D02*
X112799900Y-78244200D01*
X127260000Y-92480000D02*
X127260000Y-90784100D01*
X129824900Y-79672300D02*
X129824900Y-84594200D01*
X116525000Y-112740000D02*
X117735000Y-111530000D01*
X345699900Y-105119200D02*
X345699900Y-99819200D01*
X387987500Y-74640000D02*
X389197500Y-73430000D01*
X155971200Y-91769200D02*
X155971200Y-97894200D01*
X173763900Y-76640000D02*
X170479100Y-76640000D01*
X145100000Y-93690000D02*
X146310000Y-92480000D01*
X177749900Y-61484466D02*
X177749900Y-68744200D01*
X157474900Y-69544200D02*
X157474900Y-61169200D01*
X308633000Y-43320000D02*
X308633000Y-48510300D01*
X137137400Y-106706700D02*
X139849900Y-103994200D01*
X154688500Y-76640000D02*
X154688500Y-72330600D01*
X183200000Y-57590000D02*
X183200000Y-55590000D01*
X152474900Y-76640000D02*
X150824900Y-78290000D01*
X363650000Y-57475000D02*
X363650000Y-68300000D01*
X364650000Y-80725000D02*
X364650000Y-69300000D01*
X145100000Y-95690000D02*
X145100000Y-93690000D01*
X307224900Y-84269200D02*
X311199900Y-88244200D01*
X154688500Y-76640000D02*
X152474900Y-76640000D01*
X139849900Y-103994200D02*
X139849900Y-88269200D01*
X136785000Y-111530000D02*
X136785000Y-107059100D01*
X155971200Y-97894200D02*
X155971200Y-101786000D01*
X135575000Y-112740000D02*
X136785000Y-111530000D01*
X154625000Y-112740000D02*
X155835000Y-111530000D01*
X168649900Y-87155600D02*
X165818100Y-89987400D01*
X154688500Y-72330600D02*
X157474900Y-69544200D01*
X164150000Y-55590000D02*
X165360000Y-54380000D01*
X154625000Y-114740000D02*
X154625000Y-112740000D01*
X161054100Y-57590000D02*
X164150000Y-57590000D01*
X146310000Y-92480000D02*
X146310000Y-89404200D01*
X170479100Y-76640000D02*
X168649900Y-78469200D01*
X164150000Y-57590000D02*
X164150000Y-55590000D01*
X363650000Y-68300000D02*
X364650000Y-69300000D01*
X155971200Y-90215500D02*
X155971200Y-91769200D01*
X168649900Y-80419200D02*
X168649900Y-87155600D01*
X164137300Y-93690000D02*
X165347300Y-92480000D01*
X165347300Y-92480000D02*
X165347300Y-90458200D01*
X165347300Y-90458200D02*
X165818100Y-89987400D01*
X183200000Y-55590000D02*
X184410000Y-54380000D01*
X308633000Y-48510300D02*
X311149900Y-51027200D01*
X155835000Y-111530000D02*
X155835000Y-101922200D01*
X173763900Y-72730200D02*
X173763900Y-76640000D01*
X136785000Y-107059100D02*
X137137400Y-106706700D01*
X135575000Y-114740000D02*
X135575000Y-112740000D01*
X368937500Y-55630000D02*
X370147500Y-54420000D01*
X349887500Y-57683300D02*
X349887500Y-55683300D01*
X362899500Y-82475500D02*
X364650000Y-80725000D01*
X177749900Y-68744200D02*
X173763900Y-72730200D01*
X164137300Y-95690000D02*
X164137300Y-93690000D01*
X307224900Y-79919200D02*
X307224900Y-82619200D01*
X181644366Y-57590000D02*
X177749900Y-61484466D01*
X311149900Y-51027200D02*
X311149900Y-68394200D01*
X155835000Y-101922200D02*
X155971200Y-101786000D01*
X368937500Y-57630000D02*
X368937500Y-55630000D01*
X311149900Y-68394200D02*
X307224900Y-72319200D01*
X349887500Y-55683300D02*
X351097500Y-54473300D01*
X157474900Y-61169200D02*
X161054100Y-57590000D01*
X307224900Y-72319200D02*
X307224900Y-79919200D01*
X153999900Y-88244200D02*
X155971200Y-90215500D01*
X307224900Y-82619200D02*
X307224900Y-84269200D01*
X183200000Y-57590000D02*
X181644366Y-57590000D01*
X362899500Y-90969200D02*
X362899500Y-82475500D01*
X150824900Y-85069200D02*
X150824900Y-78290000D01*
X146310000Y-89404200D02*
X145100000Y-88194200D01*
X150824900Y-85069200D02*
X153999900Y-88244200D01*
X168649900Y-80419200D02*
X168649900Y-78469200D01*
X198754100Y-95690000D02*
X202237300Y-95690000D01*
X177524900Y-98419200D02*
X180254100Y-95690000D01*
X359325000Y-108350000D02*
X360622500Y-109647500D01*
X186624900Y-79244200D02*
X186624900Y-84056600D01*
X183187300Y-95690000D02*
X183187300Y-93690000D01*
X360375000Y-90653600D02*
X360375000Y-103950000D01*
X311649900Y-47341100D02*
X311649900Y-69019200D01*
X196624900Y-97819200D02*
X198754100Y-95690000D01*
X196624900Y-102194200D02*
X196624900Y-97819200D01*
X360622500Y-109647500D02*
X360622500Y-111494900D01*
X186624900Y-84056600D02*
X183187300Y-87494200D01*
X173675000Y-112740000D02*
X174885000Y-111530000D01*
X359925000Y-81662800D02*
X359925000Y-90203600D01*
X378625000Y-52825000D02*
X385600000Y-52825000D01*
X359412500Y-114704900D02*
X360598200Y-113519200D01*
X184397300Y-92480000D02*
X184397300Y-88704200D01*
X307899900Y-72769200D02*
X307899900Y-83644200D01*
X387987500Y-57590000D02*
X387987500Y-55590000D01*
X192725000Y-112740000D02*
X193935000Y-111530000D01*
X311403000Y-47094200D02*
X311649900Y-47341100D01*
X211914700Y-65400500D02*
X211914700Y-66469200D01*
X177524900Y-105019200D02*
X177524900Y-98419200D01*
X189229100Y-76640000D02*
X186624900Y-79244200D01*
X219725200Y-57590000D02*
X211914700Y-65400500D01*
X311649900Y-69019200D02*
X307899900Y-72769200D01*
X173675000Y-114740000D02*
X173675000Y-112740000D01*
X388175000Y-52800000D02*
X389197500Y-53822500D01*
X362975600Y-52825000D02*
X361812800Y-53987800D01*
X192953600Y-66515500D02*
X192953600Y-76640000D01*
X202237300Y-93690000D02*
X203447300Y-92480000D01*
X174885000Y-111530000D02*
X174885000Y-107659100D01*
X307899900Y-83644200D02*
X311749900Y-87494200D01*
X193935000Y-111530000D02*
X193935000Y-109569200D01*
X361812800Y-53987800D02*
X361812800Y-79775000D01*
X184397300Y-88704200D02*
X183187300Y-87494200D01*
X378625000Y-52825000D02*
X362975600Y-52825000D01*
X359925000Y-90203600D02*
X360375000Y-90653600D01*
X202250000Y-57590000D02*
X202250000Y-55590000D01*
X311749900Y-87494200D02*
X312224900Y-87494200D01*
X194562400Y-104256700D02*
X196624900Y-102194200D01*
X389197500Y-53822500D02*
X389197500Y-54380000D01*
X193935000Y-109569200D02*
X193935000Y-104884100D01*
X221300000Y-55590000D02*
X222510000Y-54380000D01*
X192974900Y-65309466D02*
X192974900Y-66494200D01*
X221300000Y-57590000D02*
X221300000Y-55590000D01*
X174885000Y-107659100D02*
X177524900Y-105019200D01*
X359325000Y-105000000D02*
X359325000Y-108350000D01*
X183187300Y-93690000D02*
X184397300Y-92480000D01*
X192974900Y-66494200D02*
X192953600Y-66515500D01*
X192953600Y-76640000D02*
X189229100Y-76640000D01*
X180254100Y-95690000D02*
X183187300Y-95690000D01*
X361812800Y-79775000D02*
X359925000Y-81662800D01*
X360622500Y-111494900D02*
X360622500Y-113494900D01*
X202250000Y-57590000D02*
X200694366Y-57590000D01*
X202237300Y-95690000D02*
X202237300Y-93690000D01*
X221300000Y-57590000D02*
X219725200Y-57590000D01*
X360375000Y-103950000D02*
X359325000Y-105000000D01*
X385600000Y-52825000D02*
X385625000Y-52800000D01*
X360622500Y-113494900D02*
X359412500Y-114704900D01*
X387987500Y-55590000D02*
X389197500Y-54380000D01*
X200694366Y-57590000D02*
X192974900Y-65309466D01*
X192725000Y-114740000D02*
X192725000Y-112740000D01*
X385625000Y-52800000D02*
X388175000Y-52800000D01*
X202250000Y-55590000D02*
X203460000Y-54380000D01*
X203447300Y-88716600D02*
X202224900Y-87494200D01*
X193935000Y-104884100D02*
X194562400Y-104256700D01*
X311403000Y-43320000D02*
X311403000Y-47094200D01*
X203447300Y-92480000D02*
X203447300Y-88716600D01*
X211914700Y-76640000D02*
X211914700Y-66469200D01*
X240350000Y-95690000D02*
X240350000Y-93690000D01*
X400725600Y-88200000D02*
X400725600Y-111499400D01*
X222510000Y-88509100D02*
X224274900Y-86744200D01*
X390870000Y-111520000D02*
X389197500Y-111520000D01*
X230990100Y-76640000D02*
X230990100Y-74640000D01*
X240350000Y-57590000D02*
X240350000Y-55590000D01*
X237203500Y-95690000D02*
X233924300Y-98969200D01*
X379572407Y-101972407D02*
X389120000Y-111520000D01*
X226649900Y-81794200D02*
X226649900Y-78290000D01*
X226649900Y-81794200D02*
X226649900Y-84369200D01*
X226649900Y-84369200D02*
X224274900Y-86744200D01*
X226649900Y-78290000D02*
X228299900Y-76640000D01*
X232035000Y-111530000D02*
X232035000Y-104959200D01*
X221300000Y-95690000D02*
X221300000Y-93690000D01*
X232035000Y-104959200D02*
X233562450Y-103431750D01*
X312874900Y-65394200D02*
X312874900Y-54725400D01*
X232200100Y-73430000D02*
X232200100Y-64266700D01*
X368550000Y-101972407D02*
X379572407Y-101972407D01*
X400817300Y-76733300D02*
X400725600Y-76825000D01*
X407037500Y-76733300D02*
X400817300Y-76733300D01*
X251499900Y-67044200D02*
X251799900Y-66744200D01*
X366750000Y-100550000D02*
X368172407Y-101972407D01*
X211775000Y-112740000D02*
X212985000Y-111530000D01*
X247929100Y-76640000D02*
X245724900Y-78844200D01*
X250052800Y-76640000D02*
X250052800Y-74640000D01*
X240350000Y-55590000D02*
X241560000Y-54380000D01*
X240350000Y-93690000D02*
X241560000Y-92480000D01*
X218354100Y-95690000D02*
X221300000Y-95690000D01*
X404154100Y-57590000D02*
X403409550Y-58334550D01*
X230990100Y-74640000D02*
X232200100Y-73430000D01*
X232200100Y-64266700D02*
X232511250Y-63955550D01*
X241560000Y-91084100D02*
X242249900Y-90394200D01*
X233924300Y-103069900D02*
X233562450Y-103431750D01*
X250052800Y-74640000D02*
X251262800Y-73430000D01*
X245724900Y-78844200D02*
X245724900Y-86569200D01*
X259387300Y-57590000D02*
X259387300Y-55590000D01*
X250052800Y-76640000D02*
X247929100Y-76640000D01*
X211775000Y-114740000D02*
X211775000Y-112740000D01*
X400725600Y-61018500D02*
X403409550Y-58334550D01*
X387987500Y-114730000D02*
X387987500Y-112730000D01*
X233924300Y-98969200D02*
X233924300Y-103069900D01*
X313424900Y-68544200D02*
X313424900Y-65944200D01*
X242249900Y-90394200D02*
X245899900Y-86744200D01*
X314173000Y-53427300D02*
X314173000Y-43320000D01*
X230825000Y-114740000D02*
X230825000Y-112740000D01*
X221300000Y-93690000D02*
X222510000Y-92480000D01*
X213674900Y-106294200D02*
X216574900Y-103394200D01*
X368172407Y-101972407D02*
X368550000Y-101972407D01*
X387987500Y-112730000D02*
X389197500Y-111520000D01*
X407037500Y-76733300D02*
X407037500Y-74733300D01*
X251262800Y-73430000D02*
X251262800Y-67281300D01*
X251799900Y-66744200D02*
X251799900Y-62444200D01*
X230825000Y-112740000D02*
X232035000Y-111530000D01*
X389120000Y-111520000D02*
X389197500Y-111520000D01*
X323024900Y-73156700D02*
X321649900Y-71781700D01*
X400725600Y-88200000D02*
X400725600Y-76825000D01*
X240350000Y-57590000D02*
X238876800Y-57590000D01*
X251262800Y-67281300D02*
X251499900Y-67044200D01*
X313424900Y-65944200D02*
X312874900Y-65394200D01*
X212985000Y-111530000D02*
X212985000Y-106984100D01*
X259387300Y-55590000D02*
X260597300Y-54380000D01*
X394150000Y-114800000D02*
X390870000Y-111520000D01*
X316662400Y-71781700D02*
X313424900Y-68544200D01*
X400725600Y-76825000D02*
X400725600Y-61018500D01*
X222510000Y-92480000D02*
X222510000Y-88509100D01*
X323024900Y-86719200D02*
X323024900Y-73156700D01*
X407037500Y-57590000D02*
X404154100Y-57590000D01*
X245724900Y-86569200D02*
X245899900Y-86744200D01*
X407037500Y-55590000D02*
X408247500Y-54380000D01*
X407037500Y-57590000D02*
X407037500Y-55590000D01*
X312874900Y-54725400D02*
X314173000Y-53427300D01*
X232511250Y-63955550D02*
X233136250Y-63330550D01*
X241560000Y-92480000D02*
X241560000Y-91084100D01*
X400725600Y-111499400D02*
X397425000Y-114800000D01*
X230990100Y-76640000D02*
X228299900Y-76640000D01*
X212985000Y-106984100D02*
X213674900Y-106294200D01*
X407037500Y-74733300D02*
X408247500Y-73523300D01*
X397425000Y-114800000D02*
X394150000Y-114800000D01*
X216574900Y-103394200D02*
X216574900Y-97469200D01*
X321649900Y-71781700D02*
X316662400Y-71781700D01*
X216574900Y-97469200D02*
X218354100Y-95690000D01*
X251799900Y-62444200D02*
X256654100Y-57590000D01*
X256654100Y-57590000D02*
X259387300Y-57590000D01*
X240350000Y-95690000D02*
X237203500Y-95690000D01*
X322999900Y-86744200D02*
X323024900Y-86719200D01*
X238876800Y-57590000D02*
X233136250Y-63330550D01*
X265750000Y-117744200D02*
X265750000Y-105994200D01*
X327499900Y-112194200D02*
X327499900Y-108329000D01*
X75250000Y-89619200D02*
X75250000Y-76294200D01*
X290368000Y-51412400D02*
X290368000Y-69437300D01*
X327499900Y-108329000D02*
X327135450Y-107964550D01*
X327499900Y-112194200D02*
X327499900Y-120994200D01*
X262075000Y-125294200D02*
X265750000Y-121619200D01*
X75250000Y-93150000D02*
X75250000Y-89619200D01*
X75250000Y-76294200D02*
X75250000Y-70469200D01*
X265750000Y-93150000D02*
X268205700Y-93150000D01*
X189537300Y-89644100D02*
X189537300Y-93150000D01*
X113350000Y-89606100D02*
X113349900Y-89606000D01*
X293398000Y-46160000D02*
X293398000Y-48382400D01*
X151450000Y-89606100D02*
X151449900Y-89606000D01*
D30*
X265750000Y-119425000D02*
X265750000Y-116969200D01*
D31*
X113350000Y-93150000D02*
X113350000Y-89606100D01*
X261058502Y-133891498D02*
X262075000Y-132875000D01*
X265750000Y-121619200D02*
X265750000Y-117744200D01*
X327135450Y-72515550D02*
X327107000Y-72487100D01*
X322861900Y-125632200D02*
X327499900Y-120994200D01*
X41912500Y-70894700D02*
X41912500Y-74100000D01*
X189574900Y-89606500D02*
X189537300Y-89644100D01*
X259574569Y-133891498D02*
X261058502Y-133891498D01*
X268205700Y-93150000D02*
X270974900Y-95919200D01*
X265750000Y-117744200D02*
X265750000Y-116969200D01*
X265750000Y-105994200D02*
X270974900Y-100769300D01*
X293398000Y-48382400D02*
X290368000Y-51412400D01*
X322861900Y-131250000D02*
X322861900Y-125632200D01*
X270974900Y-100769300D02*
X270974900Y-95919200D01*
X290368000Y-69437300D02*
X291599900Y-70669200D01*
X151450000Y-93150000D02*
X151450000Y-89606100D01*
X327135450Y-107964550D02*
X327135450Y-72515550D01*
X262075000Y-132875000D02*
X262075000Y-125294200D01*
X111649900Y-84419200D02*
X111649900Y-70369200D01*
X122174900Y-54794200D02*
X129749900Y-47219200D01*
X132174900Y-43469199D02*
X133899901Y-45194200D01*
X308299900Y-121519200D02*
X308299900Y-112894200D01*
X180025000Y-112200000D02*
X180025000Y-106044200D01*
X111649900Y-70369200D02*
X112349900Y-69669200D01*
X141949900Y-87319200D02*
X141949900Y-106019300D01*
X133899901Y-46519199D02*
X133899901Y-45194200D01*
X256225000Y-112200000D02*
X256225000Y-106069100D01*
X27225000Y-58526406D02*
X27225000Y-63732106D01*
X258000000Y-137125000D02*
X258074500Y-137125000D01*
X218125000Y-112200000D02*
X218125000Y-106094100D01*
X133914900Y-29419200D02*
X133914900Y-31579200D01*
X261424900Y-114994200D02*
X258630700Y-112200000D01*
X303862700Y-125956400D02*
X308299900Y-121519200D01*
X133914900Y-29419200D02*
X133914900Y-23329200D01*
X122174900Y-69594200D02*
X122174900Y-54794200D01*
X290868000Y-52487200D02*
X290868000Y-68562300D01*
X258576498Y-137701498D02*
X258000000Y-137125000D01*
X141949900Y-106019300D02*
X141925000Y-106044200D01*
X81124900Y-89719200D02*
X81124900Y-92119200D01*
X299349900Y-84269200D02*
X299349900Y-74476700D01*
X290868000Y-68562300D02*
X291899900Y-69594200D01*
X133199900Y-47219200D02*
X133899901Y-46519199D01*
X27225000Y-63732106D02*
X29950000Y-66457106D01*
X103825000Y-108719700D02*
X103825000Y-92244100D01*
X259574569Y-137701498D02*
X258576498Y-137701498D01*
X264650000Y-143400000D02*
X266175000Y-141875000D01*
X133914900Y-31579200D02*
X132174900Y-33319200D01*
X299349900Y-74476700D02*
X294467400Y-69594200D01*
X208600000Y-26475000D02*
X208600000Y-23069200D01*
X81124900Y-92119200D02*
X81124900Y-108719700D01*
X141925000Y-106044200D02*
X141925000Y-112200000D01*
X266175000Y-141875000D02*
X267850000Y-141875000D01*
X261424900Y-125200100D02*
X261424900Y-114994200D01*
X218125000Y-106094100D02*
X218174900Y-106044200D01*
X29950000Y-68125000D02*
X29974900Y-68149900D01*
X81124900Y-89719200D02*
X81124900Y-89606500D01*
X259574569Y-137701498D02*
X259574569Y-141324569D01*
X256225000Y-106069100D02*
X256249900Y-106044200D01*
X132174900Y-33319200D02*
X132174900Y-43469199D01*
X296168000Y-47187200D02*
X290868000Y-52487200D01*
X23450000Y-54751406D02*
X27225000Y-58526406D01*
X23450000Y-47775000D02*
X23450000Y-54751406D01*
X296168000Y-46160000D02*
X296168000Y-47187200D01*
X295724900Y-108894700D02*
X292374900Y-105544700D01*
X259625000Y-127000000D02*
X261424900Y-125200100D01*
X24725000Y-46500000D02*
X23450000Y-47775000D01*
X292374900Y-105544700D02*
X292374900Y-91244200D01*
X294467400Y-69594200D02*
X291899900Y-69594200D01*
X103825000Y-112200000D02*
X103825000Y-108719700D01*
X258630700Y-112200000D02*
X256225000Y-112200000D01*
X259574569Y-141324569D02*
X261650000Y-143400000D01*
X261650000Y-143400000D02*
X264650000Y-143400000D01*
X29950000Y-66457106D02*
X29950000Y-68125000D01*
X81124900Y-92119200D02*
X81124900Y-87319200D01*
X303862700Y-131250000D02*
X303862700Y-125956400D01*
X29974900Y-68149900D02*
X29974900Y-80144200D01*
X29974900Y-80144200D02*
X37150000Y-87319300D01*
X103825000Y-92244100D02*
X111649900Y-84419200D01*
X133914900Y-23329200D02*
X134199900Y-23044200D01*
X292374900Y-91244200D02*
X299349900Y-84269200D01*
X129749900Y-47219200D02*
X133199900Y-47219200D01*
X280207000Y-84776300D02*
X273839900Y-91143400D01*
X281866300Y-68794200D02*
X281866300Y-68802800D01*
X273839900Y-106002400D02*
X280037500Y-112200000D01*
X270625000Y-110144100D02*
X270624900Y-110144200D01*
X262575000Y-132875000D02*
X262575000Y-130625000D01*
X65725000Y-36000000D02*
X65725000Y-25619200D01*
X160975000Y-112200000D02*
X160975000Y-106894300D01*
X291368000Y-63894200D02*
X291368000Y-67537300D01*
X397100000Y-53550000D02*
X397100000Y-53500000D01*
X263591498Y-133891498D02*
X262575000Y-132875000D01*
X119174900Y-57069200D02*
X119174900Y-68344200D01*
X396480000Y-112570000D02*
X396197500Y-112570000D01*
X345650000Y-64525000D02*
X345100000Y-65075000D01*
X351157500Y-65303300D02*
X351157500Y-70378900D01*
X342849900Y-49124900D02*
X345275000Y-51550000D01*
X160975000Y-106894300D02*
X160949900Y-106869200D01*
X108587500Y-131250000D02*
X108587500Y-126306600D01*
X264524569Y-133891498D02*
X263591498Y-133891498D01*
X246844200Y-123794200D02*
X251462500Y-128412500D01*
X188584800Y-106879100D02*
X188574900Y-106869200D01*
X251462500Y-128412500D02*
X251462500Y-131250000D01*
X237175000Y-106869300D02*
X237174900Y-106869200D01*
X199075000Y-106894100D02*
X199099900Y-106869200D01*
X399949900Y-103600000D02*
X399949900Y-109100100D01*
X130139899Y-46104201D02*
X130449900Y-46104201D01*
X122875000Y-112200000D02*
X122875000Y-106869300D01*
X70524900Y-19469200D02*
X70524900Y-19419200D01*
X273839900Y-91143400D02*
X273839900Y-106002400D01*
X263118502Y-130081498D02*
X264524569Y-130081498D01*
X262575000Y-130625000D02*
X263118502Y-130081498D01*
X255949900Y-34719200D02*
X257865700Y-36635000D01*
X69599900Y-20394200D02*
X70524900Y-19469200D01*
X255949900Y-20819700D02*
X255949900Y-34719200D01*
X270625000Y-106869700D02*
X270625000Y-110144100D01*
X298938000Y-46160000D02*
X292651850Y-52446150D01*
X180025000Y-126929000D02*
X188584800Y-118369200D01*
X131374900Y-29419200D02*
X131374900Y-21784200D01*
X281866300Y-68802800D02*
X280207000Y-70462100D01*
X343649900Y-33394200D02*
X343649900Y-35112094D01*
X123699900Y-52544200D02*
X124412400Y-51831700D01*
X109899900Y-108744200D02*
X109899900Y-124994200D01*
X269074900Y-127600100D02*
X269074900Y-122325000D01*
X89349900Y-71344200D02*
X89349900Y-68664900D01*
X199075000Y-112200000D02*
X199075000Y-106894100D01*
X246499900Y-123469200D02*
X246824900Y-123794200D01*
X292651850Y-52446150D02*
X291368000Y-53730000D01*
X269074900Y-111694200D02*
X270624900Y-110144200D01*
X246499900Y-106869200D02*
X246499900Y-123469200D01*
X399949900Y-103600000D02*
X399949900Y-56399900D01*
X85174900Y-111669200D02*
X84874900Y-111369200D01*
X257865700Y-36635000D02*
X260670000Y-36635000D01*
X130449900Y-46104201D02*
X131359901Y-45194200D01*
X291368000Y-53730000D02*
X291368000Y-63894200D01*
X131374900Y-21784200D02*
X128459900Y-18869200D01*
X237175000Y-112200000D02*
X237175000Y-106869300D01*
X111774900Y-106869200D02*
X109899900Y-108744200D01*
X266593502Y-130081498D02*
X269074900Y-127600100D01*
X188584800Y-118369200D02*
X188584800Y-106879100D01*
X284800000Y-26475000D02*
X284800000Y-21294200D01*
X131374900Y-29419200D02*
X131374900Y-45179201D01*
X351157500Y-70378900D02*
X349773200Y-71763200D01*
X399949900Y-56399900D02*
X397100000Y-53550000D01*
X343649900Y-35112094D02*
X342849900Y-35912094D01*
X124412400Y-51831700D02*
X130139899Y-46104201D01*
X84775000Y-112069100D02*
X85174900Y-111669200D01*
X345275000Y-51550000D02*
X345650000Y-51925000D01*
X345650000Y-63700000D02*
X345650000Y-64525000D01*
X84775000Y-112200000D02*
X84775000Y-112069100D01*
X131374900Y-45179201D02*
X131359901Y-45194200D01*
X123699900Y-52544200D02*
X119174900Y-57069200D01*
X108587500Y-126306600D02*
X109899900Y-124994200D01*
X284800000Y-21294200D02*
X284800000Y-20819700D01*
X246824900Y-123794200D02*
X246844200Y-123794200D01*
X89349900Y-86244200D02*
X89349900Y-71344200D01*
X119174900Y-68344200D02*
X118724900Y-68794200D01*
X397100000Y-53500000D02*
X395900000Y-52300000D01*
X342849900Y-35912094D02*
X342849900Y-49124900D01*
X395900000Y-52300000D02*
X359600000Y-52300000D01*
X291368000Y-67537300D02*
X292624900Y-68794200D01*
X251462500Y-131250000D02*
X253080700Y-131250000D01*
X122875000Y-106869300D02*
X122874900Y-106869200D01*
X65725000Y-24269100D02*
X65725000Y-25619200D01*
X399949900Y-109100100D02*
X396480000Y-112570000D01*
X345650000Y-51925000D02*
X345650000Y-63700000D01*
X264524569Y-130081498D02*
X266593502Y-130081498D01*
X84874900Y-90719200D02*
X89349900Y-86244200D01*
X69599900Y-20394200D02*
X65725000Y-24269100D01*
X269074900Y-122325000D02*
X269074900Y-111694200D01*
X280207000Y-70462100D02*
X280207000Y-84776300D01*
X180025000Y-131250000D02*
X180025000Y-126929000D01*
X84874900Y-111369200D02*
X84874900Y-90719200D01*
X293799900Y-67369200D02*
X294374900Y-67944200D01*
X42199900Y-93644200D02*
X42199900Y-105544200D01*
X118174900Y-67819200D02*
X118174900Y-56719200D01*
X343349900Y-36119200D02*
X343349900Y-46542794D01*
X208587300Y-90368600D02*
X208599900Y-90356000D01*
X118174900Y-56719200D02*
X128819901Y-46074199D01*
X346150000Y-49342894D02*
X346150000Y-65675000D01*
X132400000Y-93150000D02*
X132400000Y-90356100D01*
X275174900Y-34069200D02*
X275174900Y-24619200D01*
X42199900Y-105544200D02*
X37150000Y-110594100D01*
X128819901Y-46074199D02*
X128819901Y-45194200D01*
X345525000Y-66300000D02*
X345525000Y-69966200D01*
X292574900Y-56317500D02*
X292574900Y-62269200D01*
X343649900Y-30854200D02*
X344284900Y-30854200D01*
X170500000Y-93137300D02*
X170487300Y-93150000D01*
X347267000Y-72827100D02*
X347267000Y-77012600D01*
X128834900Y-29419200D02*
X128834900Y-45179201D01*
X343349900Y-46542794D02*
X346150000Y-49342894D01*
X91874300Y-73544200D02*
X91874300Y-85606200D01*
X345074900Y-31644200D02*
X345074900Y-34394200D01*
X128834900Y-45179201D02*
X128819901Y-45194200D01*
X208587300Y-93150000D02*
X208587300Y-90368600D01*
X91874300Y-85606200D02*
X94300000Y-88031900D01*
X347267000Y-77012600D02*
X346174900Y-78104700D01*
X118049900Y-67944200D02*
X118174900Y-67819200D01*
X91874300Y-68044800D02*
X91999900Y-67919200D01*
X277740700Y-36635000D02*
X275174900Y-34069200D01*
X344284900Y-30854200D02*
X345074900Y-31644200D01*
X283324900Y-67944200D02*
X283324900Y-88999000D01*
X292574900Y-66144200D02*
X293799900Y-67369200D01*
X91874300Y-73544200D02*
X91874300Y-68044800D01*
X301708000Y-47184400D02*
X292574900Y-56317500D01*
X292574900Y-62269200D02*
X292574900Y-66144200D01*
X275174900Y-24619200D02*
X275199900Y-24594200D01*
X37150000Y-110594100D02*
X37150000Y-112200000D01*
X345525000Y-69966200D02*
X345525000Y-71085100D01*
X132400000Y-90356100D02*
X132399900Y-90356000D01*
X283324900Y-88999000D02*
X281967900Y-90356000D01*
X170500000Y-90356000D02*
X170500000Y-93137300D01*
X345074900Y-34394200D02*
X343349900Y-36119200D01*
X94300000Y-88031900D02*
X94300000Y-93150000D01*
X279720000Y-36635000D02*
X277740700Y-36635000D01*
X345525000Y-71085100D02*
X347267000Y-72827100D01*
X301708000Y-46160000D02*
X301708000Y-47184400D01*
X246700000Y-93150000D02*
X246700000Y-90356100D01*
X346174900Y-78104700D02*
X346174900Y-82994200D01*
X246700000Y-90356100D02*
X246699900Y-90356000D01*
X346150000Y-65675000D02*
X345525000Y-66300000D01*
X141925000Y-21717550D02*
X141925000Y-31069200D01*
X117649900Y-56537094D02*
X126279901Y-47907093D01*
X126294900Y-45179201D02*
X126279901Y-45194200D01*
X107274900Y-68619200D02*
X113599900Y-68619200D01*
X343874900Y-46360688D02*
X346650000Y-49135788D01*
X305999900Y-68669200D02*
X302349900Y-72319200D01*
X361325000Y-90525000D02*
X361325000Y-81874900D01*
X345574900Y-34644200D02*
X343874900Y-36344200D01*
X141925000Y-31069200D02*
X141925000Y-36000000D01*
X104037400Y-71856700D02*
X107274900Y-68619200D01*
X103825000Y-72069100D02*
X104037400Y-71856700D01*
X346650000Y-68975000D02*
X346695000Y-69020000D01*
X362974900Y-80225000D02*
X362974900Y-70975000D01*
X293149900Y-33119200D02*
X293149900Y-23094200D01*
X113599900Y-68619200D02*
X117649900Y-64569200D01*
X361325000Y-81874900D02*
X362974900Y-80225000D01*
X103825000Y-74100000D02*
X103825000Y-72069100D01*
X117649900Y-64569200D02*
X117649900Y-56537094D01*
X126279901Y-47907093D02*
X126279901Y-45194200D01*
X345574900Y-30239200D02*
X345574900Y-34644200D01*
X296910000Y-36255000D02*
X298390000Y-36255000D01*
X360875000Y-104819200D02*
X360875000Y-90975000D01*
X308499900Y-52544200D02*
X308499900Y-66132200D01*
X304478000Y-48522300D02*
X308499900Y-52544200D01*
X296665700Y-36635000D02*
X293149900Y-33119200D01*
X304478000Y-46160000D02*
X304478000Y-48522300D01*
X308499900Y-66132200D02*
X306112400Y-68519700D01*
X343874900Y-36344200D02*
X343874900Y-46360688D01*
X126294900Y-29419200D02*
X126294900Y-45179201D01*
X305999900Y-68669200D02*
X306112400Y-68556700D01*
X343649900Y-28314200D02*
X345574900Y-30239200D01*
X346650000Y-49135788D02*
X346650000Y-68975000D01*
X306112400Y-68556700D02*
X306112400Y-68519700D01*
X360875000Y-90975000D02*
X361325000Y-90525000D01*
X360074500Y-105619700D02*
X360875000Y-104819200D01*
X180025000Y-36000000D02*
X180025000Y-21319200D01*
X344374900Y-36594200D02*
X344374900Y-43775000D01*
X347150000Y-65450000D02*
X347150000Y-66150000D01*
X307248000Y-48792300D02*
X307248000Y-46160000D01*
X362562300Y-68886800D02*
X363900500Y-70225000D01*
X309949900Y-55444200D02*
X309949900Y-65669200D01*
X119549900Y-53469200D02*
X122687400Y-50331700D01*
X56200000Y-26475000D02*
X56200000Y-24369100D01*
X123754900Y-29419200D02*
X123754900Y-22219200D01*
X363850000Y-106450000D02*
X365375000Y-104925000D01*
X265750000Y-26475000D02*
X265750000Y-22344200D01*
X347175000Y-48953682D02*
X347175000Y-52300000D01*
X346074900Y-28199200D02*
X346074900Y-34894200D01*
X309949900Y-55444200D02*
X309949900Y-51494200D01*
X366525000Y-119625000D02*
X361425000Y-124725000D01*
X347150000Y-66150000D02*
X347500000Y-66500000D01*
X363850000Y-90750000D02*
X363850000Y-85575000D01*
X364397600Y-110800000D02*
X365762500Y-112164900D01*
X309949900Y-51494200D02*
X307248000Y-48792300D01*
X356210500Y-74193300D02*
X356210500Y-70252500D01*
X315960000Y-36255000D02*
X314060700Y-36255000D01*
X366525000Y-115250000D02*
X366525000Y-119625000D01*
X365375000Y-104925000D02*
X365375000Y-95675000D01*
X314060700Y-36255000D02*
X310274900Y-32469200D01*
X394337500Y-71275600D02*
X394349900Y-71263200D01*
X365762500Y-114487500D02*
X366525000Y-115250000D01*
X351159900Y-122324200D02*
X353217850Y-124382150D01*
X344374900Y-43775000D02*
X344374900Y-46153582D01*
X365375000Y-95675000D02*
X367075000Y-93975000D01*
X309949900Y-65669200D02*
X310224900Y-65944200D01*
X123754900Y-29419200D02*
X123754900Y-45179201D01*
X123754900Y-45179201D02*
X123739901Y-45194200D01*
X123739901Y-49279199D02*
X122687400Y-50331700D01*
X123739901Y-45194200D02*
X123739901Y-49279199D01*
X347150000Y-52325000D02*
X347150000Y-65450000D01*
X356210500Y-70252500D02*
X356237500Y-70225500D01*
X353217850Y-124382150D02*
X353560700Y-124725000D01*
X365762500Y-112164900D02*
X365762500Y-114487500D01*
X363850000Y-106450000D02*
X363850000Y-110350000D01*
X364300000Y-110800000D02*
X364397600Y-110800000D01*
X353560700Y-124725000D02*
X361425000Y-124725000D01*
X394337500Y-74100000D02*
X394337500Y-71275600D01*
X345185659Y-46964341D02*
X347175000Y-48953682D01*
X347175000Y-52300000D02*
X347150000Y-52325000D01*
X346074900Y-34894200D02*
X344374900Y-36594200D01*
X363850000Y-110350000D02*
X364300000Y-110800000D01*
X367075000Y-93975000D02*
X363850000Y-90750000D01*
X343649900Y-25774200D02*
X346074900Y-28199200D01*
X310274900Y-32469200D02*
X310274900Y-22344700D01*
X344374900Y-46153582D02*
X345185659Y-46964341D01*
X170500000Y-26475000D02*
X170500000Y-21319200D01*
X362562300Y-54825000D02*
X362562300Y-68886800D01*
X56200000Y-24369100D02*
X57724900Y-22844200D01*
X399450000Y-88017500D02*
X399450000Y-86825000D01*
X283049900Y-45119200D02*
X283824900Y-44344200D01*
X286174900Y-45094200D02*
X286792200Y-45094200D01*
X140424900Y-22156989D02*
X142143795Y-20438095D01*
X151450000Y-26475000D02*
X151450000Y-20169300D01*
X284761900Y-55050000D02*
X284761900Y-52494200D01*
X283824900Y-44344200D02*
X284474900Y-44344200D01*
X284761900Y-49731200D02*
X283049900Y-48019200D01*
X142487690Y-20094200D02*
X142143795Y-20438095D01*
X140424900Y-22469200D02*
X140424900Y-22156989D01*
X136439901Y-45194200D02*
X136439901Y-43234201D01*
X137349900Y-38519200D02*
X137349900Y-37519200D01*
X327499900Y-57169200D02*
X325380700Y-55050000D01*
X286792200Y-45094200D02*
X287858000Y-46160000D01*
X138724900Y-36144200D02*
X138724900Y-31689200D01*
X365675000Y-72512700D02*
X365675000Y-80475000D01*
X327474900Y-61619200D02*
X327499900Y-61594200D01*
X325380700Y-55050000D02*
X322900000Y-55050000D01*
X208600000Y-55050000D02*
X208600000Y-51694800D01*
X283049900Y-48019200D02*
X283049900Y-45419200D01*
X394337500Y-93130000D02*
X399450000Y-88017500D01*
X325840050Y-69404050D02*
X327474900Y-67769200D01*
X284761900Y-51743700D02*
X284761900Y-49731200D01*
X170500000Y-55050000D02*
X170500000Y-52168800D01*
X365675000Y-69617893D02*
X364428553Y-68371447D01*
X327499900Y-61594200D02*
X327499900Y-57169200D01*
X285424900Y-44344200D02*
X286174900Y-45094200D01*
X94300000Y-52274600D02*
X94299900Y-52274500D01*
X284474900Y-44344200D02*
X285424900Y-44344200D01*
X137349900Y-37519200D02*
X138724900Y-36144200D01*
X94300000Y-55050000D02*
X94300000Y-52274600D01*
X138274900Y-24619200D02*
X140424900Y-22469200D01*
X356237500Y-93120000D02*
X356237500Y-87584700D01*
X136439901Y-43234201D02*
X135999900Y-42794200D01*
X136439901Y-48829699D02*
X133049900Y-52219700D01*
X399450000Y-72725000D02*
X399025000Y-72300000D01*
X138274900Y-24619200D02*
X136454900Y-26439200D01*
X170500000Y-52168800D02*
X170499900Y-52168700D01*
X137074900Y-39194200D02*
X137074900Y-38794200D01*
X284761900Y-52494200D02*
X284761900Y-51743700D01*
X143399900Y-20094200D02*
X142487690Y-20094200D01*
X138724900Y-31689200D02*
X136454900Y-29419200D01*
X151450000Y-20169300D02*
X151424900Y-20144200D01*
X364525000Y-68275000D02*
X364525000Y-56175000D01*
X365675000Y-72512700D02*
X365675000Y-69617893D01*
X135999900Y-40269200D02*
X137074900Y-39194200D01*
X132412700Y-55050000D02*
X132412700Y-52856900D01*
X365675000Y-88450000D02*
X365700000Y-88475000D01*
X399450000Y-86825000D02*
X399450000Y-72725000D01*
X170500000Y-55050000D02*
X170500000Y-51694700D01*
X132412700Y-52856900D02*
X133049900Y-52219700D01*
X325840050Y-81919200D02*
X325840050Y-69404050D01*
X136454900Y-26439200D02*
X136454900Y-29419200D01*
X283049900Y-45419200D02*
X283049900Y-45119200D01*
X364428553Y-68371447D02*
X364525000Y-68275000D01*
X246700000Y-51694800D02*
X246699900Y-51694700D01*
X327474900Y-67769200D02*
X327474900Y-61619200D01*
X135999900Y-42794200D02*
X135999900Y-40269200D01*
X137074900Y-38794200D02*
X137349900Y-38519200D01*
X365675000Y-80475000D02*
X365675000Y-88450000D01*
X246700000Y-55050000D02*
X246700000Y-51694800D01*
X136439901Y-45194200D02*
X136439901Y-48829699D01*
X208600000Y-51694800D02*
X208599900Y-51694700D01*
X356237500Y-87584700D02*
X356224900Y-87572100D01*
X36772500Y-72216800D02*
X34937400Y-70381700D01*
X65699900Y-58319200D02*
X65699900Y-64519200D01*
X68925400Y-55590000D02*
X70135400Y-54380000D01*
X245112500Y-126769200D02*
X245112500Y-105294200D01*
X300449900Y-84193000D02*
X293905900Y-90737000D01*
X30800000Y-57590000D02*
X30800000Y-55590000D01*
X364725000Y-107119200D02*
X364725000Y-107100000D01*
X294024900Y-68669200D02*
X294649900Y-68669200D01*
X108674900Y-109870200D02*
X108674900Y-123269200D01*
X300323000Y-43320000D02*
X300323000Y-46943800D01*
X173675000Y-131790000D02*
X174885000Y-130580000D01*
X245112500Y-105294200D02*
X245112500Y-103806600D01*
X102237500Y-131790000D02*
X103447500Y-130580000D01*
X68925400Y-57590000D02*
X68925400Y-55590000D01*
X368937500Y-93660000D02*
X370147500Y-92450000D01*
X31424900Y-59219200D02*
X31424900Y-65019200D01*
X36772500Y-73430000D02*
X36772500Y-72216800D01*
X60585000Y-69634100D02*
X61387400Y-68831700D01*
X102237500Y-133790000D02*
X102237500Y-131790000D01*
X49875400Y-57590000D02*
X48199900Y-57590000D01*
X30800000Y-58594300D02*
X31424900Y-59219200D01*
X245112500Y-133790000D02*
X245112500Y-131790000D01*
X68925400Y-57590000D02*
X66429100Y-57590000D01*
X59971900Y-77236900D02*
X59971900Y-89116200D01*
X300323000Y-46943800D02*
X291868000Y-55398800D01*
X30800000Y-95690000D02*
X30800000Y-93690000D01*
X103447500Y-130580000D02*
X103447500Y-128496600D01*
X66429100Y-57590000D02*
X65699900Y-58319200D01*
X64899900Y-103744200D02*
X64899900Y-101669200D01*
X31624900Y-65219200D02*
X31624900Y-67069200D01*
X67737400Y-106581700D02*
X64899900Y-103744200D01*
X103447500Y-128496600D02*
X104524900Y-127419200D01*
X30800000Y-55590000D02*
X32010000Y-54380000D01*
X349887500Y-95660000D02*
X349887500Y-93660000D01*
X30800000Y-95690000D02*
X31599900Y-96489900D01*
X30800000Y-93690000D02*
X32010000Y-92480000D01*
X59971900Y-89116200D02*
X64899900Y-94044200D01*
X35562500Y-74640000D02*
X36772500Y-73430000D01*
X368937500Y-95660000D02*
X368937500Y-93660000D01*
X246322500Y-130580000D02*
X246322500Y-127979200D01*
X367000000Y-95660000D02*
X368937500Y-95660000D01*
X60585000Y-73430000D02*
X60585000Y-69634100D01*
X52049900Y-70844200D02*
X52049900Y-72393700D01*
X31424900Y-65019200D02*
X31624900Y-65219200D01*
X345649900Y-98519200D02*
X346674900Y-99544200D01*
X291868000Y-66512300D02*
X294024900Y-68669200D01*
X108674900Y-123269200D02*
X104524900Y-127419200D01*
X349887500Y-93660000D02*
X351097500Y-92450000D01*
X31624900Y-67069200D02*
X34937400Y-70381700D01*
X293905900Y-90737000D02*
X293905900Y-103444200D01*
X246322500Y-127979200D02*
X245112500Y-126769200D01*
X64899900Y-94044200D02*
X64899900Y-101669200D01*
X49875400Y-55590000D02*
X51085400Y-54380000D01*
X30800000Y-112740000D02*
X32010000Y-111530000D01*
X48199900Y-57590000D02*
X47099900Y-58690000D01*
X47099900Y-65894200D02*
X52049900Y-70844200D01*
X346674900Y-99544200D02*
X346674900Y-106694200D01*
X31599900Y-96489900D02*
X31599900Y-106644200D01*
X32010000Y-111530000D02*
X32010000Y-107054300D01*
X32010000Y-107054300D02*
X31599900Y-106644200D01*
X47099900Y-58690000D02*
X47099900Y-65894200D01*
X173675000Y-133790000D02*
X173675000Y-131790000D01*
X346674900Y-106694200D02*
X346649900Y-106719200D01*
X59375000Y-76640000D02*
X59375000Y-74640000D01*
X300449900Y-74469200D02*
X300449900Y-84193000D01*
X35562500Y-76640000D02*
X35562500Y-74640000D01*
X59375000Y-74640000D02*
X60585000Y-73430000D01*
X30800000Y-57590000D02*
X30800000Y-58594300D01*
X59375000Y-76640000D02*
X59971900Y-77236900D01*
X245112500Y-131790000D02*
X246322500Y-130580000D01*
X345649900Y-98169200D02*
X345649900Y-98519200D01*
X30800000Y-114740000D02*
X30800000Y-112740000D01*
X65699900Y-64519200D02*
X61387400Y-68831700D01*
X49875400Y-57590000D02*
X49875400Y-55590000D01*
X245112500Y-103806600D02*
X245124900Y-103794200D01*
X105548900Y-106744200D02*
X108674900Y-109870200D01*
X365925000Y-96735000D02*
X367000000Y-95660000D01*
X365925000Y-105900000D02*
X365925000Y-96735000D01*
X291868000Y-55398800D02*
X291868000Y-66512300D01*
X294649900Y-68669200D02*
X300449900Y-74469200D01*
X364725000Y-107100000D02*
X365925000Y-105900000D01*
X269013900Y-76640000D02*
X269013900Y-74640000D01*
X261974900Y-85994700D02*
X262524900Y-85444700D01*
X271874900Y-64319200D02*
X271874900Y-60844200D01*
X274897500Y-108891800D02*
X272449900Y-106444200D01*
X259400000Y-93690000D02*
X260610000Y-92480000D01*
X273687500Y-114740000D02*
X273687500Y-112740000D01*
X272574900Y-95569200D02*
X272574900Y-83694200D01*
X272599900Y-95594200D02*
X272449900Y-95744200D01*
X264524569Y-132621498D02*
X264524569Y-131351498D01*
X271874900Y-69094200D02*
X271062400Y-69906700D01*
X253932533Y-99601833D02*
X253932533Y-104711667D01*
X273687500Y-112740000D02*
X274897500Y-111530000D01*
X274897500Y-111530000D02*
X274897500Y-108891800D01*
X269013900Y-74640000D02*
X270223900Y-73430000D01*
X271429100Y-114740000D02*
X270149900Y-116019200D01*
X288063900Y-74640000D02*
X289273900Y-73430000D01*
X251085000Y-111530000D02*
X251085000Y-107559200D01*
X262524900Y-79569200D02*
X262524900Y-79369200D01*
X263929100Y-76640000D02*
X262524900Y-78044200D01*
X270149900Y-129463300D02*
X268261702Y-131351498D01*
X316943000Y-51544200D02*
X316943000Y-51743700D01*
X279621900Y-54380000D02*
X279621900Y-54459200D01*
X278411900Y-93690000D02*
X279621900Y-92480000D01*
X262524900Y-83694200D02*
X262524900Y-79569200D01*
X279621900Y-54459200D02*
X278411900Y-55669200D01*
X269013900Y-76640000D02*
X263929100Y-76640000D01*
X249875000Y-114740000D02*
X249875000Y-112740000D01*
X298710000Y-54308600D02*
X301274900Y-51743700D01*
X279621900Y-51996700D02*
X279874900Y-51743700D01*
X279621900Y-54380000D02*
X279621900Y-51996700D01*
X278411900Y-95690000D02*
X278411900Y-93690000D01*
X260900150Y-87069450D02*
X261974900Y-85994700D01*
X260610000Y-92480000D02*
X260610000Y-87359600D01*
X262524900Y-85444700D02*
X262524900Y-83694200D01*
X270223900Y-73430000D02*
X270223900Y-70745200D01*
X259400000Y-95690000D02*
X257844366Y-95690000D01*
X270223900Y-70745200D02*
X271062400Y-69906700D01*
X249875000Y-112740000D02*
X251085000Y-111530000D01*
X259400000Y-95690000D02*
X259400000Y-93690000D01*
X251085000Y-107559200D02*
X251624950Y-107019250D01*
X316943000Y-43320000D02*
X316943000Y-51544200D01*
X278411900Y-57590000D02*
X278411900Y-55669200D01*
X272599900Y-95594200D02*
X272574900Y-95569200D01*
X257844366Y-95690000D02*
X253932533Y-99601833D01*
X262524900Y-78044200D02*
X262524900Y-79369200D01*
X271874900Y-60844200D02*
X275129100Y-57590000D01*
X253932533Y-104711667D02*
X251624950Y-107019250D01*
X288063900Y-76640000D02*
X288063900Y-74640000D01*
X271874900Y-64319200D02*
X271874900Y-69094200D01*
X298710000Y-54380000D02*
X298710000Y-54308600D01*
X281449900Y-76969200D02*
X281449900Y-83694200D01*
X297500000Y-57590000D02*
X297500000Y-55590000D01*
X272449900Y-95744200D02*
X272449900Y-106444200D01*
X260610000Y-87359600D02*
X260900150Y-87069450D01*
X297500000Y-55590000D02*
X298710000Y-54380000D01*
X275129100Y-57590000D02*
X278411900Y-57590000D01*
X268261702Y-131351498D02*
X264524569Y-131351498D01*
X273687500Y-114740000D02*
X271429100Y-114740000D01*
X270149900Y-116019200D02*
X270149900Y-129463300D01*
X356297500Y-101950000D02*
X357507500Y-100740000D01*
X289274900Y-32919200D02*
X288099100Y-34095000D01*
X269799900Y-32369200D02*
X269799900Y-21569200D01*
X297500000Y-114740000D02*
X297500000Y-112740000D01*
X270674900Y-61119200D02*
X270674900Y-66794200D01*
X284860000Y-37305000D02*
X284860000Y-35305000D01*
X358761600Y-81813300D02*
X359150000Y-82201700D01*
X307025000Y-93690000D02*
X308235000Y-92480000D01*
X317721900Y-130580000D02*
X317721900Y-126416200D01*
X278450000Y-133790000D02*
X278450000Y-131790000D01*
X407037500Y-103308300D02*
X408247500Y-102098300D01*
X354775000Y-94550000D02*
X353600000Y-93375000D01*
X389197500Y-25805000D02*
X389197500Y-23331700D01*
X298722700Y-129754200D02*
X297512700Y-128544200D01*
X118624900Y-52493200D02*
X118624900Y-52469200D01*
X135149900Y-44194200D02*
X132774900Y-41819200D01*
X265810000Y-37305000D02*
X265810000Y-35305000D01*
X356297500Y-63973300D02*
X357507500Y-62763300D01*
X407037500Y-105308300D02*
X407037500Y-103308300D01*
X284749900Y-67787300D02*
X284749900Y-82444200D01*
X135575000Y-36540000D02*
X136785000Y-35330000D01*
X297512700Y-131790000D02*
X298722700Y-130580000D01*
X357125000Y-97000000D02*
X357125000Y-100357500D01*
X322960000Y-35305000D02*
X324170000Y-34095000D01*
X294704100Y-114740000D02*
X297500000Y-114740000D01*
X135575000Y-38540000D02*
X135575000Y-36540000D01*
X360799900Y-67000000D02*
X360799900Y-79775000D01*
X308799900Y-32569200D02*
X308799900Y-21569200D01*
X370147500Y-23306700D02*
X370075000Y-23234200D01*
X175599900Y-36615100D02*
X175599900Y-20544200D01*
X322960000Y-37305000D02*
X322960000Y-35305000D01*
X359699950Y-80874950D02*
X360799900Y-79775000D01*
X316550000Y-55590000D02*
X317760000Y-54380000D01*
X360797050Y-60625000D02*
X360799900Y-60627850D01*
X103424900Y-27019200D02*
X103424900Y-22093050D01*
X303999900Y-97194200D02*
X303999900Y-102169200D01*
X62574900Y-32294200D02*
X62574900Y-24544200D01*
X313399900Y-115794200D02*
X313399900Y-115969200D01*
X324124900Y-81750000D02*
X325169100Y-82794200D01*
X305504100Y-95690000D02*
X303999900Y-97194200D01*
X344874900Y-45946476D02*
X351753424Y-52825000D01*
X307274100Y-34095000D02*
X308799900Y-32569200D01*
X370147500Y-25805000D02*
X370147500Y-23306700D01*
X270674900Y-54494200D02*
X270674900Y-61119200D01*
X307025000Y-95690000D02*
X305504100Y-95690000D01*
X305120000Y-34095000D02*
X307274100Y-34095000D01*
X357507500Y-62763300D02*
X360788200Y-62763300D01*
X270674900Y-54494200D02*
X270674900Y-54300500D01*
X298722700Y-130580000D02*
X298722700Y-129754200D01*
X360797050Y-54647050D02*
X360797050Y-60625000D01*
X297512700Y-133790000D02*
X297512700Y-131790000D01*
X359699950Y-80874950D02*
X358761600Y-81813300D01*
X356270500Y-83023300D02*
X357480500Y-81813300D01*
X407037500Y-29015000D02*
X407037500Y-27015000D01*
X316550000Y-57590000D02*
X316550000Y-55590000D01*
X352450000Y-120925000D02*
X356300000Y-120925000D01*
X289274900Y-26969200D02*
X289274900Y-32919200D01*
X360788200Y-62763300D02*
X360799900Y-62775000D01*
X173675000Y-38540000D02*
X175599900Y-36615100D01*
X387987500Y-29015000D02*
X387987500Y-27015000D01*
X313399900Y-115969200D02*
X313399900Y-122094200D01*
X303999900Y-102169200D02*
X303989550Y-102179550D01*
X353600000Y-93375000D02*
X353600000Y-88476400D01*
X284860000Y-35305000D02*
X286070000Y-34095000D01*
X259574569Y-135161498D02*
X261963502Y-135161498D01*
X314454100Y-114740000D02*
X313462400Y-115731700D01*
X322274900Y-71219200D02*
X324124900Y-73069200D01*
X304349900Y-82794200D02*
X304349900Y-85995200D01*
X267020000Y-34095000D02*
X268575634Y-34095000D01*
X289118000Y-63419200D02*
X284749900Y-67787300D01*
X313399900Y-59319200D02*
X313399900Y-63944200D01*
X356300000Y-120925000D02*
X356325000Y-120900000D01*
X315129100Y-57590000D02*
X313399900Y-59319200D01*
X351300000Y-23234200D02*
X370075000Y-23234200D01*
X265810000Y-35305000D02*
X267020000Y-34095000D01*
X360799900Y-60627850D02*
X360799900Y-62775000D01*
X368937500Y-29015000D02*
X368937500Y-27015000D01*
X344874900Y-36801306D02*
X344874900Y-45946476D01*
X405676700Y-23234200D02*
X408247500Y-25805000D01*
X121214900Y-29419200D02*
X121214900Y-21468050D01*
X346574900Y-35101306D02*
X344874900Y-36801306D01*
X356297500Y-108577500D02*
X350300000Y-114575000D01*
X308235000Y-92480000D02*
X308235000Y-89880300D01*
X313462400Y-115731700D02*
X313399900Y-115794200D01*
X316550000Y-114740000D02*
X316550000Y-112740000D01*
X368937500Y-27015000D02*
X370147500Y-25805000D01*
X132774900Y-39844200D02*
X132749900Y-39819200D01*
X343649900Y-23234200D02*
X351300000Y-23234200D01*
X349887500Y-27015000D02*
X351097500Y-25805000D01*
X135174900Y-48918700D02*
X135174900Y-44194200D01*
X121214900Y-49879200D02*
X121214900Y-29419200D01*
X132749900Y-39819200D02*
X134029100Y-38540000D01*
X297512700Y-127519200D02*
X297512700Y-124857000D01*
X288099100Y-34095000D02*
X286070000Y-34095000D01*
X297500000Y-112740000D02*
X298710000Y-111530000D01*
X103424900Y-22093050D02*
X104049900Y-21468050D01*
X356297500Y-103950000D02*
X356297500Y-101950000D01*
X297512700Y-124857000D02*
X294074900Y-121419200D01*
X289118000Y-50190000D02*
X285088000Y-46160000D01*
X354775000Y-94650000D02*
X354775000Y-94550000D01*
X407037500Y-27015000D02*
X408247500Y-25805000D01*
X307025000Y-95690000D02*
X307025000Y-93690000D01*
X269799900Y-32870734D02*
X269799900Y-32369200D01*
X356325000Y-120900000D02*
X356394100Y-120900000D01*
X357125000Y-97000000D02*
X354775000Y-94650000D01*
X351097500Y-25805000D02*
X351097500Y-23436700D01*
X289118000Y-54019700D02*
X289118000Y-54894200D01*
X131424900Y-52668700D02*
X135174900Y-48918700D01*
X317721900Y-126416200D02*
X313399900Y-122094200D01*
X356394100Y-120900000D02*
X357509900Y-119784200D01*
X358975000Y-52825000D02*
X360797050Y-54647050D01*
X360799900Y-62775000D02*
X360799900Y-67000000D01*
X387987500Y-27015000D02*
X389197500Y-25805000D01*
X268575634Y-34095000D02*
X269799900Y-32870734D01*
X259574569Y-135161498D02*
X259574569Y-136431498D01*
X294074900Y-115369200D02*
X294704100Y-114740000D01*
X297512700Y-128544200D02*
X297512700Y-127519200D01*
X132774900Y-41819200D02*
X132774900Y-39844200D01*
X308235000Y-89880300D02*
X306674400Y-88319700D01*
X346574900Y-26159200D02*
X346574900Y-35101306D01*
X303910000Y-35305000D02*
X305120000Y-34095000D01*
X356299900Y-120994200D02*
X357509900Y-119784200D01*
X261963502Y-135161498D02*
X261975000Y-135150000D01*
X314174900Y-68419200D02*
X316974900Y-71219200D01*
X357480500Y-81813300D02*
X358761600Y-81813300D01*
X279660000Y-130440000D02*
X282580800Y-127519200D01*
X350300000Y-114575000D02*
X350300000Y-118775000D01*
X357125000Y-100357500D02*
X357507500Y-100740000D01*
X356270500Y-85023300D02*
X356270500Y-83023300D01*
X306674400Y-88319700D02*
X304386900Y-86032200D01*
X351097500Y-23436700D02*
X351300000Y-23234200D01*
X349887500Y-29015000D02*
X349887500Y-27015000D01*
X316550000Y-114740000D02*
X314454100Y-114740000D01*
X350300000Y-118775000D02*
X352450000Y-120925000D01*
X135174900Y-44194200D02*
X135149900Y-44194200D01*
X356299900Y-122994200D02*
X356299900Y-120994200D01*
X351753424Y-52825000D02*
X358975000Y-52825000D01*
X389100000Y-23234200D02*
X405676700Y-23234200D01*
X303910000Y-37305000D02*
X303910000Y-35305000D01*
X316550000Y-57590000D02*
X315129100Y-57590000D01*
X316974900Y-71219200D02*
X322274900Y-71219200D01*
X279660000Y-130580000D02*
X279660000Y-130440000D01*
X303989550Y-102179550D02*
X316550000Y-114740000D01*
X118624900Y-52469200D02*
X121214900Y-49879200D01*
X316511900Y-133790000D02*
X316511900Y-131790000D01*
X356297500Y-103950000D02*
X356297500Y-108577500D01*
X314174900Y-64719200D02*
X314174900Y-68419200D01*
X62574900Y-24544200D02*
X65574900Y-21544200D01*
X282580800Y-127519200D02*
X297512700Y-127519200D01*
X59375000Y-35494100D02*
X62574900Y-32294200D01*
X370075000Y-23234200D02*
X389100000Y-23234200D01*
X359150000Y-88301400D02*
X358975000Y-88476400D01*
X278450000Y-131790000D02*
X279660000Y-130580000D01*
X316511900Y-131790000D02*
X317721900Y-130580000D01*
X289274900Y-26969200D02*
X289274900Y-21569200D01*
X313399900Y-63944200D02*
X314174900Y-64719200D01*
X356297500Y-65973300D02*
X356297500Y-63973300D01*
X359150000Y-82201700D02*
X359150000Y-88301400D01*
X289118000Y-54019700D02*
X289118000Y-50190000D01*
X389197500Y-23331700D02*
X389100000Y-23234200D01*
X289118000Y-54894200D02*
X289118000Y-63419200D01*
X343649900Y-23234200D02*
X346574900Y-26159200D01*
X324124900Y-73069200D02*
X324124900Y-81750000D01*
X134029100Y-38540000D02*
X135575000Y-38540000D01*
X294074900Y-121419200D02*
X294074900Y-115369200D01*
X59375000Y-38540000D02*
X59375000Y-35494100D01*
X316550000Y-112740000D02*
X317760000Y-111530000D01*
X304349900Y-85995200D02*
X304386900Y-86032200D01*
D32*
X103499900Y-29419200D02*
X105974900Y-29419200D01*
X32345000Y-46500000D02*
X32345000Y-45220000D01*
X42149900Y-54919200D02*
X42149900Y-65144200D01*
X328449900Y-56444200D02*
X328449900Y-78644200D01*
D31*
X262774469Y-141650698D02*
X264475000Y-139950167D01*
D32*
X106974900Y-38419200D02*
X107574900Y-37819200D01*
X104724900Y-39394200D02*
X105699900Y-38419200D01*
X105959901Y-45194200D02*
X105959901Y-48809199D01*
X97899900Y-26475000D02*
X94300000Y-26475000D01*
X323012400Y-52981700D02*
X324987400Y-52981700D01*
X37745000Y-51625000D02*
X40125000Y-51625000D01*
D31*
X264475000Y-137751067D02*
X264524569Y-137701498D01*
D32*
X63550000Y-58125000D02*
X63550000Y-49669200D01*
X32345000Y-45220000D02*
X32325000Y-45200000D01*
X61374900Y-94844200D02*
X61374900Y-105144200D01*
X53500000Y-70975000D02*
X53500000Y-90450000D01*
X59875000Y-133475000D02*
X56775000Y-136575000D01*
X61327850Y-63147150D02*
X63550000Y-60925000D01*
X318328000Y-48297300D02*
X323012400Y-52981700D01*
X53500000Y-70975000D02*
X59240350Y-65234650D01*
X105959901Y-48809199D02*
X105949900Y-48819200D01*
X105974900Y-30619200D02*
X105974900Y-29419200D01*
X66574900Y-110344200D02*
X66619200Y-110344200D01*
X105959901Y-45194200D02*
X105959901Y-44004201D01*
X40150000Y-52919300D02*
X42149900Y-54919200D01*
X56775000Y-136575000D02*
X56775000Y-137625000D01*
X328449900Y-78644200D02*
X328449900Y-82405800D01*
D31*
X28535000Y-45215000D02*
X28850000Y-44900000D01*
D32*
X61374900Y-105144200D02*
X66574900Y-110344200D01*
X69900000Y-119325000D02*
X74950000Y-124375000D01*
X97905700Y-26469200D02*
X100549900Y-26469200D01*
D31*
X276575000Y-133150000D02*
X276575000Y-124369200D01*
D32*
X74950000Y-124375000D02*
X83300000Y-124375000D01*
X97899900Y-26475000D02*
X97905700Y-26469200D01*
X56200000Y-93150000D02*
X59680700Y-93150000D01*
D31*
X28535000Y-46500000D02*
X28535000Y-45215000D01*
D32*
X59680700Y-93150000D02*
X61374900Y-94844200D01*
X69900000Y-113625000D02*
X69900000Y-119325000D01*
X70825000Y-133475000D02*
X59875000Y-133475000D01*
X56750000Y-137600000D02*
X56775000Y-137625000D01*
X59240350Y-65234650D02*
X61327850Y-63147150D01*
X32025000Y-44900000D02*
X32325000Y-45200000D01*
X100549900Y-26469200D02*
X103499900Y-29419200D01*
X107574900Y-32219200D02*
X105974900Y-30619200D01*
X70825000Y-133475000D02*
X74200000Y-133475000D01*
X53500000Y-90450000D02*
X56200000Y-93150000D01*
D31*
X274750000Y-135875000D02*
X274750000Y-134975000D01*
X264475000Y-139950167D02*
X264475000Y-137751067D01*
D32*
X328399900Y-82455800D02*
X328449900Y-82405800D01*
X328399900Y-124543700D02*
X328399900Y-82455800D01*
X47823000Y-137600000D02*
X56750000Y-137600000D01*
X32345000Y-51450000D02*
X37570000Y-51450000D01*
X37570000Y-51450000D02*
X37745000Y-51625000D01*
X63550000Y-60925000D02*
X63550000Y-58125000D01*
D31*
X274750000Y-136975000D02*
X274750000Y-135875000D01*
D32*
X324987400Y-52981700D02*
X328449900Y-56444200D01*
D31*
X274750000Y-134975000D02*
X276575000Y-133150000D01*
D32*
X105959901Y-44004201D02*
X104724900Y-42769200D01*
X40125000Y-51625000D02*
X40150000Y-51650000D01*
X40150000Y-51650000D02*
X40150000Y-52919300D01*
X105699900Y-38419200D02*
X106974900Y-38419200D01*
X74200000Y-133475000D02*
X74275000Y-133400000D01*
X318328000Y-46160000D02*
X318328000Y-48297300D01*
X28850000Y-44900000D02*
X32025000Y-44900000D01*
X66619200Y-110344200D02*
X69900000Y-113625000D01*
X32345000Y-46500000D02*
X33325000Y-46500000D01*
X107574900Y-37819200D02*
X107574900Y-32219200D01*
X104724900Y-42769200D02*
X104724900Y-39394200D01*
X63349900Y-94919200D02*
X63349900Y-103744200D01*
X82750000Y-123350000D02*
X82850000Y-123250000D01*
D31*
X40150000Y-46700000D02*
X37820000Y-46700000D01*
D32*
X331800000Y-63840300D02*
X331884700Y-63925000D01*
D31*
X40185000Y-46665000D02*
X40185000Y-43325000D01*
X257325000Y-141201229D02*
X257774469Y-141650698D01*
D32*
X55299900Y-86869200D02*
X63349900Y-94919200D01*
X63349900Y-103744200D02*
X71200000Y-111594300D01*
X55299900Y-71744300D02*
X55299900Y-86869200D01*
X75975000Y-123350000D02*
X82750000Y-123350000D01*
X330925000Y-49925000D02*
X333550000Y-49925000D01*
D31*
X310018000Y-46160000D02*
X310018000Y-48737300D01*
D32*
X71200000Y-111594300D02*
X71200000Y-118575000D01*
X329744200Y-48744200D02*
X330925000Y-49925000D01*
D31*
X257424900Y-123319200D02*
X257325000Y-123419100D01*
D32*
X71200000Y-118575000D02*
X75975000Y-123350000D01*
D31*
X37820000Y-46700000D02*
X37745000Y-46625000D01*
D32*
X64775000Y-50219200D02*
X64775000Y-62269200D01*
D31*
X257431498Y-130081498D02*
X257325000Y-129975000D01*
D32*
X331884700Y-122134600D02*
X330674900Y-123344400D01*
D31*
X40150000Y-46700000D02*
X40185000Y-46665000D01*
D32*
X56874900Y-49069200D02*
X56874900Y-45369200D01*
D31*
X331889700Y-63920000D02*
X333550000Y-63920000D01*
D32*
X331884700Y-63925000D02*
X331884700Y-122134600D01*
D31*
X310018000Y-48737300D02*
X310024900Y-48744200D01*
D32*
X56874900Y-49069200D02*
X56874900Y-49418700D01*
D31*
X257325000Y-129975000D02*
X257325000Y-141201229D01*
X259574569Y-130081498D02*
X257431498Y-130081498D01*
X24725000Y-51450000D02*
X24725000Y-53200000D01*
D32*
X331800000Y-58425000D02*
X331800000Y-63840300D01*
D31*
X257325000Y-123419100D02*
X257325000Y-129975000D01*
D32*
X325000000Y-48744200D02*
X329744200Y-48744200D01*
X64775000Y-62269200D02*
X55299900Y-71744300D01*
D31*
X24725000Y-53200000D02*
X24700000Y-53225000D01*
D32*
X56874900Y-45369200D02*
X54299900Y-42794200D01*
D31*
X269800000Y-131225000D02*
X271325000Y-129700000D01*
X271575000Y-143800000D02*
X271600000Y-143825000D01*
X272675000Y-138525000D02*
X269800000Y-135650000D01*
X269800000Y-135650000D02*
X269800000Y-131225000D01*
X269150000Y-141875000D02*
X269150000Y-143100000D01*
X269150000Y-143100000D02*
X269850000Y-143800000D01*
X271600000Y-143825000D02*
X272675000Y-142750000D01*
X272675000Y-142750000D02*
X272675000Y-138525000D01*
X271325000Y-129700000D02*
X271325000Y-121394200D01*
X269850000Y-143800000D02*
X271575000Y-143800000D01*
X270450000Y-139025000D02*
X270450000Y-141875000D01*
X264524569Y-135161498D02*
X264524569Y-136431498D01*
X264524569Y-136431498D02*
X267856498Y-136431498D01*
X267856498Y-136431498D02*
X270450000Y-139025000D01*
X259574569Y-132621498D02*
X260854002Y-132621498D01*
X260854002Y-132621498D02*
X261325500Y-132150000D01*
X52944200Y-104069200D02*
X54975000Y-106100000D01*
X46249900Y-100369200D02*
X49949900Y-104069200D01*
X49099900Y-72019200D02*
X49099900Y-86869200D01*
X43960000Y-66879300D02*
X49099900Y-72019200D01*
X49949900Y-104069200D02*
X52944200Y-104069200D01*
X46249900Y-89719200D02*
X46249900Y-100369200D01*
X49099900Y-86869200D02*
X46249900Y-89719200D01*
X43960000Y-51650000D02*
X43960000Y-66879300D01*
X29450000Y-75550100D02*
X29474900Y-75575000D01*
X26725000Y-63975000D02*
X29450000Y-66700000D01*
X29474900Y-75575000D02*
X29474900Y-81069200D01*
X29474900Y-81069200D02*
X38424900Y-90019200D01*
X44849900Y-101294200D02*
X49655700Y-106100000D01*
X44849900Y-92469200D02*
X44849900Y-101294200D01*
X49655700Y-106100000D02*
X52435000Y-106100000D01*
X20449900Y-45775100D02*
X20449900Y-52458413D01*
X20449900Y-52458413D02*
X26725000Y-58733512D01*
X38424900Y-90019200D02*
X42399900Y-90019200D01*
X25875000Y-44775000D02*
X21450000Y-44775000D01*
X26725000Y-58733512D02*
X26725000Y-63975000D01*
X21450000Y-44775000D02*
X20449900Y-45775100D01*
X42399900Y-90019200D02*
X44849900Y-92469200D01*
X27350000Y-43300000D02*
X25875000Y-44775000D01*
X29450000Y-66700000D02*
X29450000Y-75550100D01*
X53025000Y-44850500D02*
X52750000Y-45125500D01*
X42690000Y-51650000D02*
X42690000Y-53319200D01*
X52750000Y-50844300D02*
X52774900Y-50869200D01*
X52750000Y-45125500D02*
X52750000Y-50844300D01*
X55225000Y-46449500D02*
X55325000Y-46349500D01*
X46125000Y-48450000D02*
X46900000Y-48450000D01*
X44750000Y-49825000D02*
X46125000Y-48450000D01*
X55225000Y-48350000D02*
X55225000Y-46449500D01*
X41420000Y-51650000D02*
X41420000Y-50405000D01*
X41420000Y-50405000D02*
X42000000Y-49825000D01*
X42000000Y-49825000D02*
X44750000Y-49825000D01*
X32430000Y-43300000D02*
X33992850Y-41737150D01*
X54300000Y-41300000D02*
X59700000Y-46700000D01*
X45555700Y-41769200D02*
X46024900Y-41300000D01*
X46024900Y-41300000D02*
X54300000Y-41300000D01*
X34024900Y-41769200D02*
X45555700Y-41769200D01*
X33992850Y-41737150D02*
X34024900Y-41769200D01*
X313061000Y-70205300D02*
X312374900Y-69519200D01*
X313061000Y-73430000D02*
X313061000Y-70205300D01*
X312788000Y-46160000D02*
X312788000Y-52806100D01*
X311851000Y-76640000D02*
X311851000Y-74640000D01*
X312788000Y-52806100D02*
X312374900Y-53219200D01*
X311851000Y-74640000D02*
X313061000Y-73430000D01*
X312374900Y-69519200D02*
X312374900Y-53219200D01*
X53674950Y-21069250D02*
X51487450Y-23256750D01*
X118674900Y-49544200D02*
X115449900Y-52769200D01*
X102949900Y-63757200D02*
X101368900Y-65338200D01*
X106825550Y-20718550D02*
X105549900Y-21994200D01*
X145100000Y-27015000D02*
X146310000Y-25805000D01*
X96130900Y-65338200D02*
X92749900Y-68719200D01*
X105549900Y-21994200D02*
X105549900Y-26469200D01*
X118674900Y-20743550D02*
X118699900Y-20718550D01*
X102949900Y-56019200D02*
X102949900Y-63757200D01*
X92749900Y-70344200D02*
X92737900Y-70356200D01*
X118674900Y-29419200D02*
X118674900Y-20743550D01*
X53674950Y-21069250D02*
X53875000Y-20869200D01*
X107114946Y-20718550D02*
X106825550Y-20718550D01*
X115449900Y-52769200D02*
X106199900Y-52769200D01*
X146310000Y-25805000D02*
X146310000Y-20554300D01*
X51060000Y-25805000D02*
X51060000Y-23684200D01*
X101399900Y-93252200D02*
X101399900Y-103819200D01*
X49850000Y-29015000D02*
X49850000Y-27015000D01*
X92737900Y-84590200D02*
X101399900Y-93252200D01*
X106199900Y-52769200D02*
X102949900Y-56019200D01*
X92749900Y-68719200D02*
X92749900Y-70344200D01*
X146310000Y-20554300D02*
X145074900Y-19319200D01*
X118674900Y-29419200D02*
X118674900Y-49544200D01*
X49850000Y-27015000D02*
X51060000Y-25805000D01*
X51060000Y-23684200D02*
X51487450Y-23256750D01*
X101368900Y-65338200D02*
X96130900Y-65338200D01*
X92737900Y-70356200D02*
X92737900Y-84590200D01*
X145100000Y-29015000D02*
X145100000Y-27015000D01*
X202250000Y-27015000D02*
X203460000Y-25805000D01*
X114674900Y-50279200D02*
X116134900Y-48819200D01*
X330984700Y-109005770D02*
X330984700Y-57415300D01*
X203460000Y-25805000D02*
X203460000Y-25054300D01*
X116134900Y-29419200D02*
X116134900Y-23809200D01*
X116134900Y-23809200D02*
X116149900Y-23794200D01*
X202250000Y-29015000D02*
X202250000Y-27015000D01*
X30800000Y-29015000D02*
X30800000Y-27015000D01*
X219699900Y-23869700D02*
X219699900Y-29094200D01*
X164150000Y-27015000D02*
X165360000Y-25805000D01*
X165360000Y-25805000D02*
X161660700Y-25805000D01*
X161660700Y-25805000D02*
X159649900Y-23794200D01*
X30800000Y-27015000D02*
X32010000Y-25805000D01*
X116134900Y-29419200D02*
X116134900Y-48819200D01*
X203460000Y-25054300D02*
X202224900Y-23819200D01*
X114674900Y-50669200D02*
X114674900Y-50279200D01*
X164150000Y-29015000D02*
X164150000Y-27015000D01*
X219724900Y-23844700D02*
X219699900Y-23869700D01*
X330235200Y-111985800D02*
X330449400Y-112200000D01*
X297160700Y-25805000D02*
X295124900Y-23769200D01*
X278450000Y-29015000D02*
X278450000Y-27015000D01*
X70110000Y-23182450D02*
X70110000Y-23107450D01*
X278450000Y-27015000D02*
X279660000Y-25805000D01*
X295124900Y-23769200D02*
X295124900Y-23794700D01*
X113594900Y-51814700D02*
X113599900Y-51819700D01*
X295124900Y-23794700D02*
X295174900Y-23844700D01*
X113594900Y-29419200D02*
X113594900Y-22972550D01*
X297500000Y-27015000D02*
X298710000Y-25805000D01*
X260610000Y-25805000D02*
X258860700Y-25805000D01*
X297500000Y-29015000D02*
X297500000Y-27015000D01*
X330235200Y-56439200D02*
X330235200Y-111985800D01*
X258860700Y-25805000D02*
X256899900Y-23844200D01*
X68900000Y-29015000D02*
X68900000Y-27015000D01*
X316550000Y-29015000D02*
X316550000Y-27015000D01*
X113594900Y-29419200D02*
X113594900Y-51814700D01*
X70110000Y-23107450D02*
X70249900Y-22967550D01*
X316550000Y-27015000D02*
X317760000Y-25805000D01*
X279660000Y-25805000D02*
X279660000Y-25054700D01*
X259400000Y-29015000D02*
X259400000Y-27015000D01*
X279660000Y-25054700D02*
X278450000Y-23844700D01*
X70110000Y-25805000D02*
X70110000Y-23182450D01*
X259400000Y-27015000D02*
X260610000Y-25805000D01*
X68900000Y-27015000D02*
X70110000Y-25805000D01*
X330449400Y-56225000D02*
X330235200Y-56439200D01*
X298710000Y-25805000D02*
X297160700Y-25805000D01*
X244249900Y-29094200D02*
X244249900Y-23844200D01*
X113594900Y-22972550D02*
X113599900Y-22967550D01*
X329199900Y-114724900D02*
X329199900Y-56300000D01*
X329199900Y-56174900D02*
X325300000Y-52275000D01*
X329199900Y-56300000D02*
X329199900Y-56174900D01*
X329200000Y-114725000D02*
X329199900Y-114724900D01*
X32475000Y-49825000D02*
X38375000Y-49825000D01*
X28025000Y-48400000D02*
X29450000Y-49825000D01*
X27265000Y-46500000D02*
X27265000Y-47640000D01*
X29450000Y-49825000D02*
X32475000Y-49825000D01*
X111049900Y-47354200D02*
X111049900Y-51118700D01*
X325300000Y-52275000D02*
X323250000Y-50225000D01*
X111054900Y-29419200D02*
X111054900Y-47349200D01*
X27265000Y-47640000D02*
X28025000Y-48400000D01*
X111054900Y-47349200D02*
X111049900Y-47354200D01*
X329299300Y-114725000D02*
X329200000Y-114725000D01*
X323250000Y-50225000D02*
X322800000Y-50225000D01*
X38375000Y-49825000D02*
X38700000Y-50150000D01*
X329299400Y-114724900D02*
X329299300Y-114725000D01*
X329699900Y-55975000D02*
X329699900Y-113750000D01*
X35574900Y-52819200D02*
X36030700Y-53275000D01*
X329699900Y-113899900D02*
X330250000Y-114450000D01*
X329699900Y-55549900D02*
X325700000Y-51550000D01*
X31649900Y-52819200D02*
X35574900Y-52819200D01*
X329699900Y-55975000D02*
X329699900Y-55549900D01*
X329699900Y-113750000D02*
X329699900Y-113899900D01*
X330250000Y-114450000D02*
X330250000Y-117275000D01*
X31075000Y-51450000D02*
X31075000Y-52244300D01*
X31075000Y-52244300D02*
X31649900Y-52819200D01*
X36030700Y-53275000D02*
X38925000Y-53275000D01*
X45230000Y-51650000D02*
X45325000Y-51745000D01*
X45325000Y-64894100D02*
X45274900Y-64944200D01*
X45324900Y-63219300D02*
X45325000Y-63219200D01*
X45325000Y-51745000D02*
X45325000Y-63219200D01*
X45324900Y-66319200D02*
X45324900Y-63219300D01*
X45325000Y-63219200D02*
X45325000Y-64894100D01*
X50599900Y-71969200D02*
X50599900Y-87019200D01*
X51060000Y-92480000D02*
X51060000Y-87479300D01*
X49850000Y-93690000D02*
X51060000Y-92480000D01*
X46500000Y-51650000D02*
X46500000Y-50025000D01*
X47050000Y-49475000D02*
X49075000Y-49475000D01*
X49900000Y-48650000D02*
X49900000Y-45420000D01*
X51060000Y-87479300D02*
X50599900Y-87019200D01*
X46500000Y-67869300D02*
X50599900Y-71969200D01*
X46500000Y-51650000D02*
X46500000Y-67869300D01*
X49850000Y-95690000D02*
X49850000Y-93690000D01*
X46500000Y-50025000D02*
X47050000Y-49475000D01*
X49900000Y-45420000D02*
X47805000Y-43325000D01*
X49075000Y-49475000D02*
X49900000Y-48650000D01*
X62074900Y-48919200D02*
X62074900Y-48844200D01*
X49799900Y-50049062D02*
X50920138Y-50049062D01*
X47770000Y-50400000D02*
X48120938Y-50049062D01*
X80224900Y-33344200D02*
X84554100Y-29015000D01*
X87950000Y-27015000D02*
X89160000Y-25805000D01*
X84554100Y-29015000D02*
X87950000Y-29015000D01*
X62774900Y-48144200D02*
X63425000Y-48144200D01*
X63425000Y-48144200D02*
X66600000Y-44969200D01*
X80224900Y-36344200D02*
X80224900Y-33344200D01*
X62074900Y-48844200D02*
X62774900Y-48144200D01*
X46715000Y-41875000D02*
X51250000Y-41875000D01*
X45265000Y-43325000D02*
X46715000Y-41875000D01*
X87950000Y-29015000D02*
X87950000Y-27015000D01*
X47770000Y-50400000D02*
X47770000Y-51650000D01*
X66600000Y-40150000D02*
X68780800Y-37969200D01*
X78599900Y-37969200D02*
X80224900Y-36344200D01*
X51725000Y-49244200D02*
X51725000Y-42350000D01*
X66600000Y-44969200D02*
X66600000Y-40150000D01*
X50920138Y-50049062D02*
X51725000Y-49244200D01*
X48120938Y-50049062D02*
X49799900Y-50049062D01*
X51250000Y-41875000D02*
X51725000Y-42350000D01*
X68780800Y-37969200D02*
X78599900Y-37969200D01*
X47770000Y-45195000D02*
X47770000Y-46700000D01*
X47350000Y-44775000D02*
X47525000Y-44950000D01*
X108499901Y-47794699D02*
X108374900Y-47919700D01*
X112225050Y-19969050D02*
X112934374Y-19969050D01*
X183200000Y-29015000D02*
X183200000Y-27015000D01*
X184410000Y-25805000D02*
X184410000Y-21179300D01*
X108499901Y-29434199D02*
X108514900Y-29419200D01*
X48600000Y-48450000D02*
X49150500Y-47899500D01*
X108499901Y-45194200D02*
X108499901Y-29434199D01*
X47770000Y-46700000D02*
X47770000Y-48120000D01*
X111974900Y-20219200D02*
X112225050Y-19969050D01*
X111974900Y-24434200D02*
X111974900Y-20219200D01*
X48075000Y-48425000D02*
X48575000Y-48425000D01*
X184410000Y-21179300D02*
X183199900Y-19969200D01*
X183200000Y-27015000D02*
X184410000Y-25805000D01*
X44175000Y-44775000D02*
X47350000Y-44775000D01*
X108514900Y-29419200D02*
X108514900Y-27894200D01*
X108499901Y-45194200D02*
X108499901Y-47794699D01*
X42725000Y-43325000D02*
X44175000Y-44775000D01*
X47525000Y-44950000D02*
X47770000Y-45195000D01*
X49150500Y-47899500D02*
X49150500Y-47450000D01*
X47770000Y-48120000D02*
X48075000Y-48425000D01*
X108514900Y-27894200D02*
X111974900Y-24434200D01*
X48575000Y-48425000D02*
X48600000Y-48450000D01*
X29805000Y-46500000D02*
X29805000Y-47780000D01*
X44350000Y-49325000D02*
X31350000Y-49325000D01*
X45230000Y-48445000D02*
X44350000Y-49325000D01*
X29805000Y-47780000D02*
X31350000Y-49325000D01*
X45230000Y-46700000D02*
X45230000Y-48445000D01*
X43975000Y-48650000D02*
X43800000Y-48825000D01*
X31075000Y-47725000D02*
X32175000Y-48825000D01*
X43960000Y-46700000D02*
X43975000Y-46715000D01*
X31075000Y-46500000D02*
X31075000Y-47725000D01*
X43800000Y-48825000D02*
X32175000Y-48825000D01*
X43975000Y-46715000D02*
X43975000Y-48650000D01*
X35650000Y-48325000D02*
X35249400Y-48325000D01*
X41420000Y-46700000D02*
X41420000Y-47980000D01*
X27249900Y-49394200D02*
X27249900Y-51434900D01*
X27249900Y-51434900D02*
X27265000Y-51450000D01*
X41420000Y-47980000D02*
X41075000Y-48325000D01*
X35249400Y-48325000D02*
X34999900Y-48075500D01*
X41075000Y-48325000D02*
X35650000Y-48325000D01*
D33*
X337450312Y-14950000D02*
G75*
G03*
X337450312Y-14950000I-1000312J0D01*
G01*
X337475312Y-17950000D02*
G75*
G03*
X337475312Y-17950000I-1000312J0D01*
G01*
X64675000Y-145850000D02*
G75*
G03*
X64675000Y-145850000I-1300000J0D01*
G01*
X23575000Y-145875000D02*
G75*
G03*
X23575000Y-145875000I-1300000J0D01*
G01*
X412150000Y-141175000D02*
G75*
G03*
X412150000Y-141175000I-1300000J0D01*
G01*
X159775000Y-14975000D02*
G75*
G03*
X159775000Y-14975000I-1300000J0D01*
G01*
X35875000Y-141275000D02*
G75*
G03*
X35875000Y-141275000I-1300000J0D01*
G01*
X54950000Y-15000000D02*
G75*
G03*
X54950000Y-15000000I-1300000J0D01*
G01*
X268900000Y-15150000D02*
G75*
G03*
X268900000Y-15150000I-1300000J0D01*
G01*
X393125000Y-15025000D02*
G75*
G03*
X393125000Y-15025000I-1300000J0D01*
G01*
X237326921Y-38924999D02*
X231201921Y-38924999D01*
X337500312Y-98225000D02*
G75*
G03*
X337500312Y-98225000I-1000312J0D01*
G01*
X262228841Y-38925000D02*
G75*
G03*
X262228841Y-40925000I-41J-1000000D01*
G01*
X373800000Y-65200000D02*
X373800000Y-71325000D01*
X168450000Y-38775000D02*
X147450000Y-38775000D01*
X375800000Y-90075000D02*
X375800000Y-83950000D01*
X337500000Y-55025000D02*
X337500000Y-42425001D01*
X231201921Y-38925000D02*
G75*
G03*
X231201921Y-40925000I-21J-1000000D01*
G01*
X401687500Y-38825000D02*
X395562500Y-38825000D01*
X355825000Y-38774999D02*
G75*
G03*
X355825000Y-40775001I0J-1000001D01*
G01*
X55150000Y-38949999D02*
X49025000Y-38949999D01*
X395562500Y-38824999D02*
G75*
G03*
X395562500Y-40825001I0J-1000001D01*
G01*
X60550000Y-142275001D02*
X66675000Y-142275001D01*
X313940376Y-40925000D02*
X320065376Y-40925000D01*
X272571148Y-38925000D02*
G75*
G03*
X272571148Y-40925000I-48J-1000000D01*
G01*
X413625000Y-40875001D02*
X419750000Y-40875001D01*
X226800000Y-15000000D02*
G75*
G03*
X226800000Y-15000000I-1300000J0D01*
G01*
X50575000Y-142250001D02*
X56700000Y-142250001D01*
X216642307Y-40925001D02*
G75*
G03*
X216642307Y-38924999I-7J1000001D01*
G01*
X361950000Y-38775000D02*
X355825000Y-38775000D01*
X404593750Y-40850001D02*
X410718750Y-40850001D01*
X380325000Y-145825000D02*
G75*
G03*
X380325000Y-145825000I-1300000J0D01*
G01*
X196800000Y-38900000D02*
X190675000Y-38900000D01*
X333025000Y-133625000D02*
G75*
G03*
X333025000Y-133625000I-1300000J0D01*
G01*
X330407683Y-40925001D02*
G75*
G03*
X330407683Y-38924999I17J1000001D01*
G01*
X115850212Y-39769200D02*
G75*
G03*
X115850212Y-39769200I-1000312J0D01*
G01*
X375800000Y-44700000D02*
G75*
G03*
X373800000Y-44700000I-1000000J0D01*
G01*
X337500312Y-65225000D02*
G75*
G03*
X337500312Y-65225000I-1000312J0D01*
G01*
X71250000Y-40744201D02*
X87650000Y-40744200D01*
X342350000Y-14950000D02*
G75*
G03*
X342350000Y-14950000I-1300000J0D01*
G01*
X335500000Y-36875000D02*
G75*
G03*
X337500000Y-36875000I1000000J0D01*
G01*
X335500000Y-124625000D02*
G75*
G03*
X337500000Y-124625000I1000000J0D01*
G01*
X190675000Y-40900001D02*
X196800000Y-40900001D01*
X120925212Y-39769200D02*
G75*
G03*
X120925212Y-39769200I-1000312J0D01*
G01*
X375800000Y-122700000D02*
G75*
G03*
X373800000Y-122700000I-1000000J0D01*
G01*
X210517307Y-38925000D02*
G75*
G03*
X210517307Y-40925000I-7J-1000000D01*
G01*
X375800000Y-65200000D02*
G75*
G03*
X373800000Y-65200000I-1000000J0D01*
G01*
X337500000Y-118500000D02*
G75*
G03*
X335500000Y-118500000I-1000000J0D01*
G01*
X330407683Y-38924999D02*
X324282683Y-38924999D01*
X190675000Y-38899999D02*
G75*
G03*
X190675000Y-40900001I0J-1000001D01*
G01*
X335500000Y-20975000D02*
X335500000Y-27100000D01*
X373800000Y-131625000D02*
X373800000Y-137750000D01*
X268353841Y-40925001D02*
G75*
G03*
X268353841Y-38924999I-41J1000001D01*
G01*
X45650000Y-40950001D02*
G75*
G03*
X45650000Y-38949999I0J1000001D01*
G01*
X337500312Y-77925000D02*
G75*
G03*
X337500312Y-77925000I-1000312J0D01*
G01*
X371575000Y-40775000D02*
G75*
G03*
X371575000Y-38775000I0J1000000D01*
G01*
X66675000Y-140275000D02*
X60550000Y-140275000D01*
X206300000Y-38924999D02*
X200175000Y-38924999D01*
X337500312Y-90600000D02*
G75*
G03*
X337500312Y-90600000I-1000312J0D01*
G01*
X320065376Y-38924999D02*
X313940376Y-38924999D01*
X226984614Y-40925001D02*
G75*
G03*
X226984614Y-38924999I-14J1000001D01*
G01*
X128550212Y-39769200D02*
G75*
G03*
X128550212Y-39769200I-1000312J0D01*
G01*
X200175000Y-38925000D02*
G75*
G03*
X200175000Y-40925000I0J-1000000D01*
G01*
X373827000Y-140394000D02*
X373827000Y-150046000D01*
X293255762Y-38925000D02*
G75*
G03*
X293255762Y-40925000I38J-1000000D01*
G01*
X410718750Y-40850000D02*
G75*
G03*
X410718750Y-38850000I-50J1000000D01*
G01*
X36050000Y-38925000D02*
X29925000Y-38925000D01*
X39525000Y-40950000D02*
X45650000Y-40950000D01*
X373800000Y-90075000D02*
G75*
G03*
X375800000Y-90075000I1000000J0D01*
G01*
X335499999Y-127225002D02*
X335500000Y-138225002D01*
X335499999Y-42425001D02*
X335500000Y-55025001D01*
X375800000Y-131625000D02*
G75*
G03*
X373800000Y-131625000I-1000000J0D01*
G01*
X335500000Y-30750000D02*
X335500000Y-36875000D01*
X375800000Y-128825000D02*
X375800000Y-122700000D01*
X196800000Y-40900000D02*
G75*
G03*
X196800000Y-38900000I0J1000000D01*
G01*
X395562500Y-40825001D02*
X401687500Y-40825001D01*
X346400000Y-38799999D02*
G75*
G03*
X346400000Y-40800001I0J-1000001D01*
G01*
X401687500Y-40825000D02*
G75*
G03*
X401687500Y-38825000I0J1000000D01*
G01*
X216642307Y-38924999D02*
X210517307Y-38924999D01*
X333375000Y-31400000D02*
G75*
G03*
X333375000Y-31400000I-1300000J0D01*
G01*
X337500312Y-100775000D02*
G75*
G03*
X337500312Y-100775000I-1000312J0D01*
G01*
X83525000Y-133425000D02*
G75*
G03*
X83525000Y-133425000I-1300000J0D01*
G01*
X337500312Y-75375000D02*
G75*
G03*
X337500312Y-75375000I-1000312J0D01*
G01*
X352525000Y-38800000D02*
X346400000Y-38800000D01*
X373800000Y-128825000D02*
G75*
G03*
X375800000Y-128825000I1000000J0D01*
G01*
X49025000Y-40950000D02*
X55150000Y-40950000D01*
X87650000Y-40744200D02*
G75*
G03*
X87650000Y-38744200I0J1000000D01*
G01*
X113350212Y-39769200D02*
G75*
G03*
X113350212Y-39769200I-1000312J0D01*
G01*
X365450000Y-40775001D02*
X371575000Y-40775001D01*
X220859614Y-40925000D02*
X226984614Y-40925000D01*
X419200000Y-133375000D02*
G75*
G03*
X419200000Y-133375000I-1300000J0D01*
G01*
X373800000Y-36025000D02*
X373800000Y-42150000D01*
X377500000Y-38824999D02*
G75*
G03*
X377500000Y-40825001I0J-1000001D01*
G01*
X419750000Y-38875000D02*
X413625000Y-38875000D01*
X123500212Y-39769200D02*
G75*
G03*
X123500212Y-39769200I-1000312J0D01*
G01*
X375800000Y-119087500D02*
X375800000Y-112962500D01*
X282913455Y-40925000D02*
X289038455Y-40925000D01*
X55150000Y-40950001D02*
G75*
G03*
X55150000Y-38949999I0J1000001D01*
G01*
X373827000Y-140394000D02*
X310962000Y-140394000D01*
X373800000Y-119087500D02*
G75*
G03*
X375800000Y-119087500I1000000J0D01*
G01*
X22625000Y-140224999D02*
G75*
G03*
X22625000Y-142225001I0J-1000001D01*
G01*
X375800000Y-36025000D02*
G75*
G03*
X373800000Y-36025000I-1000000J0D01*
G01*
X373800000Y-71325000D02*
G75*
G03*
X375800000Y-71325000I1000000J0D01*
G01*
X72725000Y-150050000D02*
X72725000Y-140275000D01*
X373800000Y-83950000D02*
X373800000Y-90075000D01*
X422500000Y-12450000D02*
X18100000Y-12450000D01*
X247669228Y-40925001D02*
G75*
G03*
X247669228Y-38924999I-28J1000001D01*
G01*
X404593750Y-38849999D02*
G75*
G03*
X404593750Y-40850001I-50J-1000001D01*
G01*
X251886534Y-40925000D02*
X258011534Y-40925000D01*
X50575000Y-140249999D02*
G75*
G03*
X50575000Y-142250001I0J-1000001D01*
G01*
X337500312Y-95675000D02*
G75*
G03*
X337500312Y-95675000I-1000312J0D01*
G01*
X36050000Y-40925000D02*
G75*
G03*
X36050000Y-38925000I0J1000000D01*
G01*
X337500000Y-30750000D02*
G75*
G03*
X335500000Y-30750000I-1000000J0D01*
G01*
X419750000Y-40875000D02*
G75*
G03*
X419750000Y-38875000I0J1000000D01*
G01*
X335500000Y-55025001D02*
G75*
G03*
X337500000Y-55025000I1000000J1D01*
G01*
X45650000Y-38949999D02*
X39525000Y-38949999D01*
X334625000Y-40925000D02*
X340750000Y-40925000D01*
X335500000Y-118500000D02*
X335500000Y-124625000D01*
X303598069Y-38925000D02*
G75*
G03*
X303598069Y-40925000I31J-1000000D01*
G01*
X83925124Y-15000000D02*
G75*
G03*
X83925124Y-15000000I-1300000J0D01*
G01*
X373800000Y-42150000D02*
G75*
G03*
X375800000Y-42150000I1000000J0D01*
G01*
X226984614Y-38924999D02*
X220859614Y-38924999D01*
X278696148Y-40925001D02*
G75*
G03*
X278696148Y-38924999I-48J1000001D01*
G01*
X47400000Y-142225000D02*
G75*
G03*
X47400000Y-140225000I0J1000000D01*
G01*
X375800000Y-83950000D02*
G75*
G03*
X373800000Y-83950000I-1000000J0D01*
G01*
X241544228Y-38925000D02*
G75*
G03*
X241544228Y-40925000I-28J-1000000D01*
G01*
X39525000Y-38950000D02*
G75*
G03*
X39525000Y-40950000I0J-1000000D01*
G01*
X274175000Y-133425000D02*
G75*
G03*
X274175000Y-133425000I-1300000J0D01*
G01*
X337500312Y-80450000D02*
G75*
G03*
X337500312Y-80450000I-1000312J0D01*
G01*
X320065376Y-40925001D02*
G75*
G03*
X320065376Y-38924999I24J1000001D01*
G01*
X200175000Y-40925000D02*
X206300000Y-40925000D01*
X377500000Y-40825001D02*
X383625000Y-40825001D01*
X352525000Y-40800000D02*
G75*
G03*
X352525000Y-38800000I0J1000000D01*
G01*
X241544228Y-40925000D02*
X247669228Y-40925000D01*
X381100000Y-44900000D02*
G75*
G03*
X381100000Y-44900000I-1300000J0D01*
G01*
X375800000Y-103412500D02*
G75*
G03*
X373800000Y-103412500I-1000000J0D01*
G01*
X147450000Y-38775000D02*
G75*
G03*
X147450000Y-40775000I0J-1000000D01*
G01*
X23750208Y-98200000D02*
G75*
G03*
X23750208Y-98200000I-1500208J0D01*
G01*
X373800000Y-44700000D02*
X373800000Y-50825000D01*
X337500312Y-62675000D02*
G75*
G03*
X337500312Y-62675000I-1000312J0D01*
G01*
X251886534Y-38925000D02*
G75*
G03*
X251886534Y-40925000I-34J-1000000D01*
G01*
X250350000Y-15000000D02*
G75*
G03*
X250350000Y-15000000I-1300000J0D01*
G01*
X206300000Y-40925001D02*
G75*
G03*
X206300000Y-38924999I0J1000001D01*
G01*
X337500312Y-105850000D02*
G75*
G03*
X337500312Y-105850000I-1000312J0D01*
G01*
X168450000Y-40775000D02*
G75*
G03*
X168450000Y-38775000I0J1000000D01*
G01*
X22625000Y-142225001D02*
X28750000Y-142225001D01*
X35925000Y-133400000D02*
G75*
G03*
X35925000Y-133400000I-1300000J0D01*
G01*
X337500000Y-138225003D02*
X337500000Y-127225002D01*
X375800000Y-50825000D02*
X375800000Y-44700000D01*
X110775212Y-39769200D02*
G75*
G03*
X110775212Y-39769200I-1000312J0D01*
G01*
X26025000Y-38925000D02*
X19900000Y-38925000D01*
X373800000Y-103412500D02*
X373800000Y-109537500D01*
X383625000Y-40825000D02*
G75*
G03*
X383625000Y-38825000I0J1000000D01*
G01*
X247669228Y-38924999D02*
X241544228Y-38924999D01*
X375800000Y-137750000D02*
X375800000Y-131625000D01*
X337499999Y-127225002D02*
G75*
G03*
X335499999Y-127225002I-1000000J1D01*
G01*
X346400000Y-40800001D02*
X352525000Y-40800001D01*
X337500001Y-42425001D02*
G75*
G03*
X335499999Y-42425001I-1000001J0D01*
G01*
X337500312Y-72850000D02*
G75*
G03*
X337500312Y-72850000I-1000312J0D01*
G01*
X29925000Y-38924999D02*
G75*
G03*
X29925000Y-40925001I0J-1000001D01*
G01*
X334625000Y-38925000D02*
G75*
G03*
X334625000Y-40925000I0J-1000000D01*
G01*
X324282683Y-40925000D02*
X330407683Y-40925000D01*
X419150000Y-14975000D02*
G75*
G03*
X419150000Y-14975000I-1300000J0D01*
G01*
X24024876Y-31450000D02*
G75*
G03*
X24024876Y-31450000I-1300000J0D01*
G01*
X19900000Y-38924999D02*
G75*
G03*
X19900000Y-40925001I0J-1000001D01*
G01*
X373800000Y-122700000D02*
X373800000Y-128825000D01*
X268353841Y-38924999D02*
X262228841Y-38924999D01*
X289038455Y-38924999D02*
X282913455Y-38924999D01*
X373800000Y-50825000D02*
G75*
G03*
X375800000Y-50825000I1000000J0D01*
G01*
X337500312Y-60125000D02*
G75*
G03*
X337500312Y-60125000I-1000312J0D01*
G01*
X371575000Y-38775000D02*
X365450000Y-38775000D01*
X23550000Y-133500000D02*
G75*
G03*
X23550000Y-133500000I-1300000J0D01*
G01*
X355249876Y-15000000D02*
G75*
G03*
X355249876Y-15000000I-1300000J0D01*
G01*
X71050312Y-141300000D02*
G75*
G03*
X71050312Y-141300000I-1000312J0D01*
G01*
X107600000Y-14975000D02*
G75*
G03*
X107600000Y-14975000I-1300000J0D01*
G01*
X337500312Y-103325000D02*
G75*
G03*
X337500312Y-103325000I-1000312J0D01*
G01*
X126025212Y-39769200D02*
G75*
G03*
X126025212Y-39769200I-1000312J0D01*
G01*
X337500312Y-88075000D02*
G75*
G03*
X337500312Y-88075000I-1000312J0D01*
G01*
X421000312Y-141300000D02*
G75*
G03*
X421000312Y-141300000I-1000312J0D01*
G01*
X337500000Y-124625000D02*
X337500000Y-118500000D01*
X335500000Y-27100000D02*
G75*
G03*
X337500000Y-27100000I1000000J0D01*
G01*
X337500312Y-82975000D02*
G75*
G03*
X337500312Y-82975000I-1000312J0D01*
G01*
X131125212Y-39769200D02*
G75*
G03*
X131125212Y-39769200I-1000312J0D01*
G01*
X18100000Y-16950000D02*
X18100000Y-12450000D01*
X231201921Y-40925000D02*
X237326921Y-40925000D01*
X309723069Y-40925001D02*
G75*
G03*
X309723069Y-38924999I31J1000001D01*
G01*
X392656250Y-40825000D02*
G75*
G03*
X392656250Y-38825000I-50J1000000D01*
G01*
X220859614Y-38925000D02*
G75*
G03*
X220859614Y-40925000I-14J-1000000D01*
G01*
X355825000Y-40775001D02*
X361950000Y-40775001D01*
X337500312Y-110925000D02*
G75*
G03*
X337500312Y-110925000I-1000312J0D01*
G01*
X375800000Y-109537500D02*
X375800000Y-103412500D01*
X237326921Y-40925001D02*
G75*
G03*
X237326921Y-38924999I-21J1000001D01*
G01*
X373800000Y-112962500D02*
X373800000Y-119087500D01*
X386531250Y-38824999D02*
G75*
G03*
X386531250Y-40825001I-50J-1000001D01*
G01*
X337500312Y-67750000D02*
G75*
G03*
X337500312Y-67750000I-1000312J0D01*
G01*
X49025000Y-38950000D02*
G75*
G03*
X49025000Y-40950000I0J-1000000D01*
G01*
X337500312Y-116000000D02*
G75*
G03*
X337500312Y-116000000I-1000312J0D01*
G01*
X370375000Y-133425000D02*
G75*
G03*
X370375000Y-133425000I-1300000J0D01*
G01*
X18075000Y-150050000D02*
X18100000Y-16950000D01*
X71250000Y-38744200D02*
X87650000Y-38744200D01*
X422500000Y-150050000D02*
X373827000Y-150046000D01*
X375800000Y-71325000D02*
X375800000Y-65200000D01*
X375800000Y-42150000D02*
X375800000Y-36025000D01*
X337500000Y-36875000D02*
X337500000Y-30750000D01*
X258011534Y-38924999D02*
X251886534Y-38924999D01*
X41275000Y-140224999D02*
G75*
G03*
X41275000Y-142225001I0J-1000001D01*
G01*
X337500312Y-70300000D02*
G75*
G03*
X337500312Y-70300000I-1000312J0D01*
G01*
X355475000Y-44225000D02*
G75*
G03*
X355475000Y-44225000I-1300000J0D01*
G01*
X293255762Y-40925000D02*
X299380762Y-40925000D01*
X422500000Y-16950000D02*
X422500000Y-12450000D01*
X375800000Y-112962500D02*
G75*
G03*
X373800000Y-112962500I-1000000J0D01*
G01*
X60550000Y-140274999D02*
G75*
G03*
X60550000Y-142275001I0J-1000001D01*
G01*
X236350000Y-31425000D02*
G75*
G03*
X236350000Y-31425000I-1300000J0D01*
G01*
X278696148Y-38924999D02*
X272571148Y-38924999D01*
X66675000Y-142275000D02*
G75*
G03*
X66675000Y-140275000I0J1000000D01*
G01*
X26025000Y-40925000D02*
G75*
G03*
X26025000Y-38925000I0J1000000D01*
G01*
X335500000Y-138225002D02*
G75*
G03*
X337500000Y-138225003I1000000J2D01*
G01*
X337500000Y-27100000D02*
X337500000Y-20975000D01*
X19900000Y-40925001D02*
X26025000Y-40925001D01*
X258011534Y-40925001D02*
G75*
G03*
X258011534Y-38924999I-34J1000001D01*
G01*
X28900000Y-18625000D02*
G75*
G03*
X28900000Y-18625000I-1300000J0D01*
G01*
X337500000Y-20975000D02*
G75*
G03*
X335500000Y-20975000I-1000000J0D01*
G01*
X419125000Y-44900000D02*
G75*
G03*
X419125000Y-44900000I-1300000J0D01*
G01*
X299380762Y-38924999D02*
X293255762Y-38924999D01*
X410718750Y-38850000D02*
X404593750Y-38850000D01*
X303598069Y-40925000D02*
X309723069Y-40925000D01*
X373800000Y-109537500D02*
G75*
G03*
X375800000Y-109537500I1000000J0D01*
G01*
X313940376Y-38925000D02*
G75*
G03*
X313940376Y-40925000I24J-1000000D01*
G01*
X282913455Y-38925000D02*
G75*
G03*
X282913455Y-40925000I45J-1000000D01*
G01*
X56700000Y-140250000D02*
X50575000Y-140250000D01*
X337500312Y-113475000D02*
G75*
G03*
X337500312Y-113475000I-1000312J0D01*
G01*
X361950000Y-40775000D02*
G75*
G03*
X361950000Y-38775000I0J1000000D01*
G01*
X337500312Y-57575000D02*
G75*
G03*
X337500312Y-57575000I-1000312J0D01*
G01*
X365450000Y-38774999D02*
G75*
G03*
X365450000Y-40775001I0J-1000001D01*
G01*
X355225000Y-133425000D02*
G75*
G03*
X355225000Y-133425000I-1300000J0D01*
G01*
X272571148Y-40925000D02*
X278696148Y-40925000D01*
X20925000Y-141225000D02*
G75*
G03*
X20925000Y-141225000I-1000312J0D01*
G01*
X413625000Y-38874999D02*
G75*
G03*
X413625000Y-40875001I0J-1000001D01*
G01*
X310962000Y-150046000D02*
X89728000Y-150046000D01*
X310962000Y-140394000D02*
X310962000Y-150046000D01*
X309723069Y-38924999D02*
X303598069Y-38924999D01*
X324282683Y-38925000D02*
G75*
G03*
X324282683Y-40925000I17J-1000000D01*
G01*
X89728000Y-140267000D02*
X72725000Y-140275000D01*
X207425000Y-44275000D02*
G75*
G03*
X207425000Y-44275000I-1300000J0D01*
G01*
X28750000Y-142225000D02*
G75*
G03*
X28750000Y-140225000I0J1000000D01*
G01*
X337500312Y-85525000D02*
G75*
G03*
X337500312Y-85525000I-1000312J0D01*
G01*
X289038455Y-40925001D02*
G75*
G03*
X289038455Y-38924999I45J1000001D01*
G01*
X386531250Y-40825001D02*
X392656250Y-40825001D01*
X89728000Y-150046000D02*
X89728000Y-140267000D01*
X210517307Y-40925000D02*
X216642307Y-40925000D01*
X337500312Y-93150000D02*
G75*
G03*
X337500312Y-93150000I-1000312J0D01*
G01*
X118375212Y-39769200D02*
G75*
G03*
X118375212Y-39769200I-1000312J0D01*
G01*
X56700000Y-142250000D02*
G75*
G03*
X56700000Y-140250000I0J1000000D01*
G01*
X299380762Y-40925001D02*
G75*
G03*
X299380762Y-38924999I38J1000001D01*
G01*
X340750000Y-38924999D02*
X334625000Y-38924999D01*
X41275000Y-142225001D02*
X47400000Y-142225001D01*
X29925000Y-40925001D02*
X36050000Y-40925001D01*
X147450000Y-40775000D02*
X168450000Y-40775000D01*
X340750000Y-40925001D02*
G75*
G03*
X340750000Y-38924999I0J1000001D01*
G01*
X373800000Y-137750000D02*
G75*
G03*
X375800000Y-137750000I1000000J0D01*
G01*
X383625000Y-38825000D02*
X377500000Y-38825000D01*
X337500312Y-108375000D02*
G75*
G03*
X337500312Y-108375000I-1000312J0D01*
G01*
X72725000Y-150050000D02*
X18075000Y-150050000D01*
X419225000Y-145825000D02*
G75*
G03*
X419225000Y-145825000I-1300000J0D01*
G01*
X422500000Y-16950000D02*
X422500000Y-150050000D01*
X262228841Y-40925000D02*
X268353841Y-40925000D01*
X47400000Y-140225000D02*
X41275000Y-140225000D01*
X71250000Y-38744199D02*
G75*
G03*
X71250000Y-40744201I0J-1000001D01*
G01*
X28750000Y-140225000D02*
X22625000Y-140225000D01*
X392656250Y-38825000D02*
X386531250Y-38825000D01*
M02*
