G04 #@! TF.GenerationSoftware,KiCad,Pcbnew,7.0.6*
G04 #@! TF.CreationDate,2023-09-01T19:36:20-04:00*
G04 #@! TF.ProjectId,C128SX-mx,43313238-5358-42d6-9d78-2e6b69636164,1.0*
G04 #@! TF.SameCoordinates,Original*
G04 #@! TF.FileFunction,Copper,L1,Top*
G04 #@! TF.FilePolarity,Positive*
%FSLAX46Y46*%
G04 Gerber Fmt 4.6, Leading zero omitted, Abs format (unit mm)*
G04 Created by KiCad (PCBNEW 7.0.6) date 2023-09-01 19:36:20*
%MOMM*%
%LPD*%
G01*
G04 APERTURE LIST*
G04 #@! TA.AperFunction,ComponentPad*
%ADD10C,2.200000*%
G04 #@! TD*
G04 #@! TA.AperFunction,ComponentPad*
%ADD11O,1.900000X2.450000*%
G04 #@! TD*
G04 #@! TA.AperFunction,ComponentPad*
%ADD12O,2.450000X1.900000*%
G04 #@! TD*
G04 #@! TA.AperFunction,ComponentPad*
%ADD13R,1.800000X1.800000*%
G04 #@! TD*
G04 #@! TA.AperFunction,ComponentPad*
%ADD14C,1.800000*%
G04 #@! TD*
G04 #@! TA.AperFunction,ComponentPad*
%ADD15C,2.500000*%
G04 #@! TD*
G04 #@! TA.AperFunction,ComponentPad*
%ADD16C,1.400000*%
G04 #@! TD*
G04 #@! TA.AperFunction,ComponentPad*
%ADD17O,1.400000X1.400000*%
G04 #@! TD*
G04 #@! TA.AperFunction,ComponentPad*
%ADD18R,1.700000X1.700000*%
G04 #@! TD*
G04 #@! TA.AperFunction,ComponentPad*
%ADD19O,1.700000X1.700000*%
G04 #@! TD*
G04 #@! TA.AperFunction,ComponentPad*
%ADD20R,1.600000X1.600000*%
G04 #@! TD*
G04 #@! TA.AperFunction,ComponentPad*
%ADD21O,1.600000X1.600000*%
G04 #@! TD*
G04 #@! TA.AperFunction,ComponentPad*
%ADD22C,1.600000*%
G04 #@! TD*
G04 #@! TA.AperFunction,ComponentPad*
%ADD23C,4.000000*%
G04 #@! TD*
G04 #@! TA.AperFunction,ViaPad*
%ADD24C,0.800000*%
G04 #@! TD*
G04 #@! TA.AperFunction,Conductor*
%ADD25C,0.300000*%
G04 #@! TD*
G04 #@! TA.AperFunction,Conductor*
%ADD26C,0.600000*%
G04 #@! TD*
G04 #@! TA.AperFunction,Profile*
%ADD27C,0.050000*%
G04 #@! TD*
G04 APERTURE END LIST*
D10*
X37150000Y-93150000D03*
D11*
X39010000Y-93530000D03*
D10*
X30800000Y-95690000D03*
D12*
X32010000Y-92480000D03*
D10*
X37150000Y-112200000D03*
D11*
X39010000Y-112580000D03*
D10*
X30800000Y-114740000D03*
D12*
X32010000Y-111530000D03*
D10*
X41912500Y-74100000D03*
D11*
X43772500Y-74480000D03*
D10*
X35562500Y-76640000D03*
D12*
X36772500Y-73430000D03*
D13*
X47823000Y-137600000D03*
D14*
X45283000Y-137600000D03*
D10*
X60962500Y-112200000D03*
D11*
X62822500Y-112580000D03*
D10*
X54612500Y-114740000D03*
D12*
X55822500Y-111530000D03*
D10*
X284761900Y-55050000D03*
D11*
X286621900Y-55430000D03*
D10*
X278411900Y-57590000D03*
D12*
X279621900Y-54380000D03*
D10*
X313375000Y-93150000D03*
D11*
X315235000Y-93530000D03*
D10*
X307025000Y-95690000D03*
D12*
X308235000Y-92480000D03*
D10*
X189550000Y-55050000D03*
D11*
X191410000Y-55430000D03*
D10*
X183200000Y-57590000D03*
D12*
X184410000Y-54380000D03*
D10*
X170500000Y-55050000D03*
D11*
X172360000Y-55430000D03*
D10*
X164150000Y-57590000D03*
D12*
X165360000Y-54380000D03*
D10*
X208600000Y-55050000D03*
D11*
X210460000Y-55430000D03*
D10*
X202250000Y-57590000D03*
D12*
X203460000Y-54380000D03*
D10*
X132412700Y-55050000D03*
D11*
X134272700Y-55430000D03*
D10*
X126062700Y-57590000D03*
D12*
X127272700Y-54380000D03*
D10*
X94300000Y-55050000D03*
D11*
X96160000Y-55430000D03*
D10*
X87950000Y-57590000D03*
D12*
X89160000Y-54380000D03*
D10*
X65725000Y-74100000D03*
D11*
X67585000Y-74480000D03*
D10*
X59375000Y-76640000D03*
D12*
X60585000Y-73430000D03*
D10*
X113350000Y-55050000D03*
D11*
X115210000Y-55430000D03*
D10*
X107000000Y-57590000D03*
D12*
X108210000Y-54380000D03*
D10*
X227650000Y-55050000D03*
D11*
X229510000Y-55430000D03*
D10*
X221300000Y-57590000D03*
D12*
X222510000Y-54380000D03*
D10*
X56225400Y-55050000D03*
D11*
X58085400Y-55430000D03*
D10*
X49875400Y-57590000D03*
D12*
X51085400Y-54380000D03*
D10*
X303850000Y-112200000D03*
D11*
X305710000Y-112580000D03*
D10*
X297500000Y-114740000D03*
D12*
X298710000Y-111530000D03*
D10*
X75275400Y-55050000D03*
D11*
X77135400Y-55430000D03*
D10*
X68925400Y-57590000D03*
D12*
X70135400Y-54380000D03*
D10*
X199075000Y-112200000D03*
D11*
X200935000Y-112580000D03*
D10*
X192725000Y-114740000D03*
D12*
X193935000Y-111530000D03*
D10*
X84775000Y-74100000D03*
D11*
X86635000Y-74480000D03*
D10*
X78425000Y-76640000D03*
D12*
X79635000Y-73430000D03*
D10*
X132400000Y-93150000D03*
D11*
X134260000Y-93530000D03*
D10*
X126050000Y-95690000D03*
D12*
X127260000Y-92480000D03*
D10*
X141925000Y-74100000D03*
D11*
X143785000Y-74480000D03*
D10*
X135575000Y-76640000D03*
D12*
X136785000Y-73430000D03*
D10*
X151450000Y-93150000D03*
D11*
X153310000Y-93530000D03*
D10*
X145100000Y-95690000D03*
D12*
X146310000Y-92480000D03*
D10*
X284761900Y-93150000D03*
D11*
X286621900Y-93530000D03*
D10*
X278411900Y-95690000D03*
D12*
X279621900Y-92480000D03*
D10*
X303850000Y-55050000D03*
D11*
X305710000Y-55430000D03*
D10*
X297500000Y-57590000D03*
D12*
X298710000Y-54380000D03*
D10*
X218125000Y-112200000D03*
D11*
X219985000Y-112580000D03*
D10*
X211775000Y-114740000D03*
D12*
X212985000Y-111530000D03*
D10*
X170487300Y-93150000D03*
D11*
X172347300Y-93530000D03*
D10*
X164137300Y-95690000D03*
D12*
X165347300Y-92480000D03*
D10*
X246700000Y-93150000D03*
D11*
X248560000Y-93530000D03*
D10*
X240350000Y-95690000D03*
D12*
X241560000Y-92480000D03*
D10*
X256402800Y-74100000D03*
D11*
X258262800Y-74480000D03*
D10*
X250052800Y-76640000D03*
D12*
X251262800Y-73430000D03*
D10*
X84775000Y-112200000D03*
D11*
X86635000Y-112580000D03*
D10*
X78425000Y-114740000D03*
D12*
X79635000Y-111530000D03*
D10*
X65725000Y-36000000D03*
D11*
X67585000Y-36380000D03*
D10*
X59375000Y-38540000D03*
D12*
X60585000Y-35330000D03*
D10*
X180025000Y-36000000D03*
D11*
X181885000Y-36380000D03*
D10*
X173675000Y-38540000D03*
D12*
X174885000Y-35330000D03*
D10*
X141925000Y-36000000D03*
D11*
X143785000Y-36380000D03*
D10*
X135575000Y-38540000D03*
D12*
X136785000Y-35330000D03*
D10*
X103825000Y-36000000D03*
D11*
X105685000Y-36380000D03*
D10*
X97475000Y-38540000D03*
D12*
X98685000Y-35330000D03*
D10*
X265750000Y-93150000D03*
D11*
X267610000Y-93530000D03*
D10*
X259400000Y-95690000D03*
D12*
X260610000Y-92480000D03*
D10*
X322900000Y-55050000D03*
D11*
X324760000Y-55430000D03*
D10*
X316550000Y-57590000D03*
D12*
X317760000Y-54380000D03*
D10*
X151450000Y-55050000D03*
D11*
X153310000Y-55430000D03*
D10*
X145100000Y-57590000D03*
D12*
X146310000Y-54380000D03*
D10*
X199303600Y-74100000D03*
D11*
X201163600Y-74480000D03*
D10*
X192953600Y-76640000D03*
D12*
X194163600Y-73430000D03*
D10*
X113350000Y-93150000D03*
D11*
X115210000Y-93530000D03*
D10*
X107000000Y-95690000D03*
D12*
X108210000Y-92480000D03*
D10*
X237340100Y-74100000D03*
D11*
X239200100Y-74480000D03*
D10*
X230990100Y-76640000D03*
D12*
X232200100Y-73430000D03*
D10*
X227650000Y-93150000D03*
D11*
X229510000Y-93530000D03*
D10*
X221300000Y-95690000D03*
D12*
X222510000Y-92480000D03*
D10*
X161038500Y-74100000D03*
D11*
X162898500Y-74480000D03*
D10*
X154688500Y-76640000D03*
D12*
X155898500Y-73430000D03*
D10*
X218264700Y-74100000D03*
D11*
X220124700Y-74480000D03*
D10*
X211914700Y-76640000D03*
D12*
X213124700Y-73430000D03*
D10*
X265737300Y-55050000D03*
D11*
X267597300Y-55430000D03*
D10*
X259387300Y-57590000D03*
D12*
X260597300Y-54380000D03*
D10*
X180113900Y-74100000D03*
D11*
X181973900Y-74480000D03*
D10*
X173763900Y-76640000D03*
D12*
X174973900Y-73430000D03*
D10*
X75250000Y-93150000D03*
D11*
X77110000Y-93530000D03*
D10*
X68900000Y-95690000D03*
D12*
X70110000Y-92480000D03*
D10*
X122875000Y-74100000D03*
D11*
X124735000Y-74480000D03*
D10*
X116525000Y-76640000D03*
D12*
X117735000Y-73430000D03*
D10*
X103825000Y-74100000D03*
D11*
X105685000Y-74480000D03*
D10*
X97475000Y-76640000D03*
D12*
X98685000Y-73430000D03*
D10*
X208587300Y-93150000D03*
D11*
X210447300Y-93530000D03*
D10*
X202237300Y-95690000D03*
D12*
X203447300Y-92480000D03*
D10*
X189537300Y-93150000D03*
D11*
X191397300Y-93530000D03*
D10*
X183187300Y-95690000D03*
D12*
X184397300Y-92480000D03*
D10*
X246700000Y-55050000D03*
D11*
X248560000Y-55430000D03*
D10*
X240350000Y-57590000D03*
D12*
X241560000Y-54380000D03*
D10*
X122875000Y-112200000D03*
D11*
X124735000Y-112580000D03*
D10*
X116525000Y-114740000D03*
D12*
X117735000Y-111530000D03*
D10*
X103825000Y-112200000D03*
D11*
X105685000Y-112580000D03*
D10*
X97475000Y-114740000D03*
D12*
X98685000Y-111530000D03*
D10*
X237175000Y-112200000D03*
D11*
X239035000Y-112580000D03*
D10*
X230825000Y-114740000D03*
D12*
X232035000Y-111530000D03*
D10*
X180025000Y-112200000D03*
D11*
X181885000Y-112580000D03*
D10*
X173675000Y-114740000D03*
D12*
X174885000Y-111530000D03*
D10*
X94300000Y-93150000D03*
D11*
X96160000Y-93530000D03*
D10*
X87950000Y-95690000D03*
D12*
X89160000Y-92480000D03*
D10*
X256225000Y-112200000D03*
D11*
X258085000Y-112580000D03*
D10*
X249875000Y-114740000D03*
D12*
X251085000Y-111530000D03*
D10*
X141925000Y-112200000D03*
D11*
X143785000Y-112580000D03*
D10*
X135575000Y-114740000D03*
D12*
X136785000Y-111530000D03*
D10*
X160975000Y-112200000D03*
D11*
X162835000Y-112580000D03*
D10*
X154625000Y-114740000D03*
D12*
X155835000Y-111530000D03*
D10*
X275363900Y-74100000D03*
D11*
X277223900Y-74480000D03*
D10*
X269013900Y-76640000D03*
D12*
X270223900Y-73430000D03*
D10*
X303862700Y-131250000D03*
D11*
X305722700Y-131630000D03*
D10*
X297512700Y-133790000D03*
D12*
X298722700Y-130580000D03*
D10*
X322861900Y-131250000D03*
D11*
X324721900Y-131630000D03*
D10*
X316511900Y-133790000D03*
D12*
X317721900Y-130580000D03*
D10*
X280037500Y-112200000D03*
D11*
X281897500Y-112580000D03*
D10*
X273687500Y-114740000D03*
D12*
X274897500Y-111530000D03*
D10*
X284800000Y-131250000D03*
D11*
X286660000Y-131630000D03*
D10*
X278450000Y-133790000D03*
D12*
X279660000Y-130580000D03*
D13*
X56775000Y-137625000D03*
D14*
X59315000Y-137625000D03*
D10*
X180025000Y-131250000D03*
D15*
X181885000Y-131630000D03*
D10*
X173675000Y-133790000D03*
D15*
X174885000Y-130580000D03*
D10*
X356237500Y-55143300D03*
D11*
X358097500Y-55523300D03*
D10*
X349887500Y-57683300D03*
D12*
X351097500Y-54473300D03*
D10*
X189550000Y-26475000D03*
D11*
X191410000Y-26855000D03*
D10*
X183200000Y-29015000D03*
D12*
X184410000Y-25805000D03*
D10*
X56200000Y-93150000D03*
D11*
X58060000Y-93530000D03*
D10*
X49850000Y-95690000D03*
D12*
X51060000Y-92480000D03*
D10*
X351157500Y-103280000D03*
D11*
X349297500Y-102900000D03*
D10*
X357507500Y-100740000D03*
D12*
X356297500Y-103950000D03*
D10*
X260670000Y-36635000D03*
D11*
X258810000Y-36255000D03*
D10*
X267020000Y-34095000D03*
D12*
X265810000Y-37305000D03*
D10*
X37150000Y-55050000D03*
D11*
X39010000Y-55430000D03*
D10*
X30800000Y-57590000D03*
D12*
X32010000Y-54380000D03*
D10*
X375287500Y-55090000D03*
D11*
X377147500Y-55470000D03*
D10*
X368937500Y-57630000D03*
D12*
X370147500Y-54420000D03*
D10*
X94300000Y-26475000D03*
D11*
X96160000Y-26855000D03*
D10*
X87950000Y-29015000D03*
D12*
X89160000Y-25805000D03*
D13*
X54975000Y-106100000D03*
D14*
X52435000Y-106100000D03*
D10*
X298770000Y-36635000D03*
D11*
X296910000Y-36255000D03*
D10*
X305120000Y-34095000D03*
D12*
X303910000Y-37305000D03*
D13*
X185775000Y-40500000D03*
D14*
X188315000Y-40500000D03*
D10*
X356237500Y-93120000D03*
D11*
X358097500Y-93500000D03*
D10*
X349887500Y-95660000D03*
D12*
X351097500Y-92450000D03*
D10*
X351130500Y-84353300D03*
D11*
X349270500Y-83973300D03*
D10*
X357480500Y-81813300D03*
D12*
X356270500Y-85023300D03*
D10*
X279720000Y-36635000D03*
D11*
X277860000Y-36255000D03*
D10*
X286070000Y-34095000D03*
D12*
X284860000Y-37305000D03*
D10*
X375287500Y-93120000D03*
D11*
X377147500Y-93500000D03*
D10*
X368937500Y-95660000D03*
D12*
X370147500Y-92450000D03*
D10*
X151450000Y-26475000D03*
D11*
X153310000Y-26855000D03*
D10*
X145100000Y-29015000D03*
D12*
X146310000Y-25805000D03*
D10*
X394337500Y-55050000D03*
D11*
X396197500Y-55430000D03*
D10*
X387987500Y-57590000D03*
D12*
X389197500Y-54380000D03*
D10*
X413387500Y-26475000D03*
D11*
X415247500Y-26855000D03*
D10*
X407037500Y-29015000D03*
D12*
X408247500Y-25805000D03*
D10*
X108587500Y-131250000D03*
D11*
X110447500Y-131630000D03*
D10*
X102237500Y-133790000D03*
D12*
X103447500Y-130580000D03*
D10*
X322900000Y-26475000D03*
D11*
X324760000Y-26855000D03*
D10*
X316550000Y-29015000D03*
D12*
X317760000Y-25805000D03*
D10*
X322900000Y-112200000D03*
D11*
X324760000Y-112580000D03*
D10*
X316550000Y-114740000D03*
D12*
X317760000Y-111530000D03*
D10*
X394337500Y-112190000D03*
D11*
X396197500Y-112570000D03*
D10*
X387987500Y-114730000D03*
D12*
X389197500Y-111520000D03*
D10*
X294413900Y-74100000D03*
D11*
X296273900Y-74480000D03*
D10*
X288063900Y-76640000D03*
D12*
X289273900Y-73430000D03*
D10*
X170500000Y-26475000D03*
D11*
X172360000Y-26855000D03*
D10*
X164150000Y-29015000D03*
D12*
X165360000Y-25805000D03*
D10*
X303850000Y-26475000D03*
D11*
X305710000Y-26855000D03*
D10*
X297500000Y-29015000D03*
D12*
X298710000Y-25805000D03*
D10*
X318201000Y-74100000D03*
D11*
X320061000Y-74480000D03*
D10*
X311851000Y-76640000D03*
D12*
X313061000Y-73430000D03*
D10*
X284800000Y-26475000D03*
D11*
X286660000Y-26855000D03*
D10*
X278450000Y-29015000D03*
D12*
X279660000Y-25805000D03*
D10*
X394337500Y-74100000D03*
D11*
X396197500Y-74480000D03*
D10*
X387987500Y-76640000D03*
D12*
X389197500Y-73430000D03*
D10*
X265750000Y-26475000D03*
D11*
X267610000Y-26855000D03*
D10*
X259400000Y-29015000D03*
D12*
X260610000Y-25805000D03*
D10*
X356237500Y-26475000D03*
D11*
X358097500Y-26855000D03*
D10*
X349887500Y-29015000D03*
D12*
X351097500Y-25805000D03*
D10*
X56200000Y-26475000D03*
D11*
X58060000Y-26855000D03*
D10*
X49850000Y-29015000D03*
D12*
X51060000Y-25805000D03*
D10*
X356210500Y-74193300D03*
D11*
X358070500Y-74573300D03*
D10*
X349860500Y-76733300D03*
D12*
X351070500Y-73523300D03*
D10*
X375287500Y-26475000D03*
D11*
X377147500Y-26855000D03*
D10*
X368937500Y-29015000D03*
D12*
X370147500Y-25805000D03*
D10*
X317820000Y-36635000D03*
D11*
X315960000Y-36255000D03*
D10*
X324170000Y-34095000D03*
D12*
X322960000Y-37305000D03*
D10*
X351159900Y-122324200D03*
D11*
X349299900Y-121944200D03*
D10*
X357509900Y-119784200D03*
D12*
X356299900Y-122994200D03*
D10*
X375287500Y-74193300D03*
D11*
X377147500Y-74573300D03*
D10*
X368937500Y-76733300D03*
D12*
X370147500Y-73523300D03*
D10*
X37150000Y-26475000D03*
D11*
X39010000Y-26855000D03*
D10*
X30800000Y-29015000D03*
D12*
X32010000Y-25805000D03*
D10*
X394337500Y-93130000D03*
D11*
X396197500Y-93510000D03*
D10*
X387987500Y-95670000D03*
D12*
X389197500Y-92460000D03*
D10*
X75250000Y-26475000D03*
D11*
X77110000Y-26855000D03*
D10*
X68900000Y-29015000D03*
D12*
X70110000Y-25805000D03*
D10*
X365762500Y-112164900D03*
D11*
X367622500Y-112544900D03*
D10*
X359412500Y-114704900D03*
D12*
X360622500Y-111494900D03*
D10*
X208600000Y-26475000D03*
D11*
X210460000Y-26855000D03*
D10*
X202250000Y-29015000D03*
D12*
X203460000Y-25805000D03*
D10*
X351157500Y-65303300D03*
D11*
X349297500Y-64923300D03*
D10*
X357507500Y-62763300D03*
D12*
X356297500Y-65973300D03*
D10*
X251462500Y-131250000D03*
D11*
X253322500Y-131630000D03*
D10*
X245112500Y-133790000D03*
D12*
X246322500Y-130580000D03*
D10*
X413387500Y-102768300D03*
D11*
X415247500Y-103148300D03*
D10*
X407037500Y-105308300D03*
D12*
X408247500Y-102098300D03*
D10*
X413387500Y-55050000D03*
D11*
X415247500Y-55430000D03*
D10*
X407037500Y-57590000D03*
D12*
X408247500Y-54380000D03*
D13*
X90810000Y-40450000D03*
D14*
X93350000Y-40450000D03*
D10*
X413387500Y-74193300D03*
D11*
X415247500Y-74573300D03*
D10*
X407037500Y-76733300D03*
D12*
X408247500Y-73523300D03*
D10*
X394337500Y-26475000D03*
D11*
X396197500Y-26855000D03*
D10*
X387987500Y-29015000D03*
D12*
X389197500Y-25805000D03*
D16*
X70650000Y-135450000D03*
D17*
X63030000Y-135450000D03*
D18*
X333550000Y-49925000D03*
D19*
X333550000Y-47385000D03*
D18*
X105974900Y-29419200D03*
D19*
X108514900Y-29419200D03*
X111054900Y-29419200D03*
X113594900Y-29419200D03*
X116134900Y-29419200D03*
X118674900Y-29419200D03*
X121214900Y-29419200D03*
X123754900Y-29419200D03*
X126294900Y-29419200D03*
X128834900Y-29419200D03*
X131374900Y-29419200D03*
X133914900Y-29419200D03*
X136454900Y-29419200D03*
D18*
X105959901Y-45194200D03*
D19*
X108499901Y-45194200D03*
X111039901Y-45194200D03*
X113579901Y-45194200D03*
X116119901Y-45194200D03*
X118659901Y-45194200D03*
X121199901Y-45194200D03*
X123739901Y-45194200D03*
X126279901Y-45194200D03*
X128819901Y-45194200D03*
X131359901Y-45194200D03*
X133899901Y-45194200D03*
X136439901Y-45194200D03*
D20*
X24810000Y-43300000D03*
D21*
X27350000Y-43300000D03*
X29890000Y-43300000D03*
X32430000Y-43300000D03*
X34970000Y-43300000D03*
D18*
X333575000Y-122200000D03*
D19*
X333575000Y-124740000D03*
D18*
X339375000Y-56325000D03*
D19*
X339375000Y-58865000D03*
X339375000Y-61405000D03*
X339375000Y-63945000D03*
X339375000Y-66485000D03*
X339375000Y-69025000D03*
X339375000Y-71565000D03*
X339375000Y-74105000D03*
X339375000Y-76645000D03*
X339375000Y-79185000D03*
X339375000Y-81725000D03*
X339375000Y-84265000D03*
X339375000Y-86805000D03*
X339375000Y-89345000D03*
X339375000Y-91885000D03*
X339375000Y-94425000D03*
X339375000Y-96965000D03*
X339375000Y-99505000D03*
X339375000Y-102045000D03*
X339375000Y-104585000D03*
X339375000Y-107125000D03*
X339375000Y-109665000D03*
X339375000Y-112205000D03*
X339375000Y-114745000D03*
X339375000Y-117285000D03*
D22*
X22145000Y-46475000D03*
X22145000Y-51475000D03*
D18*
X343649900Y-33394200D03*
D19*
X343649900Y-30854200D03*
X343649900Y-28314200D03*
X343649900Y-25774200D03*
X343649900Y-23234200D03*
D22*
X219699900Y-29094200D03*
X219699900Y-34094200D03*
D20*
X40185000Y-43325000D03*
D21*
X42725000Y-43325000D03*
X45265000Y-43325000D03*
X47805000Y-43325000D03*
X50345000Y-43325000D03*
D18*
X333550000Y-56300000D03*
D19*
X333550000Y-58840000D03*
X333550000Y-61380000D03*
X333550000Y-63920000D03*
X333550000Y-66460000D03*
X333550000Y-69000000D03*
X333550000Y-71540000D03*
X333550000Y-74080000D03*
X333550000Y-76620000D03*
X333550000Y-79160000D03*
X333550000Y-81700000D03*
X333550000Y-84240000D03*
X333550000Y-86780000D03*
X333550000Y-89320000D03*
X333550000Y-91860000D03*
X333550000Y-94400000D03*
X333550000Y-96940000D03*
X333550000Y-99480000D03*
X333550000Y-102020000D03*
X333550000Y-104560000D03*
X333550000Y-107100000D03*
X333550000Y-109640000D03*
X333550000Y-112180000D03*
X333550000Y-114720000D03*
X333550000Y-117260000D03*
D16*
X70675000Y-137600000D03*
D17*
X63055000Y-137600000D03*
D22*
X105549900Y-26469200D03*
X100549900Y-26469200D03*
X37745000Y-46625000D03*
X37745000Y-51625000D03*
X244249900Y-29094200D03*
X244249900Y-34094200D03*
X257774469Y-141650698D03*
X262774469Y-141650698D03*
D23*
X278158000Y-44740000D03*
X325258000Y-44740000D03*
D20*
X318328000Y-46160000D03*
D22*
X315558000Y-46160000D03*
X312788000Y-46160000D03*
X310018000Y-46160000D03*
X307248000Y-46160000D03*
X304478000Y-46160000D03*
X301708000Y-46160000D03*
X298938000Y-46160000D03*
X296168000Y-46160000D03*
X293398000Y-46160000D03*
X290628000Y-46160000D03*
X287858000Y-46160000D03*
X285088000Y-46160000D03*
X316943000Y-43320000D03*
X314173000Y-43320000D03*
X311403000Y-43320000D03*
X308633000Y-43320000D03*
X305863000Y-43320000D03*
X303093000Y-43320000D03*
X300323000Y-43320000D03*
X297553000Y-43320000D03*
X294783000Y-43320000D03*
X292013000Y-43320000D03*
X289243000Y-43320000D03*
X286473000Y-43320000D03*
D18*
X25375000Y-62575000D03*
D19*
X25375000Y-65115000D03*
X25375000Y-67655000D03*
D24*
X83449900Y-95690000D03*
X37174900Y-86069200D03*
X320925000Y-103443700D03*
X346199900Y-76669200D03*
X346725200Y-98094200D03*
X88274900Y-66369200D03*
X385174900Y-102300000D03*
X65649900Y-102644200D03*
X323600000Y-101075000D03*
X97449900Y-67131700D03*
X65524900Y-86069200D03*
X89160000Y-90844200D03*
X294947792Y-105293700D03*
X37724900Y-71644200D03*
X368900000Y-100700500D03*
X237349900Y-70843700D03*
X84749900Y-70644200D03*
X123487450Y-71031750D03*
X275299900Y-70843700D03*
X306674900Y-71518700D03*
X160949900Y-70843700D03*
X199299900Y-70843700D03*
X290574900Y-70843700D03*
X390625000Y-104275000D03*
X129524900Y-88519200D03*
X363750000Y-76750000D03*
X111637400Y-88631700D03*
X345799900Y-108069200D03*
X361000000Y-108094200D03*
X308874900Y-88994200D03*
X119924400Y-57619200D03*
X139849900Y-88269200D03*
X362899500Y-90969200D03*
X167555600Y-88249900D03*
X363650000Y-57475000D03*
X153999900Y-88244200D03*
X311199900Y-88244200D03*
X145100000Y-88194200D03*
X192974900Y-66494200D03*
X202224900Y-87494200D03*
X359925000Y-90203600D03*
X211914700Y-66469200D03*
X183187300Y-87494200D03*
X312224900Y-87494200D03*
X366750000Y-100550000D03*
X322999900Y-86744200D03*
X224274900Y-86744200D03*
X245899900Y-86744200D03*
X151449900Y-89606000D03*
X327499900Y-112194200D03*
X327107000Y-72487100D03*
X291599900Y-70669200D03*
X41912500Y-70894700D03*
X113349900Y-89606000D03*
X75250000Y-70469200D03*
X189574900Y-89606500D03*
X75250000Y-89619200D03*
X103825000Y-108719700D03*
X81124900Y-87319200D03*
X141925000Y-106044200D03*
X256249900Y-106044200D03*
X141949900Y-87319200D03*
X81124900Y-108719700D03*
X208600000Y-23069200D03*
X122174900Y-69594200D03*
X180025000Y-106044200D03*
X259625000Y-127000000D03*
X291899900Y-69594200D03*
X134199900Y-23044200D03*
X308299900Y-112894200D03*
X37150000Y-87319300D03*
X112349900Y-69669200D03*
X295724900Y-108894700D03*
X258074500Y-137125000D03*
X218174900Y-106044200D03*
X284800000Y-20819700D03*
X246499900Y-106869200D03*
X349773200Y-71763200D03*
X128459900Y-18869200D03*
X70524900Y-19419200D03*
X111774900Y-106869200D03*
X122874900Y-106869200D03*
X292624900Y-68794200D03*
X359600000Y-52300000D03*
X89324900Y-68794200D03*
X345100000Y-65075000D03*
X188574900Y-106869200D03*
X118724900Y-68794200D03*
X199099900Y-106869200D03*
X270624900Y-110144200D03*
X255949900Y-20819700D03*
X270625000Y-106869700D03*
X281866300Y-68794200D03*
X160949900Y-106869200D03*
X345275000Y-51550000D03*
X237174900Y-106869200D03*
X246699900Y-90356000D03*
X294374900Y-67919700D03*
X42199900Y-93644200D03*
X346174900Y-82994200D03*
X170500000Y-90356000D03*
X275199900Y-24594200D03*
X132399900Y-90356000D03*
X118049900Y-67944200D03*
X281967900Y-90356000D03*
X208599900Y-90356000D03*
X283324900Y-67944200D03*
X91999900Y-67919200D03*
X94300000Y-88068700D03*
X293149900Y-23094200D03*
X360074500Y-105619700D03*
X141925000Y-21717550D03*
X104037400Y-71856700D03*
X302349900Y-72319200D03*
X346695000Y-69020000D03*
X141925000Y-31069200D03*
X362974900Y-70975000D03*
X306112400Y-68519700D03*
X363900500Y-70225000D03*
X310274900Y-22344700D03*
X394349900Y-71263200D03*
X57724900Y-22844200D03*
X310224900Y-65944200D03*
X180025000Y-21319200D03*
X170500000Y-21319200D03*
X367075000Y-93975000D03*
X309949900Y-55444200D03*
X356237500Y-70225500D03*
X123754900Y-22219200D03*
X362562300Y-54825000D03*
X363850000Y-85575000D03*
X119549900Y-53469200D03*
X347500000Y-66500000D03*
X265750000Y-22344200D03*
X365675000Y-75275000D03*
X399025000Y-72300000D03*
X284761900Y-52494200D03*
X208599900Y-51694700D03*
X133049900Y-52219700D03*
X143399900Y-20094200D03*
X356224900Y-87572100D03*
X170500000Y-51694700D03*
X94299900Y-52274500D03*
X325840050Y-81919200D03*
X151424900Y-20144200D03*
X365700000Y-88475000D03*
X246699900Y-51694700D03*
X364525000Y-56175000D03*
X138274900Y-24619200D03*
X245124900Y-103794200D03*
X345649900Y-98169200D03*
X245112500Y-126769200D03*
X105548900Y-106744200D03*
X52049900Y-72393700D03*
X346649900Y-106719200D03*
X293905900Y-103444200D03*
X364725000Y-107119200D03*
X67737400Y-106581700D03*
X279874900Y-51743700D03*
X281449900Y-83694200D03*
X281449900Y-76969200D03*
X272599900Y-95594200D03*
X316943000Y-51743700D03*
X272574900Y-83694200D03*
X301274900Y-51743700D03*
X262524900Y-83694200D03*
X121214900Y-21468050D03*
X325169100Y-82794200D03*
X358975000Y-88476400D03*
X270674900Y-54300500D03*
X104049900Y-21468050D03*
X297512700Y-127519200D03*
X103424900Y-27019200D03*
X175599900Y-20544200D03*
X131424900Y-52668700D03*
X289274900Y-21569200D03*
X261975000Y-135150000D03*
X65574900Y-21544200D03*
X353600000Y-88476400D03*
X284749900Y-82444200D03*
X270674900Y-66794200D03*
X285308950Y-67170200D03*
X304349900Y-82794200D03*
X118624900Y-52493200D03*
X269799900Y-21569200D03*
X308799900Y-21569200D03*
X74275000Y-133400000D03*
X276575000Y-124369200D03*
X42149900Y-65144200D03*
X33325000Y-46500000D03*
X83300000Y-124375000D03*
X28850000Y-44900000D03*
X328249400Y-124694200D03*
X105949900Y-48819200D03*
X274750000Y-136975000D03*
X328399900Y-82455800D03*
X63550000Y-49669200D03*
X59240350Y-65234650D03*
X54299900Y-42794200D03*
X56874900Y-49418700D03*
X325000000Y-48744200D03*
X82850000Y-123250000D03*
X330674900Y-123344400D03*
X331800000Y-58425000D03*
X64775000Y-50219200D03*
X24700000Y-53225000D03*
X310024900Y-48744200D03*
X257424900Y-123319200D03*
X271325000Y-121394200D03*
X261325500Y-132150000D03*
X42690000Y-53319200D03*
X52774900Y-50869200D03*
X53025000Y-44850500D03*
X55225000Y-48350000D03*
X55325000Y-46349500D03*
X46900000Y-48450000D03*
X59700000Y-46700000D03*
X312399400Y-66644200D03*
X107114946Y-20718550D03*
X101399900Y-103819200D03*
X145074900Y-19319200D03*
X53875000Y-20869200D03*
X118699900Y-20718550D03*
X159649900Y-23794200D03*
X114674900Y-50669200D03*
X219724900Y-23844700D03*
X116149900Y-23794200D03*
X330984700Y-57415300D03*
X330984700Y-109005770D03*
X202224900Y-23819200D03*
X330449400Y-112200000D03*
X278450000Y-23844700D03*
X256899900Y-23844200D03*
X295174900Y-23844700D03*
X113599900Y-22967550D03*
X330449400Y-56225000D03*
X244249900Y-23844200D03*
X70249900Y-22967550D03*
X113599900Y-51819700D03*
X111049900Y-51118700D03*
X322800000Y-50225000D03*
X38700000Y-50150000D03*
X329299400Y-114724900D03*
X325700000Y-51550000D03*
X38925000Y-53275000D03*
X330250000Y-117275000D03*
X45324900Y-66319200D03*
X62074900Y-48919200D03*
X51725000Y-49244200D03*
X49150500Y-47450000D03*
X108374900Y-47919700D03*
X183199900Y-19969200D03*
X112934374Y-19969050D03*
X34999900Y-48075500D03*
X27249900Y-49394200D03*
D25*
X55822500Y-111530000D02*
X55822500Y-110146600D01*
X364055800Y-106369200D02*
X368475000Y-101950000D01*
X345370700Y-102040000D02*
X345712400Y-102381700D01*
X333550000Y-102020000D02*
X329385000Y-102020000D01*
X346199900Y-76669200D02*
X346264000Y-76733300D01*
X58349900Y-107619200D02*
X63324900Y-102644200D01*
X323625000Y-101100000D02*
X323600000Y-101075000D01*
X368475000Y-101950000D02*
X384824900Y-101950000D01*
X83449900Y-95690000D02*
X87950000Y-95690000D01*
X89037400Y-67131700D02*
X88274900Y-66369200D01*
X328425000Y-101100000D02*
X323625000Y-101100000D01*
X296932006Y-103419200D02*
X320900500Y-103419200D01*
X57749900Y-108219200D02*
X57999400Y-107969700D01*
X58349900Y-107619200D02*
X292622292Y-107619200D01*
X346725200Y-99246000D02*
X346725200Y-98094200D01*
X78124900Y-90869200D02*
X78149900Y-90844200D01*
X63324900Y-102644200D02*
X65649900Y-102644200D01*
X339350000Y-102020000D02*
X339375000Y-102045000D01*
X329385000Y-102020000D02*
X329365000Y-102040000D01*
X56099900Y-109869200D02*
X57324900Y-108644200D01*
X70110000Y-92480000D02*
X70110000Y-91584100D01*
X320900500Y-103419200D02*
X320925000Y-103443700D01*
X78149900Y-90844200D02*
X89160000Y-90844200D01*
X55822500Y-110146600D02*
X56099900Y-109869200D01*
X339375000Y-102045000D02*
X343926200Y-102045000D01*
X37174900Y-86069200D02*
X65524900Y-86069200D01*
X343926200Y-102045000D02*
X343931200Y-102040000D01*
X345712400Y-102381700D02*
X345712400Y-103056700D01*
X345712400Y-103056700D02*
X349024900Y-106369200D01*
X292622292Y-107619200D02*
X294947792Y-105293700D01*
X70824900Y-90869200D02*
X78124900Y-90869200D01*
X57324900Y-108644200D02*
X57749900Y-108219200D01*
X343931200Y-102040000D02*
X346725200Y-99246000D01*
X70110000Y-91584100D02*
X70824900Y-90869200D01*
X349024900Y-106369200D02*
X364055800Y-106369200D01*
X296932006Y-103419200D02*
X295057506Y-105293700D01*
X58349900Y-107619200D02*
X57324900Y-108644200D01*
X295057506Y-105293700D02*
X294947792Y-105293700D01*
X329365000Y-102040000D02*
X328425000Y-101100000D01*
X97449900Y-67131700D02*
X89037400Y-67131700D01*
X333550000Y-102020000D02*
X339350000Y-102020000D01*
X346264000Y-76733300D02*
X349860500Y-76733300D01*
X343931200Y-102040000D02*
X345370700Y-102040000D01*
X384824900Y-101950000D02*
X385174900Y-102300000D01*
X366200000Y-98900000D02*
X367375000Y-100075000D01*
X314599900Y-72369200D02*
X314299900Y-72069200D01*
X343680700Y-81725000D02*
X348577800Y-86622100D01*
X123325000Y-71194200D02*
X111074900Y-71194200D01*
X291299900Y-71419200D02*
X291150400Y-71419200D01*
X314299900Y-72069200D02*
X308424900Y-72069200D01*
X75949900Y-71219200D02*
X76474900Y-70694200D01*
X76474900Y-70644200D02*
X84749900Y-70644200D01*
X333550000Y-81700000D02*
X339350000Y-81700000D01*
X366200000Y-90350000D02*
X366200000Y-98900000D01*
X368274500Y-100075000D02*
X368900000Y-100700500D01*
X405200000Y-104275000D02*
X405850000Y-103625000D01*
X308424900Y-72069200D02*
X307874400Y-71518700D01*
X359522100Y-86622100D02*
X360425000Y-87525000D01*
X339375000Y-81725000D02*
X343680700Y-81725000D01*
X110524900Y-70644200D02*
X111074900Y-71194200D01*
X306575400Y-71419200D02*
X306674900Y-71518700D01*
X331420700Y-81700000D02*
X331400700Y-81720000D01*
X322049900Y-72369200D02*
X314599900Y-72369200D01*
X123725000Y-70794200D02*
X123487450Y-71031750D01*
X76474900Y-70694200D02*
X76474900Y-70644200D01*
X366450000Y-90100000D02*
X366200000Y-90350000D01*
X42499900Y-71644200D02*
X37724900Y-71644200D01*
X291150400Y-71419200D02*
X290574900Y-70843700D01*
X348577800Y-86622100D02*
X359522100Y-86622100D01*
X75949900Y-71219200D02*
X42924900Y-71219200D01*
X290574900Y-70843700D02*
X290525400Y-70794200D01*
X291299900Y-71419200D02*
X306575400Y-71419200D01*
X390625000Y-104275000D02*
X405200000Y-104275000D01*
X84749900Y-70644200D02*
X110524900Y-70644200D01*
X339350000Y-81700000D02*
X339375000Y-81725000D01*
X290525400Y-70794200D02*
X160949900Y-70794200D01*
X123487450Y-71031750D02*
X123325000Y-71194200D01*
X405850000Y-103625000D02*
X412530800Y-103625000D01*
X307874400Y-71518700D02*
X306674900Y-71518700D01*
X331400700Y-81720000D02*
X322049900Y-72369200D01*
X365875000Y-87525000D02*
X366450000Y-88100000D01*
X366450000Y-88100000D02*
X366450000Y-90100000D01*
X333550000Y-81700000D02*
X331420700Y-81700000D01*
X160949900Y-70794200D02*
X123725000Y-70794200D01*
X42924900Y-71219200D02*
X42499900Y-71644200D01*
X367375000Y-100075000D02*
X368274500Y-100075000D01*
X412530800Y-103625000D02*
X413387500Y-102768300D01*
X360425000Y-87525000D02*
X365875000Y-87525000D01*
X129449900Y-88594200D02*
X129524900Y-88519200D01*
X145335661Y-89019200D02*
X130024900Y-89019200D01*
X99474900Y-109469200D02*
X98685000Y-110259100D01*
X151955600Y-88999900D02*
X151811700Y-88856000D01*
X124949900Y-88594200D02*
X129449900Y-88594200D01*
X363766700Y-76733300D02*
X363750000Y-76750000D01*
X286899000Y-88856500D02*
X168009661Y-88856500D01*
X117735000Y-111530000D02*
X116110700Y-111530000D01*
X346549900Y-108069200D02*
X346574900Y-108094200D01*
X167866261Y-88999900D02*
X151955600Y-88999900D01*
X111637400Y-88631700D02*
X111674900Y-88594200D01*
X315975000Y-88994200D02*
X308874900Y-88994200D01*
X145498861Y-88856000D02*
X145335661Y-89019200D01*
X368937500Y-76733300D02*
X363766700Y-76733300D01*
X116110700Y-111530000D02*
X114049900Y-109469200D01*
X339350000Y-99480000D02*
X339375000Y-99505000D01*
X111674900Y-88594200D02*
X124949900Y-88594200D01*
X326460800Y-99480000D02*
X326365400Y-99384600D01*
X119953600Y-57590000D02*
X126062700Y-57590000D01*
X287036700Y-88994200D02*
X286899000Y-88856500D01*
X333550000Y-99480000D02*
X326460800Y-99480000D01*
X151811700Y-88856000D02*
X145498861Y-88856000D01*
X346574900Y-108094200D02*
X361000000Y-108094200D01*
X333550000Y-99480000D02*
X339350000Y-99480000D01*
X345799900Y-108069200D02*
X346549900Y-108069200D01*
X119924400Y-57619200D02*
X119953600Y-57590000D01*
X326365400Y-99384600D02*
X315975000Y-88994200D01*
X130024900Y-89019200D02*
X129524900Y-88519200D01*
X98685000Y-110259100D02*
X98685000Y-111530000D01*
X114049900Y-109469200D02*
X99474900Y-109469200D01*
X168009661Y-88856500D02*
X167866261Y-88999900D01*
X326480800Y-99500000D02*
X326365400Y-99384600D01*
X308874900Y-88994200D02*
X287036700Y-88994200D01*
X324647906Y-96960000D02*
X324443953Y-96756047D01*
X324627906Y-96940000D02*
X324443953Y-96756047D01*
X315932106Y-88244200D02*
X311199900Y-88244200D01*
X363650000Y-57475000D02*
X367000000Y-57475000D01*
X367155000Y-57630000D02*
X368937500Y-57630000D01*
X361850000Y-90969200D02*
X362899500Y-90969200D01*
X347174900Y-91694200D02*
X347899900Y-90969200D01*
X367000000Y-57475000D02*
X367155000Y-57630000D01*
X355750000Y-57475000D02*
X352748300Y-54473300D01*
X333550000Y-96940000D02*
X324627906Y-96940000D01*
X139874900Y-88244200D02*
X139849900Y-88269200D01*
X333550000Y-96940000D02*
X339350000Y-96940000D01*
X347899900Y-90969200D02*
X361850000Y-90969200D01*
X339375000Y-96965000D02*
X344979100Y-96965000D01*
X363650000Y-57475000D02*
X355750000Y-57475000D01*
X339350000Y-96940000D02*
X339375000Y-96965000D01*
X344984100Y-96960000D02*
X345122050Y-96822050D01*
X347174900Y-94769200D02*
X347174900Y-91694200D01*
X344979100Y-96965000D02*
X345122050Y-96822050D01*
X324443953Y-96756047D02*
X315932106Y-88244200D01*
X311199900Y-88244200D02*
X153999900Y-88244200D01*
X345122050Y-96822050D02*
X347174900Y-94769200D01*
X352748300Y-54473300D02*
X351097500Y-54473300D01*
X153999900Y-88244200D02*
X139874900Y-88244200D01*
X346374900Y-91144200D02*
X346374900Y-93344200D01*
X339375000Y-94425000D02*
X345294100Y-94425000D01*
X333550000Y-94400000D02*
X329395800Y-94400000D01*
X346374900Y-93344200D02*
X345299100Y-94420000D01*
X333550000Y-94400000D02*
X339350000Y-94400000D01*
X312224900Y-87494200D02*
X202224900Y-87494200D01*
X339350000Y-94400000D02*
X339375000Y-94425000D01*
X211914700Y-66469200D02*
X192999900Y-66469200D01*
X202224900Y-87494200D02*
X183187300Y-87494200D01*
X359925000Y-90203600D02*
X347315500Y-90203600D01*
X329395800Y-94400000D02*
X329375800Y-94420000D01*
X192999900Y-66469200D02*
X192974900Y-66494200D01*
X347315500Y-90203600D02*
X346374900Y-91144200D01*
X329375800Y-94420000D02*
X322450000Y-87494200D01*
X345294100Y-94425000D02*
X345299100Y-94420000D01*
X322450000Y-87494200D02*
X312224900Y-87494200D01*
X344745000Y-91885000D02*
X344750000Y-91880000D01*
X339350000Y-91860000D02*
X339375000Y-91885000D01*
X344750000Y-91880000D02*
X345199900Y-91880000D01*
X339375000Y-91885000D02*
X344745000Y-91885000D01*
X333550000Y-91860000D02*
X339350000Y-91860000D01*
X328135700Y-91880000D02*
X322999900Y-86744200D01*
X345499900Y-90394200D02*
X346452500Y-89441600D01*
X365700000Y-99500000D02*
X366750000Y-100550000D01*
X328155700Y-91860000D02*
X328135700Y-91880000D01*
X333550000Y-91860000D02*
X328155700Y-91860000D01*
X365700000Y-92291600D02*
X364266700Y-90858300D01*
X365700000Y-99325000D02*
X365700000Y-92291600D01*
X245899900Y-86744200D02*
X322999900Y-86744200D01*
X362850000Y-89441600D02*
X364266700Y-90858300D01*
X365700000Y-99325000D02*
X365700000Y-99500000D01*
X346452500Y-89441600D02*
X362850000Y-89441600D01*
X345199900Y-91880000D02*
X345499900Y-91580000D01*
X345499900Y-91580000D02*
X345499900Y-90394200D01*
X224274900Y-86744200D02*
X245899900Y-86744200D01*
X309049900Y-71569200D02*
X326189100Y-71569200D01*
X330955000Y-79180000D02*
X327150000Y-75375000D01*
X333550000Y-79160000D02*
X330975000Y-79160000D01*
X322900000Y-112200000D02*
X327494100Y-112200000D01*
X76075000Y-69644200D02*
X110849900Y-69644200D01*
X189574400Y-89606000D02*
X189574900Y-89606500D01*
X333550000Y-79160000D02*
X339350000Y-79160000D01*
X339350000Y-79160000D02*
X339375000Y-79185000D01*
X245899900Y-91319200D02*
X247199900Y-91319200D01*
X326189100Y-71569200D02*
X327107000Y-72487100D01*
X206649900Y-91294200D02*
X208974900Y-91294200D01*
X113349900Y-89606000D02*
X151449900Y-89606000D01*
X227650000Y-90856100D02*
X227649900Y-90856000D01*
X245436700Y-90856000D02*
X245899900Y-91319200D01*
X209413100Y-90856000D02*
X227649900Y-90856000D01*
X227649900Y-90856000D02*
X245436700Y-90856000D01*
X327150000Y-75375000D02*
X327150000Y-72530100D01*
X191743100Y-90944200D02*
X206299900Y-90944200D01*
X247663100Y-90856000D02*
X263456000Y-90856000D01*
X151449900Y-89606000D02*
X189574400Y-89606000D01*
X247199900Y-91319200D02*
X247663100Y-90856000D01*
X308249900Y-70769200D02*
X309049900Y-71569200D01*
X122924900Y-70419200D02*
X123249900Y-70094200D01*
X75250000Y-70469200D02*
X76075000Y-69644200D01*
X189537300Y-93150000D02*
X191743100Y-90944200D01*
X123249900Y-70094200D02*
X291024900Y-70094200D01*
X113349900Y-89606000D02*
X113336700Y-89619200D01*
X110849900Y-69644200D02*
X111624900Y-70419200D01*
X291699900Y-70769200D02*
X291599900Y-70669200D01*
X227650000Y-93150000D02*
X227650000Y-90856100D01*
X113336700Y-89619200D02*
X75250000Y-89619200D01*
X327150000Y-72530100D02*
X327107000Y-72487100D01*
X75250000Y-70469200D02*
X42338000Y-70469200D01*
X291699900Y-70769200D02*
X308249900Y-70769200D01*
X208974900Y-91294200D02*
X209413100Y-90856000D01*
X206299900Y-90944200D02*
X206649900Y-91294200D01*
X330975000Y-79160000D02*
X330955000Y-79180000D01*
X111624900Y-70419200D02*
X122924900Y-70419200D01*
X42338000Y-70469200D02*
X41912500Y-70894700D01*
X263456000Y-90856000D02*
X265750000Y-93150000D01*
X291024900Y-70094200D02*
X291599900Y-70669200D01*
X327494100Y-112200000D02*
X327499900Y-112194200D01*
X339375000Y-76645000D02*
X333575000Y-76645000D01*
X330315000Y-76640000D02*
X328200000Y-74525000D01*
X328200000Y-71490100D02*
X327604100Y-70894200D01*
X37150000Y-87319300D02*
X37150000Y-93150000D01*
X62724400Y-108719700D02*
X81124900Y-108719700D01*
X60962500Y-110481600D02*
X62724400Y-108719700D01*
X200799900Y-23069200D02*
X200574900Y-23294200D01*
X141925000Y-106044200D02*
X180025000Y-106044200D01*
X218174900Y-106044200D02*
X256249900Y-106044200D01*
X291924900Y-69569200D02*
X291899900Y-69594200D01*
X291899900Y-69594200D02*
X238774900Y-69594200D01*
X303199900Y-70269200D02*
X302499900Y-69569200D01*
X81124900Y-87319200D02*
X141949900Y-87319200D01*
X258074500Y-128550500D02*
X258074500Y-137125000D01*
X112349900Y-69669200D02*
X120749900Y-69669200D01*
X164877050Y-23044200D02*
X162099900Y-23044200D01*
X295724900Y-108894700D02*
X305975400Y-108894700D01*
X327604100Y-70894200D02*
X309499900Y-70894200D01*
X81725400Y-108119200D02*
X103224500Y-108119200D01*
X305975400Y-108894700D02*
X308299900Y-111219200D01*
X180025000Y-106044200D02*
X218174900Y-106044200D01*
X165127050Y-23294200D02*
X164877050Y-23044200D01*
X208600000Y-23069200D02*
X200799900Y-23069200D01*
X60962500Y-112200000D02*
X60962500Y-110481600D01*
X333550000Y-76620000D02*
X330335000Y-76620000D01*
X309499900Y-70894200D02*
X308874900Y-70269200D01*
X120749900Y-69669200D02*
X120774900Y-69644200D01*
X333575000Y-76645000D02*
X333550000Y-76620000D01*
X37150000Y-87319300D02*
X37150100Y-87319200D01*
X122174900Y-69594200D02*
X120824900Y-69594200D01*
X308299900Y-111219200D02*
X308299900Y-112894200D01*
X238774900Y-69594200D02*
X122174900Y-69594200D01*
X308874900Y-70269200D02*
X303199900Y-70269200D01*
X103224500Y-108119200D02*
X103825000Y-108719700D01*
X328200000Y-74525000D02*
X328200000Y-71490100D01*
X259625000Y-127000000D02*
X258074500Y-128550500D01*
X81124900Y-108719700D02*
X81725400Y-108119200D01*
X330335000Y-76620000D02*
X330315000Y-76640000D01*
X162099900Y-23044200D02*
X134199900Y-23044200D01*
X120824900Y-69594200D02*
X120774900Y-69644200D01*
X200574900Y-23294200D02*
X165127050Y-23294200D01*
X302499900Y-69569200D02*
X291924900Y-69569200D01*
X37150100Y-87319200D02*
X81124900Y-87319200D01*
X348280900Y-71763200D02*
X349773200Y-71763200D01*
X199099900Y-106869200D02*
X237174900Y-106869200D01*
X278899900Y-111062400D02*
X280037500Y-112200000D01*
X129434900Y-17894200D02*
X128834900Y-18494200D01*
X183524900Y-18669200D02*
X153299900Y-18669200D01*
X270624900Y-110144200D02*
X278049900Y-110144200D01*
X221224900Y-20794200D02*
X220649900Y-20219200D01*
X246500400Y-106869700D02*
X270625000Y-106869700D01*
X328800000Y-70994200D02*
X328200000Y-70394200D01*
X345251700Y-64923300D02*
X349297500Y-64923300D01*
X284800000Y-20819700D02*
X255949900Y-20819700D01*
X185074900Y-20219200D02*
X183524900Y-18669200D01*
X152524900Y-17894200D02*
X129434900Y-17894200D01*
X111774900Y-106869200D02*
X122874900Y-106869200D01*
X360749900Y-32769200D02*
X360749900Y-28094200D01*
X255949900Y-20819700D02*
X255924400Y-20794200D01*
X122874900Y-106869200D02*
X160949900Y-106869200D01*
X112649900Y-18869200D02*
X112099900Y-19419200D01*
X345100000Y-65075000D02*
X345251700Y-64923300D01*
X237174900Y-106869200D02*
X246499900Y-106869200D01*
X278899900Y-110994200D02*
X278899900Y-111062400D01*
X330125000Y-74100000D02*
X328800000Y-72775000D01*
X330145000Y-74080000D02*
X330125000Y-74100000D01*
X220649900Y-20219200D02*
X185074900Y-20219200D01*
X345939100Y-74105000D02*
X348280900Y-71763200D01*
X278049900Y-110144200D02*
X278899900Y-110994200D01*
X359600000Y-52300000D02*
X346025000Y-52300000D01*
X309849900Y-70394200D02*
X309224900Y-69769200D01*
X246499900Y-106869200D02*
X246500400Y-106869700D01*
X281866300Y-68794200D02*
X118724900Y-68794200D01*
X358524900Y-34994200D02*
X360749900Y-32769200D01*
X346025000Y-52300000D02*
X345275000Y-51550000D01*
X255924400Y-20794200D02*
X221224900Y-20794200D01*
X350349900Y-34994200D02*
X358524900Y-34994200D01*
X303824900Y-69769200D02*
X302849900Y-68794200D01*
X333550000Y-74080000D02*
X339350000Y-74080000D01*
X339375000Y-74105000D02*
X345939100Y-74105000D01*
X128459900Y-18869200D02*
X128834900Y-18494200D01*
X112099900Y-19419200D02*
X70524900Y-19419200D01*
X328200000Y-70394200D02*
X309849900Y-70394200D01*
X153299900Y-18669200D02*
X152524900Y-17894200D01*
X160949900Y-106869200D02*
X188574900Y-106869200D01*
X360749900Y-28094200D02*
X359510700Y-26855000D01*
X188574900Y-106869200D02*
X199099900Y-106869200D01*
X339350000Y-74080000D02*
X339375000Y-74105000D01*
X343649900Y-33394200D02*
X348749900Y-33394200D01*
X328800000Y-72775000D02*
X328800000Y-70994200D01*
X292624900Y-68794200D02*
X281866300Y-68794200D01*
X309224900Y-69769200D02*
X303824900Y-69769200D01*
X359510700Y-26855000D02*
X358097500Y-26855000D01*
X348749900Y-33394200D02*
X350349900Y-34994200D01*
X333550000Y-74080000D02*
X330145000Y-74080000D01*
X302849900Y-68794200D02*
X292624900Y-68794200D01*
X118724900Y-68794200D02*
X89324900Y-68794200D01*
X112649900Y-18869200D02*
X128459900Y-18869200D01*
X94299500Y-88069200D02*
X47774900Y-88069200D01*
X144749900Y-90356000D02*
X132399900Y-90356000D01*
X91999900Y-67919200D02*
X118024900Y-67919200D01*
X303850000Y-25194300D02*
X303850000Y-26475000D01*
X333550000Y-71540000D02*
X330260800Y-71540000D01*
X126449900Y-27794200D02*
X128824900Y-27794200D01*
X202785561Y-24319200D02*
X204649900Y-24319200D01*
X293000400Y-67919700D02*
X294374900Y-67919700D01*
X347624900Y-26669200D02*
X347624900Y-26879200D01*
X208599900Y-90356000D02*
X246699900Y-90356000D01*
X300274900Y-24594200D02*
X303249900Y-24594200D01*
X303325400Y-67919700D02*
X294374900Y-67919700D01*
X94300000Y-88068700D02*
X94299500Y-88069200D01*
X348849900Y-84353300D02*
X347534000Y-84353300D01*
X262549900Y-24344200D02*
X262799900Y-24594200D01*
X103825000Y-28769100D02*
X104799900Y-27794200D01*
X156249900Y-24594200D02*
X162899900Y-24594200D01*
X281967900Y-90356000D02*
X284761900Y-93150000D01*
X162899900Y-24594200D02*
X163199900Y-24294200D01*
X310099900Y-69894200D02*
X309474900Y-69269200D01*
X275199900Y-24594200D02*
X275200400Y-24594700D01*
X186124900Y-24594200D02*
X202510561Y-24594200D01*
X204649900Y-24319200D02*
X204924900Y-24594200D01*
X150074900Y-67944200D02*
X118049900Y-67944200D01*
X142099900Y-24294200D02*
X155949900Y-24294200D01*
X339375000Y-71565000D02*
X333575000Y-71565000D01*
X351130500Y-84353300D02*
X348849900Y-84353300D01*
X104799900Y-27794200D02*
X126449900Y-27794200D01*
X280800400Y-24344700D02*
X281049900Y-24594200D01*
X348849900Y-84353300D02*
X347639600Y-84353300D01*
X283349400Y-67919700D02*
X283324900Y-67944200D01*
X118024900Y-67919200D02*
X118049900Y-67944200D01*
X296724900Y-24594200D02*
X296974400Y-24344700D01*
X279010661Y-24344700D02*
X280800400Y-24344700D01*
X182474900Y-24294200D02*
X185824900Y-24294200D01*
X258674900Y-24344200D02*
X262549900Y-24344200D01*
X303249900Y-24594200D02*
X303850000Y-25194300D01*
X138599900Y-27794200D02*
X142099900Y-24294200D01*
X128824900Y-27794200D02*
X138599900Y-27794200D01*
X47774900Y-88069200D02*
X42199900Y-93644200D01*
X309474900Y-69269200D02*
X304674900Y-69269200D01*
X330240800Y-71560000D02*
X328575000Y-69894200D01*
X375287500Y-26475000D02*
X372431700Y-23619200D01*
X167149900Y-24594200D02*
X182174900Y-24594200D01*
X283324900Y-67944200D02*
X150074900Y-67944200D01*
X278760661Y-24594700D02*
X279010661Y-24344700D01*
X328575000Y-69894200D02*
X310099900Y-69894200D01*
X372431700Y-23619200D02*
X350674900Y-23619200D01*
X347624900Y-26879200D02*
X343649900Y-30854200D01*
X262799900Y-24594200D02*
X275199900Y-24594200D01*
X202510561Y-24594200D02*
X202785561Y-24319200D01*
X170500000Y-90356000D02*
X208599900Y-90356000D01*
X330260800Y-71540000D02*
X330240800Y-71560000D01*
X333575000Y-71565000D02*
X333550000Y-71540000D01*
X275200400Y-24594700D02*
X278760661Y-24594700D01*
X258424900Y-24594200D02*
X258674900Y-24344200D01*
X347534000Y-84353300D02*
X346174900Y-82994200D01*
X304674900Y-69269200D02*
X303325400Y-67919700D01*
X185824900Y-24294200D02*
X186124900Y-24594200D01*
X204924900Y-24594200D02*
X258424900Y-24594200D01*
X144749900Y-90356000D02*
X170500000Y-90356000D01*
X182174900Y-24594200D02*
X182474900Y-24294200D01*
X350674900Y-23619200D02*
X347624900Y-26669200D01*
X128834900Y-29419200D02*
X128834900Y-27804200D01*
X128834900Y-27804200D02*
X128824900Y-27794200D01*
X281049900Y-24594200D02*
X296724900Y-24594200D01*
X296974400Y-24344700D02*
X300025400Y-24344700D01*
X155949900Y-24294200D02*
X156249900Y-24594200D01*
X246699900Y-90356000D02*
X281967900Y-90356000D01*
X166849900Y-24294200D02*
X167149900Y-24594200D01*
X293000400Y-67919700D02*
X283349400Y-67919700D01*
X163199900Y-24294200D02*
X166849900Y-24294200D01*
X103825000Y-36000000D02*
X103825000Y-28769100D01*
X300025400Y-24344700D02*
X300274900Y-24594200D01*
X348650000Y-70975000D02*
X362974900Y-70975000D01*
X339375000Y-69025000D02*
X333575000Y-69025000D01*
X359875000Y-105619700D02*
X360074500Y-105619700D01*
X127944900Y-31069200D02*
X141925000Y-31069200D01*
X256402800Y-71891300D02*
X256424900Y-71869200D01*
X218264700Y-71934000D02*
X218264700Y-74100000D01*
X256402800Y-74100000D02*
X256402800Y-71891300D01*
X219874900Y-21819200D02*
X199999900Y-21819200D01*
X319519200Y-23094200D02*
X322900000Y-26475000D01*
X166199900Y-22294200D02*
X165872750Y-21967050D01*
X256424900Y-71869200D02*
X290699900Y-71869200D01*
X327669200Y-69000000D02*
X327275000Y-69394200D01*
X351157500Y-105101800D02*
X351374900Y-105319200D01*
X141925000Y-71894100D02*
X141949900Y-71869200D01*
X165872750Y-21967050D02*
X142174500Y-21967050D01*
X333550000Y-69000000D02*
X327669200Y-69000000D01*
X327275000Y-69394200D02*
X310449900Y-69394200D01*
X309575400Y-68519700D02*
X306112400Y-68519700D01*
X294413900Y-74100000D02*
X294413900Y-72319200D01*
X291149900Y-72319200D02*
X294413900Y-72319200D01*
X141949900Y-71869200D02*
X103924900Y-71869200D01*
X218199900Y-71869200D02*
X256424900Y-71869200D01*
X339375000Y-69025000D02*
X346690000Y-69025000D01*
X297424900Y-23094200D02*
X319519200Y-23094200D01*
X394337500Y-26475000D02*
X394337500Y-23731800D01*
X199524900Y-22294200D02*
X166199900Y-22294200D01*
X219878453Y-21815647D02*
X219874900Y-21819200D01*
X293149900Y-23094200D02*
X221157006Y-23094200D01*
X180113900Y-74100000D02*
X180113900Y-71908200D01*
X180113900Y-71908200D02*
X180074900Y-71869200D01*
X141925000Y-74100000D02*
X141925000Y-71894100D01*
X297424900Y-23094200D02*
X293149900Y-23094200D01*
X294413900Y-72319200D02*
X302349900Y-72319200D01*
X310449900Y-69394200D02*
X309575400Y-68519700D01*
X351675400Y-105619700D02*
X359875000Y-105619700D01*
X65725000Y-72719100D02*
X65725000Y-74100000D01*
X66574900Y-71869200D02*
X65725000Y-72719100D01*
X333575000Y-69025000D02*
X333550000Y-69000000D01*
X103825000Y-74100000D02*
X103825000Y-71969100D01*
X180074900Y-71869200D02*
X218199900Y-71869200D01*
X393474900Y-22869200D02*
X349094900Y-22869200D01*
X394337500Y-23731800D02*
X393474900Y-22869200D01*
X351374900Y-105319200D02*
X351675400Y-105619700D01*
X103825000Y-71969100D02*
X103924900Y-71869200D01*
X126294900Y-29419200D02*
X127944900Y-31069200D01*
X349094900Y-22869200D02*
X343649900Y-28314200D01*
X199999900Y-21819200D02*
X199524900Y-22294200D01*
X346695000Y-69020000D02*
X348650000Y-70975000D01*
X221157006Y-23094200D02*
X219878453Y-21815647D01*
X218199900Y-71869200D02*
X218264700Y-71934000D01*
X290699900Y-71869200D02*
X291149900Y-72319200D01*
X103924900Y-71869200D02*
X66574900Y-71869200D01*
X141949900Y-71869200D02*
X180074900Y-71869200D01*
X351157500Y-103280000D02*
X351157500Y-105101800D01*
X347900000Y-68725000D02*
X349400500Y-70225500D01*
X358070500Y-74573300D02*
X358573300Y-74573300D01*
X130901550Y-20967550D02*
X129649900Y-22219200D01*
X151449900Y-52919200D02*
X150949900Y-52919200D01*
X57724900Y-22844200D02*
X67649900Y-22844200D01*
X219474900Y-21319200D02*
X219478453Y-21315647D01*
X393688200Y-71263200D02*
X394349900Y-71263200D01*
X339350000Y-66460000D02*
X339375000Y-66485000D01*
X305710000Y-55430000D02*
X309935700Y-55430000D01*
X347500000Y-66500000D02*
X347500000Y-68325000D01*
X310274900Y-22344700D02*
X265750500Y-22344700D01*
X142735161Y-21467050D02*
X142235661Y-20967550D01*
X377895000Y-55470000D02*
X393688200Y-71263200D01*
X130899900Y-53469200D02*
X139199900Y-53469200D01*
X310224900Y-65944200D02*
X313174900Y-68894200D01*
X126549900Y-52919200D02*
X130349900Y-52919200D01*
X119549900Y-53469200D02*
X125999900Y-53469200D01*
X374150000Y-93975000D02*
X367075000Y-93975000D01*
X170352150Y-21467050D02*
X142735161Y-21467050D01*
X77281200Y-53044200D02*
X75275400Y-55050000D01*
X219478453Y-21315647D02*
X220085559Y-21315647D01*
X347485000Y-66485000D02*
X347500000Y-66500000D01*
X107699900Y-22217550D02*
X123753250Y-22217550D01*
X263728200Y-53040900D02*
X263631500Y-52944200D01*
X347204900Y-22219200D02*
X343649900Y-25774200D01*
X372985000Y-55090000D02*
X372150000Y-55925000D01*
X180025000Y-21319200D02*
X219474900Y-21319200D01*
X113349900Y-53069200D02*
X113350000Y-53069300D01*
X265750500Y-22344700D02*
X265750000Y-22344200D01*
X363850000Y-79850000D02*
X363850000Y-85575000D01*
X413387500Y-26475000D02*
X413387500Y-24906800D01*
X92599900Y-53044200D02*
X77281200Y-53044200D01*
X367075000Y-55925000D02*
X365975000Y-54825000D01*
X151450000Y-55050000D02*
X151450000Y-52919300D01*
X410699900Y-22219200D02*
X347204900Y-22219200D01*
X129649900Y-22219200D02*
X123754900Y-22219200D01*
X170500000Y-21319200D02*
X170352150Y-21467050D01*
X189550000Y-52969200D02*
X189575000Y-52944200D01*
X92624900Y-53069200D02*
X113349900Y-53069200D01*
X140124900Y-53469200D02*
X140562400Y-53031700D01*
X150949900Y-52919200D02*
X140674900Y-52919200D01*
X347500000Y-66500000D02*
X347480000Y-66480000D01*
X151450000Y-52919300D02*
X151449900Y-52919200D01*
X347500000Y-68325000D02*
X347900000Y-68725000D01*
X362050000Y-78050000D02*
X363850000Y-79850000D01*
X271310700Y-55430000D02*
X273899900Y-58019200D01*
X375005000Y-93120000D02*
X374150000Y-93975000D01*
X309935700Y-55430000D02*
X309949900Y-55444200D01*
X339375000Y-66485000D02*
X347485000Y-66485000D01*
X220085559Y-21315647D02*
X221114112Y-22344200D01*
X375287500Y-93120000D02*
X375005000Y-93120000D01*
X356237500Y-70225500D02*
X356238000Y-70225000D01*
X180025000Y-21319200D02*
X170500000Y-21319200D01*
X356238000Y-70225000D02*
X364150000Y-70225000D01*
X329159200Y-66460000D02*
X333550000Y-66460000D01*
X365975000Y-54825000D02*
X362562300Y-54825000D01*
X266117300Y-55430000D02*
X265737300Y-55050000D01*
X116849900Y-53469200D02*
X116449900Y-53069200D01*
X377147500Y-55470000D02*
X377895000Y-55470000D01*
X189575000Y-52944200D02*
X150974900Y-52944200D01*
X273899900Y-58019200D02*
X273899900Y-65094200D01*
X349400500Y-70225500D02*
X356237500Y-70225500D01*
X273899900Y-65094200D02*
X274724900Y-65919200D01*
X67649900Y-22844200D02*
X68276550Y-22217550D01*
X313174900Y-68894200D02*
X326725000Y-68894200D01*
X113350000Y-55050000D02*
X113350000Y-53069300D01*
X227650000Y-55050000D02*
X227650000Y-52944200D01*
X263631500Y-52944200D02*
X227650000Y-52944200D01*
X116449900Y-53069200D02*
X113349900Y-53069200D01*
X96849900Y-22217550D02*
X107699900Y-22217550D01*
X221114112Y-22344200D02*
X265750000Y-22344200D01*
X372150000Y-55925000D02*
X367075000Y-55925000D01*
X189550000Y-55050000D02*
X189550000Y-52969200D01*
X150974900Y-52944200D02*
X150949900Y-52919200D01*
X68276550Y-22217550D02*
X96849900Y-22217550D01*
X410457400Y-71263200D02*
X394349900Y-71263200D01*
X139199900Y-53469200D02*
X140124900Y-53469200D01*
X333550000Y-66460000D02*
X339350000Y-66460000D01*
X413387500Y-24906800D02*
X410699900Y-22219200D01*
X310199900Y-65919200D02*
X310224900Y-65944200D01*
X413387500Y-74193300D02*
X410457400Y-71263200D01*
X267597300Y-55430000D02*
X271310700Y-55430000D01*
X125999900Y-53469200D02*
X126549900Y-52919200D01*
X267597300Y-55430000D02*
X266117300Y-55430000D01*
X92599900Y-53044200D02*
X92624900Y-53069200D01*
X263728200Y-53040900D02*
X265737300Y-55050000D01*
X130349900Y-52919200D02*
X130899900Y-53469200D01*
X140674900Y-52919200D02*
X140562400Y-53031700D01*
X119549900Y-53469200D02*
X116849900Y-53469200D01*
X375287500Y-55090000D02*
X372985000Y-55090000D01*
X326725000Y-68894200D02*
X329159200Y-66460000D01*
X227650000Y-52944200D02*
X189575000Y-52944200D01*
X123753250Y-22217550D02*
X123754900Y-22219200D01*
X274724900Y-65919200D02*
X310199900Y-65919200D01*
X358573300Y-74573300D02*
X362050000Y-78050000D01*
X142235661Y-20967550D02*
X130901550Y-20967550D01*
X413387500Y-53531800D02*
X412699900Y-52844200D01*
X125535061Y-52469200D02*
X126085061Y-51919200D01*
X381426700Y-74573300D02*
X377147500Y-74573300D01*
X109399900Y-52119200D02*
X109849900Y-52569200D01*
X367950000Y-75000000D02*
X369575000Y-75000000D01*
X75250000Y-24619300D02*
X75249900Y-24619200D01*
X37150000Y-25494100D02*
X37150000Y-26475000D01*
X126085061Y-51919200D02*
X132749400Y-51919200D01*
X348202800Y-87572100D02*
X355174900Y-87572100D01*
X118174900Y-51743700D02*
X120499400Y-51743700D01*
X132749400Y-51919200D02*
X133049900Y-52219700D01*
X58756200Y-52519200D02*
X65449900Y-52519200D01*
X399025000Y-72300000D02*
X391650000Y-72300000D01*
X365675000Y-75275000D02*
X367675000Y-75275000D01*
X133149400Y-52319200D02*
X139728326Y-52319200D01*
X284762400Y-52493700D02*
X284761900Y-52494200D01*
X367675000Y-75275000D02*
X367950000Y-75000000D01*
X390950000Y-71600000D02*
X384400000Y-71600000D01*
X143449900Y-20144200D02*
X143399900Y-20094200D01*
X391650000Y-72300000D02*
X390950000Y-71600000D01*
X394274900Y-52844200D02*
X360776600Y-52844200D01*
X364525000Y-56175000D02*
X358749200Y-56175000D01*
X74847750Y-24217050D02*
X74424900Y-24217050D01*
X139728326Y-52319200D02*
X140278326Y-51769200D01*
X75249900Y-24619200D02*
X74847750Y-24217050D01*
X278924900Y-52494200D02*
X284761900Y-52494200D01*
X209224900Y-51769200D02*
X208674400Y-51769200D01*
X394337500Y-52906800D02*
X394274900Y-52844200D01*
X121224900Y-52469200D02*
X125535061Y-52469200D01*
X88699900Y-24217050D02*
X114747750Y-24217050D01*
X328799900Y-84260000D02*
X332856800Y-84260000D01*
X328799900Y-84260000D02*
X328180850Y-84260000D01*
X365700000Y-88475000D02*
X360325000Y-88475000D01*
X360776600Y-52844200D02*
X358097500Y-55523300D01*
X320343700Y-52493700D02*
X284762400Y-52493700D01*
X56225400Y-55050000D02*
X58756200Y-52519200D01*
X322900000Y-55050000D02*
X320343700Y-52493700D01*
X374230800Y-75250000D02*
X375287500Y-74193300D01*
X65849900Y-52119200D02*
X109399900Y-52119200D01*
X412699900Y-52844200D02*
X394274900Y-52844200D01*
X114747750Y-24217050D02*
X115149900Y-24619200D01*
X74424900Y-24217050D02*
X38427050Y-24217050D01*
X356224900Y-87572100D02*
X355174900Y-87572100D01*
X151424900Y-20144200D02*
X147224900Y-20144200D01*
X328160850Y-84240000D02*
X328047925Y-84127075D01*
X120499400Y-51743700D02*
X121224900Y-52469200D01*
X344890700Y-84260000D02*
X345365350Y-84734650D01*
X65449900Y-52519200D02*
X65849900Y-52119200D01*
X369575000Y-75000000D02*
X369825000Y-75250000D01*
X109849900Y-52569200D02*
X117349400Y-52569200D01*
X328180850Y-84260000D02*
X328047925Y-84127075D01*
X75250000Y-26475000D02*
X75250000Y-24619300D01*
X278199900Y-51769200D02*
X278924900Y-52494200D01*
X147224900Y-20144200D02*
X143449900Y-20144200D01*
X117349400Y-52569200D02*
X118174900Y-51743700D01*
X394337500Y-55050000D02*
X394337500Y-52906800D01*
X115149900Y-24619200D02*
X138274900Y-24619200D01*
X359422100Y-87572100D02*
X359712500Y-87862500D01*
X140278326Y-51769200D02*
X209224900Y-51769200D01*
X328047925Y-84127075D02*
X325840050Y-81919200D01*
X333550000Y-84240000D02*
X339350000Y-84240000D01*
X339350000Y-84240000D02*
X339375000Y-84265000D01*
X74424900Y-24217050D02*
X88699900Y-24217050D01*
X358749200Y-56175000D02*
X358097500Y-55523300D01*
X208674400Y-51769200D02*
X208599900Y-51694700D01*
X345365350Y-84734650D02*
X348202800Y-87572100D01*
X369825000Y-75250000D02*
X374230800Y-75250000D01*
X209224900Y-51769200D02*
X278199900Y-51769200D01*
X384400000Y-71600000D02*
X381426700Y-74573300D01*
X38427050Y-24217050D02*
X37150000Y-25494100D01*
X339375000Y-84265000D02*
X344895700Y-84265000D01*
X133049900Y-52219700D02*
X133149400Y-52319200D01*
X360325000Y-88475000D02*
X359712500Y-87862500D01*
X344895700Y-84265000D02*
X345365350Y-84734650D01*
X413387500Y-55050000D02*
X413387500Y-53531800D01*
X333550000Y-84240000D02*
X328160850Y-84240000D01*
X356224900Y-87572100D02*
X359422100Y-87572100D01*
X30800000Y-90019200D02*
X30800000Y-78144100D01*
X348124900Y-107119200D02*
X361400000Y-107119200D01*
X36772500Y-73430000D02*
X38772500Y-73430000D01*
X348009100Y-95660000D02*
X346024900Y-97644200D01*
X245474900Y-103444200D02*
X245124900Y-103794200D01*
X103447500Y-129196600D02*
X105899900Y-126744200D01*
X173675000Y-133790000D02*
X172200000Y-132315000D01*
X30800000Y-95690000D02*
X30800000Y-94994300D01*
X172200000Y-132315000D02*
X172200000Y-126744200D01*
X346024900Y-97644200D02*
X345649900Y-98019200D01*
X343926200Y-104585000D02*
X343931200Y-104580000D01*
X30800000Y-78144100D02*
X32304100Y-76640000D01*
X32304100Y-76640000D02*
X35562500Y-76640000D01*
X346649900Y-106719200D02*
X347724900Y-106719200D01*
X30074900Y-90744300D02*
X30800000Y-90019200D01*
X58249900Y-72394200D02*
X59285700Y-73430000D01*
X70024900Y-106744200D02*
X67899900Y-106744200D01*
X245087500Y-126744200D02*
X245112500Y-126769200D01*
X329569900Y-104560000D02*
X329549900Y-104580000D01*
X38772500Y-73430000D02*
X39808800Y-72393700D01*
X39808800Y-72393700D02*
X52049900Y-72393700D01*
X327139100Y-102169200D02*
X329549900Y-104580000D01*
X67899900Y-106744200D02*
X67737400Y-106581700D01*
X293905900Y-103444200D02*
X245474900Y-103444200D01*
X293905900Y-103444200D02*
X295180900Y-102169200D01*
X347724900Y-106719200D02*
X347899900Y-106894200D01*
X105548900Y-106744200D02*
X70024900Y-106744200D01*
X295180900Y-102169200D02*
X327139100Y-102169200D01*
X103447500Y-130580000D02*
X103447500Y-129196600D01*
X52050400Y-72394200D02*
X58249900Y-72394200D01*
X343931200Y-104580000D02*
X346070400Y-106719200D01*
X333550000Y-104560000D02*
X339350000Y-104560000D01*
X30074900Y-94269200D02*
X30074900Y-90744300D01*
X349887500Y-95660000D02*
X348009100Y-95660000D01*
X105899900Y-126744200D02*
X172200000Y-126744200D01*
X52049900Y-72393700D02*
X52050400Y-72394200D01*
X346070400Y-106719200D02*
X346649900Y-106719200D01*
X339350000Y-104560000D02*
X339375000Y-104585000D01*
X339375000Y-104585000D02*
X343926200Y-104585000D01*
X172200000Y-126744200D02*
X173674900Y-126744200D01*
X361400000Y-107119200D02*
X364725000Y-107119200D01*
X333550000Y-104560000D02*
X329569900Y-104560000D01*
X173674900Y-126744200D02*
X245087500Y-126744200D01*
X345649900Y-98019200D02*
X345649900Y-98169200D01*
X347899900Y-106894200D02*
X348124900Y-107119200D01*
X59285700Y-73430000D02*
X60585000Y-73430000D01*
X30800000Y-94994300D02*
X30074900Y-94269200D01*
X272599900Y-95594200D02*
X272695700Y-95690000D01*
X316693500Y-51494200D02*
X302099900Y-51494200D01*
X280674900Y-51494200D02*
X280124400Y-51494200D01*
X280124400Y-51494200D02*
X279874900Y-51743700D01*
X330294900Y-89320000D02*
X330274900Y-89340000D01*
X324629100Y-83694200D02*
X281449900Y-83694200D01*
X330274900Y-89340000D02*
X324629100Y-83694200D01*
X333550000Y-89320000D02*
X339350000Y-89320000D01*
X272574900Y-83694200D02*
X262524900Y-83694200D01*
X316943000Y-51743700D02*
X316693500Y-51494200D01*
X333550000Y-89320000D02*
X330294900Y-89320000D01*
X302099900Y-51494200D02*
X280674900Y-51494200D01*
X281779100Y-76640000D02*
X281449900Y-76969200D01*
X302099900Y-51494200D02*
X301524400Y-51494200D01*
X301524400Y-51494200D02*
X301274900Y-51743700D01*
X288063900Y-76640000D02*
X281779100Y-76640000D01*
X281449900Y-83694200D02*
X272574900Y-83694200D01*
X272695700Y-95690000D02*
X278411900Y-95690000D01*
X339350000Y-89320000D02*
X339375000Y-89345000D01*
X333550000Y-86780000D02*
X329194900Y-86780000D01*
X151682007Y-52444200D02*
X151657007Y-52419200D01*
X135574900Y-20194200D02*
X142199900Y-20194200D01*
X151657007Y-52419200D02*
X140699900Y-52419200D01*
X100149900Y-30294200D02*
X103424900Y-27019200D01*
X386200000Y-101450000D02*
X358217500Y-101450000D01*
X323499900Y-21569200D02*
X308799900Y-21569200D01*
X169649900Y-20544200D02*
X169227050Y-20967050D01*
X325169100Y-82794200D02*
X304349900Y-82794200D01*
X214524900Y-20819200D02*
X214528453Y-20815647D01*
X261975000Y-135150000D02*
X262950000Y-135150000D01*
X333550000Y-86780000D02*
X339350000Y-86780000D01*
X121214900Y-21468050D02*
X129001050Y-21468050D01*
X327772000Y-85397100D02*
X325169100Y-82794200D01*
X214528453Y-20815647D02*
X220292666Y-20815647D01*
X339375000Y-86805000D02*
X345350700Y-86805000D01*
X268996750Y-52622350D02*
X269946750Y-53572350D01*
X126324900Y-52419200D02*
X130799900Y-52419200D01*
X120549900Y-52594200D02*
X120924900Y-52969200D01*
X118624900Y-52493200D02*
X118725900Y-52594200D01*
X125774900Y-52969200D02*
X126324900Y-52419200D01*
X130799900Y-52419200D02*
X131175400Y-52419200D01*
X358217500Y-101450000D02*
X357507500Y-100740000D01*
X304349900Y-82794200D02*
X285099900Y-82794200D01*
X308799900Y-21569200D02*
X289274900Y-21569200D01*
X386848300Y-102098300D02*
X386200000Y-101450000D01*
X270674900Y-66794200D02*
X284932950Y-66794200D01*
X131424900Y-52668700D02*
X132399400Y-52668700D01*
X142199900Y-20194200D02*
X142972750Y-20967050D01*
X129001050Y-21468050D02*
X130274900Y-20194200D01*
X269946750Y-53572350D02*
X270674900Y-54300500D01*
X107024900Y-21468050D02*
X121214900Y-21468050D01*
X118725900Y-52594200D02*
X120549900Y-52594200D01*
X214524900Y-20819200D02*
X180599900Y-20819200D01*
X107024900Y-21468050D02*
X104049900Y-21468050D01*
X325874100Y-34095000D02*
X324170000Y-34095000D01*
X221046218Y-21569200D02*
X269799900Y-21569200D01*
X139917794Y-52969200D02*
X140467794Y-52419200D01*
X140467794Y-52419200D02*
X140699900Y-52419200D01*
X100149900Y-33594200D02*
X100149900Y-30294200D01*
X289274900Y-21569200D02*
X269799900Y-21569200D01*
X285099900Y-82794200D02*
X284749900Y-82444200D01*
X269946750Y-53572350D02*
X268818600Y-52444200D01*
X104049900Y-21468050D02*
X65651050Y-21468050D01*
X97475000Y-38540000D02*
X97475000Y-36269100D01*
X134274900Y-20194200D02*
X130274900Y-20194200D01*
X132537400Y-52806700D02*
X132699900Y-52969200D01*
X268818600Y-52444200D02*
X151682007Y-52444200D01*
X317721900Y-127941200D02*
X317721900Y-130580000D01*
X347032100Y-88476400D02*
X353600000Y-88476400D01*
X327772000Y-85397100D02*
X329174900Y-86800000D01*
X327649900Y-25719200D02*
X327649900Y-32319200D01*
X169227050Y-20967050D02*
X142972750Y-20967050D01*
X132399400Y-52668700D02*
X132537400Y-52806700D01*
X317299900Y-127519200D02*
X317721900Y-127941200D01*
X329194900Y-86780000D02*
X329174900Y-86800000D01*
X131175400Y-52419200D02*
X131424900Y-52668700D01*
X134274900Y-20194200D02*
X135574900Y-20194200D01*
X220292666Y-20815647D02*
X221046218Y-21569200D01*
X345350700Y-86805000D02*
X345355700Y-86800000D01*
X120924900Y-52969200D02*
X125774900Y-52969200D01*
X324374900Y-22444200D02*
X327649900Y-25719200D01*
X339350000Y-86780000D02*
X339375000Y-86805000D01*
X262950000Y-135150000D02*
X267500000Y-135150000D01*
X267500000Y-135150000D02*
X272070000Y-130580000D01*
X284932950Y-66794200D02*
X285308950Y-67170200D01*
X345355700Y-86800000D02*
X347032100Y-88476400D01*
X180599900Y-20819200D02*
X180324900Y-20544200D01*
X327649900Y-32319200D02*
X325874100Y-34095000D01*
X132699900Y-52969200D02*
X139917794Y-52969200D01*
X324374900Y-22444200D02*
X323499900Y-21569200D01*
X408247500Y-102098300D02*
X386848300Y-102098300D01*
X297512700Y-127519200D02*
X317299900Y-127519200D01*
X175599900Y-20544200D02*
X169649900Y-20544200D01*
X180324900Y-20544200D02*
X175599900Y-20544200D01*
X353600000Y-88476400D02*
X358975000Y-88476400D01*
X65651050Y-21468050D02*
X65574900Y-21544200D01*
X272070000Y-130580000D02*
X279660000Y-130580000D01*
X97475000Y-36269100D02*
X100149900Y-33594200D01*
D26*
X197874900Y-37969200D02*
X196374900Y-37969200D01*
X333550000Y-53875000D02*
X333550000Y-56300000D01*
X25404200Y-65144200D02*
X42149900Y-65144200D01*
X217399900Y-34094200D02*
X219699900Y-34094200D01*
X320061000Y-74480000D02*
X320424100Y-74480000D01*
X318328000Y-47769200D02*
X111974900Y-47769200D01*
X197874900Y-37969200D02*
X213524900Y-37969200D01*
X86524900Y-124369200D02*
X86519100Y-124375000D01*
X330130800Y-47769200D02*
X330515000Y-47385000D01*
X110224900Y-33669200D02*
X105974900Y-29419200D01*
X331625000Y-47385000D02*
X333550000Y-47385000D01*
X59149900Y-65144200D02*
X59240350Y-65234650D01*
X189550000Y-26475000D02*
X194805700Y-26475000D01*
D25*
X265625000Y-143775000D02*
X272000000Y-143775000D01*
D26*
X37745000Y-48864300D02*
X37745000Y-51625000D01*
X182924900Y-33369200D02*
X173549900Y-33369200D01*
X173549900Y-33369200D02*
X169724900Y-37194200D01*
X190924900Y-37969200D02*
X196374900Y-37969200D01*
X196474900Y-35444200D02*
X196474900Y-37869200D01*
X22145000Y-50204900D02*
X27449900Y-44900000D01*
D25*
X274750000Y-141025000D02*
X274750000Y-136975000D01*
D26*
X105924900Y-48794200D02*
X105949900Y-48819200D01*
X28850000Y-44900000D02*
X27449900Y-44900000D01*
D25*
X272000000Y-143775000D02*
X273475000Y-142300000D01*
D26*
X194805700Y-26475000D02*
X196474900Y-28144200D01*
X86519100Y-124375000D02*
X83300000Y-124375000D01*
X42149900Y-65144200D02*
X59149900Y-65144200D01*
X213524900Y-37969200D02*
X217399900Y-34094200D01*
X35380700Y-46500000D02*
X37745000Y-48864300D01*
X276099900Y-124369200D02*
X276575000Y-124369200D01*
X110924900Y-48819200D02*
X105949900Y-48819200D01*
X145449900Y-33669200D02*
X110224900Y-33669200D01*
X196474900Y-37869200D02*
X196374900Y-37969200D01*
X86524900Y-124369200D02*
X274750000Y-124369200D01*
X320424100Y-74480000D02*
X328399900Y-82455800D01*
X22145000Y-51475000D02*
X22145000Y-50204900D01*
X63550000Y-49669200D02*
X64425000Y-48794200D01*
D25*
X273475000Y-142300000D02*
X274750000Y-141025000D01*
D26*
X276575000Y-124369200D02*
X327924400Y-124369200D01*
D25*
X264898771Y-143775000D02*
X265625000Y-143775000D01*
D26*
X244249900Y-34094200D02*
X219699900Y-34094200D01*
X330515000Y-47385000D02*
X331625000Y-47385000D01*
X274750000Y-124369200D02*
X276099900Y-124369200D01*
D25*
X339350000Y-56300000D02*
X339375000Y-56325000D01*
D26*
X331625000Y-51950000D02*
X333550000Y-53875000D01*
X169724900Y-37194200D02*
X148974900Y-37194200D01*
D25*
X333550000Y-56300000D02*
X339350000Y-56300000D01*
D26*
X190924900Y-37969200D02*
X187524900Y-37969200D01*
D25*
X262774469Y-141650698D02*
X264898771Y-143775000D01*
D26*
X83300000Y-124375000D02*
X74275000Y-133400000D01*
X327924400Y-124369200D02*
X328249400Y-124694200D01*
X148974900Y-37194200D02*
X145449900Y-33669200D01*
X187524900Y-37969200D02*
X182924900Y-33369200D01*
X33325000Y-46500000D02*
X35380700Y-46500000D01*
X318328000Y-47769200D02*
X318328000Y-46160000D01*
X196474900Y-28144200D02*
X196474900Y-35444200D01*
X64425000Y-48794200D02*
X105924900Y-48794200D01*
X331625000Y-47385000D02*
X331625000Y-51950000D01*
X318328000Y-47769200D02*
X330130800Y-47769200D01*
X111974900Y-47769200D02*
X110924900Y-48819200D01*
X40224900Y-41719200D02*
X53124900Y-41719200D01*
X257424900Y-123319200D02*
X330649700Y-123319200D01*
X310024900Y-48744200D02*
X325000000Y-48744200D01*
X330649700Y-123319200D02*
X330674900Y-123344400D01*
X22524900Y-53169200D02*
X21324900Y-53169200D01*
X20624900Y-52469200D02*
X20624900Y-47995100D01*
X56874900Y-49418700D02*
X61024400Y-49418700D01*
D25*
X339350000Y-63920000D02*
X339375000Y-63945000D01*
D26*
X331800000Y-58425000D02*
X331884700Y-58340300D01*
X64400000Y-50594200D02*
X63474900Y-50594200D01*
X21324900Y-53169200D02*
X20624900Y-52469200D01*
X325144200Y-48744200D02*
X325000000Y-48744200D01*
X54299900Y-42794200D02*
X53224900Y-41719200D01*
X61024400Y-49418700D02*
X62199900Y-50594200D01*
X64775000Y-50219200D02*
X65125000Y-49869200D01*
X24644200Y-53169200D02*
X24700000Y-53225000D01*
X82780800Y-123319200D02*
X70650000Y-135450000D01*
X21324900Y-53169200D02*
X21444200Y-53169200D01*
X21444200Y-53169200D02*
X25375000Y-57100000D01*
X64775000Y-50219200D02*
X64400000Y-50594200D01*
X20624900Y-47995100D02*
X22145000Y-46475000D01*
X111474900Y-49869200D02*
X112599900Y-48744200D01*
X22145000Y-46475000D02*
X22145000Y-45965000D01*
X25375000Y-57100000D02*
X25375000Y-62575000D01*
X53224900Y-41719200D02*
X53124900Y-41719200D01*
X257424900Y-123319200D02*
X82780800Y-123319200D01*
X331884700Y-55484700D02*
X325144200Y-48744200D01*
X112599900Y-48744200D02*
X310024900Y-48744200D01*
X331884700Y-58340300D02*
X331884700Y-55484700D01*
X25980700Y-41719200D02*
X40224900Y-41719200D01*
X22524900Y-53169200D02*
X24644200Y-53169200D01*
X24810000Y-42889900D02*
X25890300Y-41809600D01*
D25*
X333550000Y-63920000D02*
X339350000Y-63920000D01*
D26*
X40185000Y-41759100D02*
X40185000Y-43325000D01*
X25890300Y-41809600D02*
X25980700Y-41719200D01*
X24810000Y-43300000D02*
X24810000Y-42889900D01*
X63474900Y-50594200D02*
X62199900Y-50594200D01*
X65125000Y-49869200D02*
X111474900Y-49869200D01*
X40224900Y-41719200D02*
X40185000Y-41759100D01*
X22145000Y-45965000D02*
X24810000Y-43300000D01*
D25*
X330475000Y-125625000D02*
X324790378Y-125625000D01*
X331405600Y-124740000D02*
X333575000Y-124740000D01*
X324565378Y-125400000D02*
X261750000Y-125400000D01*
X261750000Y-125400000D02*
X261369200Y-125019200D01*
X333575000Y-124740000D02*
X333575000Y-122200000D01*
X87275000Y-125019200D02*
X87269200Y-125025000D01*
X71325000Y-137600000D02*
X70675000Y-137600000D01*
X324790378Y-125625000D02*
X324565378Y-125400000D01*
X261369200Y-125019200D02*
X87275000Y-125019200D01*
X331382800Y-124717200D02*
X331405600Y-124740000D01*
X87269200Y-125025000D02*
X83900000Y-125025000D01*
X83900000Y-125025000D02*
X71325000Y-137600000D01*
X331382800Y-124717200D02*
X330475000Y-125625000D01*
X63030000Y-135450000D02*
X47433000Y-135450000D01*
X47433000Y-135450000D02*
X45283000Y-137600000D01*
X289199900Y-116219200D02*
X284024900Y-121394200D01*
X301294200Y-109644200D02*
X293749900Y-109644200D01*
X289199900Y-114194200D02*
X289199900Y-116219200D01*
X284024900Y-121394200D02*
X271325000Y-121394200D01*
X303850000Y-112200000D02*
X301294200Y-109644200D01*
X293749900Y-109644200D02*
X289199900Y-114194200D01*
X63030000Y-137625000D02*
X63055000Y-137600000D01*
X59315000Y-137625000D02*
X63030000Y-137625000D01*
X272155800Y-128544200D02*
X282094200Y-128544200D01*
X282094200Y-128544200D02*
X284800000Y-131250000D01*
X268550000Y-132150000D02*
X272155800Y-128544200D01*
X261325500Y-132150000D02*
X268550000Y-132150000D01*
X90810000Y-41509100D02*
X90810000Y-40450000D01*
X48224900Y-53319200D02*
X49974900Y-51569200D01*
X50462400Y-51081700D02*
X50674900Y-50869200D01*
X53500500Y-44375000D02*
X87944100Y-44375000D01*
X45574900Y-53319200D02*
X42690000Y-53319200D01*
X53025000Y-44850500D02*
X53500500Y-44375000D01*
X45574900Y-53319200D02*
X48224900Y-53319200D01*
X50674900Y-50869200D02*
X52774900Y-50869200D01*
X87944100Y-44375000D02*
X90810000Y-41509100D01*
X49974900Y-51569200D02*
X50462400Y-51081700D01*
X49575000Y-45600000D02*
X54194100Y-45600000D01*
X54824900Y-44969200D02*
X88830800Y-44969200D01*
X48750000Y-44775000D02*
X49575000Y-45600000D01*
X54194100Y-45600000D02*
X54824900Y-44969200D01*
X31365000Y-44775000D02*
X48750000Y-44775000D01*
X29890000Y-43300000D02*
X31365000Y-44775000D01*
X88830800Y-44969200D02*
X93350000Y-40450000D01*
X55830300Y-45844200D02*
X60249900Y-45844200D01*
X53450000Y-48387500D02*
X55187500Y-48387500D01*
X61024900Y-46619200D02*
X181155800Y-46619200D01*
X60249900Y-45844200D02*
X61024900Y-46619200D01*
X181155800Y-46619200D02*
X185775000Y-42000000D01*
X55325000Y-46349500D02*
X55830300Y-45844200D01*
X55187500Y-48387500D02*
X55225000Y-48350000D01*
X46900000Y-48450000D02*
X46962500Y-48387500D01*
X185775000Y-42000000D02*
X185775000Y-40500000D01*
X46962500Y-48387500D02*
X53450000Y-48387500D01*
X60119200Y-47119200D02*
X183045800Y-47119200D01*
X59700000Y-46700000D02*
X60119200Y-47119200D01*
X183045800Y-47119200D02*
X188315000Y-41850000D01*
X188315000Y-41850000D02*
X188315000Y-40500000D01*
X312399400Y-66893700D02*
X313499900Y-67994200D01*
X312399400Y-66644200D02*
X312399400Y-66893700D01*
X339350000Y-61380000D02*
X339375000Y-61405000D01*
X333550000Y-61380000D02*
X339350000Y-61380000D01*
X313499900Y-67994200D02*
X326574900Y-67994200D01*
X326574900Y-67994200D02*
X333169100Y-61400000D01*
X325324900Y-102694200D02*
X296049900Y-102694200D01*
X104324900Y-20718550D02*
X54025650Y-20718550D01*
X140749900Y-104544200D02*
X102124900Y-104544200D01*
X118699900Y-20718550D02*
X120049900Y-20718550D01*
X333550000Y-107100000D02*
X329770700Y-107100000D01*
X294199900Y-104544200D02*
X140749900Y-104544200D01*
X339350000Y-107100000D02*
X339375000Y-107125000D01*
X142699900Y-19319200D02*
X145074900Y-19319200D01*
X329770700Y-107100000D02*
X329750700Y-107120000D01*
X102124900Y-104544200D02*
X101399900Y-103819200D01*
X128725550Y-20718550D02*
X130124900Y-19319200D01*
X329750700Y-107120000D02*
X325324900Y-102694200D01*
X107114946Y-20718550D02*
X118699900Y-20718550D01*
X130124900Y-19319200D02*
X142699900Y-19319200D01*
X296049900Y-102694200D02*
X294199900Y-104544200D01*
X54025650Y-20718550D02*
X53875000Y-20869200D01*
X104324900Y-20718550D02*
X107150550Y-20718550D01*
X120049900Y-20718550D02*
X128725550Y-20718550D01*
X333550000Y-107100000D02*
X339350000Y-107100000D01*
X320744200Y-50494200D02*
X322825000Y-52575000D01*
X202199900Y-23794200D02*
X202224900Y-23819200D01*
X114924900Y-50419200D02*
X247192168Y-50419200D01*
X336050000Y-109660000D02*
X337886000Y-109660000D01*
X331350000Y-109650000D02*
X336040000Y-109650000D01*
X33549900Y-23717050D02*
X116072750Y-23717050D01*
X322825000Y-52575000D02*
X327875000Y-52575000D01*
X327875000Y-52575000D02*
X331200000Y-55900000D01*
X32010000Y-25256950D02*
X33549900Y-23717050D01*
X333250500Y-109660000D02*
X336050000Y-109660000D01*
X247267168Y-50494200D02*
X320744200Y-50494200D01*
X247192168Y-50419200D02*
X247267168Y-50494200D01*
X331275000Y-109575000D02*
X331350000Y-109650000D01*
X330984700Y-109005770D02*
X330984700Y-109284700D01*
X331275000Y-109575000D02*
X331340000Y-109640000D01*
X331340000Y-109640000D02*
X333550000Y-109640000D01*
X331200000Y-55900000D02*
X331200000Y-57200000D01*
X339350000Y-109640000D02*
X339375000Y-109665000D01*
X219699400Y-23819200D02*
X219724900Y-23844700D01*
X333550000Y-109640000D02*
X339350000Y-109640000D01*
X330984700Y-109284700D02*
X331275000Y-109575000D01*
X202224900Y-23819200D02*
X219699400Y-23819200D01*
X336040000Y-109650000D02*
X336050000Y-109660000D01*
X164174900Y-23794200D02*
X159649900Y-23794200D01*
X159649900Y-23794200D02*
X116149900Y-23794200D01*
X164174900Y-23794200D02*
X202199900Y-23794200D01*
X116072750Y-23717050D02*
X116149900Y-23794200D01*
X114674900Y-50669200D02*
X114924900Y-50419200D01*
X32010000Y-25805000D02*
X32010000Y-25256950D01*
X331200000Y-57200000D02*
X330984700Y-57415300D01*
X221199900Y-23844200D02*
X244249900Y-23844200D01*
X107449900Y-22967550D02*
X113599900Y-22967550D01*
X113599900Y-51819700D02*
X114699400Y-51819700D01*
X320344200Y-50994200D02*
X272874900Y-50994200D01*
X256899900Y-23844200D02*
X244249900Y-23844200D01*
X317760000Y-24829300D02*
X316775400Y-23844700D01*
X278449500Y-23844200D02*
X259349900Y-23844200D01*
X165334156Y-22794200D02*
X200274900Y-22794200D01*
X330449400Y-56225000D02*
X330449400Y-56124400D01*
X70249900Y-22967550D02*
X107449900Y-22967550D01*
X297500000Y-23844700D02*
X295174900Y-23844700D01*
X316775400Y-23844700D02*
X297500000Y-23844700D01*
X327500300Y-53175300D02*
X322525300Y-53175300D01*
X200274900Y-22794200D02*
X200749900Y-22319200D01*
X317760000Y-25805000D02*
X317760000Y-24829300D01*
X278450000Y-23844700D02*
X278449500Y-23844200D01*
X130087400Y-22969200D02*
X130899900Y-22156700D01*
X247060061Y-50994200D02*
X274825000Y-50994200D01*
X113599900Y-22967550D02*
X113601550Y-22969200D01*
X330449400Y-112200000D02*
X330469400Y-112180000D01*
X140999900Y-22467050D02*
X165007006Y-22467050D01*
X130899900Y-22156700D02*
X140689550Y-22156700D01*
X200749900Y-22319200D02*
X219674900Y-22319200D01*
X113601550Y-22969200D02*
X130087400Y-22969200D01*
X322525300Y-53175300D02*
X320344200Y-50994200D01*
X333550000Y-112180000D02*
X339350000Y-112180000D01*
X330449400Y-56124400D02*
X327500300Y-53175300D01*
X295174900Y-23844700D02*
X278450000Y-23844700D01*
X219674900Y-22319200D02*
X221199900Y-23844200D01*
X141500000Y-50919200D02*
X246985061Y-50919200D01*
X114699400Y-51819700D02*
X115599900Y-50919200D01*
X115599900Y-50919200D02*
X141500000Y-50919200D01*
X339350000Y-112180000D02*
X339375000Y-112205000D01*
X165007006Y-22467050D02*
X165334156Y-22794200D01*
X259349900Y-23844200D02*
X256899900Y-23844200D01*
X246985061Y-50919200D02*
X247060061Y-50994200D01*
X140689550Y-22156700D02*
X140999900Y-22467050D01*
X330469400Y-112180000D02*
X333550000Y-112180000D01*
X334700000Y-114740000D02*
X331231200Y-114740000D01*
X330875600Y-114740000D02*
X330824800Y-114689200D01*
X309399900Y-49394200D02*
X309499900Y-49494200D01*
X61774900Y-51394200D02*
X64749900Y-51394200D01*
X274125000Y-49419200D02*
X140350000Y-49419200D01*
X322800000Y-50169200D02*
X322125000Y-49494200D01*
X65249900Y-50894200D02*
X110825400Y-50894200D01*
X111049900Y-51118700D02*
X111525400Y-51118700D01*
X49949900Y-50119200D02*
X53624900Y-50119200D01*
X334684900Y-114724900D02*
X334700000Y-114740000D01*
X333550000Y-114720000D02*
X339350000Y-114720000D01*
X331231200Y-114740000D02*
X330875600Y-114740000D01*
X53849900Y-50344200D02*
X60724900Y-50344200D01*
X38700000Y-50150000D02*
X49919100Y-50150000D01*
X64749900Y-51394200D02*
X65249900Y-50894200D01*
X113224900Y-49419200D02*
X140350000Y-49419200D01*
X322800000Y-50225000D02*
X322800000Y-50169200D01*
X339350000Y-114720000D02*
X339375000Y-114745000D01*
X111525400Y-51118700D02*
X113224900Y-49419200D01*
X329299400Y-114724900D02*
X334684900Y-114724900D01*
X309499900Y-49494200D02*
X322125000Y-49494200D01*
X49919100Y-50150000D02*
X49949900Y-50119200D01*
X110825400Y-50894200D02*
X111049900Y-51118700D01*
X274150000Y-49394200D02*
X309399900Y-49394200D01*
X110912900Y-50981700D02*
X111049900Y-51118700D01*
X60724900Y-50344200D02*
X61774900Y-51394200D01*
X329299400Y-114724900D02*
X329304300Y-114720000D01*
X53624900Y-50119200D02*
X53849900Y-50344200D01*
X329304300Y-114720000D02*
X333550000Y-114720000D01*
X330265000Y-117260000D02*
X333550000Y-117260000D01*
X41224900Y-54094200D02*
X40405700Y-53275000D01*
X49799900Y-52794200D02*
X48499900Y-54094200D01*
X333550000Y-117260000D02*
X339350000Y-117260000D01*
X325700000Y-51550000D02*
X322675000Y-51550000D01*
X276400000Y-49919200D02*
X113999900Y-49919200D01*
X276475000Y-49994200D02*
X276400000Y-49919200D01*
X321119200Y-49994200D02*
X276475000Y-49994200D01*
X40405700Y-53275000D02*
X38925000Y-53275000D01*
X48499900Y-54094200D02*
X41224900Y-54094200D01*
X111999900Y-51919200D02*
X110324900Y-51919200D01*
X64949900Y-52019200D02*
X53149900Y-52019200D01*
X53149900Y-52019200D02*
X52374900Y-52794200D01*
X322675000Y-51550000D02*
X321119200Y-49994200D01*
X65444100Y-51525000D02*
X64949900Y-52019200D01*
X339350000Y-117260000D02*
X339375000Y-117285000D01*
X52374900Y-52794200D02*
X49799900Y-52794200D01*
X330250000Y-117275000D02*
X330265000Y-117260000D01*
X110324900Y-51919200D02*
X109930700Y-51525000D01*
X109930700Y-51525000D02*
X65444100Y-51525000D01*
X113999900Y-49919200D02*
X111999900Y-51919200D01*
X25375000Y-67655000D02*
X26764200Y-67655000D01*
X28100000Y-66319200D02*
X45324900Y-66319200D01*
X26764200Y-67655000D02*
X28100000Y-66319200D01*
X55874900Y-49244200D02*
X56449900Y-48669200D01*
X61824900Y-48669200D02*
X62074900Y-48919200D01*
X56449900Y-48669200D02*
X61824900Y-48669200D01*
X51725000Y-49244200D02*
X55874900Y-49244200D01*
X129824900Y-18569200D02*
X128624900Y-19769200D01*
X183024900Y-19794200D02*
X153174900Y-19794200D01*
X55549900Y-47450000D02*
X49150500Y-47450000D01*
X56019600Y-47919700D02*
X55549900Y-47450000D01*
X153174900Y-19794200D02*
X152949900Y-19569200D01*
X128624900Y-19769200D02*
X113199900Y-19769200D01*
X183199900Y-19969200D02*
X183024900Y-19794200D01*
X152949900Y-19569200D02*
X151950400Y-18569700D01*
X130174400Y-18569200D02*
X129824900Y-18569200D01*
X108374900Y-47919700D02*
X56019600Y-47919700D01*
X113000050Y-19969050D02*
X112934374Y-19969050D01*
X113199900Y-19769200D02*
X113000050Y-19969050D01*
X151950400Y-18569700D02*
X130174900Y-18569700D01*
X34999900Y-48075500D02*
X28568600Y-48075500D01*
X28568600Y-48075500D02*
X27249900Y-49394200D01*
D27*
X337450312Y-14950000D02*
G75*
G03*
X337450312Y-14950000I-1000312J0D01*
G01*
X337475312Y-17950000D02*
G75*
G03*
X337475312Y-17950000I-1000312J0D01*
G01*
X64675000Y-145850000D02*
G75*
G03*
X64675000Y-145850000I-1300000J0D01*
G01*
X23575000Y-145875000D02*
G75*
G03*
X23575000Y-145875000I-1300000J0D01*
G01*
X412150000Y-141175000D02*
G75*
G03*
X412150000Y-141175000I-1300000J0D01*
G01*
X159775000Y-14975000D02*
G75*
G03*
X159775000Y-14975000I-1300000J0D01*
G01*
X35875000Y-141275000D02*
G75*
G03*
X35875000Y-141275000I-1300000J0D01*
G01*
X54950000Y-15000000D02*
G75*
G03*
X54950000Y-15000000I-1300000J0D01*
G01*
X268900000Y-15150000D02*
G75*
G03*
X268900000Y-15150000I-1300000J0D01*
G01*
X393125000Y-15025000D02*
G75*
G03*
X393125000Y-15025000I-1300000J0D01*
G01*
X237326921Y-38924999D02*
X231201921Y-38924999D01*
X337500312Y-98225000D02*
G75*
G03*
X337500312Y-98225000I-1000312J0D01*
G01*
X262228841Y-38925000D02*
G75*
G03*
X262228841Y-40925000I-41J-1000000D01*
G01*
X373800000Y-65200000D02*
X373800000Y-71325000D01*
X168450000Y-38775000D02*
X147450000Y-38775000D01*
X375800000Y-90075000D02*
X375800000Y-83950000D01*
X337500000Y-55025000D02*
X337500000Y-42425001D01*
X231201921Y-38925000D02*
G75*
G03*
X231201921Y-40925000I-21J-1000000D01*
G01*
X401687500Y-38825000D02*
X395562500Y-38825000D01*
X355825000Y-38774999D02*
G75*
G03*
X355825000Y-40775001I0J-1000001D01*
G01*
X55150000Y-38949999D02*
X49025000Y-38949999D01*
X395562500Y-38824999D02*
G75*
G03*
X395562500Y-40825001I0J-1000001D01*
G01*
X60550000Y-142275001D02*
X66675000Y-142275001D01*
X313940376Y-40925000D02*
X320065376Y-40925000D01*
X272571148Y-38925000D02*
G75*
G03*
X272571148Y-40925000I-48J-1000000D01*
G01*
X413625000Y-40875001D02*
X419750000Y-40875001D01*
X226800000Y-15000000D02*
G75*
G03*
X226800000Y-15000000I-1300000J0D01*
G01*
X50575000Y-142250001D02*
X56700000Y-142250001D01*
X216642307Y-40925001D02*
G75*
G03*
X216642307Y-38924999I-7J1000001D01*
G01*
X361950000Y-38775000D02*
X355825000Y-38775000D01*
X404593750Y-40850001D02*
X410718750Y-40850001D01*
X380325000Y-145825000D02*
G75*
G03*
X380325000Y-145825000I-1300000J0D01*
G01*
X196800000Y-38900000D02*
X190675000Y-38900000D01*
X333025000Y-133625000D02*
G75*
G03*
X333025000Y-133625000I-1300000J0D01*
G01*
X330407683Y-40925001D02*
G75*
G03*
X330407683Y-38924999I17J1000001D01*
G01*
X115850212Y-39769200D02*
G75*
G03*
X115850212Y-39769200I-1000312J0D01*
G01*
X375800000Y-44700000D02*
G75*
G03*
X373800000Y-44700000I-1000000J0D01*
G01*
X337500312Y-65225000D02*
G75*
G03*
X337500312Y-65225000I-1000312J0D01*
G01*
X71250000Y-40744201D02*
X87650000Y-40744200D01*
X342350000Y-14950000D02*
G75*
G03*
X342350000Y-14950000I-1300000J0D01*
G01*
X335500000Y-36875000D02*
G75*
G03*
X337500000Y-36875000I1000000J0D01*
G01*
X335500000Y-124625000D02*
G75*
G03*
X337500000Y-124625000I1000000J0D01*
G01*
X190675000Y-40900001D02*
X196800000Y-40900001D01*
X120925212Y-39769200D02*
G75*
G03*
X120925212Y-39769200I-1000312J0D01*
G01*
X375800000Y-122700000D02*
G75*
G03*
X373800000Y-122700000I-1000000J0D01*
G01*
X210517307Y-38925000D02*
G75*
G03*
X210517307Y-40925000I-7J-1000000D01*
G01*
X375800000Y-65200000D02*
G75*
G03*
X373800000Y-65200000I-1000000J0D01*
G01*
X337500000Y-118500000D02*
G75*
G03*
X335500000Y-118500000I-1000000J0D01*
G01*
X330407683Y-38924999D02*
X324282683Y-38924999D01*
X190675000Y-38899999D02*
G75*
G03*
X190675000Y-40900001I0J-1000001D01*
G01*
X335500000Y-20975000D02*
X335500000Y-27100000D01*
X373800000Y-131625000D02*
X373800000Y-137750000D01*
X268353841Y-40925001D02*
G75*
G03*
X268353841Y-38924999I-41J1000001D01*
G01*
X45650000Y-40950001D02*
G75*
G03*
X45650000Y-38949999I0J1000001D01*
G01*
X337500312Y-77925000D02*
G75*
G03*
X337500312Y-77925000I-1000312J0D01*
G01*
X371575000Y-40775000D02*
G75*
G03*
X371575000Y-38775000I0J1000000D01*
G01*
X66675000Y-140275000D02*
X60550000Y-140275000D01*
X206300000Y-38924999D02*
X200175000Y-38924999D01*
X337500312Y-90600000D02*
G75*
G03*
X337500312Y-90600000I-1000312J0D01*
G01*
X320065376Y-38924999D02*
X313940376Y-38924999D01*
X226984614Y-40925001D02*
G75*
G03*
X226984614Y-38924999I-14J1000001D01*
G01*
X128550212Y-39769200D02*
G75*
G03*
X128550212Y-39769200I-1000312J0D01*
G01*
X200175000Y-38925000D02*
G75*
G03*
X200175000Y-40925000I0J-1000000D01*
G01*
X373827000Y-140394000D02*
X373827000Y-150046000D01*
X293255762Y-38925000D02*
G75*
G03*
X293255762Y-40925000I38J-1000000D01*
G01*
X410718750Y-40850000D02*
G75*
G03*
X410718750Y-38850000I-50J1000000D01*
G01*
X36050000Y-38925000D02*
X29925000Y-38925000D01*
X39525000Y-40950000D02*
X45650000Y-40950000D01*
X373800000Y-90075000D02*
G75*
G03*
X375800000Y-90075000I1000000J0D01*
G01*
X335499999Y-127225002D02*
X335500000Y-138225002D01*
X335499999Y-42425001D02*
X335500000Y-55025001D01*
X375800000Y-131625000D02*
G75*
G03*
X373800000Y-131625000I-1000000J0D01*
G01*
X335500000Y-30750000D02*
X335500000Y-36875000D01*
X375800000Y-128825000D02*
X375800000Y-122700000D01*
X196800000Y-40900000D02*
G75*
G03*
X196800000Y-38900000I0J1000000D01*
G01*
X395562500Y-40825001D02*
X401687500Y-40825001D01*
X346400000Y-38799999D02*
G75*
G03*
X346400000Y-40800001I0J-1000001D01*
G01*
X401687500Y-40825000D02*
G75*
G03*
X401687500Y-38825000I0J1000000D01*
G01*
X216642307Y-38924999D02*
X210517307Y-38924999D01*
X333375000Y-31400000D02*
G75*
G03*
X333375000Y-31400000I-1300000J0D01*
G01*
X337500312Y-100775000D02*
G75*
G03*
X337500312Y-100775000I-1000312J0D01*
G01*
X83525000Y-133425000D02*
G75*
G03*
X83525000Y-133425000I-1300000J0D01*
G01*
X337500312Y-75375000D02*
G75*
G03*
X337500312Y-75375000I-1000312J0D01*
G01*
X352525000Y-38800000D02*
X346400000Y-38800000D01*
X373800000Y-128825000D02*
G75*
G03*
X375800000Y-128825000I1000000J0D01*
G01*
X49025000Y-40950000D02*
X55150000Y-40950000D01*
X87650000Y-40744200D02*
G75*
G03*
X87650000Y-38744200I0J1000000D01*
G01*
X113350212Y-39769200D02*
G75*
G03*
X113350212Y-39769200I-1000312J0D01*
G01*
X365450000Y-40775001D02*
X371575000Y-40775001D01*
X220859614Y-40925000D02*
X226984614Y-40925000D01*
X419200000Y-133375000D02*
G75*
G03*
X419200000Y-133375000I-1300000J0D01*
G01*
X373800000Y-36025000D02*
X373800000Y-42150000D01*
X377500000Y-38824999D02*
G75*
G03*
X377500000Y-40825001I0J-1000001D01*
G01*
X419750000Y-38875000D02*
X413625000Y-38875000D01*
X123500212Y-39769200D02*
G75*
G03*
X123500212Y-39769200I-1000312J0D01*
G01*
X375800000Y-119087500D02*
X375800000Y-112962500D01*
X282913455Y-40925000D02*
X289038455Y-40925000D01*
X55150000Y-40950001D02*
G75*
G03*
X55150000Y-38949999I0J1000001D01*
G01*
X373827000Y-140394000D02*
X310962000Y-140394000D01*
X373800000Y-119087500D02*
G75*
G03*
X375800000Y-119087500I1000000J0D01*
G01*
X22625000Y-140224999D02*
G75*
G03*
X22625000Y-142225001I0J-1000001D01*
G01*
X375800000Y-36025000D02*
G75*
G03*
X373800000Y-36025000I-1000000J0D01*
G01*
X373800000Y-71325000D02*
G75*
G03*
X375800000Y-71325000I1000000J0D01*
G01*
X72725000Y-150050000D02*
X72725000Y-140275000D01*
X373800000Y-83950000D02*
X373800000Y-90075000D01*
X422500000Y-12450000D02*
X18100000Y-12450000D01*
X247669228Y-40925001D02*
G75*
G03*
X247669228Y-38924999I-28J1000001D01*
G01*
X404593750Y-38849999D02*
G75*
G03*
X404593750Y-40850001I-50J-1000001D01*
G01*
X251886534Y-40925000D02*
X258011534Y-40925000D01*
X50575000Y-140249999D02*
G75*
G03*
X50575000Y-142250001I0J-1000001D01*
G01*
X337500312Y-95675000D02*
G75*
G03*
X337500312Y-95675000I-1000312J0D01*
G01*
X36050000Y-40925000D02*
G75*
G03*
X36050000Y-38925000I0J1000000D01*
G01*
X337500000Y-30750000D02*
G75*
G03*
X335500000Y-30750000I-1000000J0D01*
G01*
X419750000Y-40875000D02*
G75*
G03*
X419750000Y-38875000I0J1000000D01*
G01*
X335500000Y-55025001D02*
G75*
G03*
X337500000Y-55025000I1000000J1D01*
G01*
X45650000Y-38949999D02*
X39525000Y-38949999D01*
X334625000Y-40925000D02*
X340750000Y-40925000D01*
X335500000Y-118500000D02*
X335500000Y-124625000D01*
X303598069Y-38925000D02*
G75*
G03*
X303598069Y-40925000I31J-1000000D01*
G01*
X83925124Y-15000000D02*
G75*
G03*
X83925124Y-15000000I-1300000J0D01*
G01*
X373800000Y-42150000D02*
G75*
G03*
X375800000Y-42150000I1000000J0D01*
G01*
X226984614Y-38924999D02*
X220859614Y-38924999D01*
X278696148Y-40925001D02*
G75*
G03*
X278696148Y-38924999I-48J1000001D01*
G01*
X47400000Y-142225000D02*
G75*
G03*
X47400000Y-140225000I0J1000000D01*
G01*
X375800000Y-83950000D02*
G75*
G03*
X373800000Y-83950000I-1000000J0D01*
G01*
X241544228Y-38925000D02*
G75*
G03*
X241544228Y-40925000I-28J-1000000D01*
G01*
X39525000Y-38950000D02*
G75*
G03*
X39525000Y-40950000I0J-1000000D01*
G01*
X274175000Y-133425000D02*
G75*
G03*
X274175000Y-133425000I-1300000J0D01*
G01*
X337500312Y-80450000D02*
G75*
G03*
X337500312Y-80450000I-1000312J0D01*
G01*
X320065376Y-40925001D02*
G75*
G03*
X320065376Y-38924999I24J1000001D01*
G01*
X200175000Y-40925000D02*
X206300000Y-40925000D01*
X377500000Y-40825001D02*
X383625000Y-40825001D01*
X352525000Y-40800000D02*
G75*
G03*
X352525000Y-38800000I0J1000000D01*
G01*
X241544228Y-40925000D02*
X247669228Y-40925000D01*
X381100000Y-44900000D02*
G75*
G03*
X381100000Y-44900000I-1300000J0D01*
G01*
X375800000Y-103412500D02*
G75*
G03*
X373800000Y-103412500I-1000000J0D01*
G01*
X147450000Y-38775000D02*
G75*
G03*
X147450000Y-40775000I0J-1000000D01*
G01*
X23750208Y-98200000D02*
G75*
G03*
X23750208Y-98200000I-1500208J0D01*
G01*
X373800000Y-44700000D02*
X373800000Y-50825000D01*
X337500312Y-62675000D02*
G75*
G03*
X337500312Y-62675000I-1000312J0D01*
G01*
X251886534Y-38925000D02*
G75*
G03*
X251886534Y-40925000I-34J-1000000D01*
G01*
X250350000Y-15000000D02*
G75*
G03*
X250350000Y-15000000I-1300000J0D01*
G01*
X206300000Y-40925001D02*
G75*
G03*
X206300000Y-38924999I0J1000001D01*
G01*
X337500312Y-105850000D02*
G75*
G03*
X337500312Y-105850000I-1000312J0D01*
G01*
X168450000Y-40775000D02*
G75*
G03*
X168450000Y-38775000I0J1000000D01*
G01*
X22625000Y-142225001D02*
X28750000Y-142225001D01*
X35925000Y-133400000D02*
G75*
G03*
X35925000Y-133400000I-1300000J0D01*
G01*
X337500000Y-138225003D02*
X337500000Y-127225002D01*
X375800000Y-50825000D02*
X375800000Y-44700000D01*
X110775212Y-39769200D02*
G75*
G03*
X110775212Y-39769200I-1000312J0D01*
G01*
X26025000Y-38925000D02*
X19900000Y-38925000D01*
X373800000Y-103412500D02*
X373800000Y-109537500D01*
X383625000Y-40825000D02*
G75*
G03*
X383625000Y-38825000I0J1000000D01*
G01*
X247669228Y-38924999D02*
X241544228Y-38924999D01*
X375800000Y-137750000D02*
X375800000Y-131625000D01*
X337499999Y-127225002D02*
G75*
G03*
X335499999Y-127225002I-1000000J1D01*
G01*
X346400000Y-40800001D02*
X352525000Y-40800001D01*
X337500001Y-42425001D02*
G75*
G03*
X335499999Y-42425001I-1000001J0D01*
G01*
X337500312Y-72850000D02*
G75*
G03*
X337500312Y-72850000I-1000312J0D01*
G01*
X29925000Y-38924999D02*
G75*
G03*
X29925000Y-40925001I0J-1000001D01*
G01*
X334625000Y-38925000D02*
G75*
G03*
X334625000Y-40925000I0J-1000000D01*
G01*
X324282683Y-40925000D02*
X330407683Y-40925000D01*
X419150000Y-14975000D02*
G75*
G03*
X419150000Y-14975000I-1300000J0D01*
G01*
X24024876Y-31450000D02*
G75*
G03*
X24024876Y-31450000I-1300000J0D01*
G01*
X19900000Y-38924999D02*
G75*
G03*
X19900000Y-40925001I0J-1000001D01*
G01*
X373800000Y-122700000D02*
X373800000Y-128825000D01*
X268353841Y-38924999D02*
X262228841Y-38924999D01*
X289038455Y-38924999D02*
X282913455Y-38924999D01*
X373800000Y-50825000D02*
G75*
G03*
X375800000Y-50825000I1000000J0D01*
G01*
X337500312Y-60125000D02*
G75*
G03*
X337500312Y-60125000I-1000312J0D01*
G01*
X371575000Y-38775000D02*
X365450000Y-38775000D01*
X23550000Y-133500000D02*
G75*
G03*
X23550000Y-133500000I-1300000J0D01*
G01*
X355249876Y-15000000D02*
G75*
G03*
X355249876Y-15000000I-1300000J0D01*
G01*
X71050312Y-141300000D02*
G75*
G03*
X71050312Y-141300000I-1000312J0D01*
G01*
X107600000Y-14975000D02*
G75*
G03*
X107600000Y-14975000I-1300000J0D01*
G01*
X337500312Y-103325000D02*
G75*
G03*
X337500312Y-103325000I-1000312J0D01*
G01*
X126025212Y-39769200D02*
G75*
G03*
X126025212Y-39769200I-1000312J0D01*
G01*
X337500312Y-88075000D02*
G75*
G03*
X337500312Y-88075000I-1000312J0D01*
G01*
X421000312Y-141300000D02*
G75*
G03*
X421000312Y-141300000I-1000312J0D01*
G01*
X337500000Y-124625000D02*
X337500000Y-118500000D01*
X335500000Y-27100000D02*
G75*
G03*
X337500000Y-27100000I1000000J0D01*
G01*
X337500312Y-82975000D02*
G75*
G03*
X337500312Y-82975000I-1000312J0D01*
G01*
X131125212Y-39769200D02*
G75*
G03*
X131125212Y-39769200I-1000312J0D01*
G01*
X18100000Y-16950000D02*
X18100000Y-12450000D01*
X231201921Y-40925000D02*
X237326921Y-40925000D01*
X309723069Y-40925001D02*
G75*
G03*
X309723069Y-38924999I31J1000001D01*
G01*
X392656250Y-40825000D02*
G75*
G03*
X392656250Y-38825000I-50J1000000D01*
G01*
X220859614Y-38925000D02*
G75*
G03*
X220859614Y-40925000I-14J-1000000D01*
G01*
X355825000Y-40775001D02*
X361950000Y-40775001D01*
X337500312Y-110925000D02*
G75*
G03*
X337500312Y-110925000I-1000312J0D01*
G01*
X375800000Y-109537500D02*
X375800000Y-103412500D01*
X237326921Y-40925001D02*
G75*
G03*
X237326921Y-38924999I-21J1000001D01*
G01*
X373800000Y-112962500D02*
X373800000Y-119087500D01*
X386531250Y-38824999D02*
G75*
G03*
X386531250Y-40825001I-50J-1000001D01*
G01*
X337500312Y-67750000D02*
G75*
G03*
X337500312Y-67750000I-1000312J0D01*
G01*
X49025000Y-38950000D02*
G75*
G03*
X49025000Y-40950000I0J-1000000D01*
G01*
X337500312Y-116000000D02*
G75*
G03*
X337500312Y-116000000I-1000312J0D01*
G01*
X370375000Y-133425000D02*
G75*
G03*
X370375000Y-133425000I-1300000J0D01*
G01*
X18075000Y-150050000D02*
X18100000Y-16950000D01*
X71250000Y-38744200D02*
X87650000Y-38744200D01*
X422500000Y-150050000D02*
X373827000Y-150046000D01*
X375800000Y-71325000D02*
X375800000Y-65200000D01*
X375800000Y-42150000D02*
X375800000Y-36025000D01*
X337500000Y-36875000D02*
X337500000Y-30750000D01*
X258011534Y-38924999D02*
X251886534Y-38924999D01*
X41275000Y-140224999D02*
G75*
G03*
X41275000Y-142225001I0J-1000001D01*
G01*
X337500312Y-70300000D02*
G75*
G03*
X337500312Y-70300000I-1000312J0D01*
G01*
X355475000Y-44225000D02*
G75*
G03*
X355475000Y-44225000I-1300000J0D01*
G01*
X293255762Y-40925000D02*
X299380762Y-40925000D01*
X422500000Y-16950000D02*
X422500000Y-12450000D01*
X375800000Y-112962500D02*
G75*
G03*
X373800000Y-112962500I-1000000J0D01*
G01*
X60550000Y-140274999D02*
G75*
G03*
X60550000Y-142275001I0J-1000001D01*
G01*
X236350000Y-31425000D02*
G75*
G03*
X236350000Y-31425000I-1300000J0D01*
G01*
X278696148Y-38924999D02*
X272571148Y-38924999D01*
X66675000Y-142275000D02*
G75*
G03*
X66675000Y-140275000I0J1000000D01*
G01*
X26025000Y-40925000D02*
G75*
G03*
X26025000Y-38925000I0J1000000D01*
G01*
X335500000Y-138225002D02*
G75*
G03*
X337500000Y-138225003I1000000J2D01*
G01*
X337500000Y-27100000D02*
X337500000Y-20975000D01*
X19900000Y-40925001D02*
X26025000Y-40925001D01*
X258011534Y-40925001D02*
G75*
G03*
X258011534Y-38924999I-34J1000001D01*
G01*
X28900000Y-18625000D02*
G75*
G03*
X28900000Y-18625000I-1300000J0D01*
G01*
X337500000Y-20975000D02*
G75*
G03*
X335500000Y-20975000I-1000000J0D01*
G01*
X419125000Y-44900000D02*
G75*
G03*
X419125000Y-44900000I-1300000J0D01*
G01*
X299380762Y-38924999D02*
X293255762Y-38924999D01*
X410718750Y-38850000D02*
X404593750Y-38850000D01*
X303598069Y-40925000D02*
X309723069Y-40925000D01*
X373800000Y-109537500D02*
G75*
G03*
X375800000Y-109537500I1000000J0D01*
G01*
X313940376Y-38925000D02*
G75*
G03*
X313940376Y-40925000I24J-1000000D01*
G01*
X282913455Y-38925000D02*
G75*
G03*
X282913455Y-40925000I45J-1000000D01*
G01*
X56700000Y-140250000D02*
X50575000Y-140250000D01*
X337500312Y-113475000D02*
G75*
G03*
X337500312Y-113475000I-1000312J0D01*
G01*
X361950000Y-40775000D02*
G75*
G03*
X361950000Y-38775000I0J1000000D01*
G01*
X337500312Y-57575000D02*
G75*
G03*
X337500312Y-57575000I-1000312J0D01*
G01*
X365450000Y-38774999D02*
G75*
G03*
X365450000Y-40775001I0J-1000001D01*
G01*
X355225000Y-133425000D02*
G75*
G03*
X355225000Y-133425000I-1300000J0D01*
G01*
X272571148Y-40925000D02*
X278696148Y-40925000D01*
X20925000Y-141225000D02*
G75*
G03*
X20925000Y-141225000I-1000312J0D01*
G01*
X413625000Y-38874999D02*
G75*
G03*
X413625000Y-40875001I0J-1000001D01*
G01*
X310962000Y-150046000D02*
X89728000Y-150046000D01*
X310962000Y-140394000D02*
X310962000Y-150046000D01*
X309723069Y-38924999D02*
X303598069Y-38924999D01*
X324282683Y-38925000D02*
G75*
G03*
X324282683Y-40925000I17J-1000000D01*
G01*
X89728000Y-140267000D02*
X72725000Y-140275000D01*
X207425000Y-44275000D02*
G75*
G03*
X207425000Y-44275000I-1300000J0D01*
G01*
X28750000Y-142225000D02*
G75*
G03*
X28750000Y-140225000I0J1000000D01*
G01*
X337500312Y-85525000D02*
G75*
G03*
X337500312Y-85525000I-1000312J0D01*
G01*
X289038455Y-40925001D02*
G75*
G03*
X289038455Y-38924999I45J1000001D01*
G01*
X386531250Y-40825001D02*
X392656250Y-40825001D01*
X89728000Y-150046000D02*
X89728000Y-140267000D01*
X210517307Y-40925000D02*
X216642307Y-40925000D01*
X337500312Y-93150000D02*
G75*
G03*
X337500312Y-93150000I-1000312J0D01*
G01*
X118375212Y-39769200D02*
G75*
G03*
X118375212Y-39769200I-1000312J0D01*
G01*
X56700000Y-142250000D02*
G75*
G03*
X56700000Y-140250000I0J1000000D01*
G01*
X299380762Y-40925001D02*
G75*
G03*
X299380762Y-38924999I38J1000001D01*
G01*
X340750000Y-38924999D02*
X334625000Y-38924999D01*
X41275000Y-142225001D02*
X47400000Y-142225001D01*
X29925000Y-40925001D02*
X36050000Y-40925001D01*
X147450000Y-40775000D02*
X168450000Y-40775000D01*
X340750000Y-40925001D02*
G75*
G03*
X340750000Y-38924999I0J1000001D01*
G01*
X373800000Y-137750000D02*
G75*
G03*
X375800000Y-137750000I1000000J0D01*
G01*
X383625000Y-38825000D02*
X377500000Y-38825000D01*
X337500312Y-108375000D02*
G75*
G03*
X337500312Y-108375000I-1000312J0D01*
G01*
X72725000Y-150050000D02*
X18075000Y-150050000D01*
X419225000Y-145825000D02*
G75*
G03*
X419225000Y-145825000I-1300000J0D01*
G01*
X422500000Y-16950000D02*
X422500000Y-150050000D01*
X262228841Y-40925000D02*
X268353841Y-40925000D01*
X47400000Y-140225000D02*
X41275000Y-140225000D01*
X71250000Y-38744199D02*
G75*
G03*
X71250000Y-40744201I0J-1000001D01*
G01*
X28750000Y-140225000D02*
X22625000Y-140225000D01*
X392656250Y-38825000D02*
X386531250Y-38825000D01*
M02*
