M48
; DRILL file {KiCad 7.0.6} date Fri Sep  1 19:36:15 2023
; FORMAT={-:-/ absolute / inch / decimal}
; #@! TF.CreationDate,2023-09-01T19:36:15-04:00
; #@! TF.GenerationSoftware,Kicad,Pcbnew,7.0.6
; #@! TF.FileFunction,Plated,1,2,PTH
FMAT,2
INCH
; #@! TA.AperFunction,Plated,PTH,ViaDrill
T1C0.0157
; #@! TA.AperFunction,Plated,PTH,ComponentDrill
T2C0.0276
; #@! TA.AperFunction,Plated,PTH,ComponentDrill
T3C0.0315
; #@! TA.AperFunction,Plated,PTH,ComponentDrill
T4C0.0354
; #@! TA.AperFunction,Plated,PTH,ComponentDrill
T5C0.0394
; #@! TA.AperFunction,Plated,PTH,ComponentDrill
T6C0.0591
; #@! TA.AperFunction,Plated,PTH,ComponentDrill
T7C0.1260
%
G90
G05
T1
X0.9724Y-2.0955
X1.0728Y-1.9447
X1.1358Y-1.7677
X1.312Y-1.8307
X1.3779Y-1.8927
X1.4626Y-3.4378
X1.4636Y-3.3886
X1.4852Y-2.8206
X1.5236Y-1.9744
X1.5325Y-2.0974
X1.6501Y-2.7911
X1.6594Y-2.5647
X1.6614Y-3.6868
X1.6807Y-2.0992
X1.7844Y-2.611
X1.8465Y-1.9075
X1.9351Y-1.8681
X2.0364Y-1.9387
X2.0492Y-2.8501
X2.0778Y-2.0027
X2.0876Y-1.7658
X2.1211Y-0.8216
X2.1378Y-1.6848
X2.1742Y-1.9035
X2.1781Y-1.8248
X2.2392Y-1.9456
X2.2726Y-0.8994
X2.3323Y-2.5683
X2.3504Y-1.8386
X2.4439Y-1.926
X2.502Y-1.9555
X2.5502Y-1.9771
X2.5797Y-3.3886
X2.5817Y-0.8482
X2.5846Y-4.0411
X2.6668Y-4.1961
X2.7657Y-0.9042
X2.7766Y-0.7645
X2.9242Y-5.252
X2.9626Y-2.7744
X2.9626Y-3.5283
X3.1939Y-3.4378
X3.1939Y-4.2803
X3.2618Y-4.8524
X3.2795Y-4.8967
X3.2854Y-3.7673
X3.3366Y-2.7813
X3.4754Y-2.613
X3.5102Y-3.5765
X3.5167Y-2.7084
X3.622Y-2.674
X3.7126Y-2.0581
X3.7126Y-3.4673
X3.8366Y-2.643
X3.9921Y-4.0874
X4.0718Y-1.0637
X4.0876Y-4.2803
X4.096Y-2.829
X4.0965Y-0.8452
X4.1555Y-4.2025
X4.1713Y-1.922
X4.2171Y-0.8157
X4.2667Y-1.8866
X4.372Y-2.0125
X4.3952Y-3.4894
X4.4006Y-4.2074
X4.4232Y-2.7429
X4.4462Y-0.7862
X4.4626Y-3.5278
X4.4724Y-0.9042
X4.4724Y-2.0401
X4.5148Y-1.9949
X4.5728Y-0.9368
X4.6476Y-2.675
X4.6703Y-2.0667
X4.6732Y-0.8157
X4.6742Y-2.7084
X4.7067Y-2.1051
X4.7214Y-2.2685
X4.7722Y-0.8452
X4.81Y-2.7399
X4.8376Y-4.2074
X4.8617Y-2.7965
X4.8722Y-0.8748
X5.0575Y-0.7429
X5.0994Y-3.485
X5.1742Y-2.0736
X5.2126Y-3.5573
X5.2382Y-2.0559
X5.2835Y-0.9073
X5.4439Y-0.9693
X5.5059Y-3.4752
X5.5876Y-0.855
X5.5876Y-1.2232
X5.5876Y-4.175
X5.5886Y-3.4378
X5.6457Y-0.7911
X5.7116Y-0.7606
X5.7126Y-3.4722
X5.9616Y-0.7931
X5.9626Y-3.5278
X6.063Y-3.4742
X6.2854Y-0.9368
X6.3366Y-2.7891
X6.3366Y-4.2074
X6.5967Y-3.4744
X6.7126Y-0.8393
X6.7126Y-2.0352
X6.7126Y-3.5573
X6.9134Y-0.8088
X7.0876Y-0.8393
X7.0876Y-4.175
X7.2121Y-3.4447
X7.2126Y-0.7862
X7.4242Y-4.2074
X7.4636Y-3.5278
X7.5974Y-2.6179
X7.8386Y-4.2074
X7.8465Y-2.7891
X7.9616Y-0.9378
X7.9616Y-3.4447
X8.2126Y-2.0352
X8.2126Y-3.5573
X8.2126Y-0.9082
X8.3431Y-2.6169
X8.5896Y-4.175
X8.6506Y-0.9388
X8.8297Y-3.4151
X9.3376Y-4.2074
X9.3445Y-2.7891
X9.6161Y-0.9387
X9.6501Y-4.9909
X9.6506Y-4.0864
X9.6811Y-3.4151
X9.7047Y-4.2074
X9.7126Y-2.0352
X9.7126Y-3.5573
X10.0768Y-0.8197
X10.0886Y-4.175
X10.1142Y-0.9387
X10.1348Y-4.8551
X10.1604Y-5.3986
X10.2215Y-5.0
X10.2884Y-5.2028
X10.314Y-5.3209
X10.3356Y-3.295
X10.4626Y-0.8797
X10.622Y-0.8492
X10.6545Y-4.3364
X10.6545Y-4.2075
X10.6565Y-2.1378
X10.6565Y-2.6297
X10.6821Y-4.7793
X10.7313Y-3.295
X10.7323Y-3.7636
X10.8169Y-5.3927
X10.8346Y-0.9683
X10.8386Y-2.7891
X10.8888Y-4.8964
X10.9626Y-0.9388
X11.0187Y-2.0372
X11.0807Y-3.0303
X11.0807Y-3.295
X11.0971Y-2.7084
X11.1011Y-3.5573
X11.1545Y-2.675
X11.2106Y-3.2458
X11.2111Y-2.0667
X11.2126Y-0.8197
X11.2326Y-2.6445
X11.3888Y-0.8492
X11.44Y-2.7891
X11.4803Y-2.7823
X11.4921Y-2.7399
X11.5207Y-2.7084
X11.5413Y-0.9092
X11.5711Y-4.0726
X11.5896Y-2.674
X11.6121Y-4.1454
X11.6211Y-0.9388
X11.6427Y-4.2872
X11.7131Y-5.0204
X11.8612Y-2.0372
X11.9035Y-2.8472
X11.9823Y-3.2596
X12.0517Y-2.6976
X12.0738Y-2.8157
X12.1378Y-4.4447
X12.1575Y-0.8492
X12.1604Y-3.5037
X12.2028Y-2.1828
X12.2057Y-1.9191
X12.2136Y-2.5962
X12.2155Y-0.8797
X12.252Y-3.4742
X12.2923Y-3.4447
X12.2992Y-2.6238
X12.4781Y-2.0372
X12.6348Y-4.0726
X12.7087Y-1.9774
X12.7165Y-3.4151
X12.7402Y-3.9793
X12.7953Y-1.9191
X12.8019Y-3.2596
X12.8228Y-2.0295
X12.8283Y-3.2252
X12.8782Y-2.8538
X12.8937Y-4.4171
X12.9232Y-4.9092
X12.9291Y-3.2463
X12.9645Y-4.5167
X13.002Y-4.6171
X13.0098Y-2.2136
X13.0098Y-4.4173
X13.0187Y-4.8561
X13.0309Y-2.2604
X13.0309Y-4.2916
X13.063Y-2.3002
X13.5866Y-2.562
X13.5935Y-2.0295
X13.6083Y-3.8649
X13.6142Y-4.2547
X13.6289Y-3.2675
X13.6299Y-3.0185
X13.6476Y-4.2015
X13.6494Y-2.7173
X13.6506Y-3.862
X13.6811Y-2.6181
X13.7706Y-2.8253
X13.9213Y-3.4833
X14.0246Y-3.4477
X14.0251Y-2.7648
X14.1329Y-3.4833
X14.1575Y-2.0591
X14.1703Y-3.5513
X14.1762Y-4.1583
X14.2126Y-4.2557
X14.2741Y-2.1585
X14.2874Y-3.5815
X14.2904Y-2.7943
X14.3169Y-2.2628
X14.3209Y-3.0217
X14.3248Y-3.3691
X14.3268Y-2.7648
X14.3514Y-2.2116
X14.3593Y-4.2173
X14.3967Y-2.9636
X14.3976Y-3.4833
X14.439Y-3.9587
X14.4518Y-3.6998
X14.5236Y-3.9646
X15.1644Y-4.0276
X15.3789Y-4.1053
X15.5256Y-2.8056
X15.7096Y-2.8465
T2
X2.4815Y-5.3327
X2.4825Y-5.4173
X2.7815Y-5.3327
X2.7825Y-5.4173
T3
X0.8719Y-1.8297
X0.8719Y-2.0266
X0.9768Y-1.7047
X1.0768Y-1.7047
X1.1768Y-1.7047
X1.2768Y-1.7047
X1.3768Y-1.7047
X1.486Y-1.8356
X1.486Y-2.0325
X1.5821Y-1.7057
X1.6821Y-1.7057
X1.7821Y-1.7057
X1.8821Y-1.7057
X1.9821Y-1.7057
X3.9587Y-1.0421
X4.1555Y-1.0421
X8.6496Y-1.1454
X8.6496Y-1.3423
X9.6161Y-1.1454
X9.6161Y-1.3423
X10.1486Y-5.5768
X10.3455Y-5.5768
T4
X1.7828Y-5.4173
X1.8828Y-5.4173
X2.0644Y-4.1772
X2.1644Y-4.1772
X2.2352Y-5.4183
X2.3352Y-5.4183
X3.5752Y-1.5925
X3.6752Y-1.5925
X7.314Y-1.5945
X7.414Y-1.5945
T5
X0.999Y-2.4636
X0.999Y-2.5636
X0.999Y-2.6636
X4.1716Y-1.7793
X4.1722Y-1.1582
X4.2716Y-1.7793
X4.2722Y-1.1582
X4.3716Y-1.7793
X4.3722Y-1.1582
X4.4716Y-1.7793
X4.4722Y-1.1582
X4.5716Y-1.7793
X4.5722Y-1.1582
X4.6716Y-1.7793
X4.6722Y-1.1582
X4.7716Y-1.7793
X4.7722Y-1.1582
X4.8716Y-1.7793
X4.8722Y-1.1582
X4.9716Y-1.7793
X4.9722Y-1.1582
X5.0716Y-1.7793
X5.0722Y-1.1582
X5.1716Y-1.7793
X5.1722Y-1.1582
X5.2716Y-1.7793
X5.2722Y-1.1582
X5.3716Y-1.7793
X5.3722Y-1.1582
X11.2239Y-1.8173
X11.2785Y-1.7055
X11.333Y-1.8173
X11.3875Y-1.7055
X11.442Y-1.8173
X11.4966Y-1.7055
X11.5511Y-1.8173
X11.6056Y-1.7055
X11.6602Y-1.8173
X11.7147Y-1.7055
X11.7692Y-1.8173
X11.8237Y-1.7055
X11.8783Y-1.8173
X11.9328Y-1.7055
X11.9873Y-1.8173
X12.0419Y-1.7055
X12.0964Y-1.8173
X12.1509Y-1.7055
X12.2054Y-1.8173
X12.26Y-1.7055
X12.3145Y-1.8173
X12.369Y-1.7055
X12.4235Y-1.8173
X12.4781Y-1.7055
X12.5326Y-1.8173
X13.1319Y-1.8656
X13.1319Y-1.9656
X13.1319Y-2.2165
X13.1319Y-2.3165
X13.1319Y-2.4165
X13.1319Y-2.5165
X13.1319Y-2.6165
X13.1319Y-2.7165
X13.1319Y-2.8165
X13.1319Y-2.9165
X13.1319Y-3.0165
X13.1319Y-3.1165
X13.1319Y-3.2165
X13.1319Y-3.3165
X13.1319Y-3.4165
X13.1319Y-3.5165
X13.1319Y-3.6165
X13.1319Y-3.7165
X13.1319Y-3.8165
X13.1319Y-3.9165
X13.1319Y-4.0165
X13.1319Y-4.1165
X13.1319Y-4.2165
X13.1319Y-4.3165
X13.1319Y-4.4165
X13.1319Y-4.5165
X13.1319Y-4.6165
X13.1329Y-4.811
X13.1329Y-4.911
X13.3612Y-2.2175
X13.3612Y-2.3175
X13.3612Y-2.4175
X13.3612Y-2.5175
X13.3612Y-2.6175
X13.3612Y-2.7175
X13.3612Y-2.8175
X13.3612Y-2.9175
X13.3612Y-3.0175
X13.3612Y-3.1175
X13.3612Y-3.2175
X13.3612Y-3.3175
X13.3612Y-3.4175
X13.3612Y-3.5175
X13.3612Y-3.6175
X13.3612Y-3.7175
X13.3612Y-3.8175
X13.3612Y-3.9175
X13.3612Y-4.0175
X13.3612Y-4.1175
X13.3612Y-4.2175
X13.3612Y-4.3175
X13.3612Y-4.4175
X13.3612Y-4.5175
X13.3612Y-4.6175
X13.5295Y-0.9147
X13.5295Y-1.0147
X13.5295Y-1.1147
X13.5295Y-1.2147
X13.5295Y-1.3147
T6
X1.2126Y-1.1423
X1.2126Y-2.2673
X1.2126Y-3.7673
X1.2126Y-4.5173
X1.4001Y-3.0173
X1.4626Y-1.0423
X1.4626Y-2.1673
X1.4626Y-3.6673
X1.4626Y-4.4173
X1.6501Y-2.9173
X1.9626Y-1.1423
X1.9626Y-3.7673
X1.9636Y-2.2673
X2.1501Y-4.5173
X2.2126Y-1.0423
X2.2126Y-3.6673
X2.2136Y-2.1673
X2.3376Y-1.5173
X2.3376Y-3.0173
X2.4001Y-4.4173
X2.5876Y-1.4173
X2.5876Y-2.9173
X2.7126Y-1.1423
X2.7126Y-3.7673
X2.7136Y-2.2673
X2.9626Y-1.0423
X2.9626Y-3.6673
X2.9636Y-2.1673
X3.0876Y-3.0173
X3.0876Y-4.5173
X3.3376Y-2.9173
X3.3376Y-4.4173
X3.4626Y-1.1423
X3.4626Y-2.2673
X3.4626Y-3.7673
X3.7126Y-1.0423
X3.7126Y-2.1673
X3.7126Y-3.6673
X3.8376Y-1.5173
X3.8376Y-3.0173
X3.8376Y-4.5173
X4.0251Y-5.2673
X4.0876Y-1.4173
X4.0876Y-2.9173
X4.0876Y-4.4173
X4.2126Y-2.2673
X4.2126Y-3.7673
X4.2751Y-5.1673
X4.4626Y-2.1673
X4.4626Y-3.6673
X4.5876Y-3.0173
X4.5876Y-4.5173
X4.8376Y-2.9173
X4.8376Y-4.4173
X4.9626Y-3.7673
X4.9631Y-2.2673
X5.2126Y-3.6673
X5.2131Y-2.1673
X5.3376Y-1.5173
X5.3376Y-3.0173
X5.3376Y-4.5173
X5.5876Y-1.4173
X5.5876Y-2.9173
X5.5876Y-4.4173
X5.7126Y-1.1423
X5.7126Y-2.2673
X5.7126Y-3.7673
X5.9626Y-1.0423
X5.9626Y-2.1673
X5.9626Y-3.6673
X6.0876Y-4.5173
X6.0901Y-3.0173
X6.3376Y-4.4173
X6.3401Y-2.9173
X6.4621Y-3.7673
X6.4626Y-1.1423
X6.4626Y-2.2673
X6.7121Y-3.6673
X6.7126Y-1.0423
X6.7126Y-2.1673
X6.8376Y-1.5173
X6.8376Y-4.5173
X6.8376Y-5.2673
X6.8411Y-3.0173
X6.8852Y-5.1409
X7.0876Y-1.4173
X7.0876Y-4.4173
X7.0876Y-5.1673
X7.0911Y-2.9173
X7.1608Y-5.1823
X7.2121Y-3.7673
X7.2126Y-1.1423
X7.2126Y-2.2673
X7.4621Y-3.6673
X7.4626Y-1.0423
X7.4626Y-2.1673
X7.5876Y-4.5173
X7.5966Y-3.0173
X7.8376Y-4.4173
X7.8466Y-2.9173
X7.9621Y-3.7673
X7.9626Y-1.1423
X7.9626Y-2.2673
X8.2121Y-3.6673
X8.2126Y-1.0423
X8.2126Y-2.1673
X8.3376Y-4.5173
X8.3431Y-3.0173
X8.5876Y-4.4173
X8.5931Y-2.9173
X8.7126Y-2.2673
X8.7126Y-3.7673
X8.9626Y-2.1673
X8.9626Y-3.6673
X9.0876Y-4.5173
X9.0941Y-3.0173
X9.3376Y-4.4173
X9.3441Y-2.9173
X9.4626Y-2.2673
X9.4626Y-3.7673
X9.6501Y-5.2673
X9.7126Y-2.1673
X9.7126Y-3.6673
X9.8376Y-4.5173
X9.8446Y-3.0173
X9.9001Y-5.1673
X10.0876Y-4.4173
X10.0946Y-2.9173
X10.2121Y-2.2673
X10.2126Y-1.1423
X10.2126Y-3.7673
X10.2626Y-1.4423
X10.4621Y-2.1673
X10.4626Y-1.0423
X10.4626Y-3.6673
X10.5126Y-1.3423
X10.5911Y-3.0173
X10.7751Y-4.5173
X10.8411Y-2.9173
X10.9611Y-2.2673
X10.9611Y-3.7673
X10.9626Y-1.1423
X10.9626Y-5.2673
X11.0126Y-1.4423
X11.0251Y-4.4173
X11.2111Y-2.1673
X11.2111Y-3.6673
X11.2126Y-1.0423
X11.2126Y-5.1673
X11.2626Y-1.3423
X11.3411Y-3.0173
X11.5911Y-2.9173
X11.7126Y-1.1423
X11.7126Y-2.2673
X11.7126Y-4.5173
X11.7131Y-5.2673
X11.7626Y-1.4423
X11.9626Y-1.0423
X11.9626Y-2.1673
X11.9626Y-4.4173
X11.9631Y-5.1673
X12.0126Y-1.3423
X12.0876Y-3.7673
X12.2776Y-3.0173
X12.3376Y-3.6673
X12.4611Y-5.2673
X12.4626Y-1.1423
X12.4626Y-2.2673
X12.4626Y-4.5173
X12.5126Y-1.4423
X12.5276Y-2.9173
X12.7111Y-5.1673
X12.7126Y-1.0423
X12.7126Y-2.1673
X12.7126Y-4.4173
X12.7626Y-1.3423
X13.774Y-3.021
X13.7751Y-1.1423
X13.7751Y-2.271
X13.7751Y-3.7661
X13.824Y-3.321
X13.8251Y-2.571
X13.8251Y-4.0661
X13.8252Y-4.8159
X14.024Y-2.921
X14.0251Y-1.0423
X14.0251Y-2.171
X14.0251Y-3.6661
X14.074Y-3.221
X14.0751Y-2.471
X14.0751Y-3.9661
X14.0752Y-4.7159
X14.1501Y-4.5159
X14.4001Y-4.4159
X14.5251Y-1.1423
X14.5251Y-2.2689
X14.5251Y-3.021
X14.5251Y-3.7661
X14.7751Y-1.0423
X14.7751Y-2.1689
X14.7751Y-2.921
X14.7751Y-3.6661
X15.2751Y-1.1423
X15.2751Y-2.2673
X15.2751Y-3.0173
X15.2751Y-3.7665
X15.2751Y-4.5169
X15.5251Y-1.0423
X15.5251Y-2.1673
X15.5251Y-2.9173
X15.5251Y-3.6665
X15.5251Y-4.4169
X16.0251Y-1.1423
X16.0251Y-2.2673
X16.0251Y-3.021
X16.0251Y-4.146
X16.2751Y-1.0423
X16.2751Y-2.1673
X16.2751Y-2.921
X16.2751Y-4.046
T7
X10.9511Y-1.7614
X12.8054Y-1.7614
T4
G00X1.2711Y-1.0159
M15
G01X1.2494Y-1.0159
M16
G05
G00X1.2711Y-2.1409
M15
G01X1.2494Y-2.1409
M16
G05
G00X1.2711Y-3.6409
M15
G01X1.2494Y-3.6409
M16
G05
G00X1.2711Y-4.3909
M15
G01X1.2494Y-4.3909
M16
G05
G00X1.4586Y-2.8909
M15
G01X1.4369Y-2.8909
M16
G05
G00X1.5358Y-1.0465
M15
G01X1.5358Y-1.0681
M16
G05
G00X1.5358Y-2.1715
M15
G01X1.5358Y-2.1931
M16
G05
G00X1.5358Y-3.6715
M15
G01X1.5358Y-3.6931
M16
G05
G00X1.5358Y-4.4215
M15
G01X1.5358Y-4.4431
M16
G05
G00X1.7233Y-2.9215
M15
G01X1.7233Y-2.9431
M16
G05
G00X2.0211Y-1.0159
M15
G01X1.9994Y-1.0159
M16
G05
G00X2.0211Y-3.6409
M15
G01X1.9994Y-3.6409
M16
G05
G00X2.0221Y-2.1409
M15
G01X2.0004Y-2.1409
M16
G05
G00X2.2086Y-4.3909
M15
G01X2.1869Y-4.3909
M16
G05
G00X2.2858Y-1.0465
M15
G01X2.2858Y-1.0681
M16
G05
G00X2.2858Y-3.6715
M15
G01X2.2858Y-3.6931
M16
G05
G00X2.2868Y-2.1715
M15
G01X2.2868Y-2.1931
M16
G05
G00X2.3961Y-1.3909
M15
G01X2.3744Y-1.3909
M16
G05
G00X2.3961Y-2.8909
M15
G01X2.3744Y-2.8909
M16
G05
G00X2.4733Y-4.4215
M15
G01X2.4733Y-4.4431
M16
G05
G00X2.6608Y-1.4215
M15
G01X2.6608Y-1.4431
M16
G05
G00X2.6608Y-2.9215
M15
G01X2.6608Y-2.9431
M16
G05
G00X2.7711Y-1.0159
M15
G01X2.7494Y-1.0159
M16
G05
G00X2.7711Y-3.6409
M15
G01X2.7494Y-3.6409
M16
G05
G00X2.7721Y-2.1409
M15
G01X2.7504Y-2.1409
M16
G05
G00X3.0358Y-1.0465
M15
G01X3.0358Y-1.0681
M16
G05
G00X3.0358Y-3.6715
M15
G01X3.0358Y-3.6931
M16
G05
G00X3.0368Y-2.1715
M15
G01X3.0368Y-2.1931
M16
G05
G00X3.1461Y-2.8909
M15
G01X3.1244Y-2.8909
M16
G05
G00X3.1461Y-4.3909
M15
G01X3.1244Y-4.3909
M16
G05
G00X3.4108Y-2.9215
M15
G01X3.4108Y-2.9431
M16
G05
G00X3.4108Y-4.4215
M15
G01X3.4108Y-4.4431
M16
G05
G00X3.5211Y-1.0159
M15
G01X3.4994Y-1.0159
M16
G05
G00X3.5211Y-2.1409
M15
G01X3.4994Y-2.1409
M16
G05
G00X3.5211Y-3.6409
M15
G01X3.4994Y-3.6409
M16
G05
G00X3.7858Y-1.0465
M15
G01X3.7858Y-1.0681
M16
G05
G00X3.7858Y-2.1715
M15
G01X3.7858Y-2.1931
M16
G05
G00X3.7858Y-3.6715
M15
G01X3.7858Y-3.6931
M16
G05
G00X3.8961Y-1.3909
M15
G01X3.8744Y-1.3909
M16
G05
G00X3.8961Y-2.8909
M15
G01X3.8744Y-2.8909
M16
G05
G00X3.8961Y-4.3909
M15
G01X3.8744Y-4.3909
M16
G05
G00X4.0836Y-5.1409
M15
G01X4.0619Y-5.1409
M16
G05
G00X4.1608Y-1.4215
M15
G01X4.1608Y-1.4431
M16
G05
G00X4.1608Y-2.9215
M15
G01X4.1608Y-2.9431
M16
G05
G00X4.1608Y-4.4215
M15
G01X4.1608Y-4.4431
M16
G05
G00X4.2711Y-2.1409
M15
G01X4.2494Y-2.1409
M16
G05
G00X4.2711Y-3.6409
M15
G01X4.2494Y-3.6409
M16
G05
G00X4.3483Y-5.1715
M15
G01X4.3483Y-5.1931
M16
G05
G00X4.5358Y-2.1715
M15
G01X4.5358Y-2.1931
M16
G05
G00X4.5358Y-3.6715
M15
G01X4.5358Y-3.6931
M16
G05
G00X4.6461Y-2.8909
M15
G01X4.6244Y-2.8909
M16
G05
G00X4.6461Y-4.3909
M15
G01X4.6244Y-4.3909
M16
G05
G00X4.9108Y-2.9215
M15
G01X4.9108Y-2.9431
M16
G05
G00X4.9108Y-4.4215
M15
G01X4.9108Y-4.4431
M16
G05
G00X5.0211Y-3.6409
M15
G01X4.9994Y-3.6409
M16
G05
G00X5.0216Y-2.1409
M15
G01X4.9999Y-2.1409
M16
G05
G00X5.2858Y-3.6715
M15
G01X5.2858Y-3.6931
M16
G05
G00X5.2863Y-2.1715
M15
G01X5.2863Y-2.1931
M16
G05
G00X5.3961Y-1.3909
M15
G01X5.3744Y-1.3909
M16
G05
G00X5.3961Y-2.8909
M15
G01X5.3744Y-2.8909
M16
G05
G00X5.3961Y-4.3909
M15
G01X5.3744Y-4.3909
M16
G05
G00X5.6608Y-1.4215
M15
G01X5.6608Y-1.4431
M16
G05
G00X5.6608Y-2.9215
M15
G01X5.6608Y-2.9431
M16
G05
G00X5.6608Y-4.4215
M15
G01X5.6608Y-4.4431
M16
G05
G00X5.7711Y-1.0159
M15
G01X5.7494Y-1.0159
M16
G05
G00X5.7711Y-2.1409
M15
G01X5.7494Y-2.1409
M16
G05
G00X5.7711Y-3.6409
M15
G01X5.7494Y-3.6409
M16
G05
G00X6.0358Y-1.0465
M15
G01X6.0358Y-1.0681
M16
G05
G00X6.0358Y-2.1715
M15
G01X6.0358Y-2.1931
M16
G05
G00X6.0358Y-3.6715
M15
G01X6.0358Y-3.6931
M16
G05
G00X6.1461Y-4.3909
M15
G01X6.1244Y-4.3909
M16
G05
G00X6.1486Y-2.8909
M15
G01X6.1269Y-2.8909
M16
G05
G00X6.4108Y-4.4215
M15
G01X6.4108Y-4.4431
M16
G05
G00X6.4133Y-2.9215
M15
G01X6.4133Y-2.9431
M16
G05
G00X6.5206Y-3.6409
M15
G01X6.4989Y-3.6409
M16
G05
G00X6.5211Y-1.0159
M15
G01X6.4994Y-1.0159
M16
G05
G00X6.5211Y-2.1409
M15
G01X6.4994Y-2.1409
M16
G05
G00X6.7853Y-3.6715
M15
G01X6.7853Y-3.6931
M16
G05
G00X6.7858Y-1.0465
M15
G01X6.7858Y-1.0681
M16
G05
G00X6.7858Y-2.1715
M15
G01X6.7858Y-2.1931
M16
G05
G00X6.8961Y-1.3909
M15
G01X6.8744Y-1.3909
M16
G05
G00X6.8961Y-4.3909
M15
G01X6.8744Y-4.3909
M16
G05
G00X6.8996Y-2.8909
M15
G01X6.8779Y-2.8909
M16
G05
G00X7.1608Y-1.4215
M15
G01X7.1608Y-1.4431
M16
G05
G00X7.1608Y-4.4215
M15
G01X7.1608Y-4.4431
M16
G05
G00X7.1643Y-2.9215
M15
G01X7.1643Y-2.9431
M16
G05
G00X7.2706Y-3.6409
M15
G01X7.2489Y-3.6409
M16
G05
G00X7.2711Y-1.0159
M15
G01X7.2494Y-1.0159
M16
G05
G00X7.2711Y-2.1409
M15
G01X7.2494Y-2.1409
M16
G05
G00X7.5353Y-3.6715
M15
G01X7.5353Y-3.6931
M16
G05
G00X7.5358Y-1.0465
M15
G01X7.5358Y-1.0681
M16
G05
G00X7.5358Y-2.1715
M15
G01X7.5358Y-2.1931
M16
G05
G00X7.6461Y-4.3909
M15
G01X7.6244Y-4.3909
M16
G05
G00X7.6551Y-2.8909
M15
G01X7.6334Y-2.8909
M16
G05
G00X7.9108Y-4.4215
M15
G01X7.9108Y-4.4431
M16
G05
G00X7.9198Y-2.9215
M15
G01X7.9198Y-2.9431
M16
G05
G00X8.0206Y-3.6409
M15
G01X7.9989Y-3.6409
M16
G05
G00X8.0211Y-1.0159
M15
G01X7.9994Y-1.0159
M16
G05
G00X8.0211Y-2.1409
M15
G01X7.9994Y-2.1409
M16
G05
G00X8.2853Y-3.6715
M15
G01X8.2853Y-3.6931
M16
G05
G00X8.2858Y-1.0465
M15
G01X8.2858Y-1.0681
M16
G05
G00X8.2858Y-2.1715
M15
G01X8.2858Y-2.1931
M16
G05
G00X8.3961Y-4.3909
M15
G01X8.3744Y-4.3909
M16
G05
G00X8.4016Y-2.8909
M15
G01X8.3799Y-2.8909
M16
G05
G00X8.6608Y-4.4215
M15
G01X8.6608Y-4.4431
M16
G05
G00X8.6663Y-2.9215
M15
G01X8.6663Y-2.9431
M16
G05
G00X8.7711Y-2.1409
M15
G01X8.7494Y-2.1409
M16
G05
G00X8.7711Y-3.6409
M15
G01X8.7494Y-3.6409
M16
G05
G00X9.0358Y-2.1715
M15
G01X9.0358Y-2.1931
M16
G05
G00X9.0358Y-3.6715
M15
G01X9.0358Y-3.6931
M16
G05
G00X9.1461Y-4.3909
M15
G01X9.1244Y-4.3909
M16
G05
G00X9.1526Y-2.8909
M15
G01X9.1309Y-2.8909
M16
G05
G00X9.4108Y-4.4215
M15
G01X9.4108Y-4.4431
M16
G05
G00X9.4173Y-2.9215
M15
G01X9.4173Y-2.9431
M16
G05
G00X9.5211Y-2.1409
M15
G01X9.4994Y-2.1409
M16
G05
G00X9.5211Y-3.6409
M15
G01X9.4994Y-3.6409
M16
G05
G00X9.7086Y-5.1409
M15
G01X9.6869Y-5.1409
M16
G05
G00X9.7858Y-2.1715
M15
G01X9.7858Y-2.1931
M16
G05
G00X9.7858Y-3.6715
M15
G01X9.7858Y-3.6931
M16
G05
G00X9.8961Y-4.3909
M15
G01X9.8744Y-4.3909
M16
G05
G00X9.9031Y-2.8909
M15
G01X9.8814Y-2.8909
M16
G05
G00X9.9733Y-5.1715
M15
G01X9.9733Y-5.1931
M16
G05
G00X10.1608Y-4.4215
M15
G01X10.1608Y-4.4431
M16
G05
G00X10.1678Y-2.9215
M15
G01X10.1678Y-2.9431
M16
G05
G00X10.1894Y-1.4382
M15
G01X10.1894Y-1.4165
M16
G05
G00X10.2706Y-2.1409
M15
G01X10.2489Y-2.1409
M16
G05
G00X10.2711Y-1.0159
M15
G01X10.2494Y-1.0159
M16
G05
G00X10.2711Y-3.6409
M15
G01X10.2494Y-3.6409
M16
G05
G00X10.4541Y-1.4687
M15
G01X10.4758Y-1.4687
M16
G05
G00X10.5353Y-2.1715
M15
G01X10.5353Y-2.1931
M16
G05
G00X10.5358Y-1.0465
M15
G01X10.5358Y-1.0681
M16
G05
G00X10.5358Y-3.6715
M15
G01X10.5358Y-3.6931
M16
G05
G00X10.6496Y-2.8909
M15
G01X10.6279Y-2.8909
M16
G05
G00X10.8336Y-4.3909
M15
G01X10.8119Y-4.3909
M16
G05
G00X10.9143Y-2.9215
M15
G01X10.9143Y-2.9431
M16
G05
G00X10.9394Y-1.4382
M15
G01X10.9394Y-1.4165
M16
G05
G00X11.0196Y-2.1409
M15
G01X10.9979Y-2.1409
M16
G05
G00X11.0196Y-3.6409
M15
G01X10.9979Y-3.6409
M16
G05
G00X11.0211Y-1.0159
M15
G01X10.9994Y-1.0159
M16
G05
G00X11.0211Y-5.1409
M15
G01X10.9994Y-5.1409
M16
G05
G00X11.0983Y-4.4215
M15
G01X11.0983Y-4.4431
M16
G05
G00X11.2041Y-1.4687
M15
G01X11.2258Y-1.4687
M16
G05
G00X11.2843Y-2.1715
M15
G01X11.2843Y-2.1931
M16
G05
G00X11.2843Y-3.6715
M15
G01X11.2843Y-3.6931
M16
G05
G00X11.2858Y-1.0465
M15
G01X11.2858Y-1.0681
M16
G05
G00X11.2858Y-5.1715
M15
G01X11.2858Y-5.1931
M16
G05
G00X11.3996Y-2.8909
M15
G01X11.3779Y-2.8909
M16
G05
G00X11.6643Y-2.9215
M15
G01X11.6643Y-2.9431
M16
G05
G00X11.6894Y-1.4382
M15
G01X11.6894Y-1.4165
M16
G05
G00X11.7711Y-1.0159
M15
G01X11.7494Y-1.0159
M16
G05
G00X11.7711Y-2.1409
M15
G01X11.7494Y-2.1409
M16
G05
G00X11.7711Y-4.3909
M15
G01X11.7494Y-4.3909
M16
G05
G00X11.7716Y-5.1409
M15
G01X11.7499Y-5.1409
M16
G05
G00X11.9541Y-1.4687
M15
G01X11.9758Y-1.4687
M16
G05
G00X12.0358Y-1.0465
M15
G01X12.0358Y-1.0681
M16
G05
G00X12.0358Y-2.1715
M15
G01X12.0358Y-2.1931
M16
G05
G00X12.0358Y-4.4215
M15
G01X12.0358Y-4.4431
M16
G05
G00X12.0363Y-5.1715
M15
G01X12.0363Y-5.1931
M16
G05
G00X12.1461Y-3.6409
M15
G01X12.1244Y-3.6409
M16
G05
G00X12.3361Y-2.8909
M15
G01X12.3144Y-2.8909
M16
G05
G00X12.4108Y-3.6715
M15
G01X12.4108Y-3.6931
M16
G05
G00X12.4394Y-1.4382
M15
G01X12.4394Y-1.4165
M16
G05
G00X12.5196Y-5.1409
M15
G01X12.4979Y-5.1409
M16
G05
G00X12.5211Y-1.0159
M15
G01X12.4994Y-1.0159
M16
G05
G00X12.5211Y-2.1409
M15
G01X12.4994Y-2.1409
M16
G05
G00X12.5211Y-4.3909
M15
G01X12.4994Y-4.3909
M16
G05
G00X12.6008Y-2.9215
M15
G01X12.6008Y-2.9431
M16
G05
G00X12.7041Y-1.4687
M15
G01X12.7258Y-1.4687
M16
G05
G00X12.7843Y-5.1715
M15
G01X12.7843Y-5.1931
M16
G05
G00X12.7858Y-1.0465
M15
G01X12.7858Y-1.0681
M16
G05
G00X12.7858Y-2.1715
M15
G01X12.7858Y-2.1931
M16
G05
G00X12.7858Y-4.4215
M15
G01X12.7858Y-4.4431
M16
G05
G00X13.7508Y-3.3169
M15
G01X13.7508Y-3.2952
M16
G05
G00X13.7519Y-2.5669
M15
G01X13.7519Y-2.5452
M16
G05
G00X13.7519Y-4.062
M15
G01X13.7519Y-4.0404
M16
G05
G00X13.752Y-4.8118
M15
G01X13.752Y-4.7901
M16
G05
G00X13.8325Y-2.8946
M15
G01X13.8108Y-2.8946
M16
G05
G00X13.8336Y-1.0159
M15
G01X13.8119Y-1.0159
M16
G05
G00X13.8336Y-2.1446
M15
G01X13.8119Y-2.1446
M16
G05
G00X13.8336Y-3.6398
M15
G01X13.8119Y-3.6398
M16
G05
G00X14.0156Y-3.3474
M15
G01X14.0372Y-3.3474
M16
G05
G00X14.0166Y-2.5974
M15
G01X14.0383Y-2.5974
M16
G05
G00X14.0166Y-4.0925
M15
G01X14.0383Y-4.0925
M16
G05
G00X14.0167Y-4.8423
M15
G01X14.0384Y-4.8423
M16
G05
G00X14.0973Y-2.9251
M15
G01X14.0973Y-2.9468
M16
G05
G00X14.0983Y-1.0465
M15
G01X14.0983Y-1.0681
M16
G05
G00X14.0983Y-2.1751
M15
G01X14.0983Y-2.1968
M16
G05
G00X14.0983Y-3.6703
M15
G01X14.0983Y-3.6919
M16
G05
G00X14.2086Y-4.3896
M15
G01X14.1869Y-4.3896
M16
G05
G00X14.4733Y-4.4201
M15
G01X14.4733Y-4.4417
M16
G05
G00X14.5836Y-1.0159
M15
G01X14.5619Y-1.0159
M16
G05
G00X14.5836Y-2.1425
M15
G01X14.5619Y-2.1425
M16
G05
G00X14.5836Y-2.8946
M15
G01X14.5619Y-2.8946
M16
G05
G00X14.5836Y-3.6398
M15
G01X14.5619Y-3.6398
M16
G05
G00X14.8483Y-1.0465
M15
G01X14.8483Y-1.0681
M16
G05
G00X14.8483Y-2.173
M15
G01X14.8483Y-2.1947
M16
G05
G00X14.8483Y-2.9251
M15
G01X14.8483Y-2.9468
M16
G05
G00X14.8483Y-3.6703
M15
G01X14.8483Y-3.6919
M16
G05
G00X15.3336Y-1.0159
M15
G01X15.3119Y-1.0159
M16
G05
G00X15.3336Y-2.1409
M15
G01X15.3119Y-2.1409
M16
G05
G00X15.3336Y-2.8909
M15
G01X15.3119Y-2.8909
M16
G05
G00X15.3336Y-3.6402
M15
G01X15.3119Y-3.6402
M16
G05
G00X15.3336Y-4.3906
M15
G01X15.3119Y-4.3906
M16
G05
G00X15.5983Y-1.0465
M15
G01X15.5983Y-1.0681
M16
G05
G00X15.5983Y-2.1715
M15
G01X15.5983Y-2.1931
M16
G05
G00X15.5983Y-2.9215
M15
G01X15.5983Y-2.9431
M16
G05
G00X15.5983Y-3.6707
M15
G01X15.5983Y-3.6923
M16
G05
G00X15.5983Y-4.4211
M15
G01X15.5983Y-4.4427
M16
G05
G00X16.0836Y-1.0159
M15
G01X16.0619Y-1.0159
M16
G05
G00X16.0836Y-2.1409
M15
G01X16.0619Y-2.1409
M16
G05
G00X16.0836Y-2.8946
M15
G01X16.0619Y-2.8946
M16
G05
G00X16.0836Y-4.0196
M15
G01X16.0619Y-4.0196
M16
G05
G00X16.3483Y-1.0465
M15
G01X16.3483Y-1.0681
M16
G05
G00X16.3483Y-2.1715
M15
G01X16.3483Y-2.1931
M16
G05
G00X16.3483Y-2.9251
M15
G01X16.3483Y-2.9468
M16
G05
G00X16.3483Y-4.0501
M15
G01X16.3483Y-4.0718
M16
G05
T0
M30
