G04 #@! TF.GenerationSoftware,KiCad,Pcbnew,9.0.4*
G04 #@! TF.CreationDate,2025-12-04T22:52:48-05:00*
G04 #@! TF.ProjectId,mxtoggle,6d78746f-6767-46c6-952e-6b696361645f,B-V2-R1*
G04 #@! TF.SameCoordinates,Original*
G04 #@! TF.FileFunction,Copper,L2,Bot*
G04 #@! TF.FilePolarity,Positive*
%FSLAX46Y46*%
G04 Gerber Fmt 4.6, Leading zero omitted, Abs format (unit mm)*
G04 Created by KiCad (PCBNEW 9.0.4) date 2025-12-04 22:52:48*
%MOMM*%
%LPD*%
G01*
G04 APERTURE LIST*
G04 #@! TA.AperFunction,ComponentPad*
%ADD10R,1.700000X1.700000*%
G04 #@! TD*
G04 #@! TA.AperFunction,ComponentPad*
%ADD11C,1.700000*%
G04 #@! TD*
G04 #@! TA.AperFunction,ViaPad*
%ADD12C,0.800000*%
G04 #@! TD*
G04 #@! TA.AperFunction,Conductor*
%ADD13C,0.300000*%
G04 #@! TD*
G04 #@! TA.AperFunction,Conductor*
%ADD14C,0.750000*%
G04 #@! TD*
G04 #@! TA.AperFunction,Profile*
%ADD15C,0.050000*%
G04 #@! TD*
G04 #@! TA.AperFunction,Profile*
%ADD16C,0.120000*%
G04 #@! TD*
G04 APERTURE END LIST*
D10*
X48370001Y-139750000D03*
D11*
X50910001Y-139750000D03*
X53450000Y-139750000D03*
X55990001Y-139750000D03*
X58530001Y-139750000D03*
X61070001Y-139750000D03*
X63610001Y-139750000D03*
X66150002Y-139750000D03*
D10*
X67411600Y-129794000D03*
D11*
X67411600Y-127254000D03*
X67411600Y-124714001D03*
D12*
X60553600Y-127101600D03*
X64350000Y-134150000D03*
X50632000Y-125018800D03*
X56200000Y-135650000D03*
X50632000Y-123799600D03*
X57450000Y-135550000D03*
X59050000Y-132450000D03*
X59350000Y-129850000D03*
X46278800Y-124612400D03*
X53492400Y-120751600D03*
X62179200Y-121869200D03*
X65050000Y-126250000D03*
X51460400Y-121869200D03*
X65141578Y-132050000D03*
D13*
X60553600Y-127101600D02*
X60553600Y-134553600D01*
X63610001Y-137610001D02*
X63610001Y-139750000D01*
X60553600Y-134553600D02*
X63610001Y-137610001D01*
X66150002Y-138050002D02*
X66150002Y-139750000D01*
X64450000Y-136350000D02*
X66150002Y-138050002D01*
X64450000Y-134250000D02*
X64450000Y-136350000D01*
X64350000Y-134150000D02*
X64450000Y-134250000D01*
X56200000Y-135650000D02*
X56150000Y-135650000D01*
X50632000Y-130132000D02*
X50632000Y-125018800D01*
X56150000Y-135650000D02*
X50632000Y-130132000D01*
X50632000Y-125018800D02*
X50647600Y-125018800D01*
X50647600Y-125018800D02*
X50698400Y-125069600D01*
X51500000Y-129650000D02*
X51500000Y-124667600D01*
X57450000Y-135550000D02*
X57400000Y-135550000D01*
X57400000Y-135550000D02*
X51500000Y-129650000D01*
X51500000Y-124667600D02*
X50632000Y-123799600D01*
X50632000Y-123799600D02*
X50632000Y-123834800D01*
X59050000Y-132450000D02*
X59050000Y-135350000D01*
X55990001Y-138409999D02*
X55990001Y-139750000D01*
X59050000Y-135350000D02*
X55990001Y-138409999D01*
X59050000Y-130150000D02*
X59050000Y-132450000D01*
X59350000Y-129850000D02*
X59050000Y-130150000D01*
D14*
X50139600Y-120751600D02*
X53492400Y-120751600D01*
X46278800Y-124612400D02*
X50139600Y-120751600D01*
X65250000Y-128058000D02*
X66054000Y-127254000D01*
X64541400Y-124231400D02*
X64541400Y-125741400D01*
X64541400Y-125741400D02*
X65050000Y-126250000D01*
X50850000Y-138250000D02*
X50850000Y-139689999D01*
X65050000Y-126250000D02*
X66054000Y-127254000D01*
X50952400Y-121869200D02*
X48006000Y-124815600D01*
X48006000Y-135406000D02*
X50850000Y-138250000D01*
X65141578Y-132050000D02*
X65250000Y-131941578D01*
X66054000Y-127254000D02*
X67411600Y-127254000D01*
X51460400Y-121869200D02*
X58521600Y-121869200D01*
X65250000Y-131941578D02*
X65250000Y-128058000D01*
X58521600Y-121869200D02*
X62179200Y-121869200D01*
X62179200Y-121869200D02*
X64541400Y-124231400D01*
X50910001Y-139750000D02*
X53450000Y-139750000D01*
X48006000Y-124815600D02*
X48006000Y-135406000D01*
X50850000Y-139689999D02*
X50910001Y-139750000D01*
X51460400Y-121869200D02*
X50952400Y-121869200D01*
D15*
X70994400Y-139090400D02*
G75*
G02*
X67994400Y-139090400I-1500000J0D01*
G01*
X67994400Y-139090400D02*
G75*
G02*
X70994400Y-139090400I1500000J0D01*
G01*
D16*
X45161200Y-141387600D02*
G75*
G02*
X42773600Y-139000000I0J2387600D01*
G01*
D15*
X70892800Y-121869200D02*
G75*
G02*
X67892800Y-121869200I-1500000J0D01*
G01*
X67892800Y-121869200D02*
G75*
G02*
X70892800Y-121869200I1500000J0D01*
G01*
D16*
X45161200Y-141387600D02*
X69342132Y-141387600D01*
X42773600Y-122000000D02*
G75*
G02*
X45161200Y-119612400I2387600J0D01*
G01*
X42773600Y-122000000D02*
X42773600Y-139000000D01*
D15*
X46661200Y-139090400D02*
G75*
G02*
X43661200Y-139090400I-1500000J0D01*
G01*
X43661200Y-139090400D02*
G75*
G02*
X46661200Y-139090400I1500000J0D01*
G01*
D16*
X71729732Y-122000000D02*
X71729732Y-139000000D01*
X69342132Y-119612400D02*
G75*
G02*
X71729700Y-122000000I-32J-2387600D01*
G01*
X71729732Y-139000000D02*
G75*
G02*
X69342132Y-141387632I-2387632J0D01*
G01*
D15*
X46661200Y-121869200D02*
G75*
G02*
X43661200Y-121869200I-1500000J0D01*
G01*
X43661200Y-121869200D02*
G75*
G02*
X46661200Y-121869200I1500000J0D01*
G01*
D16*
X45161200Y-119612400D02*
X69342132Y-119612400D01*
M02*
