G04 #@! TF.GenerationSoftware,KiCad,Pcbnew,9.0.4*
G04 #@! TF.CreationDate,2025-12-04T22:52:48-05:00*
G04 #@! TF.ProjectId,mxtoggle,6d78746f-6767-46c6-952e-6b696361645f,B-V2-R1*
G04 #@! TF.SameCoordinates,Original*
G04 #@! TF.FileFunction,Legend,Top*
G04 #@! TF.FilePolarity,Positive*
%FSLAX46Y46*%
G04 Gerber Fmt 4.6, Leading zero omitted, Abs format (unit mm)*
G04 Created by KiCad (PCBNEW 9.0.4) date 2025-12-04 22:52:48*
%MOMM*%
%LPD*%
G01*
G04 APERTURE LIST*
%ADD10C,0.125000*%
%ADD11C,0.150000*%
%ADD12C,0.280000*%
%ADD13C,0.200000*%
%ADD14C,0.120000*%
G04 #@! TA.AperFunction,Profile*
%ADD15C,0.050000*%
G04 #@! TD*
G04 #@! TA.AperFunction,Profile*
%ADD16C,0.120000*%
G04 #@! TD*
G04 APERTURE END LIST*
D10*
X59271119Y-130516573D02*
X59271119Y-130059430D01*
X60271119Y-130288002D02*
X59271119Y-130288002D01*
X60271119Y-129792763D02*
X59271119Y-129792763D01*
X60271119Y-129411811D02*
X59271119Y-129411811D01*
X59271119Y-129411811D02*
X60271119Y-128954668D01*
X60271119Y-128954668D02*
X59271119Y-128954668D01*
X59794928Y-128421335D02*
X60271119Y-128421335D01*
X59271119Y-128688002D02*
X59794928Y-128421335D01*
X59794928Y-128421335D02*
X59271119Y-128154669D01*
X59366357Y-127926098D02*
X59318738Y-127888002D01*
X59318738Y-127888002D02*
X59271119Y-127811812D01*
X59271119Y-127811812D02*
X59271119Y-127621336D01*
X59271119Y-127621336D02*
X59318738Y-127545145D01*
X59318738Y-127545145D02*
X59366357Y-127507050D01*
X59366357Y-127507050D02*
X59461595Y-127468955D01*
X59461595Y-127468955D02*
X59556833Y-127468955D01*
X59556833Y-127468955D02*
X59699690Y-127507050D01*
X59699690Y-127507050D02*
X60271119Y-127964193D01*
X60271119Y-127964193D02*
X60271119Y-127468955D01*
X60271119Y-126707050D02*
X60271119Y-127164193D01*
X60271119Y-126935621D02*
X59271119Y-126935621D01*
X59271119Y-126935621D02*
X59413976Y-127011812D01*
X59413976Y-127011812D02*
X59509214Y-127088002D01*
X59509214Y-127088002D02*
X59556833Y-127164193D01*
X59604452Y-126021335D02*
X60271119Y-126021335D01*
X59223500Y-126211811D02*
X59937785Y-126402288D01*
X59937785Y-126402288D02*
X59937785Y-125907049D01*
X59223500Y-125030859D02*
X60509214Y-125716573D01*
X59604452Y-124421335D02*
X60271119Y-124421335D01*
X59223500Y-124611811D02*
X59937785Y-124802288D01*
X59937785Y-124802288D02*
X59937785Y-124307049D01*
X60271119Y-123583240D02*
X60271119Y-124040383D01*
X60271119Y-123811811D02*
X59271119Y-123811811D01*
X59271119Y-123811811D02*
X59413976Y-123888002D01*
X59413976Y-123888002D02*
X59509214Y-123964192D01*
X59509214Y-123964192D02*
X59556833Y-124040383D01*
X59604452Y-122897525D02*
X60271119Y-122897525D01*
X59223500Y-123088001D02*
X59937785Y-123278478D01*
X59937785Y-123278478D02*
X59937785Y-122783239D01*
X50654452Y-127959430D02*
X51321119Y-127959430D01*
X50273500Y-128149906D02*
X50987785Y-128340383D01*
X50987785Y-128340383D02*
X50987785Y-127845144D01*
X50321119Y-127388001D02*
X50321119Y-127311811D01*
X50321119Y-127311811D02*
X50368738Y-127235620D01*
X50368738Y-127235620D02*
X50416357Y-127197525D01*
X50416357Y-127197525D02*
X50511595Y-127159430D01*
X50511595Y-127159430D02*
X50702071Y-127121335D01*
X50702071Y-127121335D02*
X50940166Y-127121335D01*
X50940166Y-127121335D02*
X51130642Y-127159430D01*
X51130642Y-127159430D02*
X51225880Y-127197525D01*
X51225880Y-127197525D02*
X51273500Y-127235620D01*
X51273500Y-127235620D02*
X51321119Y-127311811D01*
X51321119Y-127311811D02*
X51321119Y-127388001D01*
X51321119Y-127388001D02*
X51273500Y-127464192D01*
X51273500Y-127464192D02*
X51225880Y-127502287D01*
X51225880Y-127502287D02*
X51130642Y-127540382D01*
X51130642Y-127540382D02*
X50940166Y-127578478D01*
X50940166Y-127578478D02*
X50702071Y-127578478D01*
X50702071Y-127578478D02*
X50511595Y-127540382D01*
X50511595Y-127540382D02*
X50416357Y-127502287D01*
X50416357Y-127502287D02*
X50368738Y-127464192D01*
X50368738Y-127464192D02*
X50321119Y-127388001D01*
X50321119Y-126435620D02*
X50321119Y-126588001D01*
X50321119Y-126588001D02*
X50368738Y-126664192D01*
X50368738Y-126664192D02*
X50416357Y-126702287D01*
X50416357Y-126702287D02*
X50559214Y-126778477D01*
X50559214Y-126778477D02*
X50749690Y-126816573D01*
X50749690Y-126816573D02*
X51130642Y-126816573D01*
X51130642Y-126816573D02*
X51225880Y-126778477D01*
X51225880Y-126778477D02*
X51273500Y-126740382D01*
X51273500Y-126740382D02*
X51321119Y-126664192D01*
X51321119Y-126664192D02*
X51321119Y-126511811D01*
X51321119Y-126511811D02*
X51273500Y-126435620D01*
X51273500Y-126435620D02*
X51225880Y-126397525D01*
X51225880Y-126397525D02*
X51130642Y-126359430D01*
X51130642Y-126359430D02*
X50892547Y-126359430D01*
X50892547Y-126359430D02*
X50797309Y-126397525D01*
X50797309Y-126397525D02*
X50749690Y-126435620D01*
X50749690Y-126435620D02*
X50702071Y-126511811D01*
X50702071Y-126511811D02*
X50702071Y-126664192D01*
X50702071Y-126664192D02*
X50749690Y-126740382D01*
X50749690Y-126740382D02*
X50797309Y-126778477D01*
X50797309Y-126778477D02*
X50892547Y-126816573D01*
X50321119Y-125673715D02*
X50321119Y-125826096D01*
X50321119Y-125826096D02*
X50368738Y-125902287D01*
X50368738Y-125902287D02*
X50416357Y-125940382D01*
X50416357Y-125940382D02*
X50559214Y-126016572D01*
X50559214Y-126016572D02*
X50749690Y-126054668D01*
X50749690Y-126054668D02*
X51130642Y-126054668D01*
X51130642Y-126054668D02*
X51225880Y-126016572D01*
X51225880Y-126016572D02*
X51273500Y-125978477D01*
X51273500Y-125978477D02*
X51321119Y-125902287D01*
X51321119Y-125902287D02*
X51321119Y-125749906D01*
X51321119Y-125749906D02*
X51273500Y-125673715D01*
X51273500Y-125673715D02*
X51225880Y-125635620D01*
X51225880Y-125635620D02*
X51130642Y-125597525D01*
X51130642Y-125597525D02*
X50892547Y-125597525D01*
X50892547Y-125597525D02*
X50797309Y-125635620D01*
X50797309Y-125635620D02*
X50749690Y-125673715D01*
X50749690Y-125673715D02*
X50702071Y-125749906D01*
X50702071Y-125749906D02*
X50702071Y-125902287D01*
X50702071Y-125902287D02*
X50749690Y-125978477D01*
X50749690Y-125978477D02*
X50797309Y-126016572D01*
X50797309Y-126016572D02*
X50892547Y-126054668D01*
D11*
X69491541Y-123881414D02*
X69062969Y-123881414D01*
X69062969Y-123881414D02*
X69020112Y-124633795D01*
X69020112Y-124633795D02*
X69062969Y-124558556D01*
X69062969Y-124558556D02*
X69148684Y-124483318D01*
X69148684Y-124483318D02*
X69362969Y-124483318D01*
X69362969Y-124483318D02*
X69448684Y-124558556D01*
X69448684Y-124558556D02*
X69491541Y-124633795D01*
X69491541Y-124633795D02*
X69534398Y-124784271D01*
X69534398Y-124784271D02*
X69534398Y-125160461D01*
X69534398Y-125160461D02*
X69491541Y-125310937D01*
X69491541Y-125310937D02*
X69448684Y-125386176D01*
X69448684Y-125386176D02*
X69362969Y-125461414D01*
X69362969Y-125461414D02*
X69148684Y-125461414D01*
X69148684Y-125461414D02*
X69062969Y-125386176D01*
X69062969Y-125386176D02*
X69020112Y-125310937D01*
X69791541Y-123881414D02*
X70091541Y-125461414D01*
X70091541Y-125461414D02*
X70391541Y-123881414D01*
X69534398Y-126500364D02*
X69448684Y-126425126D01*
X69448684Y-126425126D02*
X69320112Y-126425126D01*
X69320112Y-126425126D02*
X69191541Y-126500364D01*
X69191541Y-126500364D02*
X69105826Y-126650840D01*
X69105826Y-126650840D02*
X69062969Y-126801316D01*
X69062969Y-126801316D02*
X69020112Y-127102268D01*
X69020112Y-127102268D02*
X69020112Y-127327983D01*
X69020112Y-127327983D02*
X69062969Y-127628935D01*
X69062969Y-127628935D02*
X69105826Y-127779411D01*
X69105826Y-127779411D02*
X69191541Y-127929888D01*
X69191541Y-127929888D02*
X69320112Y-128005126D01*
X69320112Y-128005126D02*
X69405826Y-128005126D01*
X69405826Y-128005126D02*
X69534398Y-127929888D01*
X69534398Y-127929888D02*
X69577255Y-127854649D01*
X69577255Y-127854649D02*
X69577255Y-127327983D01*
X69577255Y-127327983D02*
X69405826Y-127327983D01*
X69962969Y-128005126D02*
X69962969Y-126425126D01*
X69962969Y-126425126D02*
X70477255Y-128005126D01*
X70477255Y-128005126D02*
X70477255Y-126425126D01*
X70905826Y-128005126D02*
X70905826Y-126425126D01*
X70905826Y-126425126D02*
X71120112Y-126425126D01*
X71120112Y-126425126D02*
X71248683Y-126500364D01*
X71248683Y-126500364D02*
X71334398Y-126650840D01*
X71334398Y-126650840D02*
X71377255Y-126801316D01*
X71377255Y-126801316D02*
X71420112Y-127102268D01*
X71420112Y-127102268D02*
X71420112Y-127327983D01*
X71420112Y-127327983D02*
X71377255Y-127628935D01*
X71377255Y-127628935D02*
X71334398Y-127779411D01*
X71334398Y-127779411D02*
X71248683Y-127929888D01*
X71248683Y-127929888D02*
X71120112Y-128005126D01*
X71120112Y-128005126D02*
X70905826Y-128005126D01*
X69062969Y-130548838D02*
X69062969Y-128968838D01*
X69062969Y-128968838D02*
X69277255Y-128968838D01*
X69277255Y-128968838D02*
X69405826Y-129044076D01*
X69405826Y-129044076D02*
X69491541Y-129194552D01*
X69491541Y-129194552D02*
X69534398Y-129345028D01*
X69534398Y-129345028D02*
X69577255Y-129645980D01*
X69577255Y-129645980D02*
X69577255Y-129871695D01*
X69577255Y-129871695D02*
X69534398Y-130172647D01*
X69534398Y-130172647D02*
X69491541Y-130323123D01*
X69491541Y-130323123D02*
X69405826Y-130473600D01*
X69405826Y-130473600D02*
X69277255Y-130548838D01*
X69277255Y-130548838D02*
X69062969Y-130548838D01*
X69920112Y-130097409D02*
X70348684Y-130097409D01*
X69834398Y-130548838D02*
X70134398Y-128968838D01*
X70134398Y-128968838D02*
X70434398Y-130548838D01*
X70605827Y-128968838D02*
X71120113Y-128968838D01*
X70862970Y-130548838D02*
X70862970Y-128968838D01*
D12*
X45714106Y-136282456D02*
X44314106Y-136282456D01*
X44314106Y-136282456D02*
X45314106Y-135815790D01*
X45314106Y-135815790D02*
X44314106Y-135349123D01*
X44314106Y-135349123D02*
X45714106Y-135349123D01*
X44314106Y-134815790D02*
X45714106Y-133882456D01*
X44314106Y-133882456D02*
X45714106Y-134815790D01*
X45180773Y-133349123D02*
X45180773Y-132282457D01*
X44314106Y-131815790D02*
X44314106Y-131015790D01*
X45714106Y-131415790D02*
X44314106Y-131415790D01*
X44314106Y-130282457D02*
X44314106Y-130015790D01*
X44314106Y-130015790D02*
X44380773Y-129882457D01*
X44380773Y-129882457D02*
X44514106Y-129749123D01*
X44514106Y-129749123D02*
X44780773Y-129682457D01*
X44780773Y-129682457D02*
X45247440Y-129682457D01*
X45247440Y-129682457D02*
X45514106Y-129749123D01*
X45514106Y-129749123D02*
X45647440Y-129882457D01*
X45647440Y-129882457D02*
X45714106Y-130015790D01*
X45714106Y-130015790D02*
X45714106Y-130282457D01*
X45714106Y-130282457D02*
X45647440Y-130415790D01*
X45647440Y-130415790D02*
X45514106Y-130549123D01*
X45514106Y-130549123D02*
X45247440Y-130615790D01*
X45247440Y-130615790D02*
X44780773Y-130615790D01*
X44780773Y-130615790D02*
X44514106Y-130549123D01*
X44514106Y-130549123D02*
X44380773Y-130415790D01*
X44380773Y-130415790D02*
X44314106Y-130282457D01*
X44380773Y-128349123D02*
X44314106Y-128482456D01*
X44314106Y-128482456D02*
X44314106Y-128682456D01*
X44314106Y-128682456D02*
X44380773Y-128882456D01*
X44380773Y-128882456D02*
X44514106Y-129015790D01*
X44514106Y-129015790D02*
X44647440Y-129082456D01*
X44647440Y-129082456D02*
X44914106Y-129149123D01*
X44914106Y-129149123D02*
X45114106Y-129149123D01*
X45114106Y-129149123D02*
X45380773Y-129082456D01*
X45380773Y-129082456D02*
X45514106Y-129015790D01*
X45514106Y-129015790D02*
X45647440Y-128882456D01*
X45647440Y-128882456D02*
X45714106Y-128682456D01*
X45714106Y-128682456D02*
X45714106Y-128549123D01*
X45714106Y-128549123D02*
X45647440Y-128349123D01*
X45647440Y-128349123D02*
X45580773Y-128282456D01*
X45580773Y-128282456D02*
X45114106Y-128282456D01*
X45114106Y-128282456D02*
X45114106Y-128549123D01*
X44380773Y-126949123D02*
X44314106Y-127082456D01*
X44314106Y-127082456D02*
X44314106Y-127282456D01*
X44314106Y-127282456D02*
X44380773Y-127482456D01*
X44380773Y-127482456D02*
X44514106Y-127615790D01*
X44514106Y-127615790D02*
X44647440Y-127682456D01*
X44647440Y-127682456D02*
X44914106Y-127749123D01*
X44914106Y-127749123D02*
X45114106Y-127749123D01*
X45114106Y-127749123D02*
X45380773Y-127682456D01*
X45380773Y-127682456D02*
X45514106Y-127615790D01*
X45514106Y-127615790D02*
X45647440Y-127482456D01*
X45647440Y-127482456D02*
X45714106Y-127282456D01*
X45714106Y-127282456D02*
X45714106Y-127149123D01*
X45714106Y-127149123D02*
X45647440Y-126949123D01*
X45647440Y-126949123D02*
X45580773Y-126882456D01*
X45580773Y-126882456D02*
X45114106Y-126882456D01*
X45114106Y-126882456D02*
X45114106Y-127149123D01*
X45714106Y-125615790D02*
X45714106Y-126282456D01*
X45714106Y-126282456D02*
X44314106Y-126282456D01*
X44980773Y-125149123D02*
X44980773Y-124682457D01*
X45714106Y-124482457D02*
X45714106Y-125149123D01*
X45714106Y-125149123D02*
X44314106Y-125149123D01*
X44314106Y-125149123D02*
X44314106Y-124482457D01*
D10*
X64003664Y-135871119D02*
X63622712Y-135871119D01*
X63622712Y-135871119D02*
X63622712Y-134871119D01*
X64422712Y-134871119D02*
X64575093Y-134871119D01*
X64575093Y-134871119D02*
X64651283Y-134918738D01*
X64651283Y-134918738D02*
X64727474Y-135013976D01*
X64727474Y-135013976D02*
X64765569Y-135204452D01*
X64765569Y-135204452D02*
X64765569Y-135537785D01*
X64765569Y-135537785D02*
X64727474Y-135728261D01*
X64727474Y-135728261D02*
X64651283Y-135823500D01*
X64651283Y-135823500D02*
X64575093Y-135871119D01*
X64575093Y-135871119D02*
X64422712Y-135871119D01*
X64422712Y-135871119D02*
X64346521Y-135823500D01*
X64346521Y-135823500D02*
X64270331Y-135728261D01*
X64270331Y-135728261D02*
X64232235Y-135537785D01*
X64232235Y-135537785D02*
X64232235Y-135204452D01*
X64232235Y-135204452D02*
X64270331Y-135013976D01*
X64270331Y-135013976D02*
X64346521Y-134918738D01*
X64346521Y-134918738D02*
X64422712Y-134871119D01*
X65565569Y-135775880D02*
X65527473Y-135823500D01*
X65527473Y-135823500D02*
X65413188Y-135871119D01*
X65413188Y-135871119D02*
X65336997Y-135871119D01*
X65336997Y-135871119D02*
X65222711Y-135823500D01*
X65222711Y-135823500D02*
X65146521Y-135728261D01*
X65146521Y-135728261D02*
X65108426Y-135633023D01*
X65108426Y-135633023D02*
X65070330Y-135442547D01*
X65070330Y-135442547D02*
X65070330Y-135299690D01*
X65070330Y-135299690D02*
X65108426Y-135109214D01*
X65108426Y-135109214D02*
X65146521Y-135013976D01*
X65146521Y-135013976D02*
X65222711Y-134918738D01*
X65222711Y-134918738D02*
X65336997Y-134871119D01*
X65336997Y-134871119D02*
X65413188Y-134871119D01*
X65413188Y-134871119D02*
X65527473Y-134918738D01*
X65527473Y-134918738D02*
X65565569Y-134966357D01*
X65908426Y-135871119D02*
X65908426Y-134871119D01*
X66365569Y-135871119D02*
X66022711Y-135299690D01*
X66365569Y-134871119D02*
X65908426Y-135442547D01*
X64072712Y-133421119D02*
X64072712Y-132421119D01*
X64072712Y-132421119D02*
X64377474Y-132421119D01*
X64377474Y-132421119D02*
X64453664Y-132468738D01*
X64453664Y-132468738D02*
X64491759Y-132516357D01*
X64491759Y-132516357D02*
X64529855Y-132611595D01*
X64529855Y-132611595D02*
X64529855Y-132754452D01*
X64529855Y-132754452D02*
X64491759Y-132849690D01*
X64491759Y-132849690D02*
X64453664Y-132897309D01*
X64453664Y-132897309D02*
X64377474Y-132944928D01*
X64377474Y-132944928D02*
X64072712Y-132944928D01*
X64796521Y-132421119D02*
X64986997Y-133421119D01*
X64986997Y-133421119D02*
X65139378Y-132706833D01*
X65139378Y-132706833D02*
X65291759Y-133421119D01*
X65291759Y-133421119D02*
X65482236Y-132421119D01*
X66244141Y-133421119D02*
X65977474Y-132944928D01*
X65786998Y-133421119D02*
X65786998Y-132421119D01*
X65786998Y-132421119D02*
X66091760Y-132421119D01*
X66091760Y-132421119D02*
X66167950Y-132468738D01*
X66167950Y-132468738D02*
X66206045Y-132516357D01*
X66206045Y-132516357D02*
X66244141Y-132611595D01*
X66244141Y-132611595D02*
X66244141Y-132754452D01*
X66244141Y-132754452D02*
X66206045Y-132849690D01*
X66206045Y-132849690D02*
X66167950Y-132897309D01*
X66167950Y-132897309D02*
X66091760Y-132944928D01*
X66091760Y-132944928D02*
X65786998Y-132944928D01*
D13*
X48673809Y-138077945D02*
X48673809Y-137468422D01*
X49268094Y-137773183D02*
X48079523Y-137773183D01*
X47708094Y-136706517D02*
X47708094Y-137087469D01*
X47708094Y-137087469D02*
X48450951Y-137125565D01*
X48450951Y-137125565D02*
X48376666Y-137087469D01*
X48376666Y-137087469D02*
X48302380Y-137011279D01*
X48302380Y-137011279D02*
X48302380Y-136820803D01*
X48302380Y-136820803D02*
X48376666Y-136744612D01*
X48376666Y-136744612D02*
X48450951Y-136706517D01*
X48450951Y-136706517D02*
X48599523Y-136668422D01*
X48599523Y-136668422D02*
X48970951Y-136668422D01*
X48970951Y-136668422D02*
X49119523Y-136706517D01*
X49119523Y-136706517D02*
X49193809Y-136744612D01*
X49193809Y-136744612D02*
X49268094Y-136820803D01*
X49268094Y-136820803D02*
X49268094Y-137011279D01*
X49268094Y-137011279D02*
X49193809Y-137087469D01*
X49193809Y-137087469D02*
X49119523Y-137125565D01*
X50293893Y-137658898D02*
X50219607Y-137735088D01*
X50219607Y-137735088D02*
X50219607Y-137849374D01*
X50219607Y-137849374D02*
X50293893Y-137963660D01*
X50293893Y-137963660D02*
X50442464Y-138039850D01*
X50442464Y-138039850D02*
X50591036Y-138077945D01*
X50591036Y-138077945D02*
X50888179Y-138116041D01*
X50888179Y-138116041D02*
X51111036Y-138116041D01*
X51111036Y-138116041D02*
X51408179Y-138077945D01*
X51408179Y-138077945D02*
X51556750Y-138039850D01*
X51556750Y-138039850D02*
X51705322Y-137963660D01*
X51705322Y-137963660D02*
X51779607Y-137849374D01*
X51779607Y-137849374D02*
X51779607Y-137773183D01*
X51779607Y-137773183D02*
X51705322Y-137658898D01*
X51705322Y-137658898D02*
X51631036Y-137620802D01*
X51631036Y-137620802D02*
X51111036Y-137620802D01*
X51111036Y-137620802D02*
X51111036Y-137773183D01*
X51779607Y-137277945D02*
X50219607Y-137277945D01*
X50219607Y-137277945D02*
X51779607Y-136820802D01*
X51779607Y-136820802D02*
X50219607Y-136820802D01*
X51779607Y-136439850D02*
X50219607Y-136439850D01*
X50219607Y-136439850D02*
X50219607Y-136249374D01*
X50219607Y-136249374D02*
X50293893Y-136135088D01*
X50293893Y-136135088D02*
X50442464Y-136058898D01*
X50442464Y-136058898D02*
X50591036Y-136020803D01*
X50591036Y-136020803D02*
X50888179Y-135982707D01*
X50888179Y-135982707D02*
X51111036Y-135982707D01*
X51111036Y-135982707D02*
X51408179Y-136020803D01*
X51408179Y-136020803D02*
X51556750Y-136058898D01*
X51556750Y-136058898D02*
X51705322Y-136135088D01*
X51705322Y-136135088D02*
X51779607Y-136249374D01*
X51779607Y-136249374D02*
X51779607Y-136439850D01*
X54291120Y-138077945D02*
X52731120Y-138077945D01*
X54291120Y-137620802D02*
X53399692Y-137963660D01*
X52731120Y-137620802D02*
X53622549Y-138077945D01*
X54291120Y-136858898D02*
X54291120Y-137316041D01*
X54291120Y-137087469D02*
X52731120Y-137087469D01*
X52731120Y-137087469D02*
X52953977Y-137163660D01*
X52953977Y-137163660D02*
X53102549Y-137239850D01*
X53102549Y-137239850D02*
X53176835Y-137316041D01*
X56802633Y-138077945D02*
X55242633Y-138077945D01*
X56802633Y-137620802D02*
X55911205Y-137963660D01*
X55242633Y-137620802D02*
X56134062Y-138077945D01*
X55391205Y-137316041D02*
X55316919Y-137277945D01*
X55316919Y-137277945D02*
X55242633Y-137201755D01*
X55242633Y-137201755D02*
X55242633Y-137011279D01*
X55242633Y-137011279D02*
X55316919Y-136935088D01*
X55316919Y-136935088D02*
X55391205Y-136896993D01*
X55391205Y-136896993D02*
X55539776Y-136858898D01*
X55539776Y-136858898D02*
X55688348Y-136858898D01*
X55688348Y-136858898D02*
X55911205Y-136896993D01*
X55911205Y-136896993D02*
X56802633Y-137354136D01*
X56802633Y-137354136D02*
X56802633Y-136858898D01*
X59239861Y-138116041D02*
X59314146Y-138001755D01*
X59314146Y-138001755D02*
X59314146Y-137811279D01*
X59314146Y-137811279D02*
X59239861Y-137735088D01*
X59239861Y-137735088D02*
X59165575Y-137696993D01*
X59165575Y-137696993D02*
X59017003Y-137658898D01*
X59017003Y-137658898D02*
X58868432Y-137658898D01*
X58868432Y-137658898D02*
X58719861Y-137696993D01*
X58719861Y-137696993D02*
X58645575Y-137735088D01*
X58645575Y-137735088D02*
X58571289Y-137811279D01*
X58571289Y-137811279D02*
X58497003Y-137963660D01*
X58497003Y-137963660D02*
X58422718Y-138039850D01*
X58422718Y-138039850D02*
X58348432Y-138077945D01*
X58348432Y-138077945D02*
X58199861Y-138116041D01*
X58199861Y-138116041D02*
X58051289Y-138116041D01*
X58051289Y-138116041D02*
X57902718Y-138077945D01*
X57902718Y-138077945D02*
X57828432Y-138039850D01*
X57828432Y-138039850D02*
X57754146Y-137963660D01*
X57754146Y-137963660D02*
X57754146Y-137773183D01*
X57754146Y-137773183D02*
X57828432Y-137658898D01*
X59314146Y-136896993D02*
X59314146Y-137354136D01*
X59314146Y-137125564D02*
X57754146Y-137125564D01*
X57754146Y-137125564D02*
X57977003Y-137201755D01*
X57977003Y-137201755D02*
X58125575Y-137277945D01*
X58125575Y-137277945D02*
X58199861Y-137354136D01*
X61751374Y-138116041D02*
X61825659Y-138001755D01*
X61825659Y-138001755D02*
X61825659Y-137811279D01*
X61825659Y-137811279D02*
X61751374Y-137735088D01*
X61751374Y-137735088D02*
X61677088Y-137696993D01*
X61677088Y-137696993D02*
X61528516Y-137658898D01*
X61528516Y-137658898D02*
X61379945Y-137658898D01*
X61379945Y-137658898D02*
X61231374Y-137696993D01*
X61231374Y-137696993D02*
X61157088Y-137735088D01*
X61157088Y-137735088D02*
X61082802Y-137811279D01*
X61082802Y-137811279D02*
X61008516Y-137963660D01*
X61008516Y-137963660D02*
X60934231Y-138039850D01*
X60934231Y-138039850D02*
X60859945Y-138077945D01*
X60859945Y-138077945D02*
X60711374Y-138116041D01*
X60711374Y-138116041D02*
X60562802Y-138116041D01*
X60562802Y-138116041D02*
X60414231Y-138077945D01*
X60414231Y-138077945D02*
X60339945Y-138039850D01*
X60339945Y-138039850D02*
X60265659Y-137963660D01*
X60265659Y-137963660D02*
X60265659Y-137773183D01*
X60265659Y-137773183D02*
X60339945Y-137658898D01*
X60414231Y-137354136D02*
X60339945Y-137316040D01*
X60339945Y-137316040D02*
X60265659Y-137239850D01*
X60265659Y-137239850D02*
X60265659Y-137049374D01*
X60265659Y-137049374D02*
X60339945Y-136973183D01*
X60339945Y-136973183D02*
X60414231Y-136935088D01*
X60414231Y-136935088D02*
X60562802Y-136896993D01*
X60562802Y-136896993D02*
X60711374Y-136896993D01*
X60711374Y-136896993D02*
X60934231Y-136935088D01*
X60934231Y-136935088D02*
X61825659Y-137392231D01*
X61825659Y-137392231D02*
X61825659Y-136896993D01*
X64337172Y-137696993D02*
X64337172Y-138077945D01*
X64337172Y-138077945D02*
X62777172Y-138077945D01*
X64337172Y-137011279D02*
X64337172Y-137468422D01*
X64337172Y-137239850D02*
X62777172Y-137239850D01*
X62777172Y-137239850D02*
X63000029Y-137316041D01*
X63000029Y-137316041D02*
X63148601Y-137392231D01*
X63148601Y-137392231D02*
X63222887Y-137468422D01*
X66848685Y-137696993D02*
X66848685Y-138077945D01*
X66848685Y-138077945D02*
X65288685Y-138077945D01*
X65437257Y-137468422D02*
X65362971Y-137430326D01*
X65362971Y-137430326D02*
X65288685Y-137354136D01*
X65288685Y-137354136D02*
X65288685Y-137163660D01*
X65288685Y-137163660D02*
X65362971Y-137087469D01*
X65362971Y-137087469D02*
X65437257Y-137049374D01*
X65437257Y-137049374D02*
X65585828Y-137011279D01*
X65585828Y-137011279D02*
X65734400Y-137011279D01*
X65734400Y-137011279D02*
X65957257Y-137049374D01*
X65957257Y-137049374D02*
X66848685Y-137506517D01*
X66848685Y-137506517D02*
X66848685Y-137011279D01*
D11*
X48398133Y-134359580D02*
X48350514Y-134407200D01*
X48350514Y-134407200D02*
X48207657Y-134454819D01*
X48207657Y-134454819D02*
X48112419Y-134454819D01*
X48112419Y-134454819D02*
X47969562Y-134407200D01*
X47969562Y-134407200D02*
X47874324Y-134311961D01*
X47874324Y-134311961D02*
X47826705Y-134216723D01*
X47826705Y-134216723D02*
X47779086Y-134026247D01*
X47779086Y-134026247D02*
X47779086Y-133883390D01*
X47779086Y-133883390D02*
X47826705Y-133692914D01*
X47826705Y-133692914D02*
X47874324Y-133597676D01*
X47874324Y-133597676D02*
X47969562Y-133502438D01*
X47969562Y-133502438D02*
X48112419Y-133454819D01*
X48112419Y-133454819D02*
X48207657Y-133454819D01*
X48207657Y-133454819D02*
X48350514Y-133502438D01*
X48350514Y-133502438D02*
X48398133Y-133550057D01*
X48731467Y-133454819D02*
X49398133Y-133454819D01*
X49398133Y-133454819D02*
X48969562Y-134454819D01*
X56483333Y-134504819D02*
X56150000Y-134028628D01*
X55911905Y-134504819D02*
X55911905Y-133504819D01*
X55911905Y-133504819D02*
X56292857Y-133504819D01*
X56292857Y-133504819D02*
X56388095Y-133552438D01*
X56388095Y-133552438D02*
X56435714Y-133600057D01*
X56435714Y-133600057D02*
X56483333Y-133695295D01*
X56483333Y-133695295D02*
X56483333Y-133838152D01*
X56483333Y-133838152D02*
X56435714Y-133933390D01*
X56435714Y-133933390D02*
X56388095Y-133981009D01*
X56388095Y-133981009D02*
X56292857Y-134028628D01*
X56292857Y-134028628D02*
X55911905Y-134028628D01*
X56864286Y-133600057D02*
X56911905Y-133552438D01*
X56911905Y-133552438D02*
X57007143Y-133504819D01*
X57007143Y-133504819D02*
X57245238Y-133504819D01*
X57245238Y-133504819D02*
X57340476Y-133552438D01*
X57340476Y-133552438D02*
X57388095Y-133600057D01*
X57388095Y-133600057D02*
X57435714Y-133695295D01*
X57435714Y-133695295D02*
X57435714Y-133790533D01*
X57435714Y-133790533D02*
X57388095Y-133933390D01*
X57388095Y-133933390D02*
X56816667Y-134504819D01*
X56816667Y-134504819D02*
X57435714Y-134504819D01*
X47438095Y-120604819D02*
X47438095Y-121414342D01*
X47438095Y-121414342D02*
X47485714Y-121509580D01*
X47485714Y-121509580D02*
X47533333Y-121557200D01*
X47533333Y-121557200D02*
X47628571Y-121604819D01*
X47628571Y-121604819D02*
X47819047Y-121604819D01*
X47819047Y-121604819D02*
X47914285Y-121557200D01*
X47914285Y-121557200D02*
X47961904Y-121509580D01*
X47961904Y-121509580D02*
X48009523Y-121414342D01*
X48009523Y-121414342D02*
X48009523Y-120604819D01*
X48438095Y-120700057D02*
X48485714Y-120652438D01*
X48485714Y-120652438D02*
X48580952Y-120604819D01*
X48580952Y-120604819D02*
X48819047Y-120604819D01*
X48819047Y-120604819D02*
X48914285Y-120652438D01*
X48914285Y-120652438D02*
X48961904Y-120700057D01*
X48961904Y-120700057D02*
X49009523Y-120795295D01*
X49009523Y-120795295D02*
X49009523Y-120890533D01*
X49009523Y-120890533D02*
X48961904Y-121033390D01*
X48961904Y-121033390D02*
X48390476Y-121604819D01*
X48390476Y-121604819D02*
X49009523Y-121604819D01*
X64583333Y-127354819D02*
X64250000Y-126878628D01*
X64011905Y-127354819D02*
X64011905Y-126354819D01*
X64011905Y-126354819D02*
X64392857Y-126354819D01*
X64392857Y-126354819D02*
X64488095Y-126402438D01*
X64488095Y-126402438D02*
X64535714Y-126450057D01*
X64535714Y-126450057D02*
X64583333Y-126545295D01*
X64583333Y-126545295D02*
X64583333Y-126688152D01*
X64583333Y-126688152D02*
X64535714Y-126783390D01*
X64535714Y-126783390D02*
X64488095Y-126831009D01*
X64488095Y-126831009D02*
X64392857Y-126878628D01*
X64392857Y-126878628D02*
X64011905Y-126878628D01*
X65059524Y-127354819D02*
X65250000Y-127354819D01*
X65250000Y-127354819D02*
X65345238Y-127307200D01*
X65345238Y-127307200D02*
X65392857Y-127259580D01*
X65392857Y-127259580D02*
X65488095Y-127116723D01*
X65488095Y-127116723D02*
X65535714Y-126926247D01*
X65535714Y-126926247D02*
X65535714Y-126545295D01*
X65535714Y-126545295D02*
X65488095Y-126450057D01*
X65488095Y-126450057D02*
X65440476Y-126402438D01*
X65440476Y-126402438D02*
X65345238Y-126354819D01*
X65345238Y-126354819D02*
X65154762Y-126354819D01*
X65154762Y-126354819D02*
X65059524Y-126402438D01*
X65059524Y-126402438D02*
X65011905Y-126450057D01*
X65011905Y-126450057D02*
X64964286Y-126545295D01*
X64964286Y-126545295D02*
X64964286Y-126783390D01*
X64964286Y-126783390D02*
X65011905Y-126878628D01*
X65011905Y-126878628D02*
X65059524Y-126926247D01*
X65059524Y-126926247D02*
X65154762Y-126973866D01*
X65154762Y-126973866D02*
X65345238Y-126973866D01*
X65345238Y-126973866D02*
X65440476Y-126926247D01*
X65440476Y-126926247D02*
X65488095Y-126878628D01*
X65488095Y-126878628D02*
X65535714Y-126783390D01*
X61183333Y-134604819D02*
X60850000Y-134128628D01*
X60611905Y-134604819D02*
X60611905Y-133604819D01*
X60611905Y-133604819D02*
X60992857Y-133604819D01*
X60992857Y-133604819D02*
X61088095Y-133652438D01*
X61088095Y-133652438D02*
X61135714Y-133700057D01*
X61135714Y-133700057D02*
X61183333Y-133795295D01*
X61183333Y-133795295D02*
X61183333Y-133938152D01*
X61183333Y-133938152D02*
X61135714Y-134033390D01*
X61135714Y-134033390D02*
X61088095Y-134081009D01*
X61088095Y-134081009D02*
X60992857Y-134128628D01*
X60992857Y-134128628D02*
X60611905Y-134128628D01*
X61516667Y-133604819D02*
X62135714Y-133604819D01*
X62135714Y-133604819D02*
X61802381Y-133985771D01*
X61802381Y-133985771D02*
X61945238Y-133985771D01*
X61945238Y-133985771D02*
X62040476Y-134033390D01*
X62040476Y-134033390D02*
X62088095Y-134081009D01*
X62088095Y-134081009D02*
X62135714Y-134176247D01*
X62135714Y-134176247D02*
X62135714Y-134414342D01*
X62135714Y-134414342D02*
X62088095Y-134509580D01*
X62088095Y-134509580D02*
X62040476Y-134557200D01*
X62040476Y-134557200D02*
X61945238Y-134604819D01*
X61945238Y-134604819D02*
X61659524Y-134604819D01*
X61659524Y-134604819D02*
X61564286Y-134557200D01*
X61564286Y-134557200D02*
X61516667Y-134509580D01*
X56238095Y-120604819D02*
X56238095Y-121414342D01*
X56238095Y-121414342D02*
X56285714Y-121509580D01*
X56285714Y-121509580D02*
X56333333Y-121557200D01*
X56333333Y-121557200D02*
X56428571Y-121604819D01*
X56428571Y-121604819D02*
X56619047Y-121604819D01*
X56619047Y-121604819D02*
X56714285Y-121557200D01*
X56714285Y-121557200D02*
X56761904Y-121509580D01*
X56761904Y-121509580D02*
X56809523Y-121414342D01*
X56809523Y-121414342D02*
X56809523Y-120604819D01*
X57190476Y-120604819D02*
X57809523Y-120604819D01*
X57809523Y-120604819D02*
X57476190Y-120985771D01*
X57476190Y-120985771D02*
X57619047Y-120985771D01*
X57619047Y-120985771D02*
X57714285Y-121033390D01*
X57714285Y-121033390D02*
X57761904Y-121081009D01*
X57761904Y-121081009D02*
X57809523Y-121176247D01*
X57809523Y-121176247D02*
X57809523Y-121414342D01*
X57809523Y-121414342D02*
X57761904Y-121509580D01*
X57761904Y-121509580D02*
X57714285Y-121557200D01*
X57714285Y-121557200D02*
X57619047Y-121604819D01*
X57619047Y-121604819D02*
X57333333Y-121604819D01*
X57333333Y-121604819D02*
X57238095Y-121557200D01*
X57238095Y-121557200D02*
X57190476Y-121509580D01*
X52433333Y-134504819D02*
X52100000Y-134028628D01*
X51861905Y-134504819D02*
X51861905Y-133504819D01*
X51861905Y-133504819D02*
X52242857Y-133504819D01*
X52242857Y-133504819D02*
X52338095Y-133552438D01*
X52338095Y-133552438D02*
X52385714Y-133600057D01*
X52385714Y-133600057D02*
X52433333Y-133695295D01*
X52433333Y-133695295D02*
X52433333Y-133838152D01*
X52433333Y-133838152D02*
X52385714Y-133933390D01*
X52385714Y-133933390D02*
X52338095Y-133981009D01*
X52338095Y-133981009D02*
X52242857Y-134028628D01*
X52242857Y-134028628D02*
X51861905Y-134028628D01*
X53385714Y-134504819D02*
X52814286Y-134504819D01*
X53100000Y-134504819D02*
X53100000Y-133504819D01*
X53100000Y-133504819D02*
X53004762Y-133647676D01*
X53004762Y-133647676D02*
X52909524Y-133742914D01*
X52909524Y-133742914D02*
X52814286Y-133790533D01*
X64533333Y-122109580D02*
X64485714Y-122157200D01*
X64485714Y-122157200D02*
X64342857Y-122204819D01*
X64342857Y-122204819D02*
X64247619Y-122204819D01*
X64247619Y-122204819D02*
X64104762Y-122157200D01*
X64104762Y-122157200D02*
X64009524Y-122061961D01*
X64009524Y-122061961D02*
X63961905Y-121966723D01*
X63961905Y-121966723D02*
X63914286Y-121776247D01*
X63914286Y-121776247D02*
X63914286Y-121633390D01*
X63914286Y-121633390D02*
X63961905Y-121442914D01*
X63961905Y-121442914D02*
X64009524Y-121347676D01*
X64009524Y-121347676D02*
X64104762Y-121252438D01*
X64104762Y-121252438D02*
X64247619Y-121204819D01*
X64247619Y-121204819D02*
X64342857Y-121204819D01*
X64342857Y-121204819D02*
X64485714Y-121252438D01*
X64485714Y-121252438D02*
X64533333Y-121300057D01*
X65438095Y-121204819D02*
X64961905Y-121204819D01*
X64961905Y-121204819D02*
X64914286Y-121681009D01*
X64914286Y-121681009D02*
X64961905Y-121633390D01*
X64961905Y-121633390D02*
X65057143Y-121585771D01*
X65057143Y-121585771D02*
X65295238Y-121585771D01*
X65295238Y-121585771D02*
X65390476Y-121633390D01*
X65390476Y-121633390D02*
X65438095Y-121681009D01*
X65438095Y-121681009D02*
X65485714Y-121776247D01*
X65485714Y-121776247D02*
X65485714Y-122014342D01*
X65485714Y-122014342D02*
X65438095Y-122109580D01*
X65438095Y-122109580D02*
X65390476Y-122157200D01*
X65390476Y-122157200D02*
X65295238Y-122204819D01*
X65295238Y-122204819D02*
X65057143Y-122204819D01*
X65057143Y-122204819D02*
X64961905Y-122157200D01*
X64961905Y-122157200D02*
X64914286Y-122109580D01*
D14*
X46990001Y-141130000D02*
X46990002Y-139750000D01*
X48370001Y-141129999D02*
X46990001Y-141130000D01*
X49640001Y-138370000D02*
X67530001Y-138370001D01*
X49640001Y-141130000D02*
X49640001Y-138370000D01*
X49640001Y-141130000D02*
X67530001Y-141129999D01*
X67530001Y-141129999D02*
X67530001Y-138370001D01*
X48506747Y-131700600D02*
X49029253Y-131700600D01*
X48506747Y-133170600D02*
X49029253Y-133170600D01*
X56472936Y-131715000D02*
X56927064Y-131715000D01*
X56472936Y-133185000D02*
X56927064Y-133185000D01*
X50887400Y-122217500D02*
X48937400Y-122217500D01*
X50887400Y-122217500D02*
X52837400Y-122217500D01*
X50887400Y-131087500D02*
X48937400Y-131087500D01*
X50887400Y-131087500D02*
X52837400Y-131087500D01*
X48187400Y-122282500D02*
X47947400Y-121952500D01*
X48427400Y-121952500D01*
X48187400Y-122282500D01*
G36*
X48187400Y-122282500D02*
G01*
X47947400Y-121952500D01*
X48427400Y-121952500D01*
X48187400Y-122282500D01*
G37*
X64035000Y-128957336D02*
X64035000Y-129411464D01*
X65505000Y-128957336D02*
X65505000Y-129411464D01*
X61122936Y-131715000D02*
X61577064Y-131715000D01*
X61122936Y-133185000D02*
X61577064Y-133185000D01*
X59828200Y-122242900D02*
X57878200Y-122242900D01*
X59828200Y-122242900D02*
X61778200Y-122242900D01*
X59828200Y-131112900D02*
X57878200Y-131112900D01*
X59828200Y-131112900D02*
X61778200Y-131112900D01*
X57128200Y-122307900D02*
X56888200Y-121977900D01*
X57368200Y-121977900D01*
X57128200Y-122307900D01*
G36*
X57128200Y-122307900D02*
G01*
X56888200Y-121977900D01*
X57368200Y-121977900D01*
X57128200Y-122307900D01*
G37*
X66590000Y-131815000D02*
X66590000Y-134085000D01*
X66590000Y-134085000D02*
X70650000Y-134085000D01*
X70650000Y-131815000D02*
X66590000Y-131815000D01*
X66031600Y-128524000D02*
X66031600Y-123334000D01*
X68791599Y-129794000D02*
X68791600Y-131174000D01*
X68791600Y-123334000D02*
X66031600Y-123334000D01*
X68791600Y-128524000D02*
X66031600Y-128524000D01*
X68791600Y-128524000D02*
X68791600Y-123334000D01*
X68791600Y-131174000D02*
X67411600Y-131173999D01*
X66590000Y-134365000D02*
X66590000Y-136635000D01*
X66590000Y-136635000D02*
X70650000Y-136635000D01*
X70650000Y-134365000D02*
X66590000Y-134365000D01*
X52422936Y-131715000D02*
X52877064Y-131715000D01*
X52422936Y-133185000D02*
X52877064Y-133185000D01*
X63984200Y-123792347D02*
X63984200Y-124314853D01*
X65454200Y-123792347D02*
X65454200Y-124314853D01*
D15*
X70994400Y-139090400D02*
G75*
G02*
X67994400Y-139090400I-1500000J0D01*
G01*
X67994400Y-139090400D02*
G75*
G02*
X70994400Y-139090400I1500000J0D01*
G01*
D16*
X45161200Y-141387600D02*
G75*
G02*
X42773600Y-139000000I0J2387600D01*
G01*
D15*
X70892800Y-121869200D02*
G75*
G02*
X67892800Y-121869200I-1500000J0D01*
G01*
X67892800Y-121869200D02*
G75*
G02*
X70892800Y-121869200I1500000J0D01*
G01*
D16*
X45161200Y-141387600D02*
X69342132Y-141387600D01*
X42773600Y-122000000D02*
G75*
G02*
X45161200Y-119612400I2387600J0D01*
G01*
X42773600Y-122000000D02*
X42773600Y-139000000D01*
D15*
X46661200Y-139090400D02*
G75*
G02*
X43661200Y-139090400I-1500000J0D01*
G01*
X43661200Y-139090400D02*
G75*
G02*
X46661200Y-139090400I1500000J0D01*
G01*
D16*
X71729732Y-122000000D02*
X71729732Y-139000000D01*
X69342132Y-119612400D02*
G75*
G02*
X71729700Y-122000000I-32J-2387600D01*
G01*
X71729732Y-139000000D02*
G75*
G02*
X69342132Y-141387632I-2387632J0D01*
G01*
D15*
X46661200Y-121869200D02*
G75*
G02*
X43661200Y-121869200I-1500000J0D01*
G01*
X43661200Y-121869200D02*
G75*
G02*
X46661200Y-121869200I1500000J0D01*
G01*
D16*
X45161200Y-119612400D02*
X69342132Y-119612400D01*
M02*
