G04 #@! TF.GenerationSoftware,KiCad,Pcbnew,9.0.4*
G04 #@! TF.CreationDate,2025-12-04T22:52:48-05:00*
G04 #@! TF.ProjectId,mxtoggle,6d78746f-6767-46c6-952e-6b696361645f,B-V2-R1*
G04 #@! TF.SameCoordinates,Original*
G04 #@! TF.FileFunction,Legend,Bot*
G04 #@! TF.FilePolarity,Positive*
%FSLAX46Y46*%
G04 Gerber Fmt 4.6, Leading zero omitted, Abs format (unit mm)*
G04 Created by KiCad (PCBNEW 9.0.4) date 2025-12-04 22:52:48*
%MOMM*%
%LPD*%
G01*
G04 APERTURE LIST*
%ADD10C,0.150000*%
%ADD11C,0.200000*%
%ADD12C,0.240000*%
%ADD13C,0.180000*%
G04 #@! TA.AperFunction,Profile*
%ADD14C,0.050000*%
G04 #@! TD*
G04 #@! TA.AperFunction,Profile*
%ADD15C,0.120000*%
G04 #@! TD*
G04 APERTURE END LIST*
D10*
X69723122Y-123941414D02*
X70199312Y-123941414D01*
X70199312Y-123941414D02*
X70246931Y-124693795D01*
X70246931Y-124693795D02*
X70199312Y-124618556D01*
X70199312Y-124618556D02*
X70104074Y-124543318D01*
X70104074Y-124543318D02*
X69865979Y-124543318D01*
X69865979Y-124543318D02*
X69770741Y-124618556D01*
X69770741Y-124618556D02*
X69723122Y-124693795D01*
X69723122Y-124693795D02*
X69675503Y-124844271D01*
X69675503Y-124844271D02*
X69675503Y-125220461D01*
X69675503Y-125220461D02*
X69723122Y-125370937D01*
X69723122Y-125370937D02*
X69770741Y-125446176D01*
X69770741Y-125446176D02*
X69865979Y-125521414D01*
X69865979Y-125521414D02*
X70104074Y-125521414D01*
X70104074Y-125521414D02*
X70199312Y-125446176D01*
X70199312Y-125446176D02*
X70246931Y-125370937D01*
X69389788Y-123941414D02*
X69056455Y-125521414D01*
X69056455Y-125521414D02*
X68723122Y-123941414D01*
X70913598Y-126560364D02*
X71008836Y-126485126D01*
X71008836Y-126485126D02*
X71151693Y-126485126D01*
X71151693Y-126485126D02*
X71294550Y-126560364D01*
X71294550Y-126560364D02*
X71389788Y-126710840D01*
X71389788Y-126710840D02*
X71437407Y-126861316D01*
X71437407Y-126861316D02*
X71485026Y-127162268D01*
X71485026Y-127162268D02*
X71485026Y-127387983D01*
X71485026Y-127387983D02*
X71437407Y-127688935D01*
X71437407Y-127688935D02*
X71389788Y-127839411D01*
X71389788Y-127839411D02*
X71294550Y-127989888D01*
X71294550Y-127989888D02*
X71151693Y-128065126D01*
X71151693Y-128065126D02*
X71056455Y-128065126D01*
X71056455Y-128065126D02*
X70913598Y-127989888D01*
X70913598Y-127989888D02*
X70865979Y-127914649D01*
X70865979Y-127914649D02*
X70865979Y-127387983D01*
X70865979Y-127387983D02*
X71056455Y-127387983D01*
X70437407Y-128065126D02*
X70437407Y-126485126D01*
X70437407Y-126485126D02*
X69865979Y-128065126D01*
X69865979Y-128065126D02*
X69865979Y-126485126D01*
X69389788Y-128065126D02*
X69389788Y-126485126D01*
X69389788Y-126485126D02*
X69151693Y-126485126D01*
X69151693Y-126485126D02*
X69008836Y-126560364D01*
X69008836Y-126560364D02*
X68913598Y-126710840D01*
X68913598Y-126710840D02*
X68865979Y-126861316D01*
X68865979Y-126861316D02*
X68818360Y-127162268D01*
X68818360Y-127162268D02*
X68818360Y-127387983D01*
X68818360Y-127387983D02*
X68865979Y-127688935D01*
X68865979Y-127688935D02*
X68913598Y-127839411D01*
X68913598Y-127839411D02*
X69008836Y-127989888D01*
X69008836Y-127989888D02*
X69151693Y-128065126D01*
X69151693Y-128065126D02*
X69389788Y-128065126D01*
X71008836Y-130608838D02*
X71008836Y-129028838D01*
X71008836Y-129028838D02*
X70770741Y-129028838D01*
X70770741Y-129028838D02*
X70627884Y-129104076D01*
X70627884Y-129104076D02*
X70532646Y-129254552D01*
X70532646Y-129254552D02*
X70485027Y-129405028D01*
X70485027Y-129405028D02*
X70437408Y-129705980D01*
X70437408Y-129705980D02*
X70437408Y-129931695D01*
X70437408Y-129931695D02*
X70485027Y-130232647D01*
X70485027Y-130232647D02*
X70532646Y-130383123D01*
X70532646Y-130383123D02*
X70627884Y-130533600D01*
X70627884Y-130533600D02*
X70770741Y-130608838D01*
X70770741Y-130608838D02*
X71008836Y-130608838D01*
X70056455Y-130157409D02*
X69580265Y-130157409D01*
X70151693Y-130608838D02*
X69818360Y-129028838D01*
X69818360Y-129028838D02*
X69485027Y-130608838D01*
X69294550Y-129028838D02*
X68723122Y-129028838D01*
X69008836Y-130608838D02*
X69008836Y-129028838D01*
D11*
X48623809Y-136906517D02*
X48623809Y-137516041D01*
X49218094Y-137211279D02*
X48029523Y-137211279D01*
X47658094Y-138277945D02*
X47658094Y-137896993D01*
X47658094Y-137896993D02*
X48400951Y-137858897D01*
X48400951Y-137858897D02*
X48326666Y-137896993D01*
X48326666Y-137896993D02*
X48252380Y-137973183D01*
X48252380Y-137973183D02*
X48252380Y-138163659D01*
X48252380Y-138163659D02*
X48326666Y-138239850D01*
X48326666Y-138239850D02*
X48400951Y-138277945D01*
X48400951Y-138277945D02*
X48549523Y-138316040D01*
X48549523Y-138316040D02*
X48920951Y-138316040D01*
X48920951Y-138316040D02*
X49069523Y-138277945D01*
X49069523Y-138277945D02*
X49143809Y-138239850D01*
X49143809Y-138239850D02*
X49218094Y-138163659D01*
X49218094Y-138163659D02*
X49218094Y-137973183D01*
X49218094Y-137973183D02*
X49143809Y-137896993D01*
X49143809Y-137896993D02*
X49069523Y-137858897D01*
X50243893Y-136639850D02*
X50169607Y-136563660D01*
X50169607Y-136563660D02*
X50169607Y-136449374D01*
X50169607Y-136449374D02*
X50243893Y-136335088D01*
X50243893Y-136335088D02*
X50392464Y-136258898D01*
X50392464Y-136258898D02*
X50541036Y-136220803D01*
X50541036Y-136220803D02*
X50838179Y-136182707D01*
X50838179Y-136182707D02*
X51061036Y-136182707D01*
X51061036Y-136182707D02*
X51358179Y-136220803D01*
X51358179Y-136220803D02*
X51506750Y-136258898D01*
X51506750Y-136258898D02*
X51655322Y-136335088D01*
X51655322Y-136335088D02*
X51729607Y-136449374D01*
X51729607Y-136449374D02*
X51729607Y-136525565D01*
X51729607Y-136525565D02*
X51655322Y-136639850D01*
X51655322Y-136639850D02*
X51581036Y-136677946D01*
X51581036Y-136677946D02*
X51061036Y-136677946D01*
X51061036Y-136677946D02*
X51061036Y-136525565D01*
X51729607Y-137020803D02*
X50169607Y-137020803D01*
X50169607Y-137020803D02*
X51729607Y-137477946D01*
X51729607Y-137477946D02*
X50169607Y-137477946D01*
X51729607Y-137858898D02*
X50169607Y-137858898D01*
X50169607Y-137858898D02*
X50169607Y-138049374D01*
X50169607Y-138049374D02*
X50243893Y-138163660D01*
X50243893Y-138163660D02*
X50392464Y-138239850D01*
X50392464Y-138239850D02*
X50541036Y-138277945D01*
X50541036Y-138277945D02*
X50838179Y-138316041D01*
X50838179Y-138316041D02*
X51061036Y-138316041D01*
X51061036Y-138316041D02*
X51358179Y-138277945D01*
X51358179Y-138277945D02*
X51506750Y-138239850D01*
X51506750Y-138239850D02*
X51655322Y-138163660D01*
X51655322Y-138163660D02*
X51729607Y-138049374D01*
X51729607Y-138049374D02*
X51729607Y-137858898D01*
X54241120Y-137096993D02*
X52681120Y-137096993D01*
X54241120Y-137554136D02*
X53349692Y-137211278D01*
X52681120Y-137554136D02*
X53572549Y-137096993D01*
X54241120Y-138316040D02*
X54241120Y-137858897D01*
X54241120Y-138087469D02*
X52681120Y-138087469D01*
X52681120Y-138087469D02*
X52903977Y-138011278D01*
X52903977Y-138011278D02*
X53052549Y-137935088D01*
X53052549Y-137935088D02*
X53126835Y-137858897D01*
X56752633Y-137096993D02*
X55192633Y-137096993D01*
X56752633Y-137554136D02*
X55861205Y-137211278D01*
X55192633Y-137554136D02*
X56084062Y-137096993D01*
X55341205Y-137858897D02*
X55266919Y-137896993D01*
X55266919Y-137896993D02*
X55192633Y-137973183D01*
X55192633Y-137973183D02*
X55192633Y-138163659D01*
X55192633Y-138163659D02*
X55266919Y-138239850D01*
X55266919Y-138239850D02*
X55341205Y-138277945D01*
X55341205Y-138277945D02*
X55489776Y-138316040D01*
X55489776Y-138316040D02*
X55638348Y-138316040D01*
X55638348Y-138316040D02*
X55861205Y-138277945D01*
X55861205Y-138277945D02*
X56752633Y-137820802D01*
X56752633Y-137820802D02*
X56752633Y-138316040D01*
X59189861Y-137096992D02*
X59264146Y-137211278D01*
X59264146Y-137211278D02*
X59264146Y-137401754D01*
X59264146Y-137401754D02*
X59189861Y-137477945D01*
X59189861Y-137477945D02*
X59115575Y-137516040D01*
X59115575Y-137516040D02*
X58967003Y-137554135D01*
X58967003Y-137554135D02*
X58818432Y-137554135D01*
X58818432Y-137554135D02*
X58669861Y-137516040D01*
X58669861Y-137516040D02*
X58595575Y-137477945D01*
X58595575Y-137477945D02*
X58521289Y-137401754D01*
X58521289Y-137401754D02*
X58447003Y-137249373D01*
X58447003Y-137249373D02*
X58372718Y-137173183D01*
X58372718Y-137173183D02*
X58298432Y-137135088D01*
X58298432Y-137135088D02*
X58149861Y-137096992D01*
X58149861Y-137096992D02*
X58001289Y-137096992D01*
X58001289Y-137096992D02*
X57852718Y-137135088D01*
X57852718Y-137135088D02*
X57778432Y-137173183D01*
X57778432Y-137173183D02*
X57704146Y-137249373D01*
X57704146Y-137249373D02*
X57704146Y-137439850D01*
X57704146Y-137439850D02*
X57778432Y-137554135D01*
X59264146Y-138316040D02*
X59264146Y-137858897D01*
X59264146Y-138087469D02*
X57704146Y-138087469D01*
X57704146Y-138087469D02*
X57927003Y-138011278D01*
X57927003Y-138011278D02*
X58075575Y-137935088D01*
X58075575Y-137935088D02*
X58149861Y-137858897D01*
X61701374Y-137096992D02*
X61775659Y-137211278D01*
X61775659Y-137211278D02*
X61775659Y-137401754D01*
X61775659Y-137401754D02*
X61701374Y-137477945D01*
X61701374Y-137477945D02*
X61627088Y-137516040D01*
X61627088Y-137516040D02*
X61478516Y-137554135D01*
X61478516Y-137554135D02*
X61329945Y-137554135D01*
X61329945Y-137554135D02*
X61181374Y-137516040D01*
X61181374Y-137516040D02*
X61107088Y-137477945D01*
X61107088Y-137477945D02*
X61032802Y-137401754D01*
X61032802Y-137401754D02*
X60958516Y-137249373D01*
X60958516Y-137249373D02*
X60884231Y-137173183D01*
X60884231Y-137173183D02*
X60809945Y-137135088D01*
X60809945Y-137135088D02*
X60661374Y-137096992D01*
X60661374Y-137096992D02*
X60512802Y-137096992D01*
X60512802Y-137096992D02*
X60364231Y-137135088D01*
X60364231Y-137135088D02*
X60289945Y-137173183D01*
X60289945Y-137173183D02*
X60215659Y-137249373D01*
X60215659Y-137249373D02*
X60215659Y-137439850D01*
X60215659Y-137439850D02*
X60289945Y-137554135D01*
X60364231Y-137858897D02*
X60289945Y-137896993D01*
X60289945Y-137896993D02*
X60215659Y-137973183D01*
X60215659Y-137973183D02*
X60215659Y-138163659D01*
X60215659Y-138163659D02*
X60289945Y-138239850D01*
X60289945Y-138239850D02*
X60364231Y-138277945D01*
X60364231Y-138277945D02*
X60512802Y-138316040D01*
X60512802Y-138316040D02*
X60661374Y-138316040D01*
X60661374Y-138316040D02*
X60884231Y-138277945D01*
X60884231Y-138277945D02*
X61775659Y-137820802D01*
X61775659Y-137820802D02*
X61775659Y-138316040D01*
X64287172Y-137630326D02*
X64287172Y-137249374D01*
X64287172Y-137249374D02*
X62727172Y-137249374D01*
X64287172Y-138316040D02*
X64287172Y-137858897D01*
X64287172Y-138087469D02*
X62727172Y-138087469D01*
X62727172Y-138087469D02*
X62950029Y-138011278D01*
X62950029Y-138011278D02*
X63098601Y-137935088D01*
X63098601Y-137935088D02*
X63172887Y-137858897D01*
X66798685Y-137630326D02*
X66798685Y-137249374D01*
X66798685Y-137249374D02*
X65238685Y-137249374D01*
X65387257Y-137858897D02*
X65312971Y-137896993D01*
X65312971Y-137896993D02*
X65238685Y-137973183D01*
X65238685Y-137973183D02*
X65238685Y-138163659D01*
X65238685Y-138163659D02*
X65312971Y-138239850D01*
X65312971Y-138239850D02*
X65387257Y-138277945D01*
X65387257Y-138277945D02*
X65535828Y-138316040D01*
X65535828Y-138316040D02*
X65684400Y-138316040D01*
X65684400Y-138316040D02*
X65907257Y-138277945D01*
X65907257Y-138277945D02*
X66798685Y-137820802D01*
X66798685Y-137820802D02*
X66798685Y-138316040D01*
D12*
G36*
X65870662Y-128016992D02*
G01*
X65828636Y-128143071D01*
X65748151Y-128223556D01*
X65663064Y-128266099D01*
X65461605Y-128316465D01*
X65319721Y-128316465D01*
X65118261Y-128266100D01*
X65033172Y-128223555D01*
X64952688Y-128143072D01*
X64910662Y-128016992D01*
X64910662Y-127870751D01*
X65870662Y-127870751D01*
X65870662Y-128016992D01*
G37*
G36*
X65299234Y-126979565D02*
G01*
X65263469Y-127051094D01*
X65233863Y-127080700D01*
X65162334Y-127116465D01*
X65047562Y-127116465D01*
X64976032Y-127080700D01*
X64946426Y-127051094D01*
X64910662Y-126979565D01*
X64910662Y-126670751D01*
X65299234Y-126670751D01*
X65299234Y-126979565D01*
G37*
G36*
X66243995Y-129204084D02*
G01*
X64537329Y-129204084D01*
X64537329Y-128927340D01*
X64672968Y-128927340D01*
X64672968Y-128974162D01*
X64690886Y-129017419D01*
X64723994Y-129050527D01*
X64767251Y-129068445D01*
X64790662Y-129070751D01*
X65990662Y-129070751D01*
X66014073Y-129068445D01*
X66057330Y-129050527D01*
X66090438Y-129017419D01*
X66108356Y-128974162D01*
X66108356Y-128927340D01*
X66090438Y-128884083D01*
X66057330Y-128850975D01*
X66014073Y-128833057D01*
X65990662Y-128830751D01*
X64790662Y-128830751D01*
X64767251Y-128833057D01*
X64723994Y-128850975D01*
X64690886Y-128884083D01*
X64672968Y-128927340D01*
X64537329Y-128927340D01*
X64537329Y-127750751D01*
X64670662Y-127750751D01*
X64670662Y-128036465D01*
X64671828Y-128048310D01*
X64671604Y-128051473D01*
X64672550Y-128055634D01*
X64672968Y-128059876D01*
X64674180Y-128062802D01*
X64676820Y-128074412D01*
X64733963Y-128245841D01*
X64743554Y-128267322D01*
X64746378Y-128270579D01*
X64748029Y-128274563D01*
X64762953Y-128292747D01*
X64877238Y-128407032D01*
X64886442Y-128414585D01*
X64888517Y-128416978D01*
X64892124Y-128419248D01*
X64895423Y-128421956D01*
X64898352Y-128423169D01*
X64908425Y-128429510D01*
X65022712Y-128486653D01*
X65024423Y-128487308D01*
X65025120Y-128487824D01*
X65034934Y-128491330D01*
X65044682Y-128495061D01*
X65045547Y-128495122D01*
X65047273Y-128495739D01*
X65275844Y-128552882D01*
X65279903Y-128553482D01*
X65281537Y-128554159D01*
X65290352Y-128555027D01*
X65299115Y-128556323D01*
X65300863Y-128556062D01*
X65304948Y-128556465D01*
X65476377Y-128556465D01*
X65480461Y-128556062D01*
X65482210Y-128556323D01*
X65490972Y-128555027D01*
X65499788Y-128554159D01*
X65501421Y-128553482D01*
X65505481Y-128552882D01*
X65734053Y-128495739D01*
X65735782Y-128495121D01*
X65736643Y-128495060D01*
X65746368Y-128491338D01*
X65756205Y-128487824D01*
X65756900Y-128487308D01*
X65758614Y-128486653D01*
X65872900Y-128429510D01*
X65882972Y-128423169D01*
X65885902Y-128421956D01*
X65889200Y-128419249D01*
X65892808Y-128416978D01*
X65894883Y-128414584D01*
X65904086Y-128407032D01*
X66018372Y-128292747D01*
X66033296Y-128274563D01*
X66034947Y-128270577D01*
X66037771Y-128267321D01*
X66047362Y-128245841D01*
X66104504Y-128074411D01*
X66107143Y-128062802D01*
X66108356Y-128059876D01*
X66108773Y-128055633D01*
X66109720Y-128051473D01*
X66109495Y-128048310D01*
X66110662Y-128036465D01*
X66110662Y-127750751D01*
X66108356Y-127727340D01*
X66090438Y-127684083D01*
X66057330Y-127650975D01*
X66014073Y-127633057D01*
X65990662Y-127630751D01*
X64790662Y-127630751D01*
X64767251Y-127633057D01*
X64723994Y-127650975D01*
X64690886Y-127684083D01*
X64672968Y-127727340D01*
X64670662Y-127750751D01*
X64537329Y-127750751D01*
X64537329Y-126550751D01*
X64670662Y-126550751D01*
X64670662Y-127007894D01*
X64672968Y-127031305D01*
X64674618Y-127035289D01*
X64674924Y-127039589D01*
X64683331Y-127061560D01*
X64740474Y-127175845D01*
X64746817Y-127185921D01*
X64748029Y-127188847D01*
X64750732Y-127192141D01*
X64753006Y-127195753D01*
X64755400Y-127197829D01*
X64762952Y-127207032D01*
X64820095Y-127264175D01*
X64829297Y-127271726D01*
X64831374Y-127274121D01*
X64834985Y-127276394D01*
X64838280Y-127279098D01*
X64841204Y-127280309D01*
X64851282Y-127286653D01*
X64965569Y-127343796D01*
X64987539Y-127352204D01*
X64991841Y-127352509D01*
X64995823Y-127354159D01*
X65019234Y-127356465D01*
X65190662Y-127356465D01*
X65214073Y-127354159D01*
X65218057Y-127352508D01*
X65222357Y-127352203D01*
X65244328Y-127343796D01*
X65358614Y-127286653D01*
X65368690Y-127280309D01*
X65371616Y-127279098D01*
X65374910Y-127276394D01*
X65378522Y-127274121D01*
X65380598Y-127271726D01*
X65389801Y-127264175D01*
X65446944Y-127207032D01*
X65454495Y-127197829D01*
X65456890Y-127195753D01*
X65459163Y-127192141D01*
X65461867Y-127188847D01*
X65463078Y-127185922D01*
X65469422Y-127175845D01*
X65526565Y-127061560D01*
X65534972Y-127039589D01*
X65535277Y-127035289D01*
X65536928Y-127031305D01*
X65539234Y-127007894D01*
X65539234Y-126670751D01*
X65990662Y-126670751D01*
X66014073Y-126668445D01*
X66057330Y-126650527D01*
X66090438Y-126617419D01*
X66108356Y-126574162D01*
X66108356Y-126527340D01*
X66090438Y-126484083D01*
X66057330Y-126450975D01*
X66014073Y-126433057D01*
X65990662Y-126430751D01*
X64790662Y-126430751D01*
X64767251Y-126433057D01*
X64723994Y-126450975D01*
X64690886Y-126484083D01*
X64672968Y-126527340D01*
X64670662Y-126550751D01*
X64537329Y-126550751D01*
X64537329Y-125270197D01*
X64672968Y-125270197D01*
X64672968Y-125317019D01*
X64690886Y-125360276D01*
X64723994Y-125393384D01*
X64767251Y-125411302D01*
X64790662Y-125413608D01*
X65733763Y-125413608D01*
X65805292Y-125449372D01*
X65834898Y-125478978D01*
X65870662Y-125550507D01*
X65870662Y-125722422D01*
X65834898Y-125793951D01*
X65805292Y-125823557D01*
X65733763Y-125859322D01*
X64790662Y-125859322D01*
X64767251Y-125861628D01*
X64723994Y-125879546D01*
X64690886Y-125912654D01*
X64672968Y-125955911D01*
X64672968Y-126002733D01*
X64690886Y-126045990D01*
X64723994Y-126079098D01*
X64767251Y-126097016D01*
X64790662Y-126099322D01*
X65762091Y-126099322D01*
X65785502Y-126097016D01*
X65789486Y-126095365D01*
X65793786Y-126095060D01*
X65815757Y-126086653D01*
X65930043Y-126029510D01*
X65940119Y-126023166D01*
X65943045Y-126021955D01*
X65946339Y-126019251D01*
X65949951Y-126016978D01*
X65952027Y-126014583D01*
X65961230Y-126007032D01*
X66018373Y-125949889D01*
X66025927Y-125940683D01*
X66028319Y-125938609D01*
X66030589Y-125935001D01*
X66033296Y-125931704D01*
X66034508Y-125928776D01*
X66040851Y-125918701D01*
X66097993Y-125804417D01*
X66106400Y-125782446D01*
X66106705Y-125778146D01*
X66108356Y-125774162D01*
X66110662Y-125750751D01*
X66110662Y-125522179D01*
X66108356Y-125498768D01*
X66106705Y-125494783D01*
X66106400Y-125490484D01*
X66097993Y-125468513D01*
X66040851Y-125354229D01*
X66034508Y-125344153D01*
X66033296Y-125341226D01*
X66030589Y-125337928D01*
X66028319Y-125334321D01*
X66025927Y-125332246D01*
X66018373Y-125323041D01*
X65961230Y-125265898D01*
X65952027Y-125258346D01*
X65949951Y-125255952D01*
X65946339Y-125253678D01*
X65943045Y-125250975D01*
X65940119Y-125249763D01*
X65930043Y-125243420D01*
X65815757Y-125186277D01*
X65793786Y-125177870D01*
X65789486Y-125177564D01*
X65785502Y-125175914D01*
X65762091Y-125173608D01*
X64790662Y-125173608D01*
X64767251Y-125175914D01*
X64723994Y-125193832D01*
X64690886Y-125226940D01*
X64672968Y-125270197D01*
X64537329Y-125270197D01*
X64537329Y-125040275D01*
X66243995Y-125040275D01*
X66243995Y-129204084D01*
G37*
D13*
X70042856Y-133110118D02*
X69914284Y-133152975D01*
X69914284Y-133152975D02*
X69871427Y-133195832D01*
X69871427Y-133195832D02*
X69828570Y-133281547D01*
X69828570Y-133281547D02*
X69828570Y-133410118D01*
X69828570Y-133410118D02*
X69871427Y-133495832D01*
X69871427Y-133495832D02*
X69914284Y-133538690D01*
X69914284Y-133538690D02*
X69999999Y-133581547D01*
X69999999Y-133581547D02*
X70342856Y-133581547D01*
X70342856Y-133581547D02*
X70342856Y-132681547D01*
X70342856Y-132681547D02*
X70042856Y-132681547D01*
X70042856Y-132681547D02*
X69957142Y-132724404D01*
X69957142Y-132724404D02*
X69914284Y-132767261D01*
X69914284Y-132767261D02*
X69871427Y-132852975D01*
X69871427Y-132852975D02*
X69871427Y-132938690D01*
X69871427Y-132938690D02*
X69914284Y-133024404D01*
X69914284Y-133024404D02*
X69957142Y-133067261D01*
X69957142Y-133067261D02*
X70042856Y-133110118D01*
X70042856Y-133110118D02*
X70342856Y-133110118D01*
X69057142Y-133581547D02*
X69057142Y-133110118D01*
X69057142Y-133110118D02*
X69099999Y-133024404D01*
X69099999Y-133024404D02*
X69185713Y-132981547D01*
X69185713Y-132981547D02*
X69357142Y-132981547D01*
X69357142Y-132981547D02*
X69442856Y-133024404D01*
X69057142Y-133538690D02*
X69142856Y-133581547D01*
X69142856Y-133581547D02*
X69357142Y-133581547D01*
X69357142Y-133581547D02*
X69442856Y-133538690D01*
X69442856Y-133538690D02*
X69485713Y-133452975D01*
X69485713Y-133452975D02*
X69485713Y-133367261D01*
X69485713Y-133367261D02*
X69442856Y-133281547D01*
X69442856Y-133281547D02*
X69357142Y-133238690D01*
X69357142Y-133238690D02*
X69142856Y-133238690D01*
X69142856Y-133238690D02*
X69057142Y-133195832D01*
X68671427Y-133538690D02*
X68585713Y-133581547D01*
X68585713Y-133581547D02*
X68414284Y-133581547D01*
X68414284Y-133581547D02*
X68328570Y-133538690D01*
X68328570Y-133538690D02*
X68285713Y-133452975D01*
X68285713Y-133452975D02*
X68285713Y-133410118D01*
X68285713Y-133410118D02*
X68328570Y-133324404D01*
X68328570Y-133324404D02*
X68414284Y-133281547D01*
X68414284Y-133281547D02*
X68542856Y-133281547D01*
X68542856Y-133281547D02*
X68628570Y-133238690D01*
X68628570Y-133238690D02*
X68671427Y-133152975D01*
X68671427Y-133152975D02*
X68671427Y-133110118D01*
X68671427Y-133110118D02*
X68628570Y-133024404D01*
X68628570Y-133024404D02*
X68542856Y-132981547D01*
X68542856Y-132981547D02*
X68414284Y-132981547D01*
X68414284Y-132981547D02*
X68328570Y-133024404D01*
X67557142Y-133538690D02*
X67642856Y-133581547D01*
X67642856Y-133581547D02*
X67814285Y-133581547D01*
X67814285Y-133581547D02*
X67899999Y-133538690D01*
X67899999Y-133538690D02*
X67942856Y-133452975D01*
X67942856Y-133452975D02*
X67942856Y-133110118D01*
X67942856Y-133110118D02*
X67899999Y-133024404D01*
X67899999Y-133024404D02*
X67814285Y-132981547D01*
X67814285Y-132981547D02*
X67642856Y-132981547D01*
X67642856Y-132981547D02*
X67557142Y-133024404D01*
X67557142Y-133024404D02*
X67514285Y-133110118D01*
X67514285Y-133110118D02*
X67514285Y-133195832D01*
X67514285Y-133195832D02*
X67942856Y-133281547D01*
X66742856Y-133581547D02*
X66742856Y-132681547D01*
X66742856Y-133538690D02*
X66828570Y-133581547D01*
X66828570Y-133581547D02*
X66999998Y-133581547D01*
X66999998Y-133581547D02*
X67085713Y-133538690D01*
X67085713Y-133538690D02*
X67128570Y-133495832D01*
X67128570Y-133495832D02*
X67171427Y-133410118D01*
X67171427Y-133410118D02*
X67171427Y-133152975D01*
X67171427Y-133152975D02*
X67128570Y-133067261D01*
X67128570Y-133067261D02*
X67085713Y-133024404D01*
X67085713Y-133024404D02*
X66999998Y-132981547D01*
X66999998Y-132981547D02*
X66828570Y-132981547D01*
X66828570Y-132981547D02*
X66742856Y-133024404D01*
X65499998Y-133581547D02*
X65585713Y-133538690D01*
X65585713Y-133538690D02*
X65628570Y-133495832D01*
X65628570Y-133495832D02*
X65671427Y-133410118D01*
X65671427Y-133410118D02*
X65671427Y-133152975D01*
X65671427Y-133152975D02*
X65628570Y-133067261D01*
X65628570Y-133067261D02*
X65585713Y-133024404D01*
X65585713Y-133024404D02*
X65499998Y-132981547D01*
X65499998Y-132981547D02*
X65371427Y-132981547D01*
X65371427Y-132981547D02*
X65285713Y-133024404D01*
X65285713Y-133024404D02*
X65242856Y-133067261D01*
X65242856Y-133067261D02*
X65199998Y-133152975D01*
X65199998Y-133152975D02*
X65199998Y-133410118D01*
X65199998Y-133410118D02*
X65242856Y-133495832D01*
X65242856Y-133495832D02*
X65285713Y-133538690D01*
X65285713Y-133538690D02*
X65371427Y-133581547D01*
X65371427Y-133581547D02*
X65499998Y-133581547D01*
X64814284Y-132981547D02*
X64814284Y-133581547D01*
X64814284Y-133067261D02*
X64771427Y-133024404D01*
X64771427Y-133024404D02*
X64685712Y-132981547D01*
X64685712Y-132981547D02*
X64557141Y-132981547D01*
X64557141Y-132981547D02*
X64471427Y-133024404D01*
X64471427Y-133024404D02*
X64428570Y-133110118D01*
X64428570Y-133110118D02*
X64428570Y-133581547D01*
X63314284Y-133581547D02*
X63314284Y-132681547D01*
X63314284Y-132681547D02*
X63014284Y-133324404D01*
X63014284Y-133324404D02*
X62714284Y-132681547D01*
X62714284Y-132681547D02*
X62714284Y-133581547D01*
X62371427Y-132681547D02*
X61771427Y-133581547D01*
X61771427Y-132681547D02*
X62371427Y-133581547D01*
X61428570Y-133238690D02*
X60742856Y-133238690D01*
X59885712Y-133581547D02*
X60314284Y-133581547D01*
X60314284Y-133581547D02*
X60314284Y-132681547D01*
X59414284Y-132681547D02*
X59242856Y-132681547D01*
X59242856Y-132681547D02*
X59157141Y-132724404D01*
X59157141Y-132724404D02*
X59071427Y-132810118D01*
X59071427Y-132810118D02*
X59028570Y-132981547D01*
X59028570Y-132981547D02*
X59028570Y-133281547D01*
X59028570Y-133281547D02*
X59071427Y-133452975D01*
X59071427Y-133452975D02*
X59157141Y-133538690D01*
X59157141Y-133538690D02*
X59242856Y-133581547D01*
X59242856Y-133581547D02*
X59414284Y-133581547D01*
X59414284Y-133581547D02*
X59499999Y-133538690D01*
X59499999Y-133538690D02*
X59585713Y-133452975D01*
X59585713Y-133452975D02*
X59628570Y-133281547D01*
X59628570Y-133281547D02*
X59628570Y-132981547D01*
X59628570Y-132981547D02*
X59585713Y-132810118D01*
X59585713Y-132810118D02*
X59499999Y-132724404D01*
X59499999Y-132724404D02*
X59414284Y-132681547D01*
X58128570Y-133495832D02*
X58171427Y-133538690D01*
X58171427Y-133538690D02*
X58299999Y-133581547D01*
X58299999Y-133581547D02*
X58385713Y-133581547D01*
X58385713Y-133581547D02*
X58514284Y-133538690D01*
X58514284Y-133538690D02*
X58599999Y-133452975D01*
X58599999Y-133452975D02*
X58642856Y-133367261D01*
X58642856Y-133367261D02*
X58685713Y-133195832D01*
X58685713Y-133195832D02*
X58685713Y-133067261D01*
X58685713Y-133067261D02*
X58642856Y-132895832D01*
X58642856Y-132895832D02*
X58599999Y-132810118D01*
X58599999Y-132810118D02*
X58514284Y-132724404D01*
X58514284Y-132724404D02*
X58385713Y-132681547D01*
X58385713Y-132681547D02*
X58299999Y-132681547D01*
X58299999Y-132681547D02*
X58171427Y-132724404D01*
X58171427Y-132724404D02*
X58128570Y-132767261D01*
X57742856Y-133581547D02*
X57742856Y-132681547D01*
X57228570Y-133581547D02*
X57614284Y-133067261D01*
X57228570Y-132681547D02*
X57742856Y-133195832D01*
X56157142Y-133581547D02*
X56157142Y-132681547D01*
X56157142Y-133024404D02*
X56071428Y-132981547D01*
X56071428Y-132981547D02*
X55899999Y-132981547D01*
X55899999Y-132981547D02*
X55814285Y-133024404D01*
X55814285Y-133024404D02*
X55771428Y-133067261D01*
X55771428Y-133067261D02*
X55728570Y-133152975D01*
X55728570Y-133152975D02*
X55728570Y-133410118D01*
X55728570Y-133410118D02*
X55771428Y-133495832D01*
X55771428Y-133495832D02*
X55814285Y-133538690D01*
X55814285Y-133538690D02*
X55899999Y-133581547D01*
X55899999Y-133581547D02*
X56071428Y-133581547D01*
X56071428Y-133581547D02*
X56157142Y-133538690D01*
X55428570Y-132981547D02*
X55214284Y-133581547D01*
X54999999Y-132981547D02*
X55214284Y-133581547D01*
X55214284Y-133581547D02*
X55299999Y-133795832D01*
X55299999Y-133795832D02*
X55342856Y-133838690D01*
X55342856Y-133838690D02*
X55428570Y-133881547D01*
X53971428Y-133581547D02*
X53971428Y-132681547D01*
X53971428Y-132681547D02*
X53671428Y-133324404D01*
X53671428Y-133324404D02*
X53371428Y-132681547D01*
X53371428Y-132681547D02*
X53371428Y-133581547D01*
X52942857Y-133581547D02*
X52942857Y-132981547D01*
X52942857Y-132681547D02*
X52985714Y-132724404D01*
X52985714Y-132724404D02*
X52942857Y-132767261D01*
X52942857Y-132767261D02*
X52900000Y-132724404D01*
X52900000Y-132724404D02*
X52942857Y-132681547D01*
X52942857Y-132681547D02*
X52942857Y-132767261D01*
X52514286Y-133581547D02*
X52514286Y-132681547D01*
X52428572Y-133238690D02*
X52171429Y-133581547D01*
X52171429Y-132981547D02*
X52514286Y-133324404D01*
X51442858Y-133538690D02*
X51528572Y-133581547D01*
X51528572Y-133581547D02*
X51700001Y-133581547D01*
X51700001Y-133581547D02*
X51785715Y-133538690D01*
X51785715Y-133538690D02*
X51828572Y-133452975D01*
X51828572Y-133452975D02*
X51828572Y-133110118D01*
X51828572Y-133110118D02*
X51785715Y-133024404D01*
X51785715Y-133024404D02*
X51700001Y-132981547D01*
X51700001Y-132981547D02*
X51528572Y-132981547D01*
X51528572Y-132981547D02*
X51442858Y-133024404D01*
X51442858Y-133024404D02*
X51400001Y-133110118D01*
X51400001Y-133110118D02*
X51400001Y-133195832D01*
X51400001Y-133195832D02*
X51828572Y-133281547D01*
X50328572Y-133581547D02*
X50328572Y-132681547D01*
X50328572Y-132681547D02*
X49814286Y-133581547D01*
X49814286Y-133581547D02*
X49814286Y-132681547D01*
X49000001Y-133581547D02*
X49000001Y-133110118D01*
X49000001Y-133110118D02*
X49042858Y-133024404D01*
X49042858Y-133024404D02*
X49128572Y-132981547D01*
X49128572Y-132981547D02*
X49300001Y-132981547D01*
X49300001Y-132981547D02*
X49385715Y-133024404D01*
X49000001Y-133538690D02*
X49085715Y-133581547D01*
X49085715Y-133581547D02*
X49300001Y-133581547D01*
X49300001Y-133581547D02*
X49385715Y-133538690D01*
X49385715Y-133538690D02*
X49428572Y-133452975D01*
X49428572Y-133452975D02*
X49428572Y-133367261D01*
X49428572Y-133367261D02*
X49385715Y-133281547D01*
X49385715Y-133281547D02*
X49300001Y-133238690D01*
X49300001Y-133238690D02*
X49085715Y-133238690D01*
X49085715Y-133238690D02*
X49000001Y-133195832D01*
X48571429Y-133581547D02*
X48571429Y-132681547D01*
X48571429Y-133024404D02*
X48485715Y-132981547D01*
X48485715Y-132981547D02*
X48314286Y-132981547D01*
X48314286Y-132981547D02*
X48228572Y-133024404D01*
X48228572Y-133024404D02*
X48185715Y-133067261D01*
X48185715Y-133067261D02*
X48142857Y-133152975D01*
X48142857Y-133152975D02*
X48142857Y-133410118D01*
X48142857Y-133410118D02*
X48185715Y-133495832D01*
X48185715Y-133495832D02*
X48228572Y-133538690D01*
X48228572Y-133538690D02*
X48314286Y-133581547D01*
X48314286Y-133581547D02*
X48485715Y-133581547D01*
X48485715Y-133581547D02*
X48571429Y-133538690D01*
X47414286Y-133538690D02*
X47500000Y-133581547D01*
X47500000Y-133581547D02*
X47671429Y-133581547D01*
X47671429Y-133581547D02*
X47757143Y-133538690D01*
X47757143Y-133538690D02*
X47800000Y-133452975D01*
X47800000Y-133452975D02*
X47800000Y-133110118D01*
X47800000Y-133110118D02*
X47757143Y-133024404D01*
X47757143Y-133024404D02*
X47671429Y-132981547D01*
X47671429Y-132981547D02*
X47500000Y-132981547D01*
X47500000Y-132981547D02*
X47414286Y-133024404D01*
X47414286Y-133024404D02*
X47371429Y-133110118D01*
X47371429Y-133110118D02*
X47371429Y-133195832D01*
X47371429Y-133195832D02*
X47800000Y-133281547D01*
X46985714Y-133581547D02*
X46985714Y-132981547D01*
X46985714Y-133152975D02*
X46942857Y-133067261D01*
X46942857Y-133067261D02*
X46900000Y-133024404D01*
X46900000Y-133024404D02*
X46814285Y-132981547D01*
X46814285Y-132981547D02*
X46728571Y-132981547D01*
X46085714Y-133538690D02*
X46171428Y-133581547D01*
X46171428Y-133581547D02*
X46342857Y-133581547D01*
X46342857Y-133581547D02*
X46428571Y-133538690D01*
X46428571Y-133538690D02*
X46471428Y-133452975D01*
X46471428Y-133452975D02*
X46471428Y-133110118D01*
X46471428Y-133110118D02*
X46428571Y-133024404D01*
X46428571Y-133024404D02*
X46342857Y-132981547D01*
X46342857Y-132981547D02*
X46171428Y-132981547D01*
X46171428Y-132981547D02*
X46085714Y-133024404D01*
X46085714Y-133024404D02*
X46042857Y-133110118D01*
X46042857Y-133110118D02*
X46042857Y-133195832D01*
X46042857Y-133195832D02*
X46471428Y-133281547D01*
X45742856Y-132981547D02*
X45271428Y-132981547D01*
X45271428Y-132981547D02*
X45742856Y-133581547D01*
X45742856Y-133581547D02*
X45271428Y-133581547D01*
X44928571Y-132981547D02*
X44928571Y-133581547D01*
X44928571Y-133067261D02*
X44885714Y-133024404D01*
X44885714Y-133024404D02*
X44799999Y-132981547D01*
X44799999Y-132981547D02*
X44671428Y-132981547D01*
X44671428Y-132981547D02*
X44585714Y-133024404D01*
X44585714Y-133024404D02*
X44542857Y-133110118D01*
X44542857Y-133110118D02*
X44542857Y-133581547D01*
X44199999Y-132981547D02*
X43985713Y-133581547D01*
X43771428Y-132981547D02*
X43985713Y-133581547D01*
X43985713Y-133581547D02*
X44071428Y-133795832D01*
X44071428Y-133795832D02*
X44114285Y-133838690D01*
X44114285Y-133838690D02*
X44199999Y-133881547D01*
X66742858Y-134430497D02*
X66742858Y-135159068D01*
X66742858Y-135159068D02*
X66785715Y-135244782D01*
X66785715Y-135244782D02*
X66828572Y-135287640D01*
X66828572Y-135287640D02*
X66914286Y-135330497D01*
X66914286Y-135330497D02*
X67042858Y-135330497D01*
X67042858Y-135330497D02*
X67128572Y-135287640D01*
X66742858Y-134987640D02*
X66828572Y-135030497D01*
X66828572Y-135030497D02*
X67000000Y-135030497D01*
X67000000Y-135030497D02*
X67085715Y-134987640D01*
X67085715Y-134987640D02*
X67128572Y-134944782D01*
X67128572Y-134944782D02*
X67171429Y-134859068D01*
X67171429Y-134859068D02*
X67171429Y-134601925D01*
X67171429Y-134601925D02*
X67128572Y-134516211D01*
X67128572Y-134516211D02*
X67085715Y-134473354D01*
X67085715Y-134473354D02*
X67000000Y-134430497D01*
X67000000Y-134430497D02*
X66828572Y-134430497D01*
X66828572Y-134430497D02*
X66742858Y-134473354D01*
X66314286Y-135030497D02*
X66314286Y-134430497D01*
X66314286Y-134130497D02*
X66357143Y-134173354D01*
X66357143Y-134173354D02*
X66314286Y-134216211D01*
X66314286Y-134216211D02*
X66271429Y-134173354D01*
X66271429Y-134173354D02*
X66314286Y-134130497D01*
X66314286Y-134130497D02*
X66314286Y-134216211D01*
X66014286Y-134430497D02*
X65671429Y-134430497D01*
X65885715Y-134130497D02*
X65885715Y-134901925D01*
X65885715Y-134901925D02*
X65842858Y-134987640D01*
X65842858Y-134987640D02*
X65757143Y-135030497D01*
X65757143Y-135030497D02*
X65671429Y-135030497D01*
X65371429Y-135030497D02*
X65371429Y-134130497D01*
X64985715Y-135030497D02*
X64985715Y-134559068D01*
X64985715Y-134559068D02*
X65028572Y-134473354D01*
X65028572Y-134473354D02*
X65114286Y-134430497D01*
X65114286Y-134430497D02*
X65242857Y-134430497D01*
X65242857Y-134430497D02*
X65328572Y-134473354D01*
X65328572Y-134473354D02*
X65371429Y-134516211D01*
X64171429Y-134430497D02*
X64171429Y-135030497D01*
X64557143Y-134430497D02*
X64557143Y-134901925D01*
X64557143Y-134901925D02*
X64514286Y-134987640D01*
X64514286Y-134987640D02*
X64428571Y-135030497D01*
X64428571Y-135030497D02*
X64300000Y-135030497D01*
X64300000Y-135030497D02*
X64214286Y-134987640D01*
X64214286Y-134987640D02*
X64171429Y-134944782D01*
X63742857Y-135030497D02*
X63742857Y-134130497D01*
X63742857Y-134473354D02*
X63657143Y-134430497D01*
X63657143Y-134430497D02*
X63485714Y-134430497D01*
X63485714Y-134430497D02*
X63400000Y-134473354D01*
X63400000Y-134473354D02*
X63357143Y-134516211D01*
X63357143Y-134516211D02*
X63314285Y-134601925D01*
X63314285Y-134601925D02*
X63314285Y-134859068D01*
X63314285Y-134859068D02*
X63357143Y-134944782D01*
X63357143Y-134944782D02*
X63400000Y-134987640D01*
X63400000Y-134987640D02*
X63485714Y-135030497D01*
X63485714Y-135030497D02*
X63657143Y-135030497D01*
X63657143Y-135030497D02*
X63742857Y-134987640D01*
X62928571Y-134944782D02*
X62885714Y-134987640D01*
X62885714Y-134987640D02*
X62928571Y-135030497D01*
X62928571Y-135030497D02*
X62971428Y-134987640D01*
X62971428Y-134987640D02*
X62928571Y-134944782D01*
X62928571Y-134944782D02*
X62928571Y-135030497D01*
X62114286Y-134987640D02*
X62200000Y-135030497D01*
X62200000Y-135030497D02*
X62371428Y-135030497D01*
X62371428Y-135030497D02*
X62457143Y-134987640D01*
X62457143Y-134987640D02*
X62500000Y-134944782D01*
X62500000Y-134944782D02*
X62542857Y-134859068D01*
X62542857Y-134859068D02*
X62542857Y-134601925D01*
X62542857Y-134601925D02*
X62500000Y-134516211D01*
X62500000Y-134516211D02*
X62457143Y-134473354D01*
X62457143Y-134473354D02*
X62371428Y-134430497D01*
X62371428Y-134430497D02*
X62200000Y-134430497D01*
X62200000Y-134430497D02*
X62114286Y-134473354D01*
X61599999Y-135030497D02*
X61685714Y-134987640D01*
X61685714Y-134987640D02*
X61728571Y-134944782D01*
X61728571Y-134944782D02*
X61771428Y-134859068D01*
X61771428Y-134859068D02*
X61771428Y-134601925D01*
X61771428Y-134601925D02*
X61728571Y-134516211D01*
X61728571Y-134516211D02*
X61685714Y-134473354D01*
X61685714Y-134473354D02*
X61599999Y-134430497D01*
X61599999Y-134430497D02*
X61471428Y-134430497D01*
X61471428Y-134430497D02*
X61385714Y-134473354D01*
X61385714Y-134473354D02*
X61342857Y-134516211D01*
X61342857Y-134516211D02*
X61299999Y-134601925D01*
X61299999Y-134601925D02*
X61299999Y-134859068D01*
X61299999Y-134859068D02*
X61342857Y-134944782D01*
X61342857Y-134944782D02*
X61385714Y-134987640D01*
X61385714Y-134987640D02*
X61471428Y-135030497D01*
X61471428Y-135030497D02*
X61599999Y-135030497D01*
X60914285Y-135030497D02*
X60914285Y-134430497D01*
X60914285Y-134516211D02*
X60871428Y-134473354D01*
X60871428Y-134473354D02*
X60785713Y-134430497D01*
X60785713Y-134430497D02*
X60657142Y-134430497D01*
X60657142Y-134430497D02*
X60571428Y-134473354D01*
X60571428Y-134473354D02*
X60528571Y-134559068D01*
X60528571Y-134559068D02*
X60528571Y-135030497D01*
X60528571Y-134559068D02*
X60485713Y-134473354D01*
X60485713Y-134473354D02*
X60399999Y-134430497D01*
X60399999Y-134430497D02*
X60271428Y-134430497D01*
X60271428Y-134430497D02*
X60185713Y-134473354D01*
X60185713Y-134473354D02*
X60142856Y-134559068D01*
X60142856Y-134559068D02*
X60142856Y-135030497D01*
X59071428Y-134087640D02*
X59842856Y-135244782D01*
X58771428Y-135030497D02*
X58771428Y-134430497D01*
X58771428Y-134516211D02*
X58728571Y-134473354D01*
X58728571Y-134473354D02*
X58642856Y-134430497D01*
X58642856Y-134430497D02*
X58514285Y-134430497D01*
X58514285Y-134430497D02*
X58428571Y-134473354D01*
X58428571Y-134473354D02*
X58385714Y-134559068D01*
X58385714Y-134559068D02*
X58385714Y-135030497D01*
X58385714Y-134559068D02*
X58342856Y-134473354D01*
X58342856Y-134473354D02*
X58257142Y-134430497D01*
X58257142Y-134430497D02*
X58128571Y-134430497D01*
X58128571Y-134430497D02*
X58042856Y-134473354D01*
X58042856Y-134473354D02*
X57999999Y-134559068D01*
X57999999Y-134559068D02*
X57999999Y-135030497D01*
X57571428Y-134430497D02*
X57571428Y-135030497D01*
X57571428Y-134516211D02*
X57528571Y-134473354D01*
X57528571Y-134473354D02*
X57442856Y-134430497D01*
X57442856Y-134430497D02*
X57314285Y-134430497D01*
X57314285Y-134430497D02*
X57228571Y-134473354D01*
X57228571Y-134473354D02*
X57185714Y-134559068D01*
X57185714Y-134559068D02*
X57185714Y-135030497D01*
X56371428Y-135030497D02*
X56371428Y-134559068D01*
X56371428Y-134559068D02*
X56414285Y-134473354D01*
X56414285Y-134473354D02*
X56499999Y-134430497D01*
X56499999Y-134430497D02*
X56671428Y-134430497D01*
X56671428Y-134430497D02*
X56757142Y-134473354D01*
X56371428Y-134987640D02*
X56457142Y-135030497D01*
X56457142Y-135030497D02*
X56671428Y-135030497D01*
X56671428Y-135030497D02*
X56757142Y-134987640D01*
X56757142Y-134987640D02*
X56799999Y-134901925D01*
X56799999Y-134901925D02*
X56799999Y-134816211D01*
X56799999Y-134816211D02*
X56757142Y-134730497D01*
X56757142Y-134730497D02*
X56671428Y-134687640D01*
X56671428Y-134687640D02*
X56457142Y-134687640D01*
X56457142Y-134687640D02*
X56371428Y-134644782D01*
X55942856Y-135030497D02*
X55942856Y-134130497D01*
X55942856Y-134473354D02*
X55857142Y-134430497D01*
X55857142Y-134430497D02*
X55685713Y-134430497D01*
X55685713Y-134430497D02*
X55599999Y-134473354D01*
X55599999Y-134473354D02*
X55557142Y-134516211D01*
X55557142Y-134516211D02*
X55514284Y-134601925D01*
X55514284Y-134601925D02*
X55514284Y-134859068D01*
X55514284Y-134859068D02*
X55557142Y-134944782D01*
X55557142Y-134944782D02*
X55599999Y-134987640D01*
X55599999Y-134987640D02*
X55685713Y-135030497D01*
X55685713Y-135030497D02*
X55857142Y-135030497D01*
X55857142Y-135030497D02*
X55942856Y-134987640D01*
X54785713Y-134987640D02*
X54871427Y-135030497D01*
X54871427Y-135030497D02*
X55042856Y-135030497D01*
X55042856Y-135030497D02*
X55128570Y-134987640D01*
X55128570Y-134987640D02*
X55171427Y-134901925D01*
X55171427Y-134901925D02*
X55171427Y-134559068D01*
X55171427Y-134559068D02*
X55128570Y-134473354D01*
X55128570Y-134473354D02*
X55042856Y-134430497D01*
X55042856Y-134430497D02*
X54871427Y-134430497D01*
X54871427Y-134430497D02*
X54785713Y-134473354D01*
X54785713Y-134473354D02*
X54742856Y-134559068D01*
X54742856Y-134559068D02*
X54742856Y-134644782D01*
X54742856Y-134644782D02*
X55171427Y-134730497D01*
X54357141Y-135030497D02*
X54357141Y-134430497D01*
X54357141Y-134601925D02*
X54314284Y-134516211D01*
X54314284Y-134516211D02*
X54271427Y-134473354D01*
X54271427Y-134473354D02*
X54185712Y-134430497D01*
X54185712Y-134430497D02*
X54099998Y-134430497D01*
X53457141Y-134987640D02*
X53542855Y-135030497D01*
X53542855Y-135030497D02*
X53714284Y-135030497D01*
X53714284Y-135030497D02*
X53799998Y-134987640D01*
X53799998Y-134987640D02*
X53842855Y-134901925D01*
X53842855Y-134901925D02*
X53842855Y-134559068D01*
X53842855Y-134559068D02*
X53799998Y-134473354D01*
X53799998Y-134473354D02*
X53714284Y-134430497D01*
X53714284Y-134430497D02*
X53542855Y-134430497D01*
X53542855Y-134430497D02*
X53457141Y-134473354D01*
X53457141Y-134473354D02*
X53414284Y-134559068D01*
X53414284Y-134559068D02*
X53414284Y-134644782D01*
X53414284Y-134644782D02*
X53842855Y-134730497D01*
X53114283Y-134430497D02*
X52642855Y-134430497D01*
X52642855Y-134430497D02*
X53114283Y-135030497D01*
X53114283Y-135030497D02*
X52642855Y-135030497D01*
X51657141Y-134087640D02*
X52428569Y-135244782D01*
X51357141Y-135030497D02*
X51357141Y-134430497D01*
X51357141Y-134516211D02*
X51314284Y-134473354D01*
X51314284Y-134473354D02*
X51228569Y-134430497D01*
X51228569Y-134430497D02*
X51099998Y-134430497D01*
X51099998Y-134430497D02*
X51014284Y-134473354D01*
X51014284Y-134473354D02*
X50971427Y-134559068D01*
X50971427Y-134559068D02*
X50971427Y-135030497D01*
X50971427Y-134559068D02*
X50928569Y-134473354D01*
X50928569Y-134473354D02*
X50842855Y-134430497D01*
X50842855Y-134430497D02*
X50714284Y-134430497D01*
X50714284Y-134430497D02*
X50628569Y-134473354D01*
X50628569Y-134473354D02*
X50585712Y-134559068D01*
X50585712Y-134559068D02*
X50585712Y-135030497D01*
X50242855Y-135030497D02*
X49771427Y-134430497D01*
X50242855Y-134430497D02*
X49771427Y-135030497D01*
X49299998Y-135030497D02*
X49385713Y-134987640D01*
X49385713Y-134987640D02*
X49428570Y-134901925D01*
X49428570Y-134901925D02*
X49428570Y-134130497D01*
X48828569Y-135030497D02*
X48914284Y-134987640D01*
X48914284Y-134987640D02*
X48957141Y-134944782D01*
X48957141Y-134944782D02*
X48999998Y-134859068D01*
X48999998Y-134859068D02*
X48999998Y-134601925D01*
X48999998Y-134601925D02*
X48957141Y-134516211D01*
X48957141Y-134516211D02*
X48914284Y-134473354D01*
X48914284Y-134473354D02*
X48828569Y-134430497D01*
X48828569Y-134430497D02*
X48699998Y-134430497D01*
X48699998Y-134430497D02*
X48614284Y-134473354D01*
X48614284Y-134473354D02*
X48571427Y-134516211D01*
X48571427Y-134516211D02*
X48528569Y-134601925D01*
X48528569Y-134601925D02*
X48528569Y-134859068D01*
X48528569Y-134859068D02*
X48571427Y-134944782D01*
X48571427Y-134944782D02*
X48614284Y-134987640D01*
X48614284Y-134987640D02*
X48699998Y-135030497D01*
X48699998Y-135030497D02*
X48828569Y-135030497D01*
X47757141Y-134987640D02*
X47842855Y-135030497D01*
X47842855Y-135030497D02*
X48014283Y-135030497D01*
X48014283Y-135030497D02*
X48099998Y-134987640D01*
X48099998Y-134987640D02*
X48142855Y-134944782D01*
X48142855Y-134944782D02*
X48185712Y-134859068D01*
X48185712Y-134859068D02*
X48185712Y-134601925D01*
X48185712Y-134601925D02*
X48142855Y-134516211D01*
X48142855Y-134516211D02*
X48099998Y-134473354D01*
X48099998Y-134473354D02*
X48014283Y-134430497D01*
X48014283Y-134430497D02*
X47842855Y-134430497D01*
X47842855Y-134430497D02*
X47757141Y-134473354D01*
X47371426Y-135030497D02*
X47371426Y-134130497D01*
X47285712Y-134687640D02*
X47028569Y-135030497D01*
X47028569Y-134430497D02*
X47371426Y-134773354D01*
D11*
X59790475Y-125997331D02*
X59790475Y-124997331D01*
X59790475Y-124997331D02*
X59457142Y-125711616D01*
X59457142Y-125711616D02*
X59123809Y-124997331D01*
X59123809Y-124997331D02*
X59123809Y-125997331D01*
X58742856Y-124997331D02*
X58076190Y-125997331D01*
X58076190Y-124997331D02*
X58742856Y-125997331D01*
X57695237Y-125616378D02*
X56933333Y-125616378D01*
X56599999Y-124997331D02*
X56028571Y-124997331D01*
X56314285Y-125997331D02*
X56314285Y-124997331D01*
X55504761Y-124997331D02*
X55314285Y-124997331D01*
X55314285Y-124997331D02*
X55219047Y-125044950D01*
X55219047Y-125044950D02*
X55123809Y-125140188D01*
X55123809Y-125140188D02*
X55076190Y-125330664D01*
X55076190Y-125330664D02*
X55076190Y-125663997D01*
X55076190Y-125663997D02*
X55123809Y-125854473D01*
X55123809Y-125854473D02*
X55219047Y-125949712D01*
X55219047Y-125949712D02*
X55314285Y-125997331D01*
X55314285Y-125997331D02*
X55504761Y-125997331D01*
X55504761Y-125997331D02*
X55599999Y-125949712D01*
X55599999Y-125949712D02*
X55695237Y-125854473D01*
X55695237Y-125854473D02*
X55742856Y-125663997D01*
X55742856Y-125663997D02*
X55742856Y-125330664D01*
X55742856Y-125330664D02*
X55695237Y-125140188D01*
X55695237Y-125140188D02*
X55599999Y-125044950D01*
X55599999Y-125044950D02*
X55504761Y-124997331D01*
X54123809Y-125044950D02*
X54219047Y-124997331D01*
X54219047Y-124997331D02*
X54361904Y-124997331D01*
X54361904Y-124997331D02*
X54504761Y-125044950D01*
X54504761Y-125044950D02*
X54599999Y-125140188D01*
X54599999Y-125140188D02*
X54647618Y-125235426D01*
X54647618Y-125235426D02*
X54695237Y-125425902D01*
X54695237Y-125425902D02*
X54695237Y-125568759D01*
X54695237Y-125568759D02*
X54647618Y-125759235D01*
X54647618Y-125759235D02*
X54599999Y-125854473D01*
X54599999Y-125854473D02*
X54504761Y-125949712D01*
X54504761Y-125949712D02*
X54361904Y-125997331D01*
X54361904Y-125997331D02*
X54266666Y-125997331D01*
X54266666Y-125997331D02*
X54123809Y-125949712D01*
X54123809Y-125949712D02*
X54076190Y-125902092D01*
X54076190Y-125902092D02*
X54076190Y-125568759D01*
X54076190Y-125568759D02*
X54266666Y-125568759D01*
X53123809Y-125044950D02*
X53219047Y-124997331D01*
X53219047Y-124997331D02*
X53361904Y-124997331D01*
X53361904Y-124997331D02*
X53504761Y-125044950D01*
X53504761Y-125044950D02*
X53599999Y-125140188D01*
X53599999Y-125140188D02*
X53647618Y-125235426D01*
X53647618Y-125235426D02*
X53695237Y-125425902D01*
X53695237Y-125425902D02*
X53695237Y-125568759D01*
X53695237Y-125568759D02*
X53647618Y-125759235D01*
X53647618Y-125759235D02*
X53599999Y-125854473D01*
X53599999Y-125854473D02*
X53504761Y-125949712D01*
X53504761Y-125949712D02*
X53361904Y-125997331D01*
X53361904Y-125997331D02*
X53266666Y-125997331D01*
X53266666Y-125997331D02*
X53123809Y-125949712D01*
X53123809Y-125949712D02*
X53076190Y-125902092D01*
X53076190Y-125902092D02*
X53076190Y-125568759D01*
X53076190Y-125568759D02*
X53266666Y-125568759D01*
X52171428Y-125997331D02*
X52647618Y-125997331D01*
X52647618Y-125997331D02*
X52647618Y-124997331D01*
X51838094Y-125473521D02*
X51504761Y-125473521D01*
X51361904Y-125997331D02*
X51838094Y-125997331D01*
X51838094Y-125997331D02*
X51838094Y-124997331D01*
X51838094Y-124997331D02*
X51361904Y-124997331D01*
X61266667Y-127988227D02*
X61314286Y-127940608D01*
X61314286Y-127940608D02*
X61409524Y-127797751D01*
X61409524Y-127797751D02*
X61457143Y-127702513D01*
X61457143Y-127702513D02*
X61504762Y-127559656D01*
X61504762Y-127559656D02*
X61552381Y-127321560D01*
X61552381Y-127321560D02*
X61552381Y-127131084D01*
X61552381Y-127131084D02*
X61504762Y-126892989D01*
X61504762Y-126892989D02*
X61457143Y-126750132D01*
X61457143Y-126750132D02*
X61409524Y-126654894D01*
X61409524Y-126654894D02*
X61314286Y-126512036D01*
X61314286Y-126512036D02*
X61266667Y-126464417D01*
X60314286Y-127512036D02*
X60361905Y-127559656D01*
X60361905Y-127559656D02*
X60504762Y-127607275D01*
X60504762Y-127607275D02*
X60600000Y-127607275D01*
X60600000Y-127607275D02*
X60742857Y-127559656D01*
X60742857Y-127559656D02*
X60838095Y-127464417D01*
X60838095Y-127464417D02*
X60885714Y-127369179D01*
X60885714Y-127369179D02*
X60933333Y-127178703D01*
X60933333Y-127178703D02*
X60933333Y-127035846D01*
X60933333Y-127035846D02*
X60885714Y-126845370D01*
X60885714Y-126845370D02*
X60838095Y-126750132D01*
X60838095Y-126750132D02*
X60742857Y-126654894D01*
X60742857Y-126654894D02*
X60600000Y-126607275D01*
X60600000Y-126607275D02*
X60504762Y-126607275D01*
X60504762Y-126607275D02*
X60361905Y-126654894D01*
X60361905Y-126654894D02*
X60314286Y-126702513D01*
X59980952Y-127988227D02*
X59933333Y-127940608D01*
X59933333Y-127940608D02*
X59838095Y-127797751D01*
X59838095Y-127797751D02*
X59790476Y-127702513D01*
X59790476Y-127702513D02*
X59742857Y-127559656D01*
X59742857Y-127559656D02*
X59695238Y-127321560D01*
X59695238Y-127321560D02*
X59695238Y-127131084D01*
X59695238Y-127131084D02*
X59742857Y-126892989D01*
X59742857Y-126892989D02*
X59790476Y-126750132D01*
X59790476Y-126750132D02*
X59838095Y-126654894D01*
X59838095Y-126654894D02*
X59933333Y-126512036D01*
X59933333Y-126512036D02*
X59980952Y-126464417D01*
X59266666Y-127559656D02*
X59123809Y-127607275D01*
X59123809Y-127607275D02*
X58885714Y-127607275D01*
X58885714Y-127607275D02*
X58790476Y-127559656D01*
X58790476Y-127559656D02*
X58742857Y-127512036D01*
X58742857Y-127512036D02*
X58695238Y-127416798D01*
X58695238Y-127416798D02*
X58695238Y-127321560D01*
X58695238Y-127321560D02*
X58742857Y-127226322D01*
X58742857Y-127226322D02*
X58790476Y-127178703D01*
X58790476Y-127178703D02*
X58885714Y-127131084D01*
X58885714Y-127131084D02*
X59076190Y-127083465D01*
X59076190Y-127083465D02*
X59171428Y-127035846D01*
X59171428Y-127035846D02*
X59219047Y-126988227D01*
X59219047Y-126988227D02*
X59266666Y-126892989D01*
X59266666Y-126892989D02*
X59266666Y-126797751D01*
X59266666Y-126797751D02*
X59219047Y-126702513D01*
X59219047Y-126702513D02*
X59171428Y-126654894D01*
X59171428Y-126654894D02*
X59076190Y-126607275D01*
X59076190Y-126607275D02*
X58838095Y-126607275D01*
X58838095Y-126607275D02*
X58695238Y-126654894D01*
X58409523Y-126940608D02*
X58028571Y-126940608D01*
X58266666Y-126607275D02*
X58266666Y-127464417D01*
X58266666Y-127464417D02*
X58219047Y-127559656D01*
X58219047Y-127559656D02*
X58123809Y-127607275D01*
X58123809Y-127607275D02*
X58028571Y-127607275D01*
X57314285Y-127559656D02*
X57409523Y-127607275D01*
X57409523Y-127607275D02*
X57599999Y-127607275D01*
X57599999Y-127607275D02*
X57695237Y-127559656D01*
X57695237Y-127559656D02*
X57742856Y-127464417D01*
X57742856Y-127464417D02*
X57742856Y-127083465D01*
X57742856Y-127083465D02*
X57695237Y-126988227D01*
X57695237Y-126988227D02*
X57599999Y-126940608D01*
X57599999Y-126940608D02*
X57409523Y-126940608D01*
X57409523Y-126940608D02*
X57314285Y-126988227D01*
X57314285Y-126988227D02*
X57266666Y-127083465D01*
X57266666Y-127083465D02*
X57266666Y-127178703D01*
X57266666Y-127178703D02*
X57742856Y-127273941D01*
X56933332Y-126940608D02*
X56695237Y-127607275D01*
X56695237Y-127607275D02*
X56457142Y-126940608D01*
X55695237Y-127559656D02*
X55790475Y-127607275D01*
X55790475Y-127607275D02*
X55980951Y-127607275D01*
X55980951Y-127607275D02*
X56076189Y-127559656D01*
X56076189Y-127559656D02*
X56123808Y-127464417D01*
X56123808Y-127464417D02*
X56123808Y-127083465D01*
X56123808Y-127083465D02*
X56076189Y-126988227D01*
X56076189Y-126988227D02*
X55980951Y-126940608D01*
X55980951Y-126940608D02*
X55790475Y-126940608D01*
X55790475Y-126940608D02*
X55695237Y-126988227D01*
X55695237Y-126988227D02*
X55647618Y-127083465D01*
X55647618Y-127083465D02*
X55647618Y-127178703D01*
X55647618Y-127178703D02*
X56123808Y-127273941D01*
X54171427Y-126607275D02*
X54171427Y-127321560D01*
X54171427Y-127321560D02*
X54219046Y-127464417D01*
X54219046Y-127464417D02*
X54314284Y-127559656D01*
X54314284Y-127559656D02*
X54457141Y-127607275D01*
X54457141Y-127607275D02*
X54552379Y-127607275D01*
X53695236Y-127512036D02*
X53647617Y-127559656D01*
X53647617Y-127559656D02*
X53695236Y-127607275D01*
X53695236Y-127607275D02*
X53742855Y-127559656D01*
X53742855Y-127559656D02*
X53695236Y-127512036D01*
X53695236Y-127512036D02*
X53695236Y-127607275D01*
X51933332Y-126654894D02*
X52028570Y-126607275D01*
X52028570Y-126607275D02*
X52171427Y-126607275D01*
X52171427Y-126607275D02*
X52314284Y-126654894D01*
X52314284Y-126654894D02*
X52409522Y-126750132D01*
X52409522Y-126750132D02*
X52457141Y-126845370D01*
X52457141Y-126845370D02*
X52504760Y-127035846D01*
X52504760Y-127035846D02*
X52504760Y-127178703D01*
X52504760Y-127178703D02*
X52457141Y-127369179D01*
X52457141Y-127369179D02*
X52409522Y-127464417D01*
X52409522Y-127464417D02*
X52314284Y-127559656D01*
X52314284Y-127559656D02*
X52171427Y-127607275D01*
X52171427Y-127607275D02*
X52076189Y-127607275D01*
X52076189Y-127607275D02*
X51933332Y-127559656D01*
X51933332Y-127559656D02*
X51885713Y-127512036D01*
X51885713Y-127512036D02*
X51885713Y-127178703D01*
X51885713Y-127178703D02*
X52076189Y-127178703D01*
X51457141Y-127607275D02*
X51457141Y-126940608D01*
X51457141Y-127131084D02*
X51409522Y-127035846D01*
X51409522Y-127035846D02*
X51361903Y-126988227D01*
X51361903Y-126988227D02*
X51266665Y-126940608D01*
X51266665Y-126940608D02*
X51171427Y-126940608D01*
X50409522Y-127607275D02*
X50409522Y-127083465D01*
X50409522Y-127083465D02*
X50457141Y-126988227D01*
X50457141Y-126988227D02*
X50552379Y-126940608D01*
X50552379Y-126940608D02*
X50742855Y-126940608D01*
X50742855Y-126940608D02*
X50838093Y-126988227D01*
X50409522Y-127559656D02*
X50504760Y-127607275D01*
X50504760Y-127607275D02*
X50742855Y-127607275D01*
X50742855Y-127607275D02*
X50838093Y-127559656D01*
X50838093Y-127559656D02*
X50885712Y-127464417D01*
X50885712Y-127464417D02*
X50885712Y-127369179D01*
X50885712Y-127369179D02*
X50838093Y-127273941D01*
X50838093Y-127273941D02*
X50742855Y-127226322D01*
X50742855Y-127226322D02*
X50504760Y-127226322D01*
X50504760Y-127226322D02*
X50409522Y-127178703D01*
X50028569Y-126940608D02*
X49790474Y-127607275D01*
X49552379Y-126940608D02*
X49790474Y-127607275D01*
X49790474Y-127607275D02*
X49885712Y-127845370D01*
X49885712Y-127845370D02*
X49933331Y-127892989D01*
X49933331Y-127892989D02*
X50028569Y-127940608D01*
X62933332Y-128217219D02*
X62599999Y-129217219D01*
X62599999Y-129217219D02*
X62266666Y-128217219D01*
X61409523Y-129217219D02*
X61980951Y-129217219D01*
X61695237Y-129217219D02*
X61695237Y-128217219D01*
X61695237Y-128217219D02*
X61790475Y-128360076D01*
X61790475Y-128360076D02*
X61885713Y-128455314D01*
X61885713Y-128455314D02*
X61980951Y-128502933D01*
X60980951Y-129121980D02*
X60933332Y-129169600D01*
X60933332Y-129169600D02*
X60980951Y-129217219D01*
X60980951Y-129217219D02*
X61028570Y-129169600D01*
X61028570Y-129169600D02*
X60980951Y-129121980D01*
X60980951Y-129121980D02*
X60980951Y-129217219D01*
X60314285Y-128217219D02*
X60219047Y-128217219D01*
X60219047Y-128217219D02*
X60123809Y-128264838D01*
X60123809Y-128264838D02*
X60076190Y-128312457D01*
X60076190Y-128312457D02*
X60028571Y-128407695D01*
X60028571Y-128407695D02*
X59980952Y-128598171D01*
X59980952Y-128598171D02*
X59980952Y-128836266D01*
X59980952Y-128836266D02*
X60028571Y-129026742D01*
X60028571Y-129026742D02*
X60076190Y-129121980D01*
X60076190Y-129121980D02*
X60123809Y-129169600D01*
X60123809Y-129169600D02*
X60219047Y-129217219D01*
X60219047Y-129217219D02*
X60314285Y-129217219D01*
X60314285Y-129217219D02*
X60409523Y-129169600D01*
X60409523Y-129169600D02*
X60457142Y-129121980D01*
X60457142Y-129121980D02*
X60504761Y-129026742D01*
X60504761Y-129026742D02*
X60552380Y-128836266D01*
X60552380Y-128836266D02*
X60552380Y-128598171D01*
X60552380Y-128598171D02*
X60504761Y-128407695D01*
X60504761Y-128407695D02*
X60457142Y-128312457D01*
X60457142Y-128312457D02*
X60409523Y-128264838D01*
X60409523Y-128264838D02*
X60314285Y-128217219D01*
X58076189Y-128312457D02*
X58028570Y-128264838D01*
X58028570Y-128264838D02*
X57933332Y-128217219D01*
X57933332Y-128217219D02*
X57695237Y-128217219D01*
X57695237Y-128217219D02*
X57599999Y-128264838D01*
X57599999Y-128264838D02*
X57552380Y-128312457D01*
X57552380Y-128312457D02*
X57504761Y-128407695D01*
X57504761Y-128407695D02*
X57504761Y-128502933D01*
X57504761Y-128502933D02*
X57552380Y-128645790D01*
X57552380Y-128645790D02*
X58123808Y-129217219D01*
X58123808Y-129217219D02*
X57504761Y-129217219D01*
X56885713Y-128217219D02*
X56790475Y-128217219D01*
X56790475Y-128217219D02*
X56695237Y-128264838D01*
X56695237Y-128264838D02*
X56647618Y-128312457D01*
X56647618Y-128312457D02*
X56599999Y-128407695D01*
X56599999Y-128407695D02*
X56552380Y-128598171D01*
X56552380Y-128598171D02*
X56552380Y-128836266D01*
X56552380Y-128836266D02*
X56599999Y-129026742D01*
X56599999Y-129026742D02*
X56647618Y-129121980D01*
X56647618Y-129121980D02*
X56695237Y-129169600D01*
X56695237Y-129169600D02*
X56790475Y-129217219D01*
X56790475Y-129217219D02*
X56885713Y-129217219D01*
X56885713Y-129217219D02*
X56980951Y-129169600D01*
X56980951Y-129169600D02*
X57028570Y-129121980D01*
X57028570Y-129121980D02*
X57076189Y-129026742D01*
X57076189Y-129026742D02*
X57123808Y-128836266D01*
X57123808Y-128836266D02*
X57123808Y-128598171D01*
X57123808Y-128598171D02*
X57076189Y-128407695D01*
X57076189Y-128407695D02*
X57028570Y-128312457D01*
X57028570Y-128312457D02*
X56980951Y-128264838D01*
X56980951Y-128264838D02*
X56885713Y-128217219D01*
X56171427Y-128312457D02*
X56123808Y-128264838D01*
X56123808Y-128264838D02*
X56028570Y-128217219D01*
X56028570Y-128217219D02*
X55790475Y-128217219D01*
X55790475Y-128217219D02*
X55695237Y-128264838D01*
X55695237Y-128264838D02*
X55647618Y-128312457D01*
X55647618Y-128312457D02*
X55599999Y-128407695D01*
X55599999Y-128407695D02*
X55599999Y-128502933D01*
X55599999Y-128502933D02*
X55647618Y-128645790D01*
X55647618Y-128645790D02*
X56219046Y-129217219D01*
X56219046Y-129217219D02*
X55599999Y-129217219D01*
X54695237Y-128217219D02*
X55171427Y-128217219D01*
X55171427Y-128217219D02*
X55219046Y-128693409D01*
X55219046Y-128693409D02*
X55171427Y-128645790D01*
X55171427Y-128645790D02*
X55076189Y-128598171D01*
X55076189Y-128598171D02*
X54838094Y-128598171D01*
X54838094Y-128598171D02*
X54742856Y-128645790D01*
X54742856Y-128645790D02*
X54695237Y-128693409D01*
X54695237Y-128693409D02*
X54647618Y-128788647D01*
X54647618Y-128788647D02*
X54647618Y-129026742D01*
X54647618Y-129026742D02*
X54695237Y-129121980D01*
X54695237Y-129121980D02*
X54742856Y-129169600D01*
X54742856Y-129169600D02*
X54838094Y-129217219D01*
X54838094Y-129217219D02*
X55076189Y-129217219D01*
X55076189Y-129217219D02*
X55171427Y-129169600D01*
X55171427Y-129169600D02*
X55219046Y-129121980D01*
X54219046Y-128836266D02*
X53457142Y-128836266D01*
X52457142Y-129217219D02*
X53028570Y-129217219D01*
X52742856Y-129217219D02*
X52742856Y-128217219D01*
X52742856Y-128217219D02*
X52838094Y-128360076D01*
X52838094Y-128360076D02*
X52933332Y-128455314D01*
X52933332Y-128455314D02*
X53028570Y-128502933D01*
X52076189Y-128312457D02*
X52028570Y-128264838D01*
X52028570Y-128264838D02*
X51933332Y-128217219D01*
X51933332Y-128217219D02*
X51695237Y-128217219D01*
X51695237Y-128217219D02*
X51599999Y-128264838D01*
X51599999Y-128264838D02*
X51552380Y-128312457D01*
X51552380Y-128312457D02*
X51504761Y-128407695D01*
X51504761Y-128407695D02*
X51504761Y-128502933D01*
X51504761Y-128502933D02*
X51552380Y-128645790D01*
X51552380Y-128645790D02*
X52123808Y-129217219D01*
X52123808Y-129217219D02*
X51504761Y-129217219D01*
X51076189Y-128836266D02*
X50314285Y-128836266D01*
X49647618Y-128217219D02*
X49552380Y-128217219D01*
X49552380Y-128217219D02*
X49457142Y-128264838D01*
X49457142Y-128264838D02*
X49409523Y-128312457D01*
X49409523Y-128312457D02*
X49361904Y-128407695D01*
X49361904Y-128407695D02*
X49314285Y-128598171D01*
X49314285Y-128598171D02*
X49314285Y-128836266D01*
X49314285Y-128836266D02*
X49361904Y-129026742D01*
X49361904Y-129026742D02*
X49409523Y-129121980D01*
X49409523Y-129121980D02*
X49457142Y-129169600D01*
X49457142Y-129169600D02*
X49552380Y-129217219D01*
X49552380Y-129217219D02*
X49647618Y-129217219D01*
X49647618Y-129217219D02*
X49742856Y-129169600D01*
X49742856Y-129169600D02*
X49790475Y-129121980D01*
X49790475Y-129121980D02*
X49838094Y-129026742D01*
X49838094Y-129026742D02*
X49885713Y-128836266D01*
X49885713Y-128836266D02*
X49885713Y-128598171D01*
X49885713Y-128598171D02*
X49838094Y-128407695D01*
X49838094Y-128407695D02*
X49790475Y-128312457D01*
X49790475Y-128312457D02*
X49742856Y-128264838D01*
X49742856Y-128264838D02*
X49647618Y-128217219D01*
X48457142Y-128550552D02*
X48457142Y-129217219D01*
X48695237Y-128169600D02*
X48933332Y-128883885D01*
X48933332Y-128883885D02*
X48314285Y-128883885D01*
D14*
X70994400Y-139090400D02*
G75*
G02*
X67994400Y-139090400I-1500000J0D01*
G01*
X67994400Y-139090400D02*
G75*
G02*
X70994400Y-139090400I1500000J0D01*
G01*
D15*
X45161200Y-141387600D02*
G75*
G02*
X42773600Y-139000000I0J2387600D01*
G01*
D14*
X70892800Y-121869200D02*
G75*
G02*
X67892800Y-121869200I-1500000J0D01*
G01*
X67892800Y-121869200D02*
G75*
G02*
X70892800Y-121869200I1500000J0D01*
G01*
D15*
X45161200Y-141387600D02*
X69342132Y-141387600D01*
X42773600Y-122000000D02*
G75*
G02*
X45161200Y-119612400I2387600J0D01*
G01*
X42773600Y-122000000D02*
X42773600Y-139000000D01*
D14*
X46661200Y-139090400D02*
G75*
G02*
X43661200Y-139090400I-1500000J0D01*
G01*
X43661200Y-139090400D02*
G75*
G02*
X46661200Y-139090400I1500000J0D01*
G01*
D15*
X71729732Y-122000000D02*
X71729732Y-139000000D01*
X69342132Y-119612400D02*
G75*
G02*
X71729700Y-122000000I-32J-2387600D01*
G01*
X71729732Y-139000000D02*
G75*
G02*
X69342132Y-141387632I-2387632J0D01*
G01*
D14*
X46661200Y-121869200D02*
G75*
G02*
X43661200Y-121869200I-1500000J0D01*
G01*
X43661200Y-121869200D02*
G75*
G02*
X46661200Y-121869200I1500000J0D01*
G01*
D15*
X45161200Y-119612400D02*
X69342132Y-119612400D01*
M02*
