M48
; DRILL file {KiCad 9.0.4} date 2025-12-04T22:52:44-0500
; FORMAT={-:-/ absolute / inch / decimal}
; #@! TF.CreationDate,2025-12-04T22:52:44-05:00
; #@! TF.GenerationSoftware,Kicad,Pcbnew,9.0.4
; #@! TF.FileFunction,Plated,1,2,PTH
FMAT,2
INCH
; #@! TA.AperFunction,Plated,PTH,ViaDrill
T1C0.0157
; #@! TA.AperFunction,Plated,PTH,ComponentDrill
T2C0.0394
%
G90
G05
T1
X1.822Y-4.906
X1.9934Y-4.874
X1.9934Y-4.922
X2.026Y-4.798
X2.106Y-4.754
X2.2126Y-5.3406
X2.2618Y-5.3366
X2.3248Y-5.2146
X2.3366Y-5.1122
X2.384Y-5.004
X2.448Y-4.798
X2.5335Y-5.2815
X2.561Y-4.9705
X2.5646Y-5.1988
T2
X1.9043Y-5.502
X2.0043Y-5.502
X2.1043Y-5.502
X2.2043Y-5.502
X2.3043Y-5.502
X2.4043Y-5.502
X2.5043Y-5.502
X2.6043Y-5.502
X2.654Y-4.91
X2.654Y-5.01
X2.654Y-5.11
M30
