G04 #@! TF.GenerationSoftware,KiCad,Pcbnew,9.0.4*
G04 #@! TF.CreationDate,2025-12-04T22:52:47-05:00*
G04 #@! TF.ProjectId,mxtoggle,6d78746f-6767-46c6-952e-6b696361645f,B-V2-R1*
G04 #@! TF.SameCoordinates,Original*
G04 #@! TF.FileFunction,Copper,L1,Top*
G04 #@! TF.FilePolarity,Positive*
%FSLAX46Y46*%
G04 Gerber Fmt 4.6, Leading zero omitted, Abs format (unit mm)*
G04 Created by KiCad (PCBNEW 9.0.4) date 2025-12-04 22:52:47*
%MOMM*%
%LPD*%
G01*
G04 APERTURE LIST*
G04 Aperture macros list*
%AMRoundRect*
0 Rectangle with rounded corners*
0 $1 Rounding radius*
0 $2 $3 $4 $5 $6 $7 $8 $9 X,Y pos of 4 corners*
0 Add a 4 corners polygon primitive as box body*
4,1,4,$2,$3,$4,$5,$6,$7,$8,$9,$2,$3,0*
0 Add four circle primitives for the rounded corners*
1,1,$1+$1,$2,$3*
1,1,$1+$1,$4,$5*
1,1,$1+$1,$6,$7*
1,1,$1+$1,$8,$9*
0 Add four rect primitives between the rounded corners*
20,1,$1+$1,$2,$3,$4,$5,0*
20,1,$1+$1,$4,$5,$6,$7,0*
20,1,$1+$1,$6,$7,$8,$9,0*
20,1,$1+$1,$8,$9,$2,$3,0*%
G04 Aperture macros list end*
G04 #@! TA.AperFunction,ComponentPad*
%ADD10R,1.700000X1.700000*%
G04 #@! TD*
G04 #@! TA.AperFunction,ComponentPad*
%ADD11C,1.700000*%
G04 #@! TD*
G04 #@! TA.AperFunction,SMDPad,CuDef*
%ADD12RoundRect,0.250000X-0.337500X-0.475000X0.337500X-0.475000X0.337500X0.475000X-0.337500X0.475000X0*%
G04 #@! TD*
G04 #@! TA.AperFunction,SMDPad,CuDef*
%ADD13RoundRect,0.250000X-0.350000X-0.450000X0.350000X-0.450000X0.350000X0.450000X-0.350000X0.450000X0*%
G04 #@! TD*
G04 #@! TA.AperFunction,SMDPad,CuDef*
%ADD14RoundRect,0.150000X-0.825000X-0.150000X0.825000X-0.150000X0.825000X0.150000X-0.825000X0.150000X0*%
G04 #@! TD*
G04 #@! TA.AperFunction,SMDPad,CuDef*
%ADD15RoundRect,0.250000X-0.450000X0.350000X-0.450000X-0.350000X0.450000X-0.350000X0.450000X0.350000X0*%
G04 #@! TD*
G04 #@! TA.AperFunction,SMDPad,CuDef*
%ADD16RoundRect,0.250001X-0.462499X-0.624999X0.462499X-0.624999X0.462499X0.624999X-0.462499X0.624999X0*%
G04 #@! TD*
G04 #@! TA.AperFunction,SMDPad,CuDef*
%ADD17RoundRect,0.250000X-0.475000X0.337500X-0.475000X-0.337500X0.475000X-0.337500X0.475000X0.337500X0*%
G04 #@! TD*
G04 #@! TA.AperFunction,ViaPad*
%ADD18C,0.800000*%
G04 #@! TD*
G04 #@! TA.AperFunction,Conductor*
%ADD19C,0.300000*%
G04 #@! TD*
G04 #@! TA.AperFunction,Conductor*
%ADD20C,0.400000*%
G04 #@! TD*
G04 #@! TA.AperFunction,Conductor*
%ADD21C,0.750000*%
G04 #@! TD*
G04 #@! TA.AperFunction,Profile*
%ADD22C,0.050000*%
G04 #@! TD*
G04 #@! TA.AperFunction,Profile*
%ADD23C,0.120000*%
G04 #@! TD*
G04 APERTURE END LIST*
D10*
X48370001Y-139750000D03*
D11*
X50910001Y-139750000D03*
X53450000Y-139750000D03*
X55990001Y-139750000D03*
X58530001Y-139750000D03*
X61070001Y-139750000D03*
X63610001Y-139750000D03*
X66150002Y-139750000D03*
D12*
X47730500Y-132435600D03*
X49805500Y-132435600D03*
D13*
X55700000Y-132450000D03*
X57700000Y-132450000D03*
D14*
X48412400Y-122842500D03*
X48412400Y-124112500D03*
X48412400Y-125382500D03*
X48412400Y-126652500D03*
X48412400Y-127922500D03*
X48412400Y-129192500D03*
X48412400Y-130462500D03*
X53362400Y-130462500D03*
X53362400Y-129192500D03*
X53362400Y-127922500D03*
X53362400Y-126652500D03*
X53362400Y-125382500D03*
X53362400Y-124112500D03*
X53362400Y-122842500D03*
D15*
X64770000Y-128184400D03*
X64770000Y-130184400D03*
D13*
X60350000Y-132450000D03*
X62350000Y-132450000D03*
D14*
X57353200Y-122867900D03*
X57353200Y-124137900D03*
X57353200Y-125407900D03*
X57353200Y-126677900D03*
X57353200Y-127947900D03*
X57353200Y-129217900D03*
X57353200Y-130487900D03*
X62303200Y-130487900D03*
X62303200Y-129217900D03*
X62303200Y-127947900D03*
X62303200Y-126677900D03*
X62303200Y-125407900D03*
X62303200Y-124137900D03*
X62303200Y-122867900D03*
D16*
X67562500Y-132950000D03*
X70537500Y-132950000D03*
D10*
X67411600Y-129794000D03*
D11*
X67411600Y-127254000D03*
X67411600Y-124714001D03*
D16*
X67562500Y-135500000D03*
X70537500Y-135500000D03*
D13*
X51650000Y-132450000D03*
X53650000Y-132450000D03*
D17*
X64719200Y-123016100D03*
X64719200Y-125091100D03*
D18*
X60553600Y-127101600D03*
X64350000Y-134150000D03*
X50632000Y-125018800D03*
X56200000Y-135650000D03*
X50632000Y-123799600D03*
X57450000Y-135550000D03*
X59050000Y-132450000D03*
X59350000Y-129850000D03*
X46278800Y-124612400D03*
X53492400Y-120751600D03*
X62179200Y-121869200D03*
X65050000Y-126250000D03*
X51460400Y-121869200D03*
X65141578Y-132050000D03*
D19*
X62285900Y-126695200D02*
X62303200Y-126677900D01*
X65600000Y-135500000D02*
X63610001Y-137489999D01*
X65600000Y-135500000D02*
X67562500Y-135500000D01*
X60960000Y-126695200D02*
X62285900Y-126695200D01*
X60553600Y-127101600D02*
X60960000Y-126695200D01*
X63610001Y-137489999D02*
X63610001Y-139750000D01*
X67031250Y-137068750D02*
X70231250Y-137068750D01*
X64350000Y-133700000D02*
X63100000Y-132450000D01*
X66150002Y-137949998D02*
X67031250Y-137068750D01*
X66400000Y-139850000D02*
X66550000Y-139700000D01*
X64350000Y-134150000D02*
X64350000Y-133700000D01*
X70231250Y-137068750D02*
X70537500Y-136762500D01*
X63100000Y-132450000D02*
X62350000Y-132450000D01*
X66150002Y-139750000D02*
X66150002Y-137949998D01*
X70537500Y-136762500D02*
X70537500Y-135500000D01*
X56200000Y-135650000D02*
X58530001Y-137980001D01*
X58530001Y-137980001D02*
X58530001Y-139750000D01*
X50632000Y-125018800D02*
X50632000Y-125003200D01*
X50632000Y-125003200D02*
X49741300Y-124112500D01*
X49741300Y-124112500D02*
X48412400Y-124112500D01*
X48404300Y-124104400D02*
X48412400Y-124112500D01*
X50632000Y-123799600D02*
X50596800Y-123799600D01*
X50596800Y-123799600D02*
X49639700Y-122842500D01*
X57450000Y-135550000D02*
X61070001Y-139170001D01*
X49639700Y-122842500D02*
X48412400Y-122842500D01*
X61070001Y-139170001D02*
X61070001Y-139750000D01*
D20*
X62328600Y-129192500D02*
X62303200Y-129217900D01*
D19*
X59350000Y-129850000D02*
X59982100Y-129217900D01*
X62303200Y-129217900D02*
X61328201Y-129217900D01*
X57700000Y-132450000D02*
X59050000Y-132450000D01*
X59982100Y-129217900D02*
X62303200Y-129217900D01*
X49580799Y-133654800D02*
X46329600Y-133654800D01*
X55700000Y-133504800D02*
X55700000Y-132450000D01*
D21*
X46278800Y-132668102D02*
X46511302Y-132435600D01*
D20*
X57048400Y-122867900D02*
X57023000Y-122842500D01*
D21*
X64719200Y-123016100D02*
X66272500Y-123016100D01*
D20*
X57023000Y-122842500D02*
X54914800Y-122842500D01*
D21*
X46511302Y-132435600D02*
X47730500Y-132435600D01*
X46278800Y-130911600D02*
X46278800Y-124612400D01*
D19*
X51600000Y-133654800D02*
X51600000Y-133600000D01*
D21*
X67564001Y-124561600D02*
X67411600Y-124714001D01*
D20*
X53362400Y-120881600D02*
X53492400Y-120751600D01*
D21*
X64719200Y-121970800D02*
X64719200Y-123016100D01*
D20*
X54914800Y-122842500D02*
X53362400Y-122842500D01*
D21*
X63500000Y-120751600D02*
X64719200Y-121970800D01*
D19*
X48006000Y-132029200D02*
X48086100Y-132029200D01*
X55550000Y-133654800D02*
X55700000Y-133504800D01*
D20*
X57353200Y-122867900D02*
X57048400Y-122867900D01*
D21*
X53492400Y-120751600D02*
X63500000Y-120751600D01*
X67411600Y-124155200D02*
X67411600Y-124714001D01*
D19*
X46329600Y-133654800D02*
X46278800Y-133705600D01*
X51600000Y-133600000D02*
X51650000Y-133550000D01*
D21*
X46278800Y-130911600D02*
X46278800Y-133705600D01*
D19*
X60350000Y-133350000D02*
X60350000Y-132450000D01*
D20*
X53362400Y-122842500D02*
X53362400Y-120881600D01*
D19*
X60045200Y-133654800D02*
X60350000Y-133350000D01*
D21*
X66272500Y-123016100D02*
X67411600Y-124155200D01*
X46278800Y-133705600D02*
X46278800Y-136178800D01*
D19*
X49580799Y-133654800D02*
X51600000Y-133654800D01*
X55550000Y-133654800D02*
X60045200Y-133654800D01*
X51600000Y-133654800D02*
X55550000Y-133654800D01*
D21*
X46278800Y-132668102D02*
X46278800Y-130911600D01*
X46278800Y-136178800D02*
X48370001Y-138270001D01*
X48370001Y-138270001D02*
X48370001Y-139750000D01*
D19*
X51650000Y-133550000D02*
X51650000Y-132450000D01*
D20*
X51050000Y-126652500D02*
X48412400Y-126652500D01*
X51050000Y-126652500D02*
X51050000Y-129653700D01*
D19*
X50161100Y-132414100D02*
X50161100Y-132029200D01*
X62303200Y-122867900D02*
X62303200Y-121993200D01*
D20*
X51650000Y-122058800D02*
X51650000Y-126350000D01*
X50241200Y-131165600D02*
X50241200Y-130462500D01*
X51460400Y-121869200D02*
X51650000Y-122058800D01*
D19*
X64719200Y-125091100D02*
X64719200Y-125919200D01*
D21*
X65141578Y-132341578D02*
X65750000Y-132950000D01*
D20*
X51050000Y-129653700D02*
X50241200Y-130462500D01*
X51432000Y-121897600D02*
X51460400Y-121869200D01*
D21*
X65750000Y-132950000D02*
X67562500Y-132950000D01*
D20*
X50241200Y-130462500D02*
X53362400Y-130462500D01*
X49805500Y-131601300D02*
X50241200Y-131165600D01*
X49805500Y-132435600D02*
X49805500Y-131601300D01*
X51952500Y-126652500D02*
X51050000Y-126652500D01*
X51650000Y-126350000D02*
X51952500Y-126652500D01*
X48412400Y-130462500D02*
X50241200Y-130462500D01*
X51952500Y-126652500D02*
X53362400Y-126652500D01*
D21*
X65141578Y-132050000D02*
X65141578Y-132341578D01*
D19*
X62303200Y-121993200D02*
X62179200Y-121869200D01*
X64719200Y-125919200D02*
X65050000Y-126250000D01*
X66970400Y-130184400D02*
X64770000Y-130184400D01*
X67513200Y-129641600D02*
X66970400Y-130184400D01*
D20*
X53362400Y-124112500D02*
X54480000Y-124112500D01*
X56083200Y-125407900D02*
X54787800Y-124112500D01*
X54787800Y-124112500D02*
X53362400Y-124112500D01*
X57353200Y-125407900D02*
X56083200Y-125407900D01*
D19*
X64736500Y-127947900D02*
X64770000Y-127914400D01*
X63787300Y-128184400D02*
X64770000Y-128184400D01*
X63550800Y-127947900D02*
X63787300Y-128184400D01*
X62303200Y-127947900D02*
X63550800Y-127947900D01*
X54050000Y-131300000D02*
X65600000Y-131300000D01*
X65800000Y-131500000D02*
X70250000Y-131500000D01*
X70250000Y-131500000D02*
X70537500Y-131787500D01*
X65600000Y-131300000D02*
X65800000Y-131500000D01*
X53650000Y-131700000D02*
X54050000Y-131300000D01*
X70537500Y-131787500D02*
X70537500Y-132950000D01*
X53650000Y-132450000D02*
X53650000Y-131700000D01*
D22*
X70994400Y-139090400D02*
G75*
G02*
X67994400Y-139090400I-1500000J0D01*
G01*
X67994400Y-139090400D02*
G75*
G02*
X70994400Y-139090400I1500000J0D01*
G01*
D23*
X45161200Y-141387600D02*
G75*
G02*
X42773600Y-139000000I0J2387600D01*
G01*
D22*
X70892800Y-121869200D02*
G75*
G02*
X67892800Y-121869200I-1500000J0D01*
G01*
X67892800Y-121869200D02*
G75*
G02*
X70892800Y-121869200I1500000J0D01*
G01*
D23*
X45161200Y-141387600D02*
X69342132Y-141387600D01*
X42773600Y-122000000D02*
G75*
G02*
X45161200Y-119612400I2387600J0D01*
G01*
X42773600Y-122000000D02*
X42773600Y-139000000D01*
D22*
X46661200Y-139090400D02*
G75*
G02*
X43661200Y-139090400I-1500000J0D01*
G01*
X43661200Y-139090400D02*
G75*
G02*
X46661200Y-139090400I1500000J0D01*
G01*
D23*
X71729732Y-122000000D02*
X71729732Y-139000000D01*
X69342132Y-119612400D02*
G75*
G02*
X71729700Y-122000000I-32J-2387600D01*
G01*
X71729732Y-139000000D02*
G75*
G02*
X69342132Y-141387632I-2387632J0D01*
G01*
D22*
X46661200Y-121869200D02*
G75*
G02*
X43661200Y-121869200I-1500000J0D01*
G01*
X43661200Y-121869200D02*
G75*
G02*
X46661200Y-121869200I1500000J0D01*
G01*
D23*
X45161200Y-119612400D02*
X69342132Y-119612400D01*
M02*
