G04 #@! TF.GenerationSoftware,KiCad,Pcbnew,(5.1.9)-1*
G04 #@! TF.CreationDate,2021-06-29T21:56:23-04:00*
G04 #@! TF.ProjectId,v364mx,76333634-6d78-42e6-9b69-6361645f7063,rev?*
G04 #@! TF.SameCoordinates,Original*
G04 #@! TF.FileFunction,Copper,L2,Bot*
G04 #@! TF.FilePolarity,Positive*
%FSLAX46Y46*%
G04 Gerber Fmt 4.6, Leading zero omitted, Abs format (unit mm)*
G04 Created by KiCad (PCBNEW (5.1.9)-1) date 2021-06-29 21:56:23*
%MOMM*%
%LPD*%
G01*
G04 APERTURE LIST*
G04 #@! TA.AperFunction,Profile*
%ADD10C,0.050000*%
G04 #@! TD*
G04 #@! TA.AperFunction,ComponentPad*
%ADD11C,2.200000*%
G04 #@! TD*
G04 #@! TA.AperFunction,ComponentPad*
%ADD12C,2.000000*%
G04 #@! TD*
G04 #@! TA.AperFunction,ComponentPad*
%ADD13O,1.700000X1.700000*%
G04 #@! TD*
G04 #@! TA.AperFunction,ComponentPad*
%ADD14R,1.700000X1.700000*%
G04 #@! TD*
G04 #@! TA.AperFunction,ComponentPad*
%ADD15C,1.800000*%
G04 #@! TD*
G04 #@! TA.AperFunction,ComponentPad*
%ADD16R,1.800000X1.800000*%
G04 #@! TD*
G04 #@! TA.AperFunction,ComponentPad*
%ADD17O,1.400000X1.400000*%
G04 #@! TD*
G04 #@! TA.AperFunction,ComponentPad*
%ADD18C,1.400000*%
G04 #@! TD*
G04 #@! TA.AperFunction,ViaPad*
%ADD19C,0.800000*%
G04 #@! TD*
G04 #@! TA.AperFunction,Conductor*
%ADD20C,0.250000*%
G04 #@! TD*
G04 #@! TA.AperFunction,Conductor*
%ADD21C,0.600000*%
G04 #@! TD*
G04 APERTURE END LIST*
D10*
X358392100Y-147269200D02*
G75*
G03*
X358392100Y-147269200I-2500000J0D01*
G01*
X439888000Y-277266400D02*
G75*
G03*
X439888000Y-277266400I-2500000J0D01*
G01*
X439888000Y-147358100D02*
G75*
G03*
X439888000Y-147358100I-2500000J0D01*
G01*
X456385300Y-147269200D02*
G75*
G03*
X456385300Y-147269200I-2500000J0D01*
G01*
X508019994Y-277279100D02*
G75*
G03*
X508019994Y-277279100I-3995094J0D01*
G01*
X508177800Y-281774900D02*
X436803800Y-281774900D01*
X508177800Y-141427200D02*
X436791100Y-141427200D01*
X514019800Y-147853400D02*
X514019800Y-147269200D01*
X514019800Y-275932900D02*
X514019800Y-147853400D01*
X134944794Y-277266400D02*
G75*
G03*
X134944794Y-277266400I-3995094J0D01*
G01*
X424949294Y-277253700D02*
G75*
G03*
X424949294Y-277253700I-3995094J0D01*
G01*
X120726200Y-281774900D02*
X425119800Y-281774900D01*
X425107100Y-141427200D02*
X120726200Y-141427200D01*
X425107100Y-141427200D02*
G75*
G02*
X430949100Y-147269200I0J-5842000D01*
G01*
X430949100Y-147269200D02*
G75*
G02*
X436791100Y-141427200I5842000J0D01*
G01*
X436803800Y-281774900D02*
G75*
G02*
X430961800Y-275932900I0J5842000D01*
G01*
X430961800Y-275932900D02*
G75*
G02*
X425119800Y-281774900I-5842000J0D01*
G01*
X433436400Y-204584300D02*
G75*
G03*
X433436400Y-204584300I-2500000J0D01*
G01*
X433411000Y-162663500D02*
G75*
G03*
X433411000Y-162663500I-2500000J0D01*
G01*
X433449100Y-256578100D02*
G75*
G03*
X433449100Y-256578100I-2500000J0D01*
G01*
X456385300Y-277266400D02*
G75*
G03*
X456385300Y-277266400I-2500000J0D01*
G01*
X506524900Y-147269200D02*
G75*
G03*
X506524900Y-147269200I-2500000J0D01*
G01*
X114884200Y-275932900D02*
X114884200Y-147269200D01*
X323441700Y-277266400D02*
G75*
G03*
X323441700Y-277266400I-2500000J0D01*
G01*
X233436800Y-147269200D02*
G75*
G03*
X233436800Y-147269200I-2500000J0D01*
G01*
X496466500Y-147269200D02*
G75*
G03*
X496466500Y-147269200I-2500000J0D01*
G01*
X413446600Y-277266400D02*
G75*
G03*
X413446600Y-277266400I-2500000J0D01*
G01*
X143431900Y-147269200D02*
G75*
G03*
X143431900Y-147269200I-2500000J0D01*
G01*
X508177800Y-141427200D02*
G75*
G02*
X514019800Y-147269200I0J-5842000D01*
G01*
X323441700Y-147269200D02*
G75*
G03*
X323441700Y-147269200I-2500000J0D01*
G01*
X143419200Y-277266400D02*
G75*
G03*
X143419200Y-277266400I-2500000J0D01*
G01*
X233436800Y-277266400D02*
G75*
G03*
X233436800Y-277266400I-2500000J0D01*
G01*
X496517300Y-277253700D02*
G75*
G03*
X496517300Y-277253700I-2500000J0D01*
G01*
X114884200Y-147269200D02*
G75*
G02*
X120726200Y-141427200I5842000J0D01*
G01*
X514019800Y-275932900D02*
G75*
G02*
X508177800Y-281774900I-5842000J0D01*
G01*
X413446600Y-147269200D02*
G75*
G03*
X413446600Y-147269200I-2500000J0D01*
G01*
X120726200Y-281774900D02*
G75*
G02*
X114884200Y-275932900I0J5842000D01*
G01*
D11*
X387794600Y-220995000D03*
X394144600Y-218455000D03*
X359219500Y-182905400D03*
X365569500Y-180365400D03*
X485000300Y-218541600D03*
X478650300Y-221081600D03*
X411746700Y-201980800D03*
X418096700Y-199440800D03*
X337781900Y-163728400D03*
X344131900Y-161188400D03*
X294932100Y-163715700D03*
X301282100Y-161175700D03*
X252120400Y-163791900D03*
X258470400Y-161251900D03*
X209194400Y-163703000D03*
X215544400Y-161163000D03*
X340207600Y-182867300D03*
X346557600Y-180327300D03*
X273494500Y-163728400D03*
X279844500Y-161188400D03*
X235394500Y-163766500D03*
X241744500Y-161226500D03*
X197307200Y-163715700D03*
X203657200Y-161175700D03*
X159131000Y-163715700D03*
X165481000Y-161175700D03*
X279911800Y-256489200D03*
X273561800Y-259029200D03*
X344995500Y-259130800D03*
X351345500Y-256590800D03*
X446862200Y-218503500D03*
X440512200Y-221043500D03*
D12*
X413649300Y-259384800D03*
X413649300Y-263884800D03*
X407149300Y-259384800D03*
X407149300Y-263884800D03*
X425282500Y-249974100D03*
X425282500Y-254474100D03*
X418782500Y-249974100D03*
X418782500Y-254474100D03*
X402155800Y-249783600D03*
X402155800Y-254283600D03*
X395655800Y-249783600D03*
X395655800Y-254283600D03*
X414081100Y-240258600D03*
X414081100Y-244758600D03*
X407581100Y-240258600D03*
X407581100Y-244758600D03*
D13*
X123850400Y-205054200D03*
X123850400Y-207594200D03*
X123850400Y-210134200D03*
X123850400Y-212674200D03*
X123850400Y-215214200D03*
X123850400Y-217754200D03*
X123850400Y-220294200D03*
X123850400Y-222834200D03*
X123850400Y-225374200D03*
X123850400Y-227914200D03*
X123850400Y-230454200D03*
X123850400Y-232994200D03*
X123850400Y-235534200D03*
X123850400Y-238074200D03*
X123850400Y-240614200D03*
X123850400Y-243154200D03*
X123850400Y-245694200D03*
D14*
X123850400Y-248234200D03*
D13*
X373710200Y-157010100D03*
X373710200Y-154470100D03*
X376250200Y-157010100D03*
X376250200Y-154470100D03*
X378790200Y-157010100D03*
X378790200Y-154470100D03*
X381330200Y-157010100D03*
X381330200Y-154470100D03*
X383870200Y-157010100D03*
X383870200Y-154470100D03*
X386410200Y-157010100D03*
X386410200Y-154470100D03*
X388950200Y-157010100D03*
X388950200Y-154470100D03*
X391490200Y-157010100D03*
X391490200Y-154470100D03*
X394030200Y-157010100D03*
X394030200Y-154470100D03*
X396570200Y-157010100D03*
D14*
X396570200Y-154470100D03*
D13*
X433793900Y-246773700D03*
X433793900Y-244233700D03*
X433793900Y-241693700D03*
X433793900Y-239153700D03*
X433793900Y-236613700D03*
X433793900Y-234073700D03*
X433793900Y-231533700D03*
X433793900Y-228993700D03*
X433793900Y-226453700D03*
X433793900Y-223913700D03*
X433793900Y-221373700D03*
X433793900Y-218833700D03*
X433793900Y-216293700D03*
X433793900Y-213753700D03*
X433793900Y-211213700D03*
D14*
X433793900Y-208673700D03*
D13*
X428180500Y-246773700D03*
X428180500Y-244233700D03*
X428180500Y-241693700D03*
X428180500Y-239153700D03*
X428180500Y-236613700D03*
X428180500Y-234073700D03*
X428180500Y-231533700D03*
X428180500Y-228993700D03*
X428180500Y-226453700D03*
X428180500Y-223913700D03*
X428180500Y-221373700D03*
X428180500Y-218833700D03*
X428180500Y-216293700D03*
X428180500Y-213753700D03*
X428180500Y-211213700D03*
D14*
X428180500Y-208673700D03*
D13*
X118427500Y-260680200D03*
D14*
X118427500Y-258140200D03*
D13*
X366572800Y-154355800D03*
D14*
X364032800Y-154355800D03*
D15*
X145694400Y-265988800D03*
D16*
X148234400Y-265988800D03*
D15*
X155968700Y-265988800D03*
D16*
X158508700Y-265988800D03*
D11*
X283083000Y-182854600D03*
X289433000Y-180314600D03*
D17*
X131508500Y-266065000D03*
D18*
X123888500Y-266065000D03*
D15*
X134340600Y-266052300D03*
D16*
X136880600Y-266052300D03*
D11*
X368909600Y-201891900D03*
X375259600Y-199351900D03*
X135597900Y-201917300D03*
X141947900Y-199377300D03*
X202120500Y-259105400D03*
X208470500Y-256565400D03*
X154457400Y-240080800D03*
X160807400Y-237540800D03*
X149758400Y-221043500D03*
X156108400Y-218503500D03*
X130632200Y-240106200D03*
X136982200Y-237566200D03*
X416407600Y-182930800D03*
X422757600Y-180390800D03*
X446849500Y-237566200D03*
X440499500Y-240106200D03*
X244957600Y-182816500D03*
X251307600Y-180276500D03*
X359244900Y-221030800D03*
X365594900Y-218490800D03*
D13*
X314769500Y-264414000D03*
X312229500Y-264414000D03*
X314769500Y-261874000D03*
X312229500Y-261874000D03*
X314769500Y-259334000D03*
D14*
X312229500Y-259334000D03*
D13*
X249008900Y-263969500D03*
X246468900Y-263969500D03*
X249008900Y-261429500D03*
X246468900Y-261429500D03*
X249008900Y-258889500D03*
D14*
X246468900Y-258889500D03*
D11*
X440512200Y-259130800D03*
X446862200Y-256590800D03*
X416407600Y-259143500D03*
X422757600Y-256603500D03*
X378320300Y-259143500D03*
X384670300Y-256603500D03*
X397383000Y-259143500D03*
X403733000Y-256603500D03*
X497687600Y-249605800D03*
X504037600Y-247065800D03*
X373532400Y-240055400D03*
X379882400Y-237515400D03*
X216369900Y-240042700D03*
X222719900Y-237502700D03*
X197307200Y-240055400D03*
X203657200Y-237515400D03*
X130695700Y-221005400D03*
X137045700Y-218465400D03*
X478624900Y-259156200D03*
X484974900Y-256616200D03*
X459562200Y-259168900D03*
X465912200Y-256628900D03*
X387946900Y-201993500D03*
X394296900Y-199453500D03*
X349745300Y-240080800D03*
X356095300Y-237540800D03*
X330682600Y-240055400D03*
X337032600Y-237515400D03*
X273545300Y-240068100D03*
X279895300Y-237528100D03*
X254482600Y-240068100D03*
X260832600Y-237528100D03*
X235419900Y-240055400D03*
X241769900Y-237515400D03*
X187833000Y-221056200D03*
X194183000Y-218516200D03*
X378320300Y-182841900D03*
X384670300Y-180301900D03*
X178384200Y-201904600D03*
X184734200Y-199364600D03*
X168757600Y-182791100D03*
X175107600Y-180251100D03*
X397357600Y-182867300D03*
X403707600Y-180327300D03*
D13*
X182511700Y-269341600D03*
X179971700Y-269341600D03*
X182511700Y-266801600D03*
X179971700Y-266801600D03*
X182511700Y-264261600D03*
D14*
X179971700Y-264261600D03*
D11*
X251320300Y-218516200D03*
X244970300Y-221056200D03*
X397332200Y-240042700D03*
X403682200Y-237502700D03*
X241782600Y-199364600D03*
X235432600Y-201904600D03*
X311632600Y-240068100D03*
X317982600Y-237528100D03*
X225920300Y-221068900D03*
X232270300Y-218528900D03*
X298945300Y-237528100D03*
X292595300Y-240068100D03*
X263969500Y-221056200D03*
X270319500Y-218516200D03*
X137007600Y-180238400D03*
X130657600Y-182778400D03*
X149707600Y-182778400D03*
X156057600Y-180238400D03*
X187794900Y-182803800D03*
X194144900Y-180263800D03*
X213194900Y-180276500D03*
X206844900Y-182816500D03*
X225894900Y-182829200D03*
X232244900Y-180289200D03*
X270370300Y-180301900D03*
X264020300Y-182841900D03*
X308483000Y-180314600D03*
X302133000Y-182854600D03*
X321170300Y-182854600D03*
X327520300Y-180314600D03*
X446824100Y-180428900D03*
X440474100Y-182968900D03*
X459498700Y-182968900D03*
X465848700Y-180428900D03*
X484974900Y-180428900D03*
X478624900Y-182968900D03*
X497687600Y-182943500D03*
X504037600Y-180403500D03*
X159359600Y-201904600D03*
X165709600Y-199364600D03*
X197446900Y-201904600D03*
X203796900Y-199364600D03*
X222821500Y-199364600D03*
X216471500Y-201904600D03*
X279946100Y-199364600D03*
X273596100Y-201904600D03*
X292785800Y-201904600D03*
X299135800Y-199364600D03*
X318096900Y-199364600D03*
X311746900Y-201904600D03*
X446824100Y-199491600D03*
X440474100Y-202031600D03*
X459549500Y-202018900D03*
X465899500Y-199478900D03*
X485013000Y-199517000D03*
X478663000Y-202057000D03*
X497700300Y-202057000D03*
X504050300Y-199517000D03*
X168795700Y-221030800D03*
X175145700Y-218490800D03*
X206870300Y-221056200D03*
X213220300Y-218516200D03*
X254520700Y-201904600D03*
X260870700Y-199364600D03*
X289369500Y-218503500D03*
X283019500Y-221043500D03*
X302069500Y-221081600D03*
X308419500Y-218541600D03*
X327482200Y-218528900D03*
X321132200Y-221068900D03*
X330822300Y-201904600D03*
X337172300Y-199364600D03*
X459562200Y-221043500D03*
X465912200Y-218503500D03*
X497700300Y-221081600D03*
X504050300Y-218541600D03*
X178257200Y-240055400D03*
X184607200Y-237515400D03*
X346544900Y-218516200D03*
X340194900Y-221056200D03*
X349885000Y-201904600D03*
X356235000Y-199364600D03*
X459562200Y-240080800D03*
X465912200Y-237540800D03*
X484949500Y-237553500D03*
X478599500Y-240093500D03*
D19*
X395312900Y-178447700D03*
X440893200Y-233616500D03*
X184296050Y-195751450D03*
X397497300Y-192659000D03*
X405968200Y-238721900D03*
X410197300Y-231482900D03*
X138950700Y-215201500D03*
X175145700Y-215188800D03*
X375259600Y-210350100D03*
X408152600Y-212610700D03*
X404304500Y-201599800D03*
X452272400Y-216027000D03*
X141757400Y-237451900D03*
X400088100Y-213537800D03*
X132219700Y-210134200D03*
X314731400Y-238480600D03*
X164115750Y-235134150D03*
X322694300Y-175856900D03*
X387680200Y-175869600D03*
X468071200Y-226783900D03*
X341693500Y-232968800D03*
X131622800Y-230454200D03*
X476237300Y-227850700D03*
X221615000Y-159461200D03*
X194170300Y-234073700D03*
X398614900Y-221272100D03*
X389001000Y-210845400D03*
X250266200Y-169456100D03*
X457238100Y-235445300D03*
X391375900Y-169456100D03*
X209340450Y-233013250D03*
X407123900Y-231381300D03*
X450291200Y-238328200D03*
X394817600Y-208597500D03*
X263956800Y-215290400D03*
X412203900Y-236613700D03*
X410857700Y-210045300D03*
X439877200Y-245402100D03*
X473087700Y-240639600D03*
X386473700Y-172605700D03*
X288740850Y-234422950D03*
X329145900Y-172605700D03*
X445782700Y-246722900D03*
X490105700Y-184277000D03*
X383908300Y-174091600D03*
X366306100Y-174091600D03*
X127419100Y-237147100D03*
X381304800Y-170903900D03*
X392823700Y-257263900D03*
X367741200Y-207048100D03*
X492163100Y-194691000D03*
X137655300Y-248170700D03*
X418198300Y-246773700D03*
X378675900Y-167868600D03*
X416915600Y-225247200D03*
X383590800Y-201498200D03*
X143154400Y-256260600D03*
X439432700Y-232181400D03*
X130695700Y-212674200D03*
X405053800Y-266420600D03*
X413829500Y-228993700D03*
X449275200Y-217246200D03*
X412356300Y-255447800D03*
X146456400Y-205536800D03*
X449275200Y-209016600D03*
X474408500Y-218528900D03*
X401320000Y-177520600D03*
X415950400Y-208927700D03*
X163855400Y-227914200D03*
X491350300Y-223710500D03*
X412661100Y-223545400D03*
X396862300Y-189738000D03*
X382600200Y-166484300D03*
X381571500Y-180454300D03*
X166979600Y-242773200D03*
X286213550Y-177336450D03*
X466013800Y-250621800D03*
X457936600Y-218503500D03*
X454977500Y-229527100D03*
X374167400Y-178269900D03*
X400100800Y-228511100D03*
X387883400Y-228511100D03*
D20*
X394030200Y-154470100D02*
X394030200Y-154571700D01*
X394030200Y-154571700D02*
X395312900Y-155854400D01*
X395312900Y-155854400D02*
X395312900Y-158419800D01*
X185254900Y-199885300D02*
X184734200Y-199364600D01*
X394296900Y-199453500D02*
X394817600Y-199453500D01*
X395312900Y-158419800D02*
X395312900Y-178447700D01*
X394144600Y-213918700D02*
X394144600Y-218455000D01*
X398564100Y-209499200D02*
X394144600Y-213918700D01*
X398564100Y-201180700D02*
X398564100Y-209499200D01*
X396836900Y-199453500D02*
X398564100Y-201180700D01*
X394296900Y-199453500D02*
X396836900Y-199453500D01*
X168795700Y-221030800D02*
X168795700Y-222059500D01*
X168795700Y-222059500D02*
X169494200Y-222758000D01*
X169494200Y-231292400D02*
X178257200Y-240055400D01*
X169494200Y-222758000D02*
X169494200Y-231292400D01*
X440512200Y-221043500D02*
X440512200Y-222199200D01*
X440512200Y-222199200D02*
X440893200Y-222580200D01*
X187794900Y-182803800D02*
X187794900Y-192252600D01*
X178257200Y-240906300D02*
X178257200Y-240055400D01*
X179019200Y-241668300D02*
X178257200Y-240906300D01*
X179019200Y-253403100D02*
X179019200Y-241668300D01*
X182511700Y-256895600D02*
X179019200Y-253403100D01*
X182511700Y-264261600D02*
X182511700Y-256895600D01*
X178384200Y-201904600D02*
X178384200Y-201663300D01*
X440893200Y-222580200D02*
X440893200Y-233616500D01*
X168795700Y-221030800D02*
X168795700Y-220675200D01*
X168795700Y-220675200D02*
X172948600Y-216522300D01*
X184296050Y-195751450D02*
X187794900Y-192252600D01*
X178384200Y-201663300D02*
X184296050Y-195751450D01*
X177165000Y-201904600D02*
X172948600Y-206121000D01*
X178384200Y-201904600D02*
X177165000Y-201904600D01*
X172948600Y-216522300D02*
X172948600Y-206121000D01*
X410197300Y-234492800D02*
X405968200Y-238721900D01*
X410197300Y-231482900D02*
X410197300Y-234492800D01*
X410197300Y-230403400D02*
X410197300Y-231482900D01*
X405930100Y-207213200D02*
X410197300Y-211480400D01*
X405930100Y-201079100D02*
X405930100Y-207213200D01*
X410197300Y-211480400D02*
X410197300Y-230403400D01*
X404139400Y-199288400D02*
X405930100Y-201079100D01*
X404126700Y-199288400D02*
X404139400Y-199288400D01*
X397497300Y-192659000D02*
X404126700Y-199288400D01*
X394004800Y-189166500D02*
X397497300Y-192659000D01*
X394004800Y-171792900D02*
X394004800Y-189166500D01*
X394030200Y-171767500D02*
X394004800Y-171792900D01*
X394030200Y-157010100D02*
X394030200Y-171767500D01*
X375259600Y-208673700D02*
X375259600Y-208826100D01*
X375259600Y-199351900D02*
X375259600Y-208673700D01*
X142328900Y-199758300D02*
X141947900Y-199377300D01*
X142328900Y-210299300D02*
X142328900Y-199758300D01*
X138963400Y-215201500D02*
X142328900Y-211836000D01*
X138950700Y-215201500D02*
X138963400Y-215201500D01*
X142328900Y-211836000D02*
X142328900Y-210299300D01*
X175145700Y-215188800D02*
X175145700Y-218490800D01*
X375259600Y-210350100D02*
X375259600Y-208673700D01*
X405739600Y-210197700D02*
X408152600Y-212610700D01*
X404304500Y-208762600D02*
X405739600Y-210197700D01*
X404304500Y-201599800D02*
X404304500Y-208762600D01*
X404304500Y-201549000D02*
X404304500Y-201599800D01*
X392798300Y-190042800D02*
X404304500Y-201549000D01*
X392798300Y-155829000D02*
X392798300Y-190042800D01*
X391490200Y-154520900D02*
X392798300Y-155829000D01*
X391490200Y-154470100D02*
X391490200Y-154520900D01*
X452272400Y-216027000D02*
X452272400Y-184111900D01*
X448589400Y-180428900D02*
X446824100Y-180428900D01*
X452272400Y-184111900D02*
X448589400Y-180428900D01*
X356235000Y-237401100D02*
X356095300Y-237540800D01*
X356235000Y-199364600D02*
X356235000Y-237401100D01*
X161251900Y-240868200D02*
X160807400Y-240423700D01*
X161251900Y-252120400D02*
X161251900Y-240868200D01*
X173393100Y-264261600D02*
X161251900Y-252120400D01*
X160807400Y-240423700D02*
X160807400Y-237540800D01*
X179971700Y-264261600D02*
X173393100Y-264261600D01*
X137045700Y-218465400D02*
X137045700Y-220916500D01*
X137045700Y-220916500D02*
X137731500Y-221602300D01*
X137731500Y-233426000D02*
X141757400Y-237451900D01*
X137731500Y-221602300D02*
X137731500Y-233426000D01*
X389102600Y-154470100D02*
X388950200Y-154470100D01*
X390245600Y-155613100D02*
X389102600Y-154470100D01*
X390245600Y-190652400D02*
X390245600Y-155613100D01*
X390258300Y-190652400D02*
X390245600Y-190652400D01*
X400088100Y-200482200D02*
X390258300Y-190652400D01*
X400088100Y-219075000D02*
X400088100Y-223672400D01*
X386245100Y-237515400D02*
X379882400Y-237515400D01*
X400088100Y-223672400D02*
X386245100Y-237515400D01*
X400088100Y-214553800D02*
X400088100Y-213969600D01*
X400088100Y-219075000D02*
X400088100Y-214553800D01*
X400088100Y-213537800D02*
X400088100Y-200482200D01*
X400088100Y-213969600D02*
X400088100Y-213537800D01*
X137045700Y-214960200D02*
X132219700Y-210134200D01*
X137045700Y-218465400D02*
X137045700Y-214960200D01*
X165481000Y-190703200D02*
X165481000Y-161175700D01*
X155727400Y-214160100D02*
X155727400Y-200456800D01*
X155727400Y-200456800D02*
X165481000Y-190703200D01*
X137007600Y-180238400D02*
X137033000Y-180238400D01*
X156095700Y-161175700D02*
X165481000Y-161175700D01*
X137033000Y-180238400D02*
X156095700Y-161175700D01*
X465912200Y-256628900D02*
X465912200Y-255803400D01*
X162585400Y-233603800D02*
X164115750Y-235134150D01*
X162585400Y-221018100D02*
X162585400Y-233603800D01*
X162585400Y-221018100D02*
X155727400Y-214160100D01*
X246468900Y-265747500D02*
X246430800Y-265785600D01*
X246468900Y-263969500D02*
X246468900Y-265747500D01*
X251688600Y-265785600D02*
X246430800Y-265785600D01*
X222719900Y-253085600D02*
X222719900Y-247497600D01*
X235419900Y-265785600D02*
X222719900Y-253085600D01*
X222719900Y-247497600D02*
X222719900Y-237502700D01*
X246430800Y-265785600D02*
X235419900Y-265785600D01*
X165481000Y-161175700D02*
X177673000Y-161175700D01*
X177673000Y-161175700D02*
X179514500Y-159334200D01*
X213715600Y-159334200D02*
X215544400Y-161163000D01*
X179514500Y-159334200D02*
X213715600Y-159334200D01*
X386410200Y-154470100D02*
X386410200Y-154495500D01*
X386410200Y-154495500D02*
X387667500Y-155752800D01*
X387667500Y-175856900D02*
X387680200Y-175869600D01*
X387667500Y-155752800D02*
X387667500Y-175856900D01*
X471709750Y-230422450D02*
X468071200Y-226783900D01*
X471709750Y-250005850D02*
X471709750Y-230422450D01*
X465912200Y-255803400D02*
X471709750Y-250005850D01*
X261467600Y-238163100D02*
X261467600Y-255993900D01*
X260832600Y-237528100D02*
X261467600Y-238163100D01*
X317042800Y-181508400D02*
X322694300Y-175856900D01*
X317042800Y-193713100D02*
X317042800Y-181508400D01*
X315696600Y-195059300D02*
X317042800Y-193713100D01*
X315696600Y-199948800D02*
X315696600Y-195059300D01*
X318496950Y-202749150D02*
X315696600Y-199948800D01*
X318496950Y-212604350D02*
X318496950Y-202749150D01*
X314731400Y-216369900D02*
X318496950Y-212604350D01*
X314731400Y-238480600D02*
X314731400Y-216369900D01*
X337032600Y-237515400D02*
X337146900Y-237515400D01*
X337146900Y-237515400D02*
X341693500Y-232968800D01*
X279911800Y-256489200D02*
X261962900Y-256489200D01*
X260985000Y-256489200D02*
X259378450Y-258095750D01*
X259378450Y-258095750D02*
X251688600Y-265785600D01*
X260832600Y-256641600D02*
X259378450Y-258095750D01*
X261467600Y-256374900D02*
X261353300Y-256489200D01*
X261467600Y-255993900D02*
X261467600Y-256374900D01*
X261353300Y-256489200D02*
X260985000Y-256489200D01*
X261962900Y-256489200D02*
X261353300Y-256489200D01*
X194183000Y-225653600D02*
X194183000Y-228422200D01*
X194183000Y-218516200D02*
X194183000Y-225653600D01*
X136982200Y-237566200D02*
X136982200Y-235813600D01*
X136982200Y-235813600D02*
X131622800Y-230454200D01*
X484974900Y-256616200D02*
X484974900Y-250126500D01*
X484974900Y-250126500D02*
X484974900Y-240588800D01*
X476237300Y-231851200D02*
X476237300Y-227850700D01*
X484974900Y-240588800D02*
X476237300Y-231851200D01*
X194183000Y-230085900D02*
X194183000Y-228422200D01*
X383870200Y-154470100D02*
X383870200Y-154559000D01*
X383870200Y-154559000D02*
X385152900Y-155841700D01*
X385152900Y-179819300D02*
X384670300Y-180301900D01*
X385152900Y-155841700D02*
X385152900Y-179819300D01*
X389648700Y-202971400D02*
X389001000Y-203619100D01*
X385318000Y-195554600D02*
X389648700Y-199885300D01*
X385318000Y-183565800D02*
X385318000Y-195554600D01*
X384670300Y-182918100D02*
X385318000Y-183565800D01*
X389648700Y-199885300D02*
X389648700Y-202971400D01*
X384670300Y-180301900D02*
X384670300Y-182918100D01*
X232270300Y-218528900D02*
X232270300Y-208597500D01*
X232270300Y-208597500D02*
X228409500Y-204736700D01*
X228409500Y-204736700D02*
X228409500Y-198145400D01*
X228409500Y-198145400D02*
X221615000Y-191350900D01*
X221615000Y-191350900D02*
X221615000Y-159461200D01*
X194183000Y-234061000D02*
X194183000Y-230085900D01*
X194170300Y-234073700D02*
X194183000Y-234061000D01*
X389001000Y-209118200D02*
X389001000Y-210845400D01*
X389001000Y-203619100D02*
X389001000Y-209118200D01*
X389001000Y-210845400D02*
X389001000Y-216496900D01*
X393776200Y-221272100D02*
X398614900Y-221272100D01*
X389001000Y-216496900D02*
X393776200Y-221272100D01*
X225894900Y-192366900D02*
X235432600Y-201904600D01*
X225894900Y-182829200D02*
X225894900Y-192366900D01*
X244957600Y-174764700D02*
X250266200Y-169456100D01*
X244957600Y-182816500D02*
X244957600Y-174764700D01*
X216471500Y-201904600D02*
X216471500Y-203161900D01*
X216471500Y-203161900D02*
X217360500Y-204050900D01*
X217360500Y-204050900D02*
X217360500Y-208356200D01*
X225920300Y-221068900D02*
X225920300Y-218998800D01*
X225920300Y-218998800D02*
X217360500Y-210439000D01*
X217360500Y-210439000D02*
X217360500Y-210261200D01*
X217360500Y-210261200D02*
X217360500Y-208356200D01*
X391490200Y-169341800D02*
X391375900Y-169456100D01*
X391490200Y-157010100D02*
X391490200Y-169341800D01*
X460108300Y-232575100D02*
X457238100Y-235445300D01*
X460108300Y-221589600D02*
X460108300Y-232575100D01*
X459562200Y-221043500D02*
X460108300Y-221589600D01*
X209340450Y-233013250D02*
X216369900Y-240042700D01*
X391375900Y-169456100D02*
X391375900Y-188976000D01*
X391375900Y-188976000D02*
X391375900Y-190220600D01*
X391375900Y-190220600D02*
X402069300Y-200914000D01*
X402069300Y-200914000D02*
X402069300Y-208292700D01*
X402069300Y-208292700D02*
X402069300Y-208483200D01*
X207676750Y-221862650D02*
X206870300Y-221056200D01*
X207676750Y-231336850D02*
X207676750Y-221862650D01*
X207670400Y-231343200D02*
X207676750Y-231336850D01*
X209340450Y-233013250D02*
X207670400Y-231343200D01*
X402069300Y-209473800D02*
X402069300Y-208292700D01*
X407123900Y-214528400D02*
X402069300Y-209473800D01*
X407123900Y-231381300D02*
X407123900Y-214528400D01*
X263969500Y-230581200D02*
X254482600Y-240068100D01*
X263969500Y-221056200D02*
X263969500Y-230581200D01*
X457492100Y-202018900D02*
X459549500Y-202018900D01*
X263969500Y-221056200D02*
X263969500Y-216331800D01*
X450291200Y-238328200D02*
X452450200Y-236169200D01*
X452450200Y-236169200D02*
X452450200Y-218617800D01*
X452450200Y-218617800D02*
X454660000Y-216408000D01*
X454660000Y-204851000D02*
X456114150Y-203396850D01*
X454660000Y-216408000D02*
X454660000Y-204851000D01*
X456114150Y-203396850D02*
X457492100Y-202018900D01*
X455853800Y-203657200D02*
X456114150Y-203396850D01*
X283641800Y-183413400D02*
X283083000Y-182854600D01*
X283641800Y-191858900D02*
X283641800Y-183413400D01*
X273596100Y-201904600D02*
X283641800Y-191858900D01*
X394817600Y-203428600D02*
X394817600Y-208597500D01*
X388950200Y-197561200D02*
X394817600Y-203428600D01*
X388950200Y-157010100D02*
X388950200Y-197561200D01*
X273596100Y-201904600D02*
X272008600Y-201904600D01*
X272008600Y-201904600D02*
X263969500Y-209943700D01*
X263969500Y-215277700D02*
X263956800Y-215290400D01*
X263969500Y-209943700D02*
X263969500Y-215277700D01*
X263969500Y-215277700D02*
X263969500Y-216331800D01*
X410857700Y-210045300D02*
X410997400Y-210185000D01*
X410857700Y-210045300D02*
X410883100Y-210045300D01*
X410883100Y-210045300D02*
X411657800Y-210820000D01*
X411657800Y-236067600D02*
X412203900Y-236613700D01*
X411657800Y-210820000D02*
X411657800Y-236067600D01*
X473443300Y-196837300D02*
X478663000Y-202057000D01*
X473443300Y-184543700D02*
X473443300Y-183184800D01*
X473443300Y-184543700D02*
X473443300Y-196837300D01*
X292785800Y-201904600D02*
X292785800Y-189649100D01*
X299580300Y-182854600D02*
X302133000Y-182854600D01*
X292785800Y-189649100D02*
X299580300Y-182854600D01*
X478663000Y-211937600D02*
X478663000Y-202057000D01*
X473087700Y-217512900D02*
X478663000Y-211937600D01*
X473087700Y-240639600D02*
X473087700Y-217512900D01*
X386410200Y-172669200D02*
X386473700Y-172605700D01*
X386410200Y-157010100D02*
X386410200Y-172669200D01*
X439877200Y-258495800D02*
X440512200Y-259130800D01*
X439877200Y-245402100D02*
X439877200Y-258495800D01*
X292595300Y-240068100D02*
X292595300Y-238277400D01*
X283019500Y-221043500D02*
X283019500Y-228701600D01*
X283019500Y-221043500D02*
X283019500Y-209562700D01*
X290677600Y-201904600D02*
X292785800Y-201904600D01*
X283019500Y-209562700D02*
X290677600Y-201904600D01*
X288740850Y-234422950D02*
X283019500Y-228701600D01*
X292595300Y-238277400D02*
X288740850Y-234422950D01*
X321170300Y-180670200D02*
X321170300Y-182854600D01*
X325386700Y-176453800D02*
X321170300Y-180670200D01*
X325386700Y-176364900D02*
X329145900Y-172605700D01*
X325386700Y-176453800D02*
X325386700Y-176364900D01*
X340194900Y-221056200D02*
X340194900Y-227876100D01*
X330682600Y-237388400D02*
X330682600Y-240055400D01*
X397332200Y-259092700D02*
X397383000Y-259143500D01*
X397332200Y-240042700D02*
X397332200Y-259092700D01*
X340194900Y-221056200D02*
X340194900Y-219760800D01*
X340194900Y-219760800D02*
X331470000Y-211035900D01*
X331470000Y-202552300D02*
X330822300Y-201904600D01*
X331470000Y-211035900D02*
X331470000Y-202552300D01*
X459562200Y-259168900D02*
X458228700Y-259168900D01*
X458228700Y-259168900D02*
X445782700Y-246722900D01*
X490118400Y-184289700D02*
X490118400Y-188125100D01*
X490105700Y-184277000D02*
X490118400Y-184289700D01*
X490118400Y-188125100D02*
X490118400Y-242989100D01*
X490118400Y-242989100D02*
X490118400Y-256603500D01*
X490118400Y-256603500D02*
X487895900Y-258826000D01*
X478955100Y-258826000D02*
X478624900Y-259156200D01*
X487895900Y-258826000D02*
X478955100Y-258826000D01*
X337019900Y-231051100D02*
X330682600Y-237388400D01*
X340194900Y-227876100D02*
X337019900Y-231051100D01*
X330822300Y-201904600D02*
X330822300Y-199644000D01*
X330822300Y-199644000D02*
X341591900Y-188874400D01*
X341591900Y-188874400D02*
X349834200Y-188874400D01*
X355803200Y-182905400D02*
X359219500Y-182905400D01*
X349834200Y-188874400D02*
X355803200Y-182905400D01*
X383908300Y-172212000D02*
X383870200Y-172173900D01*
X383908300Y-174091600D02*
X383908300Y-172212000D01*
X383870200Y-157010100D02*
X383870200Y-172173900D01*
X359219500Y-181178200D02*
X366306100Y-174091600D01*
X359219500Y-182905400D02*
X359219500Y-181178200D01*
X497700300Y-221081600D02*
X497700300Y-202057000D01*
X497700300Y-182956200D02*
X497687600Y-182943500D01*
X497700300Y-202057000D02*
X497700300Y-182956200D01*
X359244900Y-221030800D02*
X359244900Y-222465900D01*
X359244900Y-222465900D02*
X359625900Y-222846900D01*
X362013500Y-242836700D02*
X378320300Y-259143500D01*
X129019300Y-182778400D02*
X130657600Y-182778400D01*
X127412750Y-184384950D02*
X127412750Y-236073950D01*
X127412750Y-184384950D02*
X129019300Y-182778400D01*
X416407600Y-259143500D02*
X416318700Y-259143500D01*
X127412750Y-237140750D02*
X127412750Y-236073950D01*
X127419100Y-237147100D02*
X127412750Y-237140750D01*
X402155800Y-249783600D02*
X401866100Y-249783600D01*
X395655800Y-249783600D02*
X394982700Y-249783600D01*
X394982700Y-249783600D02*
X392823700Y-251942600D01*
X416458400Y-259092700D02*
X416407600Y-259143500D01*
X381330200Y-170878500D02*
X381304800Y-170903900D01*
X381330200Y-170865800D02*
X381330200Y-170878500D01*
X381330200Y-157010100D02*
X381330200Y-170865800D01*
X378320300Y-173888400D02*
X381304800Y-170903900D01*
X378320300Y-182841900D02*
X378320300Y-173888400D01*
X392823700Y-257175000D02*
X392823700Y-257263900D01*
X392823700Y-251942600D02*
X392823700Y-257175000D01*
X359257600Y-240080800D02*
X359759250Y-240582450D01*
X349745300Y-240080800D02*
X359257600Y-240080800D01*
X359759250Y-240582450D02*
X362013500Y-242836700D01*
X359651300Y-240474500D02*
X359759250Y-240582450D01*
X359422700Y-240080800D02*
X359625900Y-239877600D01*
X359257600Y-240080800D02*
X359422700Y-240080800D01*
X359625900Y-222846900D02*
X359625900Y-239877600D01*
X418287200Y-249974100D02*
X416458400Y-251802900D01*
X418782500Y-249974100D02*
X418287200Y-249974100D01*
X416458400Y-251802900D02*
X416458400Y-259092700D01*
X378320300Y-182841900D02*
X376936000Y-182841900D01*
X376936000Y-182841900D02*
X375513600Y-184264300D01*
X375513600Y-189560200D02*
X387946900Y-201993500D01*
X375513600Y-184264300D02*
X375513600Y-189560200D01*
X359244900Y-215544400D02*
X367741200Y-207048100D01*
X359244900Y-221030800D02*
X359244900Y-215544400D01*
X440474100Y-182968900D02*
X440347100Y-182968900D01*
X492163100Y-244081300D02*
X497687600Y-249605800D01*
X492163100Y-194691000D02*
X492163100Y-244081300D01*
X416915600Y-245491000D02*
X418198300Y-246773700D01*
X160921700Y-170345100D02*
X159880300Y-169303700D01*
X159131000Y-164693600D02*
X159131000Y-163715700D01*
X159880300Y-165442900D02*
X159131000Y-164693600D01*
X160921700Y-192570100D02*
X160921700Y-170345100D01*
X142760700Y-225628200D02*
X143916400Y-224472500D01*
X142760700Y-243065300D02*
X142760700Y-225628200D01*
X159880300Y-169303700D02*
X159880300Y-165442900D01*
X137655300Y-248170700D02*
X142760700Y-243065300D01*
X422224200Y-198120000D02*
X422224200Y-206603600D01*
X420420800Y-196316600D02*
X422224200Y-198120000D01*
X416915600Y-215023700D02*
X416915600Y-217512900D01*
X420420800Y-196278500D02*
X420420800Y-196316600D01*
X416915600Y-211912200D02*
X416915600Y-215023700D01*
X417258500Y-193116200D02*
X420420800Y-196278500D01*
X417258500Y-185089800D02*
X417258500Y-193116200D01*
X422224200Y-206603600D02*
X416915600Y-211912200D01*
X416407600Y-184238900D02*
X417258500Y-185089800D01*
X416407600Y-182930800D02*
X416407600Y-184238900D01*
X378790200Y-167754300D02*
X378675900Y-167868600D01*
X378790200Y-157010100D02*
X378790200Y-167754300D01*
X416915600Y-225247200D02*
X416915600Y-217512900D01*
X416915600Y-245491000D02*
X416915600Y-225247200D01*
X383590800Y-201498200D02*
X383590800Y-201688700D01*
X383590800Y-201688700D02*
X384162300Y-202260200D01*
X384162300Y-217362700D02*
X387794600Y-220995000D01*
X384162300Y-202260200D02*
X384162300Y-217362700D01*
X148196300Y-213664800D02*
X143916400Y-217944700D01*
X148196300Y-205295500D02*
X148196300Y-213664800D01*
X143916400Y-224472500D02*
X143916400Y-217944700D01*
X148196300Y-205295500D02*
X160921700Y-192570100D01*
X371563900Y-174980600D02*
X378675900Y-167868600D01*
X371563900Y-192798700D02*
X371563900Y-174980600D01*
X368909600Y-195453000D02*
X371563900Y-192798700D01*
X368909600Y-201891900D02*
X368909600Y-195453000D01*
X168757600Y-192506600D02*
X159359600Y-201904600D01*
X168757600Y-182791100D02*
X168757600Y-192506600D01*
X130632200Y-232791000D02*
X130632200Y-233210100D01*
X130695700Y-232727500D02*
X130632200Y-232791000D01*
X130632200Y-233210100D02*
X130632200Y-232803700D01*
X130695700Y-221005400D02*
X130695700Y-230530400D01*
X130695700Y-230530400D02*
X130695700Y-232727500D01*
X439432700Y-232181400D02*
X439585100Y-232333800D01*
X439585100Y-239191800D02*
X440499500Y-240106200D01*
X439585100Y-232333800D02*
X439585100Y-239191800D01*
X130632200Y-234188000D02*
X130632200Y-233210100D01*
X130632200Y-240106200D02*
X130632200Y-234188000D01*
X133616700Y-201917300D02*
X135597900Y-201917300D01*
X130695700Y-204838300D02*
X133616700Y-201917300D01*
X130695700Y-212674200D02*
X130695700Y-204838300D01*
X130695700Y-221005400D02*
X130695700Y-212674200D01*
X405053800Y-266420600D02*
X408508200Y-266420600D01*
X409194000Y-266420600D02*
X410768800Y-264845800D01*
X405053800Y-266420600D02*
X409194000Y-266420600D01*
X413791400Y-236461300D02*
X410768800Y-239483900D01*
X413791400Y-231127300D02*
X413791400Y-236461300D01*
X410768800Y-264845800D02*
X410768800Y-239483900D01*
X412292800Y-202526900D02*
X411746700Y-201980800D01*
X412292800Y-206298800D02*
X412292800Y-202526900D01*
X413829500Y-207835500D02*
X412292800Y-206298800D01*
X413791400Y-231127300D02*
X413829500Y-231089200D01*
X397357600Y-182867300D02*
X407136600Y-182867300D01*
X413829500Y-228993700D02*
X413829500Y-207835500D01*
X413829500Y-231089200D02*
X413829500Y-228993700D01*
X408889200Y-199123300D02*
X411746700Y-201980800D01*
X408889200Y-184619900D02*
X408889200Y-199123300D01*
X407136600Y-182867300D02*
X408889200Y-184619900D01*
X138049000Y-256260600D02*
X143154400Y-256260600D01*
X131064000Y-249275600D02*
X138049000Y-256260600D01*
X131064000Y-240538000D02*
X131064000Y-249275600D01*
X130632200Y-240106200D02*
X131064000Y-240538000D01*
X397357600Y-178257200D02*
X397357600Y-182867300D01*
X397357600Y-176276000D02*
X397357600Y-178257200D01*
X396570200Y-175488600D02*
X397357600Y-176276000D01*
X396570200Y-157010100D02*
X396570200Y-175488600D01*
X446849500Y-237566200D02*
X446849500Y-221678500D01*
X449275200Y-219252800D02*
X449275200Y-217246200D01*
X446849500Y-221678500D02*
X449275200Y-219252800D01*
X446824100Y-206565500D02*
X446824100Y-199491600D01*
X449275200Y-209016600D02*
X446824100Y-206565500D01*
X449275200Y-210743800D02*
X449275200Y-209016600D01*
X449275200Y-217246200D02*
X449275200Y-210743800D01*
X156057600Y-185369200D02*
X156057600Y-180238400D01*
X156057600Y-186715400D02*
X156057600Y-185369200D01*
X156057600Y-195935600D02*
X156057600Y-186715400D01*
X146456400Y-205536800D02*
X156057600Y-195935600D01*
X484949500Y-237553500D02*
X484949500Y-234099100D01*
X474408500Y-223558100D02*
X474408500Y-218528900D01*
X484949500Y-234099100D02*
X474408500Y-223558100D01*
X411797500Y-256006600D02*
X412356300Y-255447800D01*
X411797500Y-262033000D02*
X411797500Y-256006600D01*
X413649300Y-263884800D02*
X411797500Y-262033000D01*
X401320000Y-177520600D02*
X404583900Y-177520600D01*
X397992600Y-174193200D02*
X401320000Y-177520600D01*
X397992600Y-155600400D02*
X397992600Y-174193200D01*
X396862300Y-154470100D02*
X397992600Y-155600400D01*
X396570200Y-154470100D02*
X396862300Y-154470100D01*
X422757600Y-180390800D02*
X412521400Y-180390800D01*
X423138600Y-180771800D02*
X422757600Y-180390800D01*
X415950400Y-208927700D02*
X415950400Y-208940400D01*
X415950400Y-208940400D02*
X415150300Y-209740500D01*
X415150300Y-209740500D02*
X415150300Y-237401100D01*
X415150300Y-237401100D02*
X416128200Y-238379000D01*
X416128200Y-238379000D02*
X416128200Y-246875300D01*
X412356300Y-250647200D02*
X412356300Y-255447800D01*
X416128200Y-246875300D02*
X412356300Y-250647200D01*
X418274500Y-206603600D02*
X418255450Y-206622650D01*
X418274500Y-202819000D02*
X418274500Y-206603600D01*
X410946600Y-195491100D02*
X418274500Y-202819000D01*
X418255450Y-206622650D02*
X415950400Y-208927700D01*
X410946600Y-183883300D02*
X410946600Y-195491100D01*
X410946600Y-183883300D02*
X410946600Y-180403500D01*
X410946600Y-180403500D02*
X410933900Y-180390800D01*
X412521400Y-180390800D02*
X410933900Y-180390800D01*
X408063700Y-177520600D02*
X410933900Y-180390800D01*
X404583900Y-177520600D02*
X408063700Y-177520600D01*
X157111700Y-218503500D02*
X156108400Y-218503500D01*
X164541200Y-240398300D02*
X162864800Y-238721900D01*
X164541200Y-240411000D02*
X164541200Y-240398300D01*
X165976300Y-241846100D02*
X164541200Y-240411000D01*
X165976300Y-252298200D02*
X165976300Y-241846100D01*
X174764700Y-261086600D02*
X165976300Y-252298200D01*
X179743100Y-261086600D02*
X174764700Y-261086600D01*
X181178200Y-262521700D02*
X179743100Y-261086600D01*
X181178200Y-265468100D02*
X181178200Y-262521700D01*
X182511700Y-266801600D02*
X181178200Y-265468100D01*
X161175700Y-234149900D02*
X162864800Y-235839000D01*
X161175700Y-222567500D02*
X161175700Y-234149900D01*
X162864800Y-238721900D02*
X162864800Y-235839000D01*
X161175700Y-222567500D02*
X157111700Y-218503500D01*
X149758400Y-221043500D02*
X149758400Y-222364300D01*
X149758400Y-222364300D02*
X150495000Y-223100900D01*
X150495000Y-223100900D02*
X150495000Y-245757700D01*
X171538900Y-266801600D02*
X179971700Y-266801600D01*
X150495000Y-245757700D02*
X171538900Y-266801600D01*
X241744500Y-199326500D02*
X241782600Y-199364600D01*
X165036500Y-219824300D02*
X165709600Y-219151200D01*
X165709600Y-199364600D02*
X165709600Y-219151200D01*
X165036500Y-219824300D02*
X165023800Y-219824300D01*
X165023800Y-219824300D02*
X164338000Y-220510100D01*
X164338000Y-227431600D02*
X163855400Y-227914200D01*
X164338000Y-220510100D02*
X164338000Y-227431600D01*
X381330200Y-154470100D02*
X382447800Y-155587700D01*
X382447800Y-155587700D02*
X382600200Y-155740100D01*
X382600200Y-155740100D02*
X382600200Y-158953200D01*
X484974900Y-180428900D02*
X488696000Y-180428900D01*
X488696000Y-180428900D02*
X491350300Y-183083200D01*
X488886500Y-184340500D02*
X484974900Y-180428900D01*
X491350300Y-183083200D02*
X491350300Y-223710500D01*
X382600200Y-158953200D02*
X382600200Y-160121600D01*
X382600200Y-172123100D02*
X382270000Y-172453300D01*
X382600200Y-160121600D02*
X382600200Y-160439100D01*
X338810600Y-180327300D02*
X346557600Y-180327300D01*
X319773300Y-199364600D02*
X338810600Y-180327300D01*
X318096900Y-199364600D02*
X319773300Y-199364600D01*
X412661100Y-210223100D02*
X408203400Y-205765400D01*
X412661100Y-223545400D02*
X412661100Y-210223100D01*
X407085800Y-199961500D02*
X396862300Y-189738000D01*
X408203400Y-205765400D02*
X407085800Y-204647800D01*
X407085800Y-204647800D02*
X407085800Y-199961500D01*
X382600200Y-166484300D02*
X382600200Y-172123100D01*
X382600200Y-160439100D02*
X382600200Y-166484300D01*
X381552450Y-180435250D02*
X381571500Y-180454300D01*
X381552450Y-173170850D02*
X381552450Y-180435250D01*
X381552450Y-173170850D02*
X382270000Y-172453300D01*
X466013800Y-237642400D02*
X465912200Y-237540800D01*
X175107600Y-186944000D02*
X175107600Y-180251100D01*
X175107600Y-190868300D02*
X175107600Y-186944000D01*
X170180000Y-216712800D02*
X170180000Y-195795900D01*
X165900100Y-220992700D02*
X170180000Y-216712800D01*
X165900100Y-225640900D02*
X165900100Y-220992700D01*
X170180000Y-195795900D02*
X175107600Y-190868300D01*
X289191700Y-180314600D02*
X289433000Y-180314600D01*
X280352500Y-164236400D02*
X280352500Y-171475400D01*
X279844500Y-163728400D02*
X280352500Y-164236400D01*
X279844500Y-161188400D02*
X279844500Y-163728400D01*
X286213550Y-177336450D02*
X289191700Y-180314600D01*
X280352500Y-171475400D02*
X286213550Y-177336450D01*
X166979600Y-226720400D02*
X165900100Y-225640900D01*
X166979600Y-242773200D02*
X166979600Y-226720400D01*
X466013800Y-250621800D02*
X466013800Y-237642400D01*
X466521800Y-200101200D02*
X465899500Y-199478900D01*
X454977500Y-221462600D02*
X457936600Y-218503500D01*
X457936600Y-218503500D02*
X457936600Y-218478100D01*
X466521800Y-209892900D02*
X466521800Y-205905100D01*
X457936600Y-218478100D02*
X466521800Y-209892900D01*
X466521800Y-205905100D02*
X466521800Y-200101200D01*
X454977500Y-229527100D02*
X454977500Y-221462600D01*
X454977500Y-229527100D02*
X454977500Y-235280200D01*
X457238100Y-237540800D02*
X465912200Y-237540800D01*
X454977500Y-235280200D02*
X457238100Y-237540800D01*
X403682200Y-237502700D02*
X403834600Y-237502700D01*
X403682200Y-237502700D02*
X403682200Y-237490000D01*
X405477100Y-244758600D02*
X407581100Y-244758600D01*
X407581100Y-244758600D02*
X408067900Y-244758600D01*
X404317200Y-243598700D02*
X405477100Y-244758600D01*
X403682200Y-237502700D02*
X403682200Y-237020100D01*
X403682200Y-240220500D02*
X404317200Y-240855500D01*
X403682200Y-237502700D02*
X403682200Y-240220500D01*
X404317200Y-240855500D02*
X404317200Y-243598700D01*
X378790200Y-154470100D02*
X380098300Y-155778200D01*
X327520300Y-180314600D02*
X327520300Y-179031900D01*
X327520300Y-179031900D02*
X332054200Y-174498000D01*
X332054200Y-174498000D02*
X332054200Y-164261800D01*
X335127600Y-161188400D02*
X344131900Y-161188400D01*
X332054200Y-164261800D02*
X335127600Y-161188400D01*
X403682200Y-237502700D02*
X403682200Y-237185200D01*
X400100800Y-233603800D02*
X400100800Y-228511100D01*
X403682200Y-237185200D02*
X400100800Y-233603800D01*
X374167400Y-194144900D02*
X374167400Y-178269900D01*
X383019300Y-223647000D02*
X387883400Y-228511100D01*
X382498600Y-223126300D02*
X383019300Y-223647000D01*
X382498600Y-202476100D02*
X382498600Y-223126300D01*
X382498600Y-202476100D02*
X374167400Y-194144900D01*
X374167400Y-175094900D02*
X380098300Y-169164000D01*
X374167400Y-178269900D02*
X374167400Y-175094900D01*
X380098300Y-155778200D02*
X380098300Y-169164000D01*
D21*
X116014500Y-243154200D02*
X115887500Y-243281200D01*
X121920000Y-243154200D02*
X116014500Y-243154200D01*
X115887500Y-260273800D02*
X115887500Y-243281200D01*
X115900200Y-260680200D02*
X115887500Y-260667500D01*
X118427500Y-260680200D02*
X115900200Y-260680200D01*
X115887500Y-260273800D02*
X115887500Y-260667500D01*
X158508700Y-265988800D02*
X158508700Y-267970000D01*
X157340300Y-269138400D02*
X148234400Y-269138400D01*
X158508700Y-267970000D02*
X157340300Y-269138400D01*
X148234400Y-265988800D02*
X148234400Y-269138400D01*
X137058400Y-269138400D02*
X136880600Y-268960600D01*
X148234400Y-269138400D02*
X137058400Y-269138400D01*
X136880600Y-266052300D02*
X136880600Y-268960600D01*
X121196100Y-268960600D02*
X115887500Y-263652000D01*
X115887500Y-260667500D02*
X115887500Y-263652000D01*
X116154200Y-243154200D02*
X115887500Y-242887500D01*
X123850400Y-243154200D02*
X116154200Y-243154200D01*
X115887500Y-243281200D02*
X115887500Y-242887500D01*
X367931700Y-154470100D02*
X373710200Y-154470100D01*
X115887500Y-187210700D02*
X148120100Y-154978100D01*
X115887500Y-242887500D02*
X115887500Y-187210700D01*
X366572800Y-154355800D02*
X366572800Y-156070300D01*
X366572800Y-156070300D02*
X365785400Y-156857700D01*
X360997500Y-156857700D02*
X359117900Y-154978100D01*
X365785400Y-156857700D02*
X360997500Y-156857700D01*
X148120100Y-154978100D02*
X359117900Y-154978100D01*
X367817400Y-154355800D02*
X367931700Y-154470100D01*
X366572800Y-154355800D02*
X367817400Y-154355800D01*
X121373900Y-269138400D02*
X121196100Y-268960600D01*
X137058400Y-269138400D02*
X121373900Y-269138400D01*
M02*
