M48
; DRILL file {KiCad (5.1.9)-1} date 06/29/21 21:56:28
; FORMAT={-:-/ absolute / inch / decimal}
; #@! TF.CreationDate,2021-06-29T21:56:28-04:00
; #@! TF.GenerationSoftware,Kicad,Pcbnew,(5.1.9)-1
FMAT,2
INCH
T1C0.0157
T2C0.0276
T3C0.0354
T4C0.0394
T5C0.0433
T6C0.0591
T7C0.0669
T8C0.1201
T9C0.1575
%
G90
G05
T1
X5.0165Y-9.3365
X5.1455Y-8.373
X5.182Y-9.073
X5.2055Y-8.273
X5.4195Y-9.7705
X5.4705Y-8.4725
X5.581Y-9.3485
X5.636Y-10.089
X5.766Y-8.092
X6.451Y-8.973
X6.4612Y-9.2572
X6.574Y-9.558
X6.8955Y-8.472
X7.2557Y-7.7067
X7.6445Y-9.2155
X8.2417Y-9.1738
X8.725Y-6.278
X9.853Y-6.6715
X10.392Y-8.476
X11.2683Y-6.9817
X11.3677Y-9.2293
X12.391Y-9.389
X12.7045Y-6.9235
X12.9585Y-6.7955
X13.4525Y-9.172
X14.4215Y-6.854
X14.478Y-8.1515
X14.731Y-7.0185
X14.774Y-8.2815
X14.9085Y-6.609
X15.012Y-6.7285
X15.0225Y-7.1045
X15.063Y-6.5545
X15.102Y-7.933
X15.1145Y-6.854
X15.2155Y-6.7955
X15.263Y-6.924
X15.271Y-8.9965
X15.315Y-8.301
X15.4085Y-6.6715
X15.4655Y-10.1285
X15.544Y-8.2125
X15.5635Y-7.0255
X15.6245Y-7.47
X15.6495Y-7.585
X15.6935Y-8.7115
X15.7515Y-8.407
X15.752Y-8.9965
X15.8Y-6.989
X15.9175Y-7.937
X15.947Y-10.489
X15.983Y-9.3985
X16.0285Y-9.1095
X16.069Y-8.3705
X16.1495Y-9.1135
X16.1755Y-8.2695
X16.2285Y-9.3155
X16.2345Y-10.057
X16.2465Y-8.801
X16.2925Y-9.0155
X16.376Y-8.2255
X16.414Y-8.868
X16.4645Y-9.7155
X17.3005Y-9.141
X17.318Y-9.6615
X17.358Y-9.1975
X17.5505Y-9.7135
X17.688Y-8.229
X17.688Y-8.553
X17.728Y-9.383
X17.806Y-8.505
X17.9125Y-9.0365
X18.0015Y-9.2695
X18.029Y-8.6025
X18.347Y-9.867
X18.428Y-8.9285
X18.6255Y-9.474
X18.6775Y-8.6035
X18.7495Y-8.9705
X19.2955Y-7.255
X19.3445Y-8.8075
X19.3765Y-7.665
T2
X4.8775Y-10.475
X5.1775Y-10.475
T3
X5.289Y-10.4745
X5.389Y-10.4745
X5.736Y-10.472
X5.836Y-10.472
X6.1405Y-10.472
X6.2405Y-10.472
T4
X4.6625Y-10.163
X4.6625Y-10.263
X4.876Y-8.073
X4.876Y-8.173
X4.876Y-8.273
X4.876Y-8.373
X4.876Y-8.473
X4.876Y-8.573
X4.876Y-8.673
X4.876Y-8.773
X4.876Y-8.873
X4.876Y-8.973
X4.876Y-9.073
X4.876Y-9.173
X4.876Y-9.273
X4.876Y-9.373
X4.876Y-9.473
X4.876Y-9.573
X4.876Y-9.673
X4.876Y-9.773
X7.0855Y-10.404
X7.0855Y-10.504
X7.0855Y-10.604
X7.1855Y-10.404
X7.1855Y-10.504
X7.1855Y-10.604
X9.7035Y-10.1925
X9.7035Y-10.2925
X9.7035Y-10.3925
X9.8035Y-10.1925
X9.8035Y-10.2925
X9.8035Y-10.3925
X12.2925Y-10.21
X12.2925Y-10.31
X12.2925Y-10.41
X12.3925Y-10.21
X12.3925Y-10.31
X12.3925Y-10.41
X14.332Y-6.077
X14.432Y-6.077
X14.713Y-6.0815
X14.713Y-6.1815
X14.813Y-6.0815
X14.813Y-6.1815
X14.913Y-6.0815
X14.913Y-6.1815
X15.013Y-6.0815
X15.013Y-6.1815
X15.113Y-6.0815
X15.113Y-6.1815
X15.213Y-6.0815
X15.213Y-6.1815
X15.313Y-6.0815
X15.313Y-6.1815
X15.413Y-6.0815
X15.413Y-6.1815
X15.513Y-6.0815
X15.513Y-6.1815
X15.613Y-6.0815
X15.613Y-6.1815
X16.8575Y-8.2155
X16.8575Y-8.3155
X16.8575Y-8.4155
X16.8575Y-8.5155
X16.8575Y-8.6155
X16.8575Y-8.7155
X16.8575Y-8.8155
X16.8575Y-8.9155
X16.8575Y-9.0155
X16.8575Y-9.1155
X16.8575Y-9.2155
X16.8575Y-9.3155
X16.8575Y-9.4155
X16.8575Y-9.5155
X16.8575Y-9.6155
X16.8575Y-9.7155
X17.0785Y-8.2155
X17.0785Y-8.3155
X17.0785Y-8.4155
X17.0785Y-8.5155
X17.0785Y-8.6155
X17.0785Y-8.7155
X17.0785Y-8.8155
X17.0785Y-8.9155
X17.0785Y-9.0155
X17.0785Y-9.1155
X17.0785Y-9.2155
X17.0785Y-9.3155
X17.0785Y-9.4155
X17.0785Y-9.5155
X17.0785Y-9.6155
X17.0785Y-9.7155
T5
X15.577Y-9.834
X15.577Y-10.0112
X15.8329Y-9.834
X15.8329Y-10.0112
X16.0295Y-10.212
X16.0295Y-10.3892
X16.0465Y-9.459
X16.0465Y-9.6362
X16.2854Y-10.212
X16.2854Y-10.3892
X16.3024Y-9.459
X16.3024Y-9.6362
X16.4875Y-9.8415
X16.4875Y-10.0187
X16.7434Y-9.8415
X16.7434Y-10.0187
T6
X5.143Y-9.453
X5.144Y-7.196
X5.1455Y-8.701
X5.3385Y-7.9495
X5.393Y-9.353
X5.394Y-7.096
X5.3955Y-8.601
X5.5885Y-7.8495
X5.894Y-7.196
X5.896Y-8.7025
X6.081Y-9.452
X6.144Y-7.096
X6.146Y-8.6025
X6.265Y-6.4455
X6.274Y-7.949
X6.331Y-9.352
X6.515Y-6.3455
X6.524Y-7.849
X6.644Y-7.1965
X6.6455Y-8.702
X6.894Y-7.0965
X6.8955Y-8.602
X7.018Y-9.451
X7.023Y-7.949
X7.268Y-9.351
X7.273Y-7.849
X7.3935Y-7.197
X7.395Y-8.703
X7.6435Y-7.097
X7.645Y-8.603
X7.768Y-6.4455
X7.768Y-9.451
X7.7735Y-7.949
X7.9575Y-10.201
X8.018Y-6.3455
X8.018Y-9.351
X8.0235Y-7.849
X8.1435Y-7.1975
X8.1445Y-8.703
X8.2075Y-10.101
X8.236Y-6.445
X8.3935Y-7.0975
X8.3945Y-8.603
X8.486Y-6.345
X8.5185Y-9.4505
X8.5225Y-7.949
X8.7685Y-9.3505
X8.7725Y-7.849
X8.8935Y-7.198
X8.8945Y-8.7035
X9.1435Y-7.098
X9.1445Y-8.6035
X9.2675Y-6.4475
X9.2685Y-9.451
X9.269Y-7.949
X9.5175Y-6.3475
X9.5185Y-9.351
X9.519Y-7.849
X9.644Y-7.1975
X9.6445Y-8.703
X9.894Y-7.0975
X9.8945Y-8.603
X9.926Y-6.4485
X10.019Y-9.4515
X10.0205Y-7.949
X10.176Y-6.3485
X10.269Y-9.3515
X10.2705Y-7.849
X10.3925Y-8.703
X10.3945Y-7.1985
X10.6425Y-8.603
X10.6445Y-7.0985
X10.7675Y-6.446
X10.7695Y-9.4515
X10.7701Y-10.198
X10.7715Y-7.949
X11.0175Y-6.346
X11.0195Y-9.3515
X11.0201Y-10.098
X11.0215Y-7.849
X11.1425Y-8.7025
X11.145Y-7.199
X11.3925Y-8.6025
X11.395Y-7.099
X11.5195Y-9.4515
X11.527Y-7.949
X11.6115Y-6.4455
X11.7695Y-9.3515
X11.777Y-7.849
X11.8615Y-6.3455
X11.8925Y-8.704
X11.895Y-7.199
X12.1425Y-8.604
X12.145Y-7.099
X12.269Y-9.4515
X12.2735Y-7.949
X12.519Y-9.3515
X12.5235Y-7.849
X12.643Y-8.7035
X12.6445Y-7.199
X12.893Y-8.6035
X12.8945Y-7.099
X13.019Y-9.451
X13.0245Y-7.949
X13.269Y-9.351
X13.2745Y-7.849
X13.2985Y-6.446
X13.3935Y-8.703
X13.394Y-7.1995
X13.5485Y-6.346
X13.5825Y-10.202
X13.6435Y-8.603
X13.644Y-7.0995
X13.7695Y-9.452
X13.775Y-7.949
X13.8325Y-10.102
X14.0195Y-9.352
X14.025Y-7.849
X14.1425Y-7.201
X14.1435Y-8.702
X14.3925Y-7.101
X14.3935Y-8.602
X14.524Y-7.9485
X14.706Y-9.451
X14.774Y-7.8485
X14.8945Y-7.1985
X14.8945Y-10.2025
X14.956Y-9.351
X15.1445Y-7.0985
X15.1445Y-10.1025
X15.2675Y-8.7006
X15.2735Y-7.9525
X15.5175Y-8.6006
X15.5235Y-7.8525
X15.643Y-9.4505
X15.644Y-7.1995
X15.645Y-10.2025
X15.893Y-9.3505
X15.894Y-7.0995
X15.895Y-10.1025
X16.2105Y-7.952
X16.394Y-7.202
X16.394Y-10.2025
X16.4605Y-7.852
X16.644Y-7.102
X16.644Y-10.1025
X17.3415Y-7.2035
X17.3415Y-7.954
X17.3425Y-9.453
X17.343Y-8.7025
X17.343Y-10.202
X17.5915Y-7.1035
X17.5915Y-7.854
X17.5925Y-9.353
X17.593Y-8.6025
X17.593Y-10.102
X18.0905Y-7.2035
X18.0925Y-7.9535
X18.093Y-8.7025
X18.093Y-9.452
X18.093Y-10.2035
X18.3405Y-7.1035
X18.3425Y-7.8535
X18.343Y-8.6025
X18.343Y-9.352
X18.343Y-10.1035
X18.8425Y-9.4525
X18.8435Y-7.2035
X18.8435Y-10.203
X18.8445Y-8.704
X18.845Y-7.955
X19.0925Y-9.3525
X19.0935Y-7.1035
X19.0935Y-10.103
X19.0945Y-8.604
X19.095Y-7.855
X19.594Y-7.2025
X19.594Y-9.827
X19.5945Y-7.955
X19.5945Y-8.704
X19.844Y-7.1025
X19.844Y-9.727
X19.8445Y-7.855
X19.8445Y-8.604
T7
X5.093Y-9.553
X5.094Y-7.296
X5.0955Y-8.801
X5.2885Y-8.0495
X5.493Y-9.553
X5.494Y-7.296
X5.4955Y-8.801
X5.6885Y-8.0495
X5.844Y-7.296
X5.846Y-8.8025
X6.031Y-9.552
X6.215Y-6.5455
X6.224Y-8.049
X6.244Y-7.296
X6.246Y-8.8025
X6.431Y-9.552
X6.594Y-7.2965
X6.5955Y-8.802
X6.615Y-6.5455
X6.624Y-8.049
X6.968Y-9.551
X6.973Y-8.049
X6.994Y-7.2965
X6.9955Y-8.802
X7.3435Y-7.297
X7.345Y-8.803
X7.368Y-9.551
X7.373Y-8.049
X7.718Y-6.5455
X7.718Y-9.551
X7.7235Y-8.049
X7.7435Y-7.297
X7.745Y-8.803
X7.9075Y-10.301
X8.0935Y-7.2975
X8.0945Y-8.803
X8.118Y-6.5455
X8.118Y-9.551
X8.1235Y-8.049
X8.186Y-6.545
X8.3075Y-10.301
X8.4685Y-9.5505
X8.4725Y-8.049
X8.4935Y-7.2975
X8.4945Y-8.803
X8.586Y-6.545
X8.8435Y-7.298
X8.8445Y-8.8035
X8.8685Y-9.5505
X8.8725Y-8.049
X9.2175Y-6.5475
X9.2185Y-9.551
X9.219Y-8.049
X9.2435Y-7.298
X9.2445Y-8.8035
X9.594Y-7.2975
X9.5945Y-8.803
X9.6175Y-6.5475
X9.6185Y-9.551
X9.619Y-8.049
X9.876Y-6.5485
X9.969Y-9.5515
X9.9705Y-8.049
X9.994Y-7.2975
X9.9945Y-8.803
X10.276Y-6.5485
X10.3425Y-8.803
X10.3445Y-7.2985
X10.369Y-9.5515
X10.3705Y-8.049
X10.7175Y-6.546
X10.7195Y-9.5515
X10.7201Y-10.298
X10.7215Y-8.049
X10.7425Y-8.803
X10.7445Y-7.2985
X11.0925Y-8.8025
X11.095Y-7.299
X11.1175Y-6.546
X11.1195Y-9.5515
X11.1201Y-10.298
X11.1215Y-8.049
X11.4695Y-9.5515
X11.477Y-8.049
X11.4925Y-8.8025
X11.495Y-7.299
X11.5615Y-6.5455
X11.8425Y-8.804
X11.845Y-7.299
X11.8695Y-9.5515
X11.877Y-8.049
X11.9615Y-6.5455
X12.219Y-9.5515
X12.2235Y-8.049
X12.2425Y-8.804
X12.245Y-7.299
X12.593Y-8.8035
X12.5945Y-7.299
X12.619Y-9.5515
X12.6235Y-8.049
X12.969Y-9.551
X12.9745Y-8.049
X12.993Y-8.8035
X12.9945Y-7.299
X13.2485Y-6.546
X13.3435Y-8.803
X13.344Y-7.2995
X13.369Y-9.551
X13.3745Y-8.049
X13.5325Y-10.302
X13.6485Y-6.546
X13.7195Y-9.552
X13.725Y-8.049
X13.7435Y-8.803
X13.744Y-7.2995
X13.9325Y-10.302
X14.0925Y-7.301
X14.0935Y-8.802
X14.1195Y-9.552
X14.125Y-8.049
X14.474Y-8.0485
X14.4925Y-7.301
X14.4935Y-8.802
X14.656Y-9.551
X14.8445Y-7.2985
X14.8445Y-10.3025
X14.874Y-8.0485
X15.056Y-9.551
X15.2175Y-8.8006
X15.2235Y-8.0525
X15.2445Y-7.2985
X15.2445Y-10.3025
X15.593Y-9.5505
X15.594Y-7.2995
X15.595Y-10.3025
X15.6175Y-8.8006
X15.6235Y-8.0525
X15.993Y-9.5505
X15.994Y-7.2995
X15.995Y-10.3025
X16.1605Y-8.052
X16.344Y-7.302
X16.344Y-10.3025
X16.5605Y-8.052
X16.744Y-7.302
X16.744Y-10.3025
X17.2915Y-7.3035
X17.2915Y-8.054
X17.2925Y-9.553
X17.293Y-8.8025
X17.293Y-10.302
X17.6915Y-7.3035
X17.6915Y-8.054
X17.6925Y-9.553
X17.693Y-8.8025
X17.693Y-10.302
X18.0405Y-7.3035
X18.0425Y-8.0535
X18.043Y-8.8025
X18.043Y-9.552
X18.043Y-10.3035
X18.4405Y-7.3035
X18.4425Y-8.0535
X18.443Y-8.8025
X18.443Y-9.552
X18.443Y-10.3035
X18.7925Y-9.5525
X18.7935Y-7.3035
X18.7935Y-10.303
X18.7945Y-8.804
X18.795Y-8.055
X19.1925Y-9.5525
X19.1935Y-7.3035
X19.1935Y-10.303
X19.1945Y-8.804
X19.195Y-8.055
X19.544Y-7.3025
X19.544Y-9.927
X19.5445Y-8.055
X19.5445Y-8.804
X19.944Y-7.3025
X19.944Y-9.927
X19.9445Y-8.055
X19.9445Y-8.804
T8
X8.991Y-10.0224
X12.8493Y-10.0224
X14.949Y-8.525
X15.886Y-8.525
X19.4684Y-9.4585
X19.4684Y-10.3955
T9
X5.293Y-9.553
X5.294Y-7.296
X5.2955Y-8.801
X5.4885Y-8.0495
X6.044Y-7.296
X6.046Y-8.8025
X6.231Y-9.552
X6.415Y-6.5455
X6.424Y-8.049
X6.794Y-7.2965
X6.7955Y-8.802
X7.168Y-9.551
X7.173Y-8.049
X7.5435Y-7.297
X7.545Y-8.803
X7.918Y-6.5455
X7.918Y-9.551
X7.9235Y-8.049
X8.1075Y-10.301
X8.2935Y-7.2975
X8.2945Y-8.803
X8.386Y-6.545
X8.6685Y-9.5505
X8.6725Y-8.049
X8.991Y-10.6224
X9.0435Y-7.298
X9.0445Y-8.8035
X9.4175Y-6.5475
X9.4185Y-9.551
X9.419Y-8.049
X9.794Y-7.2975
X9.7945Y-8.803
X10.076Y-6.5485
X10.169Y-9.5515
X10.1705Y-8.049
X10.5425Y-8.803
X10.5445Y-7.2985
X10.9175Y-6.546
X10.9195Y-9.5515
X10.9201Y-10.298
X10.9215Y-8.049
X11.2925Y-8.8025
X11.295Y-7.299
X11.6695Y-9.5515
X11.677Y-8.049
X11.7615Y-6.5455
X12.0425Y-8.804
X12.045Y-7.299
X12.419Y-9.5515
X12.4235Y-8.049
X12.793Y-8.8035
X12.7945Y-7.299
X12.8493Y-10.6224
X13.169Y-9.551
X13.1745Y-8.049
X13.4485Y-6.546
X13.5435Y-8.803
X13.544Y-7.2995
X13.7325Y-10.302
X13.9195Y-9.552
X13.925Y-8.049
X14.2925Y-7.301
X14.2935Y-8.802
X14.674Y-8.0485
X14.856Y-9.551
X14.949Y-9.125
X15.0445Y-7.2985
X15.0445Y-10.3025
X15.4175Y-8.8006
X15.4235Y-8.0525
X15.793Y-9.5505
X15.794Y-7.2995
X15.795Y-10.3025
X15.886Y-9.125
X16.3605Y-8.052
X16.544Y-7.302
X16.544Y-10.3025
X17.4915Y-7.3035
X17.4915Y-8.054
X17.4925Y-9.553
X17.493Y-8.8025
X17.493Y-10.302
X18.2405Y-7.3035
X18.2425Y-8.0535
X18.243Y-8.8025
X18.243Y-9.552
X18.243Y-10.3035
X18.9925Y-9.5525
X18.9935Y-7.3035
X18.9935Y-10.303
X18.9945Y-8.804
X18.995Y-8.055
X19.744Y-7.3025
X19.744Y-9.927
X19.7445Y-8.055
X19.7445Y-8.804
X20.0684Y-9.4585
X20.0684Y-10.3955
T0
M30
