G04 #@! TF.GenerationSoftware,KiCad,Pcbnew,(5.1.9)-1*
G04 #@! TF.CreationDate,2021-06-29T21:56:24-04:00*
G04 #@! TF.ProjectId,v364mx,76333634-6d78-42e6-9b69-6361645f7063,rev?*
G04 #@! TF.SameCoordinates,Original*
G04 #@! TF.FileFunction,Profile,NP*
%FSLAX46Y46*%
G04 Gerber Fmt 4.6, Leading zero omitted, Abs format (unit mm)*
G04 Created by KiCad (PCBNEW (5.1.9)-1) date 2021-06-29 21:56:24*
%MOMM*%
%LPD*%
G01*
G04 APERTURE LIST*
G04 #@! TA.AperFunction,Profile*
%ADD10C,0.050000*%
G04 #@! TD*
G04 APERTURE END LIST*
D10*
X358392100Y-147269200D02*
G75*
G03*
X358392100Y-147269200I-2500000J0D01*
G01*
X439888000Y-277266400D02*
G75*
G03*
X439888000Y-277266400I-2500000J0D01*
G01*
X439888000Y-147358100D02*
G75*
G03*
X439888000Y-147358100I-2500000J0D01*
G01*
X456385300Y-147269200D02*
G75*
G03*
X456385300Y-147269200I-2500000J0D01*
G01*
X508019994Y-277279100D02*
G75*
G03*
X508019994Y-277279100I-3995094J0D01*
G01*
X508177800Y-281774900D02*
X436803800Y-281774900D01*
X508177800Y-141427200D02*
X436791100Y-141427200D01*
X514019800Y-147853400D02*
X514019800Y-147269200D01*
X514019800Y-275932900D02*
X514019800Y-147853400D01*
X134944794Y-277266400D02*
G75*
G03*
X134944794Y-277266400I-3995094J0D01*
G01*
X424949294Y-277253700D02*
G75*
G03*
X424949294Y-277253700I-3995094J0D01*
G01*
X120726200Y-281774900D02*
X425119800Y-281774900D01*
X425107100Y-141427200D02*
X120726200Y-141427200D01*
X425107100Y-141427200D02*
G75*
G02*
X430949100Y-147269200I0J-5842000D01*
G01*
X430949100Y-147269200D02*
G75*
G02*
X436791100Y-141427200I5842000J0D01*
G01*
X436803800Y-281774900D02*
G75*
G02*
X430961800Y-275932900I0J5842000D01*
G01*
X430961800Y-275932900D02*
G75*
G02*
X425119800Y-281774900I-5842000J0D01*
G01*
X433436400Y-204584300D02*
G75*
G03*
X433436400Y-204584300I-2500000J0D01*
G01*
X433411000Y-162663500D02*
G75*
G03*
X433411000Y-162663500I-2500000J0D01*
G01*
X433449100Y-256578100D02*
G75*
G03*
X433449100Y-256578100I-2500000J0D01*
G01*
X456385300Y-277266400D02*
G75*
G03*
X456385300Y-277266400I-2500000J0D01*
G01*
X506524900Y-147269200D02*
G75*
G03*
X506524900Y-147269200I-2500000J0D01*
G01*
X114884200Y-275932900D02*
X114884200Y-147269200D01*
X323441700Y-277266400D02*
G75*
G03*
X323441700Y-277266400I-2500000J0D01*
G01*
X233436800Y-147269200D02*
G75*
G03*
X233436800Y-147269200I-2500000J0D01*
G01*
X496466500Y-147269200D02*
G75*
G03*
X496466500Y-147269200I-2500000J0D01*
G01*
X413446600Y-277266400D02*
G75*
G03*
X413446600Y-277266400I-2500000J0D01*
G01*
X143431900Y-147269200D02*
G75*
G03*
X143431900Y-147269200I-2500000J0D01*
G01*
X508177800Y-141427200D02*
G75*
G02*
X514019800Y-147269200I0J-5842000D01*
G01*
X323441700Y-147269200D02*
G75*
G03*
X323441700Y-147269200I-2500000J0D01*
G01*
X143419200Y-277266400D02*
G75*
G03*
X143419200Y-277266400I-2500000J0D01*
G01*
X233436800Y-277266400D02*
G75*
G03*
X233436800Y-277266400I-2500000J0D01*
G01*
X496517300Y-277253700D02*
G75*
G03*
X496517300Y-277253700I-2500000J0D01*
G01*
X114884200Y-147269200D02*
G75*
G02*
X120726200Y-141427200I5842000J0D01*
G01*
X514019800Y-275932900D02*
G75*
G02*
X508177800Y-281774900I-5842000J0D01*
G01*
X413446600Y-147269200D02*
G75*
G03*
X413446600Y-147269200I-2500000J0D01*
G01*
X120726200Y-281774900D02*
G75*
G02*
X114884200Y-275932900I0J5842000D01*
G01*
M02*
