G04 #@! TF.GenerationSoftware,KiCad,Pcbnew,(5.1.9)-1*
G04 #@! TF.CreationDate,2021-06-29T21:56:23-04:00*
G04 #@! TF.ProjectId,v364mx,76333634-6d78-42e6-9b69-6361645f7063,rev?*
G04 #@! TF.SameCoordinates,Original*
G04 #@! TF.FileFunction,Copper,L1,Top*
G04 #@! TF.FilePolarity,Positive*
%FSLAX46Y46*%
G04 Gerber Fmt 4.6, Leading zero omitted, Abs format (unit mm)*
G04 Created by KiCad (PCBNEW (5.1.9)-1) date 2021-06-29 21:56:23*
%MOMM*%
%LPD*%
G01*
G04 APERTURE LIST*
G04 #@! TA.AperFunction,Profile*
%ADD10C,0.050000*%
G04 #@! TD*
G04 #@! TA.AperFunction,ComponentPad*
%ADD11C,2.200000*%
G04 #@! TD*
G04 #@! TA.AperFunction,ComponentPad*
%ADD12C,2.000000*%
G04 #@! TD*
G04 #@! TA.AperFunction,ComponentPad*
%ADD13O,1.700000X1.700000*%
G04 #@! TD*
G04 #@! TA.AperFunction,ComponentPad*
%ADD14R,1.700000X1.700000*%
G04 #@! TD*
G04 #@! TA.AperFunction,ComponentPad*
%ADD15C,1.800000*%
G04 #@! TD*
G04 #@! TA.AperFunction,ComponentPad*
%ADD16R,1.800000X1.800000*%
G04 #@! TD*
G04 #@! TA.AperFunction,ComponentPad*
%ADD17O,1.400000X1.400000*%
G04 #@! TD*
G04 #@! TA.AperFunction,ComponentPad*
%ADD18C,1.400000*%
G04 #@! TD*
G04 #@! TA.AperFunction,ViaPad*
%ADD19C,0.800000*%
G04 #@! TD*
G04 #@! TA.AperFunction,Conductor*
%ADD20C,0.400000*%
G04 #@! TD*
G04 #@! TA.AperFunction,Conductor*
%ADD21C,0.250000*%
G04 #@! TD*
G04 #@! TA.AperFunction,Conductor*
%ADD22C,0.600000*%
G04 #@! TD*
G04 APERTURE END LIST*
D10*
X358392100Y-147269200D02*
G75*
G03*
X358392100Y-147269200I-2500000J0D01*
G01*
X439888000Y-277266400D02*
G75*
G03*
X439888000Y-277266400I-2500000J0D01*
G01*
X439888000Y-147358100D02*
G75*
G03*
X439888000Y-147358100I-2500000J0D01*
G01*
X456385300Y-147269200D02*
G75*
G03*
X456385300Y-147269200I-2500000J0D01*
G01*
X508019994Y-277279100D02*
G75*
G03*
X508019994Y-277279100I-3995094J0D01*
G01*
X508177800Y-281774900D02*
X436803800Y-281774900D01*
X508177800Y-141427200D02*
X436791100Y-141427200D01*
X514019800Y-147853400D02*
X514019800Y-147269200D01*
X514019800Y-275932900D02*
X514019800Y-147853400D01*
X134944794Y-277266400D02*
G75*
G03*
X134944794Y-277266400I-3995094J0D01*
G01*
X424949294Y-277253700D02*
G75*
G03*
X424949294Y-277253700I-3995094J0D01*
G01*
X120726200Y-281774900D02*
X425119800Y-281774900D01*
X425107100Y-141427200D02*
X120726200Y-141427200D01*
X425107100Y-141427200D02*
G75*
G02*
X430949100Y-147269200I0J-5842000D01*
G01*
X430949100Y-147269200D02*
G75*
G02*
X436791100Y-141427200I5842000J0D01*
G01*
X436803800Y-281774900D02*
G75*
G02*
X430961800Y-275932900I0J5842000D01*
G01*
X430961800Y-275932900D02*
G75*
G02*
X425119800Y-281774900I-5842000J0D01*
G01*
X433436400Y-204584300D02*
G75*
G03*
X433436400Y-204584300I-2500000J0D01*
G01*
X433411000Y-162663500D02*
G75*
G03*
X433411000Y-162663500I-2500000J0D01*
G01*
X433449100Y-256578100D02*
G75*
G03*
X433449100Y-256578100I-2500000J0D01*
G01*
X456385300Y-277266400D02*
G75*
G03*
X456385300Y-277266400I-2500000J0D01*
G01*
X506524900Y-147269200D02*
G75*
G03*
X506524900Y-147269200I-2500000J0D01*
G01*
X114884200Y-275932900D02*
X114884200Y-147269200D01*
X323441700Y-277266400D02*
G75*
G03*
X323441700Y-277266400I-2500000J0D01*
G01*
X233436800Y-147269200D02*
G75*
G03*
X233436800Y-147269200I-2500000J0D01*
G01*
X496466500Y-147269200D02*
G75*
G03*
X496466500Y-147269200I-2500000J0D01*
G01*
X413446600Y-277266400D02*
G75*
G03*
X413446600Y-277266400I-2500000J0D01*
G01*
X143431900Y-147269200D02*
G75*
G03*
X143431900Y-147269200I-2500000J0D01*
G01*
X508177800Y-141427200D02*
G75*
G02*
X514019800Y-147269200I0J-5842000D01*
G01*
X323441700Y-147269200D02*
G75*
G03*
X323441700Y-147269200I-2500000J0D01*
G01*
X143419200Y-277266400D02*
G75*
G03*
X143419200Y-277266400I-2500000J0D01*
G01*
X233436800Y-277266400D02*
G75*
G03*
X233436800Y-277266400I-2500000J0D01*
G01*
X496517300Y-277253700D02*
G75*
G03*
X496517300Y-277253700I-2500000J0D01*
G01*
X114884200Y-147269200D02*
G75*
G02*
X120726200Y-141427200I5842000J0D01*
G01*
X514019800Y-275932900D02*
G75*
G02*
X508177800Y-281774900I-5842000J0D01*
G01*
X413446600Y-147269200D02*
G75*
G03*
X413446600Y-147269200I-2500000J0D01*
G01*
X120726200Y-281774900D02*
G75*
G02*
X114884200Y-275932900I0J5842000D01*
G01*
D11*
X387794600Y-220995000D03*
X394144600Y-218455000D03*
X359219500Y-182905400D03*
X365569500Y-180365400D03*
X485000300Y-218541600D03*
X478650300Y-221081600D03*
X411746700Y-201980800D03*
X418096700Y-199440800D03*
X337781900Y-163728400D03*
X344131900Y-161188400D03*
X294932100Y-163715700D03*
X301282100Y-161175700D03*
X252120400Y-163791900D03*
X258470400Y-161251900D03*
X209194400Y-163703000D03*
X215544400Y-161163000D03*
X340207600Y-182867300D03*
X346557600Y-180327300D03*
X273494500Y-163728400D03*
X279844500Y-161188400D03*
X235394500Y-163766500D03*
X241744500Y-161226500D03*
X197307200Y-163715700D03*
X203657200Y-161175700D03*
X159131000Y-163715700D03*
X165481000Y-161175700D03*
X279911800Y-256489200D03*
X273561800Y-259029200D03*
X344995500Y-259130800D03*
X351345500Y-256590800D03*
X446862200Y-218503500D03*
X440512200Y-221043500D03*
D12*
X413649300Y-259384800D03*
X413649300Y-263884800D03*
X407149300Y-259384800D03*
X407149300Y-263884800D03*
X425282500Y-249974100D03*
X425282500Y-254474100D03*
X418782500Y-249974100D03*
X418782500Y-254474100D03*
X402155800Y-249783600D03*
X402155800Y-254283600D03*
X395655800Y-249783600D03*
X395655800Y-254283600D03*
X414081100Y-240258600D03*
X414081100Y-244758600D03*
X407581100Y-240258600D03*
X407581100Y-244758600D03*
D13*
X123850400Y-205054200D03*
X123850400Y-207594200D03*
X123850400Y-210134200D03*
X123850400Y-212674200D03*
X123850400Y-215214200D03*
X123850400Y-217754200D03*
X123850400Y-220294200D03*
X123850400Y-222834200D03*
X123850400Y-225374200D03*
X123850400Y-227914200D03*
X123850400Y-230454200D03*
X123850400Y-232994200D03*
X123850400Y-235534200D03*
X123850400Y-238074200D03*
X123850400Y-240614200D03*
X123850400Y-243154200D03*
X123850400Y-245694200D03*
D14*
X123850400Y-248234200D03*
D13*
X373710200Y-157010100D03*
X373710200Y-154470100D03*
X376250200Y-157010100D03*
X376250200Y-154470100D03*
X378790200Y-157010100D03*
X378790200Y-154470100D03*
X381330200Y-157010100D03*
X381330200Y-154470100D03*
X383870200Y-157010100D03*
X383870200Y-154470100D03*
X386410200Y-157010100D03*
X386410200Y-154470100D03*
X388950200Y-157010100D03*
X388950200Y-154470100D03*
X391490200Y-157010100D03*
X391490200Y-154470100D03*
X394030200Y-157010100D03*
X394030200Y-154470100D03*
X396570200Y-157010100D03*
D14*
X396570200Y-154470100D03*
D13*
X433793900Y-246773700D03*
X433793900Y-244233700D03*
X433793900Y-241693700D03*
X433793900Y-239153700D03*
X433793900Y-236613700D03*
X433793900Y-234073700D03*
X433793900Y-231533700D03*
X433793900Y-228993700D03*
X433793900Y-226453700D03*
X433793900Y-223913700D03*
X433793900Y-221373700D03*
X433793900Y-218833700D03*
X433793900Y-216293700D03*
X433793900Y-213753700D03*
X433793900Y-211213700D03*
D14*
X433793900Y-208673700D03*
D13*
X428180500Y-246773700D03*
X428180500Y-244233700D03*
X428180500Y-241693700D03*
X428180500Y-239153700D03*
X428180500Y-236613700D03*
X428180500Y-234073700D03*
X428180500Y-231533700D03*
X428180500Y-228993700D03*
X428180500Y-226453700D03*
X428180500Y-223913700D03*
X428180500Y-221373700D03*
X428180500Y-218833700D03*
X428180500Y-216293700D03*
X428180500Y-213753700D03*
X428180500Y-211213700D03*
D14*
X428180500Y-208673700D03*
D13*
X118427500Y-260680200D03*
D14*
X118427500Y-258140200D03*
D13*
X366572800Y-154355800D03*
D14*
X364032800Y-154355800D03*
D15*
X145694400Y-265988800D03*
D16*
X148234400Y-265988800D03*
D15*
X155968700Y-265988800D03*
D16*
X158508700Y-265988800D03*
D11*
X283083000Y-182854600D03*
X289433000Y-180314600D03*
D17*
X131508500Y-266065000D03*
D18*
X123888500Y-266065000D03*
D15*
X134340600Y-266052300D03*
D16*
X136880600Y-266052300D03*
D11*
X368909600Y-201891900D03*
X375259600Y-199351900D03*
X135597900Y-201917300D03*
X141947900Y-199377300D03*
X202120500Y-259105400D03*
X208470500Y-256565400D03*
X154457400Y-240080800D03*
X160807400Y-237540800D03*
X149758400Y-221043500D03*
X156108400Y-218503500D03*
X130632200Y-240106200D03*
X136982200Y-237566200D03*
X416407600Y-182930800D03*
X422757600Y-180390800D03*
X446849500Y-237566200D03*
X440499500Y-240106200D03*
X244957600Y-182816500D03*
X251307600Y-180276500D03*
X359244900Y-221030800D03*
X365594900Y-218490800D03*
D13*
X314769500Y-264414000D03*
X312229500Y-264414000D03*
X314769500Y-261874000D03*
X312229500Y-261874000D03*
X314769500Y-259334000D03*
D14*
X312229500Y-259334000D03*
D13*
X249008900Y-263969500D03*
X246468900Y-263969500D03*
X249008900Y-261429500D03*
X246468900Y-261429500D03*
X249008900Y-258889500D03*
D14*
X246468900Y-258889500D03*
D11*
X440512200Y-259130800D03*
X446862200Y-256590800D03*
X416407600Y-259143500D03*
X422757600Y-256603500D03*
X378320300Y-259143500D03*
X384670300Y-256603500D03*
X397383000Y-259143500D03*
X403733000Y-256603500D03*
X497687600Y-249605800D03*
X504037600Y-247065800D03*
X373532400Y-240055400D03*
X379882400Y-237515400D03*
X216369900Y-240042700D03*
X222719900Y-237502700D03*
X197307200Y-240055400D03*
X203657200Y-237515400D03*
X130695700Y-221005400D03*
X137045700Y-218465400D03*
X478624900Y-259156200D03*
X484974900Y-256616200D03*
X459562200Y-259168900D03*
X465912200Y-256628900D03*
X387946900Y-201993500D03*
X394296900Y-199453500D03*
X349745300Y-240080800D03*
X356095300Y-237540800D03*
X330682600Y-240055400D03*
X337032600Y-237515400D03*
X273545300Y-240068100D03*
X279895300Y-237528100D03*
X254482600Y-240068100D03*
X260832600Y-237528100D03*
X235419900Y-240055400D03*
X241769900Y-237515400D03*
X187833000Y-221056200D03*
X194183000Y-218516200D03*
X378320300Y-182841900D03*
X384670300Y-180301900D03*
X178384200Y-201904600D03*
X184734200Y-199364600D03*
X168757600Y-182791100D03*
X175107600Y-180251100D03*
X397357600Y-182867300D03*
X403707600Y-180327300D03*
D13*
X182511700Y-269341600D03*
X179971700Y-269341600D03*
X182511700Y-266801600D03*
X179971700Y-266801600D03*
X182511700Y-264261600D03*
D14*
X179971700Y-264261600D03*
D11*
X251320300Y-218516200D03*
X244970300Y-221056200D03*
X397332200Y-240042700D03*
X403682200Y-237502700D03*
X241782600Y-199364600D03*
X235432600Y-201904600D03*
X311632600Y-240068100D03*
X317982600Y-237528100D03*
X225920300Y-221068900D03*
X232270300Y-218528900D03*
X298945300Y-237528100D03*
X292595300Y-240068100D03*
X263969500Y-221056200D03*
X270319500Y-218516200D03*
X137007600Y-180238400D03*
X130657600Y-182778400D03*
X149707600Y-182778400D03*
X156057600Y-180238400D03*
X187794900Y-182803800D03*
X194144900Y-180263800D03*
X213194900Y-180276500D03*
X206844900Y-182816500D03*
X225894900Y-182829200D03*
X232244900Y-180289200D03*
X270370300Y-180301900D03*
X264020300Y-182841900D03*
X308483000Y-180314600D03*
X302133000Y-182854600D03*
X321170300Y-182854600D03*
X327520300Y-180314600D03*
X446824100Y-180428900D03*
X440474100Y-182968900D03*
X459498700Y-182968900D03*
X465848700Y-180428900D03*
X484974900Y-180428900D03*
X478624900Y-182968900D03*
X497687600Y-182943500D03*
X504037600Y-180403500D03*
X159359600Y-201904600D03*
X165709600Y-199364600D03*
X197446900Y-201904600D03*
X203796900Y-199364600D03*
X222821500Y-199364600D03*
X216471500Y-201904600D03*
X279946100Y-199364600D03*
X273596100Y-201904600D03*
X292785800Y-201904600D03*
X299135800Y-199364600D03*
X318096900Y-199364600D03*
X311746900Y-201904600D03*
X446824100Y-199491600D03*
X440474100Y-202031600D03*
X459549500Y-202018900D03*
X465899500Y-199478900D03*
X485013000Y-199517000D03*
X478663000Y-202057000D03*
X497700300Y-202057000D03*
X504050300Y-199517000D03*
X168795700Y-221030800D03*
X175145700Y-218490800D03*
X206870300Y-221056200D03*
X213220300Y-218516200D03*
X254520700Y-201904600D03*
X260870700Y-199364600D03*
X289369500Y-218503500D03*
X283019500Y-221043500D03*
X302069500Y-221081600D03*
X308419500Y-218541600D03*
X327482200Y-218528900D03*
X321132200Y-221068900D03*
X330822300Y-201904600D03*
X337172300Y-199364600D03*
X459562200Y-221043500D03*
X465912200Y-218503500D03*
X497700300Y-221081600D03*
X504050300Y-218541600D03*
X178257200Y-240055400D03*
X184607200Y-237515400D03*
X346544900Y-218516200D03*
X340194900Y-221056200D03*
X349885000Y-201904600D03*
X356235000Y-199364600D03*
X459562200Y-240080800D03*
X465912200Y-237540800D03*
X484949500Y-237553500D03*
X478599500Y-240093500D03*
D19*
X395312900Y-178447700D03*
X440893200Y-233616500D03*
X184296050Y-195751450D03*
X397497300Y-192659000D03*
X405968200Y-238721900D03*
X410197300Y-231482900D03*
X138950700Y-215201500D03*
X175145700Y-215188800D03*
X375259600Y-210350100D03*
X408152600Y-212610700D03*
X404304500Y-201599800D03*
X452272400Y-216027000D03*
X141757400Y-237451900D03*
X400088100Y-213537800D03*
X132219700Y-210134200D03*
X314731400Y-238480600D03*
X164115750Y-235134150D03*
X322694300Y-175856900D03*
X387680200Y-175869600D03*
X468071200Y-226783900D03*
X341693500Y-232968800D03*
X131622800Y-230454200D03*
X476237300Y-227850700D03*
X221615000Y-159461200D03*
X194170300Y-234073700D03*
X398614900Y-221272100D03*
X389001000Y-210845400D03*
X250266200Y-169456100D03*
X457238100Y-235445300D03*
X391375900Y-169456100D03*
X209340450Y-233013250D03*
X407123900Y-231381300D03*
X450291200Y-238328200D03*
X394817600Y-208597500D03*
X263956800Y-215290400D03*
X412203900Y-236613700D03*
X410857700Y-210045300D03*
X439877200Y-245402100D03*
X473087700Y-240639600D03*
X386473700Y-172605700D03*
X288740850Y-234422950D03*
X329145900Y-172605700D03*
X445782700Y-246722900D03*
X490105700Y-184277000D03*
X383908300Y-174091600D03*
X366306100Y-174091600D03*
X127419100Y-237147100D03*
X381304800Y-170903900D03*
X392823700Y-257263900D03*
X367741200Y-207048100D03*
X492163100Y-194691000D03*
X137655300Y-248170700D03*
X418198300Y-246773700D03*
X378675900Y-167868600D03*
X416915600Y-225247200D03*
X383590800Y-201498200D03*
X143154400Y-256260600D03*
X439432700Y-232181400D03*
X130695700Y-212674200D03*
X405053800Y-266420600D03*
X413829500Y-228993700D03*
X449275200Y-217246200D03*
X412356300Y-255447800D03*
X146456400Y-205536800D03*
X449275200Y-209016600D03*
X474408500Y-218528900D03*
X401320000Y-177520600D03*
X415950400Y-208927700D03*
X163855400Y-227914200D03*
X491350300Y-223710500D03*
X412661100Y-223545400D03*
X396862300Y-189738000D03*
X382600200Y-166484300D03*
X381571500Y-180454300D03*
X166979600Y-242773200D03*
X286213550Y-177336450D03*
X466013800Y-250621800D03*
X457936600Y-218503500D03*
X454977500Y-229527100D03*
X374167400Y-178269900D03*
X400100800Y-228511100D03*
X387883400Y-228511100D03*
D20*
X186575700Y-225018600D02*
X185661300Y-225018600D01*
X185661300Y-225018600D02*
X185420000Y-225259900D01*
X185420000Y-225259900D02*
X185420000Y-225679000D01*
X185420000Y-225679000D02*
X185699400Y-225958400D01*
X185699400Y-225958400D02*
X186436000Y-225958400D01*
X186436000Y-225958400D02*
X186639200Y-226161600D01*
X186639200Y-226161600D02*
X186639200Y-226809300D01*
X186639200Y-226809300D02*
X186423300Y-227025200D01*
X186423300Y-227025200D02*
X184899300Y-227025200D01*
X187020200Y-227012500D02*
X187642500Y-227012500D01*
X187642500Y-227012500D02*
X187896500Y-226758500D01*
X187896500Y-226758500D02*
X187896500Y-225031300D01*
X189572900Y-225056700D02*
X188772800Y-225056700D01*
X188772800Y-225056700D02*
X188518800Y-225310700D01*
X188518800Y-225310700D02*
X188518800Y-226758500D01*
X188518800Y-226758500D02*
X188760100Y-226999800D01*
X188760100Y-226999800D02*
X189712600Y-226999800D01*
X189712600Y-226999800D02*
X189877700Y-226834700D01*
X189877700Y-226834700D02*
X189877700Y-226034600D01*
X189877700Y-226034600D02*
X189814200Y-225971100D01*
X189814200Y-225971100D02*
X189255400Y-225971100D01*
D21*
X299135800Y-199364600D02*
X314337700Y-199364600D01*
X314337700Y-199364600D02*
X316776100Y-201803000D01*
X316776100Y-201803000D02*
X325335900Y-201803000D01*
X327774300Y-199364600D02*
X337172300Y-199364600D01*
X325335900Y-201803000D02*
X327774300Y-199364600D01*
X504050300Y-199517000D02*
X504075700Y-199517000D01*
X506336300Y-208026000D02*
X504647200Y-206336900D01*
X504647200Y-200113900D02*
X504050300Y-199517000D01*
X504647200Y-206336900D02*
X504647200Y-200113900D01*
X129870200Y-215150700D02*
X131305300Y-213715600D01*
X129806700Y-215214200D02*
X131305300Y-213715600D01*
X123850400Y-215214200D02*
X129806700Y-215214200D01*
X428180500Y-211213700D02*
X433793900Y-211213700D01*
X506222000Y-211213700D02*
X506336300Y-211328000D01*
X433793900Y-211213700D02*
X506222000Y-211213700D01*
X506336300Y-211328000D02*
X506336300Y-208026000D01*
X504698000Y-246405400D02*
X504037600Y-247065800D01*
X504698000Y-221869000D02*
X504698000Y-246405400D01*
X506336300Y-220230700D02*
X504698000Y-221869000D01*
X506336300Y-211328000D02*
X506336300Y-220230700D01*
X394119100Y-194348100D02*
X348030800Y-194348100D01*
X343014300Y-199364600D02*
X342404700Y-199364600D01*
X348030800Y-194348100D02*
X343014300Y-199364600D01*
X337172300Y-199364600D02*
X342404700Y-199364600D01*
X394296900Y-194386200D02*
X394335000Y-194348100D01*
X394296900Y-199453500D02*
X394296900Y-194386200D01*
X394119100Y-194348100D02*
X394335000Y-194348100D01*
X406844500Y-211213700D02*
X428180500Y-211213700D01*
X398068800Y-211213700D02*
X406844500Y-211213700D01*
X394144600Y-215137900D02*
X398068800Y-211213700D01*
X394144600Y-218455000D02*
X394144600Y-215137900D01*
X176187100Y-199364600D02*
X184734200Y-199364600D01*
X161836100Y-213715600D02*
X176187100Y-199364600D01*
X131305300Y-213715600D02*
X161836100Y-213715600D01*
X278523700Y-201612500D02*
X276275800Y-199364600D01*
X285127700Y-201612500D02*
X278523700Y-201612500D01*
X276275800Y-199364600D02*
X260870700Y-199364600D01*
X287375600Y-199364600D02*
X285127700Y-201612500D01*
X299135800Y-199364600D02*
X287375600Y-199364600D01*
X252653800Y-199364600D02*
X260870700Y-199364600D01*
X246240300Y-199364600D02*
X252653800Y-199364600D01*
X240157000Y-201777600D02*
X243827300Y-201777600D01*
X237744000Y-199364600D02*
X240157000Y-201777600D01*
X243827300Y-201777600D02*
X246240300Y-199364600D01*
X222821500Y-199364600D02*
X237744000Y-199364600D01*
X214058500Y-199364600D02*
X222821500Y-199364600D01*
X208889600Y-199364600D02*
X214058500Y-199364600D01*
X206819500Y-201434700D02*
X208889600Y-199364600D01*
X200990200Y-201434700D02*
X206819500Y-201434700D01*
X198920100Y-199364600D02*
X200990200Y-201434700D01*
X184734200Y-199364600D02*
X198920100Y-199364600D01*
X404202900Y-180822600D02*
X403707600Y-180327300D01*
X404202900Y-189928500D02*
X404202900Y-180822600D01*
X399783300Y-194348100D02*
X404202900Y-189928500D01*
X394335000Y-194348100D02*
X399783300Y-194348100D01*
X397192500Y-180327300D02*
X395312900Y-178447700D01*
X397891000Y-180327300D02*
X397192500Y-180327300D01*
X403707600Y-180327300D02*
X397891000Y-180327300D01*
X187807600Y-221030800D02*
X187833000Y-221056200D01*
X168795700Y-221030800D02*
X187807600Y-221030800D01*
X178384200Y-201904600D02*
X197446900Y-201904600D01*
X206832200Y-182803800D02*
X206844900Y-182816500D01*
X187794900Y-182803800D02*
X206832200Y-182803800D01*
X178231800Y-240080800D02*
X178257200Y-240055400D01*
X154457400Y-240080800D02*
X178231800Y-240080800D01*
X440880500Y-233603800D02*
X440893200Y-233616500D01*
X439940700Y-233603800D02*
X440880500Y-233603800D01*
X472122500Y-233616500D02*
X478599500Y-240093500D01*
X440893200Y-233616500D02*
X472122500Y-233616500D01*
X184289700Y-195757800D02*
X184296050Y-195751450D01*
X138544300Y-195757800D02*
X184289700Y-195757800D01*
X129311400Y-204990700D02*
X131387850Y-202914250D01*
X131387850Y-202914250D02*
X138544300Y-195757800D01*
X129247900Y-205054200D02*
X131387850Y-202914250D01*
X123850400Y-205054200D02*
X129247900Y-205054200D01*
X428180500Y-231533700D02*
X415493200Y-231533700D01*
X428180500Y-231533700D02*
X433793900Y-231533700D01*
X436930800Y-231533700D02*
X439000900Y-233603800D01*
X433793900Y-231533700D02*
X436930800Y-231533700D01*
X439000900Y-233603800D02*
X439940700Y-233603800D01*
X323875400Y-192874900D02*
X344474800Y-192874900D01*
X320998850Y-195751450D02*
X323875400Y-192874900D01*
X184296050Y-195751450D02*
X320998850Y-195751450D01*
X344474800Y-192874900D02*
X397281400Y-192874900D01*
X397281400Y-192874900D02*
X397497300Y-192659000D01*
X373532400Y-240055400D02*
X374662700Y-240055400D01*
X374662700Y-240055400D02*
X375183400Y-239534700D01*
X375183400Y-239534700D02*
X392226800Y-239534700D01*
X392226800Y-239534700D02*
X393801600Y-237959900D01*
X393801600Y-237959900D02*
X398259300Y-237959900D01*
X398259300Y-237959900D02*
X401154900Y-237959900D01*
X401154900Y-237959900D02*
X402551900Y-239356900D01*
X405333200Y-239356900D02*
X405968200Y-238721900D01*
X402551900Y-239356900D02*
X405333200Y-239356900D01*
X415493200Y-231533700D02*
X411327600Y-231533700D01*
X410248100Y-231533700D02*
X410197300Y-231482900D01*
X411327600Y-231533700D02*
X410248100Y-231533700D01*
X175145700Y-218490800D02*
X188544200Y-218490800D01*
X175145700Y-218490800D02*
X188760100Y-218490800D01*
X188760100Y-218490800D02*
X190690500Y-216560400D01*
X327482200Y-218528900D02*
X329184000Y-218528900D01*
X329184000Y-218528900D02*
X331216000Y-216496900D01*
X289369500Y-218503500D02*
X290563300Y-218503500D01*
X290563300Y-218503500D02*
X292506400Y-216560400D01*
X325513700Y-216560400D02*
X327482200Y-218528900D01*
X292506400Y-216560400D02*
X325513700Y-216560400D01*
X175133000Y-215201500D02*
X175145700Y-215188800D01*
X138950700Y-215201500D02*
X175133000Y-215201500D01*
X138938000Y-215188800D02*
X138950700Y-215201500D01*
X131737100Y-215188800D02*
X138938000Y-215188800D01*
X365594900Y-218490800D02*
X367118900Y-218490800D01*
X367118900Y-218490800D02*
X375259600Y-210350100D01*
X129235200Y-217690700D02*
X131737100Y-215188800D01*
X129171700Y-217754200D02*
X131737100Y-215188800D01*
X123850400Y-217754200D02*
X129171700Y-217754200D01*
X428180500Y-213753700D02*
X433793900Y-213753700D01*
X362369100Y-218490800D02*
X360375200Y-216496900D01*
X365594900Y-218490800D02*
X362369100Y-218490800D01*
X331216000Y-216496900D02*
X360375200Y-216496900D01*
X408647900Y-199440800D02*
X418096700Y-199440800D01*
X388404100Y-199351900D02*
X390652000Y-201599800D01*
X375259600Y-199351900D02*
X388404100Y-199351900D01*
X390652000Y-201599800D02*
X400100800Y-201599800D01*
X400100800Y-201599800D02*
X402907500Y-201599800D01*
X409295600Y-213753700D02*
X408152600Y-212610700D01*
X428180500Y-213753700D02*
X409295600Y-213753700D01*
X402907500Y-201599800D02*
X404304500Y-201599800D01*
X249669300Y-218516200D02*
X247599200Y-216446100D01*
X251320300Y-218516200D02*
X249669300Y-218516200D01*
X215061800Y-218516200D02*
X217131900Y-216446100D01*
X213220300Y-218516200D02*
X215061800Y-218516200D01*
X247599200Y-216446100D02*
X217131900Y-216446100D01*
X211696300Y-218516200D02*
X209740500Y-216560400D01*
X213220300Y-218516200D02*
X211696300Y-218516200D01*
X190690500Y-216560400D02*
X209740500Y-216560400D01*
X287972500Y-218503500D02*
X289369500Y-218503500D01*
X286169100Y-216700100D02*
X287972500Y-218503500D01*
X255206500Y-216700100D02*
X286169100Y-216700100D01*
X253390400Y-218516200D02*
X255206500Y-216700100D01*
X251320300Y-218516200D02*
X253390400Y-218516200D01*
X404304500Y-201599800D02*
X404469600Y-201599800D01*
X406628600Y-199440800D02*
X408647900Y-199440800D01*
X404469600Y-201599800D02*
X406628600Y-199440800D01*
X203657200Y-237515400D02*
X219036900Y-237515400D01*
X219036900Y-237515400D02*
X221195900Y-239674400D01*
X221195900Y-239674400D02*
X228434900Y-239674400D01*
X230593900Y-237515400D02*
X241769900Y-237515400D01*
X228434900Y-239674400D02*
X230593900Y-237515400D01*
X241769900Y-237515400D02*
X256755900Y-237515400D01*
X256755900Y-237515400D02*
X258648200Y-235623100D01*
X258648200Y-235623100D02*
X263525000Y-235623100D01*
X265430000Y-237528100D02*
X279895300Y-237528100D01*
X263525000Y-235623100D02*
X265430000Y-237528100D01*
X279895300Y-237528100D02*
X295783000Y-237528100D01*
X295783000Y-237528100D02*
X297827700Y-235483400D01*
X297827700Y-235483400D02*
X301002700Y-235483400D01*
X303047400Y-237528100D02*
X317982600Y-237528100D01*
X301002700Y-235483400D02*
X303047400Y-237528100D01*
X379857000Y-237540800D02*
X379882400Y-237515400D01*
X356095300Y-237540800D02*
X379857000Y-237540800D01*
X141846300Y-237540800D02*
X160807400Y-237540800D01*
X141757400Y-237451900D02*
X141846300Y-237540800D01*
X440804300Y-216027000D02*
X452272400Y-216027000D01*
X196469000Y-237515400D02*
X203657200Y-237515400D01*
X194462400Y-239522000D02*
X196469000Y-237515400D01*
X181648100Y-239522000D02*
X194462400Y-239522000D01*
X179666900Y-237540800D02*
X181648100Y-239522000D01*
X160807400Y-237540800D02*
X179666900Y-237540800D01*
X345986100Y-237540800D02*
X356095300Y-237540800D01*
X344030300Y-235585000D02*
X345986100Y-237540800D01*
X324942200Y-235585000D02*
X344030300Y-235585000D01*
X322999100Y-237528100D02*
X324942200Y-235585000D01*
X317982600Y-237528100D02*
X322999100Y-237528100D01*
X504050300Y-218541600D02*
X504050300Y-217538300D01*
X502539000Y-216027000D02*
X500164100Y-216027000D01*
X504050300Y-217538300D02*
X502539000Y-216027000D01*
X500164100Y-216027000D02*
X452272400Y-216027000D01*
X428180500Y-216293700D02*
X433793900Y-216293700D01*
X440537600Y-216293700D02*
X440645550Y-216185750D01*
X433793900Y-216293700D02*
X440537600Y-216293700D01*
X440645550Y-216185750D02*
X440804300Y-216027000D01*
X404507700Y-213537800D02*
X400088100Y-213537800D01*
X126911100Y-210134200D02*
X132219700Y-210134200D01*
X123850400Y-210134200D02*
X132219700Y-210134200D01*
X404507700Y-213537800D02*
X406019000Y-213537800D01*
X406019000Y-213537800D02*
X408774900Y-216293700D01*
X428180500Y-216293700D02*
X408774900Y-216293700D01*
X298945300Y-237528100D02*
X299821600Y-237528100D01*
X299821600Y-237528100D02*
X300774100Y-238480600D01*
X300774100Y-238480600D02*
X314731400Y-238480600D01*
X444169800Y-220751400D02*
X444169800Y-220776800D01*
X444169800Y-220776800D02*
X444334900Y-220941900D01*
X444334900Y-220941900D02*
X451192900Y-220941900D01*
X451192900Y-220941900D02*
X454164700Y-223913700D01*
X220624400Y-235407200D02*
X222719900Y-237502700D01*
X196342000Y-235407200D02*
X220624400Y-235407200D01*
X194233800Y-237515400D02*
X196342000Y-235407200D01*
X184607200Y-237515400D02*
X194233800Y-237515400D01*
X182225950Y-235134150D02*
X184607200Y-237515400D01*
X164115750Y-235134150D02*
X182225950Y-235134150D01*
X454164700Y-223913700D02*
X454164700Y-223926400D01*
X454164700Y-223926400D02*
X456158600Y-225920300D01*
X456158600Y-225920300D02*
X456158600Y-225933000D01*
X456158600Y-225933000D02*
X457009500Y-226783900D01*
X325437500Y-237515400D02*
X337032600Y-237515400D01*
X323634100Y-239318800D02*
X325437500Y-237515400D01*
X314744100Y-238480600D02*
X315582300Y-239318800D01*
X315582300Y-239318800D02*
X323634100Y-239318800D01*
X314731400Y-238480600D02*
X314744100Y-238480600D01*
X123825000Y-235470700D02*
X127000000Y-235470700D01*
X127063500Y-235534200D02*
X127088900Y-235534200D01*
X127000000Y-235470700D02*
X127063500Y-235534200D01*
X127088900Y-235534200D02*
X130848100Y-235534200D01*
X163842700Y-234861100D02*
X164115750Y-235134150D01*
X159461200Y-234861100D02*
X163842700Y-234861100D01*
X158343600Y-235978700D02*
X159461200Y-234861100D01*
X141668500Y-235978700D02*
X158343600Y-235978700D01*
X138315700Y-239331500D02*
X141668500Y-235978700D01*
X134645400Y-239331500D02*
X138315700Y-239331500D01*
X130848100Y-235534200D02*
X134645400Y-239331500D01*
X123850400Y-235534200D02*
X130848100Y-235534200D01*
X312204100Y-264439400D02*
X312229500Y-264414000D01*
X293547800Y-256603500D02*
X301383700Y-264439400D01*
X301383700Y-264439400D02*
X312204100Y-264439400D01*
X428180500Y-218833700D02*
X433793900Y-218833700D01*
X442252100Y-218833700D02*
X442436250Y-219017850D01*
X433793900Y-218833700D02*
X442252100Y-218833700D01*
X442436250Y-219017850D02*
X444169800Y-220751400D01*
X293433500Y-256489200D02*
X293547800Y-256603500D01*
X279911800Y-256489200D02*
X293433500Y-256489200D01*
X322694300Y-175856900D02*
X386384800Y-175856900D01*
X387667500Y-175856900D02*
X386384800Y-175856900D01*
X387680200Y-175869600D02*
X387667500Y-175856900D01*
X457009500Y-226783900D02*
X468071200Y-226783900D01*
X298945300Y-237528100D02*
X297891200Y-237528100D01*
X297891200Y-237528100D02*
X297192700Y-238226600D01*
X297192700Y-238226600D02*
X282308300Y-238226600D01*
X282308300Y-238226600D02*
X281114500Y-239420400D01*
X281114500Y-239420400D02*
X276364700Y-239420400D01*
X276364700Y-239420400D02*
X275120100Y-238175800D01*
X261480300Y-238175800D02*
X260832600Y-237528100D01*
X275120100Y-238175800D02*
X261480300Y-238175800D01*
X362610400Y-232968800D02*
X341693500Y-232968800D01*
X395757400Y-220560900D02*
X392430000Y-220560900D01*
X396532100Y-219786200D02*
X395757400Y-220560900D01*
X366852200Y-232968800D02*
X362610400Y-232968800D01*
X380720600Y-219100400D02*
X366852200Y-232968800D01*
X392430000Y-220560900D02*
X390969500Y-219100400D01*
X407187400Y-219786200D02*
X396532100Y-219786200D01*
X390969500Y-219100400D02*
X380720600Y-219100400D01*
X408139900Y-218833700D02*
X407187400Y-219786200D01*
X428180500Y-218833700D02*
X408139900Y-218833700D01*
X308419500Y-218541600D02*
X324053200Y-218541600D01*
X324053200Y-218541600D02*
X325920100Y-220408500D01*
X325920100Y-220408500D02*
X329476100Y-220408500D01*
X331368400Y-218516200D02*
X346544900Y-218516200D01*
X329476100Y-220408500D02*
X331368400Y-218516200D01*
X232270300Y-218528900D02*
X246875300Y-218528900D01*
X246875300Y-218528900D02*
X248742200Y-220395800D01*
X248742200Y-220395800D02*
X254469900Y-220395800D01*
X256349500Y-218516200D02*
X270319500Y-218516200D01*
X254469900Y-220395800D02*
X256349500Y-218516200D01*
X504037600Y-180403500D02*
X504037600Y-180225700D01*
X509117600Y-184061100D02*
X505460000Y-180403500D01*
X509117600Y-233438700D02*
X509117600Y-184061100D01*
X506539500Y-236016800D02*
X509117600Y-233438700D01*
X505460000Y-180403500D02*
X504037600Y-180403500D01*
X506539500Y-247916700D02*
X506539500Y-236016800D01*
X504913900Y-249542300D02*
X506539500Y-247916700D01*
X504913900Y-253936500D02*
X504913900Y-249542300D01*
X502234200Y-256616200D02*
X504913900Y-253936500D01*
X484974900Y-256616200D02*
X502234200Y-256616200D01*
X126504700Y-230454200D02*
X127609600Y-230454200D01*
X137007600Y-237566200D02*
X140347700Y-234226100D01*
X136982200Y-237566200D02*
X137007600Y-237566200D01*
X455714100Y-226847400D02*
X456717400Y-227850700D01*
X443458600Y-226847400D02*
X455714100Y-226847400D01*
X442366400Y-225755200D02*
X443458600Y-226847400D01*
X438886600Y-225755200D02*
X442366400Y-225755200D01*
X456717400Y-227850700D02*
X476237300Y-227850700D01*
X140347700Y-234226100D02*
X190042800Y-234226100D01*
X130263900Y-230390700D02*
X130327400Y-230454200D01*
X130327400Y-230454200D02*
X131622800Y-230454200D01*
X127609600Y-230454200D02*
X130327400Y-230454200D01*
X123850400Y-230454200D02*
X131622800Y-230454200D01*
X428180500Y-221373700D02*
X433793900Y-221373700D01*
X433793900Y-221373700D02*
X436079900Y-221373700D01*
X437127650Y-222421450D02*
X437127650Y-223996250D01*
X436079900Y-221373700D02*
X437127650Y-222421450D01*
X437127650Y-223996250D02*
X438886600Y-225755200D01*
X203657200Y-161175700D02*
X205676500Y-161175700D01*
X205676500Y-161175700D02*
X207391000Y-159461200D01*
X256679700Y-159461200D02*
X258470400Y-161251900D01*
X221615000Y-159461200D02*
X256679700Y-159461200D01*
X207391000Y-159461200D02*
X221615000Y-159461200D01*
X194017900Y-234226100D02*
X194170300Y-234073700D01*
X190042800Y-234226100D02*
X194017900Y-234226100D01*
X360692700Y-218516200D02*
X362699300Y-220522800D01*
X346544900Y-218516200D02*
X360692700Y-218516200D01*
X428180500Y-221373700D02*
X407593800Y-221373700D01*
X398716500Y-221373700D02*
X398614900Y-221272100D01*
X407593800Y-221373700D02*
X398716500Y-221373700D01*
X367233200Y-220522800D02*
X368300000Y-220522800D01*
X362699300Y-220522800D02*
X367233200Y-220522800D01*
X368300000Y-220522800D02*
X370243100Y-220522800D01*
X379920500Y-210845400D02*
X389001000Y-210845400D01*
X370243100Y-220522800D02*
X379920500Y-210845400D01*
X293281100Y-218541600D02*
X308419500Y-218541600D01*
X291668200Y-220154500D02*
X293281100Y-218541600D01*
X287159700Y-220154500D02*
X291668200Y-220154500D01*
X285521400Y-218516200D02*
X287159700Y-220154500D01*
X270319500Y-218516200D02*
X285521400Y-218516200D01*
X208241900Y-218516200D02*
X194183000Y-218516200D01*
X210134200Y-220408500D02*
X208241900Y-218516200D01*
X216001600Y-220408500D02*
X210134200Y-220408500D01*
X217881200Y-218528900D02*
X216001600Y-220408500D01*
X232270300Y-218528900D02*
X217881200Y-218528900D01*
X244944900Y-182829200D02*
X244957600Y-182816500D01*
X225894900Y-182829200D02*
X244944900Y-182829200D01*
X478612200Y-221043500D02*
X478650300Y-221081600D01*
X459562200Y-221043500D02*
X478612200Y-221043500D01*
X225907600Y-221056200D02*
X225920300Y-221068900D01*
X206870300Y-221056200D02*
X225907600Y-221056200D01*
X216471500Y-201904600D02*
X235432600Y-201904600D01*
X216357200Y-240055400D02*
X216369900Y-240042700D01*
X197307200Y-240055400D02*
X216357200Y-240055400D01*
X444550800Y-235534200D02*
X453771000Y-235534200D01*
X457149200Y-235534200D02*
X457238100Y-235445300D01*
X453771000Y-235534200D02*
X457149200Y-235534200D01*
X123850400Y-232994200D02*
X128168400Y-232994200D01*
X128168400Y-232994200D02*
X141795500Y-232994200D01*
X127520700Y-232994200D02*
X128168400Y-232994200D01*
X428180500Y-234073700D02*
X433793900Y-234073700D01*
X433793900Y-234073700D02*
X437413400Y-234073700D01*
X438873900Y-235534200D02*
X444550800Y-235534200D01*
X437413400Y-234073700D02*
X438873900Y-235534200D01*
X250266200Y-169456100D02*
X391375900Y-169456100D01*
X209321400Y-232994200D02*
X209340450Y-233013250D01*
X141795500Y-232994200D02*
X209321400Y-232994200D01*
X410044900Y-234073700D02*
X409816300Y-234073700D01*
X409816300Y-234073700D02*
X407123900Y-231381300D01*
X428180500Y-234073700D02*
X410044900Y-234073700D01*
X283070300Y-182841900D02*
X283083000Y-182854600D01*
X264020300Y-182841900D02*
X283070300Y-182841900D01*
X254520700Y-201904600D02*
X273596100Y-201904600D01*
X459536800Y-202031600D02*
X459549500Y-202018900D01*
X440474100Y-202031600D02*
X459536800Y-202031600D01*
X244970300Y-221056200D02*
X263969500Y-221056200D01*
X254469900Y-240055400D02*
X254482600Y-240068100D01*
X235419900Y-240055400D02*
X254469900Y-240055400D01*
X443572900Y-237617000D02*
X445363600Y-239407700D01*
X273596100Y-201904600D02*
X273634200Y-201904600D01*
X273634200Y-201904600D02*
X274281900Y-202552300D01*
X274281900Y-202552300D02*
X274281900Y-205879700D01*
X276098000Y-207695800D02*
X350901000Y-207695800D01*
X274281900Y-205879700D02*
X276098000Y-207695800D01*
X449211700Y-239407700D02*
X450291200Y-238328200D01*
X449021200Y-239407700D02*
X449211700Y-239407700D01*
X445363600Y-239407700D02*
X449021200Y-239407700D01*
X188429900Y-216357200D02*
X189496700Y-215290400D01*
X132232400Y-216357200D02*
X188429900Y-216357200D01*
X351802700Y-208597500D02*
X350901000Y-207695800D01*
X128358900Y-220230700D02*
X128638300Y-219951300D01*
X128638300Y-219951300D02*
X132232400Y-216357200D01*
X128295400Y-220294200D02*
X128638300Y-219951300D01*
X128295400Y-220294200D02*
X132232400Y-216357200D01*
X123850400Y-220294200D02*
X128295400Y-220294200D01*
X428180500Y-236613700D02*
X433793900Y-236613700D01*
X442569600Y-236613700D02*
X443572900Y-237617000D01*
X433793900Y-236613700D02*
X442569600Y-236613700D01*
X404241000Y-208597500D02*
X399580100Y-208597500D01*
X404253700Y-208610200D02*
X404241000Y-208597500D01*
X399580100Y-208597500D02*
X400037300Y-208597500D01*
X405853900Y-208610200D02*
X404253700Y-208610200D01*
X405892000Y-208572100D02*
X405853900Y-208610200D01*
X394817600Y-208597500D02*
X399580100Y-208597500D01*
X351802700Y-208597500D02*
X394817600Y-208597500D01*
X263956800Y-215290400D02*
X263309100Y-215290400D01*
X189496700Y-215290400D02*
X263309100Y-215290400D01*
X428180500Y-236613700D02*
X412203900Y-236613700D01*
X409384500Y-208572100D02*
X410857700Y-210045300D01*
X405892000Y-208572100D02*
X409384500Y-208572100D01*
X302133000Y-182854600D02*
X321170300Y-182854600D01*
X273545300Y-240068100D02*
X292595300Y-240068100D01*
X302031400Y-221043500D02*
X302069500Y-221081600D01*
X283019500Y-221043500D02*
X302031400Y-221043500D01*
X302133000Y-201904600D02*
X311746900Y-201904600D01*
X292785800Y-201904600D02*
X302133000Y-201904600D01*
X439877200Y-245402100D02*
X450215000Y-245402100D01*
X468325200Y-245402100D02*
X473087700Y-240639600D01*
X450215000Y-245402100D02*
X467271100Y-245402100D01*
X467271100Y-245402100D02*
X468325200Y-245402100D01*
X170002200Y-226288600D02*
X172427900Y-228714300D01*
X129374900Y-226288600D02*
X170002200Y-226288600D01*
X125920500Y-222834200D02*
X129374900Y-226288600D01*
X125920500Y-222834200D02*
X129051050Y-225964750D01*
X123850400Y-222834200D02*
X125920500Y-222834200D01*
X129051050Y-225964750D02*
X129374900Y-226288600D01*
X428180500Y-239153700D02*
X433793900Y-239153700D01*
X433793900Y-239153700D02*
X436219600Y-239153700D01*
X437438800Y-240372900D02*
X437438800Y-242963700D01*
X436219600Y-239153700D02*
X437438800Y-240372900D01*
X437438800Y-242963700D02*
X439877200Y-245402100D01*
X386473700Y-172605700D02*
X349973900Y-172605700D01*
X281012900Y-221043500D02*
X273342100Y-228714300D01*
X283019500Y-221043500D02*
X281012900Y-221043500D01*
X172427900Y-228714300D02*
X273342100Y-228714300D01*
X349973900Y-172605700D02*
X329145900Y-172605700D01*
X410197300Y-237959900D02*
X414629600Y-237959900D01*
X415823400Y-239153700D02*
X428180500Y-239153700D01*
X414629600Y-237959900D02*
X415823400Y-239153700D01*
X407581100Y-235343700D02*
X410197300Y-237959900D01*
X346202000Y-235343700D02*
X407581100Y-235343700D01*
X345325700Y-234467400D02*
X346202000Y-235343700D01*
X288785300Y-234467400D02*
X345325700Y-234467400D01*
X288740850Y-234422950D02*
X288785300Y-234467400D01*
X340182200Y-221068900D02*
X340194900Y-221056200D01*
X321132200Y-221068900D02*
X340182200Y-221068900D01*
X478612200Y-259168900D02*
X478624900Y-259156200D01*
X459562200Y-259168900D02*
X478612200Y-259168900D01*
X330669900Y-240068100D02*
X330682600Y-240055400D01*
X311632600Y-240068100D02*
X330669900Y-240068100D01*
X128955800Y-227177600D02*
X146926300Y-227177600D01*
X127152400Y-225374200D02*
X128955800Y-227177600D01*
X123850400Y-225374200D02*
X127152400Y-225374200D01*
X414081100Y-240258600D02*
X407581100Y-240258600D01*
X407149300Y-259384800D02*
X413649300Y-259384800D01*
X406908000Y-259143500D02*
X407149300Y-259384800D01*
X397383000Y-259143500D02*
X406908000Y-259143500D01*
X415516200Y-241693700D02*
X414081100Y-240258600D01*
X428180500Y-241693700D02*
X415516200Y-241693700D01*
X428180500Y-241693700D02*
X433793900Y-241693700D01*
X441464700Y-246722900D02*
X445782700Y-246722900D01*
X439229500Y-246722900D02*
X441464700Y-246722900D01*
X436416450Y-243909850D02*
X439229500Y-246722900D01*
X435597300Y-241693700D02*
X436416450Y-242512850D01*
X436416450Y-242512850D02*
X436416450Y-243909850D01*
X433793900Y-241693700D02*
X435597300Y-241693700D01*
X479475800Y-182968900D02*
X480161600Y-182283100D01*
X480161600Y-182283100D02*
X488111800Y-182283100D01*
X488111800Y-182283100D02*
X490105700Y-184277000D01*
X478624900Y-182968900D02*
X479475800Y-182968900D01*
X146926300Y-227177600D02*
X162775900Y-227177600D01*
X162775900Y-227177600D02*
X162953700Y-226999800D01*
X162953700Y-226999800D02*
X168198800Y-226999800D01*
X168198800Y-226999800D02*
X172250100Y-231051100D01*
X318071500Y-221068900D02*
X308089300Y-231051100D01*
X321132200Y-221068900D02*
X318071500Y-221068900D01*
X172250100Y-231051100D02*
X308089300Y-231051100D01*
X402386800Y-240042700D02*
X402602700Y-240258600D01*
X397332200Y-240042700D02*
X402386800Y-240042700D01*
X407581100Y-240258600D02*
X402602700Y-240258600D01*
X366306100Y-174091600D02*
X383908300Y-174091600D01*
X331876400Y-240055400D02*
X330682600Y-240055400D01*
X332282800Y-239649000D02*
X331876400Y-240055400D01*
X342074500Y-239649000D02*
X332282800Y-239649000D01*
X348373700Y-245948200D02*
X342074500Y-239649000D01*
X394817600Y-240042700D02*
X388912100Y-245948200D01*
X388912100Y-245948200D02*
X348373700Y-245948200D01*
X397332200Y-240042700D02*
X394817600Y-240042700D01*
X387946900Y-201993500D02*
X386372100Y-201993500D01*
X386372100Y-201993500D02*
X381317500Y-207048100D01*
X492594900Y-248246900D02*
X497700300Y-243141500D01*
X497700300Y-243141500D02*
X497700300Y-221081600D01*
X459498700Y-182968900D02*
X459498700Y-181330600D01*
X459498700Y-181330600D02*
X462737200Y-178092100D01*
X492836200Y-178092100D02*
X497687600Y-182943500D01*
X462737200Y-178092100D02*
X492836200Y-178092100D01*
X137528300Y-182778400D02*
X130657600Y-182778400D01*
X149415500Y-170891200D02*
X137528300Y-182778400D01*
X334822800Y-170891200D02*
X149415500Y-170891200D01*
X126555500Y-238010700D02*
X127419100Y-237147100D01*
X126492000Y-238074200D02*
X127419100Y-237147100D01*
X123850400Y-238074200D02*
X126492000Y-238074200D01*
X395655800Y-249783600D02*
X402155800Y-249783600D01*
X414794700Y-257530600D02*
X416407600Y-259143500D01*
X406120600Y-257530600D02*
X414794700Y-257530600D01*
X405358600Y-258292600D02*
X406120600Y-257530600D01*
X402234400Y-258292600D02*
X405358600Y-258292600D01*
X401193000Y-257251200D02*
X402234400Y-258292600D01*
X396100300Y-257251200D02*
X401193000Y-257251200D01*
X425282500Y-249974100D02*
X418782500Y-249974100D01*
X418795200Y-244233700D02*
X416458400Y-246570500D01*
X428180500Y-244233700D02*
X418795200Y-244233700D01*
X428180500Y-244233700D02*
X433793900Y-244233700D01*
X433793900Y-244233700D02*
X435013100Y-244233700D01*
X439026300Y-248246900D02*
X439775600Y-248246900D01*
X435013100Y-244233700D02*
X439026300Y-248246900D01*
X439775600Y-248246900D02*
X492594900Y-248246900D01*
X334822800Y-170891200D02*
X381228600Y-170891200D01*
X389102600Y-257251200D02*
X387210300Y-259143500D01*
X396100300Y-257251200D02*
X389102600Y-257251200D01*
X378320300Y-259143500D02*
X387210300Y-259143500D01*
X417906200Y-249974100D02*
X416458400Y-248526300D01*
X418782500Y-249974100D02*
X417906200Y-249974100D01*
X416458400Y-246570500D02*
X416458400Y-248526300D01*
X381317500Y-207048100D02*
X367741200Y-207048100D01*
X365328200Y-182841900D02*
X378320300Y-182841900D01*
X364261400Y-182841900D02*
X365328200Y-182841900D01*
X362521500Y-181102000D02*
X364261400Y-182841900D01*
X351383600Y-181102000D02*
X362521500Y-181102000D01*
X349618300Y-182867300D02*
X351383600Y-181102000D01*
X340207600Y-182867300D02*
X349618300Y-182867300D01*
X159131000Y-163715700D02*
X197307200Y-163715700D01*
X235343700Y-163715700D02*
X235394500Y-163766500D01*
X197307200Y-163715700D02*
X235343700Y-163715700D01*
X273456400Y-163766500D02*
X273494500Y-163728400D01*
X235394500Y-163766500D02*
X273456400Y-163766500D01*
X368896900Y-201904600D02*
X368909600Y-201891900D01*
X349885000Y-201904600D02*
X368896900Y-201904600D01*
X440436000Y-182930800D02*
X440474100Y-182968900D01*
X440474100Y-182968900D02*
X440474100Y-183997600D01*
X440474100Y-183997600D02*
X441312300Y-184835800D01*
X441312300Y-187185300D02*
X448818000Y-194691000D01*
X441312300Y-184835800D02*
X441312300Y-187185300D01*
X492163100Y-194691000D02*
X448818000Y-194691000D01*
X137591800Y-248234200D02*
X137655300Y-248170700D01*
X123850400Y-248234200D02*
X137591800Y-248234200D01*
X428180500Y-246773700D02*
X433793900Y-246773700D01*
X428180500Y-246773700D02*
X418198300Y-246773700D01*
X436333900Y-246773700D02*
X439166000Y-249605800D01*
X433793900Y-246773700D02*
X436333900Y-246773700D01*
X497687600Y-249605800D02*
X439166000Y-249605800D01*
X337121500Y-163068000D02*
X337781900Y-163728400D01*
X292709600Y-163766500D02*
X294271700Y-163766500D01*
X294970200Y-163068000D02*
X337121500Y-163068000D01*
X292112700Y-163169600D02*
X292709600Y-163766500D01*
X276390100Y-163169600D02*
X292112700Y-163169600D01*
X294271700Y-163766500D02*
X294970200Y-163068000D01*
X275831300Y-163728400D02*
X276390100Y-163169600D01*
X273494500Y-163728400D02*
X275831300Y-163728400D01*
X337781900Y-163728400D02*
X339026500Y-163728400D01*
X339026500Y-163728400D02*
X339636100Y-163118800D01*
X339636100Y-163118800D02*
X347586300Y-163118800D01*
X352336100Y-167868600D02*
X378675900Y-167868600D01*
X347586300Y-163118800D02*
X352336100Y-167868600D01*
X387959600Y-225717100D02*
X389318500Y-227076000D01*
X389318500Y-227076000D02*
X399415000Y-227076000D01*
X401243800Y-225247200D02*
X416915600Y-225247200D01*
X399415000Y-227076000D02*
X401243800Y-225247200D01*
X387794600Y-220995000D02*
X387794600Y-221704000D01*
X387959600Y-221869000D02*
X387959600Y-225717100D01*
X387794600Y-221704000D02*
X387959600Y-221869000D01*
X368909600Y-201891900D02*
X370954300Y-201891900D01*
X370954300Y-201891900D02*
X371348000Y-201498200D01*
X371348000Y-201498200D02*
X383590800Y-201498200D01*
X168744900Y-182778400D02*
X168757600Y-182791100D01*
X149707600Y-182778400D02*
X168744900Y-182778400D01*
X159346900Y-201917300D02*
X159359600Y-201904600D01*
X135597900Y-201917300D02*
X159346900Y-201917300D01*
X440499500Y-240106200D02*
X457809600Y-240106200D01*
X457835000Y-240080800D02*
X459562200Y-240080800D01*
X457809600Y-240106200D02*
X457835000Y-240080800D01*
X308610000Y-266420600D02*
X271272000Y-266420600D01*
X246595900Y-266420600D02*
X194094100Y-266420600D01*
X308610000Y-266420600D02*
X309791100Y-266420600D01*
X194094100Y-266420600D02*
X183934100Y-256260600D01*
X183934100Y-256260600D02*
X143154400Y-256260600D01*
X126288800Y-212674200D02*
X130695700Y-212674200D01*
X123850400Y-212674200D02*
X130695700Y-212674200D01*
X314769500Y-266306300D02*
X314883800Y-266420600D01*
X314769500Y-264414000D02*
X314769500Y-266306300D01*
X314883800Y-266420600D02*
X405053800Y-266420600D01*
X309791100Y-266420600D02*
X314883800Y-266420600D01*
X249008900Y-266255500D02*
X248843800Y-266420600D01*
X249008900Y-263969500D02*
X249008900Y-266255500D01*
X248843800Y-266420600D02*
X246595900Y-266420600D01*
X428180500Y-228993700D02*
X415925000Y-228993700D01*
X428180500Y-228993700D02*
X433793900Y-228993700D01*
X433793900Y-228993700D02*
X437286400Y-228993700D01*
X439432700Y-231140000D02*
X439432700Y-232181400D01*
X437286400Y-228993700D02*
X439432700Y-231140000D01*
X273561800Y-259029200D02*
X272148300Y-259029200D01*
X269836900Y-261340600D02*
X269836900Y-266420600D01*
X272148300Y-259029200D02*
X269836900Y-261340600D01*
X269836900Y-266420600D02*
X248843800Y-266420600D01*
X271272000Y-266420600D02*
X269836900Y-266420600D01*
X415925000Y-228993700D02*
X413829500Y-228993700D01*
X464502500Y-218503500D02*
X465912200Y-218503500D01*
X463245200Y-217246200D02*
X464502500Y-218503500D01*
X449275200Y-217246200D02*
X463245200Y-217246200D01*
X156057600Y-180238400D02*
X170713400Y-180238400D01*
X170713400Y-180238400D02*
X172847000Y-182372000D01*
X172847000Y-182372000D02*
X178904900Y-182372000D01*
X181013100Y-180263800D02*
X194144900Y-180263800D01*
X178904900Y-182372000D02*
X181013100Y-180263800D01*
X194144900Y-180263800D02*
X208800700Y-180263800D01*
X208800700Y-180263800D02*
X211048600Y-182511700D01*
X211048600Y-182511700D02*
X215773000Y-182511700D01*
X217995500Y-180289200D02*
X232244900Y-180289200D01*
X215773000Y-182511700D02*
X217995500Y-180289200D01*
X232244900Y-180289200D02*
X247230900Y-180289200D01*
X247230900Y-180289200D02*
X249466100Y-182524400D01*
X249466100Y-182524400D02*
X254812800Y-182524400D01*
X257035300Y-180301900D02*
X270370300Y-180301900D01*
X254812800Y-182524400D02*
X257035300Y-180301900D01*
X285610300Y-180301900D02*
X287743900Y-178168300D01*
X270370300Y-180301900D02*
X285610300Y-180301900D01*
X403733000Y-256603500D02*
X403733000Y-256476500D01*
X411200600Y-256603500D02*
X412356300Y-255447800D01*
X403733000Y-256603500D02*
X411200600Y-256603500D01*
X482930200Y-197434200D02*
X448881500Y-197434200D01*
X448881500Y-197434200D02*
X446824100Y-199491600D01*
X485013000Y-199517000D02*
X482930200Y-197434200D01*
X144399000Y-207594200D02*
X146456400Y-205536800D01*
X126860300Y-207594200D02*
X127088900Y-207594200D01*
X123850400Y-207594200D02*
X144170400Y-207594200D01*
X144170400Y-207594200D02*
X144399000Y-207594200D01*
X127088900Y-207594200D02*
X144170400Y-207594200D01*
X407149300Y-263884800D02*
X413649300Y-263884800D01*
X402155800Y-254283600D02*
X395655800Y-254283600D01*
X428180500Y-208673700D02*
X433793900Y-208673700D01*
X448932300Y-208673700D02*
X449275200Y-209016600D01*
X433793900Y-208673700D02*
X448932300Y-208673700D01*
X471792300Y-218528900D02*
X471766900Y-218503500D01*
X474408500Y-218528900D02*
X471792300Y-218528900D01*
X471766900Y-218503500D02*
X471982800Y-218503500D01*
X465912200Y-218503500D02*
X471766900Y-218503500D01*
X402155800Y-254283600D02*
X403165700Y-254283600D01*
X403733000Y-254850900D02*
X403733000Y-256603500D01*
X403165700Y-254283600D02*
X403733000Y-254850900D01*
X395655800Y-254283600D02*
X394775300Y-254283600D01*
X386990200Y-254283600D02*
X384670300Y-256603500D01*
X395655800Y-254283600D02*
X386990200Y-254283600D01*
X424014900Y-208673700D02*
X424053000Y-208635600D01*
X428180500Y-208673700D02*
X424014900Y-208673700D01*
X401320000Y-177520600D02*
X400875500Y-177076100D01*
X416242500Y-208635600D02*
X415950400Y-208927700D01*
X420192200Y-208635600D02*
X416242500Y-208635600D01*
X424053000Y-208635600D02*
X420192200Y-208635600D01*
X306743100Y-180314600D02*
X304596800Y-178168300D01*
X308483000Y-180314600D02*
X306743100Y-180314600D01*
X287743900Y-178168300D02*
X304596800Y-178168300D01*
X310832500Y-180314600D02*
X314071000Y-177076100D01*
X308483000Y-180314600D02*
X310832500Y-180314600D01*
X400875500Y-177076100D02*
X314071000Y-177076100D01*
X247738900Y-260159500D02*
X249008900Y-261429500D01*
X224231200Y-260159500D02*
X247738900Y-260159500D01*
X220637100Y-256565400D02*
X224231200Y-260159500D01*
X208470500Y-256565400D02*
X220637100Y-256565400D01*
X246443500Y-261454900D02*
X246468900Y-261429500D01*
X221157800Y-261454900D02*
X246443500Y-261454900D01*
X218808300Y-259105400D02*
X221157800Y-261454900D01*
X202120500Y-259105400D02*
X218808300Y-259105400D01*
X348881700Y-256565400D02*
X333565500Y-256565400D01*
X333590900Y-256540000D02*
X333565500Y-256565400D01*
X314794900Y-261899400D02*
X314769500Y-261874000D01*
X328231500Y-261899400D02*
X314794900Y-261899400D01*
X333540100Y-256590800D02*
X328396600Y-261734300D01*
X351345500Y-256590800D02*
X333540100Y-256590800D01*
X328396600Y-261734300D02*
X328231500Y-261899400D01*
X333565500Y-256565400D02*
X328396600Y-261734300D01*
X334848200Y-259130800D02*
X344995500Y-259130800D01*
X330847700Y-263131300D02*
X334848200Y-259130800D01*
X313486800Y-263131300D02*
X330847700Y-263131300D01*
X312229500Y-261874000D02*
X313486800Y-263131300D01*
X365531400Y-180327300D02*
X365569500Y-180365400D01*
X346557600Y-180327300D02*
X365531400Y-180327300D01*
X465848700Y-180428900D02*
X484974900Y-180428900D01*
X318084200Y-199364600D02*
X316395100Y-197675500D01*
X318096900Y-199364600D02*
X318084200Y-199364600D01*
X165709600Y-199199500D02*
X167474900Y-197434200D01*
X165709600Y-199364600D02*
X165709600Y-199199500D01*
X428180500Y-223913700D02*
X416941000Y-223913700D01*
X428180500Y-223913700D02*
X433793900Y-223913700D01*
X486035350Y-229025450D02*
X491350300Y-223710500D01*
X442137800Y-226910900D02*
X443039500Y-227812600D01*
X438581800Y-226910900D02*
X442137800Y-226910900D01*
X435584600Y-223913700D02*
X438581800Y-226910900D01*
X443039500Y-227812600D02*
X455028300Y-227812600D01*
X433793900Y-223913700D02*
X435584600Y-223913700D01*
X455028300Y-227812600D02*
X456241150Y-229025450D01*
X456241150Y-229025450D02*
X486035350Y-229025450D01*
X301282100Y-161175700D02*
X288340800Y-161175700D01*
X288340800Y-161175700D02*
X286143700Y-158978600D01*
X286143700Y-158978600D02*
X265328400Y-158978600D01*
X265328400Y-158978600D02*
X261302500Y-163004500D01*
X261302500Y-163004500D02*
X256019300Y-163004500D01*
X254241300Y-161226500D02*
X241744500Y-161226500D01*
X256019300Y-163004500D02*
X254241300Y-161226500D01*
X332117700Y-161175700D02*
X334314800Y-158978600D01*
X301282100Y-161175700D02*
X332117700Y-161175700D01*
X413029400Y-223913700D02*
X412661100Y-223545400D01*
X416941000Y-223913700D02*
X413029400Y-223913700D01*
X345147900Y-158978600D02*
X346811600Y-158978600D01*
X334314800Y-158978600D02*
X345147900Y-158978600D01*
X354317300Y-166484300D02*
X382600200Y-166484300D01*
X346811600Y-158978600D02*
X354317300Y-166484300D01*
X126987300Y-227914200D02*
X127774700Y-227914200D01*
X123850400Y-227914200D02*
X126987300Y-227914200D01*
X127774700Y-227914200D02*
X128460500Y-228600000D01*
X163169600Y-228600000D02*
X163855400Y-227914200D01*
X128460500Y-228600000D02*
X163169600Y-228600000D01*
X281686000Y-199364600D02*
X283375100Y-197675500D01*
X279946100Y-199364600D02*
X281686000Y-199364600D01*
X316395100Y-197675500D02*
X283375100Y-197675500D01*
X278574500Y-199364600D02*
X279946100Y-199364600D01*
X276428200Y-197218300D02*
X278574500Y-199364600D01*
X245389400Y-197218300D02*
X276428200Y-197218300D01*
X243243100Y-199364600D02*
X245389400Y-197218300D01*
X241782600Y-199364600D02*
X243243100Y-199364600D01*
X201701400Y-199364600D02*
X199771000Y-197434200D01*
X203796900Y-199364600D02*
X201701400Y-199364600D01*
X167474900Y-197434200D02*
X199771000Y-197434200D01*
X240195100Y-199364600D02*
X241782600Y-199364600D01*
X237998000Y-197167500D02*
X240195100Y-199364600D01*
X208394300Y-197167500D02*
X237998000Y-197167500D01*
X206197200Y-199364600D02*
X208394300Y-197167500D01*
X203796900Y-199364600D02*
X206197200Y-199364600D01*
X381482600Y-180365400D02*
X381571500Y-180454300D01*
X365569500Y-180365400D02*
X381482600Y-180365400D01*
X395211300Y-188087000D02*
X396862300Y-189738000D01*
X389712200Y-182587900D02*
X395211300Y-188087000D01*
X383705100Y-182587900D02*
X389712200Y-182587900D01*
X381571500Y-180454300D02*
X383705100Y-182587900D01*
X446849500Y-256603500D02*
X446862200Y-256590800D01*
X175107600Y-180251100D02*
X175221900Y-180251100D01*
X175221900Y-180251100D02*
X178054000Y-177419000D01*
X210337400Y-177419000D02*
X213194900Y-180276500D01*
X178054000Y-177419000D02*
X210337400Y-177419000D01*
X251307600Y-180276500D02*
X251244100Y-180276500D01*
X251244100Y-180276500D02*
X248869200Y-177901600D01*
X215569800Y-177901600D02*
X213194900Y-180276500D01*
X248869200Y-177901600D02*
X215569800Y-177901600D01*
X162306000Y-245694200D02*
X164058600Y-245694200D01*
X251307600Y-180276500D02*
X252171200Y-180276500D01*
X252171200Y-180276500D02*
X254762000Y-177685700D01*
X285864300Y-177685700D02*
X286213550Y-177336450D01*
X254762000Y-177685700D02*
X285864300Y-177685700D01*
X446862200Y-256590800D02*
X446862200Y-256540000D01*
X451307200Y-252095000D02*
X459409800Y-252095000D01*
X446862200Y-256540000D02*
X451307200Y-252095000D01*
X464540600Y-252095000D02*
X466013800Y-250621800D01*
X460324200Y-252095000D02*
X464540600Y-252095000D01*
X459409800Y-252095000D02*
X460324200Y-252095000D01*
X446862200Y-218503500D02*
X457936600Y-218503500D01*
X442163200Y-228523800D02*
X443014100Y-229374700D01*
X443014100Y-229374700D02*
X452818500Y-229374700D01*
X454825100Y-229374700D02*
X454977500Y-229527100D01*
X452818500Y-229374700D02*
X454825100Y-229374700D01*
X476364300Y-218541600D02*
X485000300Y-218541600D01*
X474637100Y-220268800D02*
X476364300Y-218541600D01*
X463054700Y-220268800D02*
X474637100Y-220268800D01*
X461289400Y-218503500D02*
X463054700Y-220268800D01*
X457936600Y-218503500D02*
X461289400Y-218503500D01*
X327520300Y-180314600D02*
X331025500Y-180314600D01*
X126187200Y-245694200D02*
X162306000Y-245694200D01*
X164058600Y-245694200D02*
X166979600Y-242773200D01*
X123850400Y-245694200D02*
X164058600Y-245694200D01*
X418782500Y-254474100D02*
X418782500Y-255866900D01*
X419519100Y-256603500D02*
X422757600Y-256603500D01*
X418782500Y-255866900D02*
X419519100Y-256603500D01*
X423153100Y-256603500D02*
X425282500Y-254474100D01*
X422757600Y-256603500D02*
X423153100Y-256603500D01*
X414081100Y-244758600D02*
X407581100Y-244758600D01*
X428180500Y-226453700D02*
X416344100Y-226453700D01*
X418782500Y-254474100D02*
X425282500Y-254474100D01*
X428180500Y-226453700D02*
X433793900Y-226453700D01*
X433793900Y-226453700D02*
X436638700Y-226453700D01*
X438708800Y-228523800D02*
X442163200Y-228523800D01*
X436638700Y-226453700D02*
X438708800Y-228523800D01*
X331025500Y-180314600D02*
X335280000Y-180314600D01*
X414081100Y-249772700D02*
X418782500Y-254474100D01*
X414081100Y-244758600D02*
X414081100Y-249772700D01*
X335280000Y-180314600D02*
X339674200Y-180314600D01*
X339674200Y-180314600D02*
X341693500Y-178295300D01*
X371094000Y-178269900D02*
X371068600Y-178295300D01*
X374167400Y-178269900D02*
X371094000Y-178269900D01*
X344449400Y-178295300D02*
X371068600Y-178295300D01*
X341693500Y-178295300D02*
X344449400Y-178295300D01*
X402158200Y-226453700D02*
X400100800Y-228511100D01*
X416344100Y-226453700D02*
X402158200Y-226453700D01*
X400100800Y-228511100D02*
X387883400Y-228511100D01*
X304101500Y-180314600D02*
X289433000Y-180314600D01*
X305943000Y-182156100D02*
X304101500Y-180314600D01*
X310870600Y-182156100D02*
X305943000Y-182156100D01*
X312712100Y-180314600D02*
X310870600Y-182156100D01*
X327520300Y-180314600D02*
X312712100Y-180314600D01*
D22*
X131521200Y-266052300D02*
X131508500Y-266065000D01*
X134340600Y-266052300D02*
X131521200Y-266052300D01*
X134340600Y-266052300D02*
X134340600Y-264210800D01*
X134340600Y-264210800D02*
X135877300Y-262674100D01*
X155968700Y-264325100D02*
X155968700Y-265988800D01*
X154317700Y-262674100D02*
X155968700Y-264325100D01*
X145694400Y-265988800D02*
X145694400Y-262877300D01*
X145491200Y-262674100D02*
X154317700Y-262674100D01*
X145694400Y-262877300D02*
X145491200Y-262674100D01*
X135877300Y-262674100D02*
X145491200Y-262674100D01*
X117868700Y-240614200D02*
X121920000Y-240614200D01*
X121920000Y-240614200D02*
X115938300Y-240614200D01*
X118427500Y-258140200D02*
X115887500Y-258140200D01*
X115887500Y-240563400D02*
X115887500Y-258140200D01*
X118135400Y-266065000D02*
X123888500Y-266065000D01*
X115887500Y-263817100D02*
X118135400Y-266065000D01*
X115887500Y-258140200D02*
X115887500Y-263817100D01*
X115938300Y-240614200D02*
X115887500Y-240563400D01*
X123850400Y-240614200D02*
X115938300Y-240614200D01*
X115887500Y-187363100D02*
X115887500Y-240563400D01*
X148297900Y-154952700D02*
X115887500Y-187363100D01*
X363207300Y-154952700D02*
X148297900Y-154952700D01*
X373710200Y-157010100D02*
X365264700Y-157010100D01*
X364083600Y-154076400D02*
X363207300Y-154952700D01*
X364032800Y-155778200D02*
X365264700Y-157010100D01*
X364032800Y-154355800D02*
X364032800Y-155778200D01*
M02*
