G04 #@! TF.GenerationSoftware,KiCad,Pcbnew,(5.1.9)-1*
G04 #@! TF.CreationDate,2021-03-31T21:28:56-04:00*
G04 #@! TF.ProjectId,petkn,7065746b-6e2e-46b6-9963-61645f706362,rev?*
G04 #@! TF.SameCoordinates,Original*
G04 #@! TF.FileFunction,Copper,L1,Top*
G04 #@! TF.FilePolarity,Positive*
%FSLAX46Y46*%
G04 Gerber Fmt 4.6, Leading zero omitted, Abs format (unit mm)*
G04 Created by KiCad (PCBNEW (5.1.9)-1) date 2021-03-31 21:28:56*
%MOMM*%
%LPD*%
G01*
G04 APERTURE LIST*
G04 #@! TA.AperFunction,Profile*
%ADD10C,0.050000*%
G04 #@! TD*
G04 #@! TA.AperFunction,ComponentPad*
%ADD11C,2.200000*%
G04 #@! TD*
G04 #@! TA.AperFunction,ComponentPad*
%ADD12O,1.700000X1.700000*%
G04 #@! TD*
G04 #@! TA.AperFunction,ComponentPad*
%ADD13R,1.700000X1.700000*%
G04 #@! TD*
G04 #@! TA.AperFunction,ViaPad*
%ADD14C,0.800000*%
G04 #@! TD*
G04 #@! TA.AperFunction,Conductor*
%ADD15C,0.250000*%
G04 #@! TD*
G04 APERTURE END LIST*
D10*
X101351853Y-52705000D02*
G75*
G03*
X101351853Y-52705000I-2101353J0D01*
G01*
X253688353Y-52641500D02*
G75*
G03*
X253688353Y-52641500I-2101353J0D01*
G01*
X177482853Y-52666500D02*
G75*
G03*
X177482853Y-52666500I-2101353J0D01*
G01*
X300500000Y-143002000D02*
G75*
G03*
X300500000Y-143002000I-2500000J0D01*
G01*
X300500000Y-54000000D02*
G75*
G03*
X300500000Y-54000000I-2500000J0D01*
G01*
X300500000Y-97726500D02*
G75*
G03*
X300500000Y-97726500I-2500000J0D01*
G01*
X17272000Y-54419500D02*
X17272000Y-142367000D01*
X403352000Y-54419500D02*
X403352000Y-142367000D01*
X23114000Y-48577500D02*
X397510000Y-48577500D01*
X24217000Y-98000000D02*
G75*
G03*
X24217000Y-98000000I-2500000J0D01*
G01*
X24217000Y-53000000D02*
G75*
G03*
X24217000Y-53000000I-2500000J0D01*
G01*
X400772000Y-98000000D02*
G75*
G03*
X400772000Y-98000000I-2500000J0D01*
G01*
X23114000Y-148209000D02*
X397510000Y-148209000D01*
X397510000Y-48577500D02*
G75*
G02*
X403352000Y-54419500I0J-5842000D01*
G01*
X53871500Y-143000000D02*
G75*
G03*
X53871500Y-143000000I-2500000J0D01*
G01*
X24217000Y-143000000D02*
G75*
G03*
X24217000Y-143000000I-2500000J0D01*
G01*
X181189000Y-143000000D02*
G75*
G03*
X181189000Y-143000000I-2500000J0D01*
G01*
X253515500Y-143000000D02*
G75*
G03*
X253515500Y-143000000I-2500000J0D01*
G01*
X308824000Y-143000000D02*
G75*
G03*
X308824000Y-143000000I-2500000J0D01*
G01*
X400835500Y-143000000D02*
G75*
G03*
X400835500Y-143000000I-2500000J0D01*
G01*
X17272000Y-54419500D02*
G75*
G02*
X23114000Y-48577500I5842000J0D01*
G01*
X403352000Y-142367000D02*
G75*
G02*
X397510000Y-148209000I-5842000J0D01*
G01*
X308824000Y-54000000D02*
G75*
G03*
X308824000Y-54000000I-2500000J0D01*
G01*
X23114000Y-148209000D02*
G75*
G02*
X17272000Y-142367000I0J5842000D01*
G01*
X400772000Y-54000000D02*
G75*
G03*
X400772000Y-54000000I-2500000J0D01*
G01*
D11*
X159728000Y-133286500D03*
X166078000Y-130746500D03*
D12*
X70548500Y-136842500D03*
X68008500Y-136842500D03*
X70548500Y-134302500D03*
D13*
X68008500Y-134302500D03*
D12*
X130365500Y-136652000D03*
X127825500Y-136652000D03*
X130365500Y-134112000D03*
D13*
X127825500Y-134112000D03*
D12*
X197040500Y-137223500D03*
X194500500Y-137223500D03*
X197040500Y-134683500D03*
D13*
X194500500Y-134683500D03*
D12*
X255816100Y-136690100D03*
X253276100Y-136690100D03*
X255816100Y-134150100D03*
D13*
X253276100Y-134150100D03*
D12*
X43688000Y-137350500D03*
X41148000Y-137350500D03*
X43688000Y-134810500D03*
X41148000Y-134810500D03*
X43688000Y-132270500D03*
D13*
X41148000Y-132270500D03*
D11*
X38354000Y-95123000D03*
X44704000Y-92583000D03*
X85915500Y-133286500D03*
X92265500Y-130746500D03*
X35052000Y-54546500D03*
X28702000Y-57086500D03*
X271691000Y-114251500D03*
X278041000Y-111711500D03*
X187452000Y-54546500D03*
X181102000Y-57086500D03*
D12*
X309562500Y-70764400D03*
X309562500Y-73304400D03*
X309562500Y-75844400D03*
X309562500Y-78384400D03*
X309562500Y-80924400D03*
X309562500Y-83464400D03*
X309562500Y-86004400D03*
X309562500Y-88544400D03*
X309562500Y-91084400D03*
X309562500Y-93624400D03*
X309562500Y-96164400D03*
X309562500Y-98704400D03*
X309562500Y-101244400D03*
X309562500Y-103784400D03*
X309562500Y-106324400D03*
X309562500Y-108864400D03*
X309562500Y-111404400D03*
X309562500Y-113944400D03*
X309562500Y-116484400D03*
D13*
X309562500Y-119024400D03*
D11*
X200152000Y-57086500D03*
X206502000Y-54546500D03*
X196977000Y-73596500D03*
X190627000Y-76136500D03*
X66802000Y-57086500D03*
X73152000Y-54546500D03*
X219202000Y-57086500D03*
X225552000Y-54546500D03*
X339471000Y-133299200D03*
X345821000Y-130759200D03*
X111252000Y-54546500D03*
X104902000Y-57086500D03*
X143002000Y-57086500D03*
X149352000Y-54546500D03*
X231140000Y-133286500D03*
X237490000Y-130746500D03*
X276606000Y-95186500D03*
X282956000Y-92646500D03*
X43053000Y-114236500D03*
X49403000Y-111696500D03*
X33464500Y-76136500D03*
X39814500Y-73596500D03*
D12*
X185737500Y-50546000D03*
X188277500Y-50546000D03*
X190817500Y-50546000D03*
X193357500Y-50546000D03*
X195897500Y-50546000D03*
X198437500Y-50546000D03*
X200977500Y-50546000D03*
X203517500Y-50546000D03*
X206057500Y-50546000D03*
X208597500Y-50546000D03*
X211137500Y-50546000D03*
X213677500Y-50546000D03*
X216217500Y-50546000D03*
X218757500Y-50546000D03*
X221297500Y-50546000D03*
X223837500Y-50546000D03*
X226377500Y-50546000D03*
X228917500Y-50546000D03*
X231457500Y-50546000D03*
D13*
X233997500Y-50546000D03*
D11*
X383921000Y-130759200D03*
X377571000Y-133299200D03*
X252730000Y-95186500D03*
X259080000Y-92646500D03*
X273177000Y-73596500D03*
X266827000Y-76136500D03*
X263652000Y-54546500D03*
X257302000Y-57086500D03*
X364871000Y-130759200D03*
X358521000Y-133299200D03*
X320421000Y-133299200D03*
X326771000Y-130759200D03*
X285877000Y-76136500D03*
X292227000Y-73596500D03*
X276352000Y-57086500D03*
X282702000Y-54546500D03*
X383921000Y-111709200D03*
X377571000Y-114249200D03*
X339471000Y-114249200D03*
X345821000Y-111709200D03*
X243078000Y-114236500D03*
X249428000Y-111696500D03*
X211328000Y-111696500D03*
X204978000Y-114236500D03*
X166878000Y-114236500D03*
X173228000Y-111696500D03*
X135128000Y-111696500D03*
X128778000Y-114236500D03*
X90678000Y-114236500D03*
X97028000Y-111696500D03*
X364871000Y-111709200D03*
X358521000Y-114249200D03*
X320421000Y-114249200D03*
X326771000Y-111709200D03*
X224028000Y-114236500D03*
X230378000Y-111696500D03*
X192278000Y-111696500D03*
X185928000Y-114236500D03*
X147828000Y-114236500D03*
X154178000Y-111696500D03*
X116078000Y-111696500D03*
X109728000Y-114236500D03*
X71628000Y-114236500D03*
X77978000Y-111696500D03*
X383921000Y-92659200D03*
X377571000Y-95199200D03*
X339471000Y-95199200D03*
X345821000Y-92659200D03*
X233680000Y-95186500D03*
X240030000Y-92646500D03*
X201930000Y-92646500D03*
X195580000Y-95186500D03*
X157480000Y-95186500D03*
X163830000Y-92646500D03*
X125730000Y-92646500D03*
X119380000Y-95186500D03*
X81280000Y-95186500D03*
X87630000Y-92646500D03*
X364871000Y-92659200D03*
X358521000Y-95199200D03*
X320421000Y-95199200D03*
X326771000Y-92659200D03*
X214630000Y-95186500D03*
X220980000Y-92646500D03*
X182880000Y-92646500D03*
X176530000Y-95186500D03*
X138430000Y-95186500D03*
X144780000Y-92646500D03*
X106680000Y-92646500D03*
X100330000Y-95186500D03*
X62230000Y-95186500D03*
X68580000Y-92646500D03*
X383921000Y-73609200D03*
X377571000Y-76149200D03*
X339471000Y-76149200D03*
X345821000Y-73609200D03*
X228727000Y-76136500D03*
X235077000Y-73596500D03*
X152527000Y-76136500D03*
X158877000Y-73596500D03*
X120777000Y-73596500D03*
X114427000Y-76136500D03*
X76327000Y-76136500D03*
X82677000Y-73596500D03*
X364871000Y-73609200D03*
X358521000Y-76149200D03*
X320421000Y-76149200D03*
X326771000Y-73609200D03*
X254127000Y-73596500D03*
X247777000Y-76136500D03*
X209677000Y-76136500D03*
X216027000Y-73596500D03*
X177927000Y-73596500D03*
X171577000Y-76136500D03*
X133477000Y-76136500D03*
X139827000Y-73596500D03*
X101727000Y-73596500D03*
X95377000Y-76136500D03*
X57277000Y-76136500D03*
X63627000Y-73596500D03*
X383921000Y-54559200D03*
X377571000Y-57099200D03*
X339471000Y-57099200D03*
X345821000Y-54559200D03*
X364871000Y-54559200D03*
X358521000Y-57099200D03*
X320421000Y-57099200D03*
X326771000Y-54559200D03*
X244602000Y-54546500D03*
X238252000Y-57086500D03*
X168402000Y-54546500D03*
X162052000Y-57086500D03*
X123952000Y-57086500D03*
X130302000Y-54546500D03*
X92202000Y-54546500D03*
X85852000Y-57086500D03*
X47752000Y-57086500D03*
X54102000Y-54546500D03*
D14*
X175260000Y-66929000D03*
X61087000Y-66929000D03*
X50546000Y-93345000D03*
X204533500Y-56197500D03*
X240347500Y-88519000D03*
X195516500Y-87312500D03*
X187833000Y-57086500D03*
X191897000Y-70675500D03*
X119697500Y-54546500D03*
X119634000Y-68199000D03*
X264858500Y-68199000D03*
X193738500Y-69596000D03*
X283654500Y-69659500D03*
X193357500Y-54292500D03*
X270573500Y-107315000D03*
X290131500Y-94869000D03*
X292544500Y-80899000D03*
X194627500Y-64579500D03*
X251968000Y-65024000D03*
X282956000Y-83566000D03*
X254254000Y-83502500D03*
X45021500Y-64706500D03*
X278320500Y-135382000D03*
X326707500Y-85991700D03*
X197231000Y-84772500D03*
X201739500Y-87693500D03*
X326006395Y-56593805D03*
X184975500Y-89535000D03*
X181800500Y-62484000D03*
X207126442Y-62600442D03*
X93218000Y-89535000D03*
X201612500Y-76136500D03*
X320421000Y-89484200D03*
X248729500Y-102171500D03*
X202946000Y-81915000D03*
X340106000Y-90246200D03*
X208153000Y-103314500D03*
X215836500Y-104330500D03*
X207073500Y-80899000D03*
X198882000Y-80899000D03*
X234188000Y-105600500D03*
X324294500Y-93357700D03*
X214376000Y-63627000D03*
X221488000Y-56388000D03*
X273494500Y-111633000D03*
X340042500Y-121932700D03*
X207010000Y-92900500D03*
X223520000Y-90741500D03*
X272415000Y-131826000D03*
X29400500Y-114236500D03*
X228409500Y-107315000D03*
X272351500Y-107569000D03*
X277431500Y-76009500D03*
X336359500Y-124726700D03*
D15*
X54102000Y-54546500D02*
X73152000Y-54546500D01*
X77978000Y-111696500D02*
X97028000Y-111696500D01*
X68580000Y-92646500D02*
X87630000Y-92646500D01*
X63627000Y-73596500D02*
X82677000Y-73596500D01*
X175260000Y-66929000D02*
X61087000Y-66929000D01*
X63627000Y-73596500D02*
X39814500Y-73596500D01*
X51244500Y-92646500D02*
X50546000Y-93345000D01*
X68580000Y-92646500D02*
X51244500Y-92646500D01*
X294449500Y-66929000D02*
X175260000Y-66929000D01*
X298259500Y-70739000D02*
X294449500Y-66929000D01*
X306387500Y-70739000D02*
X298259500Y-70739000D01*
X309562500Y-70764400D02*
X306387500Y-70739000D01*
X47752000Y-57086500D02*
X49784000Y-57086500D01*
X49784000Y-57086500D02*
X50355500Y-56515000D01*
X50355500Y-56515000D02*
X61785500Y-56515000D01*
X61785500Y-56515000D02*
X63055500Y-55245000D01*
X63055500Y-55245000D02*
X70231000Y-55245000D01*
X72072500Y-57086500D02*
X85852000Y-57086500D01*
X70231000Y-55245000D02*
X72072500Y-57086500D01*
X123952000Y-57086500D02*
X125793500Y-57086500D01*
X125793500Y-57086500D02*
X126492000Y-56388000D01*
X126492000Y-56388000D02*
X138493500Y-56388000D01*
X138493500Y-56388000D02*
X139573000Y-55308500D01*
X139573000Y-55308500D02*
X146685000Y-55308500D01*
X148463000Y-57086500D02*
X162052000Y-57086500D01*
X146685000Y-55308500D02*
X148463000Y-57086500D01*
X320421000Y-57099200D02*
X320421000Y-57035700D01*
X354965000Y-57099200D02*
X358521000Y-57099200D01*
X320421000Y-57099200D02*
X320421000Y-57924700D01*
X320421000Y-57924700D02*
X321119500Y-58623200D01*
X321119500Y-58623200D02*
X321119500Y-61480700D01*
X322135500Y-62496700D02*
X349758000Y-62496700D01*
X321119500Y-61480700D02*
X322135500Y-62496700D01*
X349758000Y-62496700D02*
X354965000Y-57099200D01*
X200152000Y-57086500D02*
X201358500Y-57086500D01*
X201358500Y-57086500D02*
X202184000Y-56261000D01*
X204470000Y-56261000D02*
X204533500Y-56197500D01*
X202184000Y-56261000D02*
X204470000Y-56261000D01*
X240347500Y-88519000D02*
X202819000Y-88519000D01*
X202819000Y-88519000D02*
X202565000Y-88773000D01*
X202565000Y-88773000D02*
X196659500Y-88773000D01*
X195516500Y-87630000D02*
X195516500Y-87312500D01*
X196659500Y-88773000D02*
X195516500Y-87630000D01*
X187833000Y-57086500D02*
X200152000Y-57086500D01*
X102997000Y-55435500D02*
X101790500Y-56642000D01*
X88328500Y-56642000D02*
X87884000Y-57086500D01*
X101790500Y-56642000D02*
X88328500Y-56642000D01*
X107315000Y-55435500D02*
X102997000Y-55435500D01*
X108966000Y-57086500D02*
X107315000Y-55435500D01*
X87884000Y-57086500D02*
X85852000Y-57086500D01*
X123952000Y-57086500D02*
X108966000Y-57086500D01*
X186817000Y-57086500D02*
X187833000Y-57086500D01*
X180149500Y-55245000D02*
X184975500Y-55245000D01*
X177546000Y-57848500D02*
X180149500Y-55245000D01*
X167386000Y-56578500D02*
X168656000Y-57848500D01*
X168656000Y-57848500D02*
X177546000Y-57848500D01*
X164274500Y-56578500D02*
X167386000Y-56578500D01*
X163766500Y-57086500D02*
X164274500Y-56578500D01*
X184975500Y-55245000D02*
X186817000Y-57086500D01*
X162052000Y-57086500D02*
X163766500Y-57086500D01*
X300926500Y-88519000D02*
X240347500Y-88519000D01*
X303466500Y-91059000D02*
X300926500Y-88519000D01*
X309562500Y-91084400D02*
X303466500Y-91059000D01*
X35052000Y-54546500D02*
X49022000Y-54546500D01*
X116078000Y-111696500D02*
X135128000Y-111696500D01*
X101727000Y-73596500D02*
X120777000Y-73596500D01*
X106680000Y-92646500D02*
X125730000Y-92646500D01*
X120777000Y-73596500D02*
X129349500Y-73596500D01*
X129349500Y-73596500D02*
X131191000Y-71755000D01*
X131191000Y-71755000D02*
X186690000Y-71755000D01*
X186690000Y-71755000D02*
X190817500Y-71755000D01*
X190817500Y-71755000D02*
X191897000Y-70675500D01*
X111252000Y-54546500D02*
X119697500Y-54546500D01*
X92202000Y-54546500D02*
X77279500Y-54546500D01*
X77279500Y-54546500D02*
X75438000Y-52705000D01*
X49022000Y-54546500D02*
X50990500Y-52705000D01*
X75438000Y-52705000D02*
X50990500Y-52705000D01*
X119634000Y-68199000D02*
X264858500Y-68199000D01*
X92202000Y-54546500D02*
X94488000Y-54546500D01*
X94488000Y-54546500D02*
X95504000Y-55562500D01*
X100647500Y-55562500D02*
X101663500Y-54546500D01*
X95504000Y-55562500D02*
X100647500Y-55562500D01*
X111252000Y-54546500D02*
X101663500Y-54546500D01*
X298513500Y-73279000D02*
X309562500Y-73304400D01*
X293433500Y-68199000D02*
X298513500Y-73279000D01*
X264858500Y-68199000D02*
X293433500Y-68199000D01*
X154178000Y-111696500D02*
X173228000Y-111696500D01*
X173736000Y-112204500D02*
X173228000Y-111696500D01*
X139827000Y-73596500D02*
X158877000Y-73596500D01*
X144780000Y-92646500D02*
X163830000Y-92646500D01*
X130302000Y-54546500D02*
X149352000Y-54546500D01*
X193802000Y-69659500D02*
X193738500Y-69596000D01*
X283654500Y-69659500D02*
X193802000Y-69659500D01*
X190563500Y-130746500D02*
X194500500Y-134683500D01*
X166078000Y-130746500D02*
X190563500Y-130746500D01*
X130365500Y-134112000D02*
X147955000Y-134112000D01*
X151320500Y-130746500D02*
X166078000Y-130746500D01*
X147955000Y-134112000D02*
X151320500Y-130746500D01*
X190817500Y-52197000D02*
X190817500Y-50546000D01*
X177038000Y-55372000D02*
X179768500Y-52641500D01*
X173101000Y-55372000D02*
X177038000Y-55372000D01*
X170370500Y-52641500D02*
X173101000Y-55372000D01*
X190373000Y-52641500D02*
X190817500Y-52197000D01*
X166497000Y-52641500D02*
X170370500Y-52641500D01*
X164592000Y-54546500D02*
X166497000Y-52641500D01*
X179768500Y-52641500D02*
X190373000Y-52641500D01*
X149352000Y-54546500D02*
X164592000Y-54546500D01*
X292100000Y-69659500D02*
X283654500Y-69659500D01*
X298259500Y-75819000D02*
X292100000Y-69659500D01*
X309562500Y-75844400D02*
X298259500Y-75819000D01*
X211328000Y-111696500D02*
X192278000Y-111696500D01*
X182880000Y-92646500D02*
X201930000Y-92646500D01*
X177927000Y-73596500D02*
X196977000Y-73596500D01*
X211328000Y-111696500D02*
X224726500Y-111696500D01*
X224726500Y-111696500D02*
X227965000Y-108458000D01*
X227965000Y-108458000D02*
X257810000Y-108458000D01*
X187452000Y-54546500D02*
X193103500Y-54546500D01*
X193103500Y-54546500D02*
X193357500Y-54292500D01*
X196977000Y-73596500D02*
X206248000Y-73596500D01*
X206248000Y-73596500D02*
X209613500Y-70231000D01*
X257810000Y-108458000D02*
X258889500Y-108458000D01*
X258889500Y-108458000D02*
X259905500Y-107442000D01*
X259905500Y-107442000D02*
X270446500Y-107442000D01*
X270446500Y-107442000D02*
X270573500Y-107315000D01*
X168402000Y-54546500D02*
X168846500Y-54546500D01*
X168846500Y-54546500D02*
X170688000Y-56388000D01*
X177228500Y-56388000D02*
X179070000Y-54546500D01*
X170688000Y-56388000D02*
X177228500Y-56388000D01*
X179070000Y-54546500D02*
X187452000Y-54546500D01*
X273748500Y-73596500D02*
X273177000Y-73596500D01*
X286575500Y-72707500D02*
X274637500Y-72707500D01*
X274637500Y-72707500D02*
X273748500Y-73596500D01*
X295211500Y-75882500D02*
X289750500Y-75882500D01*
X297688000Y-78359000D02*
X295211500Y-75882500D01*
X289750500Y-75882500D02*
X286575500Y-72707500D01*
X309562500Y-78384400D02*
X297688000Y-78359000D01*
X230378000Y-111696500D02*
X249428000Y-111696500D01*
X220980000Y-92646500D02*
X240030000Y-92646500D01*
X240030000Y-92646500D02*
X259080000Y-92646500D01*
X216027000Y-73596500D02*
X235077000Y-73596500D01*
X259080000Y-92646500D02*
X271526000Y-92646500D01*
X206502000Y-54546500D02*
X207772000Y-54546500D01*
X207772000Y-54546500D02*
X208407000Y-55181500D01*
X224917000Y-55181500D02*
X225552000Y-54546500D01*
X208407000Y-55181500D02*
X224917000Y-55181500D01*
X271526000Y-92646500D02*
X279336500Y-92646500D01*
X279336500Y-92646500D02*
X281559000Y-94869000D01*
X281559000Y-94869000D02*
X290131500Y-94869000D01*
X195897500Y-52006500D02*
X198437500Y-54546500D01*
X195897500Y-50546000D02*
X195897500Y-52006500D01*
X206502000Y-54546500D02*
X198437500Y-54546500D01*
X309562500Y-80924400D02*
X292544500Y-80899000D01*
X48704500Y-64643000D02*
X192405000Y-64579500D01*
X192405000Y-64579500D02*
X194627500Y-64579500D01*
X194627500Y-64579500D02*
X211645500Y-64579500D01*
X211645500Y-64579500D02*
X212153500Y-65087500D01*
X212153500Y-65087500D02*
X243522500Y-65087500D01*
X243522500Y-65087500D02*
X243586000Y-65024000D01*
X243586000Y-65024000D02*
X251968000Y-65024000D01*
X254317500Y-83566000D02*
X254254000Y-83502500D01*
X282956000Y-83566000D02*
X254317500Y-83566000D01*
X42418000Y-136080500D02*
X41148000Y-137350500D01*
X61849000Y-136080500D02*
X42418000Y-136080500D01*
X48641000Y-64706500D02*
X48704500Y-64643000D01*
X45021500Y-64706500D02*
X48641000Y-64706500D01*
X264731500Y-135382000D02*
X278320500Y-135382000D01*
X68008500Y-134302500D02*
X63627000Y-134302500D01*
X63627000Y-134302500D02*
X61849000Y-136080500D01*
X283083000Y-83439000D02*
X282956000Y-83566000D01*
X309562500Y-83464400D02*
X283083000Y-83439000D01*
X263499600Y-134150100D02*
X263613900Y-134264400D01*
X255816100Y-134150100D02*
X263499600Y-134150100D01*
X263613900Y-134264400D02*
X264731500Y-135382000D01*
X263525000Y-134175500D02*
X263613900Y-134264400D01*
X326771000Y-54559200D02*
X345821000Y-54559200D01*
X326771000Y-73609200D02*
X345821000Y-73609200D01*
X326771000Y-92659200D02*
X345821000Y-92659200D01*
X345821000Y-111709200D02*
X326771000Y-111709200D01*
X326771000Y-130759200D02*
X345821000Y-130759200D01*
X309816500Y-85979000D02*
X313944000Y-85979000D01*
X313944000Y-85979000D02*
X198437500Y-85979000D01*
X198437500Y-85979000D02*
X197231000Y-84772500D01*
X326694800Y-85979000D02*
X326707500Y-85991700D01*
X313944000Y-85979000D02*
X326694800Y-85979000D01*
X364871000Y-54559200D02*
X383921000Y-54559200D01*
X364871000Y-73609200D02*
X383921000Y-73609200D01*
X364871000Y-111709200D02*
X383921000Y-111709200D01*
X364871000Y-130759200D02*
X383921000Y-130759200D01*
X364871000Y-92659200D02*
X383921000Y-92659200D01*
X360743500Y-88531700D02*
X364871000Y-92659200D01*
X360730800Y-88519000D02*
X360743500Y-88531700D01*
X303847500Y-88519000D02*
X360730800Y-88519000D01*
X303022000Y-87693500D02*
X303847500Y-88519000D01*
X201739500Y-87693500D02*
X303022000Y-87693500D01*
X377571000Y-57099200D02*
X364045500Y-57099200D01*
X364045500Y-57099200D02*
X362013500Y-55067200D01*
X362013500Y-55067200D02*
X348932500Y-55067200D01*
X348932500Y-55067200D02*
X347472000Y-56527700D01*
X340042500Y-56527700D02*
X339471000Y-57099200D01*
X347472000Y-56527700D02*
X340042500Y-56527700D01*
X66802000Y-57086500D02*
X66802000Y-58039000D01*
X66802000Y-58039000D02*
X67500500Y-58737500D01*
X67500500Y-58737500D02*
X67500500Y-61023500D01*
X67500500Y-61023500D02*
X69024500Y-62547500D01*
X104902000Y-57086500D02*
X104902000Y-57531000D01*
X104902000Y-57531000D02*
X105664000Y-58293000D01*
X105664000Y-58293000D02*
X105664000Y-61595000D01*
X105664000Y-61595000D02*
X106553000Y-62484000D01*
X106553000Y-62484000D02*
X134620000Y-62484000D01*
X143002000Y-57086500D02*
X143002000Y-57785000D01*
X143573500Y-58356500D02*
X143573500Y-62420500D01*
X143002000Y-57785000D02*
X143573500Y-58356500D01*
X134620000Y-62484000D02*
X143573500Y-62420500D01*
X143573500Y-62420500D02*
X173736000Y-62484000D01*
X173736000Y-62484000D02*
X181800500Y-62484000D01*
X106489500Y-62547500D02*
X106553000Y-62484000D01*
X96456500Y-62547500D02*
X106489500Y-62547500D01*
X326517000Y-57099200D02*
X339471000Y-57099200D01*
X210756500Y-62611000D02*
X216344500Y-57023000D01*
X209423000Y-62611000D02*
X210756500Y-62611000D01*
X219202000Y-57086500D02*
X216344500Y-57023000D01*
X326006395Y-56593805D02*
X326517000Y-57099200D01*
X207126442Y-62600442D02*
X209423000Y-62611000D01*
X181800500Y-62484000D02*
X207126442Y-62600442D01*
X90995500Y-62547500D02*
X96456500Y-62547500D01*
X69024500Y-62547500D02*
X90995500Y-62547500D01*
X184975500Y-89535000D02*
X93218000Y-89535000D01*
X298704000Y-89535000D02*
X184975500Y-89535000D01*
X302768000Y-93599000D02*
X298704000Y-89535000D01*
X309562500Y-93624400D02*
X302768000Y-93599000D01*
X57277000Y-76136500D02*
X59182000Y-76136500D01*
X59182000Y-76136500D02*
X59690000Y-75628500D01*
X59690000Y-75628500D02*
X73723500Y-75628500D01*
X73723500Y-75628500D02*
X75057000Y-74295000D01*
X75057000Y-74295000D02*
X80200500Y-74295000D01*
X82042000Y-76136500D02*
X95377000Y-76136500D01*
X80200500Y-74295000D02*
X82042000Y-76136500D01*
X95377000Y-76136500D02*
X97663000Y-76136500D01*
X97663000Y-76136500D02*
X98171000Y-75628500D01*
X98171000Y-75628500D02*
X110109000Y-75628500D01*
X110109000Y-75628500D02*
X111506000Y-74231500D01*
X111506000Y-74231500D02*
X118110000Y-74231500D01*
X120015000Y-76136500D02*
X133477000Y-76136500D01*
X118110000Y-74231500D02*
X120015000Y-76136500D01*
X133477000Y-76136500D02*
X135445500Y-76136500D01*
X135445500Y-76136500D02*
X135953500Y-75628500D01*
X135953500Y-75628500D02*
X147891500Y-75628500D01*
X147891500Y-75628500D02*
X149161500Y-74358500D01*
X149161500Y-74358500D02*
X156718000Y-74358500D01*
X158496000Y-76136500D02*
X171577000Y-76136500D01*
X156718000Y-74358500D02*
X158496000Y-76136500D01*
X320421000Y-76149200D02*
X322453000Y-76149200D01*
X322453000Y-76149200D02*
X323151500Y-75450700D01*
X323151500Y-75450700D02*
X325628000Y-75450700D01*
X325628000Y-75450700D02*
X326009000Y-75831700D01*
X326009000Y-75831700D02*
X336994500Y-75831700D01*
X336994500Y-75831700D02*
X338582000Y-74244200D01*
X338582000Y-74244200D02*
X343217500Y-74244200D01*
X345122500Y-76149200D02*
X358521000Y-76149200D01*
X343217500Y-74244200D02*
X345122500Y-76149200D01*
X247777000Y-76136500D02*
X234569000Y-76136500D01*
X234569000Y-76136500D02*
X232727500Y-74295000D01*
X232727500Y-74295000D02*
X219329000Y-74295000D01*
X219329000Y-74295000D02*
X217932000Y-75692000D01*
X210121500Y-75692000D02*
X209677000Y-76136500D01*
X217932000Y-75692000D02*
X210121500Y-75692000D01*
X196278500Y-76136500D02*
X194437000Y-74295000D01*
X194437000Y-74295000D02*
X182054500Y-74295000D01*
X182054500Y-74295000D02*
X180657500Y-75692000D01*
X172021500Y-75692000D02*
X171577000Y-76136500D01*
X180657500Y-75692000D02*
X172021500Y-75692000D01*
X209677000Y-76136500D02*
X201612500Y-76136500D01*
X201612500Y-76136500D02*
X196278500Y-76136500D01*
X299783500Y-102171500D02*
X305816000Y-96139000D01*
X305816000Y-96139000D02*
X309562500Y-96164400D01*
X248729500Y-102171500D02*
X299783500Y-102171500D01*
X319659000Y-90246200D02*
X320421000Y-89484200D01*
X313740800Y-96164400D02*
X319659000Y-90246200D01*
X309562500Y-96164400D02*
X313740800Y-96164400D01*
X377571000Y-76149200D02*
X375348500Y-76149200D01*
X375348500Y-76149200D02*
X369506500Y-81991200D01*
X76327000Y-76136500D02*
X76327000Y-77279500D01*
X76327000Y-77279500D02*
X76962000Y-77914500D01*
X76962000Y-77914500D02*
X76962000Y-79819500D01*
X76962000Y-79819500D02*
X79057500Y-81915000D01*
X79057500Y-81915000D02*
X105791000Y-81915000D01*
X111569500Y-76136500D02*
X114427000Y-76136500D01*
X105791000Y-81915000D02*
X111569500Y-76136500D01*
X105791000Y-81915000D02*
X143510000Y-81915000D01*
X149288500Y-76136500D02*
X152527000Y-76136500D01*
X143510000Y-81915000D02*
X149288500Y-76136500D01*
X143510000Y-81915000D02*
X189674500Y-81915000D01*
X189674500Y-81915000D02*
X191198500Y-80391000D01*
X191198500Y-76708000D02*
X190627000Y-76136500D01*
X191198500Y-80391000D02*
X191198500Y-76708000D01*
X189674500Y-81915000D02*
X228346000Y-81915000D01*
X229108000Y-76517500D02*
X228727000Y-76136500D01*
X229108000Y-81153000D02*
X229108000Y-76517500D01*
X228346000Y-81915000D02*
X228663500Y-81661000D01*
X228663500Y-81661000D02*
X229108000Y-81153000D01*
X340106000Y-76784200D02*
X339471000Y-76149200D01*
X342201500Y-81991200D02*
X340169500Y-79959200D01*
X340169500Y-79959200D02*
X340106000Y-76784200D01*
X369506500Y-81991200D02*
X342201500Y-81991200D01*
X339629750Y-90722450D02*
X340106000Y-90246200D01*
X323564250Y-90722450D02*
X339629750Y-90722450D01*
X317627000Y-94818200D02*
X319976500Y-92468700D01*
X321818000Y-92468700D02*
X323564250Y-90722450D01*
X317627000Y-96532700D02*
X317627000Y-94818200D01*
X306387500Y-98679000D02*
X309562500Y-98704400D01*
X319976500Y-92468700D02*
X321818000Y-92468700D01*
X301752000Y-103314500D02*
X306387500Y-98679000D01*
X208153000Y-103314500D02*
X301752000Y-103314500D01*
X315455300Y-98704400D02*
X315614050Y-98545650D01*
X309562500Y-98704400D02*
X315455300Y-98704400D01*
X315614050Y-98545650D02*
X317627000Y-96532700D01*
X315468000Y-98691700D02*
X315614050Y-98545650D01*
X100330000Y-95186500D02*
X102298500Y-95186500D01*
X102298500Y-95186500D02*
X102870000Y-94615000D01*
X102870000Y-94615000D02*
X114554000Y-94615000D01*
X114554000Y-94615000D02*
X115760500Y-93408500D01*
X115760500Y-93408500D02*
X123126500Y-93408500D01*
X124904500Y-95186500D02*
X138430000Y-95186500D01*
X123126500Y-93408500D02*
X124904500Y-95186500D01*
X138430000Y-95186500D02*
X140271500Y-95186500D01*
X140271500Y-95186500D02*
X140779500Y-94678500D01*
X140779500Y-94678500D02*
X152908000Y-94678500D01*
X152908000Y-94678500D02*
X154241500Y-93345000D01*
X154241500Y-93345000D02*
X161417000Y-93345000D01*
X163258500Y-95186500D02*
X176530000Y-95186500D01*
X161417000Y-93345000D02*
X163258500Y-95186500D01*
X176530000Y-95186500D02*
X178435000Y-95186500D01*
X178435000Y-95186500D02*
X178943000Y-94678500D01*
X178943000Y-94678500D02*
X190182500Y-94678500D01*
X190182500Y-94678500D02*
X191516000Y-93345000D01*
X191516000Y-93345000D02*
X199199500Y-93345000D01*
X201041000Y-95186500D02*
X214630000Y-95186500D01*
X199199500Y-93345000D02*
X201041000Y-95186500D01*
X62230000Y-95186500D02*
X64071500Y-95186500D01*
X64071500Y-95186500D02*
X64643000Y-94615000D01*
X64643000Y-94615000D02*
X78295500Y-94615000D01*
X78295500Y-94615000D02*
X79565500Y-93345000D01*
X79565500Y-93345000D02*
X85026500Y-93345000D01*
X86868000Y-95186500D02*
X100330000Y-95186500D01*
X85026500Y-93345000D02*
X86868000Y-95186500D01*
X320421000Y-95199200D02*
X320421000Y-96532700D01*
X320421000Y-96532700D02*
X321119500Y-97231200D01*
X321119500Y-97231200D02*
X321119500Y-99580700D01*
X321119500Y-99580700D02*
X322643500Y-101104700D01*
X322643500Y-101104700D02*
X349123000Y-101104700D01*
X355028500Y-95199200D02*
X358521000Y-95199200D01*
X349123000Y-101104700D02*
X355028500Y-95199200D01*
X322516500Y-101231700D02*
X322643500Y-101104700D01*
X303149000Y-104267000D02*
X306197000Y-101219000D01*
X216725500Y-104267000D02*
X303149000Y-104267000D01*
X215836500Y-104330500D02*
X216725500Y-104267000D01*
X306222400Y-101244400D02*
X306197000Y-101219000D01*
X309562500Y-101244400D02*
X306222400Y-101244400D01*
X322503800Y-101244400D02*
X322516500Y-101231700D01*
X309562500Y-101244400D02*
X322503800Y-101244400D01*
X81280000Y-95186500D02*
X81280000Y-96202500D01*
X81280000Y-96202500D02*
X81978500Y-96901000D01*
X81978500Y-96901000D02*
X81978500Y-98742500D01*
X81978500Y-98742500D02*
X83629500Y-100393500D01*
X83629500Y-100393500D02*
X110871000Y-100393500D01*
X116078000Y-95186500D02*
X119380000Y-95186500D01*
X110871000Y-100393500D02*
X116078000Y-95186500D01*
X119380000Y-95186500D02*
X119380000Y-96393000D01*
X119380000Y-96393000D02*
X120142000Y-97155000D01*
X120142000Y-97155000D02*
X120142000Y-98679000D01*
X120142000Y-98679000D02*
X122110500Y-100647500D01*
X122110500Y-100647500D02*
X148971000Y-100647500D01*
X157480000Y-95186500D02*
X157480000Y-95885000D01*
X157480000Y-95885000D02*
X158115000Y-96520000D01*
X158115000Y-96520000D02*
X158115000Y-99568000D01*
X158115000Y-99568000D02*
X159194500Y-100647500D01*
X159194500Y-100647500D02*
X186753500Y-100647500D01*
X195580000Y-95186500D02*
X195580000Y-96456500D01*
X195580000Y-96456500D02*
X196342000Y-97218500D01*
X196342000Y-97218500D02*
X196342000Y-99758500D01*
X196342000Y-99758500D02*
X197231000Y-100647500D01*
X197231000Y-100647500D02*
X224155000Y-100647500D01*
X148971000Y-100647500D02*
X159194500Y-100647500D01*
X186753500Y-100647500D02*
X197231000Y-100647500D01*
X339471000Y-95199200D02*
X341185500Y-95199200D01*
X341185500Y-95199200D02*
X341820500Y-94564200D01*
X341820500Y-94564200D02*
X354139500Y-94564200D01*
X354139500Y-94564200D02*
X355346000Y-93357700D01*
X355346000Y-93357700D02*
X362521500Y-93357700D01*
X364363000Y-95199200D02*
X377571000Y-95199200D01*
X362521500Y-93357700D02*
X364363000Y-95199200D01*
X339471000Y-95199200D02*
X326136000Y-95199200D01*
X326136000Y-95199200D02*
X324294500Y-93357700D01*
X224345500Y-100584000D02*
X224282000Y-100647500D01*
X224155000Y-100647500D02*
X224282000Y-100647500D01*
X233680000Y-95186500D02*
X233680000Y-96139000D01*
X233680000Y-96139000D02*
X234124500Y-96583500D01*
X234124500Y-96583500D02*
X234124500Y-99695000D01*
X234124500Y-99695000D02*
X233362500Y-100457000D01*
X233362500Y-100457000D02*
X224345500Y-100584000D01*
X207073500Y-80899000D02*
X198882000Y-80899000D01*
X374586500Y-103771700D02*
X378333000Y-100025200D01*
X378333000Y-95961200D02*
X377571000Y-95199200D01*
X378333000Y-100025200D02*
X378333000Y-95961200D01*
X234188000Y-105600500D02*
X234950000Y-105600500D01*
X303784000Y-105600500D02*
X234950000Y-105600500D01*
X305600100Y-103784400D02*
X305587400Y-103797100D01*
X305587400Y-103797100D02*
X303784000Y-105600500D01*
X309562500Y-103784400D02*
X305600100Y-103784400D01*
X305625500Y-103759000D02*
X305587400Y-103797100D01*
X71628000Y-114236500D02*
X73533000Y-114236500D01*
X73533000Y-114236500D02*
X73977500Y-113792000D01*
X73977500Y-113792000D02*
X88201500Y-113792000D01*
X88201500Y-113792000D02*
X89598500Y-112395000D01*
X89598500Y-112395000D02*
X94488000Y-112395000D01*
X96329500Y-114236500D02*
X109728000Y-114236500D01*
X94488000Y-112395000D02*
X96329500Y-114236500D01*
X109728000Y-114236500D02*
X112141000Y-114236500D01*
X112141000Y-114236500D02*
X112522000Y-113855500D01*
X112522000Y-113855500D02*
X124333000Y-113855500D01*
X124333000Y-113855500D02*
X125730000Y-112458500D01*
X125730000Y-112458500D02*
X132905500Y-112458500D01*
X134683500Y-114236500D02*
X147828000Y-114236500D01*
X132905500Y-112458500D02*
X134683500Y-114236500D01*
X147828000Y-114236500D02*
X149669500Y-114236500D01*
X149669500Y-114236500D02*
X150177500Y-113728500D01*
X150177500Y-113728500D02*
X164338000Y-113728500D01*
X164338000Y-113728500D02*
X165671500Y-112395000D01*
X165671500Y-112395000D02*
X170624500Y-112395000D01*
X170624500Y-112395000D02*
X172466000Y-114236500D01*
X172466000Y-114236500D02*
X185928000Y-114236500D01*
X185928000Y-114236500D02*
X187896500Y-114236500D01*
X187896500Y-114236500D02*
X188468000Y-113665000D01*
X188468000Y-113665000D02*
X202438000Y-113665000D01*
X202438000Y-113665000D02*
X203771500Y-112331500D01*
X203771500Y-112331500D02*
X208597500Y-112331500D01*
X210502500Y-114236500D02*
X224028000Y-114236500D01*
X208597500Y-112331500D02*
X210502500Y-114236500D01*
X224028000Y-114236500D02*
X225996500Y-114236500D01*
X225996500Y-114236500D02*
X226314000Y-113919000D01*
X226314000Y-113919000D02*
X240347500Y-113919000D01*
X240347500Y-113919000D02*
X241871500Y-112395000D01*
X241871500Y-112395000D02*
X246951500Y-112395000D01*
X246951500Y-112395000D02*
X248856500Y-114300000D01*
X248856500Y-114300000D02*
X264731500Y-114300000D01*
X320421000Y-114249200D02*
X320421000Y-115392200D01*
X320421000Y-115392200D02*
X321246500Y-116217700D01*
X321246500Y-116217700D02*
X321246500Y-118567200D01*
X321246500Y-118567200D02*
X322897500Y-120218200D01*
X322897500Y-120218200D02*
X348742000Y-120218200D01*
X354711000Y-114249200D02*
X358521000Y-114249200D01*
X348742000Y-120218200D02*
X354711000Y-114249200D01*
X220154500Y-58674000D02*
X221488000Y-57340500D01*
X221488000Y-57340500D02*
X221488000Y-56388000D01*
X216598500Y-63627000D02*
X220091000Y-60134500D01*
X214376000Y-63627000D02*
X216598500Y-63627000D01*
X220091000Y-60134500D02*
X220154500Y-58674000D01*
X267398500Y-111633000D02*
X264731500Y-114300000D01*
X270573500Y-111633000D02*
X267398500Y-111633000D01*
X273494500Y-111633000D02*
X270573500Y-111633000D01*
X275780500Y-113919000D02*
X273494500Y-111633000D01*
X298894500Y-113919000D02*
X275780500Y-113919000D01*
X306514500Y-106299000D02*
X298894500Y-113919000D01*
X309562500Y-106324400D02*
X306514500Y-106299000D01*
X320421000Y-112471200D02*
X320421000Y-114249200D01*
X314261500Y-106311700D02*
X320421000Y-112471200D01*
X309562500Y-106324400D02*
X313944000Y-106299000D01*
X313956700Y-106311700D02*
X313944000Y-106299000D01*
X314261500Y-106311700D02*
X313956700Y-106311700D01*
X90678000Y-114236500D02*
X90678000Y-115252500D01*
X90678000Y-115252500D02*
X91567000Y-116141500D01*
X91567000Y-116141500D02*
X91567000Y-118364000D01*
X91567000Y-118364000D02*
X92964000Y-119761000D01*
X92964000Y-119761000D02*
X120142000Y-119761000D01*
X125666500Y-114236500D02*
X128778000Y-114236500D01*
X120142000Y-119761000D02*
X125666500Y-114236500D01*
X120142000Y-119761000D02*
X165862000Y-119761000D01*
X165862000Y-119761000D02*
X167322500Y-118300500D01*
X167322500Y-114681000D02*
X166878000Y-114236500D01*
X167322500Y-118300500D02*
X167322500Y-114681000D01*
X242125500Y-119761000D02*
X243649500Y-118237000D01*
X243649500Y-114808000D02*
X243078000Y-114236500D01*
X243649500Y-118237000D02*
X243649500Y-114808000D01*
X205549500Y-114808000D02*
X204978000Y-114236500D01*
X205549500Y-119761000D02*
X205549500Y-114808000D01*
X205549500Y-119761000D02*
X242125500Y-119761000D01*
X165862000Y-119761000D02*
X205549500Y-119761000D01*
X339471000Y-114249200D02*
X341376000Y-114249200D01*
X341376000Y-114249200D02*
X341820500Y-113804700D01*
X341820500Y-113804700D02*
X352806000Y-113804700D01*
X352806000Y-113804700D02*
X354139500Y-112471200D01*
X354139500Y-112471200D02*
X362204000Y-112471200D01*
X363982000Y-114249200D02*
X377571000Y-114249200D01*
X362204000Y-112471200D02*
X363982000Y-114249200D01*
X215011000Y-92900500D02*
X207010000Y-92900500D01*
X223393000Y-90868500D02*
X223520000Y-90741500D01*
X217043000Y-90868500D02*
X223393000Y-90868500D01*
X217043000Y-90868500D02*
X215011000Y-92900500D01*
X295148000Y-119761000D02*
X242125500Y-119761000D01*
X306070000Y-108839000D02*
X295148000Y-119761000D01*
X309562500Y-108864400D02*
X306070000Y-108839000D01*
X316801500Y-111328200D02*
X314325000Y-108851700D01*
X316801500Y-118059200D02*
X316801500Y-111328200D01*
X320675000Y-121932700D02*
X316801500Y-118059200D01*
X340042500Y-121932700D02*
X320675000Y-121932700D01*
X314312300Y-108864400D02*
X314325000Y-108851700D01*
X309562500Y-108864400D02*
X314312300Y-108864400D01*
X320421000Y-133299200D02*
X322643500Y-133299200D01*
X322643500Y-133299200D02*
X323024500Y-132918200D01*
X323024500Y-132918200D02*
X336677000Y-132918200D01*
X336677000Y-132918200D02*
X338010500Y-131584700D01*
X338010500Y-131584700D02*
X343408000Y-131584700D01*
X345122500Y-133299200D02*
X358521000Y-133299200D01*
X343408000Y-131584700D02*
X345122500Y-133299200D01*
X281368500Y-133286500D02*
X273875500Y-133286500D01*
X273875500Y-133286500D02*
X272415000Y-131826000D01*
X29400500Y-114236500D02*
X43053000Y-114236500D01*
X43053000Y-114236500D02*
X45148500Y-114236500D01*
X45148500Y-114236500D02*
X45720000Y-113665000D01*
X45720000Y-113665000D02*
X64643000Y-113665000D01*
X64643000Y-113665000D02*
X69024500Y-109283500D01*
X69024500Y-109283500D02*
X224536000Y-109283500D01*
X224536000Y-109283500D02*
X225425000Y-108394500D01*
X226504500Y-107315000D02*
X225425000Y-108394500D01*
X228409500Y-107315000D02*
X226504500Y-107315000D01*
X228409500Y-107315000D02*
X258635500Y-107315000D01*
X258635500Y-107315000D02*
X259588000Y-106362500D01*
X259588000Y-106362500D02*
X271462500Y-106362500D01*
X272351500Y-107251500D02*
X272351500Y-107569000D01*
X271462500Y-106362500D02*
X272351500Y-107251500D01*
X285750000Y-76009500D02*
X285877000Y-76136500D01*
X277431500Y-76009500D02*
X285750000Y-76009500D01*
X302577500Y-133286500D02*
X281368500Y-133286500D01*
X302577500Y-119507000D02*
X302577500Y-133286500D01*
X302577500Y-114998500D02*
X302577500Y-119507000D01*
X306197000Y-111379000D02*
X302577500Y-114998500D01*
X309562500Y-111404400D02*
X306197000Y-111379000D01*
X320408300Y-133286500D02*
X320421000Y-133299200D01*
X302577500Y-133286500D02*
X320408300Y-133286500D01*
X373761000Y-133299200D02*
X377571000Y-133299200D01*
X368046000Y-139014200D02*
X373761000Y-133299200D01*
X367538000Y-139522200D02*
X368046000Y-139014200D01*
X339471000Y-134188200D02*
X339471000Y-133299200D01*
X331914500Y-139522200D02*
X340233000Y-139522200D01*
X340233000Y-139522200D02*
X340233000Y-135077200D01*
X340233000Y-139522200D02*
X367538000Y-139522200D01*
X340233000Y-135077200D02*
X340106000Y-134823200D01*
X340106000Y-134823200D02*
X339471000Y-134188200D01*
X257302000Y-57086500D02*
X243459000Y-57086500D01*
X243459000Y-57086500D02*
X241554000Y-55181500D01*
X228917500Y-53022500D02*
X231076500Y-55181500D01*
X228917500Y-50546000D02*
X228917500Y-53022500D01*
X241554000Y-55181500D02*
X231076500Y-55181500D01*
X160337500Y-137541000D02*
X160337500Y-133896000D01*
X160337500Y-133896000D02*
X159728000Y-133286500D01*
X159728000Y-133286500D02*
X151955500Y-133286500D01*
X148590000Y-136652000D02*
X151955500Y-133286500D01*
X130365500Y-136652000D02*
X148590000Y-136652000D01*
X194500500Y-139192000D02*
X194564000Y-139255500D01*
X194500500Y-137223500D02*
X194500500Y-139192000D01*
X194564000Y-139255500D02*
X248031000Y-139255500D01*
X160337500Y-139192000D02*
X160274000Y-139255500D01*
X160337500Y-137541000D02*
X160337500Y-139192000D01*
X160274000Y-139255500D02*
X194564000Y-139255500D01*
X158623000Y-139255500D02*
X160274000Y-139255500D01*
X273367500Y-139255500D02*
X273621500Y-139509500D01*
X248031000Y-139255500D02*
X251079000Y-139255500D01*
X33464500Y-76136500D02*
X30099000Y-76136500D01*
X30099000Y-76136500D02*
X27432000Y-78803500D01*
X27432000Y-78803500D02*
X27432000Y-135191500D01*
X31496000Y-139255500D02*
X38735000Y-139255500D01*
X27432000Y-135191500D02*
X31496000Y-139255500D01*
X68135500Y-139255500D02*
X158623000Y-139255500D01*
X257683000Y-139255500D02*
X273367500Y-139255500D01*
X68008500Y-139255500D02*
X68135500Y-139255500D01*
X38735000Y-139255500D02*
X68008500Y-139255500D01*
X321818000Y-124726700D02*
X336359500Y-124726700D01*
X315626750Y-118535450D02*
X321818000Y-124726700D01*
X313753500Y-113931700D02*
X315626750Y-115804950D01*
X315626750Y-115804950D02*
X315626750Y-118535450D01*
X313740800Y-113944400D02*
X313753500Y-113931700D01*
X309562500Y-113944400D02*
X313740800Y-113944400D01*
X331901800Y-139509500D02*
X331914500Y-139522200D01*
X273621500Y-139509500D02*
X331901800Y-139509500D01*
X255816100Y-139179300D02*
X255892300Y-139255500D01*
X255816100Y-136690100D02*
X255816100Y-139179300D01*
X255892300Y-139255500D02*
X257683000Y-139255500D01*
X251079000Y-139255500D02*
X255892300Y-139255500D01*
X232981500Y-133286500D02*
X233489500Y-132778500D01*
X231140000Y-133286500D02*
X232981500Y-133286500D01*
X252107700Y-136690100D02*
X248196100Y-132778500D01*
X253276100Y-136690100D02*
X252107700Y-136690100D01*
X233489500Y-132778500D02*
X248196100Y-132778500D01*
X222783400Y-133286500D02*
X231140000Y-133286500D01*
X218846400Y-137223500D02*
X222783400Y-133286500D01*
X197040500Y-137223500D02*
X218846400Y-137223500D01*
X249872500Y-130746500D02*
X253276100Y-134150100D01*
X237490000Y-130746500D02*
X249872500Y-130746500D01*
X222059500Y-130746500D02*
X237490000Y-130746500D01*
X218122500Y-134683500D02*
X222059500Y-130746500D01*
X197040500Y-134683500D02*
X218122500Y-134683500D01*
X85915500Y-133286500D02*
X104838500Y-133286500D01*
X104838500Y-133286500D02*
X108458000Y-136906000D01*
X127571500Y-136906000D02*
X127825500Y-136652000D01*
X108458000Y-136906000D02*
X127571500Y-136906000D01*
X74549000Y-136842500D02*
X78105000Y-133286500D01*
X70548500Y-136842500D02*
X74549000Y-136842500D01*
X85915500Y-133286500D02*
X78105000Y-133286500D01*
X92265500Y-130746500D02*
X107124500Y-130746500D01*
X110490000Y-134112000D02*
X107124500Y-130746500D01*
X127825500Y-134112000D02*
X110490000Y-134112000D01*
X70548500Y-134302500D02*
X74168000Y-134302500D01*
X74168000Y-134302500D02*
X77724000Y-130746500D01*
X92265500Y-130746500D02*
X77724000Y-130746500D01*
M02*
