M48
; DRILL file {KiCad (5.1.9)-1} date 03/31/21 21:29:01
; FORMAT={-:-/ absolute / inch / decimal}
; #@! TF.CreationDate,2021-03-31T21:29:01-04:00
; #@! TF.GenerationSoftware,Kicad,Pcbnew,(5.1.9)-1
FMAT,2
INCH
T1C0.0157
T2C0.0394
T3C0.0591
T4C0.0669
T5C0.1201
T6C0.1575
%
G90
G05
T1
X1.1575Y-4.4975
X1.7725Y-2.5475
X1.99Y-3.675
X2.405Y-2.635
X3.67Y-3.525
X4.71Y-2.685
X4.7125Y-2.1475
X6.9Y-2.635
X7.1575Y-2.46
X7.2825Y-3.525
X7.395Y-2.2475
X7.555Y-2.7825
X7.6125Y-2.1375
X7.6275Y-2.74
X7.6625Y-2.5425
X7.6975Y-3.4375
X7.765Y-3.3375
X7.83Y-3.185
X7.9375Y-2.9975
X7.9425Y-3.4525
X7.99Y-3.225
X8.0525Y-2.2125
X8.15Y-3.6575
X8.1525Y-3.185
X8.1546Y-2.4646
X8.195Y-4.0675
X8.44Y-2.505
X8.4975Y-4.1075
X8.72Y-2.22
X8.8Y-3.5725
X8.9925Y-4.225
X9.22Y-4.1575
X9.4625Y-3.485
X9.7925Y-4.0225
X9.92Y-2.56
X10.01Y-3.2875
X10.4275Y-2.685
X10.6525Y-4.225
X10.7225Y-4.235
X10.725Y-5.19
X10.7675Y-4.395
X10.9225Y-2.9925
X10.9575Y-5.33
X11.14Y-3.29
X11.1675Y-2.7425
X11.4225Y-3.735
X11.5175Y-3.185
X12.615Y-3.523
X12.7675Y-3.6755
X12.8349Y-2.2281
X12.8625Y-3.3855
X13.2425Y-4.9105
X13.3875Y-4.8005
X13.39Y-3.553
T2
X1.62Y-5.2075
X1.62Y-5.3075
X1.62Y-5.4075
X1.72Y-5.2075
X1.72Y-5.3075
X1.72Y-5.4075
X2.6775Y-5.2875
X2.6775Y-5.3875
X2.7775Y-5.2875
X2.7775Y-5.3875
X5.0325Y-5.28
X5.0325Y-5.38
X5.1325Y-5.28
X5.1325Y-5.38
X7.3125Y-1.99
X7.4125Y-1.99
X7.5125Y-1.99
X7.6125Y-1.99
X7.6575Y-5.3025
X7.6575Y-5.4025
X7.7125Y-1.99
X7.7575Y-5.3025
X7.7575Y-5.4025
X7.8125Y-1.99
X7.9125Y-1.99
X8.0125Y-1.99
X8.1125Y-1.99
X8.2125Y-1.99
X8.3125Y-1.99
X8.4125Y-1.99
X8.5125Y-1.99
X8.6125Y-1.99
X8.7125Y-1.99
X8.8125Y-1.99
X8.9125Y-1.99
X9.0125Y-1.99
X9.1125Y-1.99
X9.2125Y-1.99
X9.9715Y-5.2815
X9.9715Y-5.3815
X10.0715Y-5.2815
X10.0715Y-5.3815
X12.1875Y-2.786
X12.1875Y-2.886
X12.1875Y-2.986
X12.1875Y-3.086
X12.1875Y-3.186
X12.1875Y-3.286
X12.1875Y-3.386
X12.1875Y-3.486
X12.1875Y-3.586
X12.1875Y-3.686
X12.1875Y-3.786
X12.1875Y-3.886
X12.1875Y-3.986
X12.1875Y-4.086
X12.1875Y-4.186
X12.1875Y-4.286
X12.1875Y-4.386
X12.1875Y-4.486
X12.1875Y-4.586
X12.1875Y-4.686
T3
X1.13Y-2.2475
X1.3175Y-2.9975
X1.38Y-2.1475
X1.51Y-3.745
X1.5675Y-2.8975
X1.695Y-4.4975
X1.76Y-3.645
X1.88Y-2.2475
X1.945Y-4.3975
X2.13Y-2.1475
X2.255Y-2.9975
X2.45Y-3.7475
X2.505Y-2.8975
X2.63Y-2.2475
X2.7Y-3.6475
X2.82Y-4.4975
X2.88Y-2.1475
X3.005Y-2.9975
X3.07Y-4.3975
X3.2Y-3.7475
X3.255Y-2.8975
X3.38Y-2.2475
X3.3825Y-5.2475
X3.45Y-3.6475
X3.57Y-4.4975
X3.63Y-2.1475
X3.6325Y-5.1475
X3.755Y-2.9975
X3.82Y-4.3975
X3.95Y-3.7475
X4.005Y-2.8975
X4.13Y-2.2475
X4.2Y-3.6475
X4.32Y-4.4975
X4.38Y-2.1475
X4.505Y-2.9975
X4.57Y-4.3975
X4.7Y-3.7475
X4.755Y-2.8975
X4.88Y-2.2475
X4.95Y-3.6475
X5.07Y-4.4975
X5.13Y-2.1475
X5.255Y-2.9975
X5.32Y-4.3975
X5.45Y-3.7475
X5.505Y-2.8975
X5.63Y-2.2475
X5.7Y-3.6475
X5.82Y-4.4975
X5.88Y-2.1475
X6.005Y-2.9975
X6.07Y-4.3975
X6.2Y-3.7475
X6.255Y-2.8975
X6.2885Y-5.2475
X6.38Y-2.2475
X6.45Y-3.6475
X6.5385Y-5.1475
X6.57Y-4.4975
X6.63Y-2.1475
X6.755Y-2.9975
X6.82Y-4.3975
X6.95Y-3.7475
X7.005Y-2.8975
X7.13Y-2.2475
X7.2Y-3.6475
X7.32Y-4.4975
X7.38Y-2.1475
X7.505Y-2.9975
X7.57Y-4.3975
X7.7Y-3.7475
X7.755Y-2.8975
X7.88Y-2.2475
X7.95Y-3.6475
X8.07Y-4.4975
X8.13Y-2.1475
X8.255Y-2.9975
X8.32Y-4.3975
X8.45Y-3.7475
X8.505Y-2.8975
X8.63Y-2.2475
X8.7Y-3.6475
X8.82Y-4.4975
X8.88Y-2.1475
X9.005Y-2.9975
X9.07Y-4.3975
X9.1Y-5.2475
X9.2Y-3.7475
X9.255Y-2.8975
X9.35Y-5.1475
X9.38Y-2.2475
X9.45Y-3.6475
X9.57Y-4.4975
X9.63Y-2.1475
X9.755Y-2.9975
X9.82Y-4.3975
X9.95Y-3.7475
X10.005Y-2.8975
X10.13Y-2.2475
X10.2Y-3.6475
X10.38Y-2.1475
X10.505Y-2.9975
X10.6965Y-4.4981
X10.755Y-2.8975
X10.88Y-2.2475
X10.89Y-3.7475
X10.9465Y-4.3981
X11.13Y-2.1475
X11.14Y-3.6475
X11.255Y-2.9975
X11.505Y-2.8975
X12.615Y-2.248
X12.615Y-2.998
X12.615Y-3.748
X12.615Y-4.498
X12.615Y-5.248
X12.865Y-2.148
X12.865Y-2.898
X12.865Y-3.648
X12.865Y-4.398
X12.865Y-5.148
X13.365Y-2.248
X13.365Y-2.998
X13.365Y-3.748
X13.365Y-4.498
X13.365Y-5.248
X13.615Y-2.148
X13.615Y-2.898
X13.615Y-3.648
X13.615Y-4.398
X13.615Y-5.148
X14.115Y-2.248
X14.115Y-2.998
X14.115Y-3.748
X14.115Y-4.498
X14.115Y-5.248
X14.365Y-2.148
X14.365Y-2.898
X14.365Y-3.648
X14.365Y-4.398
X14.365Y-5.148
X14.865Y-2.248
X14.865Y-2.998
X14.865Y-3.748
X14.865Y-4.498
X14.865Y-5.248
X15.115Y-2.148
X15.115Y-2.898
X15.115Y-3.648
X15.115Y-4.398
X15.115Y-5.148
T4
X1.08Y-2.3475
X1.2675Y-3.0975
X1.46Y-3.845
X1.48Y-2.3475
X1.645Y-4.5975
X1.6675Y-3.0975
X1.83Y-2.3475
X1.86Y-3.845
X2.045Y-4.5975
X2.205Y-3.0975
X2.23Y-2.3475
X2.4Y-3.8475
X2.58Y-2.3475
X2.605Y-3.0975
X2.77Y-4.5975
X2.8Y-3.8475
X2.955Y-3.0975
X2.98Y-2.3475
X3.15Y-3.8475
X3.17Y-4.5975
X3.33Y-2.3475
X3.3325Y-5.3475
X3.355Y-3.0975
X3.52Y-4.5975
X3.55Y-3.8475
X3.705Y-3.0975
X3.73Y-2.3475
X3.7325Y-5.3475
X3.9Y-3.8475
X3.92Y-4.5975
X4.08Y-2.3475
X4.105Y-3.0975
X4.27Y-4.5975
X4.3Y-3.8475
X4.455Y-3.0975
X4.48Y-2.3475
X4.65Y-3.8475
X4.67Y-4.5975
X4.83Y-2.3475
X4.855Y-3.0975
X5.02Y-4.5975
X5.05Y-3.8475
X5.205Y-3.0975
X5.23Y-2.3475
X5.4Y-3.8475
X5.42Y-4.5975
X5.58Y-2.3475
X5.605Y-3.0975
X5.77Y-4.5975
X5.8Y-3.8475
X5.955Y-3.0975
X5.98Y-2.3475
X6.15Y-3.8475
X6.17Y-4.5975
X6.2385Y-5.3475
X6.33Y-2.3475
X6.355Y-3.0975
X6.52Y-4.5975
X6.55Y-3.8475
X6.6385Y-5.3475
X6.705Y-3.0975
X6.73Y-2.3475
X6.9Y-3.8475
X6.92Y-4.5975
X7.08Y-2.3475
X7.105Y-3.0975
X7.27Y-4.5975
X7.3Y-3.8475
X7.455Y-3.0975
X7.48Y-2.3475
X7.65Y-3.8475
X7.67Y-4.5975
X7.83Y-2.3475
X7.855Y-3.0975
X8.02Y-4.5975
X8.05Y-3.8475
X8.205Y-3.0975
X8.23Y-2.3475
X8.4Y-3.8475
X8.42Y-4.5975
X8.58Y-2.3475
X8.605Y-3.0975
X8.77Y-4.5975
X8.8Y-3.8475
X8.955Y-3.0975
X8.98Y-2.3475
X9.05Y-5.3475
X9.15Y-3.8475
X9.17Y-4.5975
X9.33Y-2.3475
X9.355Y-3.0975
X9.45Y-5.3475
X9.52Y-4.5975
X9.55Y-3.8475
X9.705Y-3.0975
X9.73Y-2.3475
X9.9Y-3.8475
X9.92Y-4.5975
X10.08Y-2.3475
X10.105Y-3.0975
X10.3Y-3.8475
X10.455Y-3.0975
X10.48Y-2.3475
X10.6465Y-4.5981
X10.83Y-2.3475
X10.84Y-3.8475
X10.855Y-3.0975
X11.0465Y-4.5981
X11.205Y-3.0975
X11.23Y-2.3475
X11.24Y-3.8475
X11.605Y-3.0975
X12.565Y-2.348
X12.565Y-3.098
X12.565Y-3.848
X12.565Y-4.598
X12.565Y-5.348
X12.965Y-2.348
X12.965Y-3.098
X12.965Y-3.848
X12.965Y-4.598
X12.965Y-5.348
X13.315Y-2.348
X13.315Y-3.098
X13.315Y-3.848
X13.315Y-4.598
X13.315Y-5.348
X13.715Y-2.348
X13.715Y-3.098
X13.715Y-3.848
X13.715Y-4.598
X13.715Y-5.348
X14.065Y-2.348
X14.065Y-3.098
X14.065Y-3.848
X14.065Y-4.598
X14.065Y-5.348
X14.465Y-2.348
X14.465Y-3.098
X14.465Y-3.848
X14.465Y-4.598
X14.465Y-5.348
X14.815Y-2.348
X14.815Y-3.098
X14.815Y-3.848
X14.815Y-4.598
X14.815Y-5.348
X15.215Y-2.348
X15.215Y-3.098
X15.215Y-3.848
X15.215Y-4.598
X15.215Y-5.348
T5
X1.3765Y-4.3219
X2.3135Y-4.3219
X4.47Y-5.0719
X8.407Y-5.0719
X10.378Y-4.3225
X11.315Y-4.3225
T6
X1.28Y-2.3475
X1.3765Y-4.9219
X1.4675Y-3.0975
X1.66Y-3.845
X1.845Y-4.5975
X2.03Y-2.3475
X2.3135Y-4.9219
X2.405Y-3.0975
X2.6Y-3.8475
X2.78Y-2.3475
X2.97Y-4.5975
X3.155Y-3.0975
X3.35Y-3.8475
X3.53Y-2.3475
X3.5325Y-5.3475
X3.72Y-4.5975
X3.905Y-3.0975
X4.1Y-3.8475
X4.28Y-2.3475
X4.47Y-4.5975
X4.47Y-5.6719
X4.655Y-3.0975
X4.85Y-3.8475
X5.03Y-2.3475
X5.22Y-4.5975
X5.405Y-3.0975
X5.6Y-3.8475
X5.78Y-2.3475
X5.97Y-4.5975
X6.155Y-3.0975
X6.35Y-3.8475
X6.4385Y-5.3475
X6.53Y-2.3475
X6.72Y-4.5975
X6.905Y-3.0975
X7.1Y-3.8475
X7.28Y-2.3475
X7.47Y-4.5975
X7.655Y-3.0975
X7.85Y-3.8475
X8.03Y-2.3475
X8.22Y-4.5975
X8.405Y-3.0975
X8.407Y-5.6719
X8.6Y-3.8475
X8.78Y-2.3475
X8.97Y-4.5975
X9.155Y-3.0975
X9.25Y-5.3475
X9.35Y-3.8475
X9.53Y-2.3475
X9.72Y-4.5975
X9.905Y-3.0975
X10.1Y-3.8475
X10.28Y-2.3475
X10.378Y-4.9225
X10.655Y-3.0975
X10.8465Y-4.5981
X11.03Y-2.3475
X11.04Y-3.8475
X11.315Y-4.9225
X11.405Y-3.0975
X12.765Y-2.348
X12.765Y-3.098
X12.765Y-3.848
X12.765Y-4.598
X12.765Y-5.348
X13.515Y-2.348
X13.515Y-3.098
X13.515Y-3.848
X13.515Y-4.598
X13.515Y-5.348
X14.265Y-2.348
X14.265Y-3.098
X14.265Y-3.848
X14.265Y-4.598
X14.265Y-5.348
X15.015Y-2.348
X15.015Y-3.098
X15.015Y-3.848
X15.015Y-4.598
X15.015Y-5.348
T0
M30
