G04 #@! TF.GenerationSoftware,KiCad,Pcbnew,(5.1.7)-1*
G04 #@! TF.CreationDate,2020-12-18T21:48:48-05:00*
G04 #@! TF.ProjectId,petkn,7065746b-6e2e-46b6-9963-61645f706362,rev?*
G04 #@! TF.SameCoordinates,Original*
G04 #@! TF.FileFunction,Soldermask,Top*
G04 #@! TF.FilePolarity,Negative*
%FSLAX46Y46*%
G04 Gerber Fmt 4.6, Leading zero omitted, Abs format (unit mm)*
G04 Created by KiCad (PCBNEW (5.1.7)-1) date 2020-12-18 21:48:48*
%MOMM*%
%LPD*%
G01*
G04 APERTURE LIST*
G04 #@! TA.AperFunction,Profile*
%ADD10C,0.050000*%
G04 #@! TD*
%ADD11C,3.152000*%
%ADD12C,4.102000*%
%ADD13C,1.802000*%
%ADD14C,2.302000*%
%ADD15O,1.802000X1.802000*%
G04 APERTURE END LIST*
D10*
X101351853Y-52705000D02*
G75*
G03*
X101351853Y-52705000I-2101353J0D01*
G01*
X253688353Y-52641500D02*
G75*
G03*
X253688353Y-52641500I-2101353J0D01*
G01*
X177482853Y-52666500D02*
G75*
G03*
X177482853Y-52666500I-2101353J0D01*
G01*
X300500000Y-143002000D02*
G75*
G03*
X300500000Y-143002000I-2500000J0D01*
G01*
X300500000Y-54000000D02*
G75*
G03*
X300500000Y-54000000I-2500000J0D01*
G01*
X300500000Y-97726500D02*
G75*
G03*
X300500000Y-97726500I-2500000J0D01*
G01*
X17272000Y-54419500D02*
X17272000Y-142367000D01*
X403352000Y-54419500D02*
X403352000Y-142367000D01*
X23114000Y-48577500D02*
X397510000Y-48577500D01*
X24217000Y-98000000D02*
G75*
G03*
X24217000Y-98000000I-2500000J0D01*
G01*
X24217000Y-53000000D02*
G75*
G03*
X24217000Y-53000000I-2500000J0D01*
G01*
X400772000Y-98000000D02*
G75*
G03*
X400772000Y-98000000I-2500000J0D01*
G01*
X23114000Y-148209000D02*
X397510000Y-148209000D01*
X397510000Y-48577500D02*
G75*
G02*
X403352000Y-54419500I0J-5842000D01*
G01*
X53871500Y-143000000D02*
G75*
G03*
X53871500Y-143000000I-2500000J0D01*
G01*
X24217000Y-143000000D02*
G75*
G03*
X24217000Y-143000000I-2500000J0D01*
G01*
X181189000Y-143000000D02*
G75*
G03*
X181189000Y-143000000I-2500000J0D01*
G01*
X253515500Y-143000000D02*
G75*
G03*
X253515500Y-143000000I-2500000J0D01*
G01*
X308824000Y-143000000D02*
G75*
G03*
X308824000Y-143000000I-2500000J0D01*
G01*
X400835500Y-143000000D02*
G75*
G03*
X400835500Y-143000000I-2500000J0D01*
G01*
X17272000Y-54419500D02*
G75*
G02*
X23114000Y-48577500I5842000J0D01*
G01*
X403352000Y-142367000D02*
G75*
G02*
X397510000Y-148209000I-5842000J0D01*
G01*
X308824000Y-54000000D02*
G75*
G03*
X308824000Y-54000000I-2500000J0D01*
G01*
X23114000Y-148209000D02*
G75*
G02*
X17272000Y-142367000I0J5842000D01*
G01*
X400772000Y-54000000D02*
G75*
G03*
X400772000Y-54000000I-2500000J0D01*
G01*
X101351853Y-52705000D02*
G75*
G03*
X101351853Y-52705000I-2101353J0D01*
G01*
X253688353Y-52641500D02*
G75*
G03*
X253688353Y-52641500I-2101353J0D01*
G01*
X177482853Y-52666500D02*
G75*
G03*
X177482853Y-52666500I-2101353J0D01*
G01*
X300500000Y-143002000D02*
G75*
G03*
X300500000Y-143002000I-2500000J0D01*
G01*
X300500000Y-54000000D02*
G75*
G03*
X300500000Y-54000000I-2500000J0D01*
G01*
X300500000Y-97726500D02*
G75*
G03*
X300500000Y-97726500I-2500000J0D01*
G01*
X17272000Y-54419500D02*
X17272000Y-142367000D01*
X403352000Y-54419500D02*
X403352000Y-142367000D01*
X23114000Y-48577500D02*
X397510000Y-48577500D01*
X24217000Y-98000000D02*
G75*
G03*
X24217000Y-98000000I-2500000J0D01*
G01*
X24217000Y-53000000D02*
G75*
G03*
X24217000Y-53000000I-2500000J0D01*
G01*
X400772000Y-98000000D02*
G75*
G03*
X400772000Y-98000000I-2500000J0D01*
G01*
X23114000Y-148209000D02*
X397510000Y-148209000D01*
X397510000Y-48577500D02*
G75*
G02*
X403352000Y-54419500I0J-5842000D01*
G01*
X53871500Y-143000000D02*
G75*
G03*
X53871500Y-143000000I-2500000J0D01*
G01*
X24217000Y-143000000D02*
G75*
G03*
X24217000Y-143000000I-2500000J0D01*
G01*
X181189000Y-143000000D02*
G75*
G03*
X181189000Y-143000000I-2500000J0D01*
G01*
X253515500Y-143000000D02*
G75*
G03*
X253515500Y-143000000I-2500000J0D01*
G01*
X308824000Y-143000000D02*
G75*
G03*
X308824000Y-143000000I-2500000J0D01*
G01*
X400835500Y-143000000D02*
G75*
G03*
X400835500Y-143000000I-2500000J0D01*
G01*
X17272000Y-54419500D02*
G75*
G02*
X23114000Y-48577500I5842000J0D01*
G01*
X403352000Y-142367000D02*
G75*
G02*
X397510000Y-148209000I-5842000J0D01*
G01*
X308824000Y-54000000D02*
G75*
G03*
X308824000Y-54000000I-2500000J0D01*
G01*
X23114000Y-148209000D02*
G75*
G02*
X17272000Y-142367000I0J5842000D01*
G01*
X400772000Y-54000000D02*
G75*
G03*
X400772000Y-54000000I-2500000J0D01*
G01*
D11*
X213538000Y-128826500D03*
X113538000Y-128826500D03*
D12*
X113538000Y-144066500D03*
X213538000Y-144066500D03*
D13*
X168618000Y-135826500D03*
X158458000Y-135826500D03*
D12*
X163538000Y-135826500D03*
D14*
X159728000Y-133286500D03*
X166078000Y-130746500D03*
D15*
X70548500Y-136842500D03*
X68008500Y-136842500D03*
X70548500Y-134302500D03*
G36*
G01*
X67107500Y-135152500D02*
X67107500Y-133452500D01*
G75*
G02*
X67158500Y-133401500I51000J0D01*
G01*
X68858500Y-133401500D01*
G75*
G02*
X68909500Y-133452500I0J-51000D01*
G01*
X68909500Y-135152500D01*
G75*
G02*
X68858500Y-135203500I-51000J0D01*
G01*
X67158500Y-135203500D01*
G75*
G02*
X67107500Y-135152500I0J51000D01*
G01*
G37*
X130365500Y-136652000D03*
X127825500Y-136652000D03*
X130365500Y-134112000D03*
G36*
G01*
X126924500Y-134962000D02*
X126924500Y-133262000D01*
G75*
G02*
X126975500Y-133211000I51000J0D01*
G01*
X128675500Y-133211000D01*
G75*
G02*
X128726500Y-133262000I0J-51000D01*
G01*
X128726500Y-134962000D01*
G75*
G02*
X128675500Y-135013000I-51000J0D01*
G01*
X126975500Y-135013000D01*
G75*
G02*
X126924500Y-134962000I0J51000D01*
G01*
G37*
X197040500Y-137223500D03*
X194500500Y-137223500D03*
X197040500Y-134683500D03*
G36*
G01*
X193599500Y-135533500D02*
X193599500Y-133833500D01*
G75*
G02*
X193650500Y-133782500I51000J0D01*
G01*
X195350500Y-133782500D01*
G75*
G02*
X195401500Y-133833500I0J-51000D01*
G01*
X195401500Y-135533500D01*
G75*
G02*
X195350500Y-135584500I-51000J0D01*
G01*
X193650500Y-135584500D01*
G75*
G02*
X193599500Y-135533500I0J51000D01*
G01*
G37*
X257556000Y-136715500D03*
X255016000Y-136715500D03*
X257556000Y-134175500D03*
G36*
G01*
X254115000Y-135025500D02*
X254115000Y-133325500D01*
G75*
G02*
X254166000Y-133274500I51000J0D01*
G01*
X255866000Y-133274500D01*
G75*
G02*
X255917000Y-133325500I0J-51000D01*
G01*
X255917000Y-135025500D01*
G75*
G02*
X255866000Y-135076500I-51000J0D01*
G01*
X254166000Y-135076500D01*
G75*
G02*
X254115000Y-135025500I0J51000D01*
G01*
G37*
X43688000Y-137350500D03*
X41148000Y-137350500D03*
X43688000Y-134810500D03*
X41148000Y-134810500D03*
X43688000Y-132270500D03*
G36*
G01*
X40247000Y-133120500D02*
X40247000Y-131420500D01*
G75*
G02*
X40298000Y-131369500I51000J0D01*
G01*
X41998000Y-131369500D01*
G75*
G02*
X42049000Y-131420500I0J-51000D01*
G01*
X42049000Y-133120500D01*
G75*
G02*
X41998000Y-133171500I-51000J0D01*
G01*
X40298000Y-133171500D01*
G75*
G02*
X40247000Y-133120500I0J51000D01*
G01*
G37*
D13*
X47244000Y-97663000D03*
X37084000Y-97663000D03*
D12*
X42164000Y-97663000D03*
D14*
X38354000Y-95123000D03*
X44704000Y-92583000D03*
D13*
X94805500Y-135826500D03*
X84645500Y-135826500D03*
D12*
X89725500Y-135826500D03*
D14*
X85915500Y-133286500D03*
X92265500Y-130746500D03*
X35052000Y-54546500D03*
X28702000Y-57086500D03*
D12*
X32512000Y-59626500D03*
D13*
X27432000Y-59626500D03*
X37592000Y-59626500D03*
D11*
X287401000Y-109791500D03*
X263601000Y-109791500D03*
D12*
X263601000Y-125031500D03*
X287401000Y-125031500D03*
D13*
X280581000Y-116791500D03*
X270421000Y-116791500D03*
D12*
X275501000Y-116791500D03*
D14*
X271691000Y-114251500D03*
X278041000Y-111711500D03*
X187452000Y-54546500D03*
X181102000Y-57086500D03*
D12*
X184912000Y-59626500D03*
D13*
X179832000Y-59626500D03*
X189992000Y-59626500D03*
D15*
X313944000Y-70739000D03*
X313944000Y-73279000D03*
X313944000Y-75819000D03*
X313944000Y-78359000D03*
X313944000Y-80899000D03*
X313944000Y-83439000D03*
X313944000Y-85979000D03*
X313944000Y-88519000D03*
X313944000Y-91059000D03*
X313944000Y-93599000D03*
X313944000Y-96139000D03*
X313944000Y-98679000D03*
X313944000Y-101219000D03*
X313944000Y-103759000D03*
X313944000Y-106299000D03*
X313944000Y-108839000D03*
X313944000Y-111379000D03*
X313944000Y-113919000D03*
X313944000Y-116459000D03*
G36*
G01*
X314845000Y-118149000D02*
X314845000Y-119849000D01*
G75*
G02*
X314794000Y-119900000I-51000J0D01*
G01*
X313094000Y-119900000D01*
G75*
G02*
X313043000Y-119849000I0J51000D01*
G01*
X313043000Y-118149000D01*
G75*
G02*
X313094000Y-118098000I51000J0D01*
G01*
X314794000Y-118098000D01*
G75*
G02*
X314845000Y-118149000I0J-51000D01*
G01*
G37*
D13*
X209042000Y-59626500D03*
X198882000Y-59626500D03*
D12*
X203962000Y-59626500D03*
D14*
X200152000Y-57086500D03*
X206502000Y-54546500D03*
X196977000Y-73596500D03*
X190627000Y-76136500D03*
D12*
X194437000Y-78676500D03*
D13*
X189357000Y-78676500D03*
X199517000Y-78676500D03*
X75692000Y-59626500D03*
X65532000Y-59626500D03*
D12*
X70612000Y-59626500D03*
D14*
X66802000Y-57086500D03*
X73152000Y-54546500D03*
D13*
X228092000Y-59626500D03*
X217932000Y-59626500D03*
D12*
X223012000Y-59626500D03*
D14*
X219202000Y-57086500D03*
X225552000Y-54546500D03*
D13*
X353187000Y-135826500D03*
X343027000Y-135826500D03*
D12*
X348107000Y-135826500D03*
D14*
X344297000Y-133286500D03*
X350647000Y-130746500D03*
X111252000Y-54546500D03*
X104902000Y-57086500D03*
D12*
X108712000Y-59626500D03*
D13*
X103632000Y-59626500D03*
X113792000Y-59626500D03*
X151892000Y-59626500D03*
X141732000Y-59626500D03*
D12*
X146812000Y-59626500D03*
D14*
X143002000Y-57086500D03*
X149352000Y-54546500D03*
D13*
X240030000Y-135826500D03*
X229870000Y-135826500D03*
D12*
X234950000Y-135826500D03*
D14*
X231140000Y-133286500D03*
X237490000Y-130746500D03*
D13*
X285496000Y-97726500D03*
X275336000Y-97726500D03*
D12*
X280416000Y-97726500D03*
D14*
X276606000Y-95186500D03*
X282956000Y-92646500D03*
D11*
X58763000Y-109776500D03*
X34963000Y-109776500D03*
D12*
X34963000Y-125016500D03*
X58763000Y-125016500D03*
D13*
X51943000Y-116776500D03*
X41783000Y-116776500D03*
D12*
X46863000Y-116776500D03*
D14*
X43053000Y-114236500D03*
X49403000Y-111696500D03*
D13*
X42354500Y-78676500D03*
X32194500Y-78676500D03*
D12*
X37274500Y-78676500D03*
D14*
X33464500Y-76136500D03*
X39814500Y-73596500D03*
D15*
X185737500Y-50546000D03*
X188277500Y-50546000D03*
X190817500Y-50546000D03*
X193357500Y-50546000D03*
X195897500Y-50546000D03*
X198437500Y-50546000D03*
X200977500Y-50546000D03*
X203517500Y-50546000D03*
X206057500Y-50546000D03*
X208597500Y-50546000D03*
X211137500Y-50546000D03*
X213677500Y-50546000D03*
X216217500Y-50546000D03*
X218757500Y-50546000D03*
X221297500Y-50546000D03*
X223837500Y-50546000D03*
X226377500Y-50546000D03*
X228917500Y-50546000D03*
X231457500Y-50546000D03*
G36*
G01*
X233147500Y-49645000D02*
X234847500Y-49645000D01*
G75*
G02*
X234898500Y-49696000I0J-51000D01*
G01*
X234898500Y-51396000D01*
G75*
G02*
X234847500Y-51447000I-51000J0D01*
G01*
X233147500Y-51447000D01*
G75*
G02*
X233096500Y-51396000I0J51000D01*
G01*
X233096500Y-49696000D01*
G75*
G02*
X233147500Y-49645000I51000J0D01*
G01*
G37*
D14*
X388747000Y-130746500D03*
X382397000Y-133286500D03*
D12*
X386207000Y-135826500D03*
D13*
X381127000Y-135826500D03*
X391287000Y-135826500D03*
X261620000Y-97726500D03*
X251460000Y-97726500D03*
D12*
X256540000Y-97726500D03*
D14*
X252730000Y-95186500D03*
X259080000Y-92646500D03*
X273177000Y-73596500D03*
X266827000Y-76136500D03*
D12*
X270637000Y-78676500D03*
D13*
X265557000Y-78676500D03*
X275717000Y-78676500D03*
D14*
X263652000Y-54546500D03*
X257302000Y-57086500D03*
D12*
X261112000Y-59626500D03*
D13*
X256032000Y-59626500D03*
X266192000Y-59626500D03*
D14*
X369697000Y-130746500D03*
X363347000Y-133286500D03*
D12*
X367157000Y-135826500D03*
D13*
X362077000Y-135826500D03*
X372237000Y-135826500D03*
X334137000Y-135826500D03*
X323977000Y-135826500D03*
D12*
X329057000Y-135826500D03*
D14*
X325247000Y-133286500D03*
X331597000Y-130746500D03*
D13*
X294767000Y-78676500D03*
X284607000Y-78676500D03*
D12*
X289687000Y-78676500D03*
D14*
X285877000Y-76136500D03*
X292227000Y-73596500D03*
D13*
X285242000Y-59626500D03*
X275082000Y-59626500D03*
D12*
X280162000Y-59626500D03*
D14*
X276352000Y-57086500D03*
X282702000Y-54546500D03*
X388747000Y-111696500D03*
X382397000Y-114236500D03*
D12*
X386207000Y-116776500D03*
D13*
X381127000Y-116776500D03*
X391287000Y-116776500D03*
X353187000Y-116776500D03*
X343027000Y-116776500D03*
D12*
X348107000Y-116776500D03*
D14*
X344297000Y-114236500D03*
X350647000Y-111696500D03*
D13*
X251968000Y-116776500D03*
X241808000Y-116776500D03*
D12*
X246888000Y-116776500D03*
D14*
X243078000Y-114236500D03*
X249428000Y-111696500D03*
X211328000Y-111696500D03*
X204978000Y-114236500D03*
D12*
X208788000Y-116776500D03*
D13*
X203708000Y-116776500D03*
X213868000Y-116776500D03*
X175768000Y-116776500D03*
X165608000Y-116776500D03*
D12*
X170688000Y-116776500D03*
D14*
X166878000Y-114236500D03*
X173228000Y-111696500D03*
X135128000Y-111696500D03*
X128778000Y-114236500D03*
D12*
X132588000Y-116776500D03*
D13*
X127508000Y-116776500D03*
X137668000Y-116776500D03*
X99568000Y-116776500D03*
X89408000Y-116776500D03*
D12*
X94488000Y-116776500D03*
D14*
X90678000Y-114236500D03*
X97028000Y-111696500D03*
X369697000Y-111696500D03*
X363347000Y-114236500D03*
D12*
X367157000Y-116776500D03*
D13*
X362077000Y-116776500D03*
X372237000Y-116776500D03*
X334137000Y-116776500D03*
X323977000Y-116776500D03*
D12*
X329057000Y-116776500D03*
D14*
X325247000Y-114236500D03*
X331597000Y-111696500D03*
D13*
X232918000Y-116776500D03*
X222758000Y-116776500D03*
D12*
X227838000Y-116776500D03*
D14*
X224028000Y-114236500D03*
X230378000Y-111696500D03*
X192278000Y-111696500D03*
X185928000Y-114236500D03*
D12*
X189738000Y-116776500D03*
D13*
X184658000Y-116776500D03*
X194818000Y-116776500D03*
X156718000Y-116776500D03*
X146558000Y-116776500D03*
D12*
X151638000Y-116776500D03*
D14*
X147828000Y-114236500D03*
X154178000Y-111696500D03*
X116078000Y-111696500D03*
X109728000Y-114236500D03*
D12*
X113538000Y-116776500D03*
D13*
X108458000Y-116776500D03*
X118618000Y-116776500D03*
X80518000Y-116776500D03*
X70358000Y-116776500D03*
D12*
X75438000Y-116776500D03*
D14*
X71628000Y-114236500D03*
X77978000Y-111696500D03*
X388747000Y-92646500D03*
X382397000Y-95186500D03*
D12*
X386207000Y-97726500D03*
D13*
X381127000Y-97726500D03*
X391287000Y-97726500D03*
X353187000Y-97726500D03*
X343027000Y-97726500D03*
D12*
X348107000Y-97726500D03*
D14*
X344297000Y-95186500D03*
X350647000Y-92646500D03*
D13*
X242570000Y-97726500D03*
X232410000Y-97726500D03*
D12*
X237490000Y-97726500D03*
D14*
X233680000Y-95186500D03*
X240030000Y-92646500D03*
X201930000Y-92646500D03*
X195580000Y-95186500D03*
D12*
X199390000Y-97726500D03*
D13*
X194310000Y-97726500D03*
X204470000Y-97726500D03*
X166370000Y-97726500D03*
X156210000Y-97726500D03*
D12*
X161290000Y-97726500D03*
D14*
X157480000Y-95186500D03*
X163830000Y-92646500D03*
X125730000Y-92646500D03*
X119380000Y-95186500D03*
D12*
X123190000Y-97726500D03*
D13*
X118110000Y-97726500D03*
X128270000Y-97726500D03*
X90170000Y-97726500D03*
X80010000Y-97726500D03*
D12*
X85090000Y-97726500D03*
D14*
X81280000Y-95186500D03*
X87630000Y-92646500D03*
X369697000Y-92646500D03*
X363347000Y-95186500D03*
D12*
X367157000Y-97726500D03*
D13*
X362077000Y-97726500D03*
X372237000Y-97726500D03*
X334137000Y-97726500D03*
X323977000Y-97726500D03*
D12*
X329057000Y-97726500D03*
D14*
X325247000Y-95186500D03*
X331597000Y-92646500D03*
D13*
X223520000Y-97726500D03*
X213360000Y-97726500D03*
D12*
X218440000Y-97726500D03*
D14*
X214630000Y-95186500D03*
X220980000Y-92646500D03*
X182880000Y-92646500D03*
X176530000Y-95186500D03*
D12*
X180340000Y-97726500D03*
D13*
X175260000Y-97726500D03*
X185420000Y-97726500D03*
X147320000Y-97726500D03*
X137160000Y-97726500D03*
D12*
X142240000Y-97726500D03*
D14*
X138430000Y-95186500D03*
X144780000Y-92646500D03*
X106680000Y-92646500D03*
X100330000Y-95186500D03*
D12*
X104140000Y-97726500D03*
D13*
X99060000Y-97726500D03*
X109220000Y-97726500D03*
X71120000Y-97726500D03*
X60960000Y-97726500D03*
D12*
X66040000Y-97726500D03*
D14*
X62230000Y-95186500D03*
X68580000Y-92646500D03*
X388747000Y-73596500D03*
X382397000Y-76136500D03*
D12*
X386207000Y-78676500D03*
D13*
X381127000Y-78676500D03*
X391287000Y-78676500D03*
X353187000Y-78676500D03*
X343027000Y-78676500D03*
D12*
X348107000Y-78676500D03*
D14*
X344297000Y-76136500D03*
X350647000Y-73596500D03*
D13*
X237617000Y-78676500D03*
X227457000Y-78676500D03*
D12*
X232537000Y-78676500D03*
D14*
X228727000Y-76136500D03*
X235077000Y-73596500D03*
D13*
X161417000Y-78676500D03*
X151257000Y-78676500D03*
D12*
X156337000Y-78676500D03*
D14*
X152527000Y-76136500D03*
X158877000Y-73596500D03*
X120777000Y-73596500D03*
X114427000Y-76136500D03*
D12*
X118237000Y-78676500D03*
D13*
X113157000Y-78676500D03*
X123317000Y-78676500D03*
X85217000Y-78676500D03*
X75057000Y-78676500D03*
D12*
X80137000Y-78676500D03*
D14*
X76327000Y-76136500D03*
X82677000Y-73596500D03*
X369697000Y-73596500D03*
X363347000Y-76136500D03*
D12*
X367157000Y-78676500D03*
D13*
X362077000Y-78676500D03*
X372237000Y-78676500D03*
X334137000Y-78676500D03*
X323977000Y-78676500D03*
D12*
X329057000Y-78676500D03*
D14*
X325247000Y-76136500D03*
X331597000Y-73596500D03*
X254127000Y-73596500D03*
X247777000Y-76136500D03*
D12*
X251587000Y-78676500D03*
D13*
X246507000Y-78676500D03*
X256667000Y-78676500D03*
X218567000Y-78676500D03*
X208407000Y-78676500D03*
D12*
X213487000Y-78676500D03*
D14*
X209677000Y-76136500D03*
X216027000Y-73596500D03*
X177927000Y-73596500D03*
X171577000Y-76136500D03*
D12*
X175387000Y-78676500D03*
D13*
X170307000Y-78676500D03*
X180467000Y-78676500D03*
X142367000Y-78676500D03*
X132207000Y-78676500D03*
D12*
X137287000Y-78676500D03*
D14*
X133477000Y-76136500D03*
X139827000Y-73596500D03*
X101727000Y-73596500D03*
X95377000Y-76136500D03*
D12*
X99187000Y-78676500D03*
D13*
X94107000Y-78676500D03*
X104267000Y-78676500D03*
X66167000Y-78676500D03*
X56007000Y-78676500D03*
D12*
X61087000Y-78676500D03*
D14*
X57277000Y-76136500D03*
X63627000Y-73596500D03*
X388747000Y-54546500D03*
X382397000Y-57086500D03*
D12*
X386207000Y-59626500D03*
D13*
X381127000Y-59626500D03*
X391287000Y-59626500D03*
X353187000Y-59626500D03*
X343027000Y-59626500D03*
D12*
X348107000Y-59626500D03*
D14*
X344297000Y-57086500D03*
X350647000Y-54546500D03*
X369697000Y-54546500D03*
X363347000Y-57086500D03*
D12*
X367157000Y-59626500D03*
D13*
X362077000Y-59626500D03*
X372237000Y-59626500D03*
X334137000Y-59626500D03*
X323977000Y-59626500D03*
D12*
X329057000Y-59626500D03*
D14*
X325247000Y-57086500D03*
X331597000Y-54546500D03*
X244602000Y-54546500D03*
X238252000Y-57086500D03*
D12*
X242062000Y-59626500D03*
D13*
X236982000Y-59626500D03*
X247142000Y-59626500D03*
D14*
X168402000Y-54546500D03*
X162052000Y-57086500D03*
D12*
X165862000Y-59626500D03*
D13*
X160782000Y-59626500D03*
X170942000Y-59626500D03*
X132842000Y-59626500D03*
X122682000Y-59626500D03*
D12*
X127762000Y-59626500D03*
D14*
X123952000Y-57086500D03*
X130302000Y-54546500D03*
X92202000Y-54546500D03*
X85852000Y-57086500D03*
D12*
X89662000Y-59626500D03*
D13*
X84582000Y-59626500D03*
X94742000Y-59626500D03*
X56642000Y-59626500D03*
X46482000Y-59626500D03*
D12*
X51562000Y-59626500D03*
D14*
X47752000Y-57086500D03*
X54102000Y-54546500D03*
M02*
