G04 #@! TF.GenerationSoftware,KiCad,Pcbnew,(5.1.9)-1*
G04 #@! TF.CreationDate,2021-05-20T15:13:42-04:00*
G04 #@! TF.ProjectId,cbm2mx,63626d32-6d78-42e6-9b69-6361645f7063,rev?*
G04 #@! TF.SameCoordinates,Original*
G04 #@! TF.FileFunction,Profile,NP*
%FSLAX46Y46*%
G04 Gerber Fmt 4.6, Leading zero omitted, Abs format (unit mm)*
G04 Created by KiCad (PCBNEW (5.1.9)-1) date 2021-05-20 15:13:42*
%MOMM*%
%LPD*%
G01*
G04 APERTURE LIST*
G04 #@! TA.AperFunction,Profile*
%ADD10C,0.050000*%
G04 #@! TD*
G04 APERTURE END LIST*
D10*
X370444400Y-164439600D02*
G75*
G03*
X370444400Y-164439600I-2500000J0D01*
G01*
X325702300Y-276783800D02*
G75*
G03*
X325702300Y-276783800I-2500000J0D01*
G01*
X484452300Y-164439600D02*
G75*
G03*
X484452300Y-164439600I-2500000J0D01*
G01*
X256436500Y-164439600D02*
G75*
G03*
X256436500Y-164439600I-2500000J0D01*
G01*
X142428600Y-164439600D02*
G75*
G03*
X142428600Y-164439600I-2500000J0D01*
G01*
X325689600Y-164439600D02*
G75*
G03*
X325689600Y-164439600I-2500000J0D01*
G01*
X501472200Y-275971000D02*
X501472200Y-129768600D01*
X120929400Y-275971000D02*
X120929400Y-130136900D01*
X126834900Y-281813000D02*
X126771400Y-281813000D01*
X495630200Y-281813000D02*
X126834900Y-281813000D01*
X126771400Y-123926600D02*
X495630200Y-123926600D01*
X256423800Y-128955800D02*
G75*
G03*
X256423800Y-128955800I-2500000J0D01*
G01*
X484439600Y-128955800D02*
G75*
G03*
X484439600Y-128955800I-2500000J0D01*
G01*
X370431700Y-128955800D02*
G75*
G03*
X370431700Y-128955800I-2500000J0D01*
G01*
X416481900Y-241503200D02*
G75*
G03*
X416481900Y-241503200I-2500000J0D01*
G01*
X120929400Y-130136900D02*
X120929400Y-129768600D01*
X370431700Y-276783800D02*
G75*
G03*
X370431700Y-276783800I-2500000J0D01*
G01*
X416418400Y-276783800D02*
G75*
G03*
X416418400Y-276783800I-2500000J0D01*
G01*
X142403200Y-128955800D02*
G75*
G03*
X142403200Y-128955800I-2500000J0D01*
G01*
X495630200Y-123926600D02*
G75*
G02*
X501472200Y-129768600I0J-5842000D01*
G01*
X325702300Y-128955800D02*
G75*
G03*
X325702300Y-128955800I-2500000J0D01*
G01*
X142428600Y-276783800D02*
G75*
G03*
X142428600Y-276783800I-2500000J0D01*
G01*
X416418400Y-164439600D02*
G75*
G03*
X416418400Y-164439600I-2500000J0D01*
G01*
X256423800Y-276783800D02*
G75*
G03*
X256423800Y-276783800I-2500000J0D01*
G01*
X484452300Y-276783800D02*
G75*
G03*
X484452300Y-276783800I-2500000J0D01*
G01*
X120929400Y-129768600D02*
G75*
G02*
X126771400Y-123926600I5842000J0D01*
G01*
X501472200Y-275971000D02*
G75*
G02*
X495630200Y-281813000I-5842000J0D01*
G01*
X416418400Y-128955800D02*
G75*
G03*
X416418400Y-128955800I-2500000J0D01*
G01*
X126771400Y-281813000D02*
G75*
G02*
X120929400Y-275971000I0J5842000D01*
G01*
M02*
