M48
; DRILL file {KiCad (5.1.9)-1} date 05/20/21 15:13:46
; FORMAT={-:-/ absolute / inch / decimal}
; #@! TF.CreationDate,2021-05-20T15:13:46-04:00
; #@! TF.GenerationSoftware,Kicad,Pcbnew,(5.1.9)-1
FMAT,2
INCH
T1C0.0157
T2C0.0394
T3C0.0591
T4C0.0669
T5C0.1201
T6C0.1575
%
G90
G05
T1
X5.8865Y-9.8845
X6.0655Y-6.146
X6.409Y-6.085
X6.8205Y-6.1305
X6.9235Y-8.028
X7.1195Y-9.585
X7.2825Y-7.7355
X7.4255Y-7.4705
X7.498Y-8.4855
X7.6055Y-5.981
X7.643Y-8.702
X7.9255Y-6.204
X8.186Y-8.085
X8.2565Y-8.144
X8.2865Y-6.2775
X8.416Y-5.9955
X8.487Y-5.7225
X8.5115Y-6.671
X8.548Y-5.662
X8.553Y-6.7705
X8.629Y-6.133
X8.6415Y-8.8125
X8.6995Y-6.053
X8.9545Y-5.5875
X9.014Y-8.223
X9.2625Y-8.962
X9.565Y-7.549
X10.011Y-8.9195
X10.2555Y-8.4535
X10.511Y-9.0105
X10.567Y-5.9955
X10.954Y-9.7165
X11.4605Y-6.2775
X11.5205Y-9.8875
X12.6365Y-9.1715
X12.768Y-8.453
X13.013Y-8.8315
X13.2625Y-9.4575
X13.306Y-7.5495
X13.3185Y-9.3085
X13.338Y-8.8465
X13.5655Y-7.6075
X13.5965Y-6.088
X13.7095Y-8.202
X13.7725Y-8.732
X14.266Y-9.8585
X14.341Y-9.9225
X14.4657Y-7.4688
X14.492Y-9.732
X14.7955Y-9.5915
X14.8395Y-6.726
X14.8405Y-7.353
X15.2705Y-7.0035
X15.277Y-8.386
X15.5925Y-9.796
X15.6215Y-7.3525
X15.6565Y-7.453
X15.677Y-8.136
X15.7365Y-8.61
X15.849Y-7.007
X15.8535Y-10.1585
X15.9Y-5.98
X16.6755Y-7.453
X16.708Y-8.994
X16.736Y-7.352
X16.8295Y-7.2515
X17.135Y-8.054
X17.8865Y-8.005
X18.6385Y-7.9565
T2
X5.4885Y-10.0455
X5.4885Y-10.1455
X5.4885Y-10.2455
X5.5885Y-10.0455
X5.5885Y-10.1455
X5.5885Y-10.2455
X6.7545Y-5.3605
X6.8545Y-5.3605
X6.9545Y-5.3605
X7.0545Y-5.3605
X7.1545Y-5.3605
X7.2545Y-5.3605
X7.3545Y-5.3605
X7.4545Y-5.3605
X7.5545Y-5.3605
X7.6545Y-5.3605
X7.7545Y-5.3605
X7.8545Y-5.3605
X7.9545Y-5.3605
X8.0545Y-5.3605
X8.1545Y-5.3605
X8.2545Y-5.3605
X8.3545Y-5.3605
X8.4545Y-5.3605
X8.5545Y-5.3605
X8.6545Y-5.3605
X8.7545Y-5.3605
X8.8545Y-5.3605
X8.9545Y-5.3605
X9.2525Y-9.9775
X9.2525Y-10.0775
X9.2525Y-10.1775
X9.3525Y-9.9775
X9.3525Y-10.0775
X9.3525Y-10.1775
X11.8415Y-9.995
X11.8415Y-10.095
X11.8415Y-10.195
X11.9415Y-9.995
X11.9415Y-10.095
X11.9415Y-10.195
X14.1385Y-10.064
X14.1385Y-10.164
X14.1385Y-10.264
X16.3325Y-7.0525
X16.3325Y-7.1525
X16.3325Y-7.2525
X16.3325Y-7.3525
X16.3325Y-7.4525
X16.3325Y-7.5525
X16.3325Y-7.6525
X16.3325Y-7.7525
X16.3325Y-7.8525
X16.3325Y-7.9525
X16.3325Y-8.0525
X16.3325Y-8.1525
X16.3325Y-8.2525
X16.3325Y-8.3525
X16.3325Y-8.4525
X16.3325Y-8.5525
X16.3325Y-8.6525
X16.3325Y-8.7525
X16.3325Y-8.8525
X16.3325Y-8.9525
X16.3325Y-9.0525
X16.3325Y-9.1525
X16.3325Y-9.2525
T3
X5.0655Y-6.9805
X5.069Y-5.7645
X5.2545Y-7.7355
X5.3155Y-5.6645
X5.3155Y-6.8805
X5.45Y-8.4835
X5.5045Y-7.6355
X5.635Y-9.2355
X5.7Y-8.3835
X5.8155Y-6.9805
X5.8195Y-5.7645
X5.885Y-9.1355
X6.0655Y-6.8805
X6.0695Y-5.6645
X6.194Y-7.7355
X6.381Y-9.9845
X6.388Y-8.4845
X6.444Y-7.6355
X6.5655Y-6.981
X6.5705Y-5.7645
X6.631Y-9.8845
X6.638Y-8.3845
X6.7605Y-9.235
X6.8155Y-6.881
X6.8205Y-5.6645
X6.943Y-7.7355
X7.0105Y-9.135
X7.1375Y-8.4855
X7.193Y-7.6355
X7.315Y-6.9815
X7.3195Y-5.7645
X7.3875Y-8.3855
X7.5065Y-9.986
X7.5105Y-9.235
X7.565Y-6.8815
X7.5695Y-5.6645
X7.6935Y-7.7355
X7.7565Y-9.886
X7.7605Y-9.135
X7.887Y-8.4855
X7.9435Y-7.6355
X8.065Y-6.982
X8.0695Y-5.7645
X8.137Y-8.3855
X8.261Y-9.2345
X8.315Y-6.882
X8.3195Y-5.6645
X8.4425Y-7.7355
X8.511Y-9.1345
X8.637Y-8.486
X8.6925Y-7.6355
X8.815Y-6.9825
X8.819Y-5.7645
X8.887Y-8.386
X9.011Y-9.235
X9.065Y-6.8825
X9.069Y-5.6645
X9.189Y-7.7355
X9.261Y-9.135
X9.387Y-8.4855
X9.439Y-7.6355
X9.5655Y-6.982
X9.5685Y-5.7645
X9.637Y-8.3855
X9.7615Y-9.2355
X9.8155Y-6.882
X9.8185Y-5.6645
X9.9405Y-7.7355
X10.0115Y-9.1355
X10.135Y-8.4855
X10.1905Y-7.6355
X10.316Y-6.983
X10.317Y-5.7645
X10.385Y-8.3855
X10.4145Y-9.9875
X10.512Y-9.2355
X10.566Y-6.883
X10.567Y-5.6645
X10.6645Y-9.8875
X10.6915Y-7.7355
X10.762Y-9.1355
X10.885Y-8.485
X10.9415Y-7.6355
X11.0665Y-6.9835
X11.0675Y-5.7645
X11.135Y-8.385
X11.262Y-9.2355
X11.3165Y-6.8835
X11.3175Y-5.6645
X11.447Y-7.7355
X11.512Y-9.1355
X11.635Y-8.4865
X11.697Y-7.6355
X11.8165Y-6.9835
X11.8185Y-5.7645
X11.885Y-8.3865
X12.0115Y-9.2355
X12.0665Y-6.8835
X12.0685Y-5.6645
X12.1935Y-7.7355
X12.2615Y-9.1355
X12.3855Y-8.486
X12.4435Y-7.6355
X12.566Y-6.9835
X12.6355Y-8.386
X12.7615Y-9.235
X12.816Y-6.8835
X12.9445Y-7.7355
X13.0115Y-9.135
X13.136Y-8.4855
X13.1945Y-7.6355
X13.225Y-9.985
X13.316Y-6.983
X13.317Y-5.7645
X13.386Y-8.3855
X13.475Y-9.885
X13.512Y-9.236
X13.5605Y-5.6645
X13.566Y-6.883
X13.695Y-7.7355
X13.762Y-9.136
X13.886Y-8.4845
X13.945Y-7.6355
X14.0645Y-5.764
X14.066Y-6.983
X14.136Y-8.3845
X14.3145Y-5.664
X14.316Y-6.883
X14.4485Y-9.235
X14.5385Y-7.7355
X14.6355Y-9.9825
X14.636Y-8.486
X14.6985Y-9.135
X14.7885Y-7.6355
X14.814Y-5.7635
X14.816Y-6.983
X14.8855Y-9.8825
X14.886Y-8.386
X15.064Y-5.6635
X15.066Y-6.883
X15.3855Y-8.11
X15.3855Y-9.2345
X15.386Y-9.9825
X15.5635Y-5.7645
X15.5655Y-6.9835
X15.6355Y-8.01
X15.6355Y-9.1345
X15.636Y-9.8825
X15.8135Y-5.6645
X15.8155Y-6.8835
X16.1345Y-9.9835
X16.3845Y-9.8835
X16.7915Y-9.982
X16.885Y-6.985
X16.885Y-7.7355
X16.886Y-9.2345
X16.8865Y-5.7645
X16.8865Y-8.484
X16.936Y-10.2825
X17.0415Y-9.882
X17.135Y-6.885
X17.135Y-7.6355
X17.136Y-9.1345
X17.1365Y-5.6645
X17.1365Y-8.384
X17.186Y-10.1825
X17.634Y-6.985
X17.636Y-7.735
X17.6365Y-8.484
X17.6365Y-9.2335
X17.6365Y-9.985
X17.637Y-5.7645
X17.884Y-6.885
X17.886Y-7.635
X17.8865Y-8.384
X17.8865Y-9.1335
X17.8865Y-9.885
X17.887Y-5.6645
X18.386Y-9.234
X18.387Y-5.7645
X18.387Y-6.985
X18.387Y-9.9845
X18.388Y-8.4855
X18.3885Y-7.7365
X18.636Y-9.134
X18.637Y-5.6645
X18.637Y-6.885
X18.637Y-9.8845
X18.638Y-8.3855
X18.6385Y-7.6365
X19.137Y-5.7645
X19.1375Y-6.984
X19.1375Y-9.6085
X19.138Y-7.7365
X19.138Y-8.4855
X19.387Y-5.6645
X19.3875Y-6.884
X19.3875Y-9.5085
X19.388Y-7.6365
X19.388Y-8.3855
T4
X5.0155Y-7.0805
X5.019Y-5.8645
X5.2045Y-7.8355
X5.4Y-8.5835
X5.4155Y-7.0805
X5.419Y-5.8645
X5.585Y-9.3355
X5.6045Y-7.8355
X5.7655Y-7.0805
X5.7695Y-5.8645
X5.8Y-8.5835
X5.985Y-9.3355
X6.144Y-7.8355
X6.1655Y-7.0805
X6.1695Y-5.8645
X6.331Y-10.0845
X6.338Y-8.5845
X6.5155Y-7.081
X6.5205Y-5.8645
X6.544Y-7.8355
X6.7105Y-9.335
X6.731Y-10.0845
X6.738Y-8.5845
X6.893Y-7.8355
X6.9155Y-7.081
X6.9205Y-5.8645
X7.0875Y-8.5855
X7.1105Y-9.335
X7.265Y-7.0815
X7.2695Y-5.8645
X7.293Y-7.8355
X7.4565Y-10.086
X7.4605Y-9.335
X7.4875Y-8.5855
X7.6435Y-7.8355
X7.665Y-7.0815
X7.6695Y-5.8645
X7.837Y-8.5855
X7.8565Y-10.086
X7.8605Y-9.335
X8.015Y-7.082
X8.0195Y-5.8645
X8.0435Y-7.8355
X8.211Y-9.3345
X8.237Y-8.5855
X8.3925Y-7.8355
X8.415Y-7.082
X8.4195Y-5.8645
X8.587Y-8.586
X8.611Y-9.3345
X8.765Y-7.0825
X8.769Y-5.8645
X8.7925Y-7.8355
X8.961Y-9.335
X8.987Y-8.586
X9.139Y-7.8355
X9.165Y-7.0825
X9.169Y-5.8645
X9.337Y-8.5855
X9.361Y-9.335
X9.5155Y-7.082
X9.5185Y-5.8645
X9.539Y-7.8355
X9.7115Y-9.3355
X9.737Y-8.5855
X9.8905Y-7.8355
X9.9155Y-7.082
X9.9185Y-5.8645
X10.085Y-8.5855
X10.1115Y-9.3355
X10.266Y-7.083
X10.267Y-5.8645
X10.2905Y-7.8355
X10.3645Y-10.0875
X10.462Y-9.3355
X10.485Y-8.5855
X10.6415Y-7.8355
X10.666Y-7.083
X10.667Y-5.8645
X10.7645Y-10.0875
X10.835Y-8.585
X10.862Y-9.3355
X11.0165Y-7.0835
X11.0175Y-5.8645
X11.0415Y-7.8355
X11.212Y-9.3355
X11.235Y-8.585
X11.397Y-7.8355
X11.4165Y-7.0835
X11.4175Y-5.8645
X11.585Y-8.5865
X11.612Y-9.3355
X11.7665Y-7.0835
X11.7685Y-5.8645
X11.797Y-7.8355
X11.9615Y-9.3355
X11.985Y-8.5865
X12.1435Y-7.8355
X12.1665Y-7.0835
X12.1685Y-5.8645
X12.3355Y-8.586
X12.3615Y-9.3355
X12.516Y-7.0835
X12.5435Y-7.8355
X12.7115Y-9.335
X12.7355Y-8.586
X12.8945Y-7.8355
X12.916Y-7.0835
X13.086Y-8.5855
X13.1115Y-9.335
X13.175Y-10.085
X13.266Y-7.083
X13.267Y-5.8645
X13.2945Y-7.8355
X13.462Y-9.336
X13.486Y-8.5855
X13.575Y-10.085
X13.645Y-7.8355
X13.666Y-7.083
X13.667Y-5.8645
X13.836Y-8.5845
X13.862Y-9.336
X14.0145Y-5.864
X14.016Y-7.083
X14.045Y-7.8355
X14.236Y-8.5845
X14.3985Y-9.335
X14.4145Y-5.864
X14.416Y-7.083
X14.4885Y-7.8355
X14.5855Y-10.0825
X14.586Y-8.586
X14.764Y-5.8635
X14.766Y-7.083
X14.7985Y-9.335
X14.8885Y-7.8355
X14.9855Y-10.0825
X14.986Y-8.586
X15.164Y-5.8635
X15.166Y-7.083
X15.3355Y-8.21
X15.3355Y-9.3345
X15.336Y-10.0825
X15.5135Y-5.8645
X15.5155Y-7.0835
X15.7355Y-8.21
X15.7355Y-9.3345
X15.736Y-10.0825
X15.9135Y-5.8645
X15.9155Y-7.0835
X16.0845Y-10.0835
X16.4845Y-10.0835
X16.7415Y-10.082
X16.835Y-7.085
X16.835Y-7.8355
X16.836Y-9.3345
X16.836Y-10.0825
X16.8365Y-5.8645
X16.8365Y-8.584
X17.1415Y-10.082
X17.235Y-7.085
X17.235Y-7.8355
X17.236Y-9.3345
X17.236Y-10.0825
X17.2365Y-5.8645
X17.2365Y-8.584
X17.584Y-7.085
X17.586Y-7.835
X17.5865Y-8.584
X17.5865Y-9.3335
X17.5865Y-10.085
X17.587Y-5.8645
X17.984Y-7.085
X17.986Y-7.835
X17.9865Y-8.584
X17.9865Y-9.3335
X17.9865Y-10.085
X17.987Y-5.8645
X18.336Y-9.334
X18.337Y-5.8645
X18.337Y-7.085
X18.337Y-10.0845
X18.338Y-8.5855
X18.3385Y-7.8365
X18.736Y-9.334
X18.737Y-5.8645
X18.737Y-7.085
X18.737Y-10.0845
X18.738Y-8.5855
X18.7385Y-7.8365
X19.087Y-5.8645
X19.0875Y-7.084
X19.0875Y-9.7085
X19.088Y-7.8365
X19.088Y-8.5855
X19.487Y-5.8645
X19.4875Y-7.084
X19.4875Y-9.7085
X19.488Y-7.8365
X19.488Y-8.5855
T5
X5.3165Y-9.0599
X6.2535Y-9.0599
X8.596Y-9.8119
X12.533Y-9.8119
X15.2599Y-7.7415
X15.2599Y-8.6785
X19.0119Y-9.24
X19.0119Y-10.177
T6
X5.2155Y-7.0805
X5.219Y-5.8645
X5.3165Y-9.6599
X5.4045Y-7.8355
X5.6Y-8.5835
X5.785Y-9.3355
X5.9655Y-7.0805
X5.9695Y-5.8645
X6.2535Y-9.6599
X6.344Y-7.8355
X6.531Y-10.0845
X6.538Y-8.5845
X6.7155Y-7.081
X6.7205Y-5.8645
X6.9105Y-9.335
X7.093Y-7.8355
X7.2875Y-8.5855
X7.465Y-7.0815
X7.4695Y-5.8645
X7.6565Y-10.086
X7.6605Y-9.335
X7.8435Y-7.8355
X8.037Y-8.5855
X8.215Y-7.082
X8.2195Y-5.8645
X8.411Y-9.3345
X8.5925Y-7.8355
X8.596Y-10.4119
X8.787Y-8.586
X8.965Y-7.0825
X8.969Y-5.8645
X9.161Y-9.335
X9.339Y-7.8355
X9.537Y-8.5855
X9.7155Y-7.082
X9.7185Y-5.8645
X9.9115Y-9.3355
X10.0905Y-7.8355
X10.285Y-8.5855
X10.466Y-7.083
X10.467Y-5.8645
X10.5645Y-10.0875
X10.662Y-9.3355
X10.8415Y-7.8355
X11.035Y-8.585
X11.2165Y-7.0835
X11.2175Y-5.8645
X11.412Y-9.3355
X11.597Y-7.8355
X11.785Y-8.5865
X11.9665Y-7.0835
X11.9685Y-5.8645
X12.1615Y-9.3355
X12.3435Y-7.8355
X12.533Y-10.4119
X12.5355Y-8.586
X12.716Y-7.0835
X12.9115Y-9.335
X13.0945Y-7.8355
X13.286Y-8.5855
X13.375Y-10.085
X13.466Y-7.083
X13.467Y-5.8645
X13.662Y-9.336
X13.845Y-7.8355
X14.036Y-8.5845
X14.2145Y-5.864
X14.216Y-7.083
X14.5985Y-9.335
X14.6885Y-7.8355
X14.7855Y-10.0825
X14.786Y-8.586
X14.964Y-5.8635
X14.966Y-7.083
X15.5355Y-8.21
X15.5355Y-9.3345
X15.536Y-10.0825
X15.7135Y-5.8645
X15.7155Y-7.0835
X15.8599Y-7.7415
X15.8599Y-8.6785
X16.2845Y-10.0835
X16.9415Y-10.082
X17.035Y-7.085
X17.035Y-7.8355
X17.036Y-9.3345
X17.036Y-10.0825
X17.0365Y-5.8645
X17.0365Y-8.584
X17.784Y-7.085
X17.786Y-7.835
X17.7865Y-8.584
X17.7865Y-9.3335
X17.7865Y-10.085
X17.787Y-5.8645
X18.536Y-9.334
X18.537Y-5.8645
X18.537Y-7.085
X18.537Y-10.0845
X18.538Y-8.5855
X18.5385Y-7.8365
X19.287Y-5.8645
X19.2875Y-7.084
X19.2875Y-9.7085
X19.288Y-7.8365
X19.288Y-8.5855
X19.6119Y-9.24
X19.6119Y-10.177
T0
M30
