G04 #@! TF.GenerationSoftware,KiCad,Pcbnew,(5.1.7)-1*
G04 #@! TF.CreationDate,2020-12-18T21:48:47-05:00*
G04 #@! TF.ProjectId,petkn,7065746b-6e2e-46b6-9963-61645f706362,rev?*
G04 #@! TF.SameCoordinates,Original*
G04 #@! TF.FileFunction,Copper,L1,Top*
G04 #@! TF.FilePolarity,Positive*
%FSLAX46Y46*%
G04 Gerber Fmt 4.6, Leading zero omitted, Abs format (unit mm)*
G04 Created by KiCad (PCBNEW (5.1.7)-1) date 2020-12-18 21:48:47*
%MOMM*%
%LPD*%
G01*
G04 APERTURE LIST*
G04 #@! TA.AperFunction,Profile*
%ADD10C,0.050000*%
G04 #@! TD*
G04 #@! TA.AperFunction,ComponentPad*
%ADD11C,2.200000*%
G04 #@! TD*
G04 #@! TA.AperFunction,ComponentPad*
%ADD12O,1.700000X1.700000*%
G04 #@! TD*
G04 #@! TA.AperFunction,ComponentPad*
%ADD13R,1.700000X1.700000*%
G04 #@! TD*
G04 #@! TA.AperFunction,ViaPad*
%ADD14C,0.800000*%
G04 #@! TD*
G04 #@! TA.AperFunction,Conductor*
%ADD15C,0.250000*%
G04 #@! TD*
G04 APERTURE END LIST*
D10*
X101351853Y-52705000D02*
G75*
G03*
X101351853Y-52705000I-2101353J0D01*
G01*
X253688353Y-52641500D02*
G75*
G03*
X253688353Y-52641500I-2101353J0D01*
G01*
X177482853Y-52666500D02*
G75*
G03*
X177482853Y-52666500I-2101353J0D01*
G01*
X300500000Y-143002000D02*
G75*
G03*
X300500000Y-143002000I-2500000J0D01*
G01*
X300500000Y-54000000D02*
G75*
G03*
X300500000Y-54000000I-2500000J0D01*
G01*
X300500000Y-97726500D02*
G75*
G03*
X300500000Y-97726500I-2500000J0D01*
G01*
X17272000Y-54419500D02*
X17272000Y-142367000D01*
X403352000Y-54419500D02*
X403352000Y-142367000D01*
X23114000Y-48577500D02*
X397510000Y-48577500D01*
X24217000Y-98000000D02*
G75*
G03*
X24217000Y-98000000I-2500000J0D01*
G01*
X24217000Y-53000000D02*
G75*
G03*
X24217000Y-53000000I-2500000J0D01*
G01*
X400772000Y-98000000D02*
G75*
G03*
X400772000Y-98000000I-2500000J0D01*
G01*
X23114000Y-148209000D02*
X397510000Y-148209000D01*
X397510000Y-48577500D02*
G75*
G02*
X403352000Y-54419500I0J-5842000D01*
G01*
X53871500Y-143000000D02*
G75*
G03*
X53871500Y-143000000I-2500000J0D01*
G01*
X24217000Y-143000000D02*
G75*
G03*
X24217000Y-143000000I-2500000J0D01*
G01*
X181189000Y-143000000D02*
G75*
G03*
X181189000Y-143000000I-2500000J0D01*
G01*
X253515500Y-143000000D02*
G75*
G03*
X253515500Y-143000000I-2500000J0D01*
G01*
X308824000Y-143000000D02*
G75*
G03*
X308824000Y-143000000I-2500000J0D01*
G01*
X400835500Y-143000000D02*
G75*
G03*
X400835500Y-143000000I-2500000J0D01*
G01*
X17272000Y-54419500D02*
G75*
G02*
X23114000Y-48577500I5842000J0D01*
G01*
X403352000Y-142367000D02*
G75*
G02*
X397510000Y-148209000I-5842000J0D01*
G01*
X308824000Y-54000000D02*
G75*
G03*
X308824000Y-54000000I-2500000J0D01*
G01*
X23114000Y-148209000D02*
G75*
G02*
X17272000Y-142367000I0J5842000D01*
G01*
X400772000Y-54000000D02*
G75*
G03*
X400772000Y-54000000I-2500000J0D01*
G01*
D11*
X159728000Y-133286500D03*
X166078000Y-130746500D03*
D12*
X70548500Y-136842500D03*
X68008500Y-136842500D03*
X70548500Y-134302500D03*
D13*
X68008500Y-134302500D03*
D12*
X130365500Y-136652000D03*
X127825500Y-136652000D03*
X130365500Y-134112000D03*
D13*
X127825500Y-134112000D03*
D12*
X197040500Y-137223500D03*
X194500500Y-137223500D03*
X197040500Y-134683500D03*
D13*
X194500500Y-134683500D03*
D12*
X257556000Y-136715500D03*
X255016000Y-136715500D03*
X257556000Y-134175500D03*
D13*
X255016000Y-134175500D03*
D12*
X43688000Y-137350500D03*
X41148000Y-137350500D03*
X43688000Y-134810500D03*
X41148000Y-134810500D03*
X43688000Y-132270500D03*
D13*
X41148000Y-132270500D03*
D11*
X38354000Y-95123000D03*
X44704000Y-92583000D03*
X85915500Y-133286500D03*
X92265500Y-130746500D03*
X35052000Y-54546500D03*
X28702000Y-57086500D03*
X271691000Y-114251500D03*
X278041000Y-111711500D03*
X187452000Y-54546500D03*
X181102000Y-57086500D03*
D12*
X313944000Y-70739000D03*
X313944000Y-73279000D03*
X313944000Y-75819000D03*
X313944000Y-78359000D03*
X313944000Y-80899000D03*
X313944000Y-83439000D03*
X313944000Y-85979000D03*
X313944000Y-88519000D03*
X313944000Y-91059000D03*
X313944000Y-93599000D03*
X313944000Y-96139000D03*
X313944000Y-98679000D03*
X313944000Y-101219000D03*
X313944000Y-103759000D03*
X313944000Y-106299000D03*
X313944000Y-108839000D03*
X313944000Y-111379000D03*
X313944000Y-113919000D03*
X313944000Y-116459000D03*
D13*
X313944000Y-118999000D03*
D11*
X200152000Y-57086500D03*
X206502000Y-54546500D03*
X196977000Y-73596500D03*
X190627000Y-76136500D03*
X66802000Y-57086500D03*
X73152000Y-54546500D03*
X219202000Y-57086500D03*
X225552000Y-54546500D03*
X344297000Y-133286500D03*
X350647000Y-130746500D03*
X111252000Y-54546500D03*
X104902000Y-57086500D03*
X143002000Y-57086500D03*
X149352000Y-54546500D03*
X231140000Y-133286500D03*
X237490000Y-130746500D03*
X276606000Y-95186500D03*
X282956000Y-92646500D03*
X43053000Y-114236500D03*
X49403000Y-111696500D03*
X33464500Y-76136500D03*
X39814500Y-73596500D03*
D12*
X185737500Y-50546000D03*
X188277500Y-50546000D03*
X190817500Y-50546000D03*
X193357500Y-50546000D03*
X195897500Y-50546000D03*
X198437500Y-50546000D03*
X200977500Y-50546000D03*
X203517500Y-50546000D03*
X206057500Y-50546000D03*
X208597500Y-50546000D03*
X211137500Y-50546000D03*
X213677500Y-50546000D03*
X216217500Y-50546000D03*
X218757500Y-50546000D03*
X221297500Y-50546000D03*
X223837500Y-50546000D03*
X226377500Y-50546000D03*
X228917500Y-50546000D03*
X231457500Y-50546000D03*
D13*
X233997500Y-50546000D03*
D11*
X388747000Y-130746500D03*
X382397000Y-133286500D03*
X252730000Y-95186500D03*
X259080000Y-92646500D03*
X273177000Y-73596500D03*
X266827000Y-76136500D03*
X263652000Y-54546500D03*
X257302000Y-57086500D03*
X369697000Y-130746500D03*
X363347000Y-133286500D03*
X325247000Y-133286500D03*
X331597000Y-130746500D03*
X285877000Y-76136500D03*
X292227000Y-73596500D03*
X276352000Y-57086500D03*
X282702000Y-54546500D03*
X388747000Y-111696500D03*
X382397000Y-114236500D03*
X344297000Y-114236500D03*
X350647000Y-111696500D03*
X243078000Y-114236500D03*
X249428000Y-111696500D03*
X211328000Y-111696500D03*
X204978000Y-114236500D03*
X166878000Y-114236500D03*
X173228000Y-111696500D03*
X135128000Y-111696500D03*
X128778000Y-114236500D03*
X90678000Y-114236500D03*
X97028000Y-111696500D03*
X369697000Y-111696500D03*
X363347000Y-114236500D03*
X325247000Y-114236500D03*
X331597000Y-111696500D03*
X224028000Y-114236500D03*
X230378000Y-111696500D03*
X192278000Y-111696500D03*
X185928000Y-114236500D03*
X147828000Y-114236500D03*
X154178000Y-111696500D03*
X116078000Y-111696500D03*
X109728000Y-114236500D03*
X71628000Y-114236500D03*
X77978000Y-111696500D03*
X388747000Y-92646500D03*
X382397000Y-95186500D03*
X344297000Y-95186500D03*
X350647000Y-92646500D03*
X233680000Y-95186500D03*
X240030000Y-92646500D03*
X201930000Y-92646500D03*
X195580000Y-95186500D03*
X157480000Y-95186500D03*
X163830000Y-92646500D03*
X125730000Y-92646500D03*
X119380000Y-95186500D03*
X81280000Y-95186500D03*
X87630000Y-92646500D03*
X369697000Y-92646500D03*
X363347000Y-95186500D03*
X325247000Y-95186500D03*
X331597000Y-92646500D03*
X214630000Y-95186500D03*
X220980000Y-92646500D03*
X182880000Y-92646500D03*
X176530000Y-95186500D03*
X138430000Y-95186500D03*
X144780000Y-92646500D03*
X106680000Y-92646500D03*
X100330000Y-95186500D03*
X62230000Y-95186500D03*
X68580000Y-92646500D03*
X388747000Y-73596500D03*
X382397000Y-76136500D03*
X344297000Y-76136500D03*
X350647000Y-73596500D03*
X228727000Y-76136500D03*
X235077000Y-73596500D03*
X152527000Y-76136500D03*
X158877000Y-73596500D03*
X120777000Y-73596500D03*
X114427000Y-76136500D03*
X76327000Y-76136500D03*
X82677000Y-73596500D03*
X369697000Y-73596500D03*
X363347000Y-76136500D03*
X325247000Y-76136500D03*
X331597000Y-73596500D03*
X254127000Y-73596500D03*
X247777000Y-76136500D03*
X209677000Y-76136500D03*
X216027000Y-73596500D03*
X177927000Y-73596500D03*
X171577000Y-76136500D03*
X133477000Y-76136500D03*
X139827000Y-73596500D03*
X101727000Y-73596500D03*
X95377000Y-76136500D03*
X57277000Y-76136500D03*
X63627000Y-73596500D03*
X388747000Y-54546500D03*
X382397000Y-57086500D03*
X344297000Y-57086500D03*
X350647000Y-54546500D03*
X369697000Y-54546500D03*
X363347000Y-57086500D03*
X325247000Y-57086500D03*
X331597000Y-54546500D03*
X244602000Y-54546500D03*
X238252000Y-57086500D03*
X168402000Y-54546500D03*
X162052000Y-57086500D03*
X123952000Y-57086500D03*
X130302000Y-54546500D03*
X92202000Y-54546500D03*
X85852000Y-57086500D03*
X47752000Y-57086500D03*
X54102000Y-54546500D03*
D14*
X175260000Y-66929000D03*
X61087000Y-66929000D03*
X50546000Y-93345000D03*
X204533500Y-56197500D03*
X240347500Y-88519000D03*
X195516500Y-87312500D03*
X187833000Y-57086500D03*
X191897000Y-70675500D03*
X119697500Y-54546500D03*
X119634000Y-68199000D03*
X264858500Y-68199000D03*
X193738500Y-69596000D03*
X283654500Y-69659500D03*
X193357500Y-54292500D03*
X270573500Y-107315000D03*
X290131500Y-94869000D03*
X292544500Y-80899000D03*
X194627500Y-64579500D03*
X251968000Y-65024000D03*
X282956000Y-83566000D03*
X254254000Y-83502500D03*
X45021500Y-64706500D03*
X278320500Y-135382000D03*
X331533500Y-85979000D03*
X197231000Y-84772500D03*
X201739500Y-87693500D03*
X330832395Y-56581105D03*
X184975500Y-89535000D03*
X181800500Y-62484000D03*
X207126442Y-62600442D03*
X93218000Y-89535000D03*
X201612500Y-76136500D03*
X325247000Y-89471500D03*
X248729500Y-102171500D03*
X202946000Y-81915000D03*
X344932000Y-90233500D03*
X208153000Y-103314500D03*
X215836500Y-104330500D03*
X207073500Y-80899000D03*
X198882000Y-80899000D03*
X234188000Y-105600500D03*
X214376000Y-63627000D03*
X221488000Y-56388000D03*
X273494500Y-111633000D03*
X344868500Y-121920000D03*
X207010000Y-92900500D03*
X223520000Y-90741500D03*
X272415000Y-131826000D03*
X29400500Y-114236500D03*
X228409500Y-107315000D03*
X272351500Y-107569000D03*
X277431500Y-76009500D03*
X341185500Y-124714000D03*
D15*
X54102000Y-54546500D02*
X73152000Y-54546500D01*
X77978000Y-111696500D02*
X97028000Y-111696500D01*
X68580000Y-92646500D02*
X87630000Y-92646500D01*
X63627000Y-73596500D02*
X82677000Y-73596500D01*
X313944000Y-70739000D02*
X306387500Y-70739000D01*
X306387500Y-70739000D02*
X298259500Y-70739000D01*
X298259500Y-70739000D02*
X294449500Y-66929000D01*
X294449500Y-66929000D02*
X175260000Y-66929000D01*
X175260000Y-66929000D02*
X61087000Y-66929000D01*
X63627000Y-73596500D02*
X39814500Y-73596500D01*
X51244500Y-92646500D02*
X50546000Y-93345000D01*
X68580000Y-92646500D02*
X51244500Y-92646500D01*
X47752000Y-57086500D02*
X49784000Y-57086500D01*
X49784000Y-57086500D02*
X50355500Y-56515000D01*
X50355500Y-56515000D02*
X61785500Y-56515000D01*
X61785500Y-56515000D02*
X63055500Y-55245000D01*
X63055500Y-55245000D02*
X70231000Y-55245000D01*
X72072500Y-57086500D02*
X85852000Y-57086500D01*
X70231000Y-55245000D02*
X72072500Y-57086500D01*
X123952000Y-57086500D02*
X125793500Y-57086500D01*
X125793500Y-57086500D02*
X126492000Y-56388000D01*
X126492000Y-56388000D02*
X138493500Y-56388000D01*
X138493500Y-56388000D02*
X139573000Y-55308500D01*
X139573000Y-55308500D02*
X146685000Y-55308500D01*
X148463000Y-57086500D02*
X162052000Y-57086500D01*
X146685000Y-55308500D02*
X148463000Y-57086500D01*
X325247000Y-57086500D02*
X325247000Y-57023000D01*
X359791000Y-57086500D02*
X363347000Y-57086500D01*
X325247000Y-57086500D02*
X325247000Y-57912000D01*
X325247000Y-57912000D02*
X325945500Y-58610500D01*
X325945500Y-58610500D02*
X325945500Y-61468000D01*
X326961500Y-62484000D02*
X354584000Y-62484000D01*
X325945500Y-61468000D02*
X326961500Y-62484000D01*
X354584000Y-62484000D02*
X359791000Y-57086500D01*
X200152000Y-57086500D02*
X201358500Y-57086500D01*
X201358500Y-57086500D02*
X202184000Y-56261000D01*
X204470000Y-56261000D02*
X204533500Y-56197500D01*
X202184000Y-56261000D02*
X204470000Y-56261000D01*
X240347500Y-88519000D02*
X202819000Y-88519000D01*
X202819000Y-88519000D02*
X202565000Y-88773000D01*
X202565000Y-88773000D02*
X196659500Y-88773000D01*
X195516500Y-87630000D02*
X195516500Y-87312500D01*
X196659500Y-88773000D02*
X195516500Y-87630000D01*
X187833000Y-57086500D02*
X200152000Y-57086500D01*
X102997000Y-55435500D02*
X101790500Y-56642000D01*
X88328500Y-56642000D02*
X87884000Y-57086500D01*
X101790500Y-56642000D02*
X88328500Y-56642000D01*
X107315000Y-55435500D02*
X102997000Y-55435500D01*
X108966000Y-57086500D02*
X107315000Y-55435500D01*
X87884000Y-57086500D02*
X85852000Y-57086500D01*
X123952000Y-57086500D02*
X108966000Y-57086500D01*
X186817000Y-57086500D02*
X187833000Y-57086500D01*
X180149500Y-55245000D02*
X184975500Y-55245000D01*
X177546000Y-57848500D02*
X180149500Y-55245000D01*
X167386000Y-56578500D02*
X168656000Y-57848500D01*
X168656000Y-57848500D02*
X177546000Y-57848500D01*
X164274500Y-56578500D02*
X167386000Y-56578500D01*
X163766500Y-57086500D02*
X164274500Y-56578500D01*
X184975500Y-55245000D02*
X186817000Y-57086500D01*
X162052000Y-57086500D02*
X163766500Y-57086500D01*
X300926500Y-88519000D02*
X240347500Y-88519000D01*
X303466500Y-91059000D02*
X300926500Y-88519000D01*
X313944000Y-91059000D02*
X303466500Y-91059000D01*
X35052000Y-54546500D02*
X49022000Y-54546500D01*
X116078000Y-111696500D02*
X135128000Y-111696500D01*
X101727000Y-73596500D02*
X120777000Y-73596500D01*
X106680000Y-92646500D02*
X125730000Y-92646500D01*
X120777000Y-73596500D02*
X129349500Y-73596500D01*
X129349500Y-73596500D02*
X131191000Y-71755000D01*
X131191000Y-71755000D02*
X186690000Y-71755000D01*
X186690000Y-71755000D02*
X190817500Y-71755000D01*
X190817500Y-71755000D02*
X191897000Y-70675500D01*
X111252000Y-54546500D02*
X119697500Y-54546500D01*
X92202000Y-54546500D02*
X77279500Y-54546500D01*
X77279500Y-54546500D02*
X75438000Y-52705000D01*
X49022000Y-54546500D02*
X50990500Y-52705000D01*
X75438000Y-52705000D02*
X50990500Y-52705000D01*
X298513500Y-73279000D02*
X313944000Y-73279000D01*
X293433500Y-68199000D02*
X298513500Y-73279000D01*
X264858500Y-68199000D02*
X293433500Y-68199000D01*
X119634000Y-68199000D02*
X264858500Y-68199000D01*
X92202000Y-54546500D02*
X94488000Y-54546500D01*
X94488000Y-54546500D02*
X95504000Y-55562500D01*
X100647500Y-55562500D02*
X101663500Y-54546500D01*
X95504000Y-55562500D02*
X100647500Y-55562500D01*
X111252000Y-54546500D02*
X101663500Y-54546500D01*
X154178000Y-111696500D02*
X173228000Y-111696500D01*
X173736000Y-112204500D02*
X173228000Y-111696500D01*
X139827000Y-73596500D02*
X158877000Y-73596500D01*
X144780000Y-92646500D02*
X163830000Y-92646500D01*
X130302000Y-54546500D02*
X149352000Y-54546500D01*
X313944000Y-75819000D02*
X298259500Y-75819000D01*
X298259500Y-75819000D02*
X292100000Y-69659500D01*
X193802000Y-69659500D02*
X193738500Y-69596000D01*
X283654500Y-69659500D02*
X193802000Y-69659500D01*
X292100000Y-69659500D02*
X283654500Y-69659500D01*
X190563500Y-130746500D02*
X194500500Y-134683500D01*
X166078000Y-130746500D02*
X190563500Y-130746500D01*
X130365500Y-134112000D02*
X147955000Y-134112000D01*
X151320500Y-130746500D02*
X166078000Y-130746500D01*
X147955000Y-134112000D02*
X151320500Y-130746500D01*
X190817500Y-52197000D02*
X190817500Y-50546000D01*
X177038000Y-55372000D02*
X179768500Y-52641500D01*
X173101000Y-55372000D02*
X177038000Y-55372000D01*
X170370500Y-52641500D02*
X173101000Y-55372000D01*
X190373000Y-52641500D02*
X190817500Y-52197000D01*
X166497000Y-52641500D02*
X170370500Y-52641500D01*
X164592000Y-54546500D02*
X166497000Y-52641500D01*
X179768500Y-52641500D02*
X190373000Y-52641500D01*
X149352000Y-54546500D02*
X164592000Y-54546500D01*
X211328000Y-111696500D02*
X192278000Y-111696500D01*
X182880000Y-92646500D02*
X201930000Y-92646500D01*
X177927000Y-73596500D02*
X196977000Y-73596500D01*
X211328000Y-111696500D02*
X224726500Y-111696500D01*
X224726500Y-111696500D02*
X227965000Y-108458000D01*
X227965000Y-108458000D02*
X257810000Y-108458000D01*
X187452000Y-54546500D02*
X193103500Y-54546500D01*
X193103500Y-54546500D02*
X193357500Y-54292500D01*
X196977000Y-73596500D02*
X206248000Y-73596500D01*
X206248000Y-73596500D02*
X209613500Y-70231000D01*
X257810000Y-108458000D02*
X258889500Y-108458000D01*
X258889500Y-108458000D02*
X259905500Y-107442000D01*
X259905500Y-107442000D02*
X270446500Y-107442000D01*
X270446500Y-107442000D02*
X270573500Y-107315000D01*
X274637500Y-72707500D02*
X273748500Y-73596500D01*
X286575500Y-72707500D02*
X274637500Y-72707500D01*
X273748500Y-73596500D02*
X273177000Y-73596500D01*
X295211500Y-75882500D02*
X289750500Y-75882500D01*
X289750500Y-75882500D02*
X286575500Y-72707500D01*
X297688000Y-78359000D02*
X295211500Y-75882500D01*
X313944000Y-78359000D02*
X297688000Y-78359000D01*
X168402000Y-54546500D02*
X168846500Y-54546500D01*
X168846500Y-54546500D02*
X170688000Y-56388000D01*
X177228500Y-56388000D02*
X179070000Y-54546500D01*
X170688000Y-56388000D02*
X177228500Y-56388000D01*
X179070000Y-54546500D02*
X187452000Y-54546500D01*
X230378000Y-111696500D02*
X249428000Y-111696500D01*
X220980000Y-92646500D02*
X240030000Y-92646500D01*
X240030000Y-92646500D02*
X259080000Y-92646500D01*
X216027000Y-73596500D02*
X235077000Y-73596500D01*
X259080000Y-92646500D02*
X271526000Y-92646500D01*
X206502000Y-54546500D02*
X207772000Y-54546500D01*
X207772000Y-54546500D02*
X208407000Y-55181500D01*
X224917000Y-55181500D02*
X225552000Y-54546500D01*
X208407000Y-55181500D02*
X224917000Y-55181500D01*
X271526000Y-92646500D02*
X279336500Y-92646500D01*
X279336500Y-92646500D02*
X281559000Y-94869000D01*
X281559000Y-94869000D02*
X290131500Y-94869000D01*
X310324500Y-80899000D02*
X313944000Y-80899000D01*
X195897500Y-52006500D02*
X198437500Y-54546500D01*
X195897500Y-50546000D02*
X195897500Y-52006500D01*
X206502000Y-54546500D02*
X198437500Y-54546500D01*
X310324500Y-80899000D02*
X292544500Y-80899000D01*
X48704500Y-64643000D02*
X192405000Y-64579500D01*
X192405000Y-64579500D02*
X194627500Y-64579500D01*
X194627500Y-64579500D02*
X211645500Y-64579500D01*
X211645500Y-64579500D02*
X212153500Y-65087500D01*
X212153500Y-65087500D02*
X243522500Y-65087500D01*
X243522500Y-65087500D02*
X243586000Y-65024000D01*
X243586000Y-65024000D02*
X251968000Y-65024000D01*
X254317500Y-83566000D02*
X254254000Y-83502500D01*
X282956000Y-83566000D02*
X254317500Y-83566000D01*
X283083000Y-83439000D02*
X282956000Y-83566000D01*
X313944000Y-83439000D02*
X283083000Y-83439000D01*
X42418000Y-136080500D02*
X41148000Y-137350500D01*
X61849000Y-136080500D02*
X42418000Y-136080500D01*
X48641000Y-64706500D02*
X48704500Y-64643000D01*
X45021500Y-64706500D02*
X48641000Y-64706500D01*
X257556000Y-134175500D02*
X263525000Y-134175500D01*
X263525000Y-134175500D02*
X264731500Y-135382000D01*
X264731500Y-135382000D02*
X278320500Y-135382000D01*
X68008500Y-134302500D02*
X63627000Y-134302500D01*
X63627000Y-134302500D02*
X61849000Y-136080500D01*
X331597000Y-54546500D02*
X350647000Y-54546500D01*
X331597000Y-73596500D02*
X350647000Y-73596500D01*
X331597000Y-92646500D02*
X350647000Y-92646500D01*
X350647000Y-111696500D02*
X331597000Y-111696500D01*
X331597000Y-130746500D02*
X350647000Y-130746500D01*
X313944000Y-85979000D02*
X331533500Y-85979000D01*
X309816500Y-85979000D02*
X313944000Y-85979000D01*
X313944000Y-85979000D02*
X198437500Y-85979000D01*
X198437500Y-85979000D02*
X197231000Y-84772500D01*
X369697000Y-54546500D02*
X388747000Y-54546500D01*
X369697000Y-73596500D02*
X388747000Y-73596500D01*
X369697000Y-111696500D02*
X388747000Y-111696500D01*
X369697000Y-130746500D02*
X388747000Y-130746500D01*
X369697000Y-92646500D02*
X388747000Y-92646500D01*
X365569500Y-88519000D02*
X369697000Y-92646500D01*
X313944000Y-88519000D02*
X365569500Y-88519000D01*
X303847500Y-88519000D02*
X303022000Y-87693500D01*
X303022000Y-87693500D02*
X201739500Y-87693500D01*
X313944000Y-88519000D02*
X303847500Y-88519000D01*
X382397000Y-57086500D02*
X368871500Y-57086500D01*
X368871500Y-57086500D02*
X366839500Y-55054500D01*
X366839500Y-55054500D02*
X353758500Y-55054500D01*
X353758500Y-55054500D02*
X352298000Y-56515000D01*
X344868500Y-56515000D02*
X344297000Y-57086500D01*
X352298000Y-56515000D02*
X344868500Y-56515000D01*
X66802000Y-57086500D02*
X66802000Y-58039000D01*
X66802000Y-58039000D02*
X67500500Y-58737500D01*
X67500500Y-58737500D02*
X67500500Y-61023500D01*
X67500500Y-61023500D02*
X69024500Y-62547500D01*
X104902000Y-57086500D02*
X104902000Y-57531000D01*
X104902000Y-57531000D02*
X105664000Y-58293000D01*
X105664000Y-58293000D02*
X105664000Y-61595000D01*
X105664000Y-61595000D02*
X106553000Y-62484000D01*
X106553000Y-62484000D02*
X134620000Y-62484000D01*
X143002000Y-57086500D02*
X143002000Y-57785000D01*
X143573500Y-58356500D02*
X143573500Y-62420500D01*
X143002000Y-57785000D02*
X143573500Y-58356500D01*
X134620000Y-62484000D02*
X143573500Y-62420500D01*
X143573500Y-62420500D02*
X173736000Y-62484000D01*
X173736000Y-62484000D02*
X181800500Y-62484000D01*
X106489500Y-62547500D02*
X106553000Y-62484000D01*
X96456500Y-62547500D02*
X106489500Y-62547500D01*
X331343000Y-57086500D02*
X344297000Y-57086500D01*
X210756500Y-62611000D02*
X216344500Y-57023000D01*
X209423000Y-62611000D02*
X210756500Y-62611000D01*
X219202000Y-57086500D02*
X216344500Y-57023000D01*
X330832395Y-56581105D02*
X331343000Y-57086500D01*
X207126442Y-62600442D02*
X209423000Y-62611000D01*
X181800500Y-62484000D02*
X207126442Y-62600442D01*
X298704000Y-89535000D02*
X184975500Y-89535000D01*
X302768000Y-93599000D02*
X298704000Y-89535000D01*
X313944000Y-93599000D02*
X302768000Y-93599000D01*
X90995500Y-62547500D02*
X96456500Y-62547500D01*
X69024500Y-62547500D02*
X90995500Y-62547500D01*
X184975500Y-89535000D02*
X93218000Y-89535000D01*
X57277000Y-76136500D02*
X59182000Y-76136500D01*
X59182000Y-76136500D02*
X59690000Y-75628500D01*
X59690000Y-75628500D02*
X73723500Y-75628500D01*
X73723500Y-75628500D02*
X75057000Y-74295000D01*
X75057000Y-74295000D02*
X80200500Y-74295000D01*
X82042000Y-76136500D02*
X95377000Y-76136500D01*
X80200500Y-74295000D02*
X82042000Y-76136500D01*
X95377000Y-76136500D02*
X97663000Y-76136500D01*
X97663000Y-76136500D02*
X98171000Y-75628500D01*
X98171000Y-75628500D02*
X110109000Y-75628500D01*
X110109000Y-75628500D02*
X111506000Y-74231500D01*
X111506000Y-74231500D02*
X118110000Y-74231500D01*
X120015000Y-76136500D02*
X133477000Y-76136500D01*
X118110000Y-74231500D02*
X120015000Y-76136500D01*
X133477000Y-76136500D02*
X135445500Y-76136500D01*
X135445500Y-76136500D02*
X135953500Y-75628500D01*
X135953500Y-75628500D02*
X147891500Y-75628500D01*
X147891500Y-75628500D02*
X149161500Y-74358500D01*
X149161500Y-74358500D02*
X156718000Y-74358500D01*
X158496000Y-76136500D02*
X171577000Y-76136500D01*
X156718000Y-74358500D02*
X158496000Y-76136500D01*
X325247000Y-76136500D02*
X327279000Y-76136500D01*
X327279000Y-76136500D02*
X327977500Y-75438000D01*
X327977500Y-75438000D02*
X330454000Y-75438000D01*
X330454000Y-75438000D02*
X330835000Y-75819000D01*
X330835000Y-75819000D02*
X341820500Y-75819000D01*
X341820500Y-75819000D02*
X343408000Y-74231500D01*
X343408000Y-74231500D02*
X348043500Y-74231500D01*
X349948500Y-76136500D02*
X363347000Y-76136500D01*
X348043500Y-74231500D02*
X349948500Y-76136500D01*
X247777000Y-76136500D02*
X234569000Y-76136500D01*
X234569000Y-76136500D02*
X232727500Y-74295000D01*
X232727500Y-74295000D02*
X219329000Y-74295000D01*
X219329000Y-74295000D02*
X217932000Y-75692000D01*
X210121500Y-75692000D02*
X209677000Y-76136500D01*
X217932000Y-75692000D02*
X210121500Y-75692000D01*
X196278500Y-76136500D02*
X194437000Y-74295000D01*
X194437000Y-74295000D02*
X182054500Y-74295000D01*
X182054500Y-74295000D02*
X180657500Y-75692000D01*
X172021500Y-75692000D02*
X171577000Y-76136500D01*
X180657500Y-75692000D02*
X172021500Y-75692000D01*
X209677000Y-76136500D02*
X201612500Y-76136500D01*
X201612500Y-76136500D02*
X196278500Y-76136500D01*
X305816000Y-96139000D02*
X313944000Y-96139000D01*
X299783500Y-102171500D02*
X305816000Y-96139000D01*
X248729500Y-102171500D02*
X299783500Y-102171500D01*
X324485000Y-90233500D02*
X325247000Y-89471500D01*
X318579500Y-96139000D02*
X324485000Y-90233500D01*
X313944000Y-96139000D02*
X318579500Y-96139000D01*
X382397000Y-76136500D02*
X380174500Y-76136500D01*
X380174500Y-76136500D02*
X374332500Y-81978500D01*
X76327000Y-76136500D02*
X76327000Y-77279500D01*
X76327000Y-77279500D02*
X76962000Y-77914500D01*
X76962000Y-77914500D02*
X76962000Y-79819500D01*
X76962000Y-79819500D02*
X79057500Y-81915000D01*
X79057500Y-81915000D02*
X105791000Y-81915000D01*
X111569500Y-76136500D02*
X114427000Y-76136500D01*
X105791000Y-81915000D02*
X111569500Y-76136500D01*
X105791000Y-81915000D02*
X143510000Y-81915000D01*
X149288500Y-76136500D02*
X152527000Y-76136500D01*
X143510000Y-81915000D02*
X149288500Y-76136500D01*
X143510000Y-81915000D02*
X189674500Y-81915000D01*
X189674500Y-81915000D02*
X191198500Y-80391000D01*
X191198500Y-76708000D02*
X190627000Y-76136500D01*
X191198500Y-80391000D02*
X191198500Y-76708000D01*
X189674500Y-81915000D02*
X228346000Y-81915000D01*
X229108000Y-76517500D02*
X228727000Y-76136500D01*
X229108000Y-81153000D02*
X229108000Y-76517500D01*
X228346000Y-81915000D02*
X228663500Y-81661000D01*
X228663500Y-81661000D02*
X229108000Y-81153000D01*
X344932000Y-76771500D02*
X344297000Y-76136500D01*
X347027500Y-81978500D02*
X344995500Y-79946500D01*
X344995500Y-79946500D02*
X344932000Y-76771500D01*
X374332500Y-81978500D02*
X347027500Y-81978500D01*
X306387500Y-98679000D02*
X313944000Y-98679000D01*
X301752000Y-103314500D02*
X306387500Y-98679000D01*
X208153000Y-103314500D02*
X301752000Y-103314500D01*
X328390250Y-90709750D02*
X344455750Y-90709750D01*
X326644000Y-92456000D02*
X328390250Y-90709750D01*
X322453000Y-94805500D02*
X324802500Y-92456000D01*
X344455750Y-90709750D02*
X344932000Y-90233500D01*
X324802500Y-92456000D02*
X326644000Y-92456000D01*
X322453000Y-96520000D02*
X322453000Y-94805500D01*
X320294000Y-98679000D02*
X322453000Y-96520000D01*
X313944000Y-98679000D02*
X320294000Y-98679000D01*
X100330000Y-95186500D02*
X102298500Y-95186500D01*
X102298500Y-95186500D02*
X102870000Y-94615000D01*
X102870000Y-94615000D02*
X114554000Y-94615000D01*
X114554000Y-94615000D02*
X115760500Y-93408500D01*
X115760500Y-93408500D02*
X123126500Y-93408500D01*
X124904500Y-95186500D02*
X138430000Y-95186500D01*
X123126500Y-93408500D02*
X124904500Y-95186500D01*
X138430000Y-95186500D02*
X140271500Y-95186500D01*
X140271500Y-95186500D02*
X140779500Y-94678500D01*
X140779500Y-94678500D02*
X152908000Y-94678500D01*
X152908000Y-94678500D02*
X154241500Y-93345000D01*
X154241500Y-93345000D02*
X161417000Y-93345000D01*
X163258500Y-95186500D02*
X176530000Y-95186500D01*
X161417000Y-93345000D02*
X163258500Y-95186500D01*
X176530000Y-95186500D02*
X178435000Y-95186500D01*
X178435000Y-95186500D02*
X178943000Y-94678500D01*
X178943000Y-94678500D02*
X190182500Y-94678500D01*
X190182500Y-94678500D02*
X191516000Y-93345000D01*
X191516000Y-93345000D02*
X199199500Y-93345000D01*
X201041000Y-95186500D02*
X214630000Y-95186500D01*
X199199500Y-93345000D02*
X201041000Y-95186500D01*
X62230000Y-95186500D02*
X64071500Y-95186500D01*
X64071500Y-95186500D02*
X64643000Y-94615000D01*
X64643000Y-94615000D02*
X78295500Y-94615000D01*
X78295500Y-94615000D02*
X79565500Y-93345000D01*
X79565500Y-93345000D02*
X85026500Y-93345000D01*
X86868000Y-95186500D02*
X100330000Y-95186500D01*
X85026500Y-93345000D02*
X86868000Y-95186500D01*
X325247000Y-95186500D02*
X325247000Y-96520000D01*
X325247000Y-96520000D02*
X325945500Y-97218500D01*
X325945500Y-97218500D02*
X325945500Y-99568000D01*
X325945500Y-99568000D02*
X327469500Y-101092000D01*
X327469500Y-101092000D02*
X353949000Y-101092000D01*
X359854500Y-95186500D02*
X363347000Y-95186500D01*
X353949000Y-101092000D02*
X359854500Y-95186500D01*
X310832500Y-101219000D02*
X313944000Y-101219000D01*
X327342500Y-101219000D02*
X327469500Y-101092000D01*
X313944000Y-101219000D02*
X327342500Y-101219000D01*
X306197000Y-101219000D02*
X313944000Y-101219000D01*
X303149000Y-104267000D02*
X306197000Y-101219000D01*
X216725500Y-104267000D02*
X303149000Y-104267000D01*
X215836500Y-104330500D02*
X216725500Y-104267000D01*
X81280000Y-95186500D02*
X81280000Y-96202500D01*
X81280000Y-96202500D02*
X81978500Y-96901000D01*
X81978500Y-96901000D02*
X81978500Y-98742500D01*
X81978500Y-98742500D02*
X83629500Y-100393500D01*
X83629500Y-100393500D02*
X110871000Y-100393500D01*
X116078000Y-95186500D02*
X119380000Y-95186500D01*
X110871000Y-100393500D02*
X116078000Y-95186500D01*
X119380000Y-95186500D02*
X119380000Y-96393000D01*
X119380000Y-96393000D02*
X120142000Y-97155000D01*
X120142000Y-97155000D02*
X120142000Y-98679000D01*
X120142000Y-98679000D02*
X122110500Y-100647500D01*
X122110500Y-100647500D02*
X148971000Y-100647500D01*
X157480000Y-95186500D02*
X157480000Y-95885000D01*
X157480000Y-95885000D02*
X158115000Y-96520000D01*
X158115000Y-96520000D02*
X158115000Y-99568000D01*
X158115000Y-99568000D02*
X159194500Y-100647500D01*
X159194500Y-100647500D02*
X186753500Y-100647500D01*
X195580000Y-95186500D02*
X195580000Y-96456500D01*
X195580000Y-96456500D02*
X196342000Y-97218500D01*
X196342000Y-97218500D02*
X196342000Y-99758500D01*
X196342000Y-99758500D02*
X197231000Y-100647500D01*
X197231000Y-100647500D02*
X224155000Y-100647500D01*
X148971000Y-100647500D02*
X159194500Y-100647500D01*
X186753500Y-100647500D02*
X197231000Y-100647500D01*
X344297000Y-95186500D02*
X346011500Y-95186500D01*
X346011500Y-95186500D02*
X346646500Y-94551500D01*
X346646500Y-94551500D02*
X358965500Y-94551500D01*
X358965500Y-94551500D02*
X360172000Y-93345000D01*
X360172000Y-93345000D02*
X367347500Y-93345000D01*
X369189000Y-95186500D02*
X382397000Y-95186500D01*
X367347500Y-93345000D02*
X369189000Y-95186500D01*
X344297000Y-95186500D02*
X330962000Y-95186500D01*
X330962000Y-95186500D02*
X329120500Y-93345000D01*
X224345500Y-100584000D02*
X224282000Y-100647500D01*
X224155000Y-100647500D02*
X224282000Y-100647500D01*
X233680000Y-95186500D02*
X233680000Y-96139000D01*
X233680000Y-96139000D02*
X234124500Y-96583500D01*
X234124500Y-96583500D02*
X234124500Y-99695000D01*
X234124500Y-99695000D02*
X233362500Y-100457000D01*
X233362500Y-100457000D02*
X224345500Y-100584000D01*
X207073500Y-80899000D02*
X198882000Y-80899000D01*
X310959500Y-103759000D02*
X313944000Y-103759000D01*
X313944000Y-103759000D02*
X379412500Y-103759000D01*
X379412500Y-103759000D02*
X383159000Y-100012500D01*
X383159000Y-95948500D02*
X382397000Y-95186500D01*
X383159000Y-100012500D02*
X383159000Y-95948500D01*
X313944000Y-103759000D02*
X305625500Y-103759000D01*
X305625500Y-103759000D02*
X303784000Y-105600500D01*
X234188000Y-105600500D02*
X234950000Y-105600500D01*
X303784000Y-105600500D02*
X234950000Y-105600500D01*
X71628000Y-114236500D02*
X73533000Y-114236500D01*
X73533000Y-114236500D02*
X73977500Y-113792000D01*
X73977500Y-113792000D02*
X88201500Y-113792000D01*
X88201500Y-113792000D02*
X89598500Y-112395000D01*
X89598500Y-112395000D02*
X94488000Y-112395000D01*
X96329500Y-114236500D02*
X109728000Y-114236500D01*
X94488000Y-112395000D02*
X96329500Y-114236500D01*
X109728000Y-114236500D02*
X112141000Y-114236500D01*
X112141000Y-114236500D02*
X112522000Y-113855500D01*
X112522000Y-113855500D02*
X124333000Y-113855500D01*
X124333000Y-113855500D02*
X125730000Y-112458500D01*
X125730000Y-112458500D02*
X132905500Y-112458500D01*
X134683500Y-114236500D02*
X147828000Y-114236500D01*
X132905500Y-112458500D02*
X134683500Y-114236500D01*
X147828000Y-114236500D02*
X149669500Y-114236500D01*
X149669500Y-114236500D02*
X150177500Y-113728500D01*
X150177500Y-113728500D02*
X164338000Y-113728500D01*
X164338000Y-113728500D02*
X165671500Y-112395000D01*
X165671500Y-112395000D02*
X170624500Y-112395000D01*
X170624500Y-112395000D02*
X172466000Y-114236500D01*
X172466000Y-114236500D02*
X185928000Y-114236500D01*
X185928000Y-114236500D02*
X187896500Y-114236500D01*
X187896500Y-114236500D02*
X188468000Y-113665000D01*
X188468000Y-113665000D02*
X202438000Y-113665000D01*
X202438000Y-113665000D02*
X203771500Y-112331500D01*
X203771500Y-112331500D02*
X208597500Y-112331500D01*
X210502500Y-114236500D02*
X224028000Y-114236500D01*
X208597500Y-112331500D02*
X210502500Y-114236500D01*
X224028000Y-114236500D02*
X225996500Y-114236500D01*
X225996500Y-114236500D02*
X226314000Y-113919000D01*
X226314000Y-113919000D02*
X240347500Y-113919000D01*
X240347500Y-113919000D02*
X241871500Y-112395000D01*
X241871500Y-112395000D02*
X246951500Y-112395000D01*
X246951500Y-112395000D02*
X248856500Y-114300000D01*
X248856500Y-114300000D02*
X264731500Y-114300000D01*
X325247000Y-114236500D02*
X325247000Y-115379500D01*
X325247000Y-115379500D02*
X326072500Y-116205000D01*
X326072500Y-116205000D02*
X326072500Y-118554500D01*
X326072500Y-118554500D02*
X327723500Y-120205500D01*
X327723500Y-120205500D02*
X353568000Y-120205500D01*
X359537000Y-114236500D02*
X363347000Y-114236500D01*
X353568000Y-120205500D02*
X359537000Y-114236500D01*
X220154500Y-58674000D02*
X221488000Y-57340500D01*
X221488000Y-57340500D02*
X221488000Y-56388000D01*
X216598500Y-63627000D02*
X220091000Y-60134500D01*
X214376000Y-63627000D02*
X216598500Y-63627000D01*
X220091000Y-60134500D02*
X220154500Y-58674000D01*
X311594500Y-106299000D02*
X313944000Y-106299000D01*
X325247000Y-114236500D02*
X325247000Y-112458500D01*
X319087500Y-106299000D02*
X313944000Y-106299000D01*
X325247000Y-112458500D02*
X319087500Y-106299000D01*
X313944000Y-106299000D02*
X306514500Y-106299000D01*
X306514500Y-106299000D02*
X298894500Y-113919000D01*
X298894500Y-113919000D02*
X275780500Y-113919000D01*
X275780500Y-113919000D02*
X273494500Y-111633000D01*
X267398500Y-111633000D02*
X264731500Y-114300000D01*
X270573500Y-111633000D02*
X267398500Y-111633000D01*
X273494500Y-111633000D02*
X270573500Y-111633000D01*
X90678000Y-114236500D02*
X90678000Y-115252500D01*
X90678000Y-115252500D02*
X91567000Y-116141500D01*
X91567000Y-116141500D02*
X91567000Y-118364000D01*
X91567000Y-118364000D02*
X92964000Y-119761000D01*
X92964000Y-119761000D02*
X120142000Y-119761000D01*
X125666500Y-114236500D02*
X128778000Y-114236500D01*
X120142000Y-119761000D02*
X125666500Y-114236500D01*
X120142000Y-119761000D02*
X165862000Y-119761000D01*
X165862000Y-119761000D02*
X167322500Y-118300500D01*
X167322500Y-114681000D02*
X166878000Y-114236500D01*
X167322500Y-118300500D02*
X167322500Y-114681000D01*
X242125500Y-119761000D02*
X243649500Y-118237000D01*
X243649500Y-114808000D02*
X243078000Y-114236500D01*
X243649500Y-118237000D02*
X243649500Y-114808000D01*
X205549500Y-114808000D02*
X204978000Y-114236500D01*
X205549500Y-119761000D02*
X205549500Y-114808000D01*
X205549500Y-119761000D02*
X242125500Y-119761000D01*
X165862000Y-119761000D02*
X205549500Y-119761000D01*
X344297000Y-114236500D02*
X346202000Y-114236500D01*
X346202000Y-114236500D02*
X346646500Y-113792000D01*
X346646500Y-113792000D02*
X357632000Y-113792000D01*
X357632000Y-113792000D02*
X358965500Y-112458500D01*
X358965500Y-112458500D02*
X367030000Y-112458500D01*
X368808000Y-114236500D02*
X382397000Y-114236500D01*
X367030000Y-112458500D02*
X368808000Y-114236500D01*
X215011000Y-92900500D02*
X207010000Y-92900500D01*
X223393000Y-90868500D02*
X223520000Y-90741500D01*
X217043000Y-90868500D02*
X223393000Y-90868500D01*
X217043000Y-90868500D02*
X215011000Y-92900500D01*
X325501000Y-121920000D02*
X344868500Y-121920000D01*
X321627500Y-111315500D02*
X321627500Y-118046500D01*
X319151000Y-108839000D02*
X321627500Y-111315500D01*
X321627500Y-118046500D02*
X325501000Y-121920000D01*
X313944000Y-108839000D02*
X319151000Y-108839000D01*
X295148000Y-119761000D02*
X242125500Y-119761000D01*
X306070000Y-108839000D02*
X295148000Y-119761000D01*
X313944000Y-108839000D02*
X306070000Y-108839000D01*
X325247000Y-133286500D02*
X327469500Y-133286500D01*
X327469500Y-133286500D02*
X327850500Y-132905500D01*
X327850500Y-132905500D02*
X341503000Y-132905500D01*
X341503000Y-132905500D02*
X342836500Y-131572000D01*
X342836500Y-131572000D02*
X348234000Y-131572000D01*
X349948500Y-133286500D02*
X363347000Y-133286500D01*
X348234000Y-131572000D02*
X349948500Y-133286500D01*
X281368500Y-133286500D02*
X273875500Y-133286500D01*
X273875500Y-133286500D02*
X272415000Y-131826000D01*
X325247000Y-133286500D02*
X307022500Y-133286500D01*
X29400500Y-114236500D02*
X43053000Y-114236500D01*
X43053000Y-114236500D02*
X45148500Y-114236500D01*
X45148500Y-114236500D02*
X45720000Y-113665000D01*
X45720000Y-113665000D02*
X64643000Y-113665000D01*
X64643000Y-113665000D02*
X69024500Y-109283500D01*
X69024500Y-109283500D02*
X224536000Y-109283500D01*
X224536000Y-109283500D02*
X225425000Y-108394500D01*
X226504500Y-107315000D02*
X225425000Y-108394500D01*
X228409500Y-107315000D02*
X226504500Y-107315000D01*
X228409500Y-107315000D02*
X258635500Y-107315000D01*
X258635500Y-107315000D02*
X259588000Y-106362500D01*
X259588000Y-106362500D02*
X271462500Y-106362500D01*
X272351500Y-107251500D02*
X272351500Y-107569000D01*
X271462500Y-106362500D02*
X272351500Y-107251500D01*
X285750000Y-76009500D02*
X285877000Y-76136500D01*
X277431500Y-76009500D02*
X285750000Y-76009500D01*
X302577500Y-133286500D02*
X281368500Y-133286500D01*
X307022500Y-133286500D02*
X302577500Y-133286500D01*
X302577500Y-119507000D02*
X302577500Y-133286500D01*
X302577500Y-114998500D02*
X302577500Y-119507000D01*
X306197000Y-111379000D02*
X302577500Y-114998500D01*
X313944000Y-111379000D02*
X306197000Y-111379000D01*
X378587000Y-133286500D02*
X382397000Y-133286500D01*
X372872000Y-139001500D02*
X378587000Y-133286500D01*
X372364000Y-139509500D02*
X372872000Y-139001500D01*
X344297000Y-134175500D02*
X344297000Y-133286500D01*
X336740500Y-139509500D02*
X345059000Y-139509500D01*
X345059000Y-139509500D02*
X345059000Y-135064500D01*
X345059000Y-139509500D02*
X372364000Y-139509500D01*
X345059000Y-135064500D02*
X344932000Y-134810500D01*
X344932000Y-134810500D02*
X344297000Y-134175500D01*
X257302000Y-57086500D02*
X243459000Y-57086500D01*
X243459000Y-57086500D02*
X241554000Y-55181500D01*
X336740500Y-139509500D02*
X273621500Y-139509500D01*
X228917500Y-53022500D02*
X231076500Y-55181500D01*
X228917500Y-50546000D02*
X228917500Y-53022500D01*
X241554000Y-55181500D02*
X231076500Y-55181500D01*
X160337500Y-137541000D02*
X160337500Y-133896000D01*
X160337500Y-133896000D02*
X159728000Y-133286500D01*
X159728000Y-133286500D02*
X151955500Y-133286500D01*
X148590000Y-136652000D02*
X151955500Y-133286500D01*
X130365500Y-136652000D02*
X148590000Y-136652000D01*
X194500500Y-139192000D02*
X194564000Y-139255500D01*
X194500500Y-137223500D02*
X194500500Y-139192000D01*
X194564000Y-139255500D02*
X248031000Y-139255500D01*
X160337500Y-139192000D02*
X160274000Y-139255500D01*
X160337500Y-137541000D02*
X160337500Y-139192000D01*
X160274000Y-139255500D02*
X194564000Y-139255500D01*
X158623000Y-139255500D02*
X160274000Y-139255500D01*
X273367500Y-139255500D02*
X273621500Y-139509500D01*
X248031000Y-139255500D02*
X251079000Y-139255500D01*
X33464500Y-76136500D02*
X30099000Y-76136500D01*
X30099000Y-76136500D02*
X27432000Y-78803500D01*
X27432000Y-78803500D02*
X27432000Y-135191500D01*
X31496000Y-139255500D02*
X38735000Y-139255500D01*
X27432000Y-135191500D02*
X31496000Y-139255500D01*
X68135500Y-139255500D02*
X158623000Y-139255500D01*
X257556000Y-139128500D02*
X257683000Y-139255500D01*
X257556000Y-136715500D02*
X257556000Y-139128500D01*
X257683000Y-139255500D02*
X273367500Y-139255500D01*
X251079000Y-139255500D02*
X257683000Y-139255500D01*
X68008500Y-139255500D02*
X68135500Y-139255500D01*
X38735000Y-139255500D02*
X68008500Y-139255500D01*
X326644000Y-124714000D02*
X341185500Y-124714000D01*
X320452750Y-118522750D02*
X326644000Y-124714000D01*
X320452750Y-115792250D02*
X320452750Y-118522750D01*
X318579500Y-113919000D02*
X320452750Y-115792250D01*
X313944000Y-113919000D02*
X318579500Y-113919000D01*
X197040500Y-137223500D02*
X213042500Y-137223500D01*
X216979500Y-133286500D02*
X231140000Y-133286500D01*
X213042500Y-137223500D02*
X216979500Y-133286500D01*
X253174500Y-136715500D02*
X255016000Y-136715500D01*
X249237500Y-132778500D02*
X253174500Y-136715500D01*
X233489500Y-132778500D02*
X249237500Y-132778500D01*
X232981500Y-133286500D02*
X233489500Y-132778500D01*
X231140000Y-133286500D02*
X232981500Y-133286500D01*
X216217500Y-130746500D02*
X237490000Y-130746500D01*
X212280500Y-134683500D02*
X216217500Y-130746500D01*
X197040500Y-134683500D02*
X212280500Y-134683500D01*
X252920500Y-134175500D02*
X249491500Y-130746500D01*
X255016000Y-134175500D02*
X252920500Y-134175500D01*
X237490000Y-130746500D02*
X249491500Y-130746500D01*
X85915500Y-133286500D02*
X104838500Y-133286500D01*
X104838500Y-133286500D02*
X108458000Y-136906000D01*
X127571500Y-136906000D02*
X127825500Y-136652000D01*
X108458000Y-136906000D02*
X127571500Y-136906000D01*
X74549000Y-136842500D02*
X78105000Y-133286500D01*
X70548500Y-136842500D02*
X74549000Y-136842500D01*
X85915500Y-133286500D02*
X78105000Y-133286500D01*
X92265500Y-130746500D02*
X107124500Y-130746500D01*
X110490000Y-134112000D02*
X107124500Y-130746500D01*
X127825500Y-134112000D02*
X110490000Y-134112000D01*
X70548500Y-134302500D02*
X74168000Y-134302500D01*
X74168000Y-134302500D02*
X77724000Y-130746500D01*
X92265500Y-130746500D02*
X77724000Y-130746500D01*
M02*
