G04 #@! TF.GenerationSoftware,KiCad,Pcbnew,(5.1.7)-1*
G04 #@! TF.CreationDate,2020-12-18T21:48:47-05:00*
G04 #@! TF.ProjectId,petkn,7065746b-6e2e-46b6-9963-61645f706362,rev?*
G04 #@! TF.SameCoordinates,Original*
G04 #@! TF.FileFunction,Copper,L2,Bot*
G04 #@! TF.FilePolarity,Positive*
%FSLAX46Y46*%
G04 Gerber Fmt 4.6, Leading zero omitted, Abs format (unit mm)*
G04 Created by KiCad (PCBNEW (5.1.7)-1) date 2020-12-18 21:48:47*
%MOMM*%
%LPD*%
G01*
G04 APERTURE LIST*
G04 #@! TA.AperFunction,Profile*
%ADD10C,0.050000*%
G04 #@! TD*
G04 #@! TA.AperFunction,ComponentPad*
%ADD11C,2.200000*%
G04 #@! TD*
G04 #@! TA.AperFunction,ComponentPad*
%ADD12O,1.700000X1.700000*%
G04 #@! TD*
G04 #@! TA.AperFunction,ComponentPad*
%ADD13R,1.700000X1.700000*%
G04 #@! TD*
G04 #@! TA.AperFunction,ViaPad*
%ADD14C,0.800000*%
G04 #@! TD*
G04 #@! TA.AperFunction,Conductor*
%ADD15C,0.250000*%
G04 #@! TD*
G04 APERTURE END LIST*
D10*
X101351853Y-52705000D02*
G75*
G03*
X101351853Y-52705000I-2101353J0D01*
G01*
X253688353Y-52641500D02*
G75*
G03*
X253688353Y-52641500I-2101353J0D01*
G01*
X177482853Y-52666500D02*
G75*
G03*
X177482853Y-52666500I-2101353J0D01*
G01*
X300500000Y-143002000D02*
G75*
G03*
X300500000Y-143002000I-2500000J0D01*
G01*
X300500000Y-54000000D02*
G75*
G03*
X300500000Y-54000000I-2500000J0D01*
G01*
X300500000Y-97726500D02*
G75*
G03*
X300500000Y-97726500I-2500000J0D01*
G01*
X17272000Y-54419500D02*
X17272000Y-142367000D01*
X403352000Y-54419500D02*
X403352000Y-142367000D01*
X23114000Y-48577500D02*
X397510000Y-48577500D01*
X24217000Y-98000000D02*
G75*
G03*
X24217000Y-98000000I-2500000J0D01*
G01*
X24217000Y-53000000D02*
G75*
G03*
X24217000Y-53000000I-2500000J0D01*
G01*
X400772000Y-98000000D02*
G75*
G03*
X400772000Y-98000000I-2500000J0D01*
G01*
X23114000Y-148209000D02*
X397510000Y-148209000D01*
X397510000Y-48577500D02*
G75*
G02*
X403352000Y-54419500I0J-5842000D01*
G01*
X53871500Y-143000000D02*
G75*
G03*
X53871500Y-143000000I-2500000J0D01*
G01*
X24217000Y-143000000D02*
G75*
G03*
X24217000Y-143000000I-2500000J0D01*
G01*
X181189000Y-143000000D02*
G75*
G03*
X181189000Y-143000000I-2500000J0D01*
G01*
X253515500Y-143000000D02*
G75*
G03*
X253515500Y-143000000I-2500000J0D01*
G01*
X308824000Y-143000000D02*
G75*
G03*
X308824000Y-143000000I-2500000J0D01*
G01*
X400835500Y-143000000D02*
G75*
G03*
X400835500Y-143000000I-2500000J0D01*
G01*
X17272000Y-54419500D02*
G75*
G02*
X23114000Y-48577500I5842000J0D01*
G01*
X403352000Y-142367000D02*
G75*
G02*
X397510000Y-148209000I-5842000J0D01*
G01*
X308824000Y-54000000D02*
G75*
G03*
X308824000Y-54000000I-2500000J0D01*
G01*
X23114000Y-148209000D02*
G75*
G02*
X17272000Y-142367000I0J5842000D01*
G01*
X400772000Y-54000000D02*
G75*
G03*
X400772000Y-54000000I-2500000J0D01*
G01*
D11*
X159728000Y-133286500D03*
X166078000Y-130746500D03*
D12*
X70548500Y-136842500D03*
X68008500Y-136842500D03*
X70548500Y-134302500D03*
D13*
X68008500Y-134302500D03*
D12*
X130365500Y-136652000D03*
X127825500Y-136652000D03*
X130365500Y-134112000D03*
D13*
X127825500Y-134112000D03*
D12*
X197040500Y-137223500D03*
X194500500Y-137223500D03*
X197040500Y-134683500D03*
D13*
X194500500Y-134683500D03*
D12*
X257556000Y-136715500D03*
X255016000Y-136715500D03*
X257556000Y-134175500D03*
D13*
X255016000Y-134175500D03*
D12*
X43688000Y-137350500D03*
X41148000Y-137350500D03*
X43688000Y-134810500D03*
X41148000Y-134810500D03*
X43688000Y-132270500D03*
D13*
X41148000Y-132270500D03*
D11*
X38354000Y-95123000D03*
X44704000Y-92583000D03*
X85915500Y-133286500D03*
X92265500Y-130746500D03*
X35052000Y-54546500D03*
X28702000Y-57086500D03*
X271691000Y-114251500D03*
X278041000Y-111711500D03*
X187452000Y-54546500D03*
X181102000Y-57086500D03*
D12*
X313944000Y-70739000D03*
X313944000Y-73279000D03*
X313944000Y-75819000D03*
X313944000Y-78359000D03*
X313944000Y-80899000D03*
X313944000Y-83439000D03*
X313944000Y-85979000D03*
X313944000Y-88519000D03*
X313944000Y-91059000D03*
X313944000Y-93599000D03*
X313944000Y-96139000D03*
X313944000Y-98679000D03*
X313944000Y-101219000D03*
X313944000Y-103759000D03*
X313944000Y-106299000D03*
X313944000Y-108839000D03*
X313944000Y-111379000D03*
X313944000Y-113919000D03*
X313944000Y-116459000D03*
D13*
X313944000Y-118999000D03*
D11*
X200152000Y-57086500D03*
X206502000Y-54546500D03*
X196977000Y-73596500D03*
X190627000Y-76136500D03*
X66802000Y-57086500D03*
X73152000Y-54546500D03*
X219202000Y-57086500D03*
X225552000Y-54546500D03*
X344297000Y-133286500D03*
X350647000Y-130746500D03*
X111252000Y-54546500D03*
X104902000Y-57086500D03*
X143002000Y-57086500D03*
X149352000Y-54546500D03*
X231140000Y-133286500D03*
X237490000Y-130746500D03*
X276606000Y-95186500D03*
X282956000Y-92646500D03*
X43053000Y-114236500D03*
X49403000Y-111696500D03*
X33464500Y-76136500D03*
X39814500Y-73596500D03*
D12*
X185737500Y-50546000D03*
X188277500Y-50546000D03*
X190817500Y-50546000D03*
X193357500Y-50546000D03*
X195897500Y-50546000D03*
X198437500Y-50546000D03*
X200977500Y-50546000D03*
X203517500Y-50546000D03*
X206057500Y-50546000D03*
X208597500Y-50546000D03*
X211137500Y-50546000D03*
X213677500Y-50546000D03*
X216217500Y-50546000D03*
X218757500Y-50546000D03*
X221297500Y-50546000D03*
X223837500Y-50546000D03*
X226377500Y-50546000D03*
X228917500Y-50546000D03*
X231457500Y-50546000D03*
D13*
X233997500Y-50546000D03*
D11*
X388747000Y-130746500D03*
X382397000Y-133286500D03*
X252730000Y-95186500D03*
X259080000Y-92646500D03*
X273177000Y-73596500D03*
X266827000Y-76136500D03*
X263652000Y-54546500D03*
X257302000Y-57086500D03*
X369697000Y-130746500D03*
X363347000Y-133286500D03*
X325247000Y-133286500D03*
X331597000Y-130746500D03*
X285877000Y-76136500D03*
X292227000Y-73596500D03*
X276352000Y-57086500D03*
X282702000Y-54546500D03*
X388747000Y-111696500D03*
X382397000Y-114236500D03*
X344297000Y-114236500D03*
X350647000Y-111696500D03*
X243078000Y-114236500D03*
X249428000Y-111696500D03*
X211328000Y-111696500D03*
X204978000Y-114236500D03*
X166878000Y-114236500D03*
X173228000Y-111696500D03*
X135128000Y-111696500D03*
X128778000Y-114236500D03*
X90678000Y-114236500D03*
X97028000Y-111696500D03*
X369697000Y-111696500D03*
X363347000Y-114236500D03*
X325247000Y-114236500D03*
X331597000Y-111696500D03*
X224028000Y-114236500D03*
X230378000Y-111696500D03*
X192278000Y-111696500D03*
X185928000Y-114236500D03*
X147828000Y-114236500D03*
X154178000Y-111696500D03*
X116078000Y-111696500D03*
X109728000Y-114236500D03*
X71628000Y-114236500D03*
X77978000Y-111696500D03*
X388747000Y-92646500D03*
X382397000Y-95186500D03*
X344297000Y-95186500D03*
X350647000Y-92646500D03*
X233680000Y-95186500D03*
X240030000Y-92646500D03*
X201930000Y-92646500D03*
X195580000Y-95186500D03*
X157480000Y-95186500D03*
X163830000Y-92646500D03*
X125730000Y-92646500D03*
X119380000Y-95186500D03*
X81280000Y-95186500D03*
X87630000Y-92646500D03*
X369697000Y-92646500D03*
X363347000Y-95186500D03*
X325247000Y-95186500D03*
X331597000Y-92646500D03*
X214630000Y-95186500D03*
X220980000Y-92646500D03*
X182880000Y-92646500D03*
X176530000Y-95186500D03*
X138430000Y-95186500D03*
X144780000Y-92646500D03*
X106680000Y-92646500D03*
X100330000Y-95186500D03*
X62230000Y-95186500D03*
X68580000Y-92646500D03*
X388747000Y-73596500D03*
X382397000Y-76136500D03*
X344297000Y-76136500D03*
X350647000Y-73596500D03*
X228727000Y-76136500D03*
X235077000Y-73596500D03*
X152527000Y-76136500D03*
X158877000Y-73596500D03*
X120777000Y-73596500D03*
X114427000Y-76136500D03*
X76327000Y-76136500D03*
X82677000Y-73596500D03*
X369697000Y-73596500D03*
X363347000Y-76136500D03*
X325247000Y-76136500D03*
X331597000Y-73596500D03*
X254127000Y-73596500D03*
X247777000Y-76136500D03*
X209677000Y-76136500D03*
X216027000Y-73596500D03*
X177927000Y-73596500D03*
X171577000Y-76136500D03*
X133477000Y-76136500D03*
X139827000Y-73596500D03*
X101727000Y-73596500D03*
X95377000Y-76136500D03*
X57277000Y-76136500D03*
X63627000Y-73596500D03*
X388747000Y-54546500D03*
X382397000Y-57086500D03*
X344297000Y-57086500D03*
X350647000Y-54546500D03*
X369697000Y-54546500D03*
X363347000Y-57086500D03*
X325247000Y-57086500D03*
X331597000Y-54546500D03*
X244602000Y-54546500D03*
X238252000Y-57086500D03*
X168402000Y-54546500D03*
X162052000Y-57086500D03*
X123952000Y-57086500D03*
X130302000Y-54546500D03*
X92202000Y-54546500D03*
X85852000Y-57086500D03*
X47752000Y-57086500D03*
X54102000Y-54546500D03*
D14*
X175260000Y-66929000D03*
X61087000Y-66929000D03*
X50546000Y-93345000D03*
X204533500Y-56197500D03*
X240347500Y-88519000D03*
X195516500Y-87312500D03*
X187833000Y-57086500D03*
X191897000Y-70675500D03*
X119697500Y-54546500D03*
X119634000Y-68199000D03*
X264858500Y-68199000D03*
X193738500Y-69596000D03*
X283654500Y-69659500D03*
X193357500Y-54292500D03*
X270573500Y-107315000D03*
X290131500Y-94869000D03*
X292544500Y-80899000D03*
X194627500Y-64579500D03*
X251968000Y-65024000D03*
X282956000Y-83566000D03*
X254254000Y-83502500D03*
X45021500Y-64706500D03*
X278320500Y-135382000D03*
X331533500Y-85979000D03*
X197231000Y-84772500D03*
X201739500Y-87693500D03*
X330832395Y-56581105D03*
X184975500Y-89535000D03*
X181800500Y-62484000D03*
X207126442Y-62600442D03*
X93218000Y-89535000D03*
X201612500Y-76136500D03*
X325247000Y-89471500D03*
X248729500Y-102171500D03*
X202946000Y-81915000D03*
X344932000Y-90233500D03*
X208153000Y-103314500D03*
X215836500Y-104330500D03*
X207073500Y-80899000D03*
X198882000Y-80899000D03*
X234188000Y-105600500D03*
X214376000Y-63627000D03*
X221488000Y-56388000D03*
X273494500Y-111633000D03*
X344868500Y-121920000D03*
X207010000Y-92900500D03*
X223520000Y-90741500D03*
X272415000Y-131826000D03*
X29400500Y-114236500D03*
X228409500Y-107315000D03*
X272351500Y-107569000D03*
X277431500Y-76009500D03*
X341185500Y-124714000D03*
D15*
X68580000Y-92646500D02*
X70485000Y-92646500D01*
X77978000Y-100139500D02*
X77978000Y-111696500D01*
X70485000Y-92646500D02*
X77978000Y-100139500D01*
X82677000Y-73596500D02*
X84010500Y-73596500D01*
X87630000Y-77216000D02*
X87630000Y-92646500D01*
X84010500Y-73596500D02*
X87630000Y-77216000D01*
X54102000Y-54546500D02*
X56705500Y-54546500D01*
X56705500Y-54546500D02*
X61087000Y-58928000D01*
X61087000Y-71056500D02*
X63627000Y-73596500D01*
X61087000Y-58928000D02*
X61087000Y-71056500D01*
X185737500Y-50546000D02*
X185737500Y-52387500D01*
X185737500Y-52387500D02*
X183134000Y-54991000D01*
X180086000Y-54991000D02*
X175260000Y-59817000D01*
X183134000Y-54991000D02*
X180086000Y-54991000D01*
X175260000Y-66929000D02*
X175260000Y-59817000D01*
X49403000Y-94488000D02*
X49403000Y-111696500D01*
X50546000Y-93345000D02*
X49403000Y-94488000D01*
X39941500Y-113601500D02*
X39941500Y-131064000D01*
X41846500Y-111696500D02*
X39941500Y-113601500D01*
X39941500Y-131064000D02*
X41148000Y-132270500D01*
X49403000Y-111696500D02*
X41846500Y-111696500D01*
X313944000Y-91059000D02*
X315150500Y-91059000D01*
X315150500Y-91059000D02*
X318960500Y-87249000D01*
X318960500Y-87249000D02*
X318960500Y-59753500D01*
X321627500Y-57086500D02*
X325247000Y-57086500D01*
X318960500Y-59753500D02*
X321627500Y-57086500D01*
X206057500Y-51562000D02*
X206057500Y-50546000D01*
X204438250Y-56102250D02*
X204438250Y-53181250D01*
X204533500Y-56197500D02*
X204438250Y-56102250D01*
X204438250Y-53181250D02*
X206057500Y-51562000D01*
X240347500Y-88519000D02*
X240347500Y-63563500D01*
X240347500Y-63563500D02*
X238696500Y-61912500D01*
X238696500Y-57531000D02*
X238252000Y-57086500D01*
X238696500Y-61912500D02*
X238696500Y-57531000D01*
X195516500Y-87312500D02*
X195516500Y-85090000D01*
X195516500Y-85090000D02*
X191643000Y-81216500D01*
X191643000Y-81216500D02*
X191643000Y-77724000D01*
X187833000Y-64960500D02*
X187833000Y-57086500D01*
X192500250Y-76866750D02*
X192500250Y-74326750D01*
X191643000Y-77724000D02*
X192500250Y-76866750D01*
X187833000Y-69659500D02*
X187833000Y-64960500D01*
X192500250Y-74326750D02*
X187833000Y-69659500D01*
X106680000Y-92646500D02*
X108204000Y-92646500D01*
X108204000Y-92646500D02*
X112522000Y-96964500D01*
X112522000Y-108140500D02*
X116078000Y-111696500D01*
X112522000Y-96964500D02*
X112522000Y-108140500D01*
X119697500Y-54546500D02*
X119634000Y-54610000D01*
X119634000Y-72453500D02*
X120777000Y-73596500D01*
X125730000Y-78549500D02*
X120777000Y-73596500D01*
X125730000Y-92646500D02*
X125730000Y-78549500D01*
X191897000Y-70675500D02*
X191770000Y-70548500D01*
X119634000Y-54610000D02*
X119634000Y-68199000D01*
X119634000Y-68199000D02*
X119634000Y-72453500D01*
X263652000Y-54546500D02*
X263652000Y-57277000D01*
X263652000Y-57277000D02*
X264287000Y-57912000D01*
X264287000Y-57912000D02*
X264287000Y-67627500D01*
X264287000Y-67627500D02*
X264858500Y-68199000D01*
X188531500Y-67310000D02*
X191897000Y-70675500D01*
X188531500Y-58420000D02*
X188531500Y-67310000D01*
X189230000Y-57721500D02*
X188531500Y-58420000D01*
X189230000Y-53340000D02*
X189230000Y-57721500D01*
X188277500Y-52387500D02*
X189230000Y-53340000D01*
X188277500Y-50546000D02*
X188277500Y-52387500D01*
X173228000Y-111696500D02*
X173228000Y-114617500D01*
X173228000Y-114617500D02*
X173863000Y-115252500D01*
X173863000Y-122961500D02*
X166078000Y-130746500D01*
X173863000Y-115252500D02*
X173863000Y-122961500D01*
X139827000Y-73596500D02*
X141351000Y-73596500D01*
X144780000Y-77025500D02*
X144780000Y-92646500D01*
X141351000Y-73596500D02*
X144780000Y-77025500D01*
X144780000Y-92646500D02*
X147637500Y-92646500D01*
X147637500Y-92646500D02*
X150368000Y-95377000D01*
X150368000Y-107886500D02*
X154178000Y-111696500D01*
X150368000Y-95377000D02*
X150368000Y-107886500D01*
X139827000Y-73596500D02*
X140335000Y-73596500D01*
X140335000Y-73596500D02*
X150050500Y-63881000D01*
X150050500Y-55245000D02*
X149352000Y-54546500D01*
X150050500Y-63881000D02*
X150050500Y-55245000D01*
X193738500Y-69596000D02*
X192278000Y-68135500D01*
X192278000Y-68135500D02*
X192278000Y-53784500D01*
X190817500Y-52324000D02*
X190817500Y-50546000D01*
X192278000Y-53784500D02*
X190817500Y-52324000D01*
X282702000Y-54546500D02*
X282702000Y-56959500D01*
X282702000Y-56959500D02*
X283083000Y-57340500D01*
X283083000Y-69088000D02*
X283654500Y-69659500D01*
X283083000Y-57340500D02*
X283083000Y-69088000D01*
X177927000Y-73596500D02*
X179578000Y-73596500D01*
X182880000Y-76898500D02*
X182880000Y-92646500D01*
X179578000Y-73596500D02*
X182880000Y-76898500D01*
X182880000Y-92646500D02*
X185801000Y-92646500D01*
X192278000Y-99123500D02*
X192278000Y-111696500D01*
X185801000Y-92646500D02*
X192278000Y-99123500D01*
X193357500Y-54292500D02*
X193548000Y-54102000D01*
X193357500Y-65722500D02*
X197040500Y-69405500D01*
X197040500Y-69405500D02*
X196977000Y-73596500D01*
X193357500Y-54292500D02*
X193357500Y-65722500D01*
X193421000Y-54229000D02*
X193357500Y-54292500D01*
X273685000Y-74104500D02*
X273177000Y-73596500D01*
X273685000Y-81597500D02*
X273685000Y-74104500D01*
X270573500Y-84709000D02*
X273685000Y-81597500D01*
X270573500Y-107315000D02*
X270573500Y-84709000D01*
X193357500Y-54292500D02*
X193357500Y-50546000D01*
X216027000Y-73596500D02*
X217678000Y-73596500D01*
X220980000Y-76898500D02*
X220980000Y-92646500D01*
X217678000Y-73596500D02*
X220980000Y-76898500D01*
X220980000Y-92646500D02*
X224409000Y-92646500D01*
X224409000Y-92646500D02*
X227266500Y-95504000D01*
X227266500Y-108585000D02*
X230378000Y-111696500D01*
X227266500Y-95504000D02*
X227266500Y-108585000D01*
X226060000Y-55054500D02*
X225552000Y-54546500D01*
X218440000Y-73596500D02*
X225996500Y-66040000D01*
X216027000Y-73596500D02*
X218440000Y-73596500D01*
X225996500Y-66040000D02*
X226060000Y-55054500D01*
X290131500Y-89979500D02*
X290131500Y-94869000D01*
X292417500Y-87693500D02*
X290131500Y-89979500D01*
X292417500Y-73787000D02*
X292227000Y-73596500D01*
X292544500Y-81661000D02*
X292417500Y-73787000D01*
X292544500Y-81661000D02*
X292417500Y-87693500D01*
X244602000Y-54546500D02*
X246824500Y-54546500D01*
X246824500Y-54546500D02*
X251968000Y-59690000D01*
X251968000Y-71437500D02*
X254127000Y-73596500D01*
X251968000Y-59690000D02*
X251968000Y-65024000D01*
X251968000Y-65024000D02*
X251968000Y-71437500D01*
X278320500Y-111991000D02*
X278041000Y-111711500D01*
X278320500Y-130048000D02*
X278320500Y-111991000D01*
X194627500Y-57467500D02*
X194627500Y-64579500D01*
X198437500Y-53657500D02*
X194627500Y-57467500D01*
X198437500Y-50546000D02*
X198437500Y-53657500D01*
X282956000Y-92646500D02*
X282956000Y-95059500D01*
X282956000Y-95059500D02*
X283400500Y-95504000D01*
X283400500Y-95504000D02*
X283400500Y-99885500D01*
X278041000Y-105245000D02*
X278041000Y-111711500D01*
X283400500Y-99885500D02*
X278041000Y-105245000D01*
X282956000Y-84455000D02*
X282956000Y-92646500D01*
X282956000Y-83566000D02*
X282956000Y-84455000D01*
X254254000Y-83502500D02*
X254571500Y-83185000D01*
X254571500Y-74041000D02*
X254127000Y-73596500D01*
X254571500Y-83185000D02*
X254571500Y-74041000D01*
X35623500Y-137350500D02*
X41148000Y-137350500D01*
X31178500Y-132905500D02*
X35623500Y-137350500D01*
X31178500Y-93027500D02*
X31178500Y-132905500D01*
X45021500Y-79184500D02*
X31178500Y-93027500D01*
X45021500Y-64706500D02*
X45021500Y-79184500D01*
X278320500Y-130048000D02*
X278320500Y-135382000D01*
X331597000Y-130746500D02*
X331597000Y-121158000D01*
X331597000Y-121158000D02*
X332295500Y-120459500D01*
X332295500Y-112395000D02*
X331597000Y-111696500D01*
X332295500Y-120459500D02*
X332295500Y-112395000D01*
X331597000Y-111696500D02*
X331597000Y-99504500D01*
X331597000Y-99504500D02*
X332168500Y-98933000D01*
X332168500Y-93218000D02*
X331597000Y-92646500D01*
X332168500Y-98933000D02*
X332168500Y-93218000D01*
X331597000Y-80645000D02*
X332168500Y-80073500D01*
X332168500Y-74168000D02*
X331597000Y-73596500D01*
X332168500Y-80073500D02*
X332168500Y-74168000D01*
X331597000Y-73596500D02*
X331597000Y-62801500D01*
X331597000Y-62801500D02*
X332105000Y-62293500D01*
X332105000Y-55054500D02*
X331597000Y-54546500D01*
X332105000Y-62293500D02*
X332105000Y-55054500D01*
X331406500Y-85979000D02*
X331533500Y-86106000D01*
X331597000Y-92646500D02*
X331533500Y-86106000D01*
X331533500Y-86106000D02*
X331597000Y-80645000D01*
X200977500Y-52959000D02*
X200977500Y-50546000D01*
X196405500Y-57531000D02*
X200977500Y-52959000D01*
X196405500Y-67183000D02*
X196405500Y-57531000D01*
X199009000Y-75438000D02*
X199009000Y-69786500D01*
X199009000Y-69786500D02*
X196405500Y-67183000D01*
X197231000Y-77216000D02*
X199009000Y-75438000D01*
X197231000Y-84772500D02*
X197231000Y-77216000D01*
X369697000Y-130746500D02*
X369697000Y-118681500D01*
X369697000Y-118681500D02*
X370205000Y-118173500D01*
X370205000Y-112204500D02*
X369697000Y-111696500D01*
X370205000Y-118173500D02*
X370205000Y-112204500D01*
X369697000Y-111696500D02*
X369697000Y-99949000D01*
X369697000Y-99949000D02*
X370268500Y-99377500D01*
X370268500Y-93218000D02*
X369697000Y-92646500D01*
X370268500Y-99377500D02*
X370268500Y-93218000D01*
X369697000Y-92646500D02*
X369697000Y-80581500D01*
X369697000Y-80581500D02*
X370395500Y-79883000D01*
X370395500Y-74295000D02*
X369697000Y-73596500D01*
X370395500Y-79883000D02*
X370395500Y-74295000D01*
X369697000Y-73596500D02*
X369697000Y-62293500D01*
X369697000Y-62293500D02*
X370205000Y-61785500D01*
X370205000Y-55054500D02*
X369697000Y-54546500D01*
X370205000Y-61785500D02*
X370205000Y-55054500D01*
X203263500Y-50800000D02*
X203517500Y-50546000D01*
X203263500Y-56578500D02*
X203263500Y-50800000D01*
X201168000Y-58674000D02*
X203263500Y-56578500D01*
X201168000Y-61658500D02*
X201168000Y-58674000D01*
X200279000Y-62547500D02*
X201168000Y-61658500D01*
X200279000Y-76644500D02*
X200279000Y-62547500D01*
X201739500Y-78105000D02*
X200279000Y-76644500D01*
X201739500Y-87693500D02*
X201739500Y-78105000D01*
X313944000Y-93599000D02*
X315531500Y-93599000D01*
X315531500Y-93599000D02*
X320865500Y-88265000D01*
X320865500Y-88265000D02*
X320865500Y-76263500D01*
X320865500Y-76263500D02*
X326263000Y-70866000D01*
X326263000Y-70866000D02*
X326263000Y-58483500D01*
X326263000Y-58483500D02*
X328168000Y-56578500D01*
X330829790Y-56578500D02*
X330832395Y-56581105D01*
X328168000Y-56578500D02*
X330829790Y-56578500D01*
X184975500Y-89535000D02*
X184975500Y-71374000D01*
X184975500Y-71374000D02*
X181800500Y-68199000D01*
X181800500Y-68199000D02*
X181800500Y-62484000D01*
X181800500Y-57785000D02*
X181102000Y-57086500D01*
X181800500Y-62484000D02*
X181800500Y-57785000D01*
X208597500Y-50546000D02*
X208597500Y-56324500D01*
X207126442Y-57795558D02*
X207126442Y-62600442D01*
X208597500Y-56324500D02*
X207126442Y-57795558D01*
X68008500Y-136842500D02*
X68008500Y-137287000D01*
X68008500Y-137287000D02*
X68961000Y-138239500D01*
X68961000Y-138239500D02*
X73850500Y-138239500D01*
X73850500Y-138239500D02*
X85026500Y-127063500D01*
X85026500Y-127063500D02*
X85026500Y-109791500D01*
X85026500Y-109791500D02*
X93218000Y-101600000D01*
X93218000Y-101600000D02*
X93218000Y-89535000D01*
X201612500Y-72834500D02*
X201612500Y-76136500D01*
X325247000Y-89471500D02*
X325691500Y-89027000D01*
X325691500Y-76581000D02*
X325247000Y-76136500D01*
X325691500Y-89027000D02*
X325691500Y-76581000D01*
X247777000Y-76136500D02*
X247777000Y-77343000D01*
X247777000Y-77343000D02*
X248412000Y-77978000D01*
X248412000Y-77978000D02*
X248412000Y-101854000D01*
X248412000Y-101854000D02*
X248729500Y-102171500D01*
X211137500Y-63309500D02*
X211074000Y-63373000D01*
X211137500Y-50546000D02*
X211137500Y-63309500D01*
X211074000Y-63373000D02*
X201612500Y-72834500D01*
X344932000Y-76771500D02*
X344297000Y-76136500D01*
X344932000Y-90233500D02*
X344932000Y-76771500D01*
X213169500Y-63055500D02*
X202946000Y-73279000D01*
X202946000Y-73279000D02*
X202946000Y-81915000D01*
X208153000Y-103314500D02*
X208153000Y-91249500D01*
X202946000Y-86042500D02*
X202946000Y-81915000D01*
X208153000Y-91249500D02*
X202946000Y-86042500D01*
X213169500Y-63055500D02*
X213169500Y-53530500D01*
X213677500Y-53022500D02*
X213677500Y-50546000D01*
X213169500Y-53530500D02*
X213677500Y-53022500D01*
X76962000Y-80327500D02*
X76962000Y-76771500D01*
X72326500Y-84963000D02*
X76962000Y-80327500D01*
X63754000Y-84963000D02*
X72326500Y-84963000D01*
X55054500Y-93662500D02*
X63754000Y-84963000D01*
X55054500Y-131699000D02*
X55054500Y-93662500D01*
X76962000Y-76771500D02*
X76327000Y-76136500D01*
X49403000Y-137350500D02*
X55054500Y-131699000D01*
X43688000Y-137350500D02*
X49403000Y-137350500D01*
X215392000Y-99568000D02*
X215392000Y-95948500D01*
X215836500Y-104330500D02*
X215836500Y-100012500D01*
X215392000Y-95948500D02*
X214630000Y-95186500D01*
X215836500Y-100012500D02*
X215392000Y-99568000D01*
X216217500Y-52133500D02*
X216217500Y-50546000D01*
X215423750Y-52927250D02*
X216217500Y-52133500D01*
X215423750Y-64547750D02*
X215423750Y-52927250D01*
X205740000Y-74231500D02*
X215423750Y-64547750D01*
X205740000Y-82613500D02*
X205740000Y-74231500D01*
X214630000Y-91503500D02*
X205740000Y-82613500D01*
X214630000Y-95186500D02*
X214630000Y-91503500D01*
X198882000Y-91884500D02*
X195580000Y-95186500D01*
X198882000Y-80899000D02*
X198882000Y-91884500D01*
X233680000Y-95186500D02*
X233680000Y-96202500D01*
X233680000Y-96202500D02*
X234188000Y-96710500D01*
X234188000Y-96710500D02*
X234188000Y-105600500D01*
X218757500Y-53022500D02*
X218757500Y-50546000D01*
X216281000Y-55499000D02*
X218757500Y-53022500D01*
X216281000Y-65468500D02*
X216281000Y-55499000D01*
X206629000Y-75120500D02*
X216281000Y-65468500D01*
X206629000Y-80454500D02*
X206629000Y-75120500D01*
X207073500Y-80899000D02*
X206629000Y-80454500D01*
X223520000Y-114236500D02*
X224028000Y-114236500D01*
X211201000Y-101917500D02*
X223520000Y-114236500D01*
X211201000Y-92710000D02*
X211201000Y-101917500D01*
X204089000Y-73914000D02*
X204089000Y-85598000D01*
X204089000Y-85598000D02*
X211201000Y-92710000D01*
X214376000Y-63627000D02*
X204089000Y-73914000D01*
X221361000Y-56261000D02*
X221488000Y-56388000D01*
X221297500Y-56197500D02*
X221488000Y-56388000D01*
X221297500Y-50546000D02*
X221297500Y-56197500D01*
X276606000Y-95186500D02*
X276606000Y-96520000D01*
X276606000Y-96520000D02*
X277241000Y-97155000D01*
X277241000Y-97155000D02*
X277241000Y-101600000D01*
X277241000Y-101600000D02*
X273494500Y-105346500D01*
X273494500Y-105346500D02*
X273494500Y-111633000D01*
X344868500Y-114808000D02*
X344297000Y-114236500D01*
X344868500Y-121920000D02*
X344868500Y-114808000D01*
X207010000Y-100774500D02*
X204978000Y-102806500D01*
X207010000Y-92900500D02*
X207010000Y-100774500D01*
X204978000Y-102806500D02*
X204978000Y-114236500D01*
X223837500Y-51879500D02*
X223837500Y-50546000D01*
X224282000Y-52324000D02*
X223837500Y-51879500D01*
X227330000Y-53848000D02*
X225806000Y-52324000D01*
X225806000Y-52324000D02*
X224282000Y-52324000D01*
X229997000Y-58737500D02*
X227330000Y-56070500D01*
X229997000Y-67310000D02*
X229997000Y-58737500D01*
X227330000Y-56070500D02*
X227330000Y-53848000D01*
X223647000Y-73660000D02*
X229997000Y-67310000D01*
X223647000Y-90614500D02*
X223647000Y-73660000D01*
X223520000Y-90741500D02*
X223647000Y-90614500D01*
X43053000Y-114236500D02*
X43053000Y-115633500D01*
X43053000Y-115633500D02*
X43307000Y-115887500D01*
X272415000Y-131826000D02*
X272161000Y-131572000D01*
X272161000Y-114721500D02*
X271691000Y-114251500D01*
X272161000Y-131572000D02*
X272161000Y-114721500D01*
X277241000Y-64452500D02*
X277241000Y-57975500D01*
X285877000Y-76136500D02*
X285877000Y-73088500D01*
X277241000Y-57975500D02*
X276352000Y-57086500D01*
X285877000Y-73088500D02*
X277241000Y-64452500D01*
X28702000Y-57086500D02*
X28702000Y-58102500D01*
X28702000Y-58102500D02*
X29400500Y-58801000D01*
X29400500Y-58801000D02*
X29400500Y-114236500D01*
X226377500Y-50546000D02*
X226377500Y-51689000D01*
X226377500Y-51689000D02*
X227647500Y-52959000D01*
X227647500Y-52959000D02*
X228092000Y-53403500D01*
X228092000Y-53403500D02*
X228219000Y-53530500D01*
X228219000Y-53530500D02*
X228219000Y-55562500D01*
X228219000Y-55562500D02*
X230949500Y-58293000D01*
X230949500Y-58293000D02*
X230949500Y-68135500D01*
X230949500Y-68135500D02*
X225107500Y-73977500D01*
X225107500Y-73977500D02*
X225107500Y-91186000D01*
X225107500Y-91186000D02*
X228409500Y-94488000D01*
X228409500Y-94488000D02*
X228409500Y-107315000D01*
X272351500Y-113591000D02*
X271691000Y-114251500D01*
X272351500Y-107569000D02*
X272351500Y-113591000D01*
X272351500Y-107569000D02*
X272351500Y-95821500D01*
X277431500Y-90741500D02*
X277431500Y-90678000D01*
X272351500Y-95821500D02*
X277431500Y-90741500D01*
X277431500Y-90678000D02*
X277431500Y-76009500D01*
X43307000Y-131889500D02*
X43688000Y-132270500D01*
X43307000Y-115887500D02*
X43307000Y-131889500D01*
X252730000Y-95186500D02*
X252730000Y-90868500D01*
X252730000Y-90868500D02*
X258762500Y-84836000D01*
X258762500Y-84836000D02*
X264668000Y-84836000D01*
X264668000Y-84836000D02*
X267525500Y-81978500D01*
X267525500Y-76835000D02*
X266827000Y-76136500D01*
X267525500Y-81978500D02*
X267525500Y-76835000D01*
X266827000Y-76136500D02*
X266827000Y-72771000D01*
X266827000Y-72771000D02*
X257810000Y-63754000D01*
X257810000Y-57594500D02*
X257302000Y-57086500D01*
X257810000Y-63754000D02*
X257810000Y-57594500D01*
X341185500Y-124714000D02*
X341630000Y-124714000D01*
X344297000Y-127381000D02*
X344297000Y-133286500D01*
X341630000Y-124714000D02*
X344297000Y-127381000D01*
X253301500Y-95758000D02*
X252730000Y-95186500D01*
X253301500Y-110299500D02*
X253301500Y-95758000D01*
X259778500Y-116776500D02*
X253301500Y-110299500D01*
X259778500Y-134810500D02*
X259778500Y-116776500D01*
X257873500Y-136715500D02*
X259778500Y-134810500D01*
X257556000Y-136715500D02*
X257873500Y-136715500D01*
X38354000Y-95123000D02*
X38354000Y-96139000D01*
X38354000Y-96139000D02*
X39052500Y-96837500D01*
X39052500Y-96837500D02*
X39052500Y-132461000D01*
X39052500Y-132461000D02*
X40068500Y-133477000D01*
X42354500Y-133477000D02*
X43688000Y-134810500D01*
X40068500Y-133477000D02*
X42354500Y-133477000D01*
X41148000Y-134810500D02*
X39687500Y-134810500D01*
X39687500Y-134810500D02*
X37719000Y-132842000D01*
X37719000Y-132842000D02*
X37719000Y-104076500D01*
X37719000Y-104076500D02*
X34290000Y-100647500D01*
X34290000Y-100647500D02*
X34290000Y-94551500D01*
X36258500Y-92583000D02*
X44704000Y-92583000D01*
X34290000Y-94551500D02*
X36258500Y-92583000D01*
M02*
