M48
; DRILL file {KiCad (5.1.5)-3} date 2020-08-08 10:18:03 PM
; FORMAT={-:-/ absolute / inch / decimal}
; #@! TF.CreationDate,2020-08-08T22:18:03-04:00
; #@! TF.GenerationSoftware,Kicad,Pcbnew,(5.1.5)-3
FMAT,2
INCH
T1C0.0157
T2C0.0394
T3C0.0591
T4C0.0669
T5C0.1201
T6C0.1575
%
G90
G05
T1
X1.49Y-3.405
X7.135Y-2.535
X7.185Y-1.825
X7.61Y-1.77
X7.795Y-1.455
X7.9Y-1.785
X7.91Y-1.605
X8.045Y-1.57
X8.12Y-1.665
X8.205Y-3.0
X8.21Y-1.59
X8.26Y-1.51
X8.415Y-3.465
X8.61Y-1.51
X8.69Y-1.59
X8.81Y-1.51
X8.865Y-2.74
X9.0Y-1.755
X9.0075Y-1.555
X9.13Y-1.845
X9.2875Y-1.8925
X9.305Y-4.53
X9.545Y-4.13
X9.645Y-4.055
X9.6575Y-2.54
X9.6825Y-1.665
X9.755Y-4.1
X10.5913Y-1.8113
X10.925Y-1.845
X11.7975Y-3.195
X11.99Y-1.71
X12.1325Y-2.5725
X12.4575Y-2.36
X12.47Y-3.005
X12.605Y-2.43
X12.6775Y-3.5375
X12.7237Y-4.4262
X12.7525Y-3.9725
X12.8Y-1.6975
X12.8525Y-3.5875
X12.8925Y-3.9325
X12.8925Y-4.5025
X12.9075Y-1.94
X12.9125Y-3.655
X12.965Y-3.77
X13.08Y-3.11
X13.145Y-1.635
X13.1475Y-3.1525
X13.57Y-1.74
X13.6375Y-3.3275
X13.94Y-3.0
X14.15Y-2.355
X14.15Y-3.0575
X14.27Y-2.82
T2
X13.2675Y-2.3275
X13.2675Y-2.4275
X13.2675Y-2.5275
X13.2675Y-2.6275
X13.2675Y-2.7275
X13.2675Y-2.8275
X13.2675Y-2.9275
X13.2675Y-3.0275
X13.2675Y-3.1275
X13.2675Y-3.2275
X13.2675Y-3.3275
X13.2675Y-3.4275
X13.2675Y-3.5275
X13.2675Y-3.6275
X13.2675Y-3.7275
X13.2675Y-3.8275
X13.2675Y-3.9275
X13.2675Y-4.0275
X13.2675Y-4.1275
X13.2675Y-4.2275
X7.31Y-1.275
X7.41Y-1.275
X7.51Y-1.275
X7.61Y-1.275
X7.71Y-1.275
X7.81Y-1.275
X7.91Y-1.275
X8.01Y-1.275
X8.11Y-1.275
X8.21Y-1.275
X8.31Y-1.275
X8.41Y-1.275
X8.51Y-1.275
X8.61Y-1.275
X8.71Y-1.275
X8.81Y-1.275
X8.91Y-1.275
X9.01Y-1.275
X9.11Y-1.275
X9.21Y-1.275
X1.565Y-4.89
X1.565Y-4.99
X1.565Y-5.09
X1.335Y-4.89
X1.335Y-4.99
X1.335Y-5.09
T3
X7.93Y-1.99
X8.18Y-1.89
X4.56Y-2.74
X4.81Y-2.64
X9.26Y-3.49
X9.51Y-3.39
X6.43Y-1.99
X6.68Y-1.89
X6.1625Y-4.99
X6.4125Y-4.89
X7.18Y-1.99
X7.43Y-1.89
X2.89Y-4.24
X3.14Y-4.14
X8.89Y-4.24
X9.14Y-4.14
X6.26Y-3.49
X6.51Y-3.39
X1.01Y-4.24
X1.26Y-4.14
X7.39Y-4.24
X7.64Y-4.14
X8.14Y-4.24
X8.39Y-4.14
X1.76Y-3.49
X2.01Y-3.39
X5.31Y-2.74
X5.56Y-2.64
X10.18Y-1.99
X10.43Y-1.89
X12.43Y-1.99
X12.68Y-1.89
X14.44Y-2.74
X14.69Y-2.64
X5.89Y-4.24
X6.14Y-4.14
X10.76Y-3.49
X11.01Y-3.39
X14.065Y-4.24
X14.315Y-4.14
X3.43Y-1.99
X3.68Y-1.89
X11.51Y-4.24
X11.76Y-4.14
X8.985Y-4.99
X9.235Y-4.89
X9.81Y-2.74
X10.06Y-2.64
X9.43Y-1.99
X9.68Y-1.89
X8.68Y-1.99
X8.93Y-1.89
X13.69Y-1.99
X13.94Y-1.89
X4.39Y-4.24
X4.64Y-4.14
X1.01Y-3.49
X1.26Y-3.39
X3.64Y-4.24
X3.89Y-4.14
X9.64Y-4.24
X9.89Y-4.14
X12.06Y-2.74
X12.31Y-2.64
X8.51Y-3.49
X8.76Y-3.39
X3.06Y-2.74
X3.31Y-2.64
X1.93Y-1.99
X2.18Y-1.89
X2.68Y-1.99
X2.93Y-1.89
X3.2575Y-4.99
X3.5075Y-4.89
X5.14Y-4.24
X5.39Y-4.14
X4.01Y-3.49
X4.26Y-3.39
X5.68Y-1.99
X5.93Y-1.89
X1.37Y-2.74
X1.62Y-2.64
X7.56Y-2.74
X7.81Y-2.64
X2.51Y-3.49
X2.76Y-3.39
X15.19Y-4.24
X15.44Y-4.14
X15.19Y-1.99
X15.44Y-1.89
X4.18Y-1.99
X4.43Y-1.89
X10.01Y-3.49
X10.26Y-3.39
X13.69Y-2.74
X13.94Y-2.64
X13.69Y-3.49
X13.94Y-3.39
X12.26Y-4.24
X12.51Y-4.14
X3.81Y-2.74
X4.06Y-2.64
X11.31Y-2.74
X11.56Y-2.64
X6.81Y-2.74
X7.06Y-2.64
X14.44Y-1.99
X14.69Y-1.89
X11.68Y-1.99
X11.93Y-1.89
X15.19Y-3.49
X15.44Y-3.39
X9.06Y-2.74
X9.31Y-2.64
X7.76Y-3.49
X8.01Y-3.39
X15.19Y-2.74
X15.44Y-2.64
X3.26Y-3.49
X3.51Y-3.39
X14.44Y-3.49
X14.69Y-3.39
X1.18Y-1.99
X1.43Y-1.89
X1.95Y-4.24
X2.2Y-4.14
X2.31Y-2.74
X2.56Y-2.64
X10.56Y-2.74
X10.81Y-2.64
X6.06Y-2.74
X6.31Y-2.64
X4.93Y-1.99
X5.18Y-1.89
X6.64Y-4.24
X6.89Y-4.14
X10.93Y-1.99
X11.18Y-1.89
X8.31Y-2.74
X8.56Y-2.64
X7.01Y-3.49
X7.26Y-3.39
X5.51Y-3.49
X5.76Y-3.39
X4.76Y-3.49
X5.01Y-3.39
X10.575Y-4.24
X10.825Y-4.14
X11.885Y-3.49
X12.135Y-3.39
T4
X10.525Y-4.34
X10.925Y-4.34
X11.835Y-3.59
X12.235Y-3.59
X7.88Y-2.09
X8.28Y-2.09
X4.51Y-2.84
X4.91Y-2.84
X9.21Y-3.59
X9.61Y-3.59
X6.38Y-2.09
X6.78Y-2.09
X6.1125Y-5.09
X6.5125Y-5.09
X7.13Y-2.09
X7.53Y-2.09
X2.84Y-4.34
X3.24Y-4.34
X8.84Y-4.34
X9.24Y-4.34
X6.21Y-3.59
X6.61Y-3.59
X0.96Y-4.34
X1.36Y-4.34
X7.34Y-4.34
X7.74Y-4.34
X8.09Y-4.34
X8.49Y-4.34
X1.71Y-3.59
X2.11Y-3.59
X5.26Y-2.84
X5.66Y-2.84
X10.13Y-2.09
X10.53Y-2.09
X12.38Y-2.09
X12.78Y-2.09
X14.39Y-2.84
X14.79Y-2.84
X5.84Y-4.34
X6.24Y-4.34
X10.71Y-3.59
X11.11Y-3.59
X14.015Y-4.34
X14.415Y-4.34
X3.38Y-2.09
X3.78Y-2.09
X11.46Y-4.34
X11.86Y-4.34
X8.935Y-5.09
X9.335Y-5.09
X9.76Y-2.84
X10.16Y-2.84
X9.38Y-2.09
X9.78Y-2.09
X8.63Y-2.09
X9.03Y-2.09
X13.64Y-2.09
X14.04Y-2.09
X4.34Y-4.34
X4.74Y-4.34
X0.96Y-3.59
X1.36Y-3.59
X3.59Y-4.34
X3.99Y-4.34
X9.59Y-4.34
X9.99Y-4.34
X12.01Y-2.84
X12.41Y-2.84
X8.46Y-3.59
X8.86Y-3.59
X3.01Y-2.84
X3.41Y-2.84
X1.88Y-2.09
X2.28Y-2.09
X2.63Y-2.09
X3.03Y-2.09
X3.2075Y-5.09
X3.6075Y-5.09
X5.09Y-4.34
X5.49Y-4.34
X3.96Y-3.59
X4.36Y-3.59
X5.63Y-2.09
X6.03Y-2.09
X1.32Y-2.84
X1.72Y-2.84
X7.51Y-2.84
X7.91Y-2.84
X2.46Y-3.59
X2.86Y-3.59
X15.14Y-4.34
X15.54Y-4.34
X15.14Y-2.09
X15.54Y-2.09
X4.13Y-2.09
X4.53Y-2.09
X9.96Y-3.59
X10.36Y-3.59
X13.64Y-2.84
X14.04Y-2.84
X13.64Y-3.59
X14.04Y-3.59
X12.21Y-4.34
X12.61Y-4.34
X3.76Y-2.84
X4.16Y-2.84
X11.26Y-2.84
X11.66Y-2.84
X6.76Y-2.84
X7.16Y-2.84
X14.39Y-2.09
X14.79Y-2.09
X11.63Y-2.09
X12.03Y-2.09
X15.14Y-3.59
X15.54Y-3.59
X9.01Y-2.84
X9.41Y-2.84
X7.71Y-3.59
X8.11Y-3.59
X15.14Y-2.84
X15.54Y-2.84
X3.21Y-3.59
X3.61Y-3.59
X14.39Y-3.59
X14.79Y-3.59
X1.13Y-2.09
X1.53Y-2.09
X1.9Y-4.34
X2.3Y-4.34
X2.26Y-2.84
X2.66Y-2.84
X10.51Y-2.84
X10.91Y-2.84
X6.01Y-2.84
X6.41Y-2.84
X4.88Y-2.09
X5.28Y-2.09
X6.59Y-4.34
X6.99Y-4.34
X10.88Y-2.09
X11.28Y-2.09
X8.26Y-2.84
X8.66Y-2.84
X6.96Y-3.59
X7.36Y-3.59
X5.46Y-3.59
X5.86Y-3.59
X4.71Y-3.59
X5.11Y-3.59
T5
X11.5665Y-3.3144
X12.5035Y-3.3144
X4.344Y-4.8144
X8.281Y-4.8144
X13.7465Y-4.0644
X14.6835Y-4.0644
T6
X6.79Y-4.34
X11.08Y-2.09
X8.46Y-2.84
X7.16Y-3.59
X5.66Y-3.59
X4.91Y-3.59
X10.725Y-4.34
X11.5665Y-3.9144
X12.035Y-3.59
X12.5035Y-3.9144
X8.08Y-2.09
X4.71Y-2.84
X9.41Y-3.59
X6.58Y-2.09
X4.344Y-5.4144
X6.3125Y-5.09
X8.281Y-5.4144
X7.33Y-2.09
X3.04Y-4.34
X9.04Y-4.34
X6.41Y-3.59
X1.16Y-4.34
X7.54Y-4.34
X8.29Y-4.34
X1.91Y-3.59
X5.46Y-2.84
X10.33Y-2.09
X12.58Y-2.09
X14.59Y-2.84
X6.04Y-4.34
X10.91Y-3.59
X13.7465Y-4.6644
X14.215Y-4.34
X14.6835Y-4.6644
X3.58Y-2.09
X11.66Y-4.34
X9.135Y-5.09
X9.96Y-2.84
X9.58Y-2.09
X8.83Y-2.09
X13.84Y-2.09
X4.54Y-4.34
X1.16Y-3.59
X3.79Y-4.34
X9.79Y-4.34
X12.21Y-2.84
X8.66Y-3.59
X3.21Y-2.84
X2.08Y-2.09
X2.83Y-2.09
X3.4075Y-5.09
X5.29Y-4.34
X4.16Y-3.59
X5.83Y-2.09
X1.52Y-2.84
X7.71Y-2.84
X2.66Y-3.59
X15.34Y-4.34
X15.34Y-2.09
X4.33Y-2.09
X10.16Y-3.59
X13.84Y-2.84
X13.84Y-3.59
X12.41Y-4.34
X3.96Y-2.84
X11.46Y-2.84
X6.96Y-2.84
X14.59Y-2.09
X11.83Y-2.09
X15.34Y-3.59
X9.21Y-2.84
X7.91Y-3.59
X15.34Y-2.84
X3.41Y-3.59
X14.59Y-3.59
X1.33Y-2.09
X2.1Y-4.34
X2.46Y-2.84
X10.71Y-2.84
X6.21Y-2.84
X5.08Y-2.09
T0
M30
