M48
; DRILL file {KiCad 7.0.1} date Sun Mar 12 20:55:28 2023
; FORMAT={-:-/ absolute / inch / decimal}
; #@! TF.CreationDate,2023-03-12T20:55:28-04:00
; #@! TF.GenerationSoftware,Kicad,Pcbnew,7.0.1
; #@! TF.FileFunction,NonPlated,1,2,NPTH
FMAT,2
INCH
; #@! TA.AperFunction,NonPlated,NPTH,ComponentDrill
T1C0.0669
; #@! TA.AperFunction,NonPlated,NPTH,ComponentDrill
T2C0.1201
; #@! TA.AperFunction,NonPlated,NPTH,ComponentDrill
T3C0.1575
%
G90
G05
T1
X0.96Y-3.59
X0.96Y-4.34
X1.13Y-2.09
X1.32Y-2.84
X1.36Y-3.59
X1.36Y-4.34
X1.53Y-2.09
X1.71Y-3.59
X1.72Y-2.84
X1.88Y-2.09
X1.9Y-4.34
X2.11Y-3.59
X2.26Y-2.84
X2.28Y-2.09
X2.3Y-4.34
X2.46Y-3.59
X2.63Y-2.09
X2.66Y-2.84
X2.84Y-4.34
X2.86Y-3.59
X3.01Y-2.84
X3.03Y-2.09
X3.2075Y-5.09
X3.21Y-3.59
X3.24Y-4.34
X3.38Y-2.09
X3.41Y-2.84
X3.59Y-4.34
X3.6075Y-5.09
X3.61Y-3.59
X3.76Y-2.84
X3.78Y-2.09
X3.96Y-3.59
X3.99Y-4.34
X4.13Y-2.09
X4.16Y-2.84
X4.34Y-4.34
X4.36Y-3.59
X4.51Y-2.84
X4.53Y-2.09
X4.71Y-3.59
X4.74Y-4.34
X4.88Y-2.09
X4.91Y-2.84
X5.09Y-4.34
X5.11Y-3.59
X5.26Y-2.84
X5.28Y-2.09
X5.46Y-3.59
X5.49Y-4.34
X5.63Y-2.09
X5.66Y-2.84
X5.84Y-4.34
X5.86Y-3.59
X6.01Y-2.84
X6.03Y-2.09
X6.1125Y-5.09
X6.21Y-3.59
X6.24Y-4.34
X6.38Y-2.09
X6.41Y-2.84
X6.5125Y-5.09
X6.59Y-4.34
X6.61Y-3.59
X6.76Y-2.84
X6.78Y-2.09
X6.96Y-3.59
X6.99Y-4.34
X7.13Y-2.09
X7.16Y-2.84
X7.34Y-4.34
X7.36Y-3.59
X7.51Y-2.84
X7.53Y-2.09
X7.71Y-3.59
X7.74Y-4.34
X7.88Y-2.09
X7.91Y-2.84
X8.09Y-4.34
X8.11Y-3.59
X8.26Y-2.84
X8.28Y-2.09
X8.46Y-3.59
X8.49Y-4.34
X8.63Y-2.09
X8.66Y-2.84
X8.84Y-4.34
X8.86Y-3.59
X8.935Y-5.09
X9.01Y-2.84
X9.03Y-2.09
X9.21Y-3.59
X9.24Y-4.34
X9.335Y-5.09
X9.38Y-2.09
X9.41Y-2.84
X9.59Y-4.34
X9.61Y-3.59
X9.76Y-2.84
X9.78Y-2.09
X9.96Y-3.59
X9.99Y-4.34
X10.13Y-2.09
X10.16Y-2.84
X10.36Y-3.59
X10.51Y-2.84
X10.525Y-4.34
X10.53Y-2.09
X10.71Y-3.59
X10.88Y-2.09
X10.91Y-2.84
X10.925Y-4.34
X11.11Y-3.59
X11.26Y-2.84
X11.28Y-2.09
X11.46Y-4.34
X11.63Y-2.09
X11.66Y-2.84
X11.835Y-3.59
X11.86Y-4.34
X12.01Y-2.84
X12.03Y-2.09
X12.21Y-4.34
X12.235Y-3.59
X12.38Y-2.09
X12.41Y-2.84
X12.61Y-4.34
X12.78Y-2.09
X13.64Y-2.09
X13.64Y-2.84
X13.64Y-3.59
X14.015Y-4.34
X14.04Y-2.09
X14.04Y-2.84
X14.04Y-3.59
X14.39Y-2.09
X14.39Y-2.84
X14.39Y-3.59
X14.415Y-4.34
X14.79Y-2.09
X14.79Y-2.84
X14.79Y-3.59
X15.14Y-2.09
X15.14Y-2.84
X15.14Y-3.59
X15.14Y-4.34
X15.54Y-2.09
X15.54Y-2.84
X15.54Y-3.59
X15.54Y-4.34
T2
X4.344Y-4.8144
X8.281Y-4.8144
X11.5665Y-3.3144
X12.5035Y-3.3144
X13.7465Y-4.0644
X14.6835Y-4.0644
T3
X1.16Y-3.59
X1.16Y-4.34
X1.33Y-2.09
X1.52Y-2.84
X1.91Y-3.59
X2.08Y-2.09
X2.1Y-4.34
X2.46Y-2.84
X2.66Y-3.59
X2.83Y-2.09
X3.04Y-4.34
X3.21Y-2.84
X3.4075Y-5.09
X3.41Y-3.59
X3.58Y-2.09
X3.79Y-4.34
X3.96Y-2.84
X4.16Y-3.59
X4.33Y-2.09
X4.344Y-5.4144
X4.54Y-4.34
X4.71Y-2.84
X4.91Y-3.59
X5.08Y-2.09
X5.29Y-4.34
X5.46Y-2.84
X5.66Y-3.59
X5.83Y-2.09
X6.04Y-4.34
X6.21Y-2.84
X6.3125Y-5.09
X6.41Y-3.59
X6.58Y-2.09
X6.79Y-4.34
X6.96Y-2.84
X7.16Y-3.59
X7.33Y-2.09
X7.54Y-4.34
X7.71Y-2.84
X7.91Y-3.59
X8.08Y-2.09
X8.281Y-5.4144
X8.29Y-4.34
X8.46Y-2.84
X8.66Y-3.59
X8.83Y-2.09
X9.04Y-4.34
X9.135Y-5.09
X9.21Y-2.84
X9.41Y-3.59
X9.58Y-2.09
X9.79Y-4.34
X9.96Y-2.84
X10.16Y-3.59
X10.33Y-2.09
X10.71Y-2.84
X10.725Y-4.34
X10.91Y-3.59
X11.08Y-2.09
X11.46Y-2.84
X11.5665Y-3.9144
X11.66Y-4.34
X11.83Y-2.09
X12.035Y-3.59
X12.21Y-2.84
X12.41Y-4.34
X12.5035Y-3.9144
X12.58Y-2.09
X13.7465Y-4.6644
X13.84Y-2.09
X13.84Y-2.84
X13.84Y-3.59
X14.215Y-4.34
X14.59Y-2.09
X14.59Y-2.84
X14.59Y-3.59
X14.6835Y-4.6644
X15.34Y-2.09
X15.34Y-2.84
X15.34Y-3.59
X15.34Y-4.34
T0
M30
