G04 #@! TF.GenerationSoftware,KiCad,Pcbnew,7.0.1*
G04 #@! TF.CreationDate,2023-03-12T20:55:32-04:00*
G04 #@! TF.ProjectId,petkb,7065746b-622e-46b6-9963-61645f706362,B-V1-R2*
G04 #@! TF.SameCoordinates,Original*
G04 #@! TF.FileFunction,Copper,L2,Bot*
G04 #@! TF.FilePolarity,Positive*
%FSLAX46Y46*%
G04 Gerber Fmt 4.6, Leading zero omitted, Abs format (unit mm)*
G04 Created by KiCad (PCBNEW 7.0.1) date 2023-03-12 20:55:32*
%MOMM*%
%LPD*%
G01*
G04 APERTURE LIST*
G04 #@! TA.AperFunction,ComponentPad*
%ADD10C,2.200000*%
G04 #@! TD*
G04 #@! TA.AperFunction,ComponentPad*
%ADD11O,1.700000X1.700000*%
G04 #@! TD*
G04 #@! TA.AperFunction,ComponentPad*
%ADD12R,1.700000X1.700000*%
G04 #@! TD*
G04 #@! TA.AperFunction,ComponentPad*
%ADD13O,1.600000X1.600000*%
G04 #@! TD*
G04 #@! TA.AperFunction,ComponentPad*
%ADD14C,1.600000*%
G04 #@! TD*
G04 #@! TA.AperFunction,ViaPad*
%ADD15C,0.800000*%
G04 #@! TD*
G04 #@! TA.AperFunction,Conductor*
%ADD16C,0.400000*%
G04 #@! TD*
G04 #@! TA.AperFunction,Conductor*
%ADD17C,0.250000*%
G04 #@! TD*
G04 #@! TA.AperFunction,Conductor*
%ADD18C,0.750000*%
G04 #@! TD*
G04 #@! TA.AperFunction,Profile*
%ADD19C,0.050000*%
G04 #@! TD*
G04 APERTURE END LIST*
D10*
X156527500Y-126746000D03*
X162877500Y-124206000D03*
D11*
X196189600Y-126746000D03*
X193649600Y-126746000D03*
X196189600Y-124206000D03*
D12*
X193649600Y-124206000D03*
D11*
X252425200Y-129438400D03*
X249885200Y-129438400D03*
X252425200Y-126898400D03*
D12*
X249885200Y-126898400D03*
D11*
X331571600Y-44450000D03*
D12*
X331571600Y-46990000D03*
D11*
X41402000Y-128930400D03*
X38862000Y-128930400D03*
X41402000Y-126390400D03*
X38862000Y-126390400D03*
X41402000Y-123850400D03*
D12*
X38862000Y-123850400D03*
D11*
X131165600Y-126746000D03*
X128625600Y-126746000D03*
X131165600Y-124206000D03*
D12*
X128625600Y-124206000D03*
D11*
X69748400Y-126796800D03*
X67208400Y-126796800D03*
X69748400Y-124256800D03*
D12*
X67208400Y-124256800D03*
D13*
X339496400Y-50901600D03*
D14*
X329336400Y-50901600D03*
D10*
X347726000Y-50546000D03*
X354076000Y-48006000D03*
X311404000Y-107696000D03*
X317754000Y-105156000D03*
X301879000Y-88646000D03*
X308229000Y-86106000D03*
X392176000Y-86106000D03*
X385826000Y-88646000D03*
X315722000Y-50546000D03*
X322072000Y-48006000D03*
X245872000Y-48006000D03*
X239522000Y-50546000D03*
D11*
X336994500Y-59118500D03*
X336994500Y-61658500D03*
X336994500Y-64198500D03*
X336994500Y-66738500D03*
X336994500Y-69278500D03*
X336994500Y-71818500D03*
X336994500Y-74358500D03*
X336994500Y-76898500D03*
X336994500Y-79438500D03*
X336994500Y-81978500D03*
X336994500Y-84518500D03*
X336994500Y-87058500D03*
X336994500Y-89598500D03*
X336994500Y-92138500D03*
X336994500Y-94678500D03*
X336994500Y-97218500D03*
X336994500Y-99758500D03*
X336994500Y-102298500D03*
X336994500Y-104838500D03*
D12*
X336994500Y-107378500D03*
D10*
X82740500Y-126746000D03*
X89090500Y-124206000D03*
D11*
X185623200Y-44602400D03*
X188163200Y-44602400D03*
X190703200Y-44602400D03*
X193243200Y-44602400D03*
X195783200Y-44602400D03*
X198323200Y-44602400D03*
X200863200Y-44602400D03*
X203403200Y-44602400D03*
X205943200Y-44602400D03*
X208483200Y-44602400D03*
X211023200Y-44602400D03*
X213563200Y-44602400D03*
X216103200Y-44602400D03*
X218643200Y-44602400D03*
X221183200Y-44602400D03*
X223723200Y-44602400D03*
X226263200Y-44602400D03*
X228803200Y-44602400D03*
X231343200Y-44602400D03*
D12*
X233883200Y-44602400D03*
D10*
X211074000Y-69596000D03*
X217424000Y-67056000D03*
X230124000Y-69596000D03*
X236474000Y-67056000D03*
X168656000Y-107696000D03*
X175006000Y-105156000D03*
X235204000Y-88646000D03*
X241554000Y-86106000D03*
X222504000Y-86106000D03*
X216154000Y-88646000D03*
X228219000Y-126746000D03*
X234569000Y-124206000D03*
X63754000Y-88646000D03*
X70104000Y-86106000D03*
X385826000Y-107696000D03*
X392176000Y-105156000D03*
X44704000Y-88646000D03*
X51054000Y-86106000D03*
X115824000Y-69596000D03*
X122174000Y-67056000D03*
X198374000Y-67056000D03*
X192024000Y-69596000D03*
X103124000Y-67056000D03*
X96774000Y-69596000D03*
X312674000Y-67056000D03*
X306324000Y-69596000D03*
X268224000Y-69596000D03*
X274574000Y-67056000D03*
X58674000Y-69596000D03*
X65024000Y-67056000D03*
X84074000Y-67056000D03*
X77724000Y-69596000D03*
X160274000Y-67056000D03*
X153924000Y-69596000D03*
X249174000Y-69596000D03*
X255524000Y-67056000D03*
X179324000Y-67056000D03*
X172974000Y-69596000D03*
X134874000Y-69596000D03*
X141224000Y-67056000D03*
X287274000Y-69596000D03*
X293624000Y-67056000D03*
X34798000Y-69596000D03*
X41148000Y-67056000D03*
X49530000Y-107696000D03*
X55880000Y-105156000D03*
X268605000Y-107696000D03*
X274955000Y-105156000D03*
X357251000Y-107696000D03*
X363601000Y-105156000D03*
X207772000Y-48006000D03*
X201422000Y-50546000D03*
X144272000Y-50546000D03*
X150622000Y-48006000D03*
X93472000Y-48006000D03*
X87122000Y-50546000D03*
X29972000Y-50546000D03*
X36322000Y-48006000D03*
X354076000Y-86106000D03*
X347726000Y-88646000D03*
X244856000Y-107696000D03*
X251206000Y-105156000D03*
X194056000Y-105156000D03*
X187706000Y-107696000D03*
X98806000Y-105156000D03*
X92456000Y-107696000D03*
X25654000Y-107696000D03*
X32004000Y-105156000D03*
X373126000Y-86106000D03*
X366776000Y-88646000D03*
X292354000Y-107696000D03*
X298704000Y-105156000D03*
X213106000Y-105156000D03*
X206756000Y-107696000D03*
X136906000Y-105156000D03*
X130556000Y-107696000D03*
X73406000Y-107696000D03*
X79756000Y-105156000D03*
X232156000Y-105156000D03*
X225806000Y-107696000D03*
X149606000Y-107696000D03*
X155956000Y-105156000D03*
X117856000Y-105156000D03*
X111506000Y-107696000D03*
X354076000Y-67056000D03*
X347726000Y-69596000D03*
X392176000Y-67056000D03*
X385826000Y-69596000D03*
X254254000Y-88646000D03*
X260604000Y-86106000D03*
X184404000Y-86106000D03*
X178054000Y-88646000D03*
X139954000Y-88646000D03*
X146304000Y-86106000D03*
X108204000Y-86106000D03*
X101854000Y-88646000D03*
X373126000Y-67056000D03*
X366776000Y-69596000D03*
X203454000Y-86106000D03*
X197104000Y-88646000D03*
X273304000Y-88646000D03*
X279654000Y-86106000D03*
X165354000Y-86106000D03*
X159004000Y-88646000D03*
X120904000Y-88646000D03*
X127254000Y-86106000D03*
X89154000Y-86106000D03*
X82804000Y-88646000D03*
X25654000Y-88646000D03*
X32004000Y-86106000D03*
X392176000Y-48006000D03*
X385826000Y-50546000D03*
X283972000Y-48006000D03*
X277622000Y-50546000D03*
X226822000Y-48006000D03*
X220472000Y-50546000D03*
X163322000Y-50546000D03*
X169672000Y-48006000D03*
X112522000Y-48006000D03*
X106172000Y-50546000D03*
X49022000Y-50546000D03*
X55372000Y-48006000D03*
X303022000Y-48006000D03*
X296672000Y-50546000D03*
X366776000Y-50546000D03*
X373126000Y-48006000D03*
X264922000Y-48006000D03*
X258572000Y-50546000D03*
X182372000Y-50546000D03*
X188722000Y-48006000D03*
X131572000Y-48006000D03*
X125222000Y-50546000D03*
X68072000Y-50546000D03*
X74422000Y-48006000D03*
D15*
X354076000Y-76200000D03*
X203301600Y-77419200D03*
X312978800Y-77419200D03*
X240284000Y-58674000D03*
X324256400Y-58674000D03*
X316426850Y-58667650D03*
X325272400Y-103886000D03*
X236474000Y-47294800D03*
X37846000Y-86487000D03*
X299656500Y-81153000D03*
X333946500Y-80073500D03*
X198424800Y-62839600D03*
X236474000Y-63144400D03*
X308165500Y-65341500D03*
X245300500Y-64516000D03*
X245922800Y-57505600D03*
X308152800Y-57505600D03*
X237388400Y-119888000D03*
X195783200Y-61976000D03*
X296037000Y-61976000D03*
X323799200Y-61722000D03*
X324002400Y-69291200D03*
X343712800Y-58013600D03*
X265379200Y-62890400D03*
X181229000Y-64389000D03*
X330250800Y-64211200D03*
X329234800Y-94183200D03*
X327977500Y-92837000D03*
X131876800Y-59944000D03*
X179019200Y-59944000D03*
X328777600Y-61620400D03*
X326453500Y-91122500D03*
X171424600Y-97155000D03*
X326440800Y-59029600D03*
X244983000Y-102997000D03*
X92583000Y-118364000D03*
X188214000Y-118313200D03*
X247777000Y-104140000D03*
X328422000Y-100990400D03*
X327907650Y-112426750D03*
X227533200Y-66903600D03*
X233413300Y-66916300D03*
X242443000Y-104902000D03*
X329488800Y-97840800D03*
X329488800Y-114401600D03*
X256717800Y-113665000D03*
X208407000Y-76200000D03*
X346392500Y-84518500D03*
X322008500Y-89852500D03*
X316738000Y-76327000D03*
X217119200Y-52578000D03*
X212496400Y-52527200D03*
X225171000Y-69596000D03*
X332232000Y-78994000D03*
X213741000Y-88011000D03*
X359410000Y-77660500D03*
X359410000Y-59817000D03*
X210058000Y-50546000D03*
X281228800Y-81178400D03*
X343860781Y-79497581D03*
X278282400Y-54914800D03*
X362458000Y-71628000D03*
X126034800Y-61112400D03*
X260146800Y-61061600D03*
X260223000Y-56007000D03*
X182778400Y-61112400D03*
X208076800Y-61112400D03*
X364648750Y-61626750D03*
X240741200Y-63296800D03*
X322275200Y-70459600D03*
X326339200Y-107391200D03*
X327710800Y-70866000D03*
X36677600Y-94996000D03*
X51054000Y-94996000D03*
D16*
X354076000Y-86106000D02*
X354076000Y-76200000D01*
X354076000Y-76200000D02*
X354584000Y-75692000D01*
X354584000Y-67564000D02*
X354076000Y-67056000D01*
X354584000Y-75692000D02*
X354584000Y-67564000D01*
X373126000Y-86106000D02*
X373126000Y-75311000D01*
X373126000Y-75311000D02*
X373888000Y-74549000D01*
X373888000Y-67818000D02*
X373126000Y-67056000D01*
X373888000Y-74549000D02*
X373888000Y-67818000D01*
X203403200Y-44602400D02*
X203403200Y-51054000D01*
X203403200Y-51054000D02*
X202488800Y-51968400D01*
X202488800Y-51968400D02*
X202488800Y-64058800D01*
X202488800Y-64058800D02*
X202488800Y-64312800D01*
X203301600Y-65125600D02*
X203301600Y-77419200D01*
X202488800Y-64312800D02*
X203301600Y-65125600D01*
X312978800Y-67360800D02*
X312674000Y-67056000D01*
X312978800Y-77419200D02*
X312978800Y-67360800D01*
X315722000Y-50546000D02*
X315722000Y-51181000D01*
X315722000Y-51181000D02*
X316420500Y-51879500D01*
X239522000Y-49276000D02*
X239522000Y-50546000D01*
X325247000Y-78168500D02*
X325247000Y-95250000D01*
X228803200Y-44602400D02*
X228803200Y-45313600D01*
X237540800Y-47294800D02*
X237794800Y-47548800D01*
X237794800Y-47548800D02*
X239522000Y-49276000D01*
X239522000Y-50546000D02*
X239522000Y-51866800D01*
X239522000Y-51866800D02*
X240284000Y-52628800D01*
X240284000Y-52628800D02*
X240284000Y-58674000D01*
X325247000Y-59664600D02*
X324256400Y-58674000D01*
X325247000Y-78168500D02*
X325247000Y-59664600D01*
X316420500Y-58661300D02*
X316426850Y-58667650D01*
X316420500Y-51879500D02*
X316420500Y-58661300D01*
X325272400Y-95275400D02*
X325247000Y-95250000D01*
X325272400Y-103886000D02*
X325272400Y-95275400D01*
X236474000Y-47294800D02*
X237540800Y-47294800D01*
X247650000Y-101600000D02*
X251206000Y-105156000D01*
X247650000Y-91440000D02*
X247650000Y-101600000D01*
X37846000Y-86487000D02*
X37846000Y-120396000D01*
X241554000Y-86106000D02*
X241554000Y-70866000D01*
X237744000Y-67056000D02*
X236474000Y-67056000D01*
X241554000Y-70866000D02*
X237744000Y-67056000D01*
X241554000Y-86106000D02*
X242316000Y-86106000D01*
X242316000Y-86106000D02*
X247650000Y-91440000D01*
X298704000Y-105156000D02*
X298704000Y-82105500D01*
X298704000Y-82105500D02*
X299656500Y-81153000D01*
X335026000Y-74358500D02*
X336994500Y-74358500D01*
X333946500Y-80073500D02*
X333946500Y-75438000D01*
X333946500Y-75438000D02*
X335026000Y-74358500D01*
X200863200Y-44602400D02*
X200863200Y-47193200D01*
X200863200Y-47193200D02*
X198374000Y-49682400D01*
X198374000Y-62788800D02*
X198424800Y-62839600D01*
X198374000Y-49682400D02*
X198374000Y-62788800D01*
X236474000Y-63144400D02*
X236474000Y-67056000D01*
X38862000Y-121412000D02*
X37846000Y-120396000D01*
X38862000Y-123850400D02*
X38862000Y-121412000D01*
X237363000Y-114046000D02*
X237363000Y-113538000D01*
X234569000Y-124206000D02*
X234569000Y-123952000D01*
X237363000Y-113538000D02*
X237363000Y-102743000D01*
X228346000Y-88773000D02*
X225679000Y-86106000D01*
X225679000Y-86106000D02*
X222504000Y-86106000D01*
X228346000Y-93726000D02*
X228346000Y-88773000D01*
X237363000Y-102743000D02*
X228346000Y-93726000D01*
X198374000Y-67056000D02*
X198374000Y-70231000D01*
X198374000Y-70231000D02*
X199009000Y-70866000D01*
X199009000Y-81661000D02*
X203454000Y-86106000D01*
X199009000Y-70866000D02*
X199009000Y-81661000D01*
X304577634Y-48006000D02*
X308165500Y-51593866D01*
X303022000Y-48006000D02*
X304577634Y-48006000D01*
X308165500Y-51593866D02*
X308165500Y-65341500D01*
X245872000Y-55753000D02*
X246507000Y-55118000D01*
X246507000Y-48641000D02*
X245872000Y-48006000D01*
X246507000Y-55118000D02*
X246507000Y-48641000D01*
X245872000Y-62865000D02*
X245872000Y-63817500D01*
X245872000Y-63817500D02*
X245300500Y-64389000D01*
X245300500Y-64389000D02*
X245300500Y-64516000D01*
X198323200Y-44602400D02*
X198323200Y-47345600D01*
X198323200Y-47345600D02*
X197053200Y-48615600D01*
X197053200Y-65735200D02*
X198374000Y-67056000D01*
X197053200Y-48615600D02*
X197053200Y-65735200D01*
X245872000Y-57505600D02*
X245922800Y-57505600D01*
X245872000Y-62865000D02*
X245872000Y-57505600D01*
X245872000Y-57505600D02*
X245872000Y-55753000D01*
X237363000Y-119862600D02*
X237388400Y-119888000D01*
X237363000Y-114046000D02*
X237363000Y-119862600D01*
X308229000Y-86106000D02*
X310642000Y-86106000D01*
X310642000Y-86106000D02*
X313817000Y-89281000D01*
X313817000Y-101219000D02*
X317754000Y-105156000D01*
X313817000Y-89281000D02*
X313817000Y-101219000D01*
X293624000Y-67056000D02*
X294767000Y-67056000D01*
X294767000Y-67056000D02*
X302133000Y-74422000D01*
X302133000Y-80010000D02*
X308229000Y-86106000D01*
X302133000Y-74422000D02*
X302133000Y-80010000D01*
X274574000Y-67056000D02*
X276352000Y-67056000D01*
X279654000Y-70358000D02*
X279654000Y-86106000D01*
X276352000Y-67056000D02*
X279654000Y-70358000D01*
X322072000Y-48006000D02*
X322072000Y-50355500D01*
X322072000Y-50355500D02*
X322643500Y-50927000D01*
X322643500Y-50927000D02*
X322643500Y-59309000D01*
X272034000Y-64516000D02*
X274574000Y-67056000D01*
X195783200Y-44602400D02*
X195783200Y-61976000D01*
X293624000Y-64389000D02*
X296037000Y-61976000D01*
X293624000Y-67056000D02*
X293624000Y-64389000D01*
X323799200Y-60464700D02*
X322643500Y-59309000D01*
X323799200Y-61722000D02*
X323799200Y-60464700D01*
X323799200Y-69088000D02*
X324002400Y-69291200D01*
X323799200Y-61722000D02*
X323799200Y-69088000D01*
X373786400Y-48666400D02*
X373126000Y-48006000D01*
X346354400Y-48006000D02*
X354076000Y-48006000D01*
X343712800Y-50647600D02*
X346354400Y-48006000D01*
X343712800Y-58013600D02*
X343712800Y-50647600D01*
X184404000Y-86106000D02*
X184404000Y-70104000D01*
X181356000Y-67056000D02*
X179324000Y-67056000D01*
X194056000Y-105156000D02*
X193675000Y-105156000D01*
X193675000Y-105156000D02*
X189865000Y-101346000D01*
X189865000Y-101346000D02*
X189865000Y-89916000D01*
X186055000Y-86106000D02*
X184404000Y-86106000D01*
X189865000Y-89916000D02*
X186055000Y-86106000D01*
X179324000Y-67056000D02*
X182626000Y-67056000D01*
X184404000Y-70104000D02*
X184404000Y-68834000D01*
X184277000Y-67056000D02*
X182626000Y-67056000D01*
X184404000Y-68834000D02*
X184404000Y-67183000D01*
X184404000Y-67183000D02*
X184277000Y-67056000D01*
X193243200Y-58089800D02*
X193103500Y-58229500D01*
X193243200Y-44602400D02*
X193243200Y-58089800D01*
X193103500Y-58229500D02*
X184277000Y-67056000D01*
X193294000Y-58039000D02*
X193103500Y-58229500D01*
X264922000Y-48006000D02*
X264922000Y-50850800D01*
X265379200Y-51308000D02*
X265379200Y-62890400D01*
X264922000Y-50850800D02*
X265379200Y-51308000D01*
X155956000Y-105156000D02*
X155956000Y-100330000D01*
X155956000Y-100330000D02*
X152908000Y-97282000D01*
X152908000Y-97282000D02*
X152908000Y-90424000D01*
X148590000Y-86106000D02*
X146304000Y-86106000D01*
X152908000Y-90424000D02*
X148590000Y-86106000D01*
X141224000Y-67056000D02*
X143510000Y-67056000D01*
X146304000Y-69850000D02*
X146304000Y-86106000D01*
X146304000Y-69850000D02*
X146304000Y-66548000D01*
X146304000Y-66548000D02*
X146304000Y-61341000D01*
X151257000Y-56388000D02*
X151257000Y-48641000D01*
X151257000Y-48641000D02*
X150622000Y-48006000D01*
X146304000Y-61341000D02*
X151257000Y-56388000D01*
X188722000Y-48006000D02*
X188722000Y-50800000D01*
X188722000Y-50800000D02*
X189230000Y-51308000D01*
X189230000Y-51308000D02*
X189230000Y-56515000D01*
X189230000Y-56515000D02*
X189103000Y-56515000D01*
X189103000Y-56515000D02*
X181229000Y-64389000D01*
X141224000Y-67056000D02*
X145796000Y-67056000D01*
X145796000Y-67056000D02*
X146304000Y-66548000D01*
X330263500Y-64223900D02*
X330263500Y-70929500D01*
X330250800Y-64211200D02*
X330263500Y-64223900D01*
X330263500Y-93154500D02*
X329234800Y-94183200D01*
X330263500Y-92214700D02*
X330263500Y-93154500D01*
X330263500Y-92214700D02*
X330263500Y-70929500D01*
X159590500Y-124221000D02*
X163106000Y-124221000D01*
X156337000Y-120967500D02*
X159590500Y-124221000D01*
X156337000Y-105537000D02*
X156337000Y-120967500D01*
X155956000Y-105156000D02*
X156337000Y-105537000D01*
X108204000Y-86106000D02*
X108204000Y-70358000D01*
D17*
X104902000Y-67056000D02*
X103124000Y-67056000D01*
D16*
X112522000Y-48006000D02*
X112522000Y-66040000D01*
X108204000Y-86106000D02*
X108204000Y-87249000D01*
X108204000Y-87249000D02*
X108966000Y-88011000D01*
X108966000Y-94996000D02*
X98806000Y-105156000D01*
X108966000Y-88011000D02*
X108966000Y-94996000D01*
X111506000Y-67056000D02*
X112522000Y-66040000D01*
X108204000Y-67183000D02*
X108077000Y-67056000D01*
X108204000Y-70358000D02*
X108204000Y-67183000D01*
X103124000Y-67056000D02*
X108077000Y-67056000D01*
X108077000Y-67056000D02*
X111506000Y-67056000D01*
X327977500Y-92837000D02*
X328739500Y-92075000D01*
X328739500Y-92075000D02*
X328739500Y-69913500D01*
X131572000Y-48006000D02*
X131572000Y-51308000D01*
X131876800Y-51612800D02*
X131876800Y-59944000D01*
X131572000Y-51308000D02*
X131876800Y-51612800D01*
X179019200Y-54406800D02*
X179019200Y-50342800D01*
X179019200Y-50342800D02*
X181406800Y-47955200D01*
X181406800Y-47955200D02*
X185826400Y-47955200D01*
X188163200Y-45618400D02*
X188163200Y-44602400D01*
X185826400Y-47955200D02*
X188163200Y-45618400D01*
X179019200Y-54406800D02*
X179019200Y-59944000D01*
X328739500Y-61658500D02*
X328739500Y-69913500D01*
X328777600Y-61620400D02*
X328739500Y-61658500D01*
X70104000Y-86106000D02*
X70104000Y-70358000D01*
X66802000Y-67056000D02*
X65024000Y-67056000D01*
X70104000Y-70358000D02*
X66802000Y-67056000D01*
X74422000Y-48006000D02*
X74422000Y-59563000D01*
X70104000Y-86106000D02*
X70104000Y-88392000D01*
X70104000Y-88392000D02*
X70866000Y-89154000D01*
X70866000Y-96266000D02*
X79756000Y-105156000D01*
X70866000Y-89154000D02*
X70866000Y-96266000D01*
X65024000Y-67056000D02*
X66929000Y-67056000D01*
X66929000Y-67056000D02*
X74422000Y-59563000D01*
X326453500Y-91122500D02*
X326453500Y-69659500D01*
X185623200Y-44602400D02*
X185623200Y-45059600D01*
X185623200Y-45059600D02*
X183946800Y-46736000D01*
X183946800Y-46736000D02*
X179730400Y-46736000D01*
X179730400Y-46736000D02*
X175768000Y-50698400D01*
X175768000Y-50698400D02*
X175768000Y-57505600D01*
X175768000Y-57505600D02*
X168148000Y-65125600D01*
X168148000Y-65125600D02*
X168148000Y-81737200D01*
X168148000Y-81737200D02*
X171450000Y-85039200D01*
X171450000Y-97129600D02*
X171424600Y-97155000D01*
X171450000Y-85039200D02*
X171450000Y-97129600D01*
X326453500Y-59042300D02*
X326453500Y-69659500D01*
X326440800Y-59029600D02*
X326453500Y-59042300D01*
X36271200Y-128930400D02*
X38862000Y-128930400D01*
X32512000Y-125171200D02*
X36271200Y-128930400D01*
X32004000Y-107823000D02*
X32512000Y-108331000D01*
X32512000Y-108331000D02*
X32512000Y-125171200D01*
X32004000Y-105156000D02*
X32004000Y-107823000D01*
X188214000Y-114300000D02*
X188214000Y-108204000D01*
X188214000Y-108204000D02*
X187706000Y-107696000D01*
D17*
X244856000Y-107696000D02*
X244729000Y-107696000D01*
D16*
X244856000Y-103124000D02*
X244856000Y-107696000D01*
D17*
X244983000Y-102997000D02*
X244856000Y-103124000D01*
D16*
X231013000Y-55372000D02*
X231013000Y-54991000D01*
X244983000Y-102997000D02*
X242062000Y-102997000D01*
X229870000Y-75819000D02*
X227203000Y-73152000D01*
X244856000Y-107696000D02*
X244856000Y-108331000D01*
X244856000Y-108331000D02*
X245364000Y-108839000D01*
X231267000Y-92202000D02*
X242062000Y-102997000D01*
X227203000Y-73152000D02*
X231013000Y-76962000D01*
X231013000Y-91948000D02*
X231267000Y-92202000D01*
X231013000Y-76962000D02*
X231013000Y-91948000D01*
X229108000Y-49593500D02*
X231013000Y-51498500D01*
X229108000Y-47396400D02*
X229108000Y-49593500D01*
X227990400Y-46278800D02*
X229108000Y-47396400D01*
X226822000Y-46278800D02*
X227990400Y-46278800D01*
X226263200Y-45720000D02*
X226822000Y-46278800D01*
X226263200Y-44602400D02*
X226263200Y-45720000D01*
X231013000Y-53975000D02*
X231013000Y-54991000D01*
X231013000Y-51498500D02*
X231013000Y-53975000D01*
X227203000Y-69215000D02*
X227203000Y-73152000D01*
X231013000Y-65405000D02*
X227203000Y-69215000D01*
X231013000Y-53975000D02*
X231013000Y-65405000D01*
X92456000Y-107696000D02*
X92456000Y-108508800D01*
X92456000Y-108508800D02*
X93116400Y-109169200D01*
X93116400Y-117830600D02*
X92583000Y-118364000D01*
X93116400Y-109169200D02*
X93116400Y-117830600D01*
X188214000Y-114300000D02*
X188214000Y-118313200D01*
X193649600Y-126746000D02*
X191871600Y-126746000D01*
X188214000Y-123088400D02*
X188214000Y-118313200D01*
X191871600Y-126746000D02*
X188214000Y-123088400D01*
X237109000Y-70612000D02*
X237109000Y-84582000D01*
X237109000Y-84582000D02*
X241935000Y-89408000D01*
X241935000Y-89408000D02*
X241935000Y-98298000D01*
X241935000Y-98298000D02*
X247777000Y-104140000D01*
X357251000Y-107696000D02*
X357251000Y-105854500D01*
X357251000Y-105854500D02*
X367601500Y-95504000D01*
X367601500Y-89471500D02*
X366776000Y-88646000D01*
X367601500Y-95504000D02*
X367601500Y-89471500D01*
X223723200Y-44602400D02*
X223723200Y-47853600D01*
X227533200Y-51663600D02*
X227533200Y-56997600D01*
X223723200Y-47853600D02*
X227533200Y-51663600D01*
X327907650Y-101504750D02*
X327907650Y-112426750D01*
X328422000Y-100990400D02*
X327907650Y-101504750D01*
X227533200Y-56997600D02*
X227533200Y-66903600D01*
X233413300Y-66916300D02*
X237109000Y-70612000D01*
X226441000Y-108331000D02*
X225806000Y-107696000D01*
X385826000Y-88646000D02*
X385826000Y-89471500D01*
X385826000Y-89471500D02*
X386524500Y-90170000D01*
X386524500Y-106997500D02*
X385826000Y-107696000D01*
X386524500Y-90170000D02*
X386524500Y-106997500D01*
X241173000Y-104902000D02*
X242443000Y-104902000D01*
X229108000Y-92837000D02*
X241173000Y-104902000D01*
X226314000Y-81153000D02*
X229108000Y-83947000D01*
X229108000Y-83947000D02*
X229108000Y-92837000D01*
X221183200Y-44602400D02*
X221183200Y-48107600D01*
X221183200Y-48107600D02*
X222402400Y-49326800D01*
X222402400Y-49326800D02*
X222402400Y-51155600D01*
X222402400Y-51155600D02*
X221081600Y-52476400D01*
X221081600Y-56438800D02*
X226314000Y-61671200D01*
X221081600Y-52476400D02*
X221081600Y-56438800D01*
X226314000Y-61671200D02*
X226314000Y-81153000D01*
X329488800Y-97840800D02*
X329488800Y-114401600D01*
X252425200Y-129438400D02*
X253187200Y-129438400D01*
X253187200Y-129438400D02*
X256717800Y-125907800D01*
X256717800Y-125907800D02*
X256717800Y-113665000D01*
X45821600Y-128930400D02*
X41402000Y-128930400D01*
X49530000Y-125222000D02*
X45821600Y-128930400D01*
X49530000Y-107696000D02*
X49530000Y-125222000D01*
X209042000Y-69596000D02*
X208534000Y-70104000D01*
X211074000Y-69596000D02*
X209042000Y-69596000D01*
X208534000Y-70104000D02*
X208407000Y-76200000D01*
X347706001Y-83204999D02*
X347706001Y-75140499D01*
X346392500Y-84518500D02*
X347706001Y-83204999D01*
X347706001Y-75140499D02*
X348551500Y-74295000D01*
X348551500Y-71977134D02*
X348551500Y-72136000D01*
X347726000Y-71151634D02*
X348551500Y-71977134D01*
X347726000Y-69596000D02*
X347726000Y-71151634D01*
X348551500Y-74295000D02*
X348551500Y-72136000D01*
X322008500Y-81597500D02*
X316738000Y-76327000D01*
X322008500Y-89852500D02*
X322008500Y-81597500D01*
X218643200Y-44602400D02*
X218643200Y-46685200D01*
X218643200Y-46685200D02*
X217119200Y-48209200D01*
X217119200Y-48209200D02*
X217119200Y-52578000D01*
X212496400Y-52527200D02*
X212445600Y-52578000D01*
X212445600Y-68224400D02*
X211074000Y-69596000D01*
X212445600Y-52578000D02*
X212445600Y-68224400D01*
X332232000Y-82867500D02*
X332232000Y-86804500D01*
X335026000Y-89598500D02*
X336994500Y-89598500D01*
X332232000Y-86804500D02*
X335026000Y-89598500D01*
X332232000Y-78994000D02*
X332232000Y-82867500D01*
X225171000Y-63119000D02*
X225171000Y-69596000D01*
X216103200Y-54051200D02*
X225171000Y-63119000D01*
X216103200Y-44602400D02*
X216103200Y-54051200D01*
X213563200Y-46532800D02*
X213563200Y-44602400D01*
X214630000Y-47599600D02*
X213563200Y-46532800D01*
X223139000Y-63246000D02*
X214630000Y-54737000D01*
X223139000Y-77470000D02*
X223139000Y-63246000D01*
X216154000Y-84455000D02*
X223139000Y-77470000D01*
X214630000Y-54737000D02*
X214630000Y-47599600D01*
X216154000Y-88646000D02*
X216154000Y-84455000D01*
X213741000Y-84709000D02*
X213741000Y-88011000D01*
X217932000Y-80518000D02*
X213741000Y-84709000D01*
X217932000Y-70866000D02*
X217932000Y-80518000D01*
X211023200Y-44602400D02*
X211023200Y-46075600D01*
X211023200Y-46075600D02*
X213766400Y-48818800D01*
X213766400Y-48818800D02*
X213766400Y-66700400D01*
X213766400Y-66700400D02*
X217932000Y-70866000D01*
X220726000Y-50292000D02*
X220472000Y-50546000D01*
X277495000Y-50419000D02*
X277622000Y-50546000D01*
X359410000Y-77660500D02*
X359410000Y-59817000D01*
X208483200Y-44602400D02*
X208483200Y-45059600D01*
X210058000Y-46634400D02*
X210058000Y-50546000D01*
X208483200Y-45059600D02*
X210058000Y-46634400D01*
X281228800Y-81178400D02*
X281228800Y-60299600D01*
X281228800Y-60299600D02*
X278282400Y-57353200D01*
X278282400Y-51206400D02*
X277622000Y-50546000D01*
X347726000Y-50546000D02*
X347726000Y-59893200D01*
X343860781Y-63758419D02*
X343860781Y-79497581D01*
X347726000Y-59893200D02*
X343860781Y-63758419D01*
X278282400Y-54914800D02*
X278282400Y-51206400D01*
X278282400Y-57353200D02*
X278282400Y-54914800D01*
X44704000Y-79756000D02*
X53213000Y-71247000D01*
X53213000Y-71247000D02*
X53213000Y-67310000D01*
X53213000Y-67310000D02*
X63119000Y-57404000D01*
X63119000Y-57404000D02*
X63119000Y-52578000D01*
D17*
X65151000Y-50546000D02*
X68072000Y-50546000D01*
X63119000Y-52578000D02*
X65151000Y-50546000D01*
D16*
X41529000Y-82931000D02*
X44704000Y-79756000D01*
X362458000Y-71628000D02*
X362458000Y-63817500D01*
X367411000Y-51181000D02*
X366776000Y-50546000D01*
X367411000Y-58864500D02*
X367411000Y-51181000D01*
X125222000Y-50546000D02*
X125222000Y-51765200D01*
X125222000Y-51765200D02*
X126034800Y-52578000D01*
X126034800Y-52578000D02*
X126034800Y-61112400D01*
X260223000Y-60985400D02*
X260223000Y-56007000D01*
X260146800Y-61061600D02*
X260223000Y-60985400D01*
X182372000Y-50546000D02*
X182372000Y-51663600D01*
X182778400Y-52070000D02*
X182778400Y-61112400D01*
X182372000Y-51663600D02*
X182778400Y-52070000D01*
X205994000Y-49631600D02*
X208076800Y-51714400D01*
X205994000Y-48006000D02*
X205994000Y-49631600D01*
X205943200Y-47955200D02*
X205994000Y-48006000D01*
X205943200Y-44602400D02*
X205943200Y-47955200D01*
X208076800Y-51714400D02*
X208076800Y-61112400D01*
X364648750Y-61626750D02*
X367411000Y-58864500D01*
X362458000Y-63817500D02*
X364648750Y-61626750D01*
X41402000Y-83058000D02*
X41529000Y-82931000D01*
X41402000Y-123850400D02*
X41402000Y-83058000D01*
D18*
X339077300Y-104838500D02*
X336994500Y-104838500D01*
X340410800Y-106172000D02*
X339077300Y-104838500D01*
X248970800Y-86156800D02*
X248970800Y-98704400D01*
X231343200Y-46482000D02*
X232308400Y-47447200D01*
X243738400Y-69138800D02*
X243738400Y-80924400D01*
X232308400Y-47447200D02*
X232308400Y-56946800D01*
X239217200Y-63855600D02*
X239217200Y-64617600D01*
X239217200Y-64617600D02*
X243738400Y-69138800D01*
X232308400Y-56946800D02*
X239217200Y-63855600D01*
X248970800Y-98704400D02*
X266649200Y-116382800D01*
X231343200Y-44602400D02*
X231343200Y-46482000D01*
X266649200Y-116382800D02*
X337464400Y-116382800D01*
X243738400Y-80924400D02*
X248970800Y-86156800D01*
X337464400Y-116382800D02*
X340410800Y-113436400D01*
X340410800Y-113436400D02*
X340410800Y-106172000D01*
X340410800Y-51816000D02*
X339496400Y-50901600D01*
X340410800Y-106172000D02*
X340410800Y-51816000D01*
X233883200Y-44602400D02*
X233883200Y-56337200D01*
X233883200Y-56337200D02*
X240842800Y-63296800D01*
X240842800Y-63296800D02*
X240741200Y-63296800D01*
X322275200Y-70459600D02*
X324104000Y-72288400D01*
X324104000Y-72288400D02*
X324104000Y-98602800D01*
X324104000Y-98602800D02*
X324104000Y-105410000D01*
X326085200Y-107391200D02*
X326339200Y-107391200D01*
X324104000Y-105410000D02*
X326085200Y-107391200D01*
X331571600Y-44450000D02*
X330809600Y-44450000D01*
X330809600Y-44450000D02*
X327253600Y-48006000D01*
X327253600Y-48006000D02*
X327253600Y-57505600D01*
X327253600Y-57505600D02*
X327710800Y-57962800D01*
X327710800Y-57962800D02*
X327710800Y-60604400D01*
X327710800Y-60604400D02*
X327710800Y-70866000D01*
X329336400Y-49225200D02*
X331571600Y-46990000D01*
X329336400Y-50901600D02*
X329336400Y-49225200D01*
D16*
X43738800Y-126390400D02*
X41402000Y-126390400D01*
X45085000Y-125044200D02*
X43738800Y-126390400D01*
X45085000Y-89027000D02*
X45085000Y-125044200D01*
X44704000Y-88646000D02*
X45085000Y-89027000D01*
X38862000Y-126390400D02*
X37388800Y-126390400D01*
X36677600Y-125679200D02*
X36677600Y-94996000D01*
X37388800Y-126390400D02*
X36677600Y-125679200D01*
X51054000Y-86106000D02*
X51054000Y-94996000D01*
D19*
X398676494Y-139801600D02*
G75*
G03*
X398676494Y-139801600I-2030094J0D01*
G01*
X254861694Y-46276894D02*
G75*
G03*
X254861694Y-46276894I-2030094J0D01*
G01*
X178712494Y-46073694D02*
G75*
G03*
X178712494Y-46073694I-2030094J0D01*
G01*
X26617294Y-46126400D02*
G75*
G03*
X26617294Y-46126400I-2030094J0D01*
G01*
X98501200Y-139801600D02*
G75*
G03*
X98501200Y-139801600I-2030094J0D01*
G01*
X149197694Y-139801600D02*
G75*
G03*
X149197694Y-139801600I-2030094J0D01*
G01*
X276705694Y-139852400D02*
G75*
G03*
X276705694Y-139852400I-2030094J0D01*
G01*
X338935694Y-139750800D02*
G75*
G03*
X338935694Y-139750800I-2030094J0D01*
G01*
X243584094Y-139801600D02*
G75*
G03*
X243584094Y-139801600I-2030094J0D01*
G01*
X371092094Y-139801600D02*
G75*
G03*
X371092094Y-139801600I-2030094J0D01*
G01*
X308100094Y-139801600D02*
G75*
G03*
X308100094Y-139801600I-2030094J0D01*
G01*
X180439694Y-139852400D02*
G75*
G03*
X180439694Y-139852400I-2030094J0D01*
G01*
X53084094Y-139801600D02*
G75*
G03*
X53084094Y-139801600I-2030094J0D01*
G01*
X26972894Y-139700000D02*
G75*
G03*
X26972894Y-139700000I-2030094J0D01*
G01*
X23213694Y-72136000D02*
G75*
G03*
X23213694Y-72136000I-2030094J0D01*
G01*
X23264494Y-53187600D02*
G75*
G03*
X23264494Y-53187600I-2030094J0D01*
G01*
X102563294Y-46126400D02*
G75*
G03*
X102563294Y-46126400I-2030094J0D01*
G01*
X338884894Y-46126400D02*
G75*
G03*
X338884894Y-46126400I-2030094J0D01*
G01*
X401978494Y-129844800D02*
G75*
G03*
X401978494Y-129844800I-2030094J0D01*
G01*
X402130894Y-110236000D02*
G75*
G03*
X402130894Y-110236000I-2030094J0D01*
G01*
X402130894Y-91236800D02*
G75*
G03*
X402130894Y-91236800I-2030094J0D01*
G01*
X402130894Y-72136000D02*
G75*
G03*
X402130894Y-72136000I-2030094J0D01*
G01*
X402132800Y-53136800D02*
G75*
G03*
X402132800Y-53136800I-2030094J0D01*
G01*
X22860000Y-42773600D02*
X397256000Y-42773600D01*
X17018000Y-136956800D02*
X17018000Y-48615600D01*
X397256000Y-142798800D02*
X22860000Y-142798800D01*
X403098000Y-136956800D02*
X403098000Y-123545600D01*
X403098000Y-48615600D02*
X403098000Y-123545600D01*
X22860000Y-42773600D02*
G75*
G03*
X17018000Y-48615600I0J-5842000D01*
G01*
X17018000Y-136956800D02*
G75*
G03*
X22860000Y-142798800I5842000J0D01*
G01*
X397256000Y-142798800D02*
G75*
G03*
X403098000Y-136956800I0J5842000D01*
G01*
X403098000Y-48615600D02*
G75*
G03*
X397256000Y-42773600I-5842000J0D01*
G01*
M02*
