G04 #@! TF.GenerationSoftware,KiCad,Pcbnew,7.0.1*
G04 #@! TF.CreationDate,2023-03-12T20:55:32-04:00*
G04 #@! TF.ProjectId,petkb,7065746b-622e-46b6-9963-61645f706362,B-V1-R2*
G04 #@! TF.SameCoordinates,Original*
G04 #@! TF.FileFunction,Profile,NP*
%FSLAX46Y46*%
G04 Gerber Fmt 4.6, Leading zero omitted, Abs format (unit mm)*
G04 Created by KiCad (PCBNEW 7.0.1) date 2023-03-12 20:55:32*
%MOMM*%
%LPD*%
G01*
G04 APERTURE LIST*
G04 #@! TA.AperFunction,Profile*
%ADD10C,0.050000*%
G04 #@! TD*
G04 APERTURE END LIST*
D10*
X398676494Y-139801600D02*
G75*
G03*
X398676494Y-139801600I-2030094J0D01*
G01*
X254861694Y-46276894D02*
G75*
G03*
X254861694Y-46276894I-2030094J0D01*
G01*
X178712494Y-46073694D02*
G75*
G03*
X178712494Y-46073694I-2030094J0D01*
G01*
X26617294Y-46126400D02*
G75*
G03*
X26617294Y-46126400I-2030094J0D01*
G01*
X98501200Y-139801600D02*
G75*
G03*
X98501200Y-139801600I-2030094J0D01*
G01*
X149197694Y-139801600D02*
G75*
G03*
X149197694Y-139801600I-2030094J0D01*
G01*
X276705694Y-139852400D02*
G75*
G03*
X276705694Y-139852400I-2030094J0D01*
G01*
X338935694Y-139750800D02*
G75*
G03*
X338935694Y-139750800I-2030094J0D01*
G01*
X243584094Y-139801600D02*
G75*
G03*
X243584094Y-139801600I-2030094J0D01*
G01*
X371092094Y-139801600D02*
G75*
G03*
X371092094Y-139801600I-2030094J0D01*
G01*
X308100094Y-139801600D02*
G75*
G03*
X308100094Y-139801600I-2030094J0D01*
G01*
X180439694Y-139852400D02*
G75*
G03*
X180439694Y-139852400I-2030094J0D01*
G01*
X53084094Y-139801600D02*
G75*
G03*
X53084094Y-139801600I-2030094J0D01*
G01*
X26972894Y-139700000D02*
G75*
G03*
X26972894Y-139700000I-2030094J0D01*
G01*
X23213694Y-72136000D02*
G75*
G03*
X23213694Y-72136000I-2030094J0D01*
G01*
X23264494Y-53187600D02*
G75*
G03*
X23264494Y-53187600I-2030094J0D01*
G01*
X102563294Y-46126400D02*
G75*
G03*
X102563294Y-46126400I-2030094J0D01*
G01*
X338884894Y-46126400D02*
G75*
G03*
X338884894Y-46126400I-2030094J0D01*
G01*
X401978494Y-129844800D02*
G75*
G03*
X401978494Y-129844800I-2030094J0D01*
G01*
X402130894Y-110236000D02*
G75*
G03*
X402130894Y-110236000I-2030094J0D01*
G01*
X402130894Y-91236800D02*
G75*
G03*
X402130894Y-91236800I-2030094J0D01*
G01*
X402130894Y-72136000D02*
G75*
G03*
X402130894Y-72136000I-2030094J0D01*
G01*
X402132800Y-53136800D02*
G75*
G03*
X402132800Y-53136800I-2030094J0D01*
G01*
X22860000Y-42773600D02*
X397256000Y-42773600D01*
X17018000Y-136956800D02*
X17018000Y-48615600D01*
X397256000Y-142798800D02*
X22860000Y-142798800D01*
X403098000Y-136956800D02*
X403098000Y-123545600D01*
X403098000Y-48615600D02*
X403098000Y-123545600D01*
X22860000Y-42773600D02*
G75*
G03*
X17018000Y-48615600I0J-5842000D01*
G01*
X17018000Y-136956800D02*
G75*
G03*
X22860000Y-142798800I5842000J0D01*
G01*
X397256000Y-142798800D02*
G75*
G03*
X403098000Y-136956800I0J5842000D01*
G01*
X403098000Y-48615600D02*
G75*
G03*
X397256000Y-42773600I-5842000J0D01*
G01*
M02*
