M48
; DRILL file {KiCad 7.0.1} date Sun Mar 12 20:55:28 2023
; FORMAT={-:-/ absolute / inch / decimal}
; #@! TF.CreationDate,2023-03-12T20:55:28-04:00
; #@! TF.GenerationSoftware,Kicad,Pcbnew,7.0.1
; #@! TF.FileFunction,Plated,1,2,PTH
FMAT,2
INCH
; #@! TA.AperFunction,Plated,PTH,ViaDrill
T1C0.0157
; #@! TA.AperFunction,Plated,PTH,ComponentDrill
T2C0.0315
; #@! TA.AperFunction,Plated,PTH,ComponentDrill
T3C0.0394
; #@! TA.AperFunction,Plated,PTH,ComponentDrill
T4C0.0591
%
G90
G05
T1
X1.444Y-3.74
X1.49Y-3.405
X2.01Y-3.74
X3.645Y-4.66
X4.962Y-2.406
X5.192Y-2.36
X6.749Y-3.825
X7.048Y-2.36
X7.135Y-2.535
X7.196Y-2.406
X7.41Y-4.658
X7.708Y-2.44
X7.812Y-2.474
X8.004Y-3.048
X8.192Y-2.406
X8.205Y-3.0
X8.27Y-1.99
X8.366Y-2.068
X8.415Y-3.465
X8.548Y-2.07
X8.865Y-2.74
X8.958Y-2.634
X9.1895Y-2.6345
X9.31Y-1.862
X9.31Y-2.486
X9.346Y-4.72
X9.46Y-2.31
X9.478Y-2.492
X9.545Y-4.13
X9.645Y-4.055
X9.6575Y-2.54
X9.682Y-2.264
X9.755Y-4.1
X10.107Y-4.475
X10.242Y-2.404
X10.245Y-2.205
X10.448Y-2.476
X10.956Y-2.162
X11.072Y-3.196
X11.655Y-2.44
X11.7975Y-3.195
X12.132Y-2.264
X12.1325Y-2.5725
X12.322Y-3.048
X12.4577Y-2.3097
X12.47Y-3.005
X12.6775Y-3.5375
X12.688Y-2.774
X12.748Y-2.43
X12.756Y-2.728
X12.766Y-2.31
X12.806Y-4.09
X12.848Y-4.228
X12.852Y-2.324
X12.8525Y-3.5875
X12.902Y-2.79
X12.9097Y-4.4262
X12.9125Y-3.655
X12.93Y-3.976
X12.944Y-2.426
X12.962Y-3.708
X12.972Y-3.852
X12.972Y-4.504
X13.002Y-2.528
X13.08Y-3.11
X13.1475Y-3.1525
X13.532Y-2.284
X13.5378Y-3.1298
X13.6375Y-3.3275
X13.94Y-3.0
X14.15Y-2.355
X14.15Y-3.0575
X14.27Y-2.82
X14.3562Y-2.4263
T2
X12.966Y-2.004
X13.366Y-2.004
T3
X1.53Y-4.876
X1.53Y-4.976
X1.53Y-5.076
X1.63Y-4.876
X1.63Y-4.976
X1.63Y-5.076
X2.646Y-4.892
X2.646Y-4.992
X2.746Y-4.892
X2.746Y-4.992
X5.064Y-4.89
X5.064Y-4.99
X5.164Y-4.89
X5.164Y-4.99
X7.308Y-1.756
X7.408Y-1.756
X7.508Y-1.756
X7.608Y-1.756
X7.624Y-4.89
X7.624Y-4.99
X7.708Y-1.756
X7.724Y-4.89
X7.724Y-4.99
X7.808Y-1.756
X7.908Y-1.756
X8.008Y-1.756
X8.108Y-1.756
X8.208Y-1.756
X8.308Y-1.756
X8.408Y-1.756
X8.508Y-1.756
X8.608Y-1.756
X8.708Y-1.756
X8.808Y-1.756
X8.908Y-1.756
X9.008Y-1.756
X9.108Y-1.756
X9.208Y-1.756
X9.838Y-4.996
X9.838Y-5.096
X9.938Y-4.996
X9.938Y-5.096
X13.054Y-1.75
X13.054Y-1.85
X13.2675Y-2.3275
X13.2675Y-2.4275
X13.2675Y-2.5275
X13.2675Y-2.6275
X13.2675Y-2.7275
X13.2675Y-2.8275
X13.2675Y-2.9275
X13.2675Y-3.0275
X13.2675Y-3.1275
X13.2675Y-3.2275
X13.2675Y-3.3275
X13.2675Y-3.4275
X13.2675Y-3.5275
X13.2675Y-3.6275
X13.2675Y-3.7275
X13.2675Y-3.8275
X13.2675Y-3.9275
X13.2675Y-4.0275
X13.2675Y-4.1275
X13.2675Y-4.2275
T4
X1.01Y-3.49
X1.01Y-4.24
X1.18Y-1.99
X1.26Y-3.39
X1.26Y-4.14
X1.37Y-2.74
X1.43Y-1.89
X1.62Y-2.64
X1.76Y-3.49
X1.93Y-1.99
X1.95Y-4.24
X2.01Y-3.39
X2.18Y-1.89
X2.2Y-4.14
X2.31Y-2.74
X2.51Y-3.49
X2.56Y-2.64
X2.68Y-1.99
X2.76Y-3.39
X2.89Y-4.24
X2.93Y-1.89
X3.06Y-2.74
X3.14Y-4.14
X3.2575Y-4.99
X3.26Y-3.49
X3.31Y-2.64
X3.43Y-1.99
X3.5075Y-4.89
X3.51Y-3.39
X3.64Y-4.24
X3.68Y-1.89
X3.81Y-2.74
X3.89Y-4.14
X4.01Y-3.49
X4.06Y-2.64
X4.18Y-1.99
X4.26Y-3.39
X4.39Y-4.24
X4.43Y-1.89
X4.56Y-2.74
X4.64Y-4.14
X4.76Y-3.49
X4.81Y-2.64
X4.93Y-1.99
X5.01Y-3.39
X5.14Y-4.24
X5.18Y-1.89
X5.31Y-2.74
X5.39Y-4.14
X5.51Y-3.49
X5.56Y-2.64
X5.68Y-1.99
X5.76Y-3.39
X5.89Y-4.24
X5.93Y-1.89
X6.06Y-2.74
X6.14Y-4.14
X6.1625Y-4.99
X6.26Y-3.49
X6.31Y-2.64
X6.4125Y-4.89
X6.43Y-1.99
X6.51Y-3.39
X6.64Y-4.24
X6.68Y-1.89
X6.81Y-2.74
X6.89Y-4.14
X7.01Y-3.49
X7.06Y-2.64
X7.18Y-1.99
X7.26Y-3.39
X7.39Y-4.24
X7.43Y-1.89
X7.56Y-2.74
X7.64Y-4.14
X7.76Y-3.49
X7.81Y-2.64
X7.93Y-1.99
X8.01Y-3.39
X8.14Y-4.24
X8.18Y-1.89
X8.31Y-2.74
X8.39Y-4.14
X8.51Y-3.49
X8.56Y-2.64
X8.68Y-1.99
X8.76Y-3.39
X8.89Y-4.24
X8.93Y-1.89
X8.985Y-4.99
X9.06Y-2.74
X9.14Y-4.14
X9.235Y-4.89
X9.26Y-3.49
X9.31Y-2.64
X9.43Y-1.99
X9.51Y-3.39
X9.64Y-4.24
X9.68Y-1.89
X9.81Y-2.74
X9.89Y-4.14
X10.01Y-3.49
X10.06Y-2.64
X10.18Y-1.99
X10.26Y-3.39
X10.43Y-1.89
X10.56Y-2.74
X10.575Y-4.24
X10.76Y-3.49
X10.81Y-2.64
X10.825Y-4.14
X10.93Y-1.99
X11.01Y-3.39
X11.18Y-1.89
X11.31Y-2.74
X11.51Y-4.24
X11.56Y-2.64
X11.68Y-1.99
X11.76Y-4.14
X11.885Y-3.49
X11.93Y-1.89
X12.06Y-2.74
X12.135Y-3.39
X12.26Y-4.24
X12.31Y-2.64
X12.43Y-1.99
X12.51Y-4.14
X12.68Y-1.89
X13.69Y-1.99
X13.69Y-2.74
X13.69Y-3.49
X13.94Y-1.89
X13.94Y-2.64
X13.94Y-3.39
X14.065Y-4.24
X14.315Y-4.14
X14.44Y-1.99
X14.44Y-2.74
X14.44Y-3.49
X14.69Y-1.89
X14.69Y-2.64
X14.69Y-3.39
X15.19Y-1.99
X15.19Y-2.74
X15.19Y-3.49
X15.19Y-4.24
X15.44Y-1.89
X15.44Y-2.64
X15.44Y-3.39
X15.44Y-4.14
T0
M30
